<svg width="426" height="417" viewBox="0 0 426 417" fill="none" xmlns="http://www.w3.org/2000/svg">
<path d="M84.3135 176.942C84.3185 147.594 94.981 119.186 114.428 96.7068C133.879 74.2262 160.868 59.112 190.667 54.0204C220.46 48.9258 251.15 54.1778 277.351 68.8539C303.55 83.5275 323.58 106.689 333.926 134.266C344.274 161.846 344.274 192.079 333.929 219.656C323.583 247.233 303.55 270.395 277.353 285.074C273.734 287.105 269.106 285.908 267.01 282.399C264.917 278.891 266.151 274.398 269.768 272.365C291.415 260.243 308.335 241.53 317.904 219.126C327.469 196.724 329.149 171.885 322.681 148.458C316.213 125.036 301.957 104.338 282.126 89.5752C262.296 74.8129 237.998 66.812 213 66.812C188.001 66.812 163.706 74.8129 143.873 89.5752C124.04 104.338 109.786 125.036 103.318 148.458C96.8499 171.883 98.5278 196.721 108.096 219.126C117.663 241.53 134.584 260.243 156.231 272.365C159.848 274.399 161.082 278.891 158.989 282.399C156.893 285.908 152.262 287.105 148.646 285.074C129.115 274.079 112.896 258.309 101.608 239.336C90.3194 220.362 84.3553 198.851 84.3125 176.943L84.3135 176.942ZM281.124 176.942C281.17 191.249 276.385 205.178 267.502 216.602C264.99 219.845 265.664 224.448 269.01 226.885C272.353 229.321 277.097 228.665 279.609 225.422C292.043 209.339 297.85 189.337 295.893 169.325C293.934 149.311 284.356 130.725 269.028 117.197C253.696 103.672 233.719 96.1748 212.998 96.1748C192.276 96.1748 172.298 103.672 156.968 117.197C141.639 130.725 132.061 149.311 130.102 169.325C128.145 189.337 133.952 209.339 146.386 225.422C148.898 228.665 153.643 229.321 156.986 226.885C160.331 224.448 161.005 219.845 158.494 216.602C145.355 199.605 141.436 177.517 147.968 157.238C154.496 136.96 170.677 120.964 191.453 114.244C212.228 107.524 235.067 110.905 252.831 123.327C270.598 135.748 281.126 155.699 281.126 176.943L281.124 176.942ZM250.845 176.942C250.845 186.682 246.858 196.02 239.759 202.907C232.662 209.792 223.036 213.661 212.997 213.661C202.957 213.661 193.331 209.791 186.235 202.907C179.136 196.02 175.149 186.682 175.149 176.942C175.149 167.205 179.136 157.864 186.235 150.98C193.332 144.093 202.957 140.225 212.997 140.225C223.031 140.238 232.652 144.108 239.746 150.992C246.843 157.877 250.835 167.208 250.845 176.942ZM224.729 228.348C232.414 228.294 239.748 231.463 244.851 237.04C249.41 242.058 251.519 248.741 250.632 255.377L238.9 339.597C237.404 347.497 232.168 354.254 224.76 357.841C217.354 361.428 208.64 361.428 201.234 357.841C193.826 354.253 188.59 347.496 187.094 339.597L175.362 255.377C174.475 248.741 176.584 242.058 181.143 237.04C186.245 231.463 193.58 228.293 201.265 228.348H224.729Z" fill="white" fill-opacity="0.18"/>
</svg>
