<svg width="264" height="217" viewBox="0 0 264 217" fill="none" xmlns="http://www.w3.org/2000/svg">
<path d="M213.313 6.89785C159.298 -2.29928 104.174 -2.29928 50.1591 6.89785C19.2719 13.5255 0 33.9462 0 60.5916V155.264C0 182.315 19.2719 202.466 50.6897 209.363L50.6875 209.365C77.557 214 104.753 216.353 131.999 216.398C159.33 216.391 186.613 214.084 213.576 209.499C244.2 203.549 264 182.449 264 155.4V60.7278C264 33.8128 244.2 12.7127 213.313 6.89838L213.313 6.89785ZM175.032 114.288L109.029 154.862C107.997 155.508 106.806 155.836 105.597 155.809C104.453 155.8 103.323 155.521 102.298 154.998C100.185 153.683 98.9236 151.308 98.9987 148.776V67.6269C99.0186 65.1906 100.267 62.94 102.298 61.6763C104.4 60.5216 106.928 60.5216 109.029 61.6763L175.032 102.251C176.97 103.517 178.143 105.711 178.143 108.065C178.143 110.423 176.97 112.614 175.032 113.882L175.032 114.288Z" fill="white" fill-opacity="0.26"/>
</svg>
