<svg width="613" height="386" viewBox="0 0 613 386" fill="none" xmlns="http://www.w3.org/2000/svg">
<g filter="url(#filter0_f_572_1207)">
<ellipse cx="309.623" cy="349.11" rx="282.623" ry="16.1104" fill="black" fill-opacity="0.2"/>
</g>
<path d="M541.388 2.10851H75.5864C67.2214 2.10851 60.439 8.81055 60.439 17.0187V328.325H62.6244V14.9102C62.6244 14.2324 62.6998 13.63 62.7751 12.9523C62.7751 12.7263 62.8505 12.5004 62.9259 12.3498C63.0012 12.1239 63.0012 11.9733 63.0766 11.7474C63.1519 11.5215 63.1519 11.3709 63.2273 11.145C63.7548 9.41298 64.6591 7.9069 65.7895 6.62673C65.9403 6.47613 66.091 6.32552 66.2417 6.17491C66.3171 6.0243 66.3924 5.949 66.4678 5.8737C67.0707 5.27127 67.8243 4.66884 68.5779 4.14171C68.8039 3.9911 69.1054 3.84049 69.4068 3.68989C69.7083 3.53928 69.9343 3.38867 70.2358 3.31337C70.4619 3.23806 70.6126 3.08745 70.8387 3.01215C72.2705 2.40972 73.9284 2.10851 75.5864 2.10851H541.388C543.573 2.10851 545.683 2.71094 547.492 3.68989C547.793 3.84049 548.019 3.9911 548.321 4.14171C548.698 4.36762 548.999 4.59353 549.3 4.81944C549.451 4.97005 549.602 5.04535 549.753 5.19596C549.979 5.42187 550.205 5.57248 550.431 5.79839C550.506 5.8737 550.582 5.949 550.657 6.0243C550.808 6.17491 550.958 6.32552 551.109 6.47613C553.068 8.73524 554.274 11.5968 554.274 14.8349V328.325H556.46V16.115C556.008 8.28342 549.451 2.10851 541.388 2.10851Z" fill="url(#paint0_linear_572_1207)"/>
<path d="M60.439 14.9102C60.439 6.70204 67.2214 0 75.5864 0H541.388C549.753 0 556.535 6.70204 556.535 14.9102V16.115C556.083 8.35872 549.451 2.18381 541.463 2.18381H75.5864C67.2214 2.18381 60.439 8.88585 60.439 17.094V14.9102Z" fill="url(#paint1_linear_572_1207)"/>
<path d="M554.274 319.665H62.624V328.4H554.274V319.665Z" fill="black"/>
<path d="M554.274 14.9855V319.665H62.624V14.9855C62.624 7.90691 68.4268 2.18382 75.5106 2.18382H541.312C548.471 2.18382 554.274 7.90691 554.274 14.9855Z" fill="black"/>
<path d="M556.46 328.325V329.153H554.274H62.6242H60.5142V328.325H556.46Z" fill="black"/>
<path d="M305.962 329.605H0V338.867H305.962V329.605Z" fill="url(#paint2_linear_572_1207)"/>
<path d="M612 329.153H0V329.605H612V329.153Z" fill="url(#paint3_linear_572_1207)"/>
<path d="M611.925 329.605H305.962V338.867H611.925V329.605Z" fill="url(#paint4_linear_572_1207)"/>
<path d="M305.962 329.605H0V338.34H305.962V329.605Z" fill="url(#paint5_linear_572_1207)"/>
<path d="M611.925 329.605H305.962V338.34H611.925V329.605Z" fill="url(#paint6_linear_572_1207)"/>
<path d="M349.52 329.153C349.52 331.111 348.767 332.918 347.41 334.198C346.129 335.479 344.396 336.307 342.361 336.307H269.412C265.494 336.307 262.329 333.144 262.329 329.228H349.52V329.153Z" fill="url(#paint7_linear_572_1207)"/>
<mask id="mask0_572_1207" style="mask-type:alpha" maskUnits="userSpaceOnUse" x="261" y="329" width="89" height="8">
<path d="M349.521 329.153C349.521 331.111 348.767 332.918 347.411 334.198C346.129 335.479 344.396 336.307 342.361 336.307H269.413C265.494 336.307 262.329 333.144 262.329 329.228H261.952V329.755C261.952 333.671 265.117 336.834 269.036 336.834H342.663C346.582 336.834 349.747 333.671 349.747 329.755V329.228H349.521V329.153Z" fill="url(#paint8_linear_572_1207)"/>
</mask>
<g mask="url(#mask0_572_1207)">
<path d="M349.521 329.153C349.521 331.111 348.767 332.918 347.411 334.198C346.129 335.479 344.396 336.307 342.361 336.307H269.413C265.494 336.307 262.329 333.144 262.329 329.228H261.952V329.755C261.952 333.671 265.117 336.834 269.036 336.834H342.663C346.582 336.834 349.747 333.671 349.747 329.755V329.228H349.521V329.153Z" fill="url(#paint9_linear_572_1207)"/>
</g>
<path d="M0 338.867C21.553 344.289 43.935 347 66.4677 347H305.962H545.457C567.99 347 590.372 344.214 611.925 338.867H305.962H0Z" fill="url(#paint10_linear_572_1207)"/>
<path d="M544.1 20.7086H72.7979V312.059H544.1V20.7086Z" fill="url(#paint11_linear_572_1207)"/>
<rect x="73" y="20" width="471" height="28.9109" fill="black"/>
<rect x="73" y="283.089" width="471" height="28.9109" fill="black"/>
<defs>
<filter id="filter0_f_572_1207" x="7" y="313" width="605.246" height="72.2209" filterUnits="userSpaceOnUse" color-interpolation-filters="sRGB">
<feFlood flood-opacity="0" result="BackgroundImageFix"/>
<feBlend mode="normal" in="SourceGraphic" in2="BackgroundImageFix" result="shape"/>
<feGaussianBlur stdDeviation="10" result="effect1_foregroundBlur_572_1207"/>
</filter>
<linearGradient id="paint0_linear_572_1207" x1="308.478" y1="328.356" x2="308.478" y2="2.13021" gradientUnits="userSpaceOnUse">
<stop stop-color="#9A9A9A"/>
<stop offset="0.0936434" stop-color="#A2A2A2"/>
<stop offset="0.2383" stop-color="#B8B8B8"/>
<stop offset="0.415" stop-color="#DBDBDB"/>
<stop offset="0.447" stop-color="#E2E2E2"/>
<stop offset="1" stop-color="#C5C5C5"/>
</linearGradient>
<linearGradient id="paint1_linear_572_1207" x1="308.462" y1="17.0263" x2="308.462" y2="0" gradientUnits="userSpaceOnUse">
<stop stop-color="#404040"/>
<stop offset="0.2805" stop-color="#434343"/>
<stop offset="0.4483" stop-color="#4B4B4B"/>
<stop offset="0.5865" stop-color="#595959"/>
<stop offset="0.7086" stop-color="#6D6D6D"/>
<stop offset="0.8201" stop-color="#888888"/>
<stop offset="0.9223" stop-color="#A7A7A7"/>
<stop offset="1" stop-color="#C5C5C5"/>
</linearGradient>
<linearGradient id="paint2_linear_572_1207" x1="0" y1="334.242" x2="305.982" y2="334.242" gradientUnits="userSpaceOnUse">
<stop stop-color="#929292"/>
<stop offset="0.0139027" stop-color="#C1C1C1"/>
<stop offset="0.0271093" stop-color="#B2B2B2"/>
<stop offset="0.0486594" stop-color="#9C9C9C"/>
<stop offset="0.0714891" stop-color="#A4A4A4"/>
<stop offset="0.0909114" stop-color="#AFAFAF"/>
<stop offset="1" stop-color="#CFCFCF"/>
</linearGradient>
<linearGradient id="paint3_linear_572_1207" x1="0" y1="329.384" x2="611.963" y2="329.384" gradientUnits="userSpaceOnUse">
<stop offset="0.00545697" stop-color="#F8F8F8"/>
<stop offset="0.0638544" stop-color="#D0D0D0"/>
<stop offset="0.5025" stop-color="#F8F8F8"/>
<stop offset="0.8664" stop-color="#D0D0D0"/>
<stop offset="0.8755" stop-color="#D3D3D3"/>
<stop offset="0.9512" stop-color="#E9E9E9"/>
<stop offset="1" stop-color="#F1F1F1"/>
</linearGradient>
<linearGradient id="paint4_linear_572_1207" x1="305.982" y1="334.242" x2="611.963" y2="334.242" gradientUnits="userSpaceOnUse">
<stop stop-color="#CFCFCF"/>
<stop offset="0.9091" stop-color="#AFAFAF"/>
<stop offset="0.9285" stop-color="#A4A4A4"/>
<stop offset="0.9513" stop-color="#9C9C9C"/>
<stop offset="0.9729" stop-color="#B2B2B2"/>
<stop offset="0.9861" stop-color="#C1C1C1"/>
<stop offset="1" stop-color="#929292"/>
</linearGradient>
<linearGradient id="paint5_linear_572_1207" x1="0" y1="333.969" x2="305.982" y2="333.969" gradientUnits="userSpaceOnUse">
<stop stop-color="#666666"/>
<stop offset="0.0139027" stop-color="#D5D5D5"/>
<stop offset="0.0212916" stop-color="#BDBDBD"/>
<stop offset="0.0397326" stop-color="#868686"/>
<stop offset="0.0486594" stop-color="#707070"/>
<stop offset="0.0571972" stop-color="#787878"/>
<stop offset="0.0704656" stop-color="#8E8E8E"/>
<stop offset="0.0867233" stop-color="#B2B2B2"/>
<stop offset="0.0909114" stop-color="#BCBCBC"/>
<stop offset="1" stop-color="#F1F1F1"/>
</linearGradient>
<linearGradient id="paint6_linear_572_1207" x1="305.982" y1="333.969" x2="611.963" y2="333.969" gradientUnits="userSpaceOnUse">
<stop stop-color="#F1F1F1"/>
<stop offset="0.9091" stop-color="#BCBCBC"/>
<stop offset="0.9133" stop-color="#B2B2B2"/>
<stop offset="0.9295" stop-color="#8E8E8E"/>
<stop offset="0.9428" stop-color="#787878"/>
<stop offset="0.9513" stop-color="#707070"/>
<stop offset="0.9603" stop-color="#868686"/>
<stop offset="0.9787" stop-color="#BDBDBD"/>
<stop offset="0.9861" stop-color="#D5D5D5"/>
<stop offset="1" stop-color="#666666"/>
</linearGradient>
<linearGradient id="paint7_linear_572_1207" x1="262.43" y1="332.699" x2="349.533" y2="332.699" gradientUnits="userSpaceOnUse">
<stop stop-color="#9F9F9F"/>
<stop offset="0.0395349" stop-color="#ACACAC"/>
<stop offset="0.514" stop-color="#E5E5E5"/>
<stop offset="0.9628" stop-color="#ACACAC"/>
<stop offset="1" stop-color="#9F9F9F"/>
</linearGradient>
<linearGradient id="paint8_linear_572_1207" x1="262.087" y1="332.96" x2="349.877" y2="332.96" gradientUnits="userSpaceOnUse">
<stop offset="0.00041222" stop-color="#CCCCCC"/>
<stop offset="0.5247" stop-color="#B3B3B3"/>
<stop offset="0.7671" stop-color="#B5B5B5"/>
<stop offset="0.891" stop-color="#BDBDBD"/>
<stop offset="0.988" stop-color="#CACACA"/>
<stop offset="1" stop-color="#CCCCCC"/>
</linearGradient>
<linearGradient id="paint9_linear_572_1207" x1="262.087" y1="332.96" x2="349.877" y2="332.96" gradientUnits="userSpaceOnUse">
<stop offset="0.00041222" stop-color="#F7F7F7"/>
<stop offset="0.5247" stop-color="#F8F8F8"/>
<stop offset="1" stop-color="#F7F7F7"/>
</linearGradient>
<linearGradient id="paint10_linear_572_1207" x1="305.982" y1="347.025" x2="305.982" y2="338.869" gradientUnits="userSpaceOnUse">
<stop stop-color="#575757"/>
<stop offset="0.7389" stop-color="#B9B9B9"/>
<stop offset="0.8472" stop-color="#B6B6B6"/>
<stop offset="0.9363" stop-color="#ACACAC"/>
<stop offset="1" stop-color="#9F9F9F"/>
</linearGradient>
<linearGradient id="paint11_linear_572_1207" x1="117.738" y1="-24.1687" x2="498.9" y2="357.278" gradientUnits="userSpaceOnUse">
<stop stop-color="#F2F3F4"/>
<stop offset="0.3559" stop-color="#EDEEEF"/>
<stop offset="0.7827" stop-color="#DFE0E0"/>
<stop offset="1" stop-color="#D5D6D6"/>
</linearGradient>
</defs>
</svg>
