<svg width="613" height="386" viewBox="0 0 613 386" fill="none" xmlns="http://www.w3.org/2000/svg">
<g filter="url(#filter0_f_8_12)">
<ellipse cx="309.623" cy="349.11" rx="282.623" ry="16.1104" fill="black" fill-opacity="0.2"/>
</g>
<path d="M541.388 2.1084H75.5862C67.2213 2.1084 60.4388 8.81044 60.4388 17.0186V328.325H62.6243V14.91C62.6243 14.2323 62.6997 13.6299 62.775 12.9521C62.775 12.7262 62.8504 12.5003 62.9257 12.3497C63.0011 12.1238 63.0011 11.9732 63.0764 11.7473C63.1518 11.5214 63.1518 11.3708 63.2272 11.1449C63.7547 9.41287 64.659 7.90679 65.7894 6.62663C65.9401 6.47602 66.0909 6.32541 66.2416 6.1748C66.3169 6.0242 66.3923 5.94889 66.4677 5.87359C67.0705 5.27116 67.8241 4.66873 68.5777 4.1416C68.8038 3.99099 69.1053 3.84039 69.4067 3.68978C69.7081 3.53917 69.9342 3.38856 70.2357 3.31326C70.4617 3.23796 70.6125 3.08735 70.8385 3.01204C72.2704 2.40961 73.9283 2.1084 75.5862 2.1084H541.388C543.573 2.1084 545.683 2.71083 547.492 3.68978C547.793 3.84039 548.019 3.99099 548.321 4.1416C548.697 4.36751 548.999 4.59342 549.3 4.81934C549.451 4.96994 549.602 5.04525 549.752 5.19586C549.979 5.42177 550.205 5.57237 550.431 5.79829C550.506 5.87359 550.581 5.94889 550.657 6.0242C550.808 6.1748 550.958 6.32541 551.109 6.47602C553.068 8.73513 554.274 11.5967 554.274 14.8347V328.325H556.46V16.1149C556.007 8.28331 549.451 2.1084 541.388 2.1084Z" fill="url(#paint0_linear_8_12)"/>
<path d="M60.4388 14.9102C60.4388 6.70204 67.2213 0 75.5862 0H541.387C549.752 0 556.535 6.70204 556.535 14.9102V16.115C556.083 8.35872 549.451 2.18381 541.463 2.18381H75.5862C67.2213 2.18381 60.4388 8.88585 60.4388 17.094V14.9102Z" fill="url(#paint1_linear_8_12)"/>
<path d="M554.274 319.665H62.6243V328.4H554.274V319.665Z" fill="black"/>
<path d="M554.274 14.9852V319.665H62.6243V14.9852C62.6243 7.90668 68.4271 2.18359 75.5109 2.18359H541.312C548.471 2.18359 554.274 7.90668 554.274 14.9852Z" fill="black"/>
<path d="M556.46 328.324V329.153H554.274H62.6243H60.5142V328.324H556.46Z" fill="black"/>
<path d="M305.962 329.604H0V338.867H305.962V329.604Z" fill="url(#paint2_linear_8_12)"/>
<path d="M612 329.153H0V329.605H612V329.153Z" fill="url(#paint3_linear_8_12)"/>
<path d="M611.925 329.604H305.962V338.867H611.925V329.604Z" fill="url(#paint4_linear_8_12)"/>
<path d="M305.962 329.604H0V338.34H305.962V329.604Z" fill="url(#paint5_linear_8_12)"/>
<path d="M611.925 329.604H305.962V338.34H611.925V329.604Z" fill="url(#paint6_linear_8_12)"/>
<path d="M349.521 329.153C349.521 331.111 348.767 332.918 347.41 334.198C346.129 335.478 344.396 336.307 342.361 336.307H269.413C265.494 336.307 262.329 333.144 262.329 329.228H349.521V329.153Z" fill="url(#paint7_linear_8_12)"/>
<mask id="mask0_8_12" style="mask-type:alpha" maskUnits="userSpaceOnUse" x="261" y="329" width="89" height="8">
<path d="M349.52 329.153C349.52 331.111 348.767 332.918 347.41 334.198C346.129 335.478 344.396 336.307 342.361 336.307H269.413C265.494 336.307 262.329 333.144 262.329 329.228H261.952V329.755C261.952 333.671 265.117 336.834 269.036 336.834H342.663C346.581 336.834 349.747 333.671 349.747 329.755V329.228H349.52V329.153Z" fill="url(#paint8_linear_8_12)"/>
</mask>
<g mask="url(#mask0_8_12)">
<path d="M349.52 329.153C349.52 331.111 348.767 332.918 347.41 334.198C346.129 335.478 344.396 336.307 342.361 336.307H269.413C265.494 336.307 262.329 333.144 262.329 329.228H261.952V329.755C261.952 333.671 265.117 336.834 269.036 336.834H342.663C346.581 336.834 349.747 333.671 349.747 329.755V329.228H349.52V329.153Z" fill="url(#paint9_linear_8_12)"/>
</g>
<path d="M0 338.867C21.553 344.289 43.935 347 66.4677 347H305.962H545.457C567.99 347 590.372 344.214 611.925 338.867H305.962H0Z" fill="url(#paint10_linear_8_12)"/>
<path d="M544.101 20.7085H72.7979V312.059H544.101V20.7085Z" fill="url(#paint11_linear_8_12)"/>
<rect x="73" y="20" width="471" height="28.9109" fill="black"/>
<rect x="73" y="283.089" width="471" height="28.9109" fill="black"/>
<defs>
<filter id="filter0_f_8_12" x="7" y="313" width="605.246" height="72.2207" filterUnits="userSpaceOnUse" color-interpolation-filters="sRGB">
<feFlood flood-opacity="0" result="BackgroundImageFix"/>
<feBlend mode="normal" in="SourceGraphic" in2="BackgroundImageFix" result="shape"/>
<feGaussianBlur stdDeviation="10" result="effect1_foregroundBlur_8_12"/>
</filter>
<linearGradient id="paint0_linear_8_12" x1="308.478" y1="328.356" x2="308.478" y2="2.1301" gradientUnits="userSpaceOnUse">
<stop stop-color="#9A9A9A"/>
<stop offset="0.0936434" stop-color="#A2A2A2"/>
<stop offset="0.2383" stop-color="#B8B8B8"/>
<stop offset="0.415" stop-color="#DBDBDB"/>
<stop offset="0.447" stop-color="#E2E2E2"/>
<stop offset="1" stop-color="#C5C5C5"/>
</linearGradient>
<linearGradient id="paint1_linear_8_12" x1="308.462" y1="17.0263" x2="308.462" y2="0" gradientUnits="userSpaceOnUse">
<stop stop-color="#404040"/>
<stop offset="0.2805" stop-color="#434343"/>
<stop offset="0.4483" stop-color="#4B4B4B"/>
<stop offset="0.5865" stop-color="#595959"/>
<stop offset="0.7086" stop-color="#6D6D6D"/>
<stop offset="0.8201" stop-color="#888888"/>
<stop offset="0.9223" stop-color="#A7A7A7"/>
<stop offset="1" stop-color="#C5C5C5"/>
</linearGradient>
<linearGradient id="paint2_linear_8_12" x1="0" y1="334.242" x2="305.982" y2="334.242" gradientUnits="userSpaceOnUse">
<stop stop-color="#929292"/>
<stop offset="0.0139027" stop-color="#C1C1C1"/>
<stop offset="0.0271093" stop-color="#B2B2B2"/>
<stop offset="0.0486594" stop-color="#9C9C9C"/>
<stop offset="0.0714891" stop-color="#A4A4A4"/>
<stop offset="0.0909114" stop-color="#AFAFAF"/>
<stop offset="1" stop-color="#CFCFCF"/>
</linearGradient>
<linearGradient id="paint3_linear_8_12" x1="0" y1="329.384" x2="611.963" y2="329.384" gradientUnits="userSpaceOnUse">
<stop offset="0.00545697" stop-color="#F8F8F8"/>
<stop offset="0.0638544" stop-color="#D0D0D0"/>
<stop offset="0.5025" stop-color="#F8F8F8"/>
<stop offset="0.8664" stop-color="#D0D0D0"/>
<stop offset="0.8755" stop-color="#D3D3D3"/>
<stop offset="0.9512" stop-color="#E9E9E9"/>
<stop offset="1" stop-color="#F1F1F1"/>
</linearGradient>
<linearGradient id="paint4_linear_8_12" x1="305.982" y1="334.242" x2="611.963" y2="334.242" gradientUnits="userSpaceOnUse">
<stop stop-color="#CFCFCF"/>
<stop offset="0.9091" stop-color="#AFAFAF"/>
<stop offset="0.9285" stop-color="#A4A4A4"/>
<stop offset="0.9513" stop-color="#9C9C9C"/>
<stop offset="0.9729" stop-color="#B2B2B2"/>
<stop offset="0.9861" stop-color="#C1C1C1"/>
<stop offset="1" stop-color="#929292"/>
</linearGradient>
<linearGradient id="paint5_linear_8_12" x1="0" y1="333.969" x2="305.982" y2="333.969" gradientUnits="userSpaceOnUse">
<stop stop-color="#666666"/>
<stop offset="0.0139027" stop-color="#D5D5D5"/>
<stop offset="0.0212916" stop-color="#BDBDBD"/>
<stop offset="0.0397326" stop-color="#868686"/>
<stop offset="0.0486594" stop-color="#707070"/>
<stop offset="0.0571972" stop-color="#787878"/>
<stop offset="0.0704656" stop-color="#8E8E8E"/>
<stop offset="0.0867233" stop-color="#B2B2B2"/>
<stop offset="0.0909114" stop-color="#BCBCBC"/>
<stop offset="1" stop-color="#F1F1F1"/>
</linearGradient>
<linearGradient id="paint6_linear_8_12" x1="305.982" y1="333.969" x2="611.963" y2="333.969" gradientUnits="userSpaceOnUse">
<stop stop-color="#F1F1F1"/>
<stop offset="0.9091" stop-color="#BCBCBC"/>
<stop offset="0.9133" stop-color="#B2B2B2"/>
<stop offset="0.9295" stop-color="#8E8E8E"/>
<stop offset="0.9428" stop-color="#787878"/>
<stop offset="0.9513" stop-color="#707070"/>
<stop offset="0.9603" stop-color="#868686"/>
<stop offset="0.9787" stop-color="#BDBDBD"/>
<stop offset="0.9861" stop-color="#D5D5D5"/>
<stop offset="1" stop-color="#666666"/>
</linearGradient>
<linearGradient id="paint7_linear_8_12" x1="262.43" y1="332.699" x2="349.533" y2="332.699" gradientUnits="userSpaceOnUse">
<stop stop-color="#9F9F9F"/>
<stop offset="0.0395349" stop-color="#ACACAC"/>
<stop offset="0.514" stop-color="#E5E5E5"/>
<stop offset="0.9628" stop-color="#ACACAC"/>
<stop offset="1" stop-color="#9F9F9F"/>
</linearGradient>
<linearGradient id="paint8_linear_8_12" x1="262.087" y1="332.96" x2="349.877" y2="332.96" gradientUnits="userSpaceOnUse">
<stop offset="0.00041222" stop-color="#CCCCCC"/>
<stop offset="0.5247" stop-color="#B3B3B3"/>
<stop offset="0.7671" stop-color="#B5B5B5"/>
<stop offset="0.891" stop-color="#BDBDBD"/>
<stop offset="0.988" stop-color="#CACACA"/>
<stop offset="1" stop-color="#CCCCCC"/>
</linearGradient>
<linearGradient id="paint9_linear_8_12" x1="262.087" y1="332.96" x2="349.877" y2="332.96" gradientUnits="userSpaceOnUse">
<stop offset="0.00041222" stop-color="#F7F7F7"/>
<stop offset="0.5247" stop-color="#F8F8F8"/>
<stop offset="1" stop-color="#F7F7F7"/>
</linearGradient>
<linearGradient id="paint10_linear_8_12" x1="305.982" y1="347.025" x2="305.982" y2="338.869" gradientUnits="userSpaceOnUse">
<stop stop-color="#575757"/>
<stop offset="0.7389" stop-color="#B9B9B9"/>
<stop offset="0.8472" stop-color="#B6B6B6"/>
<stop offset="0.9363" stop-color="#ACACAC"/>
<stop offset="1" stop-color="#9F9F9F"/>
</linearGradient>
<linearGradient id="paint11_linear_8_12" x1="117.738" y1="-24.1687" x2="498.9" y2="357.278" gradientUnits="userSpaceOnUse">
<stop stop-color="#F2F3F4"/>
<stop offset="0.3559" stop-color="#EDEEEF"/>
<stop offset="0.7827" stop-color="#DFE0E0"/>
<stop offset="1" stop-color="#D5D6D6"/>
</linearGradient>
</defs>
</svg>
