<svg width="96" height="78" viewBox="0 0 96 78" fill="none" xmlns="http://www.w3.org/2000/svg">
<path d="M42.2727 11.6735L35.4545 0C17.1818 8.22449 0 26.5306 0 51.2041C0 66.5919 9.81816 78 22.6364 78C35.4545 78 42.2727 68.9796 42.2727 59.6939C42.2727 49.6122 35.1818 41.6531 24.2727 41.6531C21.5454 41.6531 19.0909 42.449 17.4545 43.5102C17.7273 33.1633 26.7273 18.8367 42.2727 11.6735ZM95.7273 11.6735L89.1818 0C70.6364 8.22449 53.7273 26.5306 53.7273 51.2041C53.7273 66.5919 63.5454 78 76.3636 78C88.9091 78 96 68.9796 96 59.6939C96 49.6122 88.9091 41.6531 78 41.6531C75.2727 41.6531 72.5454 42.449 71.1818 43.5102C71.4545 33.1633 80.4546 18.8367 95.7273 11.6735Z" fill="#F5A623"/>
</svg>
