<svg viewBox="0 0 40 40" fill="none" xmlns="http://www.w3.org/2000/svg">
  <path
    d="M1.21605 33.5229H18.32V29.9266H11.6945C10.3982 29.9266 8.74178 30.0367 7.37347 30.1835C12.9908 24.7156 17.0597 19.3211 17.0597 14.1101C17.0597 9.22936 13.927 6 9.06586 6C5.60906 6 3.26852 7.50459 1 10.0367L3.34054 12.3853C4.74486 10.7339 6.47326 9.37615 8.56174 9.37615C11.5504 9.37615 13.0628 11.3945 13.0628 14.3303C13.0628 18.7706 9.02985 24.0184 1.21605 31.0642V33.5229Z"
  />
  <path
    d="M30.43 34C35.6152 34 39 29.3028 39 19.9083C39 10.5872 35.6152 6 30.43 6C25.2448 6 21.8601 10.5505 21.8601 19.9083C21.8601 29.3028 25.2448 34 30.43 34ZM30.43 30.6606C27.7294 30.6606 25.821 27.7248 25.821 19.9083C25.821 12.1651 27.7294 9.33945 30.43 9.33945C33.1306 9.33945 35.0391 12.1651 35.0391 19.9083C35.0391 27.7248 33.1306 30.6606 30.43 30.6606Z"
  />
</svg>
