<svg viewBox="0 0 40 40" fill="none" xmlns="http://www.w3.org/2000/svg">
  <path
    fill-rule="evenodd"
    clip-rule="evenodd"
    d="M23.4461 15.4064C22.7719 14.1431 22.1149 13.0926 21.4311 12.2327C21.6631 11.9928 21.8601 11.7922 21.9784 11.6786C23.9405 9.79438 25.8742 9 29.0909 9C34.9382 9 40 13.7637 40 20C40 26.2363 34.9382 31 29.0909 31C23.9045 31 21.7013 28.2797 18.342 20.7523C15.5649 14.5297 14.056 12.6667 10.9091 12.6667C6.81653 12.6667 3.63636 16.0915 3.63636 20C3.63636 23.9254 6.79083 27.3333 10.9091 27.3333C12.806 27.3333 15.0732 26.5724 17.0533 25.4951C17.7568 26.715 18.4533 27.7053 19.1941 28.4918C16.6441 29.9566 13.6565 31 10.9091 31C4.72432 31 0 25.896 0 20C0 14.1184 4.75279 9 10.9091 9C16.0955 9 18.2987 11.7203 21.658 19.2477C24.4351 25.4703 25.944 27.3333 29.0909 27.3333C32.9838 27.3333 36.3636 24.1526 36.3636 20C36.3636 15.8474 32.9838 12.6667 29.0909 12.6667C26.8164 12.6667 25.7781 13.0932 24.4862 14.3338C24.3155 14.4978 23.8904 14.9407 23.4461 15.4064Z"
  />
</svg>
