<svg viewBox="0 0 40 41" fill="none" xmlns="http://www.w3.org/2000/svg">
  <path
    d="M9.77075 13.1062L3.21875 30.2422H6.21875L7.77875 25.9462H14.9548L16.5148 30.2422H19.5148L12.9628 13.1062H9.77075ZM8.61875 23.6422L11.3308 16.1302H11.4268L14.1148 23.6422H8.61875ZM21.1878 13.1062V30.2422H27.4518C30.2358 30.2422 32.3238 29.4742 33.7638 27.9382C35.1318 26.4742 35.8278 24.3862 35.8278 21.6742C35.8278 18.9382 35.1318 16.8502 33.7638 15.4102C32.3238 13.8742 30.2358 13.1062 27.4518 13.1062H21.1878ZM23.9958 15.5062H26.9238C29.0598 15.5062 30.6198 15.9862 31.6038 16.9702C32.5638 17.9302 33.0438 19.5142 33.0438 21.6742C33.0438 23.7862 32.5638 25.3462 31.6038 26.3542C30.6198 27.3382 29.0598 27.8422 26.9238 27.8422H23.9958V15.5062Z"
    fill="currentColor"
  />
</svg>
