<svg viewBox="0 0 563 321" fill="none" xmlns="http://www.w3.org/2000/svg">
  <rect y="95.0012" width="71.815" height="56.3416" rx="8" fill="#819AD6" />
  <path
    d="M32.7548 137.027C32.1279 137.027 31.6211 136.488 31.6211 135.823V110.523C31.6211 109.858 32.1279 109.318 32.7548 109.318C33.3818 109.318 33.8886 109.858 33.8886 110.523V135.823C33.8886 136.488 33.3818 137.027 32.7548 137.027Z"
    fill="#FAFAFA"
  />
  <path
    d="M36.1572 135.823C35.5302 135.823 35.0234 135.283 35.0234 134.618V111.728C35.0234 111.063 35.5302 110.524 36.1572 110.524C36.7841 110.524 37.2909 111.063 37.2909 111.728V134.618C37.2909 135.283 36.7841 135.823 36.1572 135.823Z"
    fill="#FAFAFA"
  />
  <path
    d="M39.5576 131.004C38.9306 131.004 38.4238 130.464 38.4238 129.799V116.547C38.4238 115.882 38.9306 115.342 39.5576 115.342C40.1845 115.342 40.6913 115.882 40.6913 116.547V129.799C40.6913 130.464 40.1845 131.004 39.5576 131.004Z"
    fill="#FAFAFA"
  />
  <path
    d="M42.9599 135.823C42.333 135.823 41.8262 135.283 41.8262 134.618V111.728C41.8262 111.063 42.333 110.524 42.9599 110.524C43.5868 110.524 44.0937 111.063 44.0937 111.728V134.618C44.0937 135.283 43.5868 135.823 42.9599 135.823Z"
    fill="#FAFAFA"
  />
  <path
    d="M46.3603 131.004C45.7334 131.004 45.2266 130.464 45.2266 129.799V116.547C45.2266 115.882 45.7334 115.342 46.3603 115.342C46.9872 115.342 47.494 115.882 47.494 116.547V129.799C47.494 130.464 46.9872 131.004 46.3603 131.004Z"
    fill="#FAFAFA"
  />
  <path
    d="M49.831 131.09C49.2041 131.09 48.6973 130.781 48.6973 130.401V115.944C48.6973 115.564 49.2041 115.256 49.831 115.256C50.4579 115.256 50.9647 115.564 50.9647 115.944V130.401C50.9647 130.781 50.4579 131.09 49.831 131.09Z"
    fill="#FAFAFA"
  />
  <path
    d="M53.2333 130.401C52.6064 130.401 52.0996 130.093 52.0996 129.713V116.633C52.0996 116.253 52.6064 115.944 53.2333 115.944C53.8603 115.944 54.3671 116.253 54.3671 116.633V129.713C54.3671 130.093 53.8603 130.401 53.2333 130.401Z"
    fill="#FAFAFA"
  />
  <path
    d="M15.6826 131.09C15.0556 131.09 14.5488 130.781 14.5488 130.401V115.944C14.5488 115.564 15.0556 115.256 15.6826 115.256C16.3095 115.256 16.8163 115.564 16.8163 115.944V130.401C16.8163 130.781 16.3095 131.09 15.6826 131.09Z"
    fill="#FAFAFA"
  />
  <path
    d="M19.0849 130.401C18.458 130.401 17.9512 130.093 17.9512 129.713V116.633C17.9512 116.253 18.458 115.944 19.0849 115.944C19.7118 115.944 20.2187 116.253 20.2187 116.633V129.713C20.2187 130.093 19.7118 130.401 19.0849 130.401Z"
    fill="#FAFAFA"
  />
  <path
    d="M22.4853 127.648C21.8584 127.648 21.3516 127.339 21.3516 126.959V119.386C21.3516 119.006 21.8584 118.698 22.4853 118.698C23.1122 118.698 23.619 119.006 23.619 119.386V126.959C23.619 127.339 23.1122 127.648 22.4853 127.648Z"
    fill="#FAFAFA"
  />
  <path
    d="M25.8876 130.401C25.2607 130.401 24.7539 130.093 24.7539 129.713V116.633C24.7539 116.253 25.2607 115.944 25.8876 115.944C26.5146 115.944 27.0214 116.253 27.0214 116.633V129.713C27.0214 130.093 26.5146 130.401 25.8876 130.401Z"
    fill="#FAFAFA"
  />
  <path
    d="M29.288 127.648C28.6611 127.648 28.1543 127.339 28.1543 126.959V119.386C28.1543 119.006 28.6611 118.698 29.288 118.698C29.915 118.698 30.4218 119.006 30.4218 119.386V126.959C30.4218 127.339 29.915 127.648 29.288 127.648Z"
    fill="#FAFAFA"
  />
  <rect
    x="484"
    y="146.001"
    width="78.9992"
    height="54.8534"
    rx="8"
    fill="#819AD6"
    fill-opacity="0.6"
  />
  <path
    d="M535.474 187.065C534.784 187.065 534.227 186.54 534.227 185.893V161.261C534.227 160.614 534.784 160.088 535.474 160.088C536.163 160.088 536.721 160.614 536.721 161.261V185.893C536.721 186.54 536.163 187.065 535.474 187.065Z"
    fill="#FAFAFA"
  />
  <path
    d="M539.216 185.893C538.526 185.893 537.969 185.367 537.969 184.72V162.435C537.969 161.787 538.526 161.262 539.216 161.262C539.906 161.262 540.463 161.787 540.463 162.435V184.72C540.463 185.367 539.906 185.893 539.216 185.893Z"
    fill="#FAFAFA"
  />
  <path
    d="M542.956 181.201C542.266 181.201 541.709 180.676 541.709 180.028V167.126C541.709 166.479 542.266 165.953 542.956 165.953C543.646 165.953 544.203 166.479 544.203 167.126V180.028C544.203 180.676 543.646 181.201 542.956 181.201Z"
    fill="#FAFAFA"
  />
  <path
    d="M546.698 185.893C546.009 185.893 545.451 185.367 545.451 184.72V162.435C545.451 161.787 546.009 161.262 546.698 161.262C547.388 161.262 547.945 161.787 547.945 162.435V184.72C547.945 185.367 547.388 185.893 546.698 185.893Z"
    fill="#FAFAFA"
  />
  <path
    d="M550.441 181.201C549.751 181.201 549.193 180.676 549.193 180.028V167.126C549.193 166.479 549.751 165.953 550.441 165.953C551.13 165.953 551.688 166.479 551.688 167.126V180.028C551.688 180.676 551.13 181.201 550.441 181.201Z"
    fill="#FAFAFA"
  />
  <path
    d="M497.909 181.285C497.22 181.285 496.662 180.984 496.662 180.614V166.539C496.662 166.169 497.22 165.869 497.909 165.869C498.599 165.869 499.156 166.169 499.156 166.539V180.614C499.156 180.984 498.599 181.285 497.909 181.285Z"
    fill="#FAFAFA"
  />
  <path
    d="M501.651 180.614C500.962 180.614 500.404 180.314 500.404 179.944V167.21C500.404 166.84 500.962 166.54 501.651 166.54C502.341 166.54 502.899 166.84 502.899 167.21V179.944C502.899 180.314 502.341 180.614 501.651 180.614Z"
    fill="#FAFAFA"
  />
  <path
    d="M505.392 177.934C504.702 177.934 504.145 177.633 504.145 177.263V169.891C504.145 169.521 504.702 169.22 505.392 169.22C506.081 169.22 506.639 169.521 506.639 169.891V177.263C506.639 177.633 506.081 177.934 505.392 177.934Z"
    fill="#FAFAFA"
  />
  <path
    d="M509.134 180.614C508.444 180.614 507.887 180.314 507.887 179.944V167.21C507.887 166.84 508.444 166.54 509.134 166.54C509.824 166.54 510.381 166.84 510.381 167.21V179.944C510.381 180.314 509.824 180.614 509.134 180.614Z"
    fill="#FAFAFA"
  />
  <path
    d="M512.876 177.934C512.186 177.934 511.629 177.633 511.629 177.263V169.891C511.629 169.521 512.186 169.22 512.876 169.22C513.566 169.22 514.123 169.521 514.123 169.891V177.263C514.123 177.633 513.566 177.934 512.876 177.934Z"
    fill="#FAFAFA"
  />
  <path
    d="M516.691 181.285C516.001 181.285 515.443 180.984 515.443 180.614V166.539C515.443 166.169 516.001 165.869 516.691 165.869C517.38 165.869 517.938 166.169 517.938 166.539V180.614C517.938 180.984 517.38 181.285 516.691 181.285Z"
    fill="#FAFAFA"
  />
  <path
    d="M520.433 180.614C519.743 180.614 519.186 180.314 519.186 179.944V167.21C519.186 166.84 519.743 166.54 520.433 166.54C521.122 166.54 521.68 166.84 521.68 167.21V179.944C521.68 180.314 521.122 180.614 520.433 180.614Z"
    fill="#FAFAFA"
  />
  <path
    d="M524.173 177.933C523.483 177.933 522.926 177.633 522.926 177.263V169.89C522.926 169.52 523.483 169.22 524.173 169.22C524.863 169.22 525.42 169.52 525.42 169.89V177.263C525.42 177.633 524.863 177.933 524.173 177.933Z"
    fill="#FAFAFA"
  />
  <path
    d="M527.915 180.614C527.225 180.614 526.668 180.314 526.668 179.944V167.21C526.668 166.84 527.225 166.54 527.915 166.54C528.605 166.54 529.162 166.84 529.162 167.21V179.944C529.162 180.314 528.605 180.614 527.915 180.614Z"
    fill="#FAFAFA"
  />
  <path
    d="M531.655 177.933C530.966 177.933 530.408 177.633 530.408 177.263V169.89C530.408 169.52 530.966 169.22 531.655 169.22C532.345 169.22 532.903 169.52 532.903 169.89V177.263C532.903 177.633 532.345 177.933 531.655 177.933Z"
    fill="#FAFAFA"
  />
  <rect
    x="269"
    y="49.0012"
    width="147"
    height="101.797"
    rx="13"
    fill="#0157CB"
  />
  <path
    d="M284.381 106.32L296.347 106.32L304.894 96.9452L321.518 106.32L328.277 96.9452L332.161 112.206L347.941 69.6723L352.117 123.243L360.961 106.675L375.83 121.389L382.667 106.32L398.05 106.32"
    stroke="white"
    stroke-width="3"
    stroke-linecap="round"
  />
  <rect
    x="34"
    y="220.576"
    width="71.815"
    height="51.0739"
    rx="8"
    fill="#0157CB"
    fill-opacity="0.76"
  />
  <path
    d="M43.4346 249.022L59.7103 248.965L63.2496 243.36L65.2833 252.484L73.5458 227.054L75.7325 259.082L80.3631 249.177L96.7102 249.521"
    stroke="#AED0FF"
    stroke-width="3"
    stroke-linecap="round"
  />
  <path
    d="M183.298 132.254C183.298 132.254 170.791 117.183 167.293 100.384C163.795 83.5843 166.042 65.3526 166.042 65.3526"
    stroke="#1E5195"
    stroke-width="4"
    stroke-linecap="round"
  />
  <rect
    x="192.285"
    y="124.264"
    width="17.0649"
    height="45.0304"
    rx="8"
    transform="rotate(-31.6859 192.285 124.264)"
    fill="#60A0FF"
  />
  <rect
    x="175.66"
    y="129.504"
    width="29.2759"
    height="55.1485"
    rx="8"
    transform="rotate(-31.6859 175.66 129.504)"
    fill="#60A0FF"
  />
  <path
    d="M193.432 120.94L219.706 164.383"
    stroke="#DBE4F8"
    stroke-width="2"
    stroke-linecap="round"
  />
  <path
    d="M322.796 71.268C322.796 71.268 320.255 51.8487 310.32 37.8581C300.384 23.8676 285.491 13.1139 285.491 13.1139"
    stroke="#1E5195"
    stroke-width="4"
    stroke-linecap="round"
  />
  <rect
    width="17.0649"
    height="45.0304"
    rx="8"
    transform="matrix(-0.963829 0.26652 0.26652 0.963829 310.828 72.4222)"
    fill="#60A0FF"
  />
  <rect
    width="29.2759"
    height="55.1485"
    rx="8"
    transform="matrix(-0.963829 0.26652 0.26652 0.963829 325.975 63.7988)"
    fill="#60A0FF"
  />
  <path
    d="M307.371 69.1997L321.775 121.496"
    stroke="#DBE4F8"
    stroke-width="2"
    stroke-linecap="round"
  />
  <path
    d="M221.405 130.719L244.082 120.898L245.666 110.958L253.965 122.473L250.275 82.0424L272.495 125.426L273.028 108.833L296.045 99.5294"
    stroke="#05326F"
    stroke-width="5"
    stroke-linecap="round"
  />
  <path
    d="M166.942 78.2029C166.942 78.2029 169.17 32.8262 217.058 13.2969C264.946 -6.23235 297.253 24.4504 297.253 24.4504"
    stroke="#05326F"
    stroke-width="12"
    stroke-linecap="round"
  />
  <path
    d="M216.724 185.943C239.963 188.848 272.214 201.912 282.027 206.057C283.932 206.861 286.057 206.929 288.014 206.262C298.691 202.623 335.43 190.877 364.74 190.877C392.424 190.877 415.611 198.306 418.464 220.48C421.527 244.292 374.501 261.566 372.226 262.387C372.153 262.414 372.133 262.42 372.059 262.444C369.749 263.183 318.952 279.338 284.976 281.331C256.052 283.027 235.973 290.758 210.968 276.123C198.744 268.968 195.173 260.626 184.38 251.454C169.584 238.879 144.517 240.994 144.635 221.576C144.699 211.092 148.211 203.975 156.422 197.455C175.06 182.654 203.567 184.298 216.724 185.943Z"
    fill="#819AD6"
    fill-opacity="0.6"
  />
  <path
    d="M348.116 281.456C346.745 276.522 360.451 273.232 360.451 273.232C360.451 273.232 375.253 270.766 376.349 275.699C377.444 280.633 367.029 283.648 367.029 283.648C367.029 283.648 349.486 286.389 348.116 281.456Z"
    fill="#819AD6"
    fill-opacity="0.6"
  />
  <path
    d="M282.64 185.496C282.178 178.378 301.493 177.642 301.493 177.642C301.493 177.642 322.051 178.331 322.144 185.373C322.237 192.416 307.415 193.679 307.415 193.679C307.415 193.679 283.102 192.614 282.64 185.496Z"
    fill="#819AD6"
    fill-opacity="0.6"
  />
  <path
    d="M283.973 263.952L198.992 216.228C196.739 214.963 195.344 212.579 195.344 209.995C195.344 205.695 199.112 202.368 203.379 202.901L345.819 220.692C349.738 221.181 352.679 224.512 352.679 228.462C352.679 231.419 351.013 234.124 348.372 235.455L291.491 264.12C289.113 265.319 286.295 265.255 283.973 263.952Z"
    fill="#819AD6"
  />
  <path
    d="M284.296 252.95L203.765 206.673C198.201 203.476 198.477 195.357 204.246 192.546L252.259 169.144C254.559 168.023 257.257 168.07 259.517 169.271L343.251 213.747C349.013 216.808 348.885 225.109 343.03 227.99L291.814 253.192C289.424 254.368 286.605 254.277 284.296 252.95Z"
    fill="#475577"
    stroke="white"
    stroke-width="3"
  />
  <path
    d="M336.498 211.684L271.768 244.261C271.768 244.261 286.152 253.146 288.268 253.146C290.383 253.146 346.229 224.799 346.229 224.799C346.229 224.799 349.191 221.838 347.075 218.453C344.96 215.069 336.498 211.684 336.498 211.684Z"
    fill="#55699A"
  />
  <path
    d="M206.953 207.03L271.684 174.453C271.684 174.453 261.53 167.261 259.414 167.261C257.299 167.261 201.453 195.607 201.453 195.607C201.453 195.607 198.491 198.569 200.607 201.953C202.722 205.338 206.953 207.03 206.953 207.03Z"
    fill="#55699A"
  />
  <path
    d="M226.316 189.014L241.118 181.613"
    stroke="#819AD6"
    stroke-width="3"
    stroke-linecap="round"
  />
  <path
    d="M305.807 238.079L326.09 227.663"
    stroke="#819AD6"
    stroke-width="3"
    stroke-linecap="round"
  />
  <path
    d="M246.711 208.862L247.866 197.507L219.752 187.588L218.642 198.506L246.711 208.862Z"
    fill="url(#paint0_linear_3750_267620)"
  />
  <ellipse cx="242.613" cy="208.869" rx="49.6127" ry="9.86772" fill="#DBE4F8" />
  <path
    d="M309.758 153.971C306.238 161.97 295.039 163.25 286.4 160.69"
    stroke="#595A5E"
    stroke-width="1.76878"
    stroke-linecap="round"
  />
  <path
    fill-rule="evenodd"
    clip-rule="evenodd"
    d="M244.632 207.474L274.241 212.643C274.998 212.713 276.65 212.501 277.194 211.098L279.964 203.962C280.913 201.516 281.615 198.98 282.058 196.393L293.443 129.96L293.963 126.496C294.196 124.944 293.12 123.498 291.566 123.275L263.09 119.187L262.05 124.163C262.719 124.438 263.225 125.103 263.075 126.023L252.486 190.742C252.006 193.678 251.071 196.522 249.715 199.17L246.787 204.886C246.42 205.604 245.607 205.657 245.088 205.29L244.632 207.474Z"
    fill="#F7F7F7"
  />
  <path
    d="M274.241 212.643L274.213 212.946L274.2 212.945L274.188 212.943L274.241 212.643ZM244.632 207.474L244.579 207.774L244.269 207.72L244.334 207.412L244.632 207.474ZM277.194 211.098L276.91 210.988L276.91 210.988L277.194 211.098ZM279.964 203.962L279.68 203.852L279.964 203.962ZM282.058 196.393L282.358 196.445L282.058 196.393ZM293.443 129.96L293.744 130.006L293.743 130.012L293.443 129.96ZM293.963 126.496L293.662 126.451L293.963 126.496ZM291.566 123.275L291.523 123.576L291.523 123.576L291.566 123.275ZM263.09 119.187L262.792 119.125L262.851 118.845L263.133 118.886L263.09 119.187ZM262.05 124.163L261.934 124.444L261.7 124.348L261.752 124.101L262.05 124.163ZM263.075 126.023L263.375 126.072L263.375 126.072L263.075 126.023ZM252.486 190.742L252.787 190.791L252.486 190.742ZM249.715 199.17L249.444 199.031L249.715 199.17ZM246.787 204.886L247.058 205.025L247.058 205.025L246.787 204.886ZM245.088 205.29L244.79 205.228L244.885 204.774L245.264 205.042L245.088 205.29ZM274.188 212.943L244.579 207.774L244.684 207.174L274.293 212.343L274.188 212.943ZM277.478 211.209C277.166 212.012 276.537 212.467 275.906 212.707C275.28 212.946 274.63 212.984 274.213 212.946L274.268 212.34C274.609 212.371 275.164 212.339 275.689 212.139C276.209 211.94 276.678 211.588 276.91 210.988L277.478 211.209ZM280.248 204.072L277.478 211.209L276.91 210.988L279.68 203.852L280.248 204.072ZM282.358 196.445C281.912 199.052 281.205 201.607 280.248 204.072L279.68 203.852C280.622 201.424 281.319 198.909 281.758 196.342L282.358 196.445ZM293.743 130.012L282.358 196.445L281.758 196.342L293.143 129.909L293.743 130.012ZM294.264 126.542L293.744 130.006L293.142 129.915L293.662 126.451L294.264 126.542ZM291.609 122.974C293.331 123.221 294.522 124.822 294.264 126.542L293.662 126.451C293.87 125.065 292.91 123.775 291.523 123.576L291.609 122.974ZM263.133 118.886L291.609 122.974L291.523 123.576L263.047 119.489L263.133 118.886ZM261.752 124.101L262.792 119.125L263.388 119.25L262.348 124.225L261.752 124.101ZM262.165 123.881C262.948 124.203 263.551 124.994 263.375 126.072L262.774 125.974C262.899 125.211 262.49 124.673 261.934 124.444L262.165 123.881ZM263.375 126.072L252.787 190.791L252.186 190.693L262.774 125.974L263.375 126.072ZM252.787 190.791C252.301 193.759 251.356 196.632 249.985 199.309L249.444 199.031C250.785 196.411 251.711 193.598 252.186 190.693L252.787 190.791ZM249.985 199.309L247.058 205.025L246.516 204.748L249.444 199.031L249.985 199.309ZM247.058 205.025C246.589 205.94 245.551 205.99 244.912 205.539L245.264 205.042C245.663 205.324 246.25 205.268 246.516 204.748L247.058 205.025ZM244.334 207.412L244.79 205.228L245.386 205.353L244.929 207.536L244.334 207.412Z"
    fill="#F5F5F5"
  />
  <path
    d="M249.542 198.986L246.614 204.702C246.018 205.866 244.251 205.282 244.465 203.992L255.497 137.74C255.926 135.162 256.619 132.635 257.565 130.198L259.605 124.94C260.352 123.017 263.235 123.803 262.902 125.839L252.314 190.558C251.833 193.494 250.898 196.338 249.542 198.986Z"
    fill="#E2E2E2"
    stroke="#EBEBEB"
    stroke-width="0.243475"
  />
  <mask
    id="mask0_3750_267620"
    style="mask-type: alpha"
    maskUnits="userSpaceOnUse"
    x="244"
    y="119"
    width="50"
    height="94"
  >
    <path
      d="M274.239 212.643L244.63 207.474L263.088 119.188L286.563 122.277L293.441 129.961L282.056 196.394C281.613 198.981 280.912 201.516 279.962 203.963L277.192 211.099C276.648 212.502 274.996 212.713 274.239 212.643Z"
      fill="#F5C144"
    />
  </mask>
  <g mask="url(#mask0_3750_267620)">
    <path
      d="M259.466 147.69L289.26 152.831L292.921 153.515L282.664 219.178L237.782 210.403L248.682 151.067L253.652 148.807L259.466 147.69Z"
      fill="url(#paint1_linear_3750_267620)"
    />
  </g>
  <mask
    id="mask1_3750_267620"
    style="mask-type: alpha"
    maskUnits="userSpaceOnUse"
    x="244"
    y="124"
    width="20"
    height="82"
  >
    <path
      d="M249.708 199.171L246.78 204.888C246.184 206.052 244.417 205.468 244.631 204.178L255.663 137.926C256.092 135.348 256.785 132.82 257.731 130.384L259.771 125.126C260.518 123.202 263.401 123.988 263.068 126.025L252.48 190.744C251.999 193.68 251.064 196.523 249.708 199.171Z"
      fill="#EBB942"
    />
  </mask>
  <g mask="url(#mask1_3750_267620)">
    <path
      d="M259.46 147.693L289.254 152.834L292.915 153.518L282.659 219.18L237.776 210.405L248.676 151.07L253.646 148.809L259.46 147.693Z"
      fill="#EBB942"
    />
  </g>
  <circle
    cx="1.10391"
    cy="1.10391"
    r="1.10391"
    transform="matrix(-0.986839 -0.161704 -0.161704 0.986839 286.406 135.464)"
    fill="#595A5E"
  />
  <circle
    cx="1.10391"
    cy="1.10391"
    r="1.10391"
    transform="matrix(-0.986839 -0.161704 -0.161704 0.986839 273.332 133.322)"
    fill="#595A5E"
  />
  <path
    d="M277.217 143.747C275.111 143.402 273.584 142.025 273.806 140.671L281.432 141.92C281.21 143.274 279.323 144.092 277.217 143.747Z"
    fill="#595A5E"
  />
  <path
    d="M255.433 155.068C251.076 161.818 234.867 171.339 230.156 148.513"
    stroke="#595A5E"
    stroke-width="1.76878"
    stroke-linecap="round"
  />
  <rect
    x="56"
    y="127.001"
    width="119.487"
    height="97.9126"
    rx="12"
    fill="#F5F5F5"
  />
  <path
    d="M56 139.001C56 132.374 61.3726 127.001 68 127.001H163.487C170.114 127.001 175.487 132.374 175.487 139.001V199.191H56V139.001Z"
    fill="#034FB6"
  />
  <rect
    x="103.637"
    y="154.282"
    width="2.96874"
    height="28.5741"
    rx="1.48437"
    fill="#659EEA"
  />
  <rect
    x="103.637"
    y="154.269"
    width="2.96874"
    height="15.0139"
    rx="1.48437"
    fill="#AED0FF"
  />
  <rect
    x="97.6992"
    y="162.154"
    width="2.96874"
    height="16.8523"
    rx="1.48437"
    fill="#659EEA"
  />
  <rect
    x="97.6992"
    y="162.156"
    width="2.96874"
    height="13.1754"
    rx="1.48437"
    fill="#AED0FF"
  />
  <rect
    x="91.7617"
    y="161.316"
    width="2.96874"
    height="10.7242"
    rx="1.48437"
    fill="#659EEA"
  />
  <rect
    x="91.7617"
    y="164.075"
    width="2.96874"
    height="7.96654"
    rx="1.48437"
    fill="#AED0FF"
  />
  <rect
    x="109.574"
    y="146.304"
    width="2.96874"
    height="32.7854"
    rx="1.48437"
    fill="#659EEA"
  />
  <rect
    x="109.574"
    y="146.303"
    width="2.96874"
    height="29.1085"
    rx="1.48437"
    fill="#AED0FF"
  />
  <rect
    x="115.512"
    y="152.427"
    width="2.96874"
    height="35.996"
    rx="1.48437"
    fill="#003884"
  />
  <rect
    x="121.447"
    y="139.439"
    width="2.96874"
    height="37.3814"
    rx="1.48437"
    fill="#003884"
  />
  <rect
    x="127.238"
    y="155.767"
    width="2.96874"
    height="21.142"
    rx="1.48437"
    fill="#003884"
  />
  <rect
    x="133.324"
    y="162.818"
    width="2.96874"
    height="12.5626"
    rx="1.48437"
    fill="#003884"
  />
  <path
    fill-rule="evenodd"
    clip-rule="evenodd"
    d="M130.168 157.251C130.168 156.537 129.659 155.924 128.957 155.793C128.255 155.661 127.559 156.048 127.3 156.713L127.091 157.252H130.168V157.251ZM130.168 164.673H124.205L118.479 179.398V164.673H115.51V187.31C115.51 188.024 116.018 188.637 116.72 188.769C117.422 188.901 118.119 188.514 118.378 187.848L127.199 165.164V175.806C127.199 176.47 127.641 177.054 128.28 177.235C128.919 177.415 129.601 177.149 129.948 176.583L136.008 166.714H145.197C146.017 166.714 146.682 166.05 146.682 165.23C146.682 164.41 146.017 163.746 145.197 163.746H135.178C134.662 163.746 134.183 164.014 133.913 164.453L130.168 170.552V164.673Z"
    fill="#6BA5FF"
  />
  <rect
    x="190.539"
    y="273.031"
    width="65.1538"
    height="47.3846"
    rx="8"
    fill="#0157CB"
  />
  <path
    d="M222.116 310.639C221.494 310.639 220.992 310.104 220.992 309.445V284.378C220.992 283.719 221.494 283.184 222.116 283.184C222.737 283.184 223.239 283.719 223.239 284.378V309.445C223.239 310.104 222.737 310.639 222.116 310.639Z"
    fill="#FAFAFA"
  />
  <path
    d="M225.489 309.446C224.867 309.446 224.365 308.911 224.365 308.252V285.572C224.365 284.913 224.867 284.378 225.489 284.378C226.11 284.378 226.612 284.913 226.612 285.572V308.252C226.612 308.911 226.11 309.446 225.489 309.446Z"
    fill="#FAFAFA"
  />
  <path
    d="M228.856 304.671C228.235 304.671 227.732 304.136 227.732 303.477V290.346C227.732 289.688 228.235 289.153 228.856 289.153C229.477 289.153 229.979 289.688 229.979 290.346V303.477C229.979 304.136 229.477 304.671 228.856 304.671Z"
    fill="#FAFAFA"
  />
  <path
    d="M232.227 309.446C231.606 309.446 231.104 308.911 231.104 308.252V285.572C231.104 284.913 231.606 284.378 232.227 284.378C232.848 284.378 233.35 284.913 233.35 285.572V308.252C233.35 308.911 232.848 309.446 232.227 309.446Z"
    fill="#FAFAFA"
  />
  <path
    d="M235.596 304.671C234.975 304.671 234.473 304.136 234.473 303.477V290.346C234.473 289.688 234.975 289.153 235.596 289.153C236.217 289.153 236.719 289.688 236.719 290.346V303.477C236.719 304.136 236.217 304.671 235.596 304.671Z"
    fill="#FAFAFA"
  />
  <path
    d="M239.035 304.756C238.414 304.756 237.912 304.45 237.912 304.074V289.749C237.912 289.373 238.414 289.067 239.035 289.067C239.657 289.067 240.159 289.373 240.159 289.749V304.074C240.159 304.45 239.657 304.756 239.035 304.756Z"
    fill="#FAFAFA"
  />
  <path
    d="M242.407 304.074C241.785 304.074 241.283 303.768 241.283 303.392V290.432C241.283 290.055 241.785 289.75 242.407 289.75C243.028 289.75 243.53 290.055 243.53 290.432V303.392C243.53 303.768 243.028 304.074 242.407 304.074Z"
    fill="#FAFAFA"
  />
  <path
    d="M205.2 304.756C204.578 304.756 204.076 304.45 204.076 304.074V289.749C204.076 289.373 204.578 289.067 205.2 289.067C205.821 289.067 206.323 289.373 206.323 289.749V304.074C206.323 304.45 205.821 304.756 205.2 304.756Z"
    fill="#FAFAFA"
  />
  <path
    d="M208.573 304.074C207.951 304.074 207.449 303.768 207.449 303.392V290.432C207.449 290.055 207.951 289.75 208.573 289.75C209.194 289.75 209.696 290.055 209.696 290.432V303.392C209.696 303.768 209.194 304.074 208.573 304.074Z"
    fill="#FAFAFA"
  />
  <path
    d="M211.94 301.345C211.319 301.345 210.816 301.04 210.816 300.663V293.16C210.816 292.783 211.319 292.478 211.94 292.478C212.561 292.478 213.063 292.783 213.063 293.16V300.663C213.063 301.04 212.561 301.345 211.94 301.345Z"
    fill="#FAFAFA"
  />
  <path
    d="M215.311 304.074C214.69 304.074 214.188 303.768 214.188 303.392V290.432C214.188 290.055 214.69 289.75 215.311 289.75C215.932 289.75 216.434 290.055 216.434 290.432V303.392C216.434 303.768 215.932 304.074 215.311 304.074Z"
    fill="#FAFAFA"
  />
  <path
    d="M218.68 301.345C218.059 301.345 217.557 301.04 217.557 300.663V293.16C217.557 292.783 218.059 292.478 218.68 292.478C219.301 292.478 219.803 292.783 219.803 293.16V300.663C219.803 301.04 219.301 301.345 218.68 301.345Z"
    fill="#FAFAFA"
  />
  <rect x="386" y="182.001" width="114" height="93" rx="12" fill="#034FB6" />
  <path
    d="M386 262.001H500V273.001C500 279.629 494.627 285.001 488 285.001H398C391.373 285.001 386 279.629 386 273.001V262.001Z"
    fill="#F2F2F2"
  />
  <rect
    x="403"
    y="252.808"
    width="15.7616"
    height="4.16751"
    rx="2.08375"
    transform="rotate(-90 403 252.808)"
    fill="#6BA5FF"
  />
  <rect
    x="409.945"
    y="252.808"
    width="29.553"
    height="4.16751"
    rx="2.08375"
    transform="rotate(-90 409.945 252.808)"
    fill="#6BA5FF"
  />
  <rect
    x="416.893"
    y="252.808"
    width="20.3587"
    height="4.16751"
    rx="2.08375"
    transform="rotate(-90 416.893 252.808)"
    fill="#6BA5FF"
  />
  <rect
    x="423.838"
    y="252.808"
    width="15.7616"
    height="4.16751"
    rx="2.08375"
    transform="rotate(-90 423.838 252.808)"
    fill="#6BA5FF"
  />
  <rect
    x="430.783"
    y="252.808"
    width="34.8069"
    height="4.16751"
    rx="2.08375"
    transform="rotate(-90 430.783 252.808)"
    fill="#6BA5FF"
  />
  <rect
    x="437.73"
    y="252.808"
    width="28.2396"
    height="4.16751"
    rx="2.08375"
    transform="rotate(-90 437.73 252.808)"
    fill="#6BA5FF"
  />
  <rect
    x="444.676"
    y="252.808"
    width="10.5077"
    height="4.16751"
    rx="2.08375"
    transform="rotate(-90 444.676 252.808)"
    fill="#6BA5FF"
  />
  <rect
    x="451.621"
    y="252.808"
    width="20.3587"
    height="4.16751"
    rx="2.08375"
    transform="rotate(-90 451.621 252.808)"
    fill="#6BA5FF"
  />
  <rect
    x="458.568"
    y="252.808"
    width="28.2396"
    height="4.16751"
    rx="2.08375"
    transform="rotate(-90 458.568 252.808)"
    fill="#6BA5FF"
  />
  <rect
    x="465.514"
    y="252.808"
    width="20.3587"
    height="4.16751"
    rx="2.08375"
    transform="rotate(-90 465.514 252.808)"
    fill="#6BA5FF"
  />
  <rect
    x="472.457"
    y="252.808"
    width="15.7616"
    height="4.16751"
    rx="2.08375"
    transform="rotate(-90 472.457 252.808)"
    fill="#6BA5FF"
  />
  <rect
    x="479.406"
    y="252.808"
    width="34.8069"
    height="4.16751"
    rx="2.08375"
    transform="rotate(-90 479.406 252.808)"
    fill="#6BA5FF"
  />
  <rect
    x="399.438"
    y="193.414"
    width="88.0481"
    height="3.36185"
    rx="1.68093"
    fill="#AED0FF"
  />
  <rect
    x="399.438"
    y="201.483"
    width="73.614"
    height="3.36185"
    rx="1.68093"
    fill="#AED0FF"
  />
  <rect
    x="399.438"
    y="209.551"
    width="24.538"
    height="3.36185"
    rx="1.68093"
    fill="#AED0FF"
  />
  <rect x="395" y="268.001" width="96" height="3" rx="1.5" fill="#D9D9D9" />
  <rect x="395" y="274.001" width="85" height="3" rx="1.5" fill="#D9D9D9" />
  <rect x="69" y="206.001" width="96" height="3" rx="1.5" fill="#D9D9D9" />
  <rect x="69" y="212.001" width="63" height="3" rx="1.5" fill="#D9D9D9" />
  <defs>
    <linearGradient
      id="paint0_linear_3750_267620"
      x1="246.504"
      y1="202.222"
      x2="223.194"
      y2="192.792"
      gradientUnits="userSpaceOnUse"
    >
      <stop stop-color="#D9D9D9" />
      <stop offset="1" stop-color="#D9D9D9" stop-opacity="0" />
    </linearGradient>
    <linearGradient
      id="paint1_linear_3750_267620"
      x1="265.071"
      y1="214.714"
      x2="273.984"
      y2="150.91"
      gradientUnits="userSpaceOnUse"
    >
      <stop stop-color="#F5C144" />
      <stop offset="0.412446" stop-color="#F5C144" />
      <stop offset="1" stop-color="#FFD570" />
    </linearGradient>
  </defs>
</svg>
