<svg viewBox="0 0 41 41" fill="none" xmlns="http://www.w3.org/2000/svg">
  <path
    d="M32.9102 13.4182H25.4102"
    stroke="currentColor"
    stroke-width="1.5"
    stroke-miterlimit="10"
    stroke-linecap="round"
    stroke-linejoin="round"
  />
  <path
    d="M12.9102 13.4182H7.91016"
    stroke="currentColor"
    stroke-width="1.5"
    stroke-miterlimit="10"
    stroke-linecap="round"
    stroke-linejoin="round"
  />
  <path
    d="M17.9102 17.7933C20.3264 17.7933 22.2852 15.8345 22.2852 13.4183C22.2852 11.002 20.3264 9.04327 17.9102 9.04327C15.4939 9.04327 13.5352 11.002 13.5352 13.4183C13.5352 15.8345 15.4939 17.7933 17.9102 17.7933Z"
    stroke="currentColor"
    stroke-width="1.5"
    stroke-miterlimit="10"
    stroke-linecap="round"
    stroke-linejoin="round"
  />
  <path
    d="M32.9092 27.1683H27.9092"
    stroke="currentColor"
    stroke-width="1.5"
    stroke-miterlimit="10"
    stroke-linecap="round"
    stroke-linejoin="round"
  />
  <path
    d="M15.4102 27.1683H7.91016"
    stroke="currentColor"
    stroke-width="1.5"
    stroke-miterlimit="10"
    stroke-linecap="round"
    stroke-linejoin="round"
  />
  <path
    d="M22.9092 31.5432C25.3254 31.5432 27.2842 29.5845 27.2842 27.1682C27.2842 24.752 25.3254 22.7932 22.9092 22.7932C20.4929 22.7932 18.5342 24.752 18.5342 27.1682C18.5342 29.5845 20.4929 31.5432 22.9092 31.5432Z"
    stroke="currentColor"
    stroke-width="1.5"
    stroke-miterlimit="10"
    stroke-linecap="round"
    stroke-linejoin="round"
  />
</svg>
