<svg viewBox="0 0 40 40" fill="none" xmlns="http://www.w3.org/2000/svg">
  <path
    d="M24.8 18C24.8 18 26 19.5 26 22C26 24.5 24 26 24 26"
    stroke="#0157CB"
    stroke-width="1.5"
    stroke-linecap="round"
  />
  <path
    d="M27.2 16C27.2 16 29 18 29 22C29 26 26 28 26 28"
    stroke="#0157CB"
    stroke-width="1.5"
    stroke-linecap="round"
  />
  <path
    d="M29.6 14C29.6 14 32 16.6667 32 22C32 27.3333 28 30 28 30"
    stroke="#0157CB"
    stroke-width="1.5"
    stroke-linecap="round"
  />
  <path
    d="M20.5 5.5C20.5 5.5 24 9 24.5 11.5C25 14 21 14 20.5 15C20 16 21.5 16 21.5 17C21.5 18 21 19 20.5 19C20 19 17 19.5 17 20C17 20.5 20 20.5 20 20.5C20 20.5 21.5 21 21 22.5C20.5 24 18.5 23 18 24C17.5 25 19 27.5 18 29C17 30.5 15.4871 30.5 14 30.5C11.5 30.5 7.00314 28.7707 7 29C6.98206 30.3097 8.5 32 8.5 32"
    stroke="#0157CB"
    stroke-width="1.5"
    stroke-linecap="round"
  />
</svg>
