<svg viewBox="0 0 40 40" fill="none" xmlns="http://www.w3.org/2000/svg">
  <path
    d="M17.5714 13.1731C17.3225 13.0124 17.0156 13.0095 16.7645 13.1658L10.4632 17.0952H5.81079C5.36295 17.0952 5 17.4975 5 17.994V25.185C5 25.6815 5.36293 26.0839 5.81079 26.0839H10.4632L16.7645 30.0133L16.7647 30.0136C17.0156 30.1701 17.3228 30.1673 17.5714 30.0062C17.8202 29.8449 17.9729 29.5494 17.9729 29.2302V13.9489C17.9729 13.6294 17.8202 13.3339 17.5714 13.1729L17.5714 13.1731ZM6.62184 18.8929H9.86493V24.2862H6.62184V18.8929ZM16.3516 27.6927L11.4866 24.659L11.4869 18.5197L16.3518 15.486L16.3516 27.6927Z"
    fill="#0157CB"
  />
  <path
    d="M21.0803 16.6952L23.4039 12.831L24.5015 16.4808L24.5012 16.4811C24.5902 16.7766 24.8107 17 25.0841 17.0714C25.3578 17.1429 25.645 17.0525 25.8437 16.8321L28.0157 14.4242L28.5295 17.2719C28.5945 17.6331 28.8521 17.9138 29.1789 17.9799C29.227 17.9895 29.2756 17.9943 29.3245 17.9943C29.6043 17.9943 29.8641 17.8347 30.0122 17.5719L34.0664 10.3806C34.182 10.1784 34.2203 9.93341 34.1725 9.69977C34.1247 9.46613 33.9945 9.26339 33.8114 9.13636C33.628 9.00962 33.4067 8.96907 33.1963 9.02379C32.986 9.07852 32.8039 9.22426 32.6909 9.42842L29.7191 14.6995L29.3086 12.4246C29.25 12.0997 29.0347 11.8368 28.7485 11.741C28.4625 11.6449 28.1518 11.7314 27.9405 11.9656L25.6248 14.5328L24.4181 10.5189C24.3201 10.1934 24.0633 9.95803 23.7565 9.91238C23.4496 9.86673 23.1459 10.019 22.9743 10.3048L19.7313 15.6982L19.731 15.6979C19.609 15.8964 19.5635 16.1405 19.6047 16.3764C19.6461 16.612 19.7706 16.8199 19.951 16.9529C20.131 17.0861 20.352 17.1338 20.564 17.0856C20.7763 17.0371 20.9623 16.8964 21.0804 16.6951L21.0803 16.6952Z"
    fill="#0157CB"
  />
  <path
    d="M30.6214 29.8598C30.3575 29.6406 30.0004 29.6202 29.7175 29.8082L26.5304 31.928L25.2283 27.5977C25.1482 27.332 24.9613 27.1227 24.7221 27.032C24.4832 26.941 24.2195 26.979 24.0093 27.1344L22.1299 28.5235L20.9782 27.2466C20.8263 27.0779 20.6201 26.9829 20.4048 26.9827C20.1897 26.9827 19.9833 27.0774 19.8311 27.2458C19.6789 27.4145 19.5935 27.6433 19.5938 27.8821C19.5938 28.1205 19.6794 28.3494 19.8319 28.5178L21.4534 30.3155C21.7266 30.6186 22.155 30.6657 22.4765 30.4278L24.0257 29.2829L25.3117 33.5599H25.3114C25.3892 33.8188 25.5687 34.0243 25.7994 34.1188C26.0301 34.2135 26.2872 34.1865 26.4979 34.0462L30.0845 31.6607L32.8915 33.9943L32.8913 33.9946C33.2496 34.2923 33.7578 34.212 34.0264 33.8151C34.2952 33.4178 34.2228 32.8544 33.8645 32.5567L30.6214 29.8598Z"
    fill="#0157CB"
  />
  <path
    d="M34.8375 23.7472L32.4052 20.1519V20.1516C32.2428 19.908 31.9791 19.773 31.7064 19.794C31.4338 19.8127 31.1882 19.9823 31.0527 20.2451L28.939 24.3458L28.5025 21.442C28.46 21.1607 28.2999 20.9183 28.0705 20.789C27.8413 20.6594 27.5702 20.6583 27.34 20.7858L25.001 22.0822L24.4353 19.5739C24.3263 19.0925 23.8864 18.7998 23.4518 18.9201L20.2087 19.8189C19.7742 19.9394 19.51 20.4274 19.6187 20.9092C19.7274 21.3909 20.1678 21.6836 20.6021 21.563L23.0588 20.8823L23.6729 23.6058C23.7325 23.8703 23.8972 24.0906 24.1207 24.2046C24.3443 24.3186 24.6021 24.3138 24.822 24.1918L27.0835 22.9383L27.7137 27.1311C27.7702 27.5059 28.0332 27.8011 28.3705 27.868C28.4178 27.8774 28.4659 27.8822 28.514 27.8822C28.8048 27.8819 29.0733 27.7092 29.2173 27.4291L31.8484 22.3247L33.5406 24.8261H33.5408C33.8094 25.2231 34.3176 25.3033 34.6757 25.0056C35.034 24.7076 35.1064 24.1442 34.8378 23.7472L34.8375 23.7472Z"
    fill="#0157CB"
  />
</svg>
