<svg viewBox="0 0 24 24" fill="none" xmlns="http://www.w3.org/2000/svg">
  <path
    fill-rule="evenodd"
    clip-rule="evenodd"
    d="M17.8736 5.17299C18.238 5.08187 18.5911 5.35753 18.5911 5.73319V7.77327L9.35192 9.91665V7.75426C9.35192 7.48929 9.53225 7.25832 9.78931 7.19405L17.8736 5.17299ZM9.35192 11.1291V17.824C9.35192 19.5781 7.92999 21 6.17596 21C4.42193 21 3 19.5781 3 17.824C3 16.07 4.42193 14.6481 6.17596 14.6481C6.49487 14.6481 6.75341 14.9066 6.75341 15.2255C6.75341 15.5444 6.49487 15.803 6.17596 15.803C5.05976 15.803 4.15489 16.7078 4.15489 17.824C4.15489 18.9402 5.05976 19.8451 6.17596 19.8451C7.29216 19.8451 8.19702 18.9402 8.19702 17.824V7.75426C8.19702 6.95934 8.73803 6.26644 9.50921 6.07364L17.5935 4.05258C18.6868 3.77924 19.746 4.60618 19.746 5.73319V8.28492C19.7462 8.29266 19.7462 8.30039 19.746 8.30809V16.6691C19.746 18.4232 18.324 19.8451 16.57 19.8451C14.816 19.8451 13.394 18.4232 13.394 16.6691C13.394 14.9151 14.816 13.4932 16.57 13.4932C16.8889 13.4932 17.1475 13.7517 17.1475 14.0706C17.1475 14.3895 16.8889 14.6481 16.57 14.6481C15.4538 14.6481 14.5489 15.5529 14.5489 16.6691C14.5489 17.7853 15.4538 18.6902 16.57 18.6902C17.6862 18.6902 18.5911 17.7853 18.5911 16.6691V8.98575L9.35192 11.1291Z"
    fill="#0157CB"
  />
</svg>
