<svg viewBox="0 0 25 25" fill="none" xmlns="http://www.w3.org/2000/svg">
  <path
    d="M13.143 3.94213L13.1433 3.94211L13.142 3.9321C13.0823 3.49262 12.7057 3.1542 12.25 3.1542C11.7529 3.1542 11.3501 3.55736 11.3502 4.05437L11.3514 11.1542H4.25244V11.1539L4.24244 11.1545L4.14067 11.1613L4.14065 11.161L4.13049 11.1624C3.69106 11.222 3.35244 11.5984 3.35244 12.0542C3.35244 12.5512 3.75538 12.9542 4.25244 12.9542H11.3515L11.3534 20.0536H11.3531L11.3538 20.0637L11.3607 20.1655L11.3603 20.1656L11.3617 20.1756C11.4214 20.6151 11.7979 20.9535 12.2536 20.9535C12.7508 20.9535 13.1536 20.5503 13.1534 20.0533L13.1515 12.9542H20.2545V12.9545L20.2645 12.9539L20.3663 12.9471L20.3664 12.9474L20.3765 12.946C20.8159 12.8864 21.1545 12.51 21.1545 12.0542C21.1545 11.5572 20.7516 11.1542 20.2545 11.1542H13.1514L13.1502 4.05402L13.1506 4.05402L13.1499 4.0439L13.143 3.94213Z"
    fill="currentColor"
    stroke="black"
    stroke-width="0.3"
  />
</svg>
