<svg viewBox="0 0 112 112" fill="none" xmlns="http://www.w3.org/2000/svg">
  <circle cx="56" cy="55.9999" r="55.5" stroke="#0157CB" stroke-opacity="0.2" />
  <path d="M58.8301 26H62.6328V33.7323H58.8301V26Z" fill="#0157CB" />
  <path d="M68.9707 26H72.7734V33.7323H68.9707V26Z" fill="#0157CB" />
  <path d="M48.6895 26H52.4922V33.7323H48.6895V26Z" fill="#0157CB" />
  <path d="M38.5488 26H42.3516V33.7323H38.5488V26Z" fill="#0157CB" />
  <path d="M26 48.6895H33.7324V52.4923H26V48.6895Z" fill="#0157CB" />
  <path d="M26 38.5488H33.7324V42.3515H26V38.5488Z" fill="#0157CB" />
  <path d="M26 58.8303H33.7324V62.633H26V58.8303Z" fill="#0157CB" />
  <path d="M26 68.9711H33.7324V72.7738H26V68.9711Z" fill="#0157CB" />
  <path d="M48.6895 77.5913H52.4922V85.3237H48.6895V77.5913Z" fill="#0157CB" />
  <path d="M38.5488 77.5913H42.3516V85.3237H38.5488V77.5913Z" fill="#0157CB" />
  <path d="M58.8301 77.5913H62.6328V85.3237H58.8301V77.5913Z" fill="#0157CB" />
  <path d="M68.9707 77.5913H72.7734V85.3237H68.9707V77.5913Z" fill="#0157CB" />
  <path d="M77.5918 58.8303H85.3242V62.633H77.5918V58.8303Z" fill="#0157CB" />
  <path d="M77.5918 68.9711H85.3242V72.7738H77.5918V68.9711Z" fill="#0157CB" />
  <path d="M77.5918 48.6895H85.3242V52.4923H77.5918V48.6895Z" fill="#0157CB" />
  <path d="M77.5918 38.5488H85.3242V42.3515H77.5918V38.5488Z" fill="#0157CB" />
  <path
    d="M43.5547 67.8608H67.7697V43.4627H43.5547V67.8608ZM63.1408 62.2318H60.3625V53.3148H63.1408V62.2318ZM61.752 49.0917C62.6379 49.0917 63.3066 49.7645 63.312 50.6586C63.3233 51.0765 63.1753 51.4658 62.8951 51.756C62.5999 52.0616 62.1816 52.2295 61.7176 52.2295C60.8525 52.2295 60.1748 51.5441 60.1748 50.669C60.1743 49.7844 60.8674 49.0918 61.752 49.0918L61.752 49.0917ZM51.599 49.4267H54.3067L58.6762 62.2307H55.7395L54.5076 58.6036H51.3346L50.1371 62.2307H47.2488L51.599 49.4267Z"
    fill="#F5C144"
  />
  <path
    d="M52.9217 53.6904C52.9189 53.6827 52.9167 53.675 52.914 53.6673L52.0674 56.1681H53.7647L52.9217 53.6904Z"
    fill="#F5C144"
  />
  <path
    d="M33.748 33.6057V77.7174H77.5747V33.6057H33.748ZM71.5934 69.7729C71.5934 70.829 70.7373 71.6851 69.6811 71.6851L41.6405 71.6856C40.5843 71.6856 39.7282 70.8295 39.7282 69.7733V41.5507C39.7282 40.4945 40.5843 39.6384 41.6405 39.6384H69.6811C70.7373 39.6384 71.5934 40.4945 71.5934 41.5507V69.7729Z"
    fill="#0157CB"
  />
</svg>
