<svg viewBox="0 0 181 53" fill="none" xmlns="http://www.w3.org/2000/svg">
  <path
    d="M171.199 52.2979H9.859C5.06209 52.2979 1.20117 48.437 1.20117 43.64V9.35973C1.20117 4.56283 5.06209 0.701904 9.859 0.701904H171.199C175.996 0.701904 179.857 4.56283 179.857 9.35973V43.757C179.74 48.437 175.879 52.2979 171.199 52.2979Z"
    fill="black"
  />
  <path
    d="M173.657 52.9999H7.28587C3.54194 52.9999 0.5 49.958 0.5 46.2141V6.78587C0.5 3.04194 3.54194 0 7.28587 0H173.657C177.4 0 180.442 3.04194 180.442 6.78587V46.2141C180.442 49.958 177.4 52.9999 173.657 52.9999ZM7.28587 1.40397C4.24393 1.40397 1.90397 3.86092 1.90397 6.78587V46.2141C1.90397 49.256 4.36092 51.596 7.28587 51.596H173.657C176.698 51.596 179.038 49.139 179.038 46.2141V6.78587C179.038 3.74393 176.581 1.40397 173.657 1.40397H7.28587Z"
    fill="#B5B5B6"
  />
  <path
    d="M60.4005 15.0926L59.6985 17.5496H58.0605L60.8685 8.89172H62.8574L65.6654 17.5496H63.9104L63.0914 15.0926H60.4005ZM62.8574 13.9226L62.1555 11.8167C62.0385 11.2317 61.8045 10.6467 61.6875 10.1787C61.5705 10.6467 61.4535 11.2317 61.2195 11.8167L60.5175 13.9226H62.8574Z"
    fill="white"
  />
  <path
    d="M68.0052 11.3486L69.0581 14.5076C69.2921 15.0926 69.4091 15.5605 69.5261 16.0285C69.6431 15.5605 69.7601 14.9756 69.9941 14.5076L71.0471 11.3486H72.6851L70.2281 17.6665H68.7071L66.3672 11.3486H68.0052Z"
    fill="white"
  />
  <path
    d="M79.0032 16.0286C79.0032 16.6136 79.0032 17.1986 79.1202 17.5496H77.7162L77.5992 16.8476C77.2482 17.3156 76.5462 17.6666 75.7272 17.6666C74.4403 17.6666 73.7383 16.7306 73.7383 15.7947C73.7383 14.2737 75.1423 13.4547 77.4822 13.4547V13.3377C77.4822 12.8697 77.3652 12.2847 76.1952 12.2847C75.6102 12.2847 74.9083 12.5187 74.5573 12.7527L74.2063 11.6997C74.6743 11.4657 75.4932 11.1147 76.4292 11.1147C78.4182 11.1147 79.0032 12.4017 79.0032 13.8057V16.0286ZM77.3652 14.5077C76.1952 14.5077 75.1423 14.7417 75.1423 15.6777C75.1423 16.2626 75.4932 16.6136 76.0782 16.6136C76.7802 16.6136 77.1312 16.1456 77.3652 15.7947C77.3652 15.6777 77.3652 15.5607 77.3652 15.4437V14.5077Z"
    fill="white"
  />
  <path
    d="M81.9282 10.4127C81.3432 10.4127 80.9922 10.0618 80.9922 9.59376C80.9922 9.12577 81.3432 8.77478 81.9282 8.77478C82.5132 8.77478 82.8641 9.12577 82.8641 9.59376C82.8641 9.94476 82.5132 10.4127 81.9282 10.4127ZM81.2262 17.5496V11.2317H82.8641V17.5496H81.2262Z"
    fill="white"
  />
  <path d="M85.0859 8.42371H86.7239V17.5495H85.0859V8.42371Z" fill="white" />
  <path
    d="M93.8606 16.0286C93.8606 16.6136 93.8606 17.1986 93.9776 17.5496H92.5736L92.4566 16.8476C92.1056 17.3156 91.4036 17.6666 90.5847 17.6666C89.2977 17.6666 88.5957 16.7306 88.5957 15.7947C88.5957 14.2737 89.9997 13.4547 92.3396 13.4547V13.3377C92.3396 12.8697 92.2226 12.2847 91.0527 12.2847C90.4677 12.2847 89.7657 12.5187 89.4147 12.7527L89.0637 11.6997C89.5317 11.4657 90.3507 11.1147 91.2866 11.1147C93.2756 11.1147 93.8606 12.4017 93.8606 13.8057V16.0286ZM92.3396 14.5077C91.1696 14.5077 90.1167 14.7417 90.1167 15.6777C90.1167 16.2626 90.4677 16.6136 91.0527 16.6136C91.7546 16.6136 92.1056 16.1456 92.3396 15.7947C92.3396 15.6777 92.3396 15.5607 92.3396 15.4437V14.5077Z"
    fill="white"
  />
  <path
    d="M96.0857 8.42371H97.7237V12.1676C98.0747 11.5826 98.7767 11.1147 99.7127 11.1147C101.234 11.1147 102.404 12.4016 102.287 14.2736C102.287 16.4965 100.883 17.6665 99.4787 17.6665C98.6597 17.6665 97.9577 17.3155 97.4897 16.6135L97.3727 17.5495H95.9688C95.9688 17.0815 95.9688 16.3795 95.9688 15.7946V8.42371H96.0857ZM97.7237 14.9756C97.7237 15.0926 97.7237 15.2096 97.7237 15.3266C97.8407 16.0286 98.4257 16.3795 99.1277 16.3795C100.064 16.3795 100.766 15.5606 100.766 14.2736C100.766 13.2206 100.181 12.2846 99.1277 12.2846C98.4257 12.2846 97.8407 12.7526 97.7237 13.4546C97.7237 13.5716 97.7237 13.6886 97.7237 13.9226V14.9756Z"
    fill="white"
  />
  <path d="M104.158 8.42371H105.796V17.5495H104.158V8.42371Z" fill="white" />
  <path
    d="M109.189 14.8587C109.189 16.0286 110.125 16.4966 111.178 16.4966C111.88 16.4966 112.465 16.3796 112.933 16.2626L113.167 17.3156C112.582 17.5496 111.88 17.6666 110.944 17.6666C108.955 17.6666 107.668 16.3796 107.668 14.5077C107.668 12.7527 108.721 11.1147 110.71 11.1147C112.699 11.1147 113.401 12.7527 113.401 14.1567C113.401 14.5077 113.401 14.7417 113.401 14.8587H109.189ZM111.997 13.8057C111.997 13.2207 111.763 12.2847 110.71 12.2847C109.774 12.2847 109.306 13.2207 109.306 13.8057H111.997Z"
    fill="white"
  />
  <path
    d="M121.241 17.6666C119.486 17.6666 118.082 16.4966 118.082 14.3907C118.082 12.2847 119.486 11.1147 121.358 11.1147C123.23 11.1147 124.517 12.4017 124.517 14.3907C124.517 16.7306 122.879 17.6666 121.241 17.6666ZM121.358 16.6136C122.294 16.6136 122.879 15.7947 122.879 14.5077C122.879 13.5717 122.411 12.4017 121.358 12.4017C120.188 12.4017 119.837 13.4547 119.837 14.5077C119.837 15.6777 120.422 16.6136 121.358 16.6136Z"
    fill="white"
  />
  <path
    d="M126.388 13.2206C126.388 12.5187 126.388 11.9337 126.388 11.3487H127.792L127.909 12.2847C128.143 11.8167 128.845 11.2317 129.898 11.2317C130.951 11.2317 132.121 11.9337 132.121 13.9226V17.6666H130.483V14.1566C130.483 13.2206 130.132 12.5187 129.313 12.5187C128.728 12.5187 128.26 12.9867 128.026 13.4546C128.026 13.5716 127.909 13.8056 127.909 13.9226V17.6666H126.271V13.2206H126.388Z"
    fill="white"
  />
  <path
    d="M139.375 9.71069V11.3487H140.896V12.5186H139.375V15.3266C139.375 16.1456 139.609 16.4966 140.194 16.4966C140.428 16.4966 140.662 16.4966 140.779 16.3796V17.5495C140.545 17.6665 140.077 17.6665 139.609 17.6665C139.024 17.6665 138.556 17.4325 138.205 17.1985C137.854 16.8476 137.737 16.2626 137.737 15.4436V12.5186H136.801V11.3487H137.737V10.1787L139.375 9.71069Z"
    fill="white"
  />
  <path
    d="M142.648 8.42371H144.286V12.1676C144.52 11.8166 144.754 11.5826 145.105 11.4656C145.456 11.2317 145.807 11.2317 146.158 11.2317C147.211 11.2317 148.381 11.9336 148.381 13.9226V17.6665H146.743V14.1566C146.743 13.2206 146.392 12.5186 145.573 12.5186C144.988 12.5186 144.52 12.9866 144.286 13.4546C144.286 13.5716 144.169 13.8056 144.169 13.9226V17.6665H142.531V8.42371H142.648Z"
    fill="white"
  />
  <path
    d="M151.777 14.8587C151.777 16.0286 152.713 16.4966 153.766 16.4966C154.468 16.4966 155.053 16.3796 155.521 16.2626L155.755 17.3156C155.17 17.5496 154.468 17.6666 153.532 17.6666C151.543 17.6666 150.256 16.3796 150.256 14.5077C150.256 12.7527 151.309 11.1147 153.298 11.1147C155.287 11.1147 155.989 12.7527 155.989 14.1567C155.989 14.5077 155.989 14.7417 155.989 14.8587H151.777ZM154.468 13.8057C154.468 13.2207 154.234 12.2847 153.181 12.2847C152.245 12.2847 151.777 13.2207 151.777 13.8057H154.468Z"
    fill="white"
  />
  <path
    d="M40.6282 25.9736C40.6282 21.6447 44.1381 19.5387 44.3721 19.4217C42.3832 16.4968 39.2242 16.0288 38.1712 16.0288C35.5973 15.7948 33.0233 17.5498 31.6194 17.5498C30.2154 17.5498 28.2264 16.0288 26.0035 16.0288C23.1955 16.0288 20.5046 17.7838 18.9836 20.3577C15.9417 25.6226 18.1646 33.3445 21.0896 37.5564C22.4936 39.6623 24.2485 42.0023 26.4715 41.8853C28.6944 41.7683 29.3964 40.4813 32.0874 40.4813C34.6613 40.4813 35.4803 41.8853 37.7032 41.7683C40.0432 41.7683 41.4472 39.6623 42.8511 37.5564C44.4891 35.2164 45.1911 32.8765 45.1911 32.7595C45.1911 32.8765 40.7452 31.2385 40.6282 25.9736Z"
    fill="white"
  />
  <path
    d="M36.4148 13.3378C37.5848 11.9338 38.4037 9.94483 38.1698 7.83887C36.5318 7.95586 34.4258 9.00884 33.1389 10.4128C32.0859 11.6998 31.1499 13.6888 31.3839 15.6777C33.2558 15.9117 35.1278 14.7417 36.4148 13.3378Z"
    fill="white"
  />
  <path
    d="M71.9855 41.6513H68.9435L67.3056 36.3864H61.5727L59.9347 41.6513H57.0098L62.7427 23.8677H66.2526L71.9855 41.6513ZM66.8376 34.2805L65.3166 29.6006C65.1996 29.1326 64.8486 27.9626 64.3806 26.2076C64.1466 26.9096 63.9126 28.0796 63.5616 29.6006L62.0407 34.2805H66.8376Z"
    fill="white"
  />
  <path
    d="M86.7263 35.0995C86.7263 37.3224 86.1414 38.9604 84.9714 40.2474C83.9184 41.4174 82.6314 41.8853 81.1105 41.8853C79.4725 41.8853 78.1855 41.3004 77.4835 40.0134V46.7992H74.6756V33.1105C74.6756 31.7065 74.6756 30.3026 74.5586 28.8986H77.0155L77.1325 30.8876C78.0685 29.3666 79.4725 28.5476 81.4615 28.5476C82.9824 28.5476 84.2694 29.1326 85.2054 30.3026C86.2584 31.5895 86.7263 33.1105 86.7263 35.0995ZM83.8014 35.2165C83.8014 33.9295 83.5674 32.9935 82.9824 32.1745C82.3974 31.3556 81.5785 30.8876 80.5255 30.8876C79.8235 30.8876 79.2385 31.1216 78.6535 31.5895C78.0685 32.0575 77.7175 32.6425 77.4835 33.4615C77.3665 33.8125 77.3665 34.0465 77.3665 34.2805V36.3864C77.3665 37.3224 77.6005 38.1414 78.1855 38.7264C78.7705 39.3114 79.4725 39.6624 80.4085 39.6624C81.4615 39.6624 82.2804 39.3114 82.8654 38.3754C83.5674 37.6734 83.8014 36.5034 83.8014 35.2165Z"
    fill="white"
  />
  <path
    d="M101.469 35.0992C101.469 37.3222 100.884 38.9602 99.7136 40.2471C98.6606 41.4171 97.3736 41.8851 95.8526 41.8851C94.2147 41.8851 92.9277 41.3001 92.2257 40.0131V46.799H89.4178V33.1103C89.4178 31.7063 89.4178 30.3023 89.3008 28.8984H91.7577L91.8747 30.8873C92.8107 29.3663 94.2147 28.5474 96.2036 28.5474C97.7246 28.5474 99.0116 29.1324 99.9476 30.3023C100.884 31.5893 101.469 33.1103 101.469 35.0992ZM98.5436 35.2162C98.5436 33.9293 98.3096 32.9933 97.7246 32.1743C97.1396 31.3553 96.3206 30.8873 95.2677 30.8873C94.5657 30.8873 93.9807 31.1213 93.3957 31.5893C92.8107 32.0573 92.4597 32.6423 92.2257 33.4613C92.1087 33.8123 92.1087 34.0463 92.1087 34.2802V36.3862C92.1087 37.3222 92.3427 38.1412 92.9277 38.7262C93.5127 39.3111 94.2147 39.6621 95.1507 39.6621C96.2036 39.6621 97.0226 39.3111 97.6076 38.3752C98.1926 37.6732 98.5436 36.5032 98.5436 35.2162Z"
    fill="white"
  />
  <path
    d="M117.848 36.6203C117.848 38.1413 117.38 39.3113 116.327 40.2473C115.157 41.3002 113.519 41.7682 111.53 41.7682C109.658 41.7682 108.137 41.4172 106.967 40.7153L107.669 38.3753C108.956 39.0773 110.243 39.5453 111.764 39.5453C112.817 39.5453 113.636 39.3113 114.221 38.8433C114.806 38.3753 115.157 37.6733 115.157 36.8543C115.157 36.1523 114.923 35.5674 114.455 34.9824C113.987 34.5144 113.168 34.0464 111.998 33.5784C108.839 32.4084 107.318 30.7705 107.318 28.5475C107.318 27.1435 107.903 25.8566 108.956 24.9206C110.009 23.9846 111.53 23.5166 113.285 23.5166C114.923 23.5166 116.21 23.7506 117.263 24.3356L116.561 26.6755C115.508 26.0905 114.455 25.8566 113.168 25.8566C112.115 25.8566 111.413 26.0906 110.828 26.5585C110.36 27.0265 110.126 27.4945 110.126 28.1965C110.126 28.8985 110.36 29.4835 110.945 29.9515C111.413 30.4195 112.232 30.7705 113.519 31.3554C115.04 31.9404 116.21 32.6424 116.912 33.4614C117.497 34.3974 117.848 35.4504 117.848 36.6203Z"
    fill="white"
  />
  <path
    d="M127.208 31.0045H124.049V37.2054C124.049 38.7264 124.634 39.5453 125.687 39.5453C126.155 39.5453 126.623 39.5454 126.974 39.4284L127.091 41.5343C126.506 41.7683 125.804 41.8853 124.868 41.8853C123.698 41.8853 122.879 41.5343 122.294 40.8323C121.709 40.1303 121.358 38.9604 121.358 37.4394V31.0045H119.486V28.8986H121.358V26.5586L124.166 25.7396V28.8986H127.325V31.0045H127.208Z"
    fill="white"
  />
  <path
    d="M141.365 35.0995C141.365 37.0884 140.78 38.7264 139.727 39.8964C138.557 41.1834 137.036 41.8853 135.047 41.8853C133.175 41.8853 131.654 41.3004 130.601 40.0134C129.431 38.7264 128.963 37.2054 128.963 35.3335C128.963 33.3445 129.548 31.7065 130.718 30.4196C131.888 29.1326 133.409 28.5476 135.398 28.5476C137.27 28.5476 138.791 29.1326 139.961 30.4196C140.78 31.7065 141.365 33.2275 141.365 35.0995ZM138.44 35.2165C138.44 34.0465 138.206 32.9935 137.621 32.1745C137.036 31.1216 136.217 30.6536 135.047 30.6536C133.877 30.6536 133.058 31.1216 132.473 32.1745C132.005 32.9935 131.771 34.0465 131.771 35.2165C131.771 36.3865 132.005 37.4394 132.473 38.2584C133.058 39.3114 133.994 39.7794 135.047 39.7794C136.1 39.7794 137.036 39.3114 137.621 38.2584C138.206 37.4394 138.44 36.3865 138.44 35.2165Z"
    fill="white"
  />
  <path
    d="M150.608 31.3555C150.374 31.3555 150.023 31.2385 149.672 31.2385C148.619 31.2385 147.917 31.5895 147.332 32.4085C146.864 33.1105 146.63 33.9294 146.63 34.9824V41.6513H143.822V32.8765C143.822 31.3555 143.822 30.0685 143.705 28.8985H146.162L146.279 31.3555H146.396C146.747 30.5365 147.215 29.8345 147.8 29.3665C148.385 28.8985 149.087 28.6646 149.906 28.6646C150.14 28.6646 150.374 28.6646 150.608 28.6646V31.3555Z"
    fill="white"
  />
  <path
    d="M163.36 34.6314C163.36 35.0994 163.361 35.5674 163.244 35.9184H154.703C154.703 37.2054 155.171 38.1414 155.99 38.8433C156.692 39.4283 157.628 39.7793 158.798 39.7793C160.085 39.7793 161.255 39.5453 162.191 39.1943L162.659 41.1833C161.489 41.6513 159.968 42.0023 158.33 42.0023C156.341 42.0023 154.82 41.4173 153.65 40.2473C152.48 39.0773 152.012 37.5564 152.012 35.5674C152.012 33.6955 152.48 32.0575 153.65 30.7705C154.703 29.3665 156.224 28.6646 158.096 28.6646C159.968 28.6646 161.372 29.3665 162.308 30.7705C162.893 31.7065 163.36 32.9935 163.36 34.6314ZM160.553 33.9294C160.553 33.1105 160.436 32.4085 159.968 31.7065C159.5 30.8875 158.681 30.5365 157.745 30.5365C156.809 30.5365 156.107 30.8875 155.522 31.7065C155.054 32.2915 154.82 33.1105 154.703 33.9294H160.553Z"
    fill="white"
  />
</svg>
