<svg viewBox="0 0 155 46" fill="none" xmlns="http://www.w3.org/2000/svg">
  <path
    d="M146.3 45.1315H8.4C4.3 45.1315 1 41.8315 1 37.7315V8.43149C1 4.33149 4.3 1.03149 8.4 1.03149H146.3C150.4 1.03149 153.7 4.33149 153.7 8.43149V37.8315C153.6 41.8315 150.3 45.1315 146.3 45.1315Z"
    fill="black"
  />
  <path
    d="M148.4 45.7315H6.20039C3.00039 45.7315 0.400391 43.1315 0.400391 39.9315V6.23152C0.400391 3.03152 3.00039 0.431519 6.20039 0.431519H148.4C151.6 0.431519 154.2 3.03152 154.2 6.23152V39.9315C154.2 43.1315 151.6 45.7315 148.4 45.7315ZM6.20039 1.63152C3.60039 1.63152 1.60039 3.73152 1.60039 6.23152V39.9315C1.60039 42.5315 3.70039 44.5315 6.20039 44.5315H148.4C151 44.5315 153 42.4315 153 39.9315V6.23152C153 3.63152 150.9 1.63152 148.4 1.63152H6.20039Z"
    fill="#B5B5B6"
  />
  <path
    d="M51.5996 13.3315L50.9996 15.4315H49.5996L51.9996 8.03149H53.6996L56.0996 15.4315H54.5996L53.8996 13.3315H51.5996ZM53.6996 12.3315L53.0996 10.5315C52.9996 10.0315 52.7996 9.53149 52.6996 9.13149C52.5996 9.53149 52.4996 10.0315 52.2996 10.5315L51.6996 12.3315H53.6996Z"
    fill="#F2F2F2"
  />
  <path
    d="M58.0992 10.1315L58.9992 12.8315C59.1992 13.3315 59.2992 13.7315 59.3992 14.1315C59.4992 13.7315 59.5992 13.2315 59.7992 12.8315L60.6992 10.1315H62.0992L59.9992 15.5315H58.6992L56.6992 10.1315H58.0992Z"
    fill="#F2F2F2"
  />
  <path
    d="M67.5 14.1314C67.5 14.6314 67.5 15.1314 67.6 15.4314H66.4L66.3 14.8314C66 15.2314 65.4 15.5314 64.7 15.5314C63.6 15.5314 63 14.7314 63 13.9314C63 12.6314 64.2 11.9314 66.2 11.9314V11.8314C66.2 11.4314 66.1 10.9314 65.1 10.9314C64.6 10.9314 64 11.1314 63.7 11.3314L63.4 10.4314C63.8 10.2314 64.5 9.9314 65.3 9.9314C67 9.9314 67.5 11.0314 67.5 12.2314V14.1314ZM66.1 12.8314C65.1 12.8314 64.2 13.0314 64.2 13.8314C64.2 14.3314 64.5 14.6314 65 14.6314C65.6 14.6314 65.9 14.2314 66.1 13.9314C66.1 13.8314 66.1 13.7314 66.1 13.6314V12.8314Z"
    fill="#F2F2F2"
  />
  <path
    d="M69.9992 9.3314C69.4992 9.3314 69.1992 9.0314 69.1992 8.6314C69.1992 8.2314 69.4992 7.9314 69.9992 7.9314C70.4992 7.9314 70.7992 8.2314 70.7992 8.6314C70.7992 8.9314 70.4992 9.3314 69.9992 9.3314ZM69.3992 15.4314V10.0314H70.7992V15.4314H69.3992Z"
    fill="#F2F2F2"
  />
  <path d="M72.6992 7.63147H74.0992V15.4315H72.6992V7.63147Z" fill="#F2F2F2" />
  <path
    d="M80.1992 14.1314C80.1992 14.6314 80.1992 15.1314 80.2992 15.4314H79.0992L78.9992 14.8314C78.6992 15.2314 78.0992 15.5314 77.3992 15.5314C76.2992 15.5314 75.6992 14.7314 75.6992 13.9314C75.6992 12.6314 76.8992 11.9314 78.8992 11.9314V11.8314C78.8992 11.4314 78.7992 10.9314 77.7992 10.9314C77.2992 10.9314 76.6992 11.1314 76.3992 11.3314L76.0992 10.4314C76.4992 10.2314 77.1992 9.9314 77.9992 9.9314C79.6992 9.9314 80.1992 11.0314 80.1992 12.2314V14.1314ZM78.8992 12.8314C77.8992 12.8314 76.9992 13.0314 76.9992 13.8314C76.9992 14.3314 77.2992 14.6314 77.7992 14.6314C78.3992 14.6314 78.6992 14.2314 78.8992 13.9314C78.8992 13.8314 78.8992 13.7314 78.8992 13.6314V12.8314Z"
    fill="#F2F2F2"
  />
  <path
    d="M82.1 7.63147H83.5V10.8315C83.8 10.3315 84.4 9.93147 85.2 9.93147C86.5 9.93147 87.5 11.0315 87.4 12.6315C87.4 14.5315 86.2 15.5315 85 15.5315C84.3 15.5315 83.7 15.2315 83.3 14.6315L83.2 15.4315H82C82 15.0315 82 14.4315 82 13.9315V7.63147H82.1ZM83.5 13.2315C83.5 13.3315 83.5 13.4315 83.5 13.5315C83.6 14.1315 84.1 14.4315 84.7 14.4315C85.5 14.4315 86.1 13.7315 86.1 12.6315C86.1 11.7315 85.6 10.9315 84.7 10.9315C84.1 10.9315 83.6 11.3315 83.5 11.9315C83.5 12.0315 83.5 12.1315 83.5 12.3315V13.2315Z"
    fill="#F2F2F2"
  />
  <path d="M89 7.63147H90.4V15.4315H89V7.63147Z" fill="#F2F2F2" />
  <path
    d="M93.3 13.1314C93.3 14.1314 94.1 14.5314 95 14.5314C95.6 14.5314 96.1 14.4314 96.5 14.3314L96.7 15.2314C96.2 15.4314 95.6 15.5314 94.8 15.5314C93.1 15.5314 92 14.4314 92 12.8314C92 11.3314 92.9 9.9314 94.6 9.9314C96.3 9.9314 96.9 11.3314 96.9 12.5314C96.9 12.8314 96.9 13.0314 96.9 13.1314H93.3ZM95.7 12.2314C95.7 11.7314 95.5 10.9314 94.6 10.9314C93.8 10.9314 93.4 11.7314 93.4 12.2314H95.7Z"
    fill="#F2F2F2"
  />
  <path
    d="M103.6 15.5315C102.1 15.5315 100.9 14.5315 100.9 12.7315C100.9 10.9315 102.1 9.93152 103.7 9.93152C105.3 9.93152 106.4 11.0315 106.4 12.7315C106.4 14.7315 105 15.5315 103.6 15.5315ZM103.7 14.6315C104.5 14.6315 105 13.9315 105 12.8315C105 12.0315 104.6 11.0315 103.7 11.0315C102.7 11.0315 102.4 11.9315 102.4 12.8315C102.4 13.8315 102.9 14.6315 103.7 14.6315Z"
    fill="#F2F2F2"
  />
  <path
    d="M108 11.7315C108 11.1315 108 10.6315 108 10.1315H109.2L109.3 10.9315C109.5 10.5315 110.1 10.0315 111 10.0315C111.9 10.0315 112.9 10.6315 112.9 12.3315V15.5315H111.5V12.5315C111.5 11.7315 111.2 11.1315 110.5 11.1315C110 11.1315 109.6 11.5315 109.4 11.9315C109.4 12.0315 109.3 12.2315 109.3 12.3315V15.5315H107.9V11.7315H108Z"
    fill="#F2F2F2"
  />
  <path
    d="M119.1 8.73145V10.1314H120.4V11.1314H119.1V13.5314C119.1 14.2314 119.3 14.5314 119.8 14.5314C120 14.5314 120.2 14.5314 120.3 14.4314V15.4314C120.1 15.5314 119.7 15.5314 119.3 15.5314C118.8 15.5314 118.4 15.3314 118.1 15.1314C117.8 14.8314 117.7 14.3314 117.7 13.6314V11.1314H116.9V10.1314H117.7V9.13144L119.1 8.73145Z"
    fill="#F2F2F2"
  />
  <path
    d="M121.899 7.63147H123.299V10.8315C123.499 10.5315 123.699 10.3315 123.999 10.2315C124.299 10.0315 124.599 10.0315 124.899 10.0315C125.799 10.0315 126.799 10.6315 126.799 12.3315V15.5315H125.399V12.5315C125.399 11.7315 125.099 11.1315 124.399 11.1315C123.899 11.1315 123.499 11.5315 123.299 11.9315C123.299 12.0315 123.199 12.2315 123.199 12.3315V15.5315H121.799V7.63147H121.899Z"
    fill="#F2F2F2"
  />
  <path
    d="M129.7 13.1315C129.7 14.1315 130.5 14.5315 131.4 14.5315C132 14.5315 132.5 14.4315 132.9 14.3315L133.1 15.2315C132.6 15.4315 132 15.5315 131.2 15.5315C129.5 15.5315 128.4 14.4315 128.4 12.8315C128.4 11.3315 129.3 9.93152 131 9.93152C132.7 9.93152 133.3 11.3315 133.3 12.5315C133.3 12.8315 133.3 13.0315 133.3 13.1315H129.7ZM132 12.2315C132 11.7315 131.8 10.9315 130.9 10.9315C130.1 10.9315 129.7 11.7315 129.7 12.2315H132Z"
    fill="#F2F2F2"
  />
  <path
    d="M34.7017 22.6316C34.7017 18.9316 37.7017 17.1316 37.9017 17.0316C36.2017 14.5316 33.5017 14.1316 32.6017 14.1316C30.4017 13.9316 28.2017 15.4316 27.0017 15.4316C25.8017 15.4316 24.1017 14.1316 22.2017 14.1316C19.8017 14.1316 17.5017 15.6316 16.2017 17.8316C13.6017 22.3316 15.5017 28.9316 18.0017 32.5316C19.2017 34.3316 20.7017 36.3316 22.6017 36.2316C24.5017 36.1316 25.1017 35.0316 27.4017 35.0316C29.6017 35.0316 30.3017 36.2316 32.2017 36.1316C34.2017 36.1316 35.4017 34.3316 36.6017 32.5316C38.0017 30.5316 38.6017 28.5316 38.6017 28.4316C38.6017 28.5316 34.8017 27.1316 34.7017 22.6316Z"
    fill="#F2F2F2"
  />
  <path
    d="M31.1005 11.8316C32.1005 10.6316 32.8005 8.93159 32.6005 7.13159C31.2005 7.23159 29.4005 8.13159 28.3005 9.33159C27.4005 10.4316 26.6005 12.1316 26.8005 13.8316C28.4005 14.0316 30.0005 13.0316 31.1005 11.8316Z"
    fill="#F2F2F2"
  />
  <path
    d="M61.5031 36.0317H58.9031L57.5031 31.5317H52.6031L51.2031 36.0317H48.7031L53.6031 20.8317H56.6031L61.5031 36.0317ZM57.1031 29.7317L55.8031 25.7317C55.7031 25.3317 55.4031 24.3317 55.0031 22.8317C54.8031 23.4317 54.6031 24.4317 54.3031 25.7317L53.0031 29.7317H57.1031Z"
    fill="#F2F2F2"
  />
  <path
    d="M74.1031 30.4317C74.1031 32.3317 73.6031 33.7317 72.6031 34.8317C71.7031 35.8317 70.6031 36.2317 69.3031 36.2317C67.9031 36.2317 66.8031 35.7317 66.2031 34.6317V40.4317H63.8031V28.7317C63.8031 27.5317 63.8031 26.3317 63.7031 25.1317H65.8031L65.9031 26.8317C66.7031 25.5317 67.9031 24.8317 69.6031 24.8317C70.9031 24.8317 72.0031 25.3317 72.8031 26.3317C73.7031 27.4317 74.1031 28.7317 74.1031 30.4317ZM71.6031 30.5317C71.6031 29.4317 71.4031 28.6317 70.9031 27.9317C70.4031 27.2317 69.7031 26.8317 68.8031 26.8317C68.2031 26.8317 67.7031 27.0317 67.2031 27.4317C66.7031 27.8317 66.4031 28.3317 66.2031 29.0317C66.1031 29.3317 66.1031 29.5317 66.1031 29.7317V31.5317C66.1031 32.3317 66.3031 33.0317 66.8031 33.5317C67.3031 34.0317 67.9031 34.3317 68.7031 34.3317C69.6031 34.3317 70.3031 34.0317 70.8031 33.2317C71.4031 32.6317 71.6031 31.6317 71.6031 30.5317Z"
    fill="#F2F2F2"
  />
  <path
    d="M86.7027 30.4315C86.7027 32.3315 86.2027 33.7315 85.2027 34.8315C84.3027 35.8315 83.2027 36.2315 81.9027 36.2315C80.5027 36.2315 79.4027 35.7315 78.8027 34.6315V40.4315H76.4027V28.7315C76.4027 27.5315 76.4027 26.3315 76.3027 25.1315H78.4027L78.5027 26.8315C79.3027 25.5315 80.5027 24.8315 82.2027 24.8315C83.5027 24.8315 84.6027 25.3315 85.4027 26.3315C86.2027 27.4315 86.7027 28.7315 86.7027 30.4315ZM84.2027 30.5315C84.2027 29.4315 84.0027 28.6315 83.5027 27.9315C83.0027 27.2315 82.3027 26.8315 81.4027 26.8315C80.8027 26.8315 80.3027 27.0315 79.8027 27.4315C79.3027 27.8315 79.0027 28.3315 78.8027 29.0315C78.7027 29.3315 78.7027 29.5315 78.7027 29.7315V31.5315C78.7027 32.3315 78.9027 33.0315 79.4027 33.5315C79.9027 34.0315 80.5027 34.3315 81.3027 34.3315C82.2027 34.3315 82.9027 34.0315 83.4027 33.2315C83.9027 32.6315 84.2027 31.6315 84.2027 30.5315Z"
    fill="#F2F2F2"
  />
  <path
    d="M100.702 31.7316C100.702 33.0316 100.302 34.0316 99.4023 34.8316C98.4023 35.7316 97.0023 36.1316 95.3023 36.1316C93.7023 36.1316 92.4023 35.8316 91.4023 35.2316L92.0023 33.2316C93.1023 33.8316 94.2023 34.2316 95.5023 34.2316C96.4023 34.2316 97.1023 34.0316 97.6023 33.6316C98.1023 33.2316 98.4023 32.6316 98.4023 31.9316C98.4023 31.3316 98.2023 30.8316 97.8023 30.3316C97.4023 29.9316 96.7023 29.5316 95.7023 29.1316C93.0023 28.1316 91.7023 26.7316 91.7023 24.8316C91.7023 23.6316 92.2023 22.5316 93.1023 21.7316C94.0023 20.9316 95.3023 20.5316 96.8023 20.5316C98.2023 20.5316 99.3023 20.7316 100.202 21.2316L99.6023 23.2316C98.7023 22.7316 97.8023 22.5316 96.7023 22.5316C95.8023 22.5316 95.2023 22.7316 94.7023 23.1316C94.3023 23.5316 94.1023 23.9316 94.1023 24.5316C94.1023 25.1316 94.3023 25.6316 94.8023 26.0316C95.2023 26.4316 95.9023 26.7316 97.0023 27.2316C98.3023 27.7316 99.3023 28.3316 99.9023 29.0316C100.402 29.8316 100.702 30.7316 100.702 31.7316Z"
    fill="#F2F2F2"
  />
  <path
    d="M108.704 26.9316H106.004V32.2316C106.004 33.5316 106.504 34.2316 107.404 34.2316C107.804 34.2316 108.204 34.2316 108.504 34.1316L108.604 35.9316C108.104 36.1316 107.504 36.2316 106.704 36.2316C105.704 36.2316 105.004 35.9316 104.504 35.3316C104.004 34.7316 103.704 33.7316 103.704 32.4316V26.9316H102.104V25.1316H103.704V23.1316L106.104 22.4316V25.1316H108.804V26.9316H108.704Z"
    fill="#F2F2F2"
  />
  <path
    d="M120.803 30.4317C120.803 32.1317 120.303 33.5317 119.403 34.5317C118.403 35.6317 117.103 36.2317 115.403 36.2317C113.803 36.2317 112.503 35.7317 111.603 34.6317C110.603 33.5317 110.203 32.2317 110.203 30.6317C110.203 28.9317 110.703 27.5317 111.703 26.4317C112.703 25.3317 114.003 24.8317 115.703 24.8317C117.303 24.8317 118.603 25.3317 119.603 26.4317C120.303 27.5317 120.803 28.8317 120.803 30.4317ZM118.303 30.5317C118.303 29.5317 118.103 28.6317 117.603 27.9317C117.103 27.0317 116.403 26.6317 115.403 26.6317C114.403 26.6317 113.703 27.0317 113.203 27.9317C112.803 28.6317 112.603 29.5317 112.603 30.5317C112.603 31.5317 112.803 32.4317 113.203 33.1317C113.703 34.0317 114.503 34.4317 115.403 34.4317C116.303 34.4317 117.103 34.0317 117.603 33.1317C118.103 32.4317 118.303 31.5317 118.303 30.5317Z"
    fill="#F2F2F2"
  />
  <path
    d="M128.703 27.2316C128.503 27.2316 128.203 27.1316 127.903 27.1316C127.003 27.1316 126.403 27.4316 125.903 28.1316C125.503 28.7316 125.303 29.4316 125.303 30.3316V36.0316H122.903V28.5316C122.903 27.2316 122.903 26.1316 122.803 25.1316H124.903L125.003 27.2316H125.103C125.403 26.5316 125.803 25.9316 126.303 25.5316C126.803 25.1316 127.403 24.9316 128.103 24.9316C128.303 24.9316 128.503 24.9316 128.703 24.9316V27.2316Z"
    fill="#F2F2F2"
  />
  <path
    d="M139.602 30.0316C139.602 30.4316 139.602 30.8316 139.502 31.1316H132.202C132.202 32.2316 132.602 33.0316 133.302 33.6316C133.902 34.1316 134.702 34.4316 135.702 34.4316C136.802 34.4316 137.802 34.2316 138.602 33.9316L139.002 35.6316C138.002 36.0316 136.702 36.3316 135.302 36.3316C133.602 36.3316 132.302 35.8316 131.302 34.8316C130.302 33.8316 129.902 32.5316 129.902 30.8316C129.902 29.2316 130.302 27.8316 131.302 26.7316C132.202 25.5316 133.502 24.9316 135.102 24.9316C136.702 24.9316 137.902 25.5316 138.702 26.7316C139.202 27.5316 139.602 28.6316 139.602 30.0316ZM137.202 29.4316C137.202 28.7316 137.102 28.1316 136.702 27.5316C136.302 26.8316 135.602 26.5316 134.802 26.5316C134.002 26.5316 133.402 26.8316 132.902 27.5316C132.502 28.0316 132.302 28.7316 132.202 29.4316H137.202Z"
    fill="#F2F2F2"
  />
</svg>
