<svg viewBox="0 0 67 41" fill="none" xmlns="http://www.w3.org/2000/svg">
  <g clip-path="url(#clip0_822_7635)">
    <path
      d="M21.2607 0.904593C22.305 0.904593 23.1868 0.904593 24.0686 0.904593C25.0432 0.904593 25.0896 1.70061 25.2521 2.37956C26.2731 6.38303 27.2709 10.3865 28.2688 14.3666C28.4312 15.0455 28.6169 15.7245 28.9882 16.4268C29.3594 14.8348 29.7539 13.2194 30.1252 11.6273C30.8446 8.56035 31.5872 5.49337 32.2369 2.40297C32.4922 1.23236 33.0491 0.693884 34.2326 0.881181C34.4646 0.904593 34.6967 0.904593 34.9287 0.881181C36.089 0.693884 36.5763 1.25578 36.8316 2.35614C37.8062 6.75762 38.8505 11.1591 39.8715 15.5372C39.9411 15.8649 40.0339 16.2161 40.3124 16.5907C40.7765 14.788 41.2638 12.9852 41.7279 11.2059C42.4705 8.30282 43.2595 5.42313 43.9324 2.49662C44.2109 1.3026 44.6982 0.810945 45.9745 0.857769C48.179 0.951418 48.179 0.881181 47.5061 3.0351C45.8353 8.41988 44.1413 13.8047 42.5401 19.2129C42.2152 20.3132 41.6583 20.7815 40.5677 20.641C40.3356 20.6176 40.1035 20.6176 39.8715 20.641C38.6184 20.8283 38.0847 20.2664 37.8294 19.049C36.878 14.7646 35.8338 10.4801 34.8127 6.21914C34.7431 5.98502 34.6503 5.7509 34.4646 5.25925C33.374 9.91826 32.3529 14.2963 31.2855 18.6744C31.123 19.3299 30.8678 20.3601 30.4733 20.4537C29.4523 20.7112 28.3384 20.5942 27.2709 20.5005C27.0389 20.4771 26.7836 19.9386 26.6908 19.5875C24.904 13.7578 23.1404 7.92823 21.4 2.12202C21.3072 1.79425 21.3304 1.44307 21.2607 0.904593Z"
      fill="#252F3E"
    />
    <path
      d="M33.9311 40.4242C22.398 40.2603 12.002 36.7719 2.92866 29.5142C2.34853 29.0459 1.76839 28.6011 1.25787 28.0626C1.00261 27.8051 0.863378 27.3837 0.677734 27.0325C1.04902 27.0793 1.46672 27.0793 1.79159 27.2198C5.6437 28.9289 9.40298 30.8486 13.3247 32.3236C18.0586 34.1029 23.0478 34.9692 28.0833 35.4842C38.7114 36.5612 48.8986 34.8521 58.7841 30.9423C59.0394 30.8486 59.2947 30.6379 59.5267 30.6379C59.9444 30.6613 60.3389 30.8486 60.7566 30.9657C60.6174 31.3169 60.5709 31.8554 60.3157 32.0192C58.1112 33.3772 55.9531 34.8521 53.6325 35.9291C48.1096 38.481 42.3083 39.9091 36.2052 40.1901C35.4627 40.2135 34.6969 40.354 33.9311 40.4242Z"
      fill="#FF9900"
    />
    <path
      d="M15.9004 18.4871C14.2528 19.3299 12.7213 20.3132 11.0505 20.8751C10.0062 21.2263 8.72993 21.1326 7.61607 20.9453C5.08667 20.5473 3.41588 18.6041 3.23024 16.0756C2.99819 12.8448 4.3441 10.5738 7.12875 9.54364C9.63494 8.60716 12.1411 8.98175 14.6705 9.47341C14.8562 9.52023 15.0418 9.54364 15.2274 9.56706C15.2739 9.56706 15.2971 9.54364 15.6451 9.45C15.4595 8.11551 15.3667 6.68737 15.0186 5.32946C14.7401 4.20568 13.7191 3.76085 12.6516 3.50332C10.3543 2.96484 8.21941 3.59697 6.08451 4.29933C5.59719 4.46322 4.87783 4.60369 4.55295 4.36957C4.06564 3.99497 4.46013 2.12201 5.01706 1.86447C8.56749 0.1788 12.2339 -0.38309 15.9004 1.23235C18.2442 2.26248 18.9171 4.46322 19.0099 6.82784C19.1028 9.12223 19.0563 11.4166 19.0331 13.7344C19.0099 15.3498 19.2188 16.895 19.9614 18.37C20.1238 18.6744 19.8685 19.2363 19.7061 19.6343C19.6133 19.845 19.2884 19.962 19.0563 20.1025C17.78 20.9688 17.4088 20.8985 16.5734 19.5874C16.2485 19.166 15.9932 18.6744 15.9004 18.4871ZM10.2383 18.2764C13.6263 18.2529 15.7612 16.0522 15.5291 12.7745C15.5059 12.4936 15.181 12.0019 14.9722 11.9785C13.1854 11.838 11.3521 11.6039 9.58853 11.7678C7.73209 11.9551 6.75746 13.6408 6.98952 15.6776C7.17516 17.3399 8.33543 18.2764 10.2383 18.2764Z"
      fill="#252F3E"
    />
    <path
      d="M55.4655 21.2964C54.4445 21.0389 52.6113 20.6643 50.8244 20.1024C49.757 19.7746 49.2001 18.2762 49.757 17.3163C49.873 17.1056 50.6388 17.0588 51.0101 17.2227C52.8665 17.9953 54.7926 18.3933 56.7882 18.2294C57.6468 18.1592 58.575 17.9485 59.3176 17.527C61.0812 16.5437 61.0812 14.1791 59.248 13.3129C57.6932 12.5637 55.9528 12.2359 54.3749 11.4867C53.145 10.9014 51.7991 10.2459 50.9869 9.21574C48.6663 6.28923 50.0355 2.30917 53.7019 0.904446C56.4866 -0.172511 59.248 0.155258 61.963 1.23222C62.9841 1.63022 63.425 2.84765 63.0537 3.87778C62.7752 4.65038 62.2415 4.32261 61.8238 4.1119C60.153 3.36272 58.4126 3.10518 56.6258 3.26907C55.976 3.31589 55.3031 3.47978 54.7462 3.76072C53.1914 4.53332 53.0057 6.617 54.3981 7.62372C55.1639 8.18561 56.1153 8.51338 56.9971 8.84115C58.227 9.30939 59.5033 9.61375 60.7332 10.1054C62.5896 10.8312 63.8659 12.1188 64.0979 14.2025C64.3764 16.4969 63.6106 18.3465 61.731 19.7044C60.1066 20.8516 58.2502 21.1793 55.4655 21.2964Z"
      fill="#252F3E"
    />
    <path
      d="M61.7777 37.3336C62.149 36.3035 62.6131 35.2734 62.8916 34.2198C63.2861 32.7214 63.6342 31.2231 63.9126 29.7013C64.0983 28.6946 63.4717 28.0624 62.5667 28.039C60.3854 27.9688 58.2041 28.0624 55.9996 28.1093C55.6051 28.1093 55.1874 28.1795 54.4912 28.2497C54.8393 27.8283 54.9553 27.5474 55.141 27.4537C56.6725 26.845 58.1809 26.0022 59.782 25.768C61.6153 25.5105 63.5413 25.768 65.421 25.9085C66.3492 25.9788 66.8133 26.5641 66.7669 27.5942C66.5348 31.1294 65.3978 34.2666 62.9844 36.8888C62.7291 37.1463 62.4275 37.357 62.149 37.5912C61.9866 37.4975 61.8937 37.4039 61.7777 37.3336Z"
      fill="#FF9900"
    />
  </g>
  <defs>
    <clipPath id="clip0_822_7635">
      <rect
        width="66.0659"
        height="40.1752"
        fill="white"
        transform="translate(0.677734 0.249023)"
      />
    </clipPath>
  </defs>
</svg>
