<svg viewBox="0 0 1920 503" fill="none" xmlns="http://www.w3.org/2000/svg">
  <g opacity="0.4">
    <path
      d="M-952.85 231.488L-947.12 231.619C-707.514 237.083 -209.091 248.45 -24.5317 205.525C152.369 164.382 246.94 0 376.031 0C582.956 0 655.096 206.609 846.834 206.609C1000.6 206.609 1087.93 25.9612 1239.8 25.9612C1462.51 25.9612 1456 233.21 2236.81 224.661C2359.7 220.487 2461.34 217.22 2494.65 215.261C2400.22 220.816 2314.61 223.809 2236.81 224.661C1997.81 232.779 1678.45 244.33 1625.18 256.368C1515.07 281.247 1425.85 337.497 1291.06 337.497C1163.87 337.497 1030.98 256.368 907.583 256.368C702.556 256.368 615.229 503 421.592 503C227.956 503 123.543 306.126 -45.4141 284.491C-166.539 268.982 -859.195 237.618 -952.85 231.488Z"
      fill="#0157CB"
      fill-opacity="0.7"
    />
    <path
      d="M-294.109 195.789C-388.745 226.23 -772.506 230.404 -954.752 231.486C-732.639 245.188 -394.724 255.284 -157.424 286.654C-27.5783 303.819 106.454 422.95 245.037 422.95C383.62 422.95 543.086 286.654 624.717 286.654C706.348 286.654 765.199 348.312 879.103 348.312C993.007 348.312 1118.3 257.447 1287.26 257.447C1361.3 257.447 1450.52 327.759 1570.12 327.759C1670.74 327.759 1723.89 289.899 1834 267.183C1944.11 244.466 2354.16 220.308 2544 215.26C2397.82 216.342 2062.88 223.264 1900.44 220.669C1697.31 217.423 1661.24 168.746 1570.12 168.746C1433.44 168.746 1463.81 208.77 1287.26 208.77C1186.64 208.77 1142.98 144.948 1061.35 144.948C989.21 144.948 977.819 170.909 899.985 163.337C830.746 156.602 774.691 103.843 677.872 103.843C531.695 103.843 478.54 186.054 345.652 186.054C212.764 186.054 104.555 103.843 5.83856 103.843C-121.354 103.843 -176.408 157.929 -294.109 195.789Z"
      fill="#86B9FF"
      fill-opacity="0.2"
    />
    <path
      d="M-912.88 230.408L-912.987 230.406L-914.377 230.406C-951.436 230.404 -1042.17 230.397 -721.25 246.632C-559.911 254.794 -370.644 293.574 -275.126 324.516C-130.124 371.487 -75.7937 414.299 41.9078 414.299C301.988 414.299 271.614 297.473 497.524 297.473C584.85 297.473 664.582 373.193 890.492 373.193C1116.4 373.193 1177.15 249.877 1289.16 249.877C1401.16 249.877 1454.32 388.025 1570.12 388.025C1695.41 388.025 1727.69 322.04 1913.73 278.772C2097.67 235.992 2349.73 217.786 2544 215.262C2528.81 214.541 2454.77 212.882 2280.12 212.017C2061.81 210.935 1951.7 95.1913 1752.37 95.1913C1553.03 95.1913 1473.3 229.325 1289.16 229.325C1105.01 229.325 917.07 36.7784 818.353 36.7784C719.636 36.7784 586.748 168.748 497.524 168.748C408.299 168.748 343.753 23.7977 243.138 23.7977C142.523 23.7977 66.5863 153.604 -115.66 205.527C-242.833 241.759 -678.718 234.375 -912.88 230.408Z"
      fill="#609FFF"
      fill-opacity="0.3"
    />
  </g>
</svg>
