<svg viewBox="0 0 40 40" fill="none" xmlns="http://www.w3.org/2000/svg">
  <path
    d="M19.8712 33C24.6196 33 29 29.688 29 23.82C29 18.024 25.2822 15.396 20.7546 15.396C19.2822 15.396 18.2147 15.756 17.0368 16.332L17.6626 9.528H27.7117V6H13.9816L13.1718 18.6L15.2331 19.932C16.816 18.924 17.8466 18.42 19.5767 18.42C22.6687 18.42 24.7301 20.436 24.7301 23.964C24.7301 27.492 22.411 29.616 19.3558 29.616C16.5215 29.616 14.5706 28.284 13.0245 26.772L11 29.472C12.9141 31.308 15.6012 33 19.8712 33Z"
  />
</svg>
