<svg viewBox="0 0 40 41" fill="none" xmlns="http://www.w3.org/2000/svg">
  <path
    d="M8.77075 13.1062L2.21875 30.2422H5.21875L6.77875 25.9462H13.9548L15.5148 30.2422H18.5148L11.9628 13.1062H8.77075ZM7.61875 23.6422L10.3308 16.1302H10.4268L13.1148 23.6422H7.61875ZM20.1878 13.1062V30.2422H26.4518C29.2358 30.2422 31.3238 29.4742 32.7638 27.9382C34.1318 26.4742 34.8278 24.3862 34.8278 21.6742C34.8278 18.9382 34.1318 16.8502 32.7638 15.4102C31.3238 13.8742 29.2358 13.1062 26.4518 13.1062H20.1878ZM22.9958 15.5062H25.9238C28.0598 15.5062 29.6198 15.9862 30.6038 16.9702C31.5638 17.9302 32.0438 19.5142 32.0438 21.6742C32.0438 23.7862 31.5638 25.3462 30.6038 26.3542C29.6198 27.3382 28.0598 27.8422 25.9238 27.8422H22.9958V15.5062Z"
    fill="currentColor"
  />
  <rect
    x="-0.705878"
    y="0.012887"
    width="3.34296"
    height="38.0891"
    transform="matrix(0.692951 -0.720985 0.718806 0.695211 7.7574 7.42518)"
    fill="currentColor"
    stroke="#F6F6F6"
  />
</svg>
