<svg viewBox="0 0 40 40" fill="none" xmlns="http://www.w3.org/2000/svg">
  <path
    fill-rule="evenodd"
    clip-rule="evenodd"
    d="M11 26L11 29L5 29L5 26L11 26ZM35 26L20 26L20 24.5C20 22.8431 18.6569 21.5 17 21.5L15.5 21.5C13.8431 21.5 12.5 22.8431 12.5 24.5L12.5 30.5C12.5 32.1569 13.8431 33.5 15.5 33.5L17 33.5C18.6569 33.5 20 32.1569 20 30.5L20 29L35 29L35 26ZM35 11L27.5 11L27.5 9.5C27.5 7.84314 26.1569 6.5 24.5 6.5L23 6.5C21.3431 6.5 20 7.84314 20 9.5L20 15.5C20 17.1569 21.3431 18.5 23 18.5L24.5 18.5C26.1569 18.5 27.5 17.1569 27.5 15.5L27.5 14L35 14L35 11ZM18.5 14L18.5 11L5 11L5 14L18.5 14ZM15.5 30.5L17 30.5L17 24.5L15.5 24.5L15.5 30.5ZM24.5 15.5L23 15.5L23 9.5L24.5 9.5L24.5 15.5Z"
  />
</svg>
