<svg viewBox="0 0 40 40" fill="none" xmlns="http://www.w3.org/2000/svg">
  <path
    fill-rule="evenodd"
    clip-rule="evenodd"
    d="M12.0517 14.5364L3.4707 6.01502L5.65397 3.84693L36.53 34.5083L34.3467 36.6764L30.3901 32.7473L31.1246 37L20 31.1921L8.87539 37L11 24.6987L2 15.9868L12.0517 14.5364ZM26.6084 28.9919L27.0235 31.395L19.9996 27.7281L12.9758 31.395L14.3172 23.6282L8.63477 18.1277L14.7759 17.2416L26.6084 28.9919ZM31.3645 18.1277L27.8159 21.5627L29.9995 23.7311L38 15.9868L25.5623 14.1921L20 3L16.4058 10.2319L18.711 12.5211L19.9996 9.92809L23.5116 16.9946L31.3645 18.1277Z"
  />
</svg>
