<svg viewBox="0 0 20 20" fill="none" xmlns="http://www.w3.org/2000/svg">
  <path
    fill-rule="evenodd"
    clip-rule="evenodd"
    d="M10 20C15.5228 20 20 15.5228 20 10C20 4.47715 15.5228 0 10 0C4.47715 0 0 4.47715 0 10C0 15.5228 4.47715 20 10 20ZM16.5472 6.51296C16.8305 6.21077 16.8151 5.73615 16.513 5.45285C16.2108 5.16955 15.7361 5.18486 15.4528 5.48704L8.48262 12.922L5.53033 9.96967C5.23744 9.67678 4.76256 9.67678 4.46967 9.96967C4.17678 10.2626 4.17678 10.7374 4.46967 11.0303L7.96967 14.5303C8.11329 14.6739 8.30901 14.7532 8.51209 14.7499C8.71517 14.7466 8.90824 14.6611 9.04715 14.513L16.5472 6.51296Z"
    fill="#60A0FF"
  />
</svg>
