<svg viewBox="0 0 24 24" fill="none" xmlns="http://www.w3.org/2000/svg">
  <path
    d="M6.0003 6.13717L5.99999 6.1369L5.99338 6.14581C5.78107 6.43195 5.80451 6.83779 6.064 7.09729C6.064 7.09729 6.064 7.09729 6.064 7.09729L10.9665 12L6.064 16.9027C5.77867 17.1881 5.77867 17.6506 6.064 17.936L6.1694 17.8306L6.064 17.936C6.34933 18.2213 6.81196 18.2213 7.09729 17.936L12 13.0335L16.9027 17.936L16.9025 17.9363L16.9108 17.9435L16.9759 17.9997L16.9756 18L16.9845 18.0066C17.2707 18.2189 17.6766 18.1955 17.936 17.936L17.9363 17.9362L17.9435 17.9279L17.9997 17.8628L18 17.8631L18.0066 17.8542C18.2189 17.5681 18.1955 17.1622 17.936 16.9027C17.936 16.9027 17.936 16.9027 17.936 16.9027L13.0335 12L17.936 7.09729C18.2213 6.81196 18.2213 6.34933 17.936 6.064L17.8306 6.1694L17.936 6.064C17.6506 5.77867 17.1881 5.77867 16.9027 6.064L12 10.9665L7.09729 6.064L7.09757 6.06371L7.08924 6.05652L7.02412 6.0003L7.02439 5.99999L7.01548 5.99338C6.72934 5.78107 6.32349 5.80451 6.064 6.064L6.06372 6.06372L6.05652 6.07205L6.0003 6.13717Z"
    fill="currentColor"
    stroke="currentColor"
    stroke-width="0.3"
  />
</svg>
