<svg viewBox="0 0 65 38" fill="none" xmlns="http://www.w3.org/2000/svg">
  <g clip-path="url(#clip0_709_7617)">
    <path
      d="M55.5672 20.6422C54.0989 20.6628 52.6404 20.5396 51.2411 20.0878C49.5166 19.5231 48.1074 18.4655 47.1121 16.874C45.3974 14.1531 45.1116 11.155 45.6241 8.02335C45.9493 6.01089 46.8066 4.27567 48.2355 2.869C49.7334 1.39047 51.5466 0.671733 53.5569 0.486916C55.4391 0.322634 57.3213 0.302099 59.1936 0.682001C61.8641 1.21592 63.4605 2.94088 64.2588 5.57965C64.377 5.99036 64.1306 5.98009 63.9139 6.01089C62.5441 6.26758 61.1743 6.50374 59.7947 6.76043C59.637 6.79123 59.4695 6.82204 59.3118 6.86311C58.9177 6.96578 58.6812 6.88364 58.4742 6.43187C58.0012 5.4051 57.1537 4.85065 56.0697 4.73771C54.6803 4.5837 53.4189 4.89172 52.4433 6.00063C51.7141 6.8323 51.4382 7.86933 51.3199 8.94743C51.1721 10.3233 51.2017 11.6992 51.517 13.0647C51.9506 14.9951 53.3302 16.2272 55.242 16.3093C56.5033 16.3709 57.5676 16.0116 58.3363 14.9232C58.3757 14.8718 58.4249 14.8205 58.4545 14.7589C58.7994 14.071 58.7994 14.071 59.5385 14.2147C61.0068 14.4919 62.4751 14.7794 63.9434 15.0259C64.308 15.0875 64.3277 15.2415 64.2292 15.5392C63.4901 17.7981 62.1893 19.4615 59.9031 20.1597C58.4841 20.6012 57.0256 20.5909 55.5672 20.6422Z"
      fill="black"
      fill-opacity="0.2"
    />
    <path
      d="M0.0177557 10.5183C0.0177557 7.38671 0.0177557 4.25509 0.0177557 1.12346C0.0177557 0.456068 0.0177557 0.456068 0.668146 0.456068C5.96982 0.456068 11.2715 0.456068 16.583 0.445801C16.9673 0.445801 17.125 0.57928 17.1152 0.959182C17.1053 2.08862 17.0166 3.21806 17.125 4.33723C17.1546 4.62472 17.0166 4.73766 16.7505 4.73766C15.8833 4.7274 15.0063 4.7582 14.1391 4.7274C13.676 4.71713 13.3409 4.33723 12.9664 4.12161C10.2466 2.59173 6.37385 3.42341 4.45224 6.16486C2.64888 8.7523 2.4715 11.771 4.12704 14.4508C5.39826 16.5146 7.30016 17.5517 9.63566 17.6749C11.2912 17.7673 12.7989 17.2847 14.0898 16.1655C14.218 16.0526 14.3658 16.0526 14.5037 16.0526C15.2231 16.0423 15.9523 16.0526 16.6717 16.032C17.0068 16.0218 17.1349 16.145 17.125 16.5146C17.1053 17.7159 17.0954 18.907 17.125 20.1083C17.1349 20.5087 16.9969 20.6114 16.652 20.6114C14.7994 20.6011 12.9369 20.6114 11.0843 20.6114C7.56623 20.6114 4.05806 20.6114 0.540039 20.6217C0.185281 20.6217 -0.00195312 20.5293 -0.00195312 20.098C0.0177557 16.9253 0.0177557 13.7218 0.0177557 10.5183Z"
      fill="black"
      fill-opacity="0.2"
    />
    <path
      d="M7.97038 32.8505C8.93611 33.9799 10.0792 34.5652 11.2815 35.0478C12.1684 35.4071 12.1684 35.3969 11.7545 36.2696C11.6362 36.516 11.5377 36.5777 11.2815 36.4647C9.55693 35.6844 7.95067 34.75 6.87654 33.0661C6.84697 33.0251 6.80755 33.0045 6.77799 32.9634C6.61047 33.0251 6.67945 33.1585 6.67945 33.2715C6.67945 34.3496 6.64988 35.4277 6.67945 36.5058C6.6893 36.9062 6.57105 36.9884 6.20644 36.9781C5.41808 36.9576 5.41808 36.9781 5.41808 36.1259C5.41808 35.0888 5.41808 34.0415 5.41808 33.0251C5.27027 32.9532 5.2407 33.0559 5.20129 33.1175C4.16657 34.7808 2.57016 35.6844 0.924475 36.5263C0.737241 36.6187 0.638697 36.5777 0.520444 36.4031C-0.0511115 35.592 -0.0609658 35.592 0.825931 35.1915C1.68326 34.8014 2.52089 34.3701 3.25011 33.7438C3.52604 33.5076 3.80196 33.2715 4.05818 32.8402C3.43735 32.8402 2.87565 32.8402 2.31395 32.8402C1.31865 32.8402 1.31865 32.8402 1.31865 31.7929C1.31865 30.5608 1.32851 29.3287 1.3088 28.0966C1.29894 27.7578 1.39749 27.6551 1.72268 27.6551C2.82638 27.6756 3.92021 27.6551 5.02391 27.6654C5.31954 27.6654 5.41808 27.5832 5.41808 27.2649C5.40823 26.9672 5.33925 26.8439 5.03376 26.8439C3.60487 26.8542 2.17598 26.8337 0.747095 26.8645C0.352919 26.8748 0.234666 26.7618 0.254375 26.3614C0.283938 25.6632 0.254375 25.6632 0.934329 25.6632C2.26467 25.6632 3.59502 25.6529 4.92536 25.6734C5.31954 25.6837 5.44765 25.5605 5.41808 25.1601C5.40823 24.9855 5.28012 24.6775 5.54619 24.6364C5.8911 24.5851 6.26556 24.5337 6.61047 24.6775C6.72872 24.7288 6.67945 24.9342 6.65974 25.0574C6.5809 25.5708 6.7977 25.6734 7.26086 25.6632C8.62077 25.6324 9.99053 25.6734 11.3504 25.6426C11.7348 25.6324 11.853 25.7556 11.7939 26.1252C11.7742 26.2382 11.7742 26.3614 11.7939 26.4846C11.8333 26.7823 11.7052 26.8542 11.4293 26.8542C9.98067 26.8439 8.54193 26.8542 7.09333 26.8439C6.73857 26.8439 6.64988 26.9569 6.65974 27.3163C6.65974 27.6346 6.78785 27.6756 7.04406 27.6654C8.15761 27.6551 9.28101 27.6859 10.3946 27.6551C10.8183 27.6448 10.907 27.7886 10.8971 28.1993C10.8676 29.5854 10.8774 30.9715 10.8971 32.3577C10.907 32.7273 10.8282 32.871 10.4438 32.8505C9.66533 32.83 8.87698 32.8505 7.97038 32.8505ZM8.17732 30.7354C7.78314 30.7354 7.38897 30.7662 7.00464 30.7354C6.64988 30.7046 6.64988 30.9202 6.66959 31.1769C6.6893 31.413 6.57105 31.7005 6.99479 31.6903C7.793 31.6697 8.5912 31.6697 9.38941 31.6903C9.78359 31.7005 9.70475 31.4438 9.6949 31.218C9.6949 31.0023 9.8033 30.7148 9.39926 30.7354C8.99523 30.7456 8.58135 30.7354 8.17732 30.7354ZM4.01876 30.7354C3.61473 30.7354 3.20084 30.7456 2.79681 30.7354C2.46176 30.7251 2.52089 30.9715 2.5406 31.1563C2.56031 31.3514 2.38293 31.68 2.78696 31.68C3.57531 31.68 4.35381 31.6697 5.14216 31.68C5.54619 31.6903 5.41808 31.3822 5.41808 31.1769C5.42794 30.9818 5.51663 30.7046 5.14216 30.7251C4.76769 30.7456 4.39323 30.7354 4.01876 30.7354ZM8.18717 28.8667C7.793 28.8667 7.39882 28.8872 7.00464 28.8564C6.64003 28.8256 6.66959 29.0618 6.65974 29.3082C6.64988 29.5443 6.64003 29.7291 6.97508 29.7291C7.78314 29.7086 8.58135 29.6983 9.38941 29.7291C9.78359 29.7394 9.67519 29.4725 9.6949 29.2568C9.72446 28.9899 9.67519 28.8461 9.35985 28.8667C8.97552 28.8872 8.58135 28.8667 8.18717 28.8667ZM4.0089 28.8667C3.59502 28.8667 3.19099 28.8769 2.7771 28.8667C2.4322 28.8564 2.5406 29.1234 2.53074 29.2979C2.52089 29.4827 2.4322 29.7291 2.7771 29.7189C3.56546 29.7086 4.35381 29.7086 5.13231 29.7189C5.49692 29.7291 5.39838 29.4622 5.40823 29.2671C5.41808 29.0618 5.43779 28.8461 5.12245 28.8667C4.76769 28.8769 4.38337 28.8667 4.0089 28.8667Z"
      fill="black"
      fill-opacity="0.2"
    />
    <path
      d="M39.8787 26.659C40.194 26.8439 40.2039 26.9979 40.1251 27.193C39.9674 27.5831 39.8393 27.9938 39.6816 28.384C39.5732 28.6407 39.6028 28.7742 39.9083 28.7536C40.0758 28.7434 40.2433 28.7742 40.401 28.7434C40.8543 28.6612 40.943 28.8666 40.943 29.3081C40.943 29.7393 40.7952 29.8317 40.4305 29.8112C39.928 29.7804 39.4155 29.8317 38.9031 29.7907C38.4597 29.7496 38.5385 30.0474 38.5385 30.3041C38.5484 30.5505 38.4202 30.8688 38.8834 30.838C39.386 30.7969 39.9083 30.8688 40.4108 30.8174C40.8937 30.7764 40.874 31.0331 40.8937 31.3924C40.9233 31.8237 40.7656 31.9161 40.3911 31.8853C39.997 31.8545 39.6028 31.8647 39.2086 31.875C39.1002 31.875 38.9524 31.8237 38.9031 31.9674C38.844 32.1214 39.0115 32.1522 39.0903 32.2241C39.5929 32.6656 40.0955 33.1071 40.6079 33.5281C40.8543 33.7334 40.8543 33.8875 40.6178 34.0825C40.5291 34.1544 40.4404 34.2468 40.3714 34.3392C40.2039 34.5754 40.0659 34.5651 39.8688 34.3495C39.4944 33.9183 39.0805 33.5281 38.5976 33.1584C38.4794 33.5281 38.5385 33.8772 38.5385 34.2263C38.5286 34.9758 38.5188 35.7356 38.5385 36.4852C38.5484 36.824 38.4498 36.9575 38.1246 36.9061C37.9965 36.8856 37.8585 36.8856 37.7304 36.9061C37.4545 36.9369 37.3658 36.824 37.3757 36.5262C37.3954 35.5611 37.3855 34.5959 37.3855 33.4767C36.8238 34.2366 36.3508 34.8731 35.799 35.4379C35.5033 35.7459 35.2865 35.8383 35.0895 35.366C35.0698 35.3249 35.0402 35.2736 35.0008 35.2428C34.6657 34.9039 34.715 34.6575 35.1092 34.37C35.8285 33.8464 36.3902 33.1585 36.8928 32.4089C36.9815 32.2754 37.1589 32.1317 37.0899 31.9674C37.0111 31.7826 36.8041 31.8853 36.6465 31.875C36.203 31.8647 35.7596 31.8545 35.3161 31.875C34.9121 31.8955 35.0008 31.608 35.0205 31.3924C35.0402 31.1665 34.8332 30.7969 35.3161 30.8072C35.8088 30.8174 36.3016 30.7969 36.7943 30.8174C37.1786 30.838 37.4052 30.8277 37.4052 30.2733C37.4052 29.7291 37.1589 29.7599 36.814 29.7701C36.272 29.7804 35.73 29.7599 35.188 29.7804C34.6657 29.8009 34.9121 29.3902 34.8727 29.1643C34.8332 28.9282 34.8234 28.6612 35.1979 28.7228C35.2471 28.7331 35.2964 28.7331 35.3457 28.7331C36.3607 28.7434 36.3607 28.7434 36.0256 27.7269C35.9764 27.5626 35.9369 27.3983 35.868 27.2443C35.7497 26.9979 35.73 26.8131 36.1833 26.7823C35.9074 26.618 35.73 26.659 35.5723 26.659C34.9318 26.6488 34.7544 26.4024 34.9121 25.735C34.9614 25.5296 35.0895 25.5707 35.2077 25.5604C35.7004 25.5604 36.1932 25.5707 36.6859 25.5604C36.8238 25.5604 37.0209 25.6323 37.0899 25.4783C37.1589 25.3243 36.9914 25.2113 36.9125 25.0881C36.8633 25.006 36.8041 24.9238 36.745 24.8417C37.5531 24.4926 37.8684 24.5542 38.3808 25.2319C38.5779 25.4885 38.775 25.5912 39.0903 25.5707C39.5831 25.5399 40.0758 25.581 40.5685 25.5604C40.8444 25.5501 40.9824 25.6323 40.9233 25.93C40.874 26.1662 41.1105 26.5153 40.7656 26.6385C40.5389 26.7207 40.2729 26.659 39.8787 26.659ZM37.9571 26.659C37.6812 26.659 37.4052 26.6693 37.1195 26.659C36.8731 26.6488 36.7943 26.7309 36.883 26.9876C37.0505 27.501 37.2082 28.0246 37.3658 28.538C37.3954 28.6202 37.4151 28.6818 37.5038 28.7228C37.9472 28.9282 38.4794 28.7023 38.6568 28.2197C38.6962 28.1068 38.7356 27.9938 38.775 27.8809C39.1692 26.659 39.1692 26.659 37.9571 26.659Z"
      fill="black"
      fill-opacity="0.2"
    />
    <path
      d="M44.2539 33.4459C44.2539 32.491 44.2441 31.5361 44.2638 30.571C44.2736 30.2321 44.2047 30.0884 43.8401 30.0987C42.8053 30.1089 42.825 30.0987 42.7856 31.187C42.7167 33.0147 42.4013 34.7807 41.4553 36.3722C41.2385 36.7315 41.1301 36.8547 40.7753 36.4748C40.391 36.0641 40.2629 35.7869 40.6177 35.253C41.4356 33.9901 41.5637 32.5013 41.5932 31.0227C41.6327 29.421 41.613 27.809 41.5932 26.2072C41.5932 25.8581 41.6721 25.7554 42.017 25.7452C43.3375 25.7246 44.6383 25.5604 45.8799 25.0675C46.0671 24.9956 46.146 25.0264 46.2642 25.2113C46.8851 26.238 46.8949 26.2586 45.742 26.4844C44.8846 26.6487 44.0273 26.7822 43.1601 26.8027C42.8842 26.813 42.7856 26.8849 42.7955 27.1826C42.8152 27.6652 42.8152 28.1375 42.7955 28.6201C42.7856 28.9179 42.894 28.9897 43.1601 28.9795C44.2145 28.9692 45.2591 29 46.3135 28.9589C46.757 28.9487 46.8259 29.113 46.8161 29.5134C46.8062 29.8728 46.8259 30.1192 46.3431 30.0987C45.4759 30.0576 45.4759 30.0884 45.4759 30.9919C45.4759 32.799 45.466 34.6164 45.4857 36.4235C45.4857 36.7726 45.4266 36.8958 45.062 36.8855C44.2736 36.8547 44.2736 36.8855 44.2736 36.0436C44.2539 35.1914 44.2539 34.3186 44.2539 33.4459Z"
      fill="black"
      fill-opacity="0.2"
    />
    <path
      d="M21.313 26.9569C20.3177 26.9569 19.3224 26.9261 18.3271 26.9672C17.8935 26.9877 17.864 26.7926 17.864 26.4333C17.864 26.0739 17.8541 25.8378 18.337 25.848C19.6969 25.8891 21.0666 25.848 22.4266 25.8686C22.732 25.8686 22.8503 25.7864 22.801 25.4681C22.7912 25.4373 22.7912 25.3962 22.801 25.3654C22.8503 25.1293 22.6631 24.7597 22.9094 24.657C23.1755 24.544 23.5204 24.5954 23.8357 24.6262C24.0821 24.657 23.9737 24.8931 23.9836 25.0471C24.0033 25.8583 24.0033 25.8583 24.762 25.848C26.0136 25.848 27.2552 25.8686 28.5067 25.8378C29.0684 25.8172 28.8812 26.1971 28.9108 26.4743C28.9502 26.7926 28.9009 26.9672 28.5166 26.9569C27.5016 26.9261 26.4866 26.9467 25.4026 26.9467C25.7081 27.3882 26.0825 27.6141 26.457 27.8502C27.1961 28.302 27.9943 28.6305 28.8024 28.8975C29.0389 28.9796 29.098 29.0515 28.9896 29.3185C28.625 30.1707 28.6348 30.181 27.8268 29.8216C26.3782 29.185 25.0281 28.4047 23.9934 27.0493C23.9934 27.9426 24.0033 28.8359 23.9836 29.7292C23.9836 29.914 24.1018 30.2118 23.8653 30.2631C23.55 30.335 23.2149 30.3042 22.8897 30.2528C22.7616 30.2323 22.8109 30.0167 22.8109 29.8832C22.8109 28.9386 22.8109 28.0042 22.8109 27.0699C22.7222 27.0083 22.6729 27.0596 22.6335 27.1109C21.5594 28.5484 20.0615 29.3595 18.5242 30.1091C18.3074 30.2118 18.2187 30.1604 18.1005 29.9653C17.5979 29.1542 17.5979 29.1645 18.4454 28.8051C19.4702 28.3841 20.4951 27.8913 21.313 26.9569Z"
      fill="black"
      fill-opacity="0.2"
    />
    <path
      d="M58.1093 29.8215C59.2229 29.8215 60.3463 29.8523 61.4598 29.8112C61.923 29.7907 61.8836 30.0474 61.9033 30.3759C61.9131 30.7148 61.854 30.8585 61.4795 30.8482C60.7109 30.8277 60.7109 30.8482 60.7109 31.6388C60.7109 32.3576 60.7207 33.0763 60.701 33.795C60.6912 34.062 60.7602 34.1749 61.0262 34.1236C61.2036 34.0928 61.3908 34.1031 61.5682 34.0825C62.1496 34.0209 62.1693 34.0415 62.1201 34.6575C62.1102 34.8423 62.0708 34.9553 61.8737 34.945C61.7949 34.945 61.7062 34.9553 61.6273 34.9656C60.7207 35.058 60.701 35.058 60.7109 35.9923C60.7109 36.3106 60.632 36.4338 60.3266 36.3928C60.1985 36.3722 60.0605 36.3722 59.9324 36.3928C59.6269 36.4338 59.5481 36.3003 59.5382 35.9923C59.5284 35.1914 59.5185 35.1812 58.74 35.2428C57.3505 35.3557 55.9611 35.4687 54.5716 35.5713C54.4435 35.5816 54.2563 35.6843 54.1971 35.4584C54.138 35.1812 53.9902 34.8937 54.069 34.6165C54.1183 34.4624 54.3647 34.5446 54.5223 34.5343C55.3797 34.5035 55.3797 34.5035 55.3797 33.6308C55.3797 32.8915 55.3599 32.1625 55.3895 31.4232C55.4092 30.9817 55.3205 30.7353 54.8475 30.838C54.3844 30.9304 54.2858 30.7045 54.2858 30.2527C54.2957 29.8625 54.4238 29.8112 54.749 29.8215C55.8822 29.8317 56.9958 29.8215 58.1093 29.8215ZM58.0305 34.3187C58.0305 34.329 58.0305 34.329 58.0305 34.3392C58.4542 34.3084 58.878 34.2571 59.3017 34.2468C59.5284 34.2366 59.5776 34.1236 59.5678 33.9285C59.5678 33.7437 59.5086 33.641 59.3116 33.6513C58.4641 33.6513 57.6068 33.6616 56.7593 33.6513C56.3947 33.6513 56.5129 33.9183 56.4932 34.1236C56.4636 34.3803 56.572 34.4624 56.7987 34.4316C57.2126 34.3803 57.6166 34.3598 58.0305 34.3187ZM58.0403 31.413C58.4641 31.413 58.8878 31.4027 59.3214 31.413C59.5185 31.4232 59.5776 31.3308 59.5776 31.1357C59.5776 30.9406 59.5579 30.8174 59.3116 30.8174C58.4739 30.8277 57.6363 30.8277 56.8085 30.8174C56.6213 30.8174 56.4932 30.838 56.4932 31.0844C56.4932 31.3411 56.5917 31.413 56.8184 31.4027C57.2224 31.4027 57.6265 31.4027 58.0403 31.413ZM58.0403 32.8094C58.4641 32.8094 58.8878 32.7991 59.3116 32.8094C59.5185 32.8196 59.5481 32.7169 59.5579 32.5321C59.5579 32.3473 59.5284 32.2549 59.3214 32.2549C58.4739 32.2652 57.6265 32.2549 56.779 32.2549C56.6115 32.2549 56.4932 32.2754 56.4932 32.5013C56.4932 32.7169 56.5523 32.8196 56.7691 32.8094C57.1929 32.7991 57.6166 32.8094 58.0403 32.8094Z"
      fill="black"
      fill-opacity="0.2"
    />
    <path
      d="M63.7661 30.5196C63.7661 32.1419 63.7661 33.7642 63.7661 35.3967C63.7661 36.4235 63.4114 36.8137 62.4161 36.865C62.3175 36.865 62.219 36.8753 62.1205 36.865C61.9332 36.8445 61.6573 36.9677 61.5686 36.7829C61.4307 36.5056 61.3912 36.1668 61.342 35.8485C61.3223 35.7048 61.4602 35.715 61.5588 35.7253C61.7263 35.7356 61.884 35.7458 62.0515 35.7561C62.3964 35.7664 62.5836 35.5918 62.5836 35.2325C62.5935 33.3227 62.5836 31.4026 62.5935 29.4929C62.5935 29.154 62.3865 29.2156 62.1993 29.2156C61.0956 29.2156 60.0018 29.2054 58.8981 29.2259C58.5729 29.2362 58.4842 29.1232 58.4842 28.7947C58.5039 27.6858 58.5039 26.5769 58.4842 25.4577C58.4743 25.1189 58.5532 24.9751 58.9178 24.9854C60.3959 25.0059 61.8741 25.0059 63.3523 24.9854C63.707 24.9854 63.7859 25.0983 63.7859 25.4474C63.7563 27.1313 63.7661 28.8255 63.7661 30.5196ZM61.0956 26.6077C61.4701 26.6077 61.8445 26.5974 62.2289 26.6179C62.4949 26.6282 62.6033 26.5461 62.6033 26.2483C62.6033 25.9608 62.4949 25.9095 62.2486 25.9197C61.4996 25.93 60.7408 25.93 59.9919 25.9197C59.7258 25.9095 59.6273 25.9711 59.6273 26.2791C59.6273 26.6179 59.785 26.6282 60.0215 26.6179C60.3762 26.5974 60.731 26.6077 61.0956 26.6077ZM61.0759 28.271C61.4701 28.271 61.8642 28.2505 62.2584 28.2813C62.5639 28.3018 62.5935 28.1478 62.6033 27.8808C62.6132 27.6036 62.5048 27.5317 62.2584 27.542C61.4996 27.5523 60.7507 27.5523 59.9919 27.542C59.716 27.5317 59.6174 27.6139 59.6174 27.9116C59.6174 28.2094 59.716 28.2915 59.9919 28.2813C60.3467 28.2505 60.7113 28.271 61.0759 28.271Z"
      fill="black"
      fill-opacity="0.2"
    />
    <path
      d="M52.5021 30.8996C52.5021 29.0514 52.512 27.2033 52.4923 25.3551C52.4923 24.9855 52.6007 24.9033 52.9357 24.9033C54.4139 24.9239 55.892 24.9136 57.3702 24.9033C57.6954 24.9033 57.7841 25.006 57.7742 25.3346C57.7545 26.4845 57.7545 27.6242 57.7742 28.7742C57.7841 29.1541 57.656 29.2157 57.3308 29.2157C56.2665 29.1952 55.1924 29.226 54.1281 29.1952C53.7438 29.1849 53.6748 29.3184 53.6748 29.688C53.6945 31.9264 53.6551 34.1647 53.6945 36.4031C53.7044 37.0704 53.32 36.8651 53.0047 36.9062C52.6105 36.9575 52.4824 36.824 52.4824 36.3928C52.512 34.5549 52.5021 32.7272 52.5021 30.8996ZM55.1727 27.4805C54.7785 27.4805 54.3843 27.4908 53.9901 27.4805C53.6945 27.4702 53.6748 27.6448 53.6847 27.8707C53.6945 28.0657 53.6157 28.2916 53.9507 28.2814C54.7391 28.2608 55.5274 28.2711 56.3158 28.2814C56.641 28.2916 56.5819 28.0657 56.5917 27.8707C56.6016 27.655 56.6114 27.46 56.3059 27.4805C55.9216 27.4908 55.5471 27.4805 55.1727 27.4805ZM55.1135 26.6077C55.5274 26.6077 55.9315 26.5975 56.3454 26.6077C56.641 26.618 56.5917 26.4127 56.5917 26.2278C56.6016 26.0328 56.6213 25.8582 56.3355 25.8582C55.5471 25.8685 54.7588 25.8685 53.9803 25.8582C53.7241 25.8582 53.6847 25.9917 53.6945 26.2073C53.7044 26.4229 53.6847 26.618 53.9901 26.6077C54.3548 26.5872 54.7292 26.6077 55.1135 26.6077Z"
      fill="black"
      fill-opacity="0.2"
    />
    <path
      d="M25.4124 33.6205C24.8211 34.329 24.2003 35.0066 23.4612 35.5405C23.3035 35.6535 23.1459 35.9718 22.9488 35.787C22.7123 35.5713 22.5349 35.253 22.4068 34.945C22.3477 34.8013 22.5842 34.7397 22.7024 34.6678C23.5992 34.0723 24.3974 33.3843 25.0576 32.5219C25.1266 32.4294 25.1857 32.337 25.3138 32.1522C24.7719 32.1522 24.3087 32.1317 23.8455 32.1625C23.5499 32.1728 23.4514 32.1009 23.4514 31.7723C23.4612 31.0433 23.4415 31.0433 24.151 31.0433C24.2299 31.0433 24.3185 31.0433 24.3974 31.0433C24.7423 31.033 25.1562 31.1563 25.4025 30.992C25.6883 30.8072 25.4912 30.3349 25.5109 29.9858C25.5208 29.7804 25.5602 29.6675 25.7869 29.688C25.9642 29.7085 26.1515 29.7085 26.3288 29.688C26.5949 29.6572 26.6442 29.7804 26.654 30.0371C26.6639 31.0433 26.6738 31.0433 27.6592 31.0433C28.1322 31.0433 28.6151 31.0536 29.0881 31.033C29.3542 31.0228 29.4133 31.1152 29.4231 31.3821C29.4428 32.1522 29.4527 32.1522 28.7136 32.1522C28.1322 32.1522 27.5508 32.1522 26.8905 32.1522C27.4621 33.1482 28.2307 33.8156 29.0487 34.4419C29.2063 34.5651 29.5611 34.6472 29.4724 34.8526C29.3246 35.1914 29.0388 35.4892 28.7727 35.7664C28.6643 35.8794 28.5461 35.674 28.4574 35.5919C27.8366 35.0374 27.2847 34.4111 26.8019 33.7232C26.5851 33.8669 26.654 34.0517 26.654 34.2057C26.6442 34.9758 26.6343 35.7459 26.654 36.516C26.6639 36.8343 26.5752 36.9575 26.2697 36.9061C26.1712 36.8856 26.0726 36.8959 25.9741 36.9061C25.6292 36.9575 25.4912 36.8548 25.5109 36.4441C25.5503 35.6637 25.5208 34.8731 25.5208 34.0825C25.5208 33.9388 25.5898 33.7745 25.4124 33.6205Z"
      fill="black"
      fill-opacity="0.2"
    />
    <path
      d="M19.8251 32.1522C19.0761 32.1522 18.406 32.1214 17.7458 32.1625C17.2629 32.1933 17.3713 31.8647 17.3713 31.5978C17.3713 31.3411 17.2334 31.0023 17.7359 31.0331C18.3863 31.0741 19.0466 31.0331 19.7068 31.0536C19.963 31.0536 20.0714 30.9715 20.0419 30.7045C20.0222 30.571 20.0616 30.4273 20.032 30.2938C19.9433 29.8009 20.1306 29.688 20.6036 29.6675C21.1554 29.6367 21.2146 29.8728 21.1948 30.3451C21.1653 31.0433 21.185 31.0433 21.8551 31.0433C22.131 31.0433 22.4168 31.0741 22.6927 31.0433C23.0672 31.0023 23.1854 31.1152 23.1953 31.5362C23.215 32.0598 23.077 32.2344 22.5745 32.1728C22.2197 32.1317 21.8551 32.1728 21.4905 32.1728C21.4708 32.1728 21.4609 32.183 21.3624 32.2138C21.8255 32.6143 22.2591 32.9736 22.6829 33.3638C22.7913 33.4665 23.0376 33.5486 22.9489 33.7437C22.811 34.0312 22.6237 34.2982 22.4168 34.5343C22.338 34.6267 22.269 34.4522 22.2 34.3906C21.8945 34.062 21.5989 33.7334 21.1948 33.2817C21.1948 34.0517 21.1948 34.6883 21.1948 35.3249C21.1948 35.6535 21.1554 35.9821 21.2047 36.3003C21.2934 36.8548 21.047 36.9267 20.5839 36.9369C20.1109 36.9472 20.0222 36.7727 20.0419 36.3312C20.0714 35.4995 20.0517 34.6575 20.0419 33.8156C20.0419 33.7848 20.0123 33.7642 19.9729 33.6821C19.4605 34.2879 18.9677 34.8834 18.3962 35.4071C18.071 35.7048 17.9232 35.6638 17.7064 35.3044C17.3615 34.7191 17.3418 34.7397 17.8739 34.329C18.5933 33.7232 19.2732 33.066 19.8251 32.1522Z"
      fill="black"
      fill-opacity="0.2"
    />
    <path
      d="M22.5846 10.4363C22.5846 7.3252 22.5944 4.21411 22.5747 1.10302C22.5747 0.67178 22.6142 0.486963 23.1364 0.497231C26.8614 0.538301 30.5864 0.507498 34.3113 0.538301C35.7599 0.548569 37.1593 0.856597 38.4502 1.60613C39.682 2.32487 40.4703 3.97795 40.2831 5.47703C40.1747 6.36004 39.9776 7.17118 39.3765 7.84885C38.933 8.35196 38.4305 8.77293 37.8491 9.09123C37.652 9.1939 37.4155 9.29658 37.4352 9.52247C37.4549 9.75862 37.721 9.72782 37.9082 9.78942C39.1498 10.1899 40.3225 10.7546 40.9828 11.9662C41.7711 13.3934 41.85 14.8924 41.2488 16.4839C40.6083 18.1575 39.3666 19.0611 37.8983 19.7593C36.1935 20.5704 34.3705 20.5499 32.5671 20.5807C29.6995 20.6423 26.822 20.6012 23.9543 20.591C23.6094 20.591 23.2744 20.5294 22.9295 20.4883C22.5649 20.4472 22.5747 20.17 22.5747 19.8825C22.5846 16.7201 22.5846 13.5782 22.5846 10.4363ZM31.1678 11.9662C31.1678 11.9456 31.1678 11.9251 31.1678 11.9046C30.2119 11.9046 29.2659 11.9251 28.31 11.8943C27.906 11.884 27.7779 12.0278 27.7779 12.4487C27.7976 13.7322 27.7877 15.0156 27.7877 16.2991C27.7877 16.946 27.8173 16.9973 28.4578 16.9973C29.9163 16.9973 31.3747 17.0076 32.843 16.9768C33.5821 16.9665 34.3015 16.8946 34.9913 16.5558C36.2724 15.9295 36.7552 13.9786 35.8486 12.8286C35.3953 12.2537 34.7449 12.0175 34.065 11.9764C33.1091 11.9251 32.1434 11.9662 31.1678 11.9662ZM30.4385 4.02929C29.729 4.02929 28.9801 4.02929 28.2213 4.02929C27.9749 4.02929 27.699 4.07036 27.7582 4.39893C27.837 4.80963 27.7286 5.21007 27.7483 5.62077C27.768 6.34977 27.7976 7.08904 27.768 7.81804C27.7483 8.25955 27.8567 8.45463 28.3001 8.44437C29.5319 8.42383 30.7539 8.4341 31.9857 8.42383C32.4784 8.42383 32.9711 8.37249 33.4441 8.25955C34.5971 7.97206 35.0504 7.27386 34.9913 5.898C34.9519 4.92257 34.3212 4.30652 33.2766 4.13197C32.3404 3.97795 31.4141 4.0909 30.4385 4.02929Z"
      fill="black"
      fill-opacity="0.2"
    />
    <path
      d="M9.81321 5.12778C12.6907 5.0251 15.036 7.55094 15.0459 10.4977C15.0558 13.4959 12.74 15.9909 9.77379 15.9601C7.05397 15.9396 4.4327 13.6191 4.61008 10.1384C4.71848 7.76656 6.70907 5.06617 9.81321 5.12778Z"
      fill="black"
      fill-opacity="0.2"
    />
  </g>
  <defs>
    <clipPath id="clip0_709_7617">
      <rect
        width="64.2803"
        height="36.6041"
        fill="white"
        transform="translate(0.0078125 0.374023)"
      />
    </clipPath>
  </defs>
</svg>
