<svg viewBox="0 0 257 236" fill="none" xmlns="http://www.w3.org/2000/svg">
  <ellipse cx="118.75" cy="226.5" rx="92" ry="9" fill="#E4E8F4" />
  <path
    d="M25.2582 122.789C26.9009 177.931 81.0766 195.936 146.65 187.199C187.179 181.799 222.56 147.576 229.463 122.789C235.175 102.276 235.593 76.2752 215.758 61.2628C193.702 44.5688 171.761 57.2947 132.966 49.6693C64.7583 36.2629 23.6154 67.6465 25.2582 122.789Z"
    fill="#E1E8FB"
  />
  <path
    d="M171.711 117.026C166.355 129.199 149.312 131.147 136.164 127.252"
    stroke="#595A5E"
    stroke-width="1.76878"
    stroke-linecap="round"
  />
  <path
    fill-rule="evenodd"
    clip-rule="evenodd"
    d="M74.1196 197.935L81.3962 183.727C82.7524 181.079 83.6876 178.235 84.168 175.299L102.047 66.0206C102.204 65.0598 101.645 64.3773 100.933 64.1264L145.493 70.5229C147.047 70.746 148.123 72.1916 147.89 73.7443L146.878 80.486L129.204 183.617C128.761 186.204 128.06 188.739 127.11 191.186L122.15 203.966C121.321 206.101 118.808 206.423 117.655 206.316L73.2157 198.558C73.5701 198.53 73.9143 198.336 74.1196 197.935ZM72.6242 198.455L72.5941 198.45L72.5958 198.442C72.6052 198.447 72.6147 198.451 72.6242 198.455Z"
    fill="#F7F7F7"
  />
  <path
    d="M81.3962 183.727L81.6671 183.866L81.3962 183.727ZM74.1196 197.935L74.3905 198.074L74.3905 198.074L74.1196 197.935ZM84.168 175.299L84.4683 175.348L84.168 175.299ZM102.047 66.0206L102.347 66.0698L102.347 66.0698L102.047 66.0206ZM100.933 64.1263L100.831 64.4134L100.976 63.8251L100.933 64.1263ZM145.493 70.5229L145.45 70.8241L145.45 70.8241L145.493 70.5229ZM147.89 73.7443L147.589 73.6991L147.89 73.7443ZM146.878 80.486L147.179 80.5312L147.178 80.5374L146.878 80.486ZM129.204 183.617L129.504 183.669L129.204 183.617ZM127.11 191.186L126.826 191.076L127.11 191.186ZM122.15 203.966L122.433 204.076L122.15 203.966ZM117.655 206.316L117.627 206.619L117.614 206.618L117.602 206.616L117.655 206.316ZM73.2157 198.558L73.1634 198.858L73.1911 198.255L73.2157 198.558ZM72.6242 198.455L72.7485 198.177L72.5718 198.755L72.6242 198.455ZM72.5941 198.45L72.5418 198.75L72.2318 198.696L72.2962 198.388L72.5941 198.45ZM72.5958 198.442L72.2979 198.38L72.3773 198L72.7272 198.168L72.5958 198.442ZM81.6671 183.866L74.3905 198.074L73.8487 197.796L81.1253 183.588L81.6671 183.866ZM84.4683 175.348C83.9828 178.316 83.0377 181.189 81.6671 183.866L81.1253 183.588C82.4671 180.968 83.3923 178.155 83.8676 175.25L84.4683 175.348ZM102.347 66.0698L84.4683 175.348L83.8676 175.25L101.746 65.9715L102.347 66.0698ZM101.034 63.8393C101.864 64.1319 102.531 64.9426 102.347 66.0698L101.746 65.9715C101.876 65.177 101.426 64.6227 100.831 64.4134L101.034 63.8393ZM100.976 63.8251L145.536 70.2216L145.45 70.8241L100.889 64.4276L100.976 63.8251ZM145.536 70.2216C147.258 70.4687 148.449 72.0698 148.191 73.7894L147.589 73.6991C147.797 72.3134 146.837 71.0232 145.45 70.8241L145.536 70.2216ZM148.191 73.7894L147.179 80.5312L146.577 80.4408L147.589 73.6991L148.191 73.7894ZM147.178 80.5374L129.504 183.669L128.904 183.566L146.578 80.4346L147.178 80.5374ZM129.504 183.669C129.058 186.275 128.351 188.83 127.394 191.296L126.826 191.076C127.768 188.648 128.465 186.133 128.904 183.566L129.504 183.669ZM127.394 191.296L122.433 204.076L121.866 203.856L126.826 191.076L127.394 191.296ZM122.433 204.076C121.979 205.246 121.064 205.911 120.132 206.266C119.206 206.619 118.241 206.676 117.627 206.619L117.683 206.013C118.221 206.063 119.09 206.012 119.915 205.697C120.736 205.385 121.491 204.822 121.866 203.856L122.433 204.076ZM117.602 206.616L73.1634 198.858L73.2681 198.259L117.707 206.016L117.602 206.616ZM74.3905 198.074C74.1351 198.573 73.6952 198.825 73.2404 198.862L73.1911 198.255C73.4449 198.234 73.6935 198.1 73.8487 197.796L74.3905 198.074ZM72.5718 198.755L72.5418 198.75L72.6465 198.15L72.6765 198.155L72.5718 198.755ZM72.2962 198.388L72.2979 198.38L72.8937 198.504L72.892 198.512L72.2962 198.388ZM72.4998 198.733C72.4879 198.728 72.4761 198.722 72.4644 198.717L72.7272 198.168C72.7343 198.171 72.7414 198.174 72.7485 198.177L72.4998 198.733Z"
    fill="#F5F5F5"
  />
  <path
    d="M81.1371 183.447L73.8605 197.655C73.2643 198.819 71.4967 198.235 71.7116 196.945L89.4683 90.3021C89.8976 87.7239 90.5906 85.1965 91.5363 82.7598L98.4908 64.8415C99.2375 62.9177 102.121 63.7038 101.787 65.7404L83.9089 175.019C83.4285 177.955 82.4933 180.798 81.1371 183.447Z"
    fill="#E2E2E2"
    stroke="#EBEBEB"
    stroke-width="0.243475"
  />
  <mask
    id="mask0_305_6854"
    style="mask-type: alpha"
    maskUnits="userSpaceOnUse"
    x="72"
    y="64"
    width="75"
    height="143"
  >
    <path
      d="M117.652 206.317L72.592 198.451L100.683 64.0914L136.408 68.793L146.876 80.4866L129.202 183.618C128.759 186.205 128.057 188.74 127.108 191.186L122.147 203.967C121.319 206.102 118.805 206.423 117.652 206.317Z"
      fill="#F5C144"
    />
  </mask>
  <g mask="url(#mask0_305_6854)">
    <path
      d="M95.1703 107.468L140.513 115.292L146.084 116.333L130.475 216.262L62.1709 202.907L78.759 112.607L86.3218 109.167L95.1703 107.468Z"
      fill="url(#paint0_linear_305_6854)"
    />
    <path
      d="M116.42 99.7629C116.42 99.7629 119.92 96.2629 123.92 97.2629C127.92 98.2629 128.92 102.263 128.92 102.263"
      stroke="#595A5E"
      stroke-width="2"
      stroke-linecap="round"
    />
  </g>
  <mask
    id="mask1_305_6854"
    style="mask-type: alpha"
    maskUnits="userSpaceOnUse"
    x="71"
    y="64"
    width="32"
    height="135"
  >
    <path
      d="M81.39 183.729L74.1135 197.937C73.5172 199.102 71.7497 198.518 71.9645 197.227L89.7212 90.5846C90.1505 88.0063 90.8435 85.479 91.7892 83.0423L98.7437 65.124C99.4904 63.2001 102.374 63.9863 102.04 66.0229L84.1618 175.301C83.6814 178.237 82.7463 181.081 81.39 183.729Z"
      fill="#EBB942"
    />
  </mask>
  <g mask="url(#mask1_305_6854)">
    <path
      d="M95.1644 107.472L140.507 115.296L146.078 116.337L130.469 216.266L62.1651 202.91L78.7532 112.611L86.316 109.171L95.1644 107.472Z"
      fill="#EBB942"
    />
  </g>
  <rect
    x="38.9961"
    y="120"
    width="133.641"
    height="46.7027"
    rx="10"
    transform="rotate(8.61503 38.9961 120)"
    fill="#0157CB"
  />
  <rect
    x="38.9961"
    y="120"
    width="133.641"
    height="46.7027"
    rx="10"
    transform="rotate(8.61503 38.9961 120)"
    fill="black"
    fill-opacity="0.2"
  />
  <path
    d="M144.065 165.172C143.96 165.862 143.779 166.458 143.521 166.958C143.27 167.459 142.956 167.879 142.578 168.217C142.208 168.556 141.787 168.822 141.317 169.017C140.847 169.212 140.344 169.348 139.808 169.426C139.28 169.506 138.724 169.536 138.142 169.516C137.568 169.497 136.987 169.443 136.401 169.355C135.629 169.238 134.925 169.07 134.289 168.852C133.653 168.642 133.063 168.37 132.521 168.038C131.988 167.698 131.483 167.292 131.008 166.817C130.541 166.344 130.086 165.785 129.644 165.141L132.266 163.179C132.396 163.723 132.61 164.242 132.908 164.735C133.206 165.221 133.547 165.652 133.931 166.029C134.322 166.408 134.737 166.721 135.178 166.97C135.619 167.219 136.047 167.375 136.463 167.438C136.953 167.513 137.419 167.549 137.86 167.547C138.302 167.538 138.695 167.476 139.039 167.361C139.383 167.246 139.664 167.069 139.883 166.828C140.11 166.582 140.255 166.254 140.316 165.846C140.364 165.534 140.334 165.256 140.226 165.012C140.119 164.768 139.962 164.55 139.755 164.359C139.557 164.162 139.322 163.986 139.049 163.831C138.777 163.676 138.494 163.538 138.2 163.417C137.916 163.291 137.633 163.176 137.353 163.072C137.073 162.962 136.827 162.856 136.614 162.756C136.195 162.563 135.759 162.36 135.305 162.147C134.852 161.926 134.41 161.689 133.978 161.433C133.545 161.178 133.139 160.9 132.759 160.599C132.388 160.292 132.071 159.952 131.809 159.578C131.548 159.196 131.357 158.776 131.236 158.317C131.117 157.851 131.1 157.336 131.186 156.772C131.288 156.096 131.46 155.51 131.703 155.015C131.953 154.514 132.26 154.093 132.623 153.753C132.986 153.413 133.395 153.145 133.85 152.948C134.307 152.744 134.795 152.601 135.316 152.521C135.839 152.433 136.383 152.397 136.95 152.415C137.526 152.426 138.107 152.476 138.694 152.565C139.496 152.687 140.212 152.871 140.843 153.119C141.482 153.367 142.058 153.671 142.574 154.03C143.089 154.389 143.548 154.797 143.949 155.253C144.36 155.702 144.734 156.192 145.071 156.722L142.45 158.683C142.353 158.122 142.177 157.601 141.923 157.122C141.676 156.644 141.383 156.224 141.043 155.861C140.704 155.49 140.335 155.191 139.937 154.964C139.54 154.729 139.144 154.582 138.751 154.522C138.238 154.445 137.761 154.41 137.319 154.419C136.878 154.421 136.49 154.48 136.153 154.596C135.825 154.706 135.555 154.885 135.342 155.134C135.131 155.375 134.995 155.696 134.934 156.097C134.886 156.417 134.908 156.697 135 156.939C135.093 157.181 135.231 157.396 135.415 157.583C135.607 157.772 135.829 157.938 136.08 158.083C136.333 158.22 136.595 158.347 136.866 158.464C137.144 158.582 137.416 158.692 137.682 158.793C137.956 158.887 138.203 158.986 138.423 159.087C138.85 159.281 139.297 159.486 139.766 159.701C140.235 159.916 140.692 160.156 141.138 160.421C141.585 160.679 142.006 160.963 142.399 161.273C142.793 161.584 143.127 161.934 143.402 162.325C143.678 162.709 143.879 163.138 144.005 163.613C144.131 164.08 144.151 164.6 144.065 165.172Z"
    fill="white"
  />
  <path
    d="M111.39 165.347L105.252 164.417L108.622 142.176L120.651 143.998C121.692 144.156 122.665 144.445 123.572 144.867C124.488 145.29 125.269 145.841 125.915 146.518C126.563 147.185 127.038 147.978 127.342 148.898C127.657 149.81 127.728 150.837 127.555 151.98C127.446 152.701 127.24 153.365 126.937 153.972C126.636 154.569 126.26 155.102 125.809 155.571C125.369 156.041 124.869 156.45 124.31 156.797C123.752 157.145 123.157 157.418 122.526 157.617C121.894 157.816 121.237 157.943 120.554 157.998C119.881 158.054 119.21 158.031 118.54 157.93L112.649 157.037L111.39 165.347ZM121.34 151.038C121.556 149.607 121.361 148.429 120.752 147.505C120.155 146.572 119.125 145.995 117.661 145.773L114.43 145.283L112.968 154.937L116.199 155.426C116.982 155.545 117.666 155.522 118.25 155.358C118.845 155.185 119.353 154.898 119.772 154.498C120.191 154.098 120.529 153.607 120.786 153.024C121.044 152.431 121.229 151.77 121.34 151.038Z"
    fill="white"
  />
  <path
    d="M76.2896 151.108C76.0938 152.4 75.6944 153.532 75.0914 154.504C74.4895 155.468 73.7404 156.251 72.8441 156.852C71.9479 157.453 70.9321 157.865 69.7969 158.088C68.6617 158.311 67.4666 158.328 66.2117 158.138C64.9568 157.948 63.8202 157.578 62.802 157.029C61.7837 156.479 60.9356 155.785 60.2576 154.945C59.5796 154.106 59.0961 153.136 58.8069 152.037C58.5189 150.93 58.4727 149.73 58.6685 148.438C58.8676 147.124 59.2644 145.983 59.8589 145.018C60.462 144.046 61.2073 143.262 62.095 142.667C62.9913 142.066 64.0064 141.658 65.1405 141.443C66.2757 141.22 67.4783 141.204 68.748 141.397C70.0178 141.589 71.1618 141.96 72.18 142.509C73.1994 143.051 74.0443 143.741 74.7149 144.579C75.394 145.412 75.8739 146.381 76.1545 147.487C76.4437 148.586 76.4887 149.793 76.2896 151.108ZM71.7896 150.426C71.8639 149.936 71.9175 149.431 71.9506 148.912C71.9837 148.393 71.9774 147.883 71.9317 147.382C71.886 146.882 71.7913 146.404 71.6475 145.949C71.5111 145.496 71.3069 145.089 71.0348 144.728C70.7639 144.361 70.4155 144.053 69.9895 143.807C69.5721 143.553 69.0626 143.381 68.4612 143.29C67.8523 143.198 67.3073 143.21 66.8262 143.327C66.3462 143.437 65.9229 143.623 65.5564 143.887C65.1898 144.15 64.8742 144.479 64.6096 144.872C64.345 145.264 64.1167 145.693 63.9248 146.158C63.7414 146.616 63.5881 147.102 63.4648 147.615C63.3426 148.121 63.2438 148.622 63.1684 149.12C63.0942 149.61 63.0405 150.114 63.0074 150.633C62.9744 151.153 62.9807 151.662 63.0264 152.163C63.0732 152.656 63.1648 153.13 63.3011 153.583C63.4449 154.038 63.6523 154.449 63.9232 154.817C64.1953 155.177 64.54 155.484 64.9574 155.737C65.3822 155.992 65.8954 156.164 66.4969 156.255C67.0835 156.344 67.6099 156.329 68.0762 156.21C68.5435 156.083 68.9611 155.884 69.3287 155.613C69.6975 155.335 70.018 155 70.29 154.608C70.5706 154.21 70.8063 153.782 70.9971 153.325C71.1965 152.862 71.3604 152.381 71.4889 151.884C71.6174 151.387 71.7176 150.901 71.7896 150.426Z"
    fill="white"
  />
  <path
    d="M101.846 152.241C101.592 153.913 101.075 155.379 100.295 156.637C99.5154 157.886 98.5456 158.899 97.3854 159.677C96.2252 160.455 94.9102 160.988 93.4406 161.277C91.971 161.566 90.4239 161.587 88.7993 161.341C87.1747 161.095 85.7033 160.616 84.3852 159.905C83.067 159.194 81.9691 158.295 81.0914 157.209C80.2137 156.122 79.5876 154.867 79.2133 153.443C78.8404 152.01 78.7806 150.457 79.034 148.785C79.2918 147.083 79.8055 145.607 80.5751 144.357C81.3557 143.099 82.3207 142.085 83.4698 141.315C84.6301 140.537 85.9443 140.008 87.4124 139.729C88.882 139.441 90.4387 139.421 92.0826 139.67C93.7264 139.919 95.2074 140.399 96.5255 141.11C97.8451 141.811 98.939 142.705 99.8071 143.79C100.686 144.867 101.307 146.122 101.671 147.553C102.045 148.977 102.103 150.539 101.846 152.241ZM96.0202 151.358C96.1163 150.724 96.1858 150.07 96.2286 149.398C96.2714 148.726 96.2632 148.066 96.2041 147.418C96.1449 146.77 96.0223 146.152 95.8361 145.563C95.6596 144.976 95.3952 144.449 95.043 143.983C94.6923 143.507 94.2412 143.109 93.6897 142.79C93.1494 142.462 92.4899 142.239 91.7112 142.121C90.9229 142.002 90.2174 142.018 89.5946 142.169C88.9733 142.311 88.4253 142.552 87.9508 142.894C87.4763 143.235 87.0677 143.659 86.7252 144.168C86.3826 144.677 86.0871 145.232 85.8386 145.833C85.6012 146.427 85.4027 147.055 85.2431 147.719C85.0849 148.374 84.9571 149.023 84.8595 149.667C84.7634 150.302 84.6939 150.955 84.6511 151.627C84.6083 152.299 84.6165 152.959 84.6756 153.607C84.7362 154.245 84.8548 154.858 85.0314 155.446C85.2175 156.034 85.4859 156.567 85.8367 157.042C86.1889 157.509 86.6352 157.906 87.1755 158.234C87.7255 158.563 88.3898 158.786 89.1685 158.904C89.9279 159.019 90.6094 159 91.213 158.845C91.818 158.681 92.3585 158.424 92.8345 158.073C93.3119 157.713 93.7267 157.279 94.0789 156.772C94.4422 156.257 94.7473 155.703 94.9943 155.111C95.2524 154.511 95.4646 153.889 95.6309 153.246C95.7972 152.603 95.927 151.973 96.0202 151.358Z"
    fill="white"
  />
  <path
    d="M90.3919 112.643C79.5168 119.298 65.5579 142.347 105 146.242"
    stroke="#595A5E"
    stroke-width="1.76878"
    stroke-linecap="round"
  />
  <path
    d="M166.358 45.3131L167.18 49.835C167.211 50.0031 167.03 50.1296 166.883 50.0436L161.947 47.1648C161.767 47.06 161.567 47.2652 161.676 47.4424L165.219 53.1989C165.244 53.24 165.253 53.2889 165.245 53.3366L164.788 56.0816C164.771 56.184 164.835 56.2825 164.936 56.3082L185.419 61.5481C185.625 61.6007 185.76 61.3393 185.598 61.202L166.684 45.1249C166.541 45.0032 166.324 45.1282 166.358 45.3131Z"
    fill="#86B9FF"
  />
  <path
    d="M32.2579 62.263C36.7579 34.7934 71.3075 25.2768 82.5024 39.6269C84.2597 41.8794 81.4768 43.4933 79.6719 42.4971C77.867 41.5009 77.3124 39.1258 83.7845 34.7938C98.475 24.9607 129.351 28.7756 145.862 44.536"
    stroke="#609FFF"
    stroke-linejoin="round"
    stroke-dasharray="2 2"
  />
  <path
    d="M177.009 57.6667L159.467 46.5501C159.29 46.4379 159.081 46.6393 159.187 46.8202L163.052 53.4128C163.077 53.4558 163.085 53.5067 163.075 53.5554L162.571 55.93C162.549 56.0332 162.611 56.1357 162.713 56.1641L184.075 62.1453C184.281 62.2028 184.421 61.9419 184.26 61.8019L164.443 44.5544C164.301 44.4308 164.083 44.5539 164.115 44.7394L164.701 48.1264"
    stroke="#609FFF"
    stroke-linejoin="round"
  />
  <path
    d="M118.75 83.5L110.75 88.5"
    stroke="#595A5E"
    stroke-width="2"
    stroke-linecap="round"
  />
  <path
    d="M118.75 88.5L110.75 83.5"
    stroke="#595A5E"
    stroke-width="2"
    stroke-linecap="round"
  />
  <path
    d="M139.147 87.2944L130.351 90.7055"
    stroke="#595A5E"
    stroke-width="2"
    stroke-linecap="round"
  />
  <path
    d="M138.21 92.2057L131.289 85.7943"
    stroke="#595A5E"
    stroke-width="2"
    stroke-linecap="round"
  />
  <defs>
    <linearGradient
      id="paint0_linear_305_6854"
      x1="103.701"
      y1="209.469"
      x2="117.264"
      y2="112.367"
      gradientUnits="userSpaceOnUse"
    >
      <stop stop-color="#F5C144" />
      <stop offset="0.412446" stop-color="#F5C144" />
      <stop offset="1" stop-color="#FFD570" />
    </linearGradient>
  </defs>
</svg>
