<svg viewBox="0 0 112 112" fill="none" xmlns="http://www.w3.org/2000/svg">
  <circle cx="56" cy="55.9999" r="55.5" stroke="#0157CB" stroke-opacity="0.2" />
  <path
    d="M35.2655 62.8544C34.165 62.8544 33.2754 61.9628 33.2754 60.8643V50.9126C33.2754 49.8141 34.165 48.9225 35.2655 48.9225C36.3661 48.9225 37.2557 49.8141 37.2557 50.9126V60.8643C37.2557 61.9628 36.3661 62.8544 35.2655 62.8544Z"
    fill="#0157CB"
  />
  <path
    d="M41.2362 70.8151C40.1357 70.8151 39.2461 69.9235 39.2461 68.825V42.9518C39.2461 41.8532 40.1357 40.9616 41.2362 40.9616C42.3368 40.9616 43.2264 41.8532 43.2264 42.9518V68.825C43.2264 69.9235 42.3368 70.8151 41.2362 70.8151Z"
    fill="#0157CB"
  />
  <path
    d="M47.207 78.7759C46.1064 78.7759 45.2168 77.8843 45.2168 76.7858V34.9901C45.2168 33.8916 46.1064 33 47.207 33C48.3075 33 49.1971 33.8916 49.1971 34.9901V76.7858C49.1971 77.8843 48.3075 78.7759 47.207 78.7759Z"
    fill="#0157CB"
  />
  <path
    d="M53.1777 76.786C52.0772 76.786 51.1875 75.8944 51.1875 74.7958V36.981C51.1875 35.8825 52.0772 34.9908 53.1777 34.9908C54.2782 34.9908 55.1678 35.8825 55.1678 36.981V74.7958C55.1678 75.8944 54.2782 76.786 53.1777 76.786Z"
    fill="#0157CB"
  />
  <path
    d="M59.1493 68.8252C58.0488 68.8252 57.1592 67.9336 57.1592 66.835V44.9418C57.1592 43.8432 58.0488 42.9516 59.1493 42.9516C60.2498 42.9516 61.1395 43.8432 61.1395 44.9418V66.835C61.1395 67.9336 60.2498 68.8252 59.1493 68.8252Z"
    fill="#0157CB"
  />
  <path
    d="M65.12 76.786C64.0195 76.786 63.1299 75.8944 63.1299 74.7958V36.981C63.1299 35.8825 64.0195 34.9908 65.12 34.9908C66.2205 34.9908 67.1102 35.8825 67.1102 36.981V74.7958C67.1102 75.8944 66.2205 76.786 65.12 76.786Z"
    fill="#0157CB"
  />
  <path
    d="M71.0907 68.8252C69.9902 68.8252 69.1006 67.9336 69.1006 66.835V44.9418C69.1006 43.8432 69.9902 42.9516 71.0907 42.9516C72.1912 42.9516 73.0809 43.8432 73.0809 44.9418V66.835C73.0809 67.9336 72.1912 68.8252 71.0907 68.8252Z"
    fill="#0157CB"
  />
  <path
    d="M77.0614 62.8544C75.9609 62.8544 75.0713 61.9628 75.0713 60.8643V50.9126C75.0713 49.8141 75.9609 48.9225 77.0614 48.9225C78.1619 48.9225 79.0516 49.8141 79.0516 50.9126V60.8643C79.0516 61.9628 78.1619 62.8544 77.0614 62.8544Z"
    fill="#0157CB"
  />
  <path
    fill-rule="evenodd"
    clip-rule="evenodd"
    d="M73.0833 43.9929C74.3318 45.2893 74.3012 47.3604 73.0148 48.6187L52.1788 69L41.812 57.159C40.626 55.8043 40.7542 53.7371 42.0984 52.5417C43.4426 51.3464 45.4938 51.4756 46.6798 52.8303L52.5425 59.5267L68.4934 43.9238C69.7798 42.6655 71.8347 42.6964 73.0833 43.9929Z"
    fill="#F5C144"
    stroke="white"
    stroke-width="2"
    stroke-linecap="round"
  />
</svg>
