<svg viewBox="0 0 165 50" fill="none" xmlns="http://www.w3.org/2000/svg">
  <path
    d="M158.051 1.12765C160.938 1.12765 163.284 3.47316 163.284 6.35995V43.6401C163.284 46.5268 160.938 48.8723 158.051 48.8723H6.35995C3.47316 48.8723 1.12765 46.5268 1.12765 43.6401V6.35995C1.12765 3.47316 3.47316 1.12765 6.35995 1.12765H158.051ZM158.051 0H6.35995C2.85296 0 0 2.84168 0 6.35995V43.6401C0 47.147 2.84168 50 6.35995 50H158.063C161.57 50 164.423 47.1583 164.423 43.6401V6.35995C164.411 2.84168 161.57 0 158.051 0Z"
    fill="white"
  />
  <path
    d="M51.1276 14.3098H46.5944L45.6021 16.5087H44.9932L48.5904 8.69409H49.1542L52.7514 16.5087H52.1425L51.1276 14.3098ZM50.9133 13.8362L48.861 9.32558L46.82 13.8362H50.9133Z"
    fill="white"
  />
  <path
    d="M58.3784 10.6899L55.7397 16.5199H55.1759L52.5485 10.6899H53.1348L55.4578 15.8997L57.8033 10.6899H58.3784Z"
    fill="white"
  />
  <path
    d="M63.0355 11.1968C63.4189 11.569 63.6106 12.1102 63.6106 12.8207V16.5193H63.0694V15.4819C62.8777 15.8202 62.607 16.0908 62.2575 16.2825C61.8966 16.4742 61.4681 16.5644 60.9719 16.5644C60.3292 16.5644 59.8105 16.4066 59.4383 16.1021C59.0662 15.7976 58.8745 15.3917 58.8745 14.8955C58.8745 14.4106 59.0436 14.016 59.3932 13.7228C59.7428 13.4183 60.2953 13.2717 61.0509 13.2717H63.0468V12.7981C63.0468 12.2568 62.9002 11.8396 62.607 11.5577C62.3138 11.2758 61.8853 11.1292 61.3215 11.1292C60.9381 11.1292 60.566 11.1968 60.2164 11.3322C59.8668 11.4675 59.5624 11.6479 59.3143 11.8734L59.0324 11.4675C59.3256 11.2081 59.6751 11.0051 60.0811 10.8585C60.487 10.7119 60.9155 10.6443 61.3666 10.6443C62.0996 10.6443 62.6521 10.8247 63.0355 11.1968ZM62.2913 15.7638C62.6296 15.5383 62.8889 15.2113 63.0581 14.794V13.7002H61.0734C60.4983 13.7002 60.0811 13.8017 59.833 14.016C59.5737 14.2189 59.4496 14.5121 59.4496 14.873C59.4496 15.2564 59.5962 15.5496 59.8781 15.7751C60.16 15.9893 60.5547 16.1021 61.0734 16.1021C61.547 16.1021 61.953 15.9893 62.2913 15.7638Z"
    fill="white"
  />
  <path
    d="M65.8771 9.14478C65.7869 9.05457 65.7418 8.95308 65.7418 8.82904C65.7418 8.70499 65.7869 8.59223 65.8771 8.50202C65.9673 8.41181 66.0689 8.3667 66.2042 8.3667C66.3282 8.3667 66.441 8.41181 66.5312 8.49074C66.6214 8.58095 66.6665 8.68244 66.6665 8.80648C66.6665 8.93052 66.6214 9.04329 66.5312 9.1335C66.441 9.22371 66.3395 9.26882 66.2042 9.26882C66.0689 9.26882 65.9673 9.22371 65.8771 9.14478ZM65.9223 10.6897H66.4748V16.5196H65.9223V10.6897Z"
    fill="white"
  />
  <path d="M68.8317 8.2312H69.3842V16.5082H68.8317V8.2312Z" fill="white" />
  <path
    d="M75.372 11.1968C75.7554 11.569 75.9471 12.1102 75.9471 12.8207V16.5193H75.4058V15.4819C75.2141 15.8202 74.9435 16.0908 74.5939 16.2825C74.233 16.4742 73.8045 16.5644 73.3084 16.5644C72.6656 16.5644 72.1469 16.4066 71.7748 16.1021C71.4026 15.7976 71.2109 15.3917 71.2109 14.8955C71.2109 14.4106 71.3801 14.016 71.7297 13.7228C72.0792 13.4183 72.6318 13.2717 73.3873 13.2717H75.3832V12.7981C75.3832 12.2568 75.2367 11.8396 74.9435 11.5577C74.6503 11.2758 74.2218 11.1292 73.6579 11.1292C73.2745 11.1292 72.9024 11.1968 72.5528 11.3322C72.2033 11.4675 71.8988 11.6479 71.6507 11.8734L71.3688 11.4675C71.662 11.2081 72.0116 11.0051 72.4175 10.8585C72.8235 10.7119 73.252 10.6443 73.7031 10.6443C74.436 10.6443 74.9886 10.8247 75.372 11.1968ZM74.6277 15.7638C74.966 15.5383 75.2254 15.2113 75.3945 14.794V13.7002H73.4099C72.8348 13.7002 72.4175 13.8017 72.1694 14.016C71.9101 14.2189 71.786 14.5121 71.786 14.873C71.786 15.2564 71.9326 15.5496 72.2145 15.7751C72.4964 15.9893 72.8911 16.1021 73.4099 16.1021C73.8835 16.1021 74.2894 15.9893 74.6277 15.7638Z"
    fill="white"
  />
  <path
    d="M82.6454 11.0165C83.0852 11.2646 83.4235 11.6142 83.6829 12.0652C83.931 12.5163 84.055 13.0237 84.055 13.5988C84.055 14.1739 83.931 14.6814 83.6829 15.1324C83.4348 15.5835 83.0852 15.9331 82.6454 16.1811C82.2056 16.4292 81.7095 16.5645 81.1682 16.5645C80.6495 16.5645 80.1759 16.4405 79.7587 16.1924C79.3414 15.9443 79.0144 15.5948 78.7776 15.1437V16.5194H78.2363V8.2312H78.7889V12.0201C79.0144 11.5916 79.3414 11.2533 79.7587 11.0052C80.1759 10.7684 80.6382 10.6444 81.1569 10.6444C81.7208 10.6444 82.2056 10.7684 82.6454 11.0165ZM82.3523 15.7414C82.7131 15.5384 82.995 15.2452 83.198 14.8731C83.401 14.5009 83.5024 14.0724 83.5024 13.5988C83.5024 13.1252 83.401 12.6967 83.198 12.3246C82.995 11.9524 82.7131 11.6593 82.3523 11.4563C81.9914 11.2533 81.5967 11.1405 81.1457 11.1405C80.6946 11.1405 80.2999 11.242 79.9504 11.4563C79.6008 11.6593 79.3189 11.9524 79.1159 12.3246C78.9129 12.6967 78.8114 13.1252 78.8114 13.5988C78.8114 14.0724 78.9129 14.5009 79.1159 14.8731C79.3189 15.2452 79.6008 15.5384 79.9504 15.7414C80.2999 15.9443 80.7059 16.0571 81.1457 16.0571C81.5855 16.0571 81.9914 15.9556 82.3523 15.7414Z"
    fill="white"
  />
  <path d="M85.7915 8.2312H86.344V16.5082H85.7915V8.2312Z" fill="white" />
  <path
    d="M93.6175 13.7346H88.6107C88.622 14.1856 88.746 14.5916 88.9603 14.9412C89.1745 15.2907 89.4677 15.5727 89.8399 15.7644C90.212 15.9561 90.6179 16.0575 91.0803 16.0575C91.4637 16.0575 91.8133 15.9899 92.1403 15.8546C92.4673 15.7192 92.7379 15.5163 92.9522 15.2456L93.2792 15.6178C93.0311 15.9222 92.7041 16.159 92.3207 16.3169C91.9373 16.486 91.5201 16.565 91.0803 16.565C90.5052 16.565 89.9865 16.4409 89.5241 16.1816C89.0731 15.9335 88.7122 15.5839 88.4528 15.1329C88.1935 14.6818 88.0695 14.1744 88.0695 13.5993C88.0695 13.0354 88.1935 12.528 88.4303 12.0769C88.6671 11.6259 89.0054 11.2763 89.4339 11.0169C89.8624 10.7689 90.336 10.6335 90.866 10.6335C91.396 10.6335 91.8696 10.7576 92.2869 11.0057C92.7041 11.2538 93.0424 11.6033 93.2792 12.0544C93.516 12.5054 93.64 13.0016 93.64 13.5767L93.6175 13.7346ZM89.7496 11.4116C89.4226 11.592 89.1633 11.8514 88.9603 12.1784C88.7686 12.5054 88.6445 12.8888 88.622 13.2948H93.0875C93.0649 12.8776 92.9522 12.5054 92.7492 12.1784C92.5462 11.8514 92.2869 11.592 91.9599 11.4116C91.6328 11.2312 91.2607 11.1297 90.8547 11.1297C90.4488 11.1297 90.0767 11.2199 89.7496 11.4116Z"
    fill="white"
  />
  <path
    d="M99.0188 16.1816C98.579 15.9335 98.2294 15.5727 97.9701 15.1216C97.722 14.6705 97.5867 14.1631 97.5867 13.5993C97.5867 13.0354 97.7107 12.528 97.9701 12.0769C98.2182 11.6259 98.5677 11.2763 99.0188 11.0169C99.4586 10.7689 99.9548 10.6335 100.507 10.6335C101.06 10.6335 101.556 10.7576 101.996 11.0169C102.436 11.265 102.785 11.6259 103.045 12.0769C103.293 12.528 103.428 13.0354 103.428 13.5993C103.428 14.1631 103.304 14.6705 103.045 15.1216C102.796 15.5727 102.447 15.9222 101.996 16.1816C101.556 16.4297 101.06 16.565 100.507 16.565C99.9548 16.5537 99.4586 16.4297 99.0188 16.1816ZM101.714 15.7418C102.063 15.5388 102.345 15.2456 102.548 14.8735C102.751 14.5014 102.853 14.0729 102.853 13.5993C102.853 13.1257 102.751 12.6971 102.548 12.325C102.345 11.9529 102.063 11.6597 101.714 11.4567C101.364 11.2538 100.958 11.141 100.519 11.141C100.067 11.141 99.6728 11.2425 99.3233 11.4567C98.9737 11.6597 98.6918 11.9529 98.4888 12.325C98.2858 12.6971 98.1843 13.1257 98.1843 13.5993C98.1843 14.0729 98.2858 14.5014 98.4888 14.8735C98.6918 15.2456 98.9737 15.5388 99.3233 15.7418C99.6728 15.9448 100.079 16.0575 100.519 16.0575C100.958 16.0575 101.353 15.9561 101.714 15.7418Z"
    fill="white"
  />
  <path
    d="M109.732 11.2758C110.16 11.7043 110.363 12.3132 110.363 13.1026V16.5081H109.81V13.1477C109.81 12.4936 109.641 11.9975 109.314 11.6479C108.987 11.3096 108.525 11.1292 107.927 11.1292C107.239 11.1292 106.698 11.3322 106.303 11.7381C105.909 12.1441 105.717 12.6966 105.717 13.3845V16.4855H105.165V10.6894H105.706V11.9524C105.909 11.5464 106.202 11.2194 106.608 10.9939C107.003 10.7683 107.476 10.6443 108.017 10.6443C108.728 10.6443 109.303 10.8585 109.732 11.2758Z"
    fill="white"
  />
  <path
    d="M118.426 16.1476C118.279 16.2829 118.11 16.3844 117.896 16.4521C117.681 16.5197 117.467 16.5536 117.23 16.5536C116.723 16.5536 116.328 16.4182 116.058 16.1363C115.787 15.8544 115.64 15.471 115.64 14.9748V11.1634H114.569V10.6785H115.64V9.41553H116.193V10.6898H118.042V11.1634H116.193V14.9185C116.193 15.3019 116.283 15.5838 116.464 15.7867C116.644 15.9785 116.915 16.0799 117.275 16.0799C117.636 16.0799 117.941 15.9672 118.178 15.7529L118.426 16.1476Z"
    fill="white"
  />
  <path
    d="M124.549 11.2759C124.977 11.7044 125.18 12.3133 125.18 13.1026V16.5082H124.628V13.1478C124.628 12.4937 124.459 11.9976 124.132 11.648C123.805 11.3097 123.342 11.1293 122.745 11.1293C122.057 11.1293 121.516 11.3322 121.121 11.7382C120.726 12.1441 120.534 12.6967 120.534 13.3846V16.4856H119.982V8.2312H120.534V11.9073C120.737 11.5014 121.031 11.1969 121.425 10.9714C121.82 10.7571 122.282 10.6444 122.824 10.6444C123.545 10.6444 124.132 10.8586 124.549 11.2759Z"
    fill="white"
  />
  <path
    d="M132.42 13.7346H127.413C127.424 14.1856 127.548 14.5916 127.763 14.9412C127.977 15.2907 128.27 15.5727 128.642 15.7644C129.014 15.9561 129.42 16.0575 129.883 16.0575C130.266 16.0575 130.616 15.9899 130.943 15.8546C131.27 15.7192 131.54 15.5163 131.755 15.2456L132.082 15.6178C131.833 15.9222 131.506 16.159 131.123 16.3169C130.74 16.486 130.322 16.565 129.883 16.565C129.308 16.565 128.789 16.4409 128.326 16.1816C127.875 15.9335 127.515 15.5839 127.255 15.1329C126.996 14.6818 126.872 14.1744 126.872 13.5993C126.872 13.0354 126.996 12.528 127.233 12.0769C127.469 11.6259 127.808 11.2763 128.236 11.0169C128.665 10.7689 129.138 10.6335 129.668 10.6335C130.198 10.6335 130.672 10.7576 131.089 11.0057C131.506 11.2538 131.845 11.6033 132.082 12.0544C132.318 12.5054 132.442 13.0016 132.442 13.5767L132.42 13.7346ZM128.552 11.4116C128.225 11.592 127.966 11.8514 127.763 12.1784C127.571 12.5054 127.447 12.8888 127.424 13.2948H131.89C131.867 12.8776 131.755 12.5054 131.552 12.1784C131.349 11.8514 131.089 11.592 130.762 11.4116C130.435 11.2312 130.063 11.1297 129.657 11.1297C129.24 11.1297 128.879 11.2199 128.552 11.4116Z"
    fill="white"
  />
  <path
    d="M53.8791 30.1986H56.1682V35.4084C55.4916 35.9384 54.7135 36.3556 53.8227 36.6375C52.9318 36.9194 52.0072 37.066 51.0599 37.066C49.7293 37.066 48.534 36.7728 47.4627 36.1977C46.3914 35.6226 45.557 34.822 44.9481 33.8071C44.3391 32.7922 44.0347 31.642 44.0347 30.3565C44.0347 29.0822 44.3391 27.932 44.9481 26.9059C45.557 25.891 46.4027 25.0904 47.474 24.5153C48.5453 23.9402 49.7631 23.647 51.105 23.647C52.1988 23.647 53.1912 23.8274 54.082 24.1882C54.9729 24.5491 55.7284 25.0791 56.3373 25.7782L54.8037 27.2667C53.8114 26.2744 52.6048 25.7782 51.2065 25.7782C50.2819 25.7782 49.4699 25.9699 48.7595 26.3533C48.0491 26.7367 47.4853 27.278 47.0793 27.9771C46.6734 28.6763 46.4704 29.4656 46.4704 30.3678C46.4704 31.2361 46.6734 32.0254 47.0793 32.7133C47.4853 33.4124 48.0378 33.9537 48.7595 34.3484C49.4699 34.743 50.2818 34.946 51.1952 34.946C52.2101 34.946 53.1123 34.7205 53.8791 34.2694V30.1986Z"
    fill="white"
  />
  <path
    d="M60.8929 36.3553C60.081 35.9156 59.4495 35.3179 58.9985 34.5398C58.5474 33.7618 58.3219 32.8822 58.3219 31.9011C58.3219 30.9201 58.5474 30.0405 58.9985 29.2737C59.4495 28.5069 60.081 27.898 60.8929 27.4695C61.7049 27.0297 62.607 26.8154 63.6106 26.8154C64.6255 26.8154 65.5389 27.0297 66.3508 27.4695C67.1627 27.9093 67.7942 28.5069 68.2452 29.2737C68.6963 30.0405 68.9218 30.9201 68.9218 31.9011C68.9218 32.8822 68.6963 33.7618 68.2452 34.5398C67.7942 35.3179 67.1627 35.9268 66.3508 36.3553C65.5389 36.7951 64.6255 37.0094 63.6106 37.0094C62.607 37.0094 61.6936 36.7839 60.8929 36.3553ZM65.7418 34.1564C66.3057 33.5813 66.5763 32.8371 66.5763 31.9011C66.5763 30.9652 66.2944 30.2209 65.7418 29.6458C65.178 29.0707 64.4789 28.7888 63.6219 28.7888C62.7648 28.7888 62.0544 29.0707 61.5019 29.6458C60.9493 30.2209 60.6674 30.9652 60.6674 31.9011C60.6674 32.8371 60.9493 33.5813 61.5019 34.1564C62.0544 34.7315 62.7648 35.0134 63.6219 35.0134C64.4676 35.0134 65.178 34.7315 65.7418 34.1564Z"
    fill="white"
  />
  <path
    d="M72.9137 36.3553C72.1018 35.9156 71.4703 35.3179 71.0192 34.5398C70.5682 33.7618 70.3427 32.8822 70.3427 31.9011C70.3427 30.9201 70.5682 30.0405 71.0192 29.2737C71.4703 28.5069 72.1018 27.898 72.9137 27.4695C73.7256 27.0297 74.6277 26.8154 75.6313 26.8154C76.6462 26.8154 77.5596 27.0297 78.3715 27.4695C79.1834 27.9093 79.8149 28.5069 80.266 29.2737C80.717 30.0405 80.9426 30.9201 80.9426 31.9011C80.9426 32.8822 80.717 33.7618 80.266 34.5398C79.8149 35.3179 79.1834 35.9268 78.3715 36.3553C77.5596 36.7951 76.6462 37.0094 75.6313 37.0094C74.6277 37.0094 73.7256 36.7839 72.9137 36.3553ZM77.7626 34.1564C78.3264 33.5813 78.597 32.8371 78.597 31.9011C78.597 30.9652 78.3151 30.2209 77.7626 29.6458C77.1988 29.0707 76.4996 28.7888 75.6426 28.7888C74.7856 28.7888 74.0752 29.0707 73.5226 29.6458C72.9701 30.2209 72.6882 30.9652 72.6882 31.9011C72.6882 32.8371 72.9701 33.5813 73.5226 34.1564C74.0752 34.7315 74.7856 35.0134 75.6426 35.0134C76.4883 35.0134 77.1988 34.7315 77.7626 34.1564Z"
    fill="white"
  />
  <path
    d="M93.0648 26.9171V35.3632C93.0648 38.8702 91.2718 40.6181 87.6971 40.6181C86.7386 40.6181 85.8365 40.494 84.9795 40.2572C84.1225 40.0204 83.4121 39.6596 82.8595 39.2085L83.9082 37.4606C84.348 37.8215 84.8893 38.1147 85.5546 38.3289C86.2199 38.5432 86.8965 38.656 87.5731 38.656C88.6669 38.656 89.4675 38.4079 89.975 37.9117C90.4824 37.4155 90.7418 36.66 90.7418 35.6339V35.1151C90.3471 35.5549 89.8622 35.8819 89.2871 36.1075C88.712 36.333 88.0918 36.4458 87.404 36.4458C86.4567 36.4458 85.5997 36.2428 84.8442 35.8368C84.0774 35.4309 83.4797 34.8671 83.0399 34.1341C82.6002 33.4011 82.3746 32.5666 82.3746 31.6194C82.3746 30.6722 82.6002 29.8377 83.0399 29.116C83.4797 28.3943 84.0887 27.8305 84.8442 27.4246C85.611 27.0299 86.468 26.8269 87.404 26.8269C88.1257 26.8269 88.7797 26.9397 89.3661 27.1765C89.9524 27.4133 90.4486 27.7741 90.8433 28.259V26.9397H93.0648V26.9171ZM89.9186 33.6605C90.4824 33.1305 90.7643 32.4426 90.7643 31.5969C90.7643 30.7624 90.4824 30.0858 89.9186 29.5671C89.3548 29.0484 88.6331 28.789 87.7423 28.789C86.8514 28.789 86.1184 29.0484 85.5546 29.5671C84.9908 30.0858 84.7089 30.7624 84.7089 31.5969C84.7089 32.4426 84.9908 33.1305 85.5546 33.6605C86.1184 34.1905 86.8514 34.4498 87.7423 34.4498C88.6331 34.4498 89.3548 34.1905 89.9186 33.6605Z"
    fill="white"
  />
  <path d="M96.1207 23.0491H98.455V36.8741H96.1207V23.0491Z" fill="white" />
  <path
    d="M110.825 32.6454H103.011C103.146 33.3784 103.507 33.9648 104.082 34.3933C104.657 34.8218 105.379 35.036 106.236 35.036C107.33 35.036 108.232 34.6752 108.942 33.9535L110.194 35.3856C109.743 35.9156 109.179 36.3216 108.502 36.5922C107.814 36.8628 107.048 36.9982 106.191 36.9982C105.097 36.9982 104.138 36.7839 103.304 36.3441C102.469 35.9043 101.827 35.3067 101.376 34.5286C100.925 33.7505 100.699 32.871 100.699 31.8899C100.699 30.9201 100.924 30.0518 101.364 29.2738C101.804 28.4957 102.413 27.8867 103.202 27.4582C103.98 27.0185 104.871 26.8042 105.852 26.8042C106.822 26.8042 107.69 27.0185 108.457 27.447C109.224 27.8755 109.822 28.4731 110.25 29.2512C110.679 30.0293 110.893 30.9314 110.893 31.9463C110.87 32.1154 110.859 32.341 110.825 32.6454ZM103.947 29.3301C103.428 29.7699 103.112 30.3563 103.011 31.0893H108.66C108.559 30.3676 108.254 29.7812 107.747 29.3414C107.239 28.8904 106.608 28.6648 105.841 28.6648C105.086 28.6761 104.454 28.8904 103.947 29.3301Z"
    fill="white"
  />
  <path
    d="M126.793 24.3912C127.627 24.7633 128.27 25.2933 128.721 25.9925C129.172 26.6916 129.398 27.5148 129.398 28.4733C129.398 29.4205 129.172 30.2437 128.721 30.9429C128.27 31.642 127.627 32.1833 126.793 32.5554C125.958 32.9275 124.966 33.1192 123.838 33.1192H120.895V36.8743H118.471V23.8274H123.838C124.977 23.8274 125.958 24.0191 126.793 24.3912ZM126.139 30.3903C126.68 29.9393 126.962 29.3078 126.962 28.4733C126.962 27.6388 126.691 26.9961 126.139 26.5563C125.586 26.1052 124.786 25.8797 123.737 25.8797H120.907V31.0669H123.737C124.786 31.0556 125.586 30.8414 126.139 30.3903Z"
    fill="white"
  />
  <path d="M131.777 23.0491H134.111V36.8741H131.777V23.0491Z" fill="white" />
  <path
    d="M144.339 27.8644C145.117 28.5635 145.501 29.6235 145.501 31.0444V36.8743H143.302V35.6677C143.02 36.1075 142.614 36.4345 142.084 36.6601C141.554 36.8856 140.922 37.0096 140.178 37.0096C139.434 37.0096 138.78 36.8856 138.216 36.6262C137.652 36.3669 137.224 36.0173 136.919 35.5662C136.615 35.1152 136.457 34.5965 136.457 34.0326C136.457 33.1418 136.784 32.4201 137.449 31.8788C138.114 31.3376 139.163 31.0669 140.595 31.0669H143.166V30.9203C143.166 30.2212 142.963 29.6912 142.546 29.3191C142.129 28.9469 141.509 28.7552 140.697 28.7552C140.133 28.7552 139.592 28.8455 139.05 29.0146C138.509 29.1837 138.058 29.4318 137.675 29.7363L136.761 28.0448C137.28 27.6501 137.911 27.3457 138.644 27.1314C139.377 26.9172 140.155 26.8157 140.979 26.8157C142.433 26.8044 143.561 27.1653 144.339 27.8644ZM142.208 34.9122C142.659 34.6416 142.986 34.2582 143.166 33.762V32.6118H140.764C139.423 32.6118 138.746 33.0516 138.746 33.9312C138.746 34.3484 138.915 34.6867 139.253 34.9348C139.592 35.1828 140.054 35.3069 140.652 35.3069C141.238 35.3069 141.757 35.1716 142.208 34.9122Z"
    fill="white"
  />
  <path
    d="M157.623 26.917L152.966 37.6748C152.526 38.7573 152.007 39.5128 151.376 39.9639C150.755 40.4037 150 40.6292 149.12 40.6292C148.624 40.6292 148.128 40.5503 147.643 40.3924C147.158 40.2345 146.763 40.009 146.448 39.7158L147.384 38.0018C147.609 38.216 147.869 38.3852 148.173 38.5092C148.478 38.6333 148.782 38.7009 149.098 38.7009C149.504 38.7009 149.842 38.5994 150.113 38.3852C150.383 38.1709 150.62 37.8214 150.846 37.3252L151.015 36.9305L146.673 26.9395H149.098L152.233 34.2805L155.379 26.917H157.623Z"
    fill="white"
  />
  <path
    d="M39.5579 24.3571L33.2881 20.7373L28.1348 25.7215L32.8483 30.2772L39.5579 26.4094C39.93 26.1951 40.1442 25.8117 40.1442 25.3832C40.1555 24.9547 39.93 24.5713 39.5579 24.3571Z"
    fill="white"
  />
  <path
    d="M32.2281 20.1284L25.3381 16.1478L10.2389 8.41211L27.3002 24.9096L32.2281 20.1284Z"
    fill="white"
  />
  <path
    d="M10.4869 42.7941L25.3606 34.5961L31.7882 30.8974L27.3002 26.5447L10.4869 42.7941Z"
    fill="white"
  />
  <path
    d="M9.22406 9.07739L9.21277 42.3882L26.4433 25.7215L9.22406 9.07739Z"
    fill="white"
  />
</svg>
