<svg viewBox="0 0 155 46" fill="none" xmlns="http://www.w3.org/2000/svg">
  <path
    d="M146.101 45.1315H8.10118C4.00118 45.1315 0.701172 41.8315 0.701172 37.7315V8.43149C0.701172 4.33149 4.00118 1.03149 8.10118 1.03149H146.001C150.101 1.03149 153.401 4.33149 153.401 8.43149V37.8315C153.401 41.8315 150.101 45.1315 146.101 45.1315Z"
    fill="black"
  />
  <path
    d="M148.201 45.7315H6.00117C2.80117 45.7315 0.201172 43.1315 0.201172 39.9315V6.23152C0.201172 3.03152 2.80117 0.431519 6.00117 0.431519H148.201C151.401 0.431519 154.001 3.03152 154.001 6.23152V39.9315C154.001 43.1315 151.401 45.7315 148.201 45.7315ZM6.00117 1.53152C3.40118 1.53152 1.40118 3.63152 1.40118 6.13152V39.8315C1.40118 42.4315 3.50117 44.4315 6.00117 44.4315H148.201C150.801 44.4315 152.801 42.3315 152.801 39.8315V6.23152C152.801 3.63152 150.701 1.63152 148.201 1.63152H6.00117V1.53152Z"
    fill="#B5B5B6"
  />
  <path
    d="M77.802 25.2315C75.102 25.2315 72.902 27.2315 72.902 30.0315C72.902 32.8315 75.102 34.8315 77.802 34.8315C80.502 34.8315 82.702 32.7315 82.702 30.0315C82.602 27.2315 80.502 25.2315 77.802 25.2315ZM77.802 32.9315C76.302 32.9315 75.1019 31.7315 75.1019 30.0315C75.1019 28.3315 76.402 27.1315 77.802 27.1315C79.302 27.1315 80.502 28.3315 80.502 30.0315C80.502 31.7315 79.202 32.9315 77.802 32.9315ZM67.202 25.2315C64.5019 25.2315 62.302 27.2315 62.302 30.0315C62.302 32.8315 64.5019 34.8315 67.202 34.8315C69.902 34.8315 72.1019 32.7315 72.1019 30.0315C72.0019 27.2315 69.902 25.2315 67.202 25.2315ZM67.202 32.9315C65.702 32.9315 64.502 31.7315 64.502 30.0315C64.502 28.3315 65.802 27.1315 67.202 27.1315C68.702 27.1315 69.902 28.3315 69.902 30.0315C69.902 31.7315 68.702 32.9315 67.202 32.9315ZM54.602 26.6315V28.7315H59.502C59.402 29.9315 59.002 30.7315 58.402 31.3315C57.702 32.0315 56.602 32.8315 54.602 32.8315C51.602 32.8315 49.202 30.4315 49.202 27.3315C49.202 24.2315 51.602 21.8315 54.602 21.8315C56.202 21.8315 57.402 22.4315 58.302 23.3315L59.702 21.9315C58.502 20.7315 56.802 19.8315 54.602 19.8315C50.502 19.8315 47.002 23.2315 47.002 27.3315C47.002 31.4315 50.502 34.8315 54.602 34.8315C56.802 34.8315 58.502 34.1315 59.802 32.7315C61.202 31.3315 61.602 29.4315 61.602 27.9315C61.602 27.4315 61.602 27.0315 61.502 26.6315H54.602ZM106.102 28.2315C105.702 27.1315 104.502 25.1315 102.002 25.1315C99.502 25.1315 97.402 27.1315 97.402 29.9315C97.402 32.6315 99.5019 34.7315 102.202 34.7315C104.402 34.7315 105.702 33.3315 106.202 32.6315L104.602 31.5315C104.102 32.3315 103.302 32.8315 102.202 32.8315C101.102 32.8315 100.402 32.3315 99.902 31.3315L106.402 28.6315L106.102 28.2315ZM99.502 29.8315C99.402 27.9315 100.902 27.0315 102.002 27.0315C102.802 27.0315 103.602 27.4315 103.802 28.0315L99.502 29.8315ZM94.302 34.5315H96.402V20.3315H94.302V34.5315ZM90.802 26.2315C90.302 25.6315 89.3019 25.1315 88.202 25.1315C85.8019 25.1315 83.6019 27.2315 83.6019 30.0315C83.6019 32.7315 85.8019 34.8315 88.202 34.8315C89.402 34.8315 90.3019 34.3315 90.702 33.7315H90.802V34.4315C90.802 36.2315 89.8019 37.2315 88.202 37.2315C86.902 37.2315 86.102 36.3315 85.802 35.5315L84.002 36.3315C84.502 37.6315 85.902 39.2315 88.302 39.2315C90.802 39.2315 92.902 37.7315 92.902 34.2315V25.5315H90.902V26.2315H90.802ZM88.302 32.9315C86.802 32.9315 85.6019 31.7315 85.6019 30.0315C85.6019 28.3315 86.802 27.1315 88.302 27.1315C89.702 27.1315 90.902 28.3315 90.902 30.0315C90.902 31.7315 89.802 32.9315 88.302 32.9315ZM116.102 20.3315H111.002V34.5315H113.102V29.1315H116.102C118.502 29.1315 120.802 27.4315 120.802 24.7315C120.802 22.0315 118.402 20.3315 116.102 20.3315ZM116.102 27.2315H113.102V22.3315H116.102C117.702 22.3315 118.602 23.6315 118.602 24.7315C118.602 25.8315 117.702 27.2315 116.102 27.2315ZM129.202 25.1315C127.702 25.1315 126.102 25.8315 125.402 27.3315L127.302 28.1315C127.702 27.3315 128.502 27.1315 129.202 27.1315C130.302 27.1315 131.402 27.8315 131.402 28.9315V29.0315C131.002 28.8315 130.202 28.5315 129.202 28.5315C127.202 28.5315 125.102 29.6315 125.102 31.7315C125.102 33.6315 126.802 34.8315 128.602 34.8315C130.002 34.8315 130.802 34.2315 131.302 33.4315H131.402V34.5315H133.402V29.1315C133.502 26.5315 131.702 25.1315 129.202 25.1315ZM129.002 32.9315C128.302 32.9315 127.302 32.6315 127.302 31.7315C127.302 30.6315 128.502 30.2315 129.502 30.2315C130.402 30.2315 130.902 30.4315 131.402 30.7315C131.302 32.0315 130.202 32.9315 129.002 32.9315ZM141.002 25.4315L138.602 31.6315H138.502L136.002 25.4315H133.702L137.502 34.0315L135.302 38.8315H137.502L143.302 25.4315H141.002ZM121.902 34.5315H124.002V20.3315H121.902V34.5315Z"
    fill="#F2F2F2"
  />
  <path
    d="M12.2012 9.03149C11.9012 9.33149 11.7012 9.93149 11.7012 10.6315V35.7315C11.7012 36.4315 11.9012 36.9315 12.2012 37.3315L12.3012 37.4315L26.4012 23.3315V23.1315V22.9315L12.2012 9.03149Z"
    fill="#69C7F2"
  />
  <path
    d="M31.0008 28.0314L26.3008 23.3314V23.1314V22.9314L31.0008 18.2314L31.1008 18.3314L36.7008 21.5314C38.3008 22.4314 38.3008 23.9314 36.7008 24.8314L31.1008 28.0314H31.0008Z"
    fill="url(#paint0_linear_3750_267532)"
  />
  <path
    d="M31.1016 28.0314L26.3016 23.2314L12.1016 37.4314C12.6016 38.0314 13.5016 38.0314 14.5016 37.5314L31.1016 28.0314Z"
    fill="url(#paint1_linear_3750_267532)"
  />
  <path
    d="M31.1016 18.4315L14.5016 9.03153C13.5016 8.43153 12.7016 8.53153 12.1016 9.13153L26.3016 23.3315L31.1016 18.4315Z"
    fill="url(#paint2_linear_3750_267532)"
  />
  <path
    d="M52.4008 9.83149C52.0008 9.43149 51.4008 9.23149 50.8008 9.23149C49.4008 9.23149 48.3008 10.4315 48.3008 11.8315C48.3008 13.2315 49.4008 14.4315 50.8008 14.4315C52.0008 14.4315 52.9008 13.7315 52.9008 12.6315H51.0008V11.8315H53.9008C53.9008 14.1315 52.6008 15.3315 50.7008 15.3315C48.8008 15.3315 47.3008 13.8315 47.3008 11.9315C47.3008 10.0315 48.8008 8.53149 50.7008 8.53149C51.6008 8.53149 52.4008 8.83149 53.0008 9.43149L52.4008 9.83149Z"
    fill="#F2F2F2"
  />
  <path
    d="M59.2012 8.43152V9.23152H56.1012V11.4315H58.8012V12.2315H56.1012V14.2315H59.3012V15.0315H55.2012V8.43152H59.2012Z"
    fill="#F2F2F2"
  />
  <path
    d="M65.0016 8.43152V9.33152H63.0016V15.1315H62.1015V9.33152H60.1016V8.43152H65.0016Z"
    fill="#F2F2F2"
  />
  <path d="M69.4 8.43152V15.1315H68.5V8.43152H69.4Z" fill="#F2F2F2" />
  <path
    d="M75.5016 8.43152V9.33152H73.5016V15.1315H72.6016V9.33152H70.6016V8.43152H75.5016Z"
    fill="#F2F2F2"
  />
  <path
    d="M81.9 8.33154C83.8 8.33154 85.3 9.83154 85.3 11.7315C85.3 13.6315 83.8 15.1315 81.9 15.1315C80 15.1315 78.5 13.6315 78.5 11.7315C78.5 9.93154 80 8.33154 81.9 8.33154ZM81.9 14.3315C83.3 14.3315 84.4 13.2315 84.4 11.7315C84.4 10.3315 83.3 9.13154 81.9 9.13154C80.5 9.13154 79.4 10.2315 79.4 11.7315C79.4 13.2315 80.5 14.3315 81.9 14.3315Z"
    fill="#F2F2F2"
  />
  <path
    d="M90.6012 15.1315L87.6012 10.1315V15.1315H86.7012V8.43152H87.6012L90.6012 13.4315V8.43152H91.5012V15.1315H90.6012Z"
    fill="#F2F2F2"
  />
  <defs>
    <linearGradient
      id="paint0_linear_3750_267532"
      x1="35.669"
      y1="23.1993"
      x2="8.18459"
      y2="23.1993"
      gradientUnits="userSpaceOnUse"
    >
      <stop stop-color="#FFE400" />
      <stop offset="0.1941" stop-color="#FCD500" />
      <stop offset="0.5469" stop-color="#F8B900" />
      <stop offset="0.8279" stop-color="#F6A700" />
      <stop offset="1" stop-color="#F5A000" />
    </linearGradient>
    <linearGradient
      id="paint1_linear_3750_267532"
      x1="28.5373"
      y1="25.8058"
      x2="2.68686"
      y2="51.6562"
      gradientUnits="userSpaceOnUse"
    >
      <stop stop-color="#E83D3A" />
      <stop offset="1" stop-color="#CA0068" />
    </linearGradient>
    <linearGradient
      id="paint2_linear_3750_267532"
      x1="2.57166"
      y1="-5.37347"
      x2="23.6779"
      y2="15.7327"
      gradientUnits="userSpaceOnUse"
    >
      <stop stop-color="#009B67" />
      <stop offset="0.3168" stop-color="#44A963" />
      <stop offset="0.7398" stop-color="#69B85E" />
      <stop offset="1" stop-color="#74BE5B" />
    </linearGradient>
  </defs>
</svg>
