<svg viewBox="0 0 122 41" fill="none" xmlns="http://www.w3.org/2000/svg">
  <g clip-path="url(#clip0_3750_268284)">
    <path
      d="M29.9996 14.6521H15.7504V18.8739H25.8297C25.3293 24.8131 20.3969 27.3176 15.7504 27.3176C9.79336 27.3176 4.59883 22.6426 4.59883 16.0594C4.59883 9.66703 9.55508 4.72964 15.7504 4.72964C20.5398 4.72964 23.3754 7.80656 23.3754 7.80656L26.3539 4.72964C26.3539 4.72964 22.5652 0.507812 15.6313 0.507812C6.81484 0.531665 0 7.99738 0 16.0117C0 23.9067 6.43359 31.5871 15.8695 31.5871C24.1855 31.5871 30.2379 25.8865 30.2379 17.4667C30.2379 15.6778 29.9996 14.6521 29.9996 14.6521Z"
      fill="black"
      fill-opacity="0.2"
    />
    <path
      d="M41.6508 11.5991C35.8129 11.5991 31.6191 16.1787 31.6191 21.4977C31.6191 26.9122 35.6699 31.5633 41.6984 31.5633C47.1789 31.5633 51.6348 27.3654 51.6348 21.617C51.6586 14.9861 46.4641 11.5991 41.6508 11.5991ZM41.6984 15.5109C44.5578 15.5109 47.298 17.8245 47.298 21.5932C47.298 25.2664 44.6055 27.6754 41.6984 27.6754C38.5055 27.6754 36.0035 25.1233 36.0035 21.5932C36.0035 18.0869 38.4816 15.5109 41.6984 15.5109Z"
      fill="black"
      fill-opacity="0.2"
    />
    <path
      d="M63.4789 11.5991C57.641 11.5991 53.4473 16.1787 53.4473 21.4977C53.4473 26.9122 57.498 31.5633 63.5266 31.5633C69.007 31.5633 73.4629 27.3654 73.4629 21.617C73.4629 14.9861 68.2445 11.5991 63.4789 11.5991ZM63.5504 15.5109C66.4098 15.5109 69.15 17.8245 69.15 21.5932C69.15 25.2664 66.4574 27.6754 63.5504 27.6754C60.3574 27.6754 57.8555 25.1233 57.8555 21.5932C57.8078 18.0869 60.3098 15.5109 63.5504 15.5109Z"
      fill="black"
      fill-opacity="0.2"
    />
    <path
      d="M84.8285 11.5991C79.4434 11.5991 75.2734 16.2741 75.2734 21.5693C75.2734 27.58 80.1582 31.5633 84.7809 31.5633C87.6164 31.5633 89.1414 30.4423 90.2613 29.1304V31.1102C90.2613 34.5449 88.1883 36.62 85.0191 36.62C81.993 36.62 80.4441 34.354 79.9199 33.066L76.0836 34.688C77.4418 37.5502 80.182 40.5556 85.043 40.5556C90.3805 40.5556 94.4312 37.1924 94.4312 30.1561V12.1716H90.2375V13.8651C88.9508 12.5055 87.1875 11.5991 84.8285 11.5991ZM85.2336 15.5109C87.8785 15.5109 90.5711 17.753 90.5711 21.5932C90.5711 25.4811 87.8785 27.6277 85.1859 27.6277C82.3266 27.6277 79.6816 25.3141 79.6816 21.617C79.6578 17.8007 82.4219 15.5109 85.2336 15.5109Z"
      fill="black"
      fill-opacity="0.2"
    />
    <path
      d="M112.992 11.5991C107.941 11.5991 103.699 15.6301 103.699 21.5693C103.699 27.8663 108.441 31.611 113.493 31.611C117.71 31.611 120.307 29.2974 121.832 27.2223L118.377 24.9086C117.496 26.292 115.971 27.6516 113.493 27.6516C110.681 27.6516 109.394 26.1012 108.608 24.6224L121.999 19.041L121.308 17.419C120.021 14.2229 116.995 11.5991 112.992 11.5991ZM113.207 15.4155C115.018 15.4155 116.328 16.3695 116.9 17.5622L107.964 21.2831C107.559 18.397 110.3 15.4155 113.207 15.4155Z"
      fill="black"
      fill-opacity="0.2"
    />
    <path
      d="M101.722 1.55713H97.3379V30.9906H101.722V1.55713Z"
      fill="black"
      fill-opacity="0.2"
    />
  </g>
  <defs>
    <clipPath id="clip0_3750_268284">
      <rect
        width="122"
        height="40"
        fill="white"
        transform="translate(0 0.531738)"
      />
    </clipPath>
  </defs>
</svg>
