<svg viewBox="0 0 181 53" fill="none" xmlns="http://www.w3.org/2000/svg">
  <path
    d="M171.144 52.2979H9.68714C4.89023 52.2979 1.0293 48.437 1.0293 43.64V9.35973C1.0293 4.56283 4.89023 0.701904 9.68714 0.701904H171.027C175.824 0.701904 179.685 4.56283 179.685 9.35973V43.757C179.685 48.437 175.824 52.2979 171.144 52.2979Z"
    fill="black"
  />
  <path
    d="M173.6 52.9999H7.22923C3.4853 52.9999 0.443359 49.958 0.443359 46.2141V6.78587C0.443359 3.04194 3.4853 0 7.22923 0H173.6C177.344 0 180.386 3.04194 180.386 6.78587V46.2141C180.386 49.958 177.344 52.9999 173.6 52.9999ZM7.22923 1.28697C4.18729 1.28697 1.84735 3.74393 1.84735 6.66887V46.0971C1.84735 49.139 4.30429 51.479 7.22923 51.479H173.6C176.642 51.479 178.982 49.022 178.982 46.0971V6.78587C178.982 3.74393 176.525 1.40397 173.6 1.40397H7.22923V1.28697Z"
    fill="#B5B5B6"
  />
  <path
    d="M91.2345 29.0154C88.0756 29.0154 85.5016 31.3553 85.5016 34.6313C85.5016 37.9072 88.0756 40.2472 91.2345 40.2472C94.3934 40.2472 96.9674 37.7902 96.9674 34.6313C96.8504 31.3553 94.3934 29.0154 91.2345 29.0154ZM91.2345 38.0242C89.4795 38.0242 88.0756 36.6202 88.0756 34.6313C88.0756 32.6423 89.5965 31.2383 91.2345 31.2383C92.9895 31.2383 94.3935 32.6423 94.3935 34.6313C94.3935 36.6202 92.8725 38.0242 91.2345 38.0242ZM78.8327 29.0154C75.6738 29.0154 73.0999 31.3553 73.0999 34.6313C73.0999 37.9072 75.6738 40.2472 78.8327 40.2472C81.9917 40.2472 84.5656 37.7902 84.5656 34.6313C84.4486 31.3553 81.9917 29.0154 78.8327 29.0154ZM78.8327 38.0242C77.0778 38.0242 75.6738 36.6202 75.6738 34.6313C75.6738 32.6423 77.1948 31.2383 78.8327 31.2383C80.5877 31.2383 81.9917 32.6423 81.9917 34.6313C81.9917 36.6202 80.5877 38.0242 78.8327 38.0242ZM64.091 30.6534V33.1103H69.8239C69.7069 34.5143 69.2389 35.4503 68.537 36.1522C67.718 36.9712 66.431 37.9072 64.091 37.9072C60.5811 37.9072 57.7732 35.0993 57.7732 31.4723C57.7732 27.8454 60.5811 25.0375 64.091 25.0375C65.963 25.0375 67.367 25.7394 68.42 26.7924L70.0579 25.1545C68.6539 23.7505 66.665 22.6975 64.091 22.6975C59.2941 22.6975 55.1992 26.6754 55.1992 31.4723C55.1992 36.2692 59.2941 40.2472 64.091 40.2472C66.665 40.2472 68.654 39.4282 70.1749 37.7902C71.8129 36.1522 72.2809 33.9293 72.2809 32.1743C72.2809 31.5893 72.2809 31.1213 72.1639 30.6534H64.091ZM124.345 32.5253C123.877 31.2383 122.473 28.8984 119.548 28.8984C116.623 28.8984 114.166 31.2383 114.166 34.5143C114.166 37.6732 116.623 40.1302 119.782 40.1302C122.356 40.1302 123.877 38.4922 124.462 37.6732L122.59 36.3862C122.005 37.3222 121.069 37.9072 119.782 37.9072C118.495 37.9072 117.676 37.3222 117.091 36.1522L124.696 32.9933L124.345 32.5253ZM116.623 34.3973C116.506 32.1743 118.261 31.1213 119.548 31.1213C120.484 31.1213 121.42 31.5893 121.654 32.2913L116.623 34.3973ZM110.539 39.8962H112.996V23.2825H110.539V39.8962ZM106.444 30.1854C105.859 29.4834 104.689 28.8984 103.402 28.8984C100.594 28.8984 98.0204 31.3553 98.0204 34.6313C98.0204 37.7902 100.594 40.2472 103.402 40.2472C104.806 40.2472 105.859 39.6622 106.327 38.9602H106.444V39.7792C106.444 41.8851 105.274 43.0551 103.402 43.0551C101.881 43.0551 100.945 42.0021 100.594 41.0661L98.4884 42.0021C99.0734 43.5231 100.711 45.3951 103.519 45.3951C106.444 45.3951 108.901 43.6401 108.901 39.5452V29.3664H106.561V30.1854H106.444ZM103.519 38.0242C101.764 38.0242 100.36 36.6202 100.36 34.6313C100.36 32.6423 101.764 31.2383 103.519 31.2383C105.157 31.2383 106.561 32.6423 106.561 34.6313C106.561 36.6202 105.274 38.0242 103.519 38.0242ZM136.045 23.2825H130.078V39.8962H132.535V33.5783H136.045C138.853 33.5783 141.543 31.5893 141.543 28.4304C141.543 25.2715 138.736 23.2825 136.045 23.2825ZM136.045 31.3553H132.535V25.6225H136.045C137.917 25.6225 138.97 27.1434 138.97 28.4304C138.97 29.7174 137.917 31.3553 136.045 31.3553ZM151.371 28.8984C149.616 28.8984 147.744 29.7174 146.925 31.4723L149.148 32.4083C149.616 31.4723 150.552 31.2383 151.371 31.2383C152.658 31.2383 153.945 32.0573 153.945 33.3443V33.4613C153.477 33.2273 152.541 32.8763 151.371 32.8763C149.031 32.8763 146.574 34.1633 146.574 36.6202C146.574 38.8432 148.563 40.2472 150.669 40.2472C152.307 40.2472 153.243 39.5452 153.828 38.6092H153.945V39.8962H156.285V33.5783C156.402 30.5364 154.296 28.8984 151.371 28.8984ZM151.137 38.0242C150.318 38.0242 149.148 37.6732 149.148 36.6202C149.148 35.3333 150.552 34.8653 151.722 34.8653C152.775 34.8653 153.36 35.0993 153.945 35.4503C153.828 36.9712 152.541 38.0242 151.137 38.0242ZM165.177 29.2494L162.369 36.5032H162.252L159.327 29.2494H156.636L161.082 39.3112L158.508 44.9271H161.082L167.868 29.2494H165.177ZM142.83 39.8962H145.287V23.2825H142.83V39.8962Z"
    fill="white"
  />
  <path
    d="M14.4834 10.0616C14.1324 10.4126 13.8984 11.1146 13.8984 11.9336V41.3C13.8984 42.119 14.1324 42.704 14.4834 43.172L14.6004 43.289L31.0971 26.7923V26.5583V26.3243L14.4834 10.0616Z"
    fill="#69C7F2"
  />
  <path
    d="M36.4794 32.2913L30.9805 26.7924V26.5584V26.3245L36.4794 20.8256L36.5964 20.9426L43.1482 24.6865C45.0202 25.7395 45.0202 27.4944 43.1482 28.5474L36.5964 32.2913H36.4794Z"
    fill="url(#paint0_linear_3750_264267)"
  />
  <path
    d="M36.5967 32.2913L30.9809 26.6754L14.3672 43.2891C14.9522 43.9911 16.0051 43.9911 17.1751 43.4061L36.5967 32.2913Z"
    fill="url(#paint1_linear_3750_264267)"
  />
  <path
    d="M36.5967 21.0595L17.1751 10.0617C16.0051 9.35973 15.0692 9.47673 14.3672 10.1787L30.9809 26.7924L36.5967 21.0595Z"
    fill="url(#paint2_linear_3750_264267)"
  />
  <path
    d="M61.5157 10.9978C61.0477 10.5298 60.3457 10.2958 59.6437 10.2958C58.0058 10.2958 56.7188 11.6998 56.7188 13.3377C56.7188 14.9757 58.0058 16.3797 59.6437 16.3797C61.0477 16.3797 62.1007 15.5607 62.1007 14.2737H59.8777V13.3377H63.2707C63.2707 16.0287 61.7497 17.4326 59.5267 17.4326C57.3038 17.4326 55.5488 15.6777 55.5488 13.4547C55.5488 11.2318 57.3038 9.47681 59.5267 9.47681C60.5797 9.47681 61.5157 9.8278 62.2177 10.5298L61.5157 10.9978Z"
    fill="white"
  />
  <path
    d="M69.4729 9.35986V10.2958H65.846V12.8698H69.0049V13.8058H65.846V16.1457H69.5899V17.0817H64.793V9.35986H69.4729Z"
    fill="white"
  />
  <path
    d="M76.2583 9.35986V10.4128H73.9183V17.1987H72.8653V10.4128H70.5254V9.35986H76.2583Z"
    fill="white"
  />
  <path d="M81.4045 9.35986V17.1987H80.3516V9.35986H81.4045Z" fill="white" />
  <path
    d="M88.5435 9.35986V10.4128H86.2035V17.1987H85.1505V10.4128H82.8105V9.35986H88.5435Z"
    fill="white"
  />
  <path
    d="M96.0287 9.24292C98.2517 9.24292 100.007 10.9979 100.007 13.2208C100.007 15.4438 98.2517 17.1988 96.0287 17.1988C93.8057 17.1988 92.0508 15.4438 92.0508 13.2208C92.0508 11.1149 93.8057 9.24292 96.0287 9.24292ZM96.0287 16.2628C97.6667 16.2628 98.9536 14.9758 98.9536 13.2208C98.9536 11.5829 97.6667 10.1789 96.0287 10.1789C94.3907 10.1789 93.1038 11.4659 93.1038 13.2208C93.1038 14.9758 94.3907 16.2628 96.0287 16.2628Z"
    fill="white"
  />
  <path
    d="M106.209 17.1987L102.699 11.3488V17.1987H101.646V9.35986H102.699L106.209 15.2097V9.35986H107.262V17.1987H106.209Z"
    fill="white"
  />
  <defs>
    <linearGradient
      id="paint0_linear_3750_264267"
      x1="41.941"
      y1="26.6379"
      x2="9.78495"
      y2="26.6379"
      gradientUnits="userSpaceOnUse"
    >
      <stop stop-color="#FFE400" />
      <stop offset="0.1941" stop-color="#FCD500" />
      <stop offset="0.5469" stop-color="#F8B900" />
      <stop offset="0.8279" stop-color="#F6A700" />
      <stop offset="1" stop-color="#F5A000" />
    </linearGradient>
    <linearGradient
      id="paint1_linear_3750_264267"
      x1="33.5966"
      y1="29.6874"
      x2="3.35221"
      y2="59.9318"
      gradientUnits="userSpaceOnUse"
    >
      <stop stop-color="#E83D3A" />
      <stop offset="1" stop-color="#CA0068" />
    </linearGradient>
    <linearGradient
      id="paint2_linear_3750_264267"
      x1="3.21743"
      y1="-6.7918"
      x2="27.9112"
      y2="17.902"
      gradientUnits="userSpaceOnUse"
    >
      <stop stop-color="#009B67" />
      <stop offset="0.3168" stop-color="#44A963" />
      <stop offset="0.7398" stop-color="#69B85E" />
      <stop offset="1" stop-color="#74BE5B" />
    </linearGradient>
  </defs>
</svg>
