<svg viewBox="0 0 122 32" fill="none" xmlns="http://www.w3.org/2000/svg">
  <g clip-path="url(#clip0_3750_268292)">
    <path
      d="M25.3062 13.1095C25.3062 14.6206 24.3785 15.7466 22.5231 16.4824C21.0828 17.0552 19.33 17.3466 17.2549 17.3466H8.75927C6.53284 17.3466 4.65794 17.0848 3.13947 16.5663C1.04975 15.8601 0 14.7293 0 13.1688V4.8231C0 3.3268 1.06439 2.21569 3.20295 1.49964C4.88742 0.961368 6.74767 0.689763 8.78369 0.689763H12.1575C13.0657 0.689763 13.5197 1.09964 13.5197 1.92433C13.5197 2.74902 13.0657 3.16384 12.1575 3.16384H11.1273C11.0297 3.16384 10.9711 3.1589 10.9613 3.14902C10.7025 3.13915 10.473 3.13915 10.2729 3.13421C10.0727 3.12927 9.90667 3.12433 9.78461 3.12433C5.7614 3.12433 3.74491 3.68729 3.74491 4.81816V13.154C3.74491 14.2848 5.43427 14.8478 8.8081 14.8478H17.2647C18.0703 14.8478 18.9345 14.7293 19.8426 14.4774C20.99 14.1663 21.5613 13.7515 21.5613 13.2182V11.4453H16.3028C15.6095 11.4453 15.0431 10.8478 15.0431 10.112C15.0431 9.37618 15.6095 8.77371 16.3028 8.77371H22.6257C22.943 8.73915 23.402 8.74408 23.9928 8.74408C24.8668 8.74408 25.3062 9.09964 25.3062 9.81569V13.1095ZM47.385 13.1935V8.14655C47.385 7.10952 45.9349 6.57618 42.9956 6.57618H37.1952C36.1259 6.57618 35.1543 6.68976 34.295 6.91198C33.0841 7.24779 32.4982 7.7268 32.4982 8.36877V13.1935C32.4982 13.8107 33.1183 14.2898 34.3291 14.5663C35.1592 14.7638 36.1259 14.8478 37.2294 14.8478H43.0005C43.894 14.8478 44.7875 14.7441 45.6615 14.5367C46.7991 14.2354 47.385 13.7861 47.385 13.1935ZM50.9786 13.1935C50.9786 14.7095 50.0802 15.8009 48.2492 16.4774C46.97 17.0107 45.2416 17.2922 43.1031 17.2922H37.1952C35.2275 17.2922 33.4649 17.0107 31.8732 16.4774C29.9055 15.7762 28.9388 14.6799 28.9388 13.1935V8.36877C28.9388 6.91198 29.9055 5.791 31.839 5.0305C33.2891 4.43791 35.0517 4.16137 37.161 4.16137H43.1031C48.3518 4.16137 50.9786 5.53421 50.9786 8.33915V13.1935ZM94.0377 5.50952C94.0377 6.24038 93.486 6.60581 92.4509 6.60581C92.3142 6.60581 92.1042 6.60581 91.8308 6.57618H91.1765C88.4472 6.57618 87.0996 7.10952 87.0996 8.2305V16.1959C87.0996 16.7293 86.8262 17.0651 86.3428 17.2083C86.1329 17.2626 85.6153 17.2922 84.7902 17.2922C83.9601 17.2922 83.5451 16.9268 83.5451 16.1959V8.2305C83.5451 6.49223 84.6144 5.34161 86.792 4.72433C88.1054 4.32927 90.0731 4.16137 92.6999 4.16137C93.5885 4.16137 94.0377 4.61075 94.0377 5.50952ZM114.945 13.1935V8.14655C114.945 7.10952 113.495 6.57618 110.555 6.57618H104.75C103.681 6.57618 102.714 6.68976 101.85 6.91198C100.639 7.24779 100.053 7.7268 100.053 8.36877V13.1935C100.053 13.8107 100.673 14.2898 101.884 14.5663C102.714 14.7638 103.681 14.8478 104.784 14.8478H110.555C111.488 14.8478 112.386 14.7342 113.216 14.5367C114.354 14.2354 114.945 13.7861 114.945 13.1935ZM118.538 13.1935C118.538 14.7095 117.64 15.8009 115.809 16.4774C114.53 17.0107 112.801 17.2922 110.663 17.2922H104.755C102.787 17.2922 101.025 17.0107 99.4378 16.4774C97.4652 15.7762 96.4985 14.6799 96.4985 13.1935V8.36877C96.4985 6.91198 97.4652 5.791 99.3987 5.0305C100.849 4.43791 102.611 4.16137 104.721 4.16137H110.663C115.911 4.16137 118.538 5.53421 118.538 8.33915V13.1935ZM76.5777 6.73421V4.4626C76.5777 3.50952 74.9519 3.00087 71.6952 3.00087H58.4342V8.78359H71.6952C74.9519 8.78359 76.5777 8.07742 76.5777 6.73421ZM80.3178 6.84285C80.3178 8.49717 79.2778 9.70705 77.2369 10.4626C75.6452 10.9959 73.7361 11.2478 71.4901 11.2478H58.4391V16.1367C58.4391 16.67 58.195 17.0058 57.6432 17.1441C57.5065 17.1984 56.9499 17.228 56.0174 17.228C55.1532 17.228 54.704 16.8626 54.704 16.1317V1.5984C54.704 0.89717 55.1532 0.531738 56.0174 0.531738H71.6659C73.78 0.531738 75.5768 0.78359 77.066 1.23297C79.2485 1.90458 80.3178 2.91692 80.3178 4.23544V6.84285ZM40.3786 27.0157C40.2224 27.6873 40.3444 28.4774 40.5007 28.7688C40.6569 29.0601 41.1696 29.3219 41.5553 29.3219C41.9557 29.3219 42.522 29.1293 42.8052 28.8478C43.0933 28.5614 43.4888 27.8749 43.6645 27.1293C43.8159 26.5021 43.7036 25.9046 43.5425 25.6182C43.3814 25.3317 42.9077 24.9416 42.5123 24.9416C42.1363 24.9416 41.5358 25.1145 41.2379 25.4107C40.945 25.7021 40.5397 26.3391 40.3786 27.0157ZM38.6697 27.0749C38.9285 25.9885 39.5827 25.0898 40.2712 24.4824C40.9645 23.8749 41.8482 23.7564 42.8247 23.7564C43.8257 23.7564 44.558 24.1712 44.9584 24.7688C45.3588 25.3614 45.5785 26.1712 45.3246 27.2428C45.1684 27.9243 44.8754 28.5663 44.475 29.1342C44.1186 29.633 43.6353 29.9441 43.1226 30.2206C42.6099 30.4972 41.9996 30.5614 41.3307 30.5614C40.652 30.5614 40.1198 30.4428 39.7292 30.2009C39.3435 29.9638 38.8943 29.5836 38.7381 29.0651C38.5867 28.5515 38.4891 27.8503 38.6697 27.0749ZM31.8439 30.3638L33.2647 23.8552L36.2138 23.8651C36.2773 23.8651 38.3865 23.7564 38.284 25.5638C38.2107 26.8774 37.6395 27.0256 36.4921 27.6379C37.0682 28.6058 37.2684 29.1293 38.0301 30.3638H36.1113C35.8964 29.7465 34.9834 28.0033 34.9785 28.0033L33.9825 27.9935L33.4747 30.3737L31.8439 30.3638ZM34.3047 26.8231H35.4375C36.4872 26.8231 36.9852 25.1589 35.8964 25.1391L34.7149 25.1145L34.3047 26.8231ZM27.6938 23.8799L32.3273 23.8996L32.0832 25.0996L29.0902 25.1194L28.8167 26.2749L31.6047 26.2848L31.3459 27.5243H28.4945L28.1625 29.1737L31.1164 29.1194L30.9358 30.3836L26.2436 30.3293L27.6938 23.8799ZM20.7508 23.8601L22.4401 23.87L21.864 26.2404L24.2955 26.3046L24.8179 23.8799L26.4975 23.8996L25.0328 30.3638L23.3678 30.3737L24.0074 27.5342L21.5759 27.5145L20.907 30.3787L19.247 30.3688L20.7508 23.8601ZM45.3783 30.354H46.9163L47.3411 28.6601H45.8031L45.3783 30.354Z"
      fill="black"
      fill-opacity="0.2"
    />
    <path
      d="M51.541 21.3911H65.7834V32.4035H51.541V21.3911ZM68.7178 21.3911H82.9602V32.4035H68.7178V21.3911Z"
      fill="black"
      fill-opacity="0.2"
    />
    <path
      d="M86.0117 21.3911H100.254V32.4035H86.0117V21.3911Z"
      fill="black"
      fill-opacity="0.2"
    />
    <path
      d="M103.666 21.3911H117.908V32.4035H103.666V21.3911Z"
      stroke="black"
      stroke-opacity="0.2"
      stroke-width="0.5"
      stroke-miterlimit="102.081"
    />
    <path
      d="M13.3197 27.4056H14.4231C14.4134 27.0204 14.6819 26.8278 15.2239 26.8278C15.6731 26.8377 15.927 26.9858 15.9758 27.2574C15.9758 27.613 15.9807 27.9488 15.9904 28.2797C15.7463 27.9932 15.2971 27.8303 14.638 27.7809C13.598 27.8797 13.0902 28.3686 13.1293 29.2426C13.1683 30.0081 13.7103 30.4179 14.7503 30.4574C15.2971 30.4821 15.717 30.3192 16.01 29.9488C16.0197 30.1068 16.0197 30.255 16.0197 30.4031H17.0353C17.0451 29.292 17.0451 28.1858 17.0451 27.0846C16.7912 26.5068 16.3615 26.2006 15.7658 26.1661C15.2434 26.1513 14.7259 26.1513 14.2083 26.1513C13.5638 26.334 13.2757 26.7537 13.3197 27.4056ZM8.57874 26.1266H9.6236C10.3999 26.1266 11.0395 26.7636 11.0395 27.534V28.4179H8.21255C8.09537 29.2871 8.31508 29.7118 8.86681 29.6871C9.06699 29.6772 9.28182 29.6772 9.49666 29.6772C9.86285 29.7118 10.0337 29.5093 10.024 29.0303H11.0444V29.055C11.0444 29.8303 10.4097 30.4624 9.62848 30.4624H8.58362C7.8073 30.4624 7.16768 29.8303 7.16768 29.055V27.534C7.16768 26.7587 7.80241 26.1266 8.57874 26.1266ZM2.08984 24.3587V30.3587H5.53203C6.4646 30.4229 6.94309 29.8895 6.95774 28.7784C6.9968 28.0031 6.68431 27.4945 6.00076 27.2723C6.53784 27.1686 6.82591 26.7093 6.85032 25.8895C6.79173 24.9167 6.25953 24.3982 5.25373 24.334C4.18445 24.3389 3.12006 24.3439 2.08984 24.3587Z"
      fill="black"
      fill-opacity="0.2"
    />
    <path
      d="M3.23242 25.3663V26.8972C3.82809 26.8873 4.3847 26.8873 4.94131 26.8873C5.42468 26.8972 5.65904 26.6503 5.65416 26.1663C5.62975 25.7268 5.42468 25.47 5.03896 25.396C4.43841 25.396 3.83297 25.391 3.23242 25.3663ZM3.23242 27.7565V29.4256C3.86715 29.4157 4.4677 29.4157 5.06337 29.4157C5.58092 29.4256 5.82993 29.1589 5.82505 28.6305C5.80064 28.1515 5.58092 27.875 5.16591 27.791C4.52141 27.791 3.87692 27.7812 3.23242 27.7565ZM10.0192 27.8305C10.0729 27.1787 9.78967 26.8676 9.15982 26.8873C8.45674 26.8824 8.14426 27.2034 8.21261 27.8454C8.81316 27.8207 9.4186 27.8207 10.0192 27.8305ZM15.9905 28.9417C15.7854 28.5762 15.3362 28.4528 14.6429 28.5762C14.2572 28.7441 14.1107 29.0058 14.1986 29.3565C14.3011 29.796 14.765 29.9244 15.6048 29.717C15.9124 29.5935 16.0393 29.3367 15.9905 28.9417ZM120.452 15.8108C121.292 15.796 121.981 16.4676 122 17.317C122.015 18.1663 121.351 18.8626 120.511 18.8824C120.491 18.8824 120.472 18.8824 120.457 18.8824C119.618 18.8676 118.953 18.1663 118.968 17.3219C118.978 16.4923 119.632 15.8256 120.452 15.8108Z"
      fill="white"
    />
    <path
      d="M120.452 16.0381C121.164 16.0381 121.745 16.6257 121.745 17.3467C121.745 18.0677 121.164 18.6554 120.452 18.6554C119.739 18.6356 119.172 18.0331 119.192 17.3122C119.211 16.6109 119.763 16.0529 120.452 16.0381Z"
      fill="white"
      stroke="black"
      stroke-opacity="0.2"
      stroke-width="0.3"
      stroke-miterlimit="102.081"
    />
    <path
      d="M119.936 17.9836V16.5317H120.575C120.702 16.5317 120.8 16.5416 120.868 16.5712C120.936 16.5959 120.985 16.6453 121.029 16.7095C121.068 16.7737 121.088 16.8527 121.088 16.9268C121.093 17.0256 121.054 17.1194 120.99 17.1885C120.927 17.2577 120.819 17.3021 120.683 17.3219C120.736 17.3466 120.77 17.3712 120.795 17.3959C120.853 17.4503 120.907 17.5145 120.956 17.5885L121.205 17.9836H120.966L120.775 17.6774C120.731 17.6083 120.687 17.5441 120.639 17.4799C120.609 17.4404 120.58 17.4108 120.541 17.3811C120.517 17.3614 120.487 17.3515 120.453 17.3416C120.419 17.3367 120.38 17.3367 120.346 17.3367H120.126V17.9787L119.936 17.9836Z"
      fill="black"
      fill-opacity="0.2"
    />
    <path
      d="M120.125 17.169H120.535C120.603 17.1739 120.672 17.1641 120.74 17.1394C120.784 17.1246 120.823 17.0949 120.852 17.0554C120.877 17.0159 120.892 16.9715 120.892 16.9221C120.892 16.8579 120.867 16.7937 120.818 16.7542C120.769 16.7097 120.691 16.6851 120.584 16.6851H120.125V17.169Z"
      fill="white"
    />
  </g>
  <defs>
    <clipPath id="clip0_3750_268292">
      <rect
        width="122"
        height="32"
        fill="white"
        transform="translate(0 0.531738)"
      />
    </clipPath>
  </defs>
</svg>
