<svg viewBox="0 0 41 41" fill="none" xmlns="http://www.w3.org/2000/svg">
  <path
    d="M20.0228 24.9601C22.9695 24.9601 25.3561 22.5734 25.3561 19.6268V12.2934C25.3561 9.34675 22.9695 6.96008 20.0228 6.96008C17.0761 6.96008 14.6895 9.34675 14.6895 12.2934V19.6268C14.6895 22.5734 17.0761 24.9601 20.0228 24.9601Z"
    stroke="currentColor"
    stroke-width="1.5"
    stroke-linecap="round"
    stroke-linejoin="round"
  />
  <path
    d="M9.81934 17.16V19.4266C9.81934 25.0533 14.3927 29.6266 20.0193 29.6266C25.646 29.6266 30.2193 25.0533 30.2193 19.4266V17.16"
    stroke="currentColor"
    stroke-width="1.5"
    stroke-linecap="round"
    stroke-linejoin="round"
  />
  <path
    d="M18.166 12.8665C19.366 12.4265 20.6727 12.4265 21.8727 12.8665"
    stroke="currentColor"
    stroke-width="1.5"
    stroke-linecap="round"
    stroke-linejoin="round"
  />
  <path
    d="M18.9521 15.6932C19.6588 15.5066 20.3921 15.5066 21.0988 15.6932"
    stroke="currentColor"
    stroke-width="1.5"
    stroke-linecap="round"
    stroke-linejoin="round"
  />
  <path
    d="M20.0205 29.6265V33.6265"
    stroke="currentColor"
    stroke-width="1.5"
    stroke-linecap="round"
    stroke-linejoin="round"
  />
</svg>
