<svg viewBox="0 0 17 17" fill="none" xmlns="http://www.w3.org/2000/svg">
  <path
    fill-rule="evenodd"
    clip-rule="evenodd"
    d="M1.68256 0.5C1.02961 0.5 0.5 1.01348 0.5 1.64615V15.3543C0.5 15.9869 1.02961 16.5 1.68256 16.5H15.3174C15.9706 16.5 16.5 15.9869 16.5 15.3541V1.64615C16.5 1.01348 15.9706 0.5 15.3174 0.5H1.68256ZM6.0982 7.13375V15.2305H3.42685V7.13375H6.0982ZM6.2742 4.62971C6.2742 5.40669 5.69437 6.02847 4.76299 6.02847H4.76276H4.74548C3.84889 6.02847 3.26929 5.40669 3.26929 4.62971C3.26929 3.83509 3.86639 3.23071 4.78073 3.23071C5.69437 3.23071 6.2567 3.83509 6.2742 4.62971ZM10.2478 15.2305H7.57673C7.57696 15.1828 7.61163 7.89108 7.57696 7.13398H10.2481V8.2802C10.6031 7.72858 11.2386 6.94397 12.6556 6.94397C14.4131 6.94397 15.7308 8.10122 15.7308 10.5881V15.2305H13.0597V10.8994C13.0597 9.81087 12.6729 9.06845 11.7065 9.06845C10.9684 9.06845 10.5289 9.56911 10.3358 10.0528C10.2653 10.2255 10.2478 10.4677 10.2478 10.7094V15.2305ZM7.57673 15.2307V15.2305C7.57673 15.2306 7.57673 15.2307 7.57673 15.2307Z"
    fill="white"
  />
</svg>
