@@ -0,0 +1,148 @@
<svg viewBox="0 0 223 48" fill="none" xmlns="http://www.w3.org/2000/svg">
  <rect
    x="12.4121"
    y="17.0803"
    width="2.0759"
    height="19.9806"
    rx="1.03795"
    fill="#659EEA"
  />
  <rect
    x="12.4121"
    y="17.0708"
    width="2.0759"
    height="10.4985"
    rx="1.03795"
    fill="#AED0FF"
  />
  <rect
    x="8.26038"
    y="22.584"
    width="2.0759"
    height="11.784"
    rx="1.03795"
    fill="#659EEA"
  />
  <rect
    x="8.26038"
    y="22.5854"
    width="2.0759"
    height="9.21297"
    rx="1.03795"
    fill="#AED0FF"
  />
  <rect
    x="4.10852"
    y="21.9985"
    width="2.0759"
    height="7.49893"
    rx="1.03795"
    fill="#659EEA"
  />
  <rect
    x="4.10852"
    y="23.9272"
    width="2.0759"
    height="5.57063"
    rx="1.03795"
    fill="#AED0FF"
  />
  <rect
    x="16.5641"
    y="11.5007"
    width="2.0759"
    height="22.9253"
    rx="1.03795"
    fill="#659EEA"
  />
  <rect
    x="16.564"
    y="11.5007"
    width="2.0759"
    height="20.3542"
    rx="1.03795"
    fill="#AED0FF"
  />
  <rect
    x="20.7157"
    y="15.7827"
    width="2.0759"
    height="25.1703"
    rx="1.03795"
    fill="#003884"
  />
  <rect
    x="24.8676"
    y="6.70068"
    width="2.0759"
    height="26.1391"
    rx="1.03795"
    fill="#003884"
  />
  <rect
    x="28.9155"
    y="18.1182"
    width="2.0759"
    height="14.7836"
    rx="1.03795"
    fill="#003884"
  />
  <rect
    x="33.1711"
    y="23.0483"
    width="2.0759"
    height="8.78446"
    rx="1.03795"
    fill="#003884"
  />
  <path
    fill-rule="evenodd"
    clip-rule="evenodd"
    d="M30.9655 19.1562C30.9655 18.6568 30.6098 18.2282 30.1189 18.1361C29.628 18.044 29.1412 18.3145 28.9601 18.78L28.8138 19.1562L30.9655 19.1562ZM30.9655 24.346H26.7956L22.7916 34.642V24.346H20.7157V40.1747C20.7157 40.6742 21.0714 41.1028 21.5623 41.1949C22.0531 41.287 22.54 41.0164 22.721 40.5509L28.8896 24.689V32.1306C28.8896 32.5952 29.1983 33.0032 29.6453 33.1295C30.0924 33.2558 30.5689 33.0696 30.812 32.6737L35.0492 25.7732H41.4747C42.048 25.7732 42.5127 25.3085 42.5127 24.7352C42.5127 24.162 42.048 23.6973 41.4747 23.6973H34.4686C34.1078 23.6973 33.7728 23.8846 33.584 24.1921L30.9655 28.4566V24.346Z"
    fill="#6BA5FF"
  />
  <path
    d="M51 13.9465H54.5162L65.1249 30.0549V13.9465H67.6794V33.4509H64.1632L53.5545 17.072V33.4509H51V13.9465Z"
    fill="white"
  />
  <path
    d="M79.1994 33.7514C77.9171 33.7514 76.9554 33.7014 76.3143 33.6012C75.6732 33.521 75.0321 33.3307 74.3909 33.0302C73.7298 32.7296 73.2489 32.2488 72.9484 31.5876C72.6478 30.9064 72.4976 29.9948 72.4976 28.8528V23.8039C72.4976 22.9023 72.6078 22.1109 72.8282 21.4297C73.0486 20.7485 73.3391 20.2176 73.6997 19.8369C74.0002 19.4963 74.451 19.2359 75.0521 19.0555C75.6732 18.8552 76.3043 18.725 76.9454 18.6648C77.6667 18.6248 78.418 18.6047 79.1994 18.6047C80.2412 18.6047 81.0226 18.6348 81.5435 18.6949C82.0845 18.735 82.6555 18.8351 83.2565 18.9954C83.8776 19.1757 84.3585 19.4462 84.6991 19.8069C85.0397 20.1675 85.3302 20.6884 85.5706 21.3696C85.791 22.0709 85.9012 22.8823 85.9012 23.8039V28.8528C85.9012 30.5558 85.5105 31.798 84.7291 32.5794C84.4086 32.8999 83.9478 33.1504 83.3467 33.3307C82.7457 33.511 82.1246 33.6312 81.4834 33.6913C80.7221 33.7314 79.9607 33.7514 79.1994 33.7514ZM79.1994 31.9783C80.0409 31.9783 80.652 31.9583 81.0326 31.9182C81.4133 31.8781 81.784 31.7679 82.1446 31.5876C82.5052 31.4273 82.7557 31.1669 82.8959 30.8063C83.0562 30.4256 83.1363 29.9047 83.1363 29.2435V23.3531C83.1363 22.4515 83.0261 21.8004 82.8058 21.3997C82.5854 20.9789 82.2047 20.7084 81.6637 20.5882C81.1428 20.448 80.3214 20.3779 79.1994 20.3779C78.0774 20.3779 77.246 20.448 76.705 20.5882C76.1841 20.7084 75.8134 20.9789 75.593 21.3997C75.3727 21.8004 75.2625 22.4515 75.2625 23.3531V29.2435C75.2625 29.9047 75.3326 30.4256 75.4728 30.8063C75.6331 31.1669 75.8936 31.4273 76.2542 31.5876C76.6148 31.7679 76.9855 31.8781 77.3662 31.9182C77.7468 31.9583 78.3579 31.9783 79.1994 31.9783Z"
    fill="white"
  />
  <path
    d="M90.6203 13.646H93.3251V16.471H90.6203V13.646ZM90.6203 18.9053H93.3251V33.4509H90.6203V18.9053Z"
    fill="white"
  />
  <path
    d="M119.089 33.7514C114.641 33.7514 112.418 32.2688 112.418 29.3036V23.5635C112.418 21.8004 112.918 20.5381 113.92 19.7768C114.942 18.9954 116.585 18.6047 118.849 18.6047C120.993 18.6047 122.535 18.9754 123.477 19.7167C124.439 20.458 124.92 21.7403 124.92 23.5635V26.7792H115.152V28.973C115.152 29.9748 115.503 30.6961 116.204 31.1368C116.905 31.5776 117.987 31.798 119.45 31.798C120.832 31.798 122.465 31.5576 124.349 31.0767V33.1504C122.505 33.5511 120.752 33.7514 119.089 33.7514ZM122.215 25.006V22.722C122.215 21.8404 121.944 21.2394 121.403 20.9188C120.882 20.5782 119.981 20.4079 118.699 20.4079C117.456 20.4079 116.555 20.5782 115.994 20.9188C115.433 21.2394 115.152 21.8404 115.152 22.722V25.006H122.215Z"
    fill="white"
  />
  <path
    d="M137.15 13.9465H150.253V15.9901H140.065V22.3614H149.261V24.405H140.065V31.4073H150.554V33.4509H137.15V13.9465Z"
    fill="white"
  />
  <path
    d="M154.904 18.9053H157.458V21.2795C157.458 20.8186 157.658 20.3879 158.059 19.9872C158.46 19.5664 158.971 19.2359 159.592 18.9954C160.213 18.735 160.824 18.6047 161.425 18.6047H162.747V20.9188H161.245C159.962 20.9188 159.031 21.0891 158.45 21.4297C157.889 21.7503 157.608 22.3413 157.608 23.2028V33.4509H154.904V18.9053Z"
    fill="white"
  />
  <path
    d="M170.418 33.7514C169.036 33.7514 167.964 33.6212 167.203 33.3608C166.462 33.1003 165.921 32.6395 165.58 31.9783C165.259 31.3172 165.099 30.3655 165.099 29.1233C165.099 28.0213 165.249 27.1698 165.55 26.5688C165.87 25.9477 166.401 25.5069 167.143 25.2464C167.904 24.986 168.976 24.8558 170.358 24.8558H174.716V22.5417C174.716 22.0007 174.606 21.59 174.385 21.3095C174.185 21.009 173.835 20.7986 173.334 20.6784C172.853 20.5582 172.142 20.4981 171.2 20.4981C169.697 20.4981 168.034 20.6183 166.211 20.8587V18.8752C168.195 18.6949 169.988 18.6047 171.591 18.6047C173.274 18.6047 174.516 18.735 175.317 18.9954C176.119 19.2359 176.67 19.6666 176.97 20.2877C177.271 20.9088 177.421 21.8705 177.421 23.1728V33.4509H174.806V32.0685C174.586 33.1905 173.123 33.7514 170.418 33.7514ZM170.869 31.9783C171.851 31.9783 172.682 31.9082 173.364 31.7679C174.265 31.5876 174.716 31.1669 174.716 30.5057V26.5387H170.539C169.677 26.5387 169.056 26.6089 168.675 26.7491C168.295 26.8693 168.044 27.1097 167.924 27.4704C167.804 27.831 167.744 28.412 167.744 29.2134C167.744 29.9347 167.814 30.4957 167.954 30.8964C168.094 31.2771 168.345 31.5576 168.705 31.7379C169.066 31.8982 169.607 31.9783 170.328 31.9783H170.869Z"
    fill="white"
  />
  <path
    d="M187.06 33.7514C185.518 33.7514 183.855 33.6312 182.072 33.3908V31.3172C184.416 31.6978 186.099 31.8882 187.121 31.8882C188.403 31.8882 189.324 31.7679 189.885 31.5275C190.446 31.2671 190.727 30.7962 190.727 30.115V28.6424C190.727 28.0213 190.517 27.5806 190.096 27.3201C189.675 27.0596 188.994 26.9294 188.052 26.9294H186.399C184.897 26.9294 183.745 26.6189 182.943 25.9978C182.162 25.3767 181.771 24.5051 181.771 23.3832V22.0308C181.771 19.7468 183.935 18.6047 188.263 18.6047C188.583 18.6047 190.056 18.6849 192.68 18.8452V20.7986C190.897 20.5181 189.385 20.3779 188.142 20.3779C186.72 20.3779 185.748 20.5181 185.227 20.7986C184.706 21.0791 184.446 21.5499 184.446 22.2111V23.4433C184.446 24.425 185.337 24.9159 187.121 24.9159H188.803C191.869 24.9159 193.402 26.0579 193.402 28.3419V29.6041C193.402 31.1068 192.881 32.1787 191.839 32.8198C190.797 33.4409 189.204 33.7514 187.06 33.7514Z"
    fill="white"
  />
  <path
    d="M203.772 33.7514C199.324 33.7514 197.1 32.2688 197.1 29.3036V23.5635C197.1 21.8004 197.601 20.5381 198.603 19.7768C199.625 18.9954 201.267 18.6047 203.531 18.6047C205.675 18.6047 207.218 18.9754 208.16 19.7167C209.121 20.458 209.602 21.7403 209.602 23.5635V26.7792H199.835V28.973C199.835 29.9748 200.185 30.6961 200.887 31.1368C201.588 31.5776 202.67 31.798 204.132 31.798C205.515 31.798 207.148 31.5576 209.031 31.0767V33.1504C207.188 33.5511 205.435 33.7514 203.772 33.7514ZM206.897 25.006V22.722C206.897 21.8404 206.627 21.2394 206.086 20.9188C205.565 20.5782 204.663 20.4079 203.381 20.4079C202.139 20.4079 201.237 20.5782 200.676 20.9188C200.115 21.2394 199.835 21.8404 199.835 22.722V25.006H206.897Z"
    fill="white"
  />
  <path
    d="M214.225 18.9053H216.779V21.2795C216.779 20.8186 216.98 20.3879 217.38 19.9872C217.781 19.5664 218.292 19.2359 218.913 18.9954C219.534 18.735 220.145 18.6047 220.746 18.6047H222.069V20.9188H220.566C219.284 20.9188 218.352 21.0891 217.771 21.4297C217.21 21.7503 216.93 22.3413 216.93 23.2028V33.4509H214.225V18.9053Z"
    fill="white"
  />
  <path
    d="M103.122 33.7514C101.579 33.7514 99.9163 33.6312 98.1332 33.3908V31.3172C100.477 31.6978 102.16 31.8882 103.182 31.8882C104.464 31.8882 105.386 31.7679 105.947 31.5275C106.508 31.2671 106.788 30.7962 106.788 30.115V28.6424C106.788 28.0213 106.578 27.5806 106.157 27.3201C105.737 27.0596 105.055 26.9294 104.114 26.9294H102.461C100.958 26.9294 99.8061 26.6189 99.0047 25.9978C98.2233 25.3767 97.8326 24.5051 97.8326 23.3832V22.0308C97.8326 19.7467 99.9965 18.6047 104.324 18.6047C104.645 18.6047 106.117 18.6849 108.742 18.8452V20.7986C106.959 20.5181 105.446 20.3779 104.204 20.3779C102.781 20.3779 101.81 20.5181 101.289 20.7986C100.768 21.0791 100.507 21.5499 100.507 22.2111V23.4433C100.507 24.425 101.399 24.9159 103.182 24.9159H104.865C107.93 24.9159 109.463 26.0579 109.463 28.3419V29.6041C109.463 31.1068 108.942 32.1787 107.9 32.8198C106.859 33.4409 105.266 33.7514 103.122 33.7514Z"
    fill="white"
  />
</svg>
