<svg viewBox="0 0 150 23" fill="none" xmlns="http://www.w3.org/2000/svg">
  <g clip-path="url(#clip0_312_2160)">
    <path
      d="M0.905273 2.65469C0.905273 4.02696 1.00467 4.55661 1.37741 5.01404C1.77499 5.49554 1.87439 6.07334 1.94894 8.16786C1.99863 10.1179 1.94894 10.6717 1.75014 10.3828C1.00467 9.39569 0.905273 9.99757 0.905273 16.1848V22.324L2.22228 22.2517L3.51443 22.1795L3.58898 17.3164C3.63867 12.694 3.61383 12.4051 3.14169 11.9476C2.71926 11.5384 2.64471 11.1532 2.64471 9.03457V6.60299L4.03626 8.36047C4.80658 9.34754 5.85024 10.5754 6.37208 11.105C6.89391 11.6347 8.33515 13.3199 9.60246 14.8366C10.8698 16.3534 12.0128 17.6053 12.1619 17.6053C12.4104 17.6053 16.5354 12.8866 19.716 8.96234L21.6543 6.60299L21.7288 8.93827C21.7785 11.0328 21.7288 11.3458 21.2815 11.8273C20.8094 12.3088 20.7846 12.6458 20.7846 17.3164V22.2999H22.1513H23.518V16.1608C23.518 9.85312 23.4434 9.46792 22.5737 10.3105C22.35 10.5272 22.2755 10.0698 22.2755 8.21601C22.2755 6.07334 22.3252 5.78444 22.8967 5.06219C23.4186 4.38809 23.518 4.02696 23.518 2.58246C23.518 1.11389 23.4683 0.873135 23.0955 0.873135C22.8222 0.873135 21.6046 2.14911 20.0639 4.02696C16.6596 8.16786 12.3856 13.1514 12.1868 13.2236C12.1122 13.2477 11.5655 12.718 10.994 12.0199C6.17328 6.16964 1.55135 0.873135 1.25316 0.873135C0.979821 0.873135 0.905273 1.25834 0.905273 2.65469Z"
      fill="black"
      fill-opacity="0.2"
    />
    <path
      d="M29.1583 1.04156C29.0589 1.11379 28.9844 5.95287 28.9844 11.7549V22.2998H35.8427H42.6762L42.6017 21.0238L42.5271 19.7719L37.2591 19.6997L31.9663 19.6516V15.7995V11.9475H33.5815C35.0476 11.9475 35.1966 11.9957 35.1966 12.429C35.1966 12.9105 35.3209 12.9346 37.8804 12.8624L40.5392 12.7902V11.5864V10.3827L37.8804 10.3104L35.1966 10.2382V10.8642C35.1966 11.442 35.147 11.466 33.5815 11.466H31.9663V7.49367V3.52129L37.2591 3.47314L42.5271 3.40092L42.6017 2.12494L42.6762 0.873039H35.9918C32.3142 0.873039 29.2329 0.945263 29.1583 1.04156Z"
      fill="black"
      fill-opacity="0.2"
    />
    <path
      d="M47.9193 2.12494L47.9938 3.40092L51.4727 3.52129L54.9516 3.64167V5.15839C54.9516 6.41029 54.877 6.65104 54.5291 6.65104C54.1067 6.65104 54.0818 7.18069 54.0818 14.4754V22.2998H55.4486H56.8153V14.4754V6.65104H56.194C55.5976 6.65104 55.5728 6.60289 55.5728 5.08617V3.54537L59.2505 3.47314L62.9033 3.40092V2.19716V0.993414L55.374 0.921188L47.8447 0.873039L47.9193 2.12494Z"
      fill="black"
      fill-opacity="0.2"
    />
    <path
      d="M70.7061 4.38799C69.7618 6.33807 68.1466 9.56412 67.1526 11.5623C66.1338 13.5606 65.2393 15.4384 65.1399 15.7273C65.0653 16.0403 64.3696 17.533 63.6241 19.0497C62.8786 20.5664 62.2822 21.9387 62.2822 22.0591C62.2822 22.2035 62.9283 22.2998 63.7235 22.2998H65.1896L66.2581 20.0608C70.557 11.2253 73.514 5.61582 73.7377 5.95287C73.8619 6.14547 74.2595 6.81957 74.6322 7.49367C75.1789 8.50482 75.2286 8.79372 75.005 9.37152C74.6819 10.166 74.5328 9.7808 78.1111 17.1237L80.5712 22.1794L82.1118 22.2517C83.2797 22.2998 83.6524 22.2517 83.6524 21.9868C83.6524 21.8183 82.5342 19.4108 81.1427 16.6422C79.776 13.8495 78.1856 10.6475 77.6141 9.46782C76.6202 7.39737 76.1977 7.01217 75.7504 7.75849C75.6013 8.02332 75.3529 7.71034 74.7565 6.38622C73.9862 4.74912 73.9862 4.62874 74.334 3.93056C74.7068 3.23239 74.6819 3.11201 74.1352 2.07679C73.7625 1.35454 73.3649 0.969339 73.017 0.921188C72.5201 0.848963 72.2467 1.25824 70.7061 4.38799Z"
      fill="black"
      fill-opacity="0.2"
    />
    <path
      d="M89.045 1.04156C88.8214 1.23416 88.8214 21.409 89.0201 21.9146C89.1444 22.2517 89.9893 22.2998 95.8537 22.2998H102.538V20.9757V19.6516H97.27H91.9772V15.6792V11.7068H93.6421C95.1579 11.7068 95.307 11.7549 95.3815 12.2364C95.4561 12.7661 95.5803 12.7902 98.0155 12.8624L100.55 12.9346V11.5864V10.2623H97.941C95.5058 10.2623 95.3318 10.2864 95.3318 10.7438C95.3318 11.1771 95.1579 11.2253 93.7166 11.2253H92.1263L92.0517 7.37329L91.9772 3.52129L97.1955 3.47314L102.414 3.40092L102.488 2.12494L102.563 0.873039H95.8785C92.2008 0.873039 89.1195 0.945263 89.045 1.04156Z"
      fill="black"
      fill-opacity="0.2"
    />
    <path
      d="M107.881 1.16195C107.806 1.33048 107.781 4.7732 107.806 8.81781L107.881 16.1607L108.452 16.2329C108.949 16.3051 108.999 16.4255 108.999 17.9663C108.999 19.5071 108.974 19.6034 108.353 19.7479C107.781 19.8923 107.732 19.9886 107.806 21.0479L107.881 22.1794H113.472H119.063L120.43 21.4813C123.461 19.9405 125.524 17.6293 126.418 14.7884C127.213 12.2846 127.039 9.27523 125.946 7.06033C125.002 5.06211 122.666 2.70275 120.678 1.6916L119.311 0.993427L113.646 0.921202C109.123 0.848978 107.98 0.897127 107.881 1.16195ZM119.311 4.2917C120.852 5.06211 122.517 6.77143 123.238 8.28816C123.66 9.17893 123.784 9.87711 123.784 11.5864C123.784 13.4884 123.685 13.8976 123.088 15.0292C122.094 16.8348 120.852 18.0867 119.237 18.8571C117.895 19.483 117.572 19.5312 113.795 19.6034L109.744 19.6997V17.9904C109.744 16.4496 109.794 16.2811 110.241 16.2811C110.714 16.2811 110.738 16.1125 110.738 9.87711V3.47315L114.416 3.56945C117.796 3.64168 118.168 3.68983 119.311 4.2917Z"
      fill="black"
      fill-opacity="0.2"
    />
    <path
      d="M132.283 1.01767C132.009 1.2825 132.084 13.2959 132.357 15.1738C132.805 18.0628 134.743 20.8073 137.178 21.9148C138.271 22.4204 139.564 22.4204 139.564 21.9389C139.564 21.4092 142.67 21.4092 142.893 21.9389C143.192 22.7333 145.13 22.2518 146.944 20.9036C147.863 20.2536 149.826 17.5331 149.627 17.2442C149.553 17.1239 149.603 16.9794 149.727 16.8831C149.876 16.8109 149.975 13.633 150 8.7939V0.849144L148.708 0.92137L147.391 0.993595L147.267 8.48092L147.143 15.9683L146.397 17.1479C145.875 17.9665 145.204 18.5684 144.21 19.1462C143.291 19.6758 142.794 20.1092 142.794 20.3981C142.794 20.8073 142.595 20.8555 141.179 20.8555C139.738 20.8555 139.564 20.8073 139.564 20.374C139.564 20.061 139.241 19.748 138.644 19.4351C137.526 18.8813 136.582 17.9424 135.936 16.7627C135.513 16.0164 135.439 15.1256 135.339 8.45685L135.215 0.993595L133.848 0.92137C133.078 0.87322 132.382 0.92137 132.283 1.01767Z"
      fill="black"
      fill-opacity="0.2"
    />
  </g>
  <defs>
    <clipPath id="clip0_312_2160">
      <rect
        width="149.095"
        height="21.4268"
        fill="white"
        transform="translate(0.905273 0.873047)"
      />
    </clipPath>
  </defs>
</svg>
