<svg viewBox="0 0 150 22" fill="none" xmlns="http://www.w3.org/2000/svg">
  <path
    d="M0.897461 2.06582C0.897461 3.4381 0.996857 3.96774 1.36959 4.42517C1.76718 4.90667 1.86658 5.48447 1.94112 7.579C1.99082 9.52907 1.94112 10.0828 1.74233 9.7939C0.996857 8.80682 0.897461 9.4087 0.897461 15.596V21.7351L2.21446 21.6629L3.50662 21.5907L3.58116 16.7275C3.63086 12.1051 3.60601 11.8162 3.13388 11.3588C2.71145 10.9495 2.6369 10.5643 2.6369 8.4457V6.01412L4.02845 7.7716C4.79877 8.75867 5.84243 9.9865 6.36426 10.5161C6.88609 11.0458 8.32734 12.7311 9.59465 14.2478C10.8619 15.7645 12.005 17.0164 12.1541 17.0164C12.4026 17.0164 16.5275 12.2977 19.7082 8.37347L21.6465 6.01412L21.721 8.3494C21.7707 10.4439 21.721 10.7569 21.2737 11.2384C20.8016 11.7199 20.7767 12.057 20.7767 16.7275V21.711H22.1434H23.5101V15.5719C23.5101 9.26425 23.4356 8.87905 22.5659 9.72167C22.3422 9.93835 22.2677 9.48092 22.2677 7.62715C22.2677 5.48447 22.3174 5.19557 22.8889 4.47332C23.4107 3.79922 23.5101 3.4381 23.5101 1.99359C23.5101 0.525019 23.4604 0.284267 23.0877 0.284267C22.8144 0.284267 21.5968 1.56024 20.0561 3.4381C16.6518 7.579 12.3777 12.5625 12.179 12.6348C12.1044 12.6588 11.5577 12.1292 10.9862 11.431C6.16547 5.58077 1.54354 0.284267 1.24535 0.284267C0.972008 0.284267 0.897461 0.669468 0.897461 2.06582Z"
    fill="black"
  />
  <path
    d="M29.151 0.452696C29.0516 0.524921 28.9771 5.364 28.9771 11.1661V21.7109H35.8354H42.6689L42.5944 20.435L42.5198 19.1831L37.2518 19.1108L31.9589 19.0627V15.2107V11.3587H33.5741C35.0402 11.3587 35.1893 11.4068 35.1893 11.8402C35.1893 12.3217 35.3136 12.3458 37.873 12.2735L40.5319 12.2013V10.9976V9.7938L37.873 9.72158L35.1893 9.64935V10.2753C35.1893 10.8531 35.1396 10.8772 33.5741 10.8772H31.9589V6.9048V2.93242L37.2518 2.88427L42.5198 2.81205L42.5944 1.53607L42.6689 0.284172H35.9845C32.3068 0.284172 29.2255 0.356396 29.151 0.452696Z"
    fill="black"
  />
  <path
    d="M47.9119 1.53607L47.9865 2.81205L51.4654 2.93242L54.9442 3.0528V4.56952C54.9442 5.82143 54.8697 6.06218 54.5218 6.06218C54.0994 6.06218 54.0745 6.59183 54.0745 13.8866V21.7109H55.4412H56.8079V13.8866V6.06218H56.1867C55.5903 6.06218 55.5655 6.01403 55.5655 4.4973V2.9565L59.2431 2.88427L62.896 2.81205V1.6083V0.404547L55.3667 0.332321L47.8374 0.284172L47.9119 1.53607Z"
    fill="black"
  />
  <path
    d="M70.6987 3.79912C69.7545 5.7492 68.1393 8.97525 67.1453 10.9735C66.1265 12.9717 65.2319 14.8496 65.1325 15.1385C65.058 15.4514 64.3622 16.9441 63.6168 18.4608C62.8713 19.9775 62.2749 21.3498 62.2749 21.4702C62.2749 21.6146 62.921 21.7109 63.7161 21.7109H65.1822L66.2508 19.472C70.5497 10.6364 73.5067 5.02695 73.7303 5.364C73.8546 5.5566 74.2522 6.2307 74.6249 6.9048C75.1716 7.91595 75.2213 8.20485 74.9976 8.78265C74.6746 9.57713 74.5255 9.19193 78.1038 16.5348L80.5638 21.5906L82.1045 21.6628C83.2724 21.7109 83.6451 21.6628 83.6451 21.398C83.6451 21.2294 82.5269 18.8219 81.1354 16.0533C79.7687 13.2606 78.1783 10.0586 77.6068 8.87895C76.6128 6.8085 76.1904 6.4233 75.7431 7.16963C75.594 7.43445 75.3455 7.12148 74.7491 5.79735C73.9788 4.16025 73.9788 4.03988 74.3267 3.3417C74.6995 2.64352 74.6746 2.52315 74.1279 1.48792C73.7552 0.765671 73.3576 0.380472 73.0097 0.332321C72.5127 0.260096 72.2394 0.669371 70.6987 3.79912Z"
    fill="black"
  />
  <path
    d="M89.0372 0.452696C88.8135 0.645296 88.8135 20.8202 89.0123 21.3257C89.1366 21.6628 89.9815 21.7109 95.8458 21.7109H102.53V20.3868V19.0627H97.2622H91.9694V15.0903V11.1179H93.6343C95.1501 11.1179 95.2992 11.1661 95.3737 11.6476C95.4483 12.1772 95.5725 12.2013 98.0077 12.2735L100.542 12.3458V10.9976V9.67343H97.9332C95.498 9.67343 95.324 9.6975 95.324 10.1549C95.324 10.5883 95.1501 10.6364 93.7088 10.6364H92.1185L92.0439 6.78443L91.9694 2.93242L97.1877 2.88427L102.406 2.81205L102.481 1.53607L102.555 0.284172H95.8707C92.193 0.284172 89.1117 0.356396 89.0372 0.452696Z"
    fill="black"
  />
  <path
    d="M107.873 0.573086C107.798 0.74161 107.774 4.18434 107.798 8.22894L107.873 15.5718L108.444 15.644C108.941 15.7163 108.991 15.8366 108.991 17.3774C108.991 18.9182 108.966 19.0145 108.345 19.159C107.774 19.3034 107.724 19.3997 107.798 20.4591L107.873 21.5906H113.464H119.055L120.422 20.8924C123.453 19.3516 125.516 17.0404 126.41 14.1995C127.206 11.6957 127.032 8.68637 125.938 6.47147C124.994 4.47324 122.658 2.11389 120.67 1.10274L119.304 0.40456L113.638 0.332335C109.115 0.260111 107.972 0.30826 107.873 0.573086ZM119.304 3.70284C120.844 4.47324 122.509 6.18256 123.23 7.69929C123.652 8.59007 123.776 9.28824 123.776 10.9976C123.776 12.8995 123.677 13.3088 123.081 14.4403C122.087 16.2459 120.844 17.4978 119.229 18.2682C117.887 18.8942 117.564 18.9423 113.787 19.0145L109.737 19.1108V17.4015C109.737 15.8607 109.786 15.6922 110.234 15.6922C110.706 15.6922 110.731 15.5237 110.731 9.28824V2.88429L114.408 2.98059C117.788 3.05281 118.16 3.10096 119.304 3.70284Z"
    fill="black"
  />
  <path
    d="M132.275 0.428802C132.001 0.693628 132.076 12.7071 132.349 14.5849C132.796 17.4739 134.735 20.2185 137.17 21.3259C138.263 21.8315 139.555 21.8315 139.555 21.35C139.555 20.8203 142.661 20.8203 142.885 21.35C143.183 22.1445 145.122 21.663 146.935 20.3148C147.855 19.6647 149.818 16.9443 149.619 16.6554C149.545 16.535 149.594 16.3905 149.719 16.2942C149.868 16.222 149.967 13.0441 149.992 8.20503V0.260277L148.7 0.332502L147.383 0.404728L147.259 7.89206L147.134 15.3794L146.389 16.5591C145.867 17.3776 145.196 17.9795 144.202 18.5573C143.283 19.0869 142.786 19.5203 142.786 19.8092C142.786 20.2185 142.587 20.2666 141.171 20.2666C139.729 20.2666 139.555 20.2185 139.555 19.7851C139.555 19.4721 139.232 19.1592 138.636 18.8462C137.518 18.2925 136.573 17.3535 135.927 16.1739C135.505 15.4275 135.43 14.5368 135.331 7.86798L135.207 0.404728L133.84 0.332502C133.07 0.284353 132.374 0.332502 132.275 0.428802Z"
    fill="black"
  />
</svg>
