<svg viewBox="0 0 148 65" fill="none" xmlns="http://www.w3.org/2000/svg">
  <path
    d="M56.2757 46.2092C62.2037 57.162 81.4491 56.0411 86.6098 40"
    stroke="white"
    stroke-width="2"
    stroke-linecap="round"
  />
  <path
    d="M24.0005 21.4995L32.5005 9.49951L17.5005 80.9995L8.50049 94.4995L6.00049 93.4995L24.0005 21.4995Z"
    fill="url(#paint0_linear_1322_44292)"
  />
  <path
    d="M6.00049 93.9995L19.0005 40.4995L26.5005 37.4995L15.5005 84.9995L8.50049 94.9995L6.00049 93.9995Z"
    fill="url(#paint1_linear_1322_44292)"
  />
  <path
    d="M20.6656 44.7988C20.9298 46.3095 10.5798 54.4538 1.99977 18.0477"
    stroke="white"
    stroke-width="2"
    stroke-linecap="round"
  />
  <path
    d="M14.8759 82.3328C19.4833 68.0719 29.3689 22.845 31.9504 10.9104C32.3012 9.28863 33.8941 8.28398 35.5159 8.63441L62.6002 14.4867C64.243 14.8416 65.2797 16.4507 64.8908 18.0857C62.2525 29.1778 52.8254 68.7379 47.8417 88.6724C46.8158 92.7764 43.3853 97.7602 41.5956 100.167C40.9285 101.064 39.8011 101.464 38.7061 101.238L7.88634 94.8931C7.09303 94.7298 6.79842 93.7288 7.36015 93.1453C9.51236 90.9097 13.5916 86.3082 14.8759 82.3328Z"
    fill="url(#paint2_linear_1322_44292)"
    stroke="url(#paint3_linear_1322_44292)"
  />
  <path
    d="M26.0005 37.3328C28.9287 25.3833 31.0767 15.6174 32.0766 10.9566C32.4265 9.32568 34.0321 8.28689 35.6625 8.63917L62.895 14.5234C64.4708 14.8639 65.4747 16.3824 65.1309 17.9574C64.3549 21.5122 62.6302 29.017 58.9663 43.6724L26.0005 37.3328Z"
    fill="url(#paint4_linear_1322_44292)"
    stroke="white"
  />
  <path
    d="M32.502 8.99951C32.502 8.99951 25.5264 17.0451 23.7513 22.3703C21.9762 27.6955 6.00049 93.8808 6.00049 93.8808"
    stroke="white"
    stroke-linecap="round"
  />
  <path
    d="M52.2762 23.4351C52.0975 23.9926 52.3581 24.5563 52.8584 24.6942C53.3586 24.8322 53.9089 24.4921 54.0876 23.9346C54.2663 23.3772 54.0056 22.8135 53.5054 22.6755C53.0052 22.5376 52.4548 22.8777 52.2762 23.4351Z"
    fill="#595A5E"
  />
  <ellipse
    rx="1.12773"
    ry="1.07675"
    transform="matrix(-0.977551 -0.269556 -0.300461 0.937399 43.3338 22.2268)"
    fill="#595A5E"
  />
  <path
    d="M52.3519 31.9092C52.3468 31.9347 52.3121 32.0249 52.1708 32.1755C52.0366 32.3184 51.8384 32.4814 51.5771 32.6549C51.0554 33.0011 50.3298 33.3571 49.4912 33.658C47.8032 34.2636 45.7581 34.6107 44.113 34.2807C42.5376 33.9646 41.8344 33.0694 41.5229 32.1182C41.1984 31.1274 41.2961 30.0494 41.4142 29.4609C41.4373 29.3459 41.5365 29.1828 41.8466 29.0123C42.154 28.8433 42.608 28.7037 43.1963 28.618C44.3682 28.4473 45.9616 28.5062 47.6895 28.8529C49.406 29.1972 50.6541 29.7683 51.4292 30.3724C52.2272 30.9943 52.4225 31.5575 52.3519 31.9092Z"
    fill="#595A5E"
    stroke="#595A5E"
  />
  <path
    d="M82.5958 42.03L80.0581 32.1758L88.9801 30.9645L89.1616 41.1386C89.1887 42.6596 88.0731 43.9601 86.5657 44.1648L85.9046 44.2545C84.3972 44.4592 82.9752 43.5032 82.5958 42.03Z"
    fill="#DB580E"
  />
  <rect
    x="74.7671"
    y="22.4824"
    width="4.8771"
    height="7.12807"
    rx="2.43855"
    transform="rotate(-7.73153 74.7671 22.4824)"
    fill="#E5E5E5"
  />
  <circle
    cx="113.723"
    cy="20.7904"
    r="3.9392"
    transform="rotate(-7.73153 113.723 20.7904)"
    fill="#F8F4EE"
  />
  <path
    d="M91.6077 30.7971L89.8412 17.7858C89.8412 17.7858 94.7605 16.8415 97.6824 15.5854C103.017 13.2924 109.524 6.59501 109.524 6.59501L113.486 35.7775C113.486 35.7775 105.425 31.2952 99.7265 30.6413C96.576 30.2798 91.6077 30.7971 91.6077 30.7971Z"
    fill="#F8F4EE"
  />
  <path
    d="M76.3045 22.6509C76.0816 21.0092 77.2318 19.4975 78.8736 19.2746L90.0274 17.7603L91.7939 30.7716L80.6401 32.2859C78.9983 32.5088 77.4867 31.3586 77.2638 29.7168L76.3045 22.6509Z"
    fill="#FDA741"
  />
  <path
    d="M77.2127 29.3424C76.9898 27.7006 78.14 26.1889 79.7818 25.966L90.9356 24.4517L91.7936 30.7715L80.6398 32.2858C78.998 32.5087 77.4864 31.3585 77.2635 29.7167L77.2127 29.3424Z"
    fill="#FF780D"
  />
  <rect
    x="109.061"
    y="4.57568"
    width="2.25097"
    height="33.3894"
    rx="1.12549"
    transform="rotate(-7.73153 109.061 4.57568)"
    fill="#FE8943"
  />
  <path
    d="M111.18 20.189L113.411 19.8861L115.631 36.2432C115.715 36.8591 115.284 37.4262 114.668 37.5099C114.052 37.5935 113.485 37.162 113.401 36.546L111.18 20.189Z"
    fill="#FF7728"
  />
  <path
    d="M124.552 8.52973L133.291 3.17869L128.641 7.97455L130.904 10.6962L122.562 16.1827L127.372 11.1757L124.552 8.52973Z"
    fill="#F5C144"
  />
  <path
    d="M135.714 17.6636L145.551 20.5339L138.875 20.3172L138.382 23.8219L128.712 21.3365L135.652 21.5302L135.714 17.6636Z"
    fill="#F5C144"
  />
  <path
    d="M131.663 30.0014L138.429 37.6964L132.909 33.9355L130.614 36.6301L123.782 29.3493L129.538 33.2324L131.663 30.0014Z"
    fill="#F5C144"
  />
  <defs>
    <linearGradient
      id="paint0_linear_1322_44292"
      x1="19.2505"
      y1="9.49951"
      x2="19.2505"
      y2="94.4995"
      gradientUnits="userSpaceOnUse"
    >
      <stop stop-color="#E2E2E2" />
      <stop offset="0.40625" stop-color="#E2E2E2" />
    </linearGradient>
    <linearGradient
      id="paint1_linear_1322_44292"
      x1="19.2505"
      y1="9.49952"
      x2="19.2505"
      y2="94.4995"
      gradientUnits="userSpaceOnUse"
    >
      <stop stop-color="#F8C856" />
      <stop offset="1" stop-color="#ECB52F" />
    </linearGradient>
    <linearGradient
      id="paint2_linear_1322_44292"
      x1="35.7965"
      y1="7.99951"
      x2="35.7965"
      y2="101.605"
      gradientUnits="userSpaceOnUse"
    >
      <stop offset="0.427083" stop-color="#FFD56E" />
      <stop offset="1" stop-color="#EAB22B" />
    </linearGradient>
    <linearGradient
      id="paint3_linear_1322_44292"
      x1="35.7965"
      y1="7.99951"
      x2="35.7965"
      y2="101.605"
      gradientUnits="userSpaceOnUse"
    >
      <stop stop-color="white" />
      <stop offset="1" stop-color="white" />
    </linearGradient>
    <linearGradient
      id="paint4_linear_1322_44292"
      x1="45.8588"
      y1="7.99951"
      x2="45.8588"
      y2="43.6724"
      gradientUnits="userSpaceOnUse"
    >
      <stop stop-color="#F7F7F7" />
      <stop offset="1" stop-color="#F7F7F7" />
    </linearGradient>
  </defs>
</svg>
