<svg viewBox="0 0 24 24" fill="none" xmlns="http://www.w3.org/2000/svg">
  <rect
    x="0.5"
    y="0.5"
    width="23"
    height="23"
    rx="11.5"
    fill="url(#paint0_linear_3750_267212)"
  />
  <rect
    x="0.5"
    y="0.5"
    width="23"
    height="23"
    rx="11.5"
    stroke="url(#paint1_linear_3750_267212)"
  />
  <g clip-path="url(#clip0_3750_267212)">
    <g filter="url(#filter0_d_3750_267212)">
      <path
        d="M16.6798 16.08H7.3198C7.1218 16.08 6.9598 16.242 6.9598 16.44V17.16C6.9598 17.358 7.1218 17.52 7.3198 17.52H16.6798C16.8778 17.52 17.0398 17.358 17.0398 17.16V16.44C17.0398 16.242 16.8778 16.08 16.6798 16.08ZM18.1198 8.88C17.5236 8.88 17.0398 9.36375 17.0398 9.96C17.0398 10.1198 17.0758 10.2683 17.1388 10.4055L15.5098 11.382C15.1633 11.589 14.7156 11.472 14.5153 11.121L12.6816 7.9125C12.9223 7.7145 13.0798 7.4175 13.0798 7.08C13.0798 6.48375 12.5961 6 11.9998 6C11.4036 6 10.9198 6.48375 10.9198 7.08C10.9198 7.4175 11.0773 7.7145 11.3181 7.9125L9.4843 11.121C9.28405 11.472 8.83405 11.589 8.4898 11.382L6.86305 10.4055C6.9238 10.2705 6.96205 10.1198 6.96205 9.96C6.96205 9.36375 6.4783 8.88 5.88205 8.88C5.2858 8.88 4.7998 9.36375 4.7998 9.96C4.7998 10.5563 5.28355 11.04 5.8798 11.04C5.9383 11.04 5.9968 11.031 6.05305 11.022L7.6798 15.36H16.3198L17.9466 11.022C18.0028 11.031 18.0613 11.04 18.1198 11.04C18.7161 11.04 19.1998 10.5563 19.1998 9.96C19.1998 9.36375 18.7161 8.88 18.1198 8.88Z"
        fill="white"
      />
    </g>
  </g>
  <defs>
    <filter
      id="filter0_d_3750_267212"
      x="2.7998"
      y="4.1"
      width="18.4004"
      height="15.52"
      filterUnits="userSpaceOnUse"
      color-interpolation-filters="sRGB"
    >
      <feFlood flood-opacity="0" result="BackgroundImageFix" />
      <feColorMatrix
        in="SourceAlpha"
        type="matrix"
        values="0 0 0 0 0 0 0 0 0 0 0 0 0 0 0 0 0 0 127 0"
        result="hardAlpha"
      />
      <feOffset dy="0.1" />
      <feGaussianBlur stdDeviation="1" />
      <feComposite in2="hardAlpha" operator="out" />
      <feColorMatrix
        type="matrix"
        values="0 0 0 0 0.933333 0 0 0 0 0.61328 0 0 0 0 0.245 0 0 0 1 0"
      />
      <feBlend
        mode="normal"
        in2="BackgroundImageFix"
        result="effect1_dropShadow_3750_267212"
      />
      <feBlend
        mode="normal"
        in="SourceGraphic"
        in2="effect1_dropShadow_3750_267212"
        result="shape"
      />
    </filter>
    <linearGradient
      id="paint0_linear_3750_267212"
      x1="7.32203"
      y1="-3.23077"
      x2="26.387"
      y2="4.87594"
      gradientUnits="userSpaceOnUse"
    >
      <stop stop-color="#FFC23D" />
      <stop offset="0.502525" stop-color="#FFA985" />
      <stop offset="1" stop-color="#FF849A" />
    </linearGradient>
    <linearGradient
      id="paint1_linear_3750_267212"
      x1="-2.23729"
      y1="-3.23077"
      x2="27.5343"
      y2="3.11746"
      gradientUnits="userSpaceOnUse"
    >
      <stop stop-color="#FF2DD1" />
      <stop offset="0.182292" stop-color="#FF7DCB" />
      <stop offset="0.467136" stop-color="#DB74FF" />
      <stop offset="0.724649" stop-color="#FFA12E" />
      <stop offset="0.853143" stop-color="#FF69DB" />
      <stop offset="1" stop-color="#E176F8" />
    </linearGradient>
    <clipPath id="clip0_3750_267212">
      <rect
        width="14.4"
        height="14.4"
        fill="white"
        transform="translate(4.7998 4.79999)"
      />
    </clipPath>
  </defs>
</svg>
