<svg viewBox="0 0 17 14" fill="none" xmlns="http://www.w3.org/2000/svg">
  <path
    d="M17 -9.53674e-07L17 3.68421C17 4.80312 16.8158 5.99025 16.4473 7.24561C16.0661 8.51462 15.5198 9.73587 14.8083 10.9094C14.0841 12.0965 13.2138 13.1267 12.1973 14L9.75785 11.8713C10.5583 10.6433 11.2571 9.36062 11.8543 8.02339C12.4387 6.69981 12.7309 5.2807 12.7309 3.76608L12.7309 -5.80461e-07L17 -9.53674e-07ZM7.24215 -1.00616e-07L7.24215 3.68421C7.24215 4.80312 7.05792 5.99026 6.68946 7.24562C6.3083 8.51462 5.76196 9.73587 5.05045 10.9094C4.32623 12.0965 3.4559 13.1267 2.43946 14L-1.86093e-07 11.8713C0.800449 10.6433 1.49925 9.36062 2.09641 8.02339C2.68087 6.69981 2.97309 5.2807 2.97309 3.76608L2.97309 2.72597e-07L7.24215 -1.00616e-07Z"
    fill="#F5C144"
  />
</svg>
