<svg viewBox="0 0 22 22" fill="none" xmlns="http://www.w3.org/2000/svg">
  <path
    d="M5.0003 5.13717L4.99999 5.1369L4.99338 5.14581C4.78107 5.43195 4.80451 5.83779 5.064 6.09729C5.064 6.09729 5.064 6.09729 5.064 6.09729L9.96646 11L5.064 15.9027C4.77867 16.1881 4.77867 16.6506 5.064 16.936C5.34933 17.2213 5.81196 17.2213 6.09729 16.936L11 12.0336L15.9027 16.936L15.9025 16.9363L15.9108 16.9435L15.9759 16.9997L15.9756 17L15.9845 17.0066C16.2707 17.2189 16.6766 17.1955 16.936 16.936L16.9363 16.9362L16.9435 16.9279L16.9997 16.8628L17 16.8631L17.0066 16.8542C17.2189 16.5681 17.1955 16.1622 16.936 15.9027L12.0336 11L16.936 6.09729C17.2213 5.81196 17.2213 5.34933 16.936 5.064C16.6506 4.77867 16.1881 4.77867 15.9027 5.064L11 9.96646L6.09729 5.064L6.09757 5.06371L6.08924 5.05652L6.02412 5.0003L6.02439 4.99999L6.01548 4.99338C5.72934 4.78107 5.32349 4.80451 5.064 5.064L5.06372 5.06372L5.05652 5.07205L5.0003 5.13717Z"
    fill="#FC4F52"
    stroke="#FC4F52"
    stroke-width="0.3"
  />
</svg>
