<svg viewBox="0 0 24 24" fill="none" xmlns="http://www.w3.org/2000/svg">
  <path
    d="M12 7.2002C11.1716 7.2002 10.5 6.52863 10.5 5.7002C10.5 4.87176 11.1716 4.2002 12 4.2002C12.8285 4.2002 13.5 4.87176 13.5 5.7002C13.5 6.52863 12.8285 7.2002 12 7.2002ZM12 13.5002C11.1716 13.5002 10.5 12.8287 10.5 12.0002C10.5 11.1718 11.1716 10.5002 12 10.5002C12.8285 10.5002 13.5 11.1718 13.5 12.0002C13.5 12.8287 12.8285 13.5002 12 13.5002ZM10.5 18.3002C10.5 19.1287 11.1716 19.8002 12 19.8002C12.8285 19.8002 13.5 19.1287 13.5 18.3002C13.5 17.4717 12.8285 16.8002 12 16.8002C11.1716 16.8002 10.5 17.4717 10.5 18.3002Z"
    fill="currentColor"
  />
</svg>
