<svg viewBox="0 0 24 24" fill="none" xmlns="http://www.w3.org/2000/svg">
  <path
    d="M12 1C14.2091 1 16 2.8804 16 5.2V7.3H17.75C18.9926 7.3 20 8.35773 20 9.6625V19.6375C20 20.9422 18.9926 22 17.75 22H6.25C5.00736 22 4 20.9422 4 19.6375V9.6625C4 8.35773 5.00736 7.3 6.25 7.3H8V5.2C8 2.8804 9.79086 1 12 1ZM17.75 8.875H6.25C5.83579 8.875 5.5 9.22758 5.5 9.6625V19.6375C5.5 20.0724 5.83579 20.425 6.25 20.425H17.75C18.1642 20.425 18.5 20.0724 18.5 19.6375V9.6625C18.5 9.22758 18.1642 8.875 17.75 8.875ZM12.0001 13.075C12.8286 13.075 13.5001 13.7802 13.5001 14.65C13.5001 15.5198 12.8286 16.225 12.0001 16.225C11.1717 16.225 10.5001 15.5198 10.5001 14.65C10.5001 13.7802 11.1717 13.075 12.0001 13.075ZM12 2.575C10.6193 2.575 9.5 3.75025 9.5 5.2V7.3H14.5V5.2C14.5 3.75025 13.3807 2.575 12 2.575Z"
    fill="currentColor"
  />
</svg>
