<svg viewBox="0 0 24 24" fill="none" xmlns="http://www.w3.org/2000/svg">
  <path
    d="M12.5 1C14.4925 1 16.0426 2.26711 16.6731 4.15439C16.8111 4.56753 16.5842 5.01308 16.1664 5.14954C15.7485 5.28601 15.2978 5.06171 15.1598 4.64856C14.7332 3.37155 13.7595 2.57563 12.5 2.57563C11.0047 2.57563 9.92849 3.5818 9.84791 5.25575L9.84306 5.4598L9.84269 7.29727L17.6094 7.29804C18.8747 7.29804 19.9103 8.26985 19.9945 9.49968L20 9.66144V19.6366C20 20.8875 19.017 21.9115 17.773 21.9945L17.6094 22H6.39062C5.12534 22 4.08963 21.0283 4.00551 19.7984L4 19.6366V9.66144C4 8.41058 4.98298 7.38665 6.22695 7.30349L6.39062 7.29804L8.24894 7.29727L8.24931 5.4598C8.24931 2.79334 10.0652 1 12.5 1ZM17.6094 8.87367H6.39062C5.98719 8.87367 5.65379 9.17005 5.60103 9.55462L5.59375 9.66144V19.6366C5.59375 20.0354 5.89353 20.365 6.28249 20.4172L6.39062 20.4244H17.6094C18.0128 20.4244 18.3462 20.128 18.399 19.7435L18.4062 19.6366V9.66144C18.4062 9.26264 18.1064 8.93303 17.7175 8.88087L17.6094 8.87367ZM12.5 13.0749C13.3794 13.0749 14.0923 13.7796 14.0923 14.6491C14.0923 15.5184 13.3794 16.2232 12.5 16.2232C11.6206 16.2232 10.9077 15.5184 10.9077 14.6491C10.9077 13.7796 11.6206 13.0749 12.5 13.0749Z"
    fill="currentColor"
  />
</svg>
