<svg viewBox="0 0 41 40" fill="none" xmlns="http://www.w3.org/2000/svg">
  <path
    d="M21.1665 30.9106C26.4633 30.9106 30.7693 26.509 30.7693 21.0948C30.7693 15.6808 26.4632 11.3179 21.1665 11.3179C15.8698 11.3179 11.5637 15.7195 11.5637 21.1337C11.5637 26.548 15.8698 30.9106 21.1665 30.9106ZM21.1665 13.4213C25.32 13.4213 28.7115 16.888 28.7115 21.1337C28.7115 25.3794 25.3201 28.8072 21.1665 28.8072C17.0129 28.8072 13.6215 25.3405 13.6215 21.0948C13.6215 16.8491 17.0129 13.4213 21.1665 13.4213Z"
    fill="#919191"
  />
  <path
    d="M21.1666 4.26744H16.1748L17.6229 2.7872C18.042 2.35872 18.042 1.69655 17.6229 1.30697C17.2037 0.917336 16.5559 0.878481 16.1748 1.30697L12.9739 4.57885C12.7833 4.77366 12.669 5.04619 12.669 5.319C12.669 5.59182 12.7833 5.86431 12.9739 6.05915L16.1748 9.33104C16.3653 9.52585 16.6319 9.64269 16.8988 9.64269C17.1657 9.64269 17.4323 9.52585 17.6229 9.33104C18.0421 8.90255 18.0421 8.24039 17.6229 7.8508L16.1748 6.37056L21.1667 6.3711C29.1309 6.3711 35.6089 12.9928 35.6089 21.1338C35.6089 29.2748 29.1309 35.8966 21.1667 35.8966C13.2024 35.8966 6.7244 29.2748 6.7244 21.1338C6.7244 17.0438 8.40115 13.1098 11.2971 10.3442C11.7163 9.95456 11.7163 9.29242 11.3351 8.86395C10.9539 8.43547 10.3062 8.43547 9.88699 8.8251C6.57182 11.9801 4.6665 16.4597 4.6665 21.1339C4.6665 30.4433 12.0591 38 21.1665 38C30.2739 38 37.6665 30.4433 37.6665 21.1339C37.6665 11.8244 30.2739 4.26774 21.1665 4.26774L21.1666 4.26744Z"
    fill="#919191"
  />
  <path
    d="M21.1666 22.1853H24.2152C24.7867 22.1853 25.2441 21.718 25.2441 21.1335C25.2441 20.5494 24.7869 20.0818 24.2152 20.0818H22.1956V16.771C22.1956 16.1868 21.7384 15.7192 21.1666 15.7192C20.5951 15.7192 20.1377 16.1866 20.1377 16.771V21.1335C20.1377 21.718 20.5952 22.1853 21.1666 22.1853Z"
    fill="#919191"
  />
</svg>
