<svg
  width="73"
  height="73"
  viewBox="0 0 73 73"
  fill="none"
  xmlns="http://www.w3.org/2000/svg"
>
  <path
    d="M12.8042 45.2953C11.53 45.2953 10.5 44.263 10.5 42.9911V31.469C10.5 30.1971 11.53 29.1648 12.8042 29.1648C14.0784 29.1648 15.1084 30.1971 15.1084 31.469V42.9911C15.1084 44.263 14.0784 45.2953 12.8042 45.2953Z"
    fill="#034FB6"
  />
  <path
    d="M19.7173 54.5123C18.4431 54.5123 17.4131 53.48 17.4131 52.2081V22.2519C17.4131 20.9799 18.4431 19.9476 19.7173 19.9476C20.9915 19.9476 22.0215 20.9799 22.0215 22.2519V52.2081C22.0215 53.48 20.9915 54.5123 19.7173 54.5123Z"
    fill="#034FB6"
  />
  <path
    d="M26.6304 63.7294C25.3562 63.7294 24.3262 62.6971 24.3262 61.4252V13.0338C24.3262 11.7619 25.3562 10.7296 26.6304 10.7296C27.9046 10.7296 28.9346 11.7619 28.9346 13.0338V61.4252C28.9346 62.6971 27.9046 63.7294 26.6304 63.7294Z"
    fill="#034FB6"
  />
  <path
    d="M33.5435 61.4254C32.2693 61.4254 31.2393 60.3931 31.2393 59.1212V15.3388C31.2393 14.0669 32.2693 13.0346 33.5435 13.0346C34.8177 13.0346 35.8477 14.0669 35.8477 15.3388V59.1212C35.8477 60.3931 34.8177 61.4254 33.5435 61.4254Z"
    fill="#034FB6"
  />
  <path
    d="M40.4566 52.2084C39.1824 52.2084 38.1523 51.1761 38.1523 49.9042V24.5559C38.1523 23.284 39.1824 22.2517 40.4566 22.2517C41.7308 22.2517 42.7608 23.284 42.7608 24.5559V49.9042C42.7608 51.1761 41.7308 52.2084 40.4566 52.2084Z"
    fill="#034FB6"
  />
  <path
    d="M47.3697 61.4254C46.0955 61.4254 45.0654 60.3931 45.0654 59.1212V15.3388C45.0654 14.0669 46.0955 13.0346 47.3697 13.0346C48.6438 13.0346 49.6739 14.0669 49.6739 15.3388V59.1212C49.6739 60.3931 48.6438 61.4254 47.3697 61.4254Z"
    fill="#034FB6"
  />
  <path
    d="M54.2827 52.2084C53.0086 52.2084 51.9785 51.1761 51.9785 49.9042V24.5559C51.9785 23.284 53.0086 22.2517 54.2827 22.2517C55.5569 22.2517 56.5869 23.284 56.5869 24.5559V49.9042C56.5869 51.1761 55.5569 52.2084 54.2827 52.2084Z"
    fill="#034FB6"
  />
  <path
    d="M61.1958 45.2953C59.9216 45.2953 58.8916 44.263 58.8916 42.9911V31.469C58.8916 30.1971 59.9216 29.1648 61.1958 29.1648C62.47 29.1648 63.5 30.1971 63.5 31.469V42.9911C63.5 44.263 62.47 45.2953 61.1958 45.2953Z"
    fill="#034FB6"
  />
  <path
    fill-rule="evenodd"
    clip-rule="evenodd"
    d="M52.3162 24.0896C53.5647 25.386 53.5341 27.4571 52.2477 28.7154L31.4117 49.0967L21.0449 37.2557C19.8589 35.901 19.9871 33.8338 21.3313 32.6385C22.6755 31.4431 24.7267 31.5723 25.9127 32.927L31.7754 39.6234L47.7263 24.0206C49.0127 22.7622 51.0677 22.7932 52.3162 24.0896Z"
    fill="#F5C144"
    stroke="white"
    stroke-width="2"
    stroke-linecap="round"
  />
</svg>
