<svg viewBox="0 0 157 124" fill="none" xmlns="http://www.w3.org/2000/svg">
  <g filter="url(#filter0_d_3673_256169)">
    <path
      d="M86.9757 103.492H88.5H89.5H122.877C122.877 103.492 136.236 98.483 136.236 83.4543C136.236 68.4256 122.877 64.251 122.877 64.251C122.877 64.251 118.703 19.9999 81.1313 20C43.5596 20.0001 43.5596 53.397 43.5596 53.397C43.5596 53.397 22.6865 55.9017 20.1817 75.94C17.677 95.9782 41.8898 103.492 41.8898 103.492H86.9757Z"
      fill="white"
    />
  </g>
  <path
    d="M77.9029 46.8747L65.9133 59.0544C65.3397 59.6083 65.0104 60.3737 65.0002 61.1777C64.9901 61.9813 65.2995 62.7553 65.8589 63.3238C66.4181 63.8924 67.1798 64.2078 67.9709 64.1979C68.762 64.1881 69.516 63.8544 70.0615 63.2722L77.1382 56.0727L77.1382 80.0179C77.1382 81.0832 77.6978 82.0678 78.6061 82.6005C79.5143 83.1332 80.6331 83.1332 81.5414 82.6005C82.4496 82.0678 83.0093 81.0832 83.0093 80.0179L83.0093 56.1394L90.0424 63.2722C90.7898 63.994 91.8553 64.2643 92.8491 63.9842C93.8429 63.7042 94.6191 62.9149 94.8939 61.9051C95.1686 60.8955 94.9015 59.8131 94.1905 59.0544L82.2009 46.8746C81.6516 46.3133 80.904 45.999 80.1251 46.0015C80.1007 45.9995 80.0763 45.9995 80.0521 46.0015C80.028 45.9997 80.0036 45.9997 79.9792 46.0015C79.2008 46.0018 78.4542 46.3159 77.9034 46.8746L77.9029 46.8747Z"
    fill="#60A0FF"
  />
  <defs>
    <filter
      id="filter0_d_3673_256169"
      x="0"
      y="0"
      width="156.236"
      height="123.492"
      filterUnits="userSpaceOnUse"
      color-interpolation-filters="sRGB"
    >
      <feFlood flood-opacity="0" result="BackgroundImageFix" />
      <feColorMatrix
        in="SourceAlpha"
        type="matrix"
        values="0 0 0 0 0 0 0 0 0 0 0 0 0 0 0 0 0 0 127 0"
        result="hardAlpha"
      />
      <feOffset />
      <feGaussianBlur stdDeviation="10" />
      <feComposite in2="hardAlpha" operator="out" />
      <feColorMatrix
        type="matrix"
        values="0 0 0 0 0 0 0 0 0 0 0 0 0 0 0 0 0 0 0.25 0"
      />
      <feBlend
        mode="normal"
        in2="BackgroundImageFix"
        result="effect1_dropShadow_3673_256169"
      />
      <feBlend
        mode="normal"
        in="SourceGraphic"
        in2="effect1_dropShadow_3673_256169"
        result="shape"
      />
    </filter>
  </defs>
</svg>
