<svg
  width="73"
  height="73"
  viewBox="0 0 73 73"
  fill="none"
  xmlns="http://www.w3.org/2000/svg"
>
  <path
    d="M28.9456 8.72955C28.3811 8.72955 27.8395 8.95373 27.4406 9.35272C27.0416 9.75208 26.817 10.2932 26.8174 10.8578V59.8099C26.8174 60.57 27.2231 61.2726 27.8815 61.653C28.5399 62.0331 29.3513 62.0331 30.0096 61.653C30.6684 61.2726 31.0741 60.57 31.0741 59.8099V10.8578C31.0741 10.2932 30.8499 9.75207 30.4505 9.35272C30.0516 8.95373 29.51 8.72955 28.9455 8.72955L28.9456 8.72955Z"
    fill="#F5C144"
  />
  <path
    d="M20.7874 18.2473C20.2229 18.2473 19.6817 18.4715 19.2823 18.8709C18.8834 19.2698 18.6592 19.8114 18.6592 20.3759V50.2916V50.2912C18.6592 51.0517 19.0648 51.7543 19.7233 52.1347C20.3817 52.5148 21.1931 52.5148 21.8514 52.1347C22.5102 51.7543 22.9159 51.0518 22.9159 50.2912V20.3765C22.9159 19.812 22.6917 19.2704 22.2923 18.8714C21.8934 18.4721 21.3518 18.2479 20.7873 18.2479L20.7874 18.2473Z"
    fill="#034FB6"
  />
  <path
    d="M37.1043 18.2473C36.5398 18.2473 35.9982 18.4715 35.5992 18.8709C35.1999 19.2698 34.9757 19.8114 34.9761 20.3759V50.2916V50.2912C34.9761 51.0517 35.3817 51.7543 36.0402 52.1347C36.6986 52.5148 37.51 52.5148 38.1683 52.1347C38.8267 51.7543 39.2324 51.0518 39.2324 50.2912V20.3765C39.2328 19.812 39.0086 19.2704 38.6092 18.8714C38.2102 18.4721 37.6687 18.2479 37.1042 18.2479L37.1043 18.2473Z"
    fill="#F5C144"
  />
  <path
    d="M53.4216 18.2473C52.857 18.2473 52.3155 18.4715 51.9165 18.8709C51.5171 19.2698 51.293 19.8114 51.293 20.3759V50.2916V50.2912C51.293 51.0517 51.6986 51.7543 52.3574 52.1347C53.0159 52.5148 53.8272 52.5148 54.4856 52.1347C55.144 51.7543 55.5497 51.0518 55.5497 50.2912V20.3765C55.5497 19.812 55.3255 19.2704 54.9265 18.8714C54.5271 18.4721 53.986 18.2479 53.4215 18.2479L53.4216 18.2473Z"
    fill="#F5C144"
  />
  <path
    d="M45.2634 26.4062C44.6988 26.4062 44.1573 26.6304 43.7583 27.0294C43.3589 27.4288 43.1348 27.9703 43.1348 28.5348V42.1325C43.1348 42.8927 43.5404 43.5953 44.1992 43.9757C44.8577 44.3557 45.669 44.3557 46.3274 43.9757C46.9858 43.5952 47.3915 42.8927 47.3915 42.1325V28.5348C47.3918 27.9703 47.1673 27.4288 46.7683 27.0294C46.3693 26.6304 45.8278 26.4062 45.2632 26.4062H45.2634Z"
    fill="#034FB6"
  />
  <path
    d="M61.5807 26.4062C61.0162 26.4062 60.4747 26.6304 60.0753 27.0294C59.6763 27.4288 59.4521 27.9703 59.4521 28.5348V42.1325C59.4521 42.8927 59.8578 43.5953 60.5162 43.9757C61.175 44.3557 61.9864 44.3557 62.6448 43.9757C63.3032 43.5952 63.7089 42.8927 63.7089 42.1325V28.5348C63.7089 27.9703 63.4847 27.4288 63.0857 27.0294C62.6863 26.6304 62.1452 26.4062 61.5806 26.4062H61.5807Z"
    fill="#034FB6"
  />
  <path
    d="M12.6282 26.4062C12.0637 26.4062 11.5225 26.6304 11.1232 27.0294C10.7242 27.4288 10.5 27.9703 10.5 28.5348V42.1325C10.5 42.8927 10.9057 43.5953 11.5641 43.9757C12.2225 44.3557 13.0339 44.3557 13.6926 43.9757C14.3511 43.5952 14.7567 42.8927 14.7567 42.1325V28.5348C14.7567 27.9703 14.5325 27.4288 14.1332 27.0294C13.7342 26.6304 13.1927 26.4062 12.6281 26.4062H12.6282Z"
    fill="#F5C144"
  />
</svg>
