<svg viewBox="0 0 24 24" fill="none" xmlns="http://www.w3.org/2000/svg">
  <path
    d="M12.0016 15.2085C14.0275 15.2085 15.6683 13.5677 15.6683 11.5418V6.50016C15.6683 4.47433 14.0275 2.8335 12.0016 2.8335C9.97579 2.8335 8.33496 4.47433 8.33496 6.50016V11.5418C8.33496 13.5677 9.97579 15.2085 12.0016 15.2085Z"
    stroke="currentColor"
    stroke-width="1.3"
    stroke-linecap="round"
    stroke-linejoin="round"
  />
  <path
    d="M4.98682 9.84595V11.4043C4.98682 15.2726 8.13098 18.4168 11.9993 18.4168C15.8676 18.4168 19.0118 15.2726 19.0118 11.4043V9.84595"
    stroke="currentColor"
    stroke-width="1.3"
    stroke-linecap="round"
    stroke-linejoin="round"
  />
  <path
    d="M10.7256 6.89387C11.5506 6.59137 12.4489 6.59137 13.2739 6.89387"
    stroke="currentColor"
    stroke-width="1.3"
    stroke-linecap="round"
    stroke-linejoin="round"
  />
  <path
    d="M11.2651 8.83771C11.751 8.70937 12.2551 8.70937 12.741 8.83771"
    stroke="currentColor"
    stroke-width="1.3"
    stroke-linecap="round"
    stroke-linejoin="round"
  />
  <path
    d="M12 18.4165V21.1665"
    stroke="currentColor"
    stroke-width="1.3"
    stroke-linecap="round"
    stroke-linejoin="round"
  />
</svg>
