<svg viewBox="0 0 146 34" fill="none" xmlns="http://www.w3.org/2000/svg">
  <path
    d="M90.4195 32.8039C87.2483 32.8039 84.0986 32.8039 80.9489 32.8039C80.2419 31.0178 79.5134 29.2534 78.8063 27.4673C78.6777 27.1623 78.5278 27.0534 78.2064 27.0534C74.3925 27.0752 70.6 27.0752 66.7861 27.0534C66.4647 27.0534 66.3361 27.1405 66.229 27.4455C65.5433 29.2316 64.8362 31.0178 64.1292 32.8039C61.0438 32.8039 57.9583 32.8039 54.8301 32.8039C55.2372 31.8019 55.6443 30.8217 56.0514 29.8415C59.801 20.8237 63.5721 11.7841 67.3217 2.76629C67.6431 2.00391 67.9431 1.24154 68.2645 0.500942C68.3288 0.370249 68.5002 0.239556 68.6287 0.239556C71.2856 0.217773 73.9425 0.239556 76.6208 0.217773C76.8779 0.217773 76.9636 0.348467 77.0493 0.544506C78.9991 5.22767 80.9489 9.93262 82.8988 14.6158C85.3414 20.497 87.8054 26.3782 90.248 32.2594C90.2909 32.4554 90.3552 32.6297 90.4195 32.8039ZM76.0851 20.0613C74.9067 16.99 73.7497 13.9841 72.5498 10.9128C71.3499 14.0059 70.1714 17.0118 68.9716 20.0613C71.3713 20.0613 73.6854 20.0613 76.0851 20.0613Z"
    fill="black"
  />
  <path
    d="M10.1562 9.14836C6.72797 9.14836 3.38544 9.14836 0.0214844 9.14836C0.0214844 8.42955 0.0214844 7.73252 0.0214844 6.99192C3.38544 6.99192 6.7494 6.99192 10.1348 6.99192C10.1348 6.55628 10.1348 6.18598 10.1348 5.77212C6.77082 5.77212 3.40687 5.77212 0.0429108 5.77212C0.0429108 5.05331 0.0429108 4.35628 0.0429108 3.61569C3.40687 3.61569 6.77082 3.61569 10.1348 3.61569C10.1348 3.18004 10.1348 2.80975 10.1348 2.3741C6.7494 2.3741 3.38544 2.3741 0.0214844 2.3741C0.0214844 1.63351 0.0214844 0.95826 0.0214844 0.26123C9.70625 0.26123 19.391 0.26123 29.0758 0.26123C29.0758 0.95826 29.0758 1.65529 29.0758 2.3741C25.7118 2.3741 22.3479 2.3741 18.9625 2.3741C18.9625 2.78796 18.9625 3.18004 18.9625 3.5939C22.3264 3.5939 25.6904 3.5939 29.0758 3.5939C29.0758 4.3345 29.0758 5.00975 29.0758 5.75034C25.7118 5.75034 22.3479 5.75034 18.9625 5.75034C18.9625 6.1642 18.9625 6.55628 18.9625 6.97014C22.3264 6.97014 25.6904 6.97014 29.0758 6.97014C29.0758 7.71074 29.0758 8.40777 29.0758 9.14836C25.7118 9.14836 22.3479 9.14836 18.9411 9.14836C18.9411 17.0553 18.9411 24.9187 18.9411 32.8038C18.234 32.8038 17.5483 32.8038 16.8198 32.8038C16.8198 24.9404 16.8198 17.0771 16.8198 9.17014C16.4127 9.17014 16.0271 9.17014 15.62 9.17014C15.62 17.0335 15.62 24.8969 15.62 32.8038C14.8915 32.8038 14.2272 32.8038 13.4987 32.8038C13.4987 24.9404 13.4987 17.0771 13.4987 9.17014C13.0916 9.17014 12.706 9.17014 12.2989 9.17014C12.2989 17.0335 12.2989 24.9187 12.2989 32.8038C11.5704 32.8038 10.8847 32.8038 10.1562 32.8038C10.1562 24.9404 10.1562 17.0553 10.1562 9.14836ZM16.7984 2.39588C16.3913 2.39588 16.0056 2.39588 15.62 2.39588C15.62 2.80975 15.62 3.18004 15.62 3.57212C16.0271 3.57212 16.3913 3.57212 16.7984 3.57212C16.7984 3.18004 16.7984 2.80975 16.7984 2.39588ZM16.777 6.94836C16.777 6.51272 16.777 6.14242 16.777 5.77212C16.3699 5.77212 15.9842 5.77212 15.62 5.77212C15.62 6.18598 15.62 6.55628 15.62 6.94836C16.0056 6.94836 16.3913 6.94836 16.777 6.94836ZM12.2989 6.94836C12.706 6.94836 13.0702 6.94836 13.4559 6.94836C13.4559 6.5345 13.4559 6.1642 13.4559 5.77212C13.0702 5.77212 12.6845 5.77212 12.2989 5.77212C12.2989 6.18598 12.2989 6.5345 12.2989 6.94836ZM12.3203 2.39588C12.3203 2.83153 12.3203 3.20182 12.3203 3.57212C12.7274 3.57212 13.0916 3.57212 13.4559 3.57212C13.4559 3.15826 13.4559 2.78796 13.4559 2.39588C13.0488 2.39588 12.706 2.39588 12.3203 2.39588Z"
    fill="black"
  />
  <path
    d="M127.359 1.5246C127.873 1.5246 128.387 1.5246 128.945 1.5246C128.73 2.15628 128.537 2.7444 128.345 3.3543C127.616 5.51074 126.866 7.66717 126.159 9.82361C126.052 10.1068 125.923 10.1939 125.623 10.1939C124.724 10.1721 124.724 10.1939 124.424 9.32262C123.888 7.73252 123.352 6.14242 122.817 4.55232C122.774 4.44341 122.731 4.31272 122.645 4.09489C122.324 5.03153 122.045 5.88103 121.767 6.70876C121.424 7.7543 121.06 8.79984 120.717 9.84539C120.631 10.1068 120.502 10.2157 120.224 10.2157C119.303 10.1939 119.303 10.2157 118.981 9.30083C118.124 6.81767 117.289 4.31272 116.431 1.82955C116.41 1.74242 116.389 1.65529 116.367 1.56816C116.903 1.56816 117.417 1.56816 117.974 1.56816C118.617 3.61569 119.281 5.68499 119.967 7.86321C120.181 7.23153 120.353 6.68697 120.524 6.1642C120.995 4.74836 121.467 3.33252 121.895 1.91668C122.002 1.61173 122.109 1.48103 122.431 1.50281C122.709 1.5246 122.988 1.50281 123.288 1.50281C123.974 3.57212 124.638 5.64143 125.302 7.68895C125.345 7.68895 125.366 7.68895 125.409 7.71074C126.052 5.64143 126.716 3.61569 127.359 1.5246Z"
    fill="black"
  />
  <path
    d="M146 10.0854C145.936 10.1072 145.914 10.1072 145.871 10.1072C145.078 10.2597 144.564 9.93293 144.093 9.25768C142.936 7.62402 141.672 6.0557 140.472 4.4656C140.386 4.35669 140.3 4.26956 140.15 4.09531C140.15 6.16461 140.15 8.12501 140.15 10.0854C139.636 10.0854 139.165 10.0854 138.693 10.0854C138.693 7.23194 138.693 4.40026 138.693 1.50323C139.122 1.50323 139.55 1.48145 139.958 1.50323C140.065 1.50323 140.172 1.63392 140.236 1.72105C141.543 3.42006 142.85 5.14085 144.157 6.83986C144.264 6.97055 144.35 7.10125 144.521 7.29729C144.521 5.31511 144.521 3.39828 144.521 1.48145C145.036 1.48145 145.507 1.48145 146 1.48145C146 4.37848 146 7.23194 146 10.0854Z"
    fill="black"
  />
  <path
    d="M128.281 28.8399C128.281 26.8141 128.281 24.8973 128.281 22.9587C128.774 22.9587 129.224 22.9587 129.738 22.9587C129.738 25.7904 129.738 28.6438 129.738 31.5409C129.374 31.5409 129.009 31.5626 128.645 31.5191C128.517 31.4973 128.367 31.3666 128.281 31.2577C126.888 29.4498 125.496 27.6201 124.124 25.8121C124.06 25.725 123.996 25.6597 123.867 25.4854C123.867 27.5329 123.867 29.4933 123.867 31.4973C123.353 31.4973 122.881 31.4973 122.389 31.4973C122.389 28.6656 122.389 25.8121 122.389 22.9151C122.796 22.9151 123.224 22.8933 123.631 22.9369C123.76 22.9369 123.889 23.1112 123.974 23.2201C125.324 24.9844 126.674 26.7488 128.024 28.5349C128.11 28.622 128.152 28.6874 128.281 28.8399Z"
    fill="black"
  />
  <path
    d="M105.633 22.9801C107.09 22.9801 108.547 22.9147 110.004 23.0018C111.439 23.089 112.361 24.0256 112.489 25.289C112.639 26.7702 112.018 27.7504 110.518 28.3167C111.268 29.384 111.996 30.4514 112.789 31.5622C112.189 31.5622 111.696 31.584 111.182 31.5405C111.054 31.5405 110.904 31.4098 110.818 31.2791C110.239 30.4731 109.682 29.6454 109.125 28.8177C108.975 28.5999 108.825 28.5127 108.547 28.5127C108.075 28.5345 107.604 28.5127 107.09 28.5127C107.09 29.5147 107.09 30.4949 107.09 31.4969C106.576 31.4969 106.126 31.4969 105.611 31.4969C105.633 28.687 105.633 25.8553 105.633 22.9801ZM107.111 24.3959C107.111 25.289 107.111 26.2256 107.111 27.2276C108.054 27.184 108.997 27.2058 109.918 27.0751C110.625 26.9662 110.989 26.3781 110.968 25.6811C110.947 25.0058 110.518 24.4613 109.789 24.3959C108.911 24.3306 108.033 24.3959 107.111 24.3959Z"
    fill="black"
  />
  <path
    d="M120.631 30.1686C120.631 30.6696 120.631 31.0834 120.631 31.5409C118.532 31.5409 116.432 31.5409 114.311 31.5409C114.311 28.6874 114.311 25.8557 114.311 22.9805C116.389 22.9805 118.446 22.9805 120.546 22.9805C120.546 23.3943 120.546 23.83 120.546 24.3092C118.982 24.3092 117.396 24.3092 115.81 24.3092C115.81 25.0716 115.81 25.7904 115.81 26.5527C117.225 26.5527 118.596 26.5527 119.989 26.5527C119.989 27.0102 119.989 27.4458 119.989 27.9032C118.596 27.9032 117.203 27.9032 115.789 27.9032C115.789 28.6656 115.789 29.4062 115.789 30.1686C117.417 30.1686 119.003 30.1686 120.631 30.1686Z"
    fill="black"
  />
  <path
    d="M128.71 20.8019C128.217 20.8019 127.745 20.8019 127.253 20.8019C127.253 19.6257 127.253 18.4494 127.253 17.2296C125.924 17.2296 124.617 17.2296 123.267 17.2296C123.267 18.3841 123.267 19.5603 123.267 20.7801C122.732 20.7801 122.239 20.7801 121.725 20.7801C121.725 17.9267 121.725 15.095 121.725 12.2197C122.217 12.2197 122.689 12.2197 123.224 12.2197C123.224 13.396 123.224 14.5722 123.224 15.7484C124.574 15.7484 125.881 15.7484 127.21 15.7484C127.21 14.5722 127.21 13.396 127.21 12.2197C127.703 12.2197 128.195 12.2197 128.688 12.2197C128.71 15.0514 128.71 17.9049 128.71 20.8019Z"
    fill="black"
  />
  <path
    d="M110.324 18.4493C110.646 18.7543 110.946 19.0592 111.267 19.3642C110.024 21.1721 106.918 21.4771 105.118 19.9959C103.189 18.4058 102.975 15.3127 104.668 13.4394C106.339 11.588 109.467 11.5662 111.203 13.3959C110.903 13.7662 110.581 14.1147 110.26 14.5068C109.489 13.8097 108.653 13.3305 107.603 13.4612C106.918 13.5484 106.339 13.8315 105.889 14.3543C104.861 15.5088 104.882 17.4474 105.91 18.6236C106.982 19.887 108.375 19.8216 110.324 18.4493Z"
    fill="black"
  />
  <path
    d="M120.289 13.4178C119.968 13.7881 119.668 14.1584 119.325 14.5287C118.553 13.8099 117.718 13.3525 116.668 13.4614C115.961 13.5267 115.361 13.8752 114.889 14.4198C113.904 15.5742 113.968 17.5564 114.997 18.6455C116.154 19.8653 117.632 19.8 119.346 18.4495C119.668 18.7762 119.968 19.103 120.289 19.4297C118.746 21.2594 115.768 21.4772 114.011 19.8218C112.233 18.1445 112.125 15.1168 113.797 13.3742C115.532 11.5881 118.575 11.5881 120.289 13.4178Z"
    fill="black"
  />
  <path
    d="M137.322 10.1068C136.808 10.1068 136.358 10.1286 135.908 10.085C135.801 10.085 135.651 9.88895 135.586 9.73647C134.729 7.73251 133.894 5.70677 133.058 3.70281C133.015 3.5939 132.972 3.48499 132.887 3.31073C132.501 4.2038 132.158 5.0533 131.794 5.90281C131.258 7.18796 130.722 8.47311 130.187 9.78004C130.08 10.0414 129.951 10.1503 129.673 10.1286C129.308 10.1068 128.944 10.1286 128.494 10.1286C128.558 9.95429 128.601 9.84538 128.666 9.71469C129.801 7.07905 130.937 4.4434 132.051 1.80776C132.158 1.52459 132.329 1.48103 132.608 1.43746C133.379 1.32855 133.744 1.6335 134.044 2.3741C135.029 4.83548 136.101 7.23152 137.15 9.67113C137.215 9.78004 137.258 9.93251 137.322 10.1068Z"
    fill="black"
  />
  <path
    d="M111.719 10.0852C111.161 10.0852 110.604 10.2595 110.24 10.0417C109.919 9.84563 109.79 9.25751 109.619 8.82187C109.233 7.9288 108.869 7.01395 108.483 6.0991C108.097 5.18425 107.733 4.29118 107.326 3.31098C107.198 3.61593 107.069 3.85553 106.962 4.11692C106.19 5.99019 105.398 7.84167 104.648 9.71494C104.519 10.0199 104.369 10.1506 104.026 10.107C103.684 10.0635 103.362 10.107 102.955 10.107C102.998 9.97633 103.019 9.86741 103.062 9.7585C104.198 7.10108 105.355 4.44365 106.49 1.76444C106.598 1.50306 106.726 1.43771 107.005 1.41593C107.797 1.30702 108.162 1.61197 108.483 2.37434C109.469 4.83573 110.54 7.25355 111.59 9.67138C111.611 9.80207 111.654 9.93276 111.719 10.0852Z"
    fill="black"
  />
  <path
    d="M136.295 22.8712C137.537 25.7464 138.759 28.6217 140.023 31.5623C139.509 31.5623 139.059 31.584 138.609 31.5405C138.48 31.5405 138.352 31.3444 138.287 31.192C137.452 29.2098 136.616 27.2276 135.802 25.2236C135.738 25.093 135.673 24.9623 135.588 24.7444C135.223 25.5939 134.902 26.3781 134.559 27.1623C134.002 28.5128 133.424 29.8415 132.888 31.192C132.781 31.4316 132.674 31.5623 132.374 31.5405C131.988 31.5187 131.624 31.5405 131.174 31.5405C131.517 30.7345 131.838 29.9722 132.181 29.2098C133.038 27.2058 133.916 25.2019 134.752 23.1979C134.859 22.9365 134.988 22.8276 135.266 22.8494C135.609 22.893 135.93 22.8712 136.295 22.8712Z"
    fill="black"
  />
  <path
    d="M104.154 31.5622C103.661 31.5622 103.232 31.5404 102.804 31.5622C102.525 31.584 102.482 31.3662 102.397 31.1919C101.583 29.2315 100.747 27.2711 99.9327 25.2889C99.8685 25.1365 99.8042 24.984 99.6971 24.7662C99.5685 25.0711 99.4614 25.2889 99.3542 25.5285C98.5829 27.4018 97.7901 29.2533 97.0187 31.1266C96.8902 31.4315 96.7402 31.584 96.3974 31.5404C96.0546 31.4969 95.7117 31.5404 95.2832 31.5404C95.4975 31.0612 95.6689 30.6474 95.8403 30.2117C96.8259 27.9028 97.833 25.5939 98.8186 23.285C98.9686 22.9365 99.14 22.8276 99.5042 22.8493C100.426 22.8711 100.426 22.8493 100.79 23.7206C101.818 26.1385 102.868 28.5563 103.897 30.9741C104.004 31.1701 104.068 31.3444 104.154 31.5622Z"
    fill="#1CC3BD"
  />
  <path
    d="M96.291 2.96223C96.291 2.43946 96.291 2.02559 96.291 1.54639C98.5836 1.54639 100.855 1.54639 103.147 1.54639C103.147 1.98203 103.147 2.41767 103.147 2.94045C102.269 2.94045 101.391 2.94045 100.491 2.94045C100.491 5.35827 100.491 7.71074 100.491 10.1068C99.9764 10.1068 99.505 10.1068 98.9908 10.1068C98.9908 7.73253 98.9908 5.38005 98.9908 2.96223C98.0908 2.96223 97.2124 2.96223 96.291 2.96223Z"
    fill="#1CC3BD"
  />
  <path
    d="M103.169 12.2197C103.169 12.6989 103.169 13.1346 103.169 13.6138C102.29 13.6138 101.433 13.6138 100.512 13.6138C100.512 16.0098 100.512 18.3841 100.512 20.7801C99.9764 20.7801 99.505 20.7801 98.9908 20.7801C98.9908 18.4059 98.9908 16.0534 98.9908 13.6356C98.0909 13.6356 97.2124 13.6356 96.3125 13.6356C96.3125 13.1564 96.3125 12.6989 96.3125 12.2197C98.5837 12.2197 100.855 12.2197 103.169 12.2197Z"
    fill="#1CC3BD"
  />
  <path
    d="M114.76 10.0854C114.224 10.0854 113.774 10.0854 113.26 10.0854C113.26 9.58438 113.26 9.08339 113.26 8.60418C113.26 7.29725 113.26 5.96854 113.26 4.66161C113.26 4.16062 113.517 3.87745 113.945 3.85567C114.374 3.83388 114.738 4.11705 114.738 4.57448C114.781 6.3824 114.76 8.23388 114.76 10.0854Z"
    fill="black"
  />
  <path
    d="M111.46 17.0117C110.11 17.0117 108.781 17.0117 107.41 17.0117C107.41 16.5543 107.41 16.0969 107.41 15.6177C108.739 15.6177 110.088 15.6177 111.46 15.6177C111.46 16.0533 111.46 16.5107 111.46 17.0117Z"
    fill="black"
  />
  <path
    d="M31.5826 2.59208C30.8755 2.59208 30.3398 2.02574 30.3398 1.30693C30.3398 0.588119 30.8969 0 31.6254 0C32.3111 0 32.8896 0.588119 32.8896 1.28515C32.8896 2.00396 32.3111 2.59208 31.5826 2.59208Z"
    fill="#1CC3BD"
  />
  <path
    d="M41.5669 20.2573C42.2525 20.2573 42.8311 20.8454 42.8525 21.5425C42.8525 22.2613 42.2525 22.8712 41.5455 22.8494C40.8598 22.8276 40.3027 22.2395 40.3027 21.5425C40.3027 20.8454 40.8812 20.2573 41.5669 20.2573Z"
    fill="#1CC3BD"
  />
  <path
    d="M41.5669 12.7207C40.8812 12.7207 40.3027 12.1326 40.3027 11.4355C40.3027 10.7385 40.8598 10.1504 41.5669 10.1504C42.2525 10.1504 42.8525 10.7167 42.8525 11.4138C42.8525 12.1326 42.274 12.7207 41.5669 12.7207Z"
    fill="#1CC3BD"
  />
  <path
    d="M58.1724 2.59208C57.4653 2.59208 56.9082 2.00396 56.9082 1.30693C56.9082 0.588119 57.5081 0 58.2152 0C58.8794 0.0217822 59.458 0.588119 59.458 1.26337C59.458 2.00396 58.8794 2.59208 58.1724 2.59208Z"
    fill="#1CC3BD"
  />
  <path
    d="M49.4736 11.4141C49.4736 12.1111 48.9165 12.6992 48.2308 12.721C47.5238 12.7428 46.9238 12.1329 46.9238 11.4141C46.9238 10.717 47.5023 10.1289 48.2094 10.1289C48.8951 10.1289 49.4736 10.717 49.4736 11.4141Z"
    fill="#1CC3BD"
  />
  <path
    d="M31.6047 3.39795C32.3118 3.39795 32.8688 3.9425 32.8903 4.66132C32.8903 5.38013 32.3118 5.99003 31.6047 5.96825C30.8976 5.96825 30.3405 5.38013 30.3619 4.6831C30.3405 3.9425 30.8762 3.39795 31.6047 3.39795Z"
    fill="#1CC3BD"
  />
  <path
    d="M41.5669 29.602C40.8598 29.602 40.3027 29.0357 40.3027 28.3169C40.3027 27.5981 40.8598 27.0317 41.5455 27.0317C42.274 27.0317 42.8525 27.6199 42.8525 28.3387C42.8311 29.0357 42.2525 29.602 41.5669 29.602Z"
    fill="#1CC3BD"
  />
  <path
    d="M41.5455 2.59237C40.8598 2.59237 40.3027 1.98247 40.3027 1.28544C40.3242 0.588407 40.9027 0.000288533 41.5883 0.0220707C42.274 0.0220707 42.8525 0.610189 42.8525 1.30722C42.8525 2.00425 42.2525 2.59237 41.5455 2.59237Z"
    fill="#1CC3BD"
  />
  <path
    d="M49.4741 21.5643C49.4741 22.2613 48.8956 22.8712 48.21 22.8494C47.5029 22.8494 46.903 22.2395 46.9244 21.5207C46.9244 20.8237 47.5243 20.2573 48.21 20.2573C48.917 20.2791 49.4741 20.8672 49.4741 21.5643Z"
    fill="#1CC3BD"
  />
  <path
    d="M49.4741 1.30718C49.4741 2.00421 48.8956 2.59233 48.21 2.59233C47.5029 2.59233 46.9458 2.02599 46.9244 1.32896C46.9029 0.631933 47.5243 0.000249505 48.2314 0.0220317C48.917 0.0220317 49.4741 0.588368 49.4741 1.30718Z"
    fill="#1CC3BD"
  />
  <path
    d="M48.188 19.4516C47.4809 19.4516 46.9238 18.8635 46.9238 18.1665C46.9238 17.4912 47.5238 16.8813 48.188 16.8813C48.8951 16.8813 49.4736 17.4695 49.4522 18.2101C49.4522 18.9289 48.8951 19.4734 48.188 19.4516Z"
    fill="#1CC3BD"
  />
  <path
    d="M40.3027 31.6714C40.3027 30.9743 40.8812 30.3862 41.5669 30.3862C42.2525 30.3862 42.8311 30.9743 42.8525 31.6714C42.8525 32.3684 42.2525 33.0001 41.5455 32.9783C40.8598 32.9783 40.3027 32.3902 40.3027 31.6714Z"
    fill="#1CC3BD"
  />
  <path
    d="M49.4736 31.7147C49.4736 32.4118 48.8736 32.9999 48.188 32.9999C47.5023 32.9781 46.9238 32.39 46.9238 31.693C46.9238 30.9741 47.5238 30.386 48.2308 30.4078C48.9379 30.4078 49.495 30.9959 49.4736 31.7147Z"
    fill="#1CC3BD"
  />
  <path
    d="M41.5889 19.4516C40.8818 19.4516 40.3247 18.9071 40.3033 18.1883C40.2819 17.4695 40.8604 16.8813 41.5889 16.8813C42.2745 16.8813 42.8531 17.4695 42.8531 18.1665C42.8531 18.8853 42.2745 19.4516 41.5889 19.4516Z"
    fill="#1CC3BD"
  />
  <path
    d="M38.2257 2.59239C37.4972 2.59239 36.9401 1.98249 36.9615 1.26368C36.983 0.566647 37.6043 0.000310196 38.2686 0.0220924C38.9542 0.0438745 39.5113 0.631993 39.4899 1.35081C39.4899 2.04783 38.9328 2.59239 38.2257 2.59239Z"
    fill="#1CC3BD"
  />
  <path
    d="M49.4742 28.2951C49.4742 29.0139 48.9385 29.5803 48.2314 29.602C47.5243 29.6238 46.9458 29.0575 46.9244 28.3605C46.903 27.6416 47.4815 27.0317 48.1886 27.0317C48.8956 27.0317 49.4742 27.5763 49.4742 28.2951Z"
    fill="#1CC3BD"
  />
  <path
    d="M39.5113 4.66132C39.5113 5.38013 38.9757 5.94646 38.2686 5.96825C37.583 5.99003 37.0044 5.40191 36.983 4.70488C36.9616 3.96429 37.5187 3.39795 38.2472 3.39795C38.9757 3.39795 39.5113 3.9425 39.5113 4.66132Z"
    fill="#1CC3BD"
  />
  <path
    d="M41.5676 3.39795C42.2746 3.39795 42.8317 3.9425 42.8531 4.66132C42.8746 5.33656 42.2746 5.96825 41.6104 5.96825C40.9033 5.99003 40.3248 5.40191 40.3248 4.66132C40.3034 3.96429 40.8605 3.39795 41.5676 3.39795Z"
    fill="#1CC3BD"
  />
  <path
    d="M51.5298 3.39795C52.2369 3.39795 52.7939 3.9425 52.7939 4.66132C52.7939 5.38013 52.2369 5.94646 51.5512 5.96825C50.8441 5.96825 50.2656 5.38013 50.2656 4.66132C50.2871 3.92072 50.8227 3.39795 51.5298 3.39795Z"
    fill="#1CC3BD"
  />
  <path
    d="M48.188 3.39795C48.8951 3.39795 49.4736 3.92072 49.4736 4.63953C49.495 5.35835 48.9165 5.96825 48.2094 5.96825C47.5452 5.96825 46.9238 5.38013 46.9238 4.6831C46.9238 3.98607 47.5023 3.39795 48.188 3.39795Z"
    fill="#1CC3BD"
  />
  <path
    d="M49.4736 14.812C49.4736 15.509 48.8951 16.0972 48.2094 16.0972C47.5452 16.0972 46.9453 15.4873 46.9238 14.812C46.9238 14.0932 47.5023 13.5269 48.2308 13.5269C48.9379 13.5269 49.495 14.115 49.4736 14.812Z"
    fill="#1CC3BD"
  />
  <path
    d="M51.509 2.59227C50.8019 2.59227 50.2448 2.00415 50.2662 1.30712C50.2662 0.588309 50.8233 0.0219727 51.5304 0.0219727C52.2375 0.0219727 52.8374 0.631874 52.816 1.35069C52.7731 2.04772 52.216 2.59227 51.509 2.59227Z"
    fill="#1CC3BD"
  />
  <path
    d="M38.2686 9.32284C37.5401 9.32284 36.983 8.80006 36.9615 8.08125C36.9401 7.36244 37.4972 6.75254 38.2257 6.75254C38.9113 6.73076 39.4899 7.31888 39.4899 8.01591C39.5113 8.7565 38.9756 9.32284 38.2686 9.32284Z"
    fill="#1CC3BD"
  />
  <path
    d="M54.8521 3.39795C55.5806 3.39795 56.1162 3.9425 56.1162 4.70488C56.1162 5.38013 55.5591 5.94646 54.8735 5.96825C54.1878 5.99003 53.5879 5.40191 53.5879 4.70488C53.5879 3.96429 54.1236 3.39795 54.8521 3.39795Z"
    fill="#1CC3BD"
  />
  <path
    d="M31.6254 9.32284C30.9184 9.32284 30.3398 8.77828 30.3398 8.08125C30.3398 7.36244 30.8755 6.77432 31.5612 6.75254C32.2682 6.73076 32.8682 7.31888 32.8682 8.03769C32.8682 8.7565 32.3325 9.32284 31.6254 9.32284Z"
    fill="#1CC3BD"
  />
  <path
    d="M34.9464 3.39795C35.6535 3.39795 36.1892 3.96429 36.2106 4.6831C36.2106 5.35835 35.6321 5.96825 34.9464 5.96825C34.2608 5.96825 33.6823 5.38013 33.6823 4.6831C33.6608 3.9425 34.1965 3.39795 34.9464 3.39795Z"
    fill="#1CC3BD"
  />
  <path
    d="M51.5084 9.32274C50.8013 9.32274 50.2656 8.7564 50.2656 8.03759C50.2656 7.34056 50.8441 6.75244 51.5298 6.75244C52.2154 6.75244 52.7939 7.31878 52.7939 8.03759C52.7939 8.77818 52.2369 9.34452 51.5084 9.32274Z"
    fill="#1CC3BD"
  />
  <path
    d="M48.2094 9.32282C47.5023 9.32282 46.9453 8.75648 46.9238 8.05945C46.9238 7.3842 47.5023 6.7743 48.1666 6.75252C48.8736 6.73074 49.4522 7.34064 49.4522 8.05945C49.4736 8.77826 48.9379 9.32282 48.2094 9.32282Z"
    fill="#1CC3BD"
  />
  <path
    d="M59.4365 4.66132C59.4365 5.35835 58.8794 5.94646 58.1938 5.96825C57.5081 5.99003 56.9082 5.38013 56.9082 4.70488C56.9082 3.96429 57.4653 3.39795 58.1938 3.39795C58.8794 3.39795 59.4365 3.96429 59.4365 4.66132Z"
    fill="#1CC3BD"
  />
  <path
    d="M46.1319 4.70488C46.1319 5.42369 45.5534 5.99003 44.8677 5.96825C44.1607 5.94646 43.625 5.40191 43.625 4.6831C43.625 3.92072 44.1607 3.39795 44.9106 3.39795C45.6391 3.39795 46.1319 3.9425 46.1319 4.70488Z"
    fill="#1CC3BD"
  />
  <path
    d="M41.5461 13.5269C42.2531 13.5269 42.8531 14.115 42.8531 14.8338C42.8531 15.509 42.2746 16.0972 41.6103 16.1189C40.9033 16.1407 40.3033 15.5526 40.3033 14.8338C40.2819 14.115 40.839 13.5269 41.5461 13.5269Z"
    fill="#1CC3BD"
  />
  <path
    d="M41.5883 9.34479C40.8598 9.34479 40.3027 8.77845 40.3027 8.05964C40.3027 7.36261 40.8598 6.79627 41.5669 6.77449C42.2525 6.75271 42.8525 7.36261 42.8525 8.08142C42.8525 8.75667 42.274 9.32301 41.5883 9.34479Z"
    fill="#1CC3BD"
  />
  <path
    d="M36.1884 8.05967C36.1884 8.7567 35.6099 9.32304 34.9028 9.32304C34.1743 9.32304 33.6387 8.73492 33.6387 7.99432C33.6601 7.29729 34.2172 6.73096 34.8814 6.73096C35.6099 6.75274 36.2098 7.34086 36.1884 8.05967Z"
    fill="#1CC3BD"
  />
  <path
    d="M58.1724 9.32304C57.4653 9.32304 56.9082 8.7567 56.9082 8.03789C56.9082 7.31908 57.5081 6.73096 58.2152 6.73096C58.9009 6.75274 59.458 7.34086 59.458 8.03789C59.4365 8.77848 58.8794 9.34482 58.1724 9.32304Z"
    fill="#1CC3BD"
  />
  <path
    d="M46.1319 18.2102C46.1319 18.929 45.5748 19.4736 44.8677 19.4518C44.1392 19.4518 43.625 18.8855 43.625 18.1231C43.6464 17.4043 44.2035 16.8597 44.9106 16.8815C45.6177 16.9033 46.1533 17.4914 46.1319 18.2102Z"
    fill="#1CC3BD"
  />
  <path
    d="M33.6602 1.30701C33.6602 0.609979 34.2172 7.77595e-05 34.9029 7.77595e-05C35.61 -0.0217044 36.2099 0.588197 36.2099 1.30701C36.2099 2.00404 35.6314 2.59216 34.9457 2.59216C34.2387 2.59216 33.6816 2.02582 33.6602 1.30701Z"
    fill="#1CC3BD"
  />
  <path
    d="M46.1319 8.05937C46.1319 8.77818 45.5962 9.34452 44.8892 9.34452C44.1607 9.34452 43.625 8.82175 43.625 8.08115C43.625 7.34056 44.1821 6.75244 44.8892 6.75244C45.5962 6.77422 46.1319 7.34056 46.1319 8.05937Z"
    fill="#1CC3BD"
  />
  <path
    d="M46.1319 1.30722C46.1105 2.0696 45.5748 2.61415 44.8463 2.59237C44.1392 2.57059 43.625 2.02603 43.625 1.28544C43.625 0.588407 44.2035 0.000288533 44.8892 0.0220707C45.5962 0.000288533 46.1533 0.610189 46.1319 1.30722Z"
    fill="#1CC3BD"
  />
  <path
    d="M56.1169 1.329C56.1169 2.04781 55.5598 2.59237 54.8527 2.59237C54.1456 2.59237 53.5885 2.00425 53.61 1.26365C53.61 0.588407 54.1885 0.0220705 54.8527 0.0220705C55.5598 0.000288278 56.1169 0.588407 56.1169 1.329Z"
    fill="#1CC3BD"
  />
  <path
    d="M48.188 26.2043C47.5023 26.2043 46.9238 25.6379 46.9238 24.9409C46.9238 24.2439 47.5023 23.6775 48.188 23.6558C48.8736 23.6558 49.4522 24.2221 49.4522 24.9191C49.495 25.6379 48.9379 26.2043 48.188 26.2043Z"
    fill="#1CC3BD"
  />
  <path
    d="M53.6094 8.03759C53.6094 7.31878 54.1879 6.75244 54.8735 6.75244C55.5806 6.77422 56.1163 7.31878 56.1163 8.03759C56.1163 8.77818 55.5592 9.32274 54.8307 9.32274C54.1236 9.32274 53.6094 8.77818 53.6094 8.03759Z"
    fill="#1CC3BD"
  />
  <path
    d="M46.1305 28.3388C46.1305 29.0576 45.5949 29.624 44.8664 29.6022C44.1593 29.6022 43.6022 29.0141 43.6236 28.2735C43.6451 27.5547 44.2022 27.0101 44.9092 27.0319C45.6163 27.0319 46.152 27.5982 46.1305 28.3388Z"
    fill="#1CC3BD"
  />
  <path
    d="M46.132 21.5643C46.132 22.2613 45.5534 22.8494 44.8892 22.8494C44.2036 22.8494 43.6465 22.2613 43.6465 21.5643C43.6465 20.8237 44.2036 20.2573 44.9321 20.2573C45.5963 20.2791 46.132 20.8454 46.132 21.5643Z"
    fill="#1CC3BD"
  />
  <path
    d="M46.132 14.7902C46.132 15.509 45.5749 16.0972 44.9106 16.0972C44.1821 16.0972 43.6465 15.5308 43.6465 14.7902C43.6465 14.0714 44.1821 13.5269 44.8892 13.5269C45.6177 13.5269 46.132 14.0714 46.132 14.7902Z"
    fill="#1CC3BD"
  />
  <path
    d="M41.5669 26.2043C40.8384 26.2043 40.3027 25.6597 40.3027 24.9409C40.3027 24.2221 40.8812 23.6558 41.6097 23.6558C42.2954 23.6775 42.8739 24.2657 42.8525 24.9409C42.8311 25.6597 42.2525 26.2043 41.5669 26.2043Z"
    fill="#1CC3BD"
  />
  <path
    d="M46.1319 11.4576C46.1319 12.1764 45.5534 12.7428 44.8677 12.721C44.1392 12.6992 43.625 12.1329 43.625 11.3705C43.6464 10.6735 44.1821 10.1289 44.8677 10.1289C45.5962 10.1289 46.1533 10.6952 46.1319 11.4576Z"
    fill="#1CC3BD"
  />
  <path
    d="M46.1306 31.7366C46.1091 32.4336 45.5306 33.0218 44.845 33C44.1379 32.9782 43.6022 32.3901 43.6237 31.6495C43.6451 30.9307 44.2236 30.3861 44.9307 30.4297C45.6378 30.4297 46.152 30.996 46.1306 31.7366Z"
    fill="#1CC3BD"
  />
  <path
    d="M44.8665 26.2039C44.138 26.2039 43.6238 25.6594 43.6452 24.9188C43.6452 24.1782 44.2237 23.6336 44.9522 23.6554C45.6593 23.6772 46.1735 24.2435 46.1521 24.9841C46.1306 25.7029 45.595 26.2257 44.8665 26.2039Z"
    fill="#1CC3BD"
  />
  <path
    d="M135.588 28.5132C136.08 28.5132 136.466 28.8835 136.445 29.3845C136.445 29.8419 136.059 30.234 135.588 30.234C135.095 30.234 134.73 29.8419 134.73 29.3409C134.752 28.8617 135.095 28.5132 135.588 28.5132Z"
    fill="black"
  />
  <path
    d="M114.01 1.2417C114.482 1.2417 114.846 1.59021 114.867 2.06942C114.889 2.54863 114.482 2.96249 114.01 2.96249C113.539 2.96249 113.175 2.59219 113.153 2.11299C113.132 1.612 113.517 1.2417 114.01 1.2417Z"
    fill="black"
  />
  <path
    d="M133.766 7.90712C133.766 8.42989 133.423 8.77841 132.93 8.77841C132.459 8.77841 132.095 8.40811 132.073 7.9289C132.052 7.4497 132.459 7.05762 132.93 7.05762C133.423 7.05762 133.766 7.42791 133.766 7.90712Z"
    fill="black"
  />
  <path
    d="M107.368 7.05761C107.839 7.07939 108.182 7.44969 108.182 7.92889C108.182 8.42989 107.796 8.80018 107.282 8.7784C106.789 8.75662 106.446 8.36454 106.468 7.86355C106.511 7.38434 106.875 7.03583 107.368 7.05761Z"
    fill="black"
  />
  <path
    d="M100.597 29.3625C100.597 29.8417 100.233 30.212 99.7614 30.212C99.2685 30.212 98.9043 29.8417 98.9043 29.3189C98.9043 28.8179 99.2685 28.4694 99.7828 28.4912C100.276 28.513 100.597 28.8833 100.597 29.3625Z"
    fill="#1CC3BD"
  />
</svg>
