<svg viewBox="0 0 195 47" fill="none" xmlns="http://www.w3.org/2000/svg">
  <g clip-path="url(#clip0_822_7642)">
    <path
      d="M29.3531 15.1346C31.6543 17.2231 33.8573 19.2556 36.1725 21.3582C36.9863 19.7182 37.7721 18.1342 38.5859 16.4802C39.7365 17.5175 40.859 18.5267 42.0517 19.62C42.8655 17.98 43.6513 16.4101 44.4651 14.7561C45.5736 15.7653 46.654 16.7325 47.6924 17.7277C47.8046 17.8259 47.7485 18.2043 47.6503 18.4006C47.0329 19.7041 46.4015 21.0077 45.742 22.2833C45.5455 22.6618 45.6017 22.9 45.9244 23.1804C46.9347 24.0775 47.9309 25.0026 48.9692 25.9558C48.7868 26.3202 48.6044 26.6847 48.422 27.0491C46.7943 30.245 45.2228 33.4689 43.539 36.6368C40.6485 42.0754 36.0602 45.3414 30.0687 46.5189C18.4225 48.8177 6.91667 42.4539 2.5248 31.4505C2.42658 31.1982 2.34239 30.9318 2.30029 30.8197C3.56313 31.4365 4.82597 32.2495 6.2151 32.712C9.65283 33.8754 12.9502 33.1325 16.0652 31.5065C20.4712 29.1937 23.5721 25.5773 25.9715 21.3161C27.1081 19.3257 28.1885 17.2932 29.3531 15.1346ZM36.1725 21.3161C35.3727 22.9281 34.629 24.4279 33.8993 25.9277C33.8432 26.0539 33.8713 26.3202 33.9695 26.4183C35.0219 27.4136 36.1023 28.3947 37.2529 29.446C38.0527 27.8341 38.7964 26.3202 39.526 24.7924C39.5821 24.6662 39.526 24.4139 39.4278 24.3158C38.3754 23.3346 37.309 22.3674 36.1725 21.3161Z"
      fill="#00469B"
    />
    <path
      d="M14.7455 30.4272C9.53982 33.8754 2.49598 30.9739 1.20507 24.8624C0.531559 21.7086 1.2612 18.765 2.48194 15.8915C4.08154 12.1349 6.45288 8.84089 8.95049 5.63098C10.2554 3.94892 11.5744 2.2949 12.9214 0.570801C17.9307 5.02824 22.9259 9.45765 27.9492 13.9151C27.8229 14.1253 27.7247 14.3076 27.5844 14.5599C24.7921 12.8918 21.8595 12.4573 18.7726 13.4665C16.6678 14.1534 14.9841 15.443 13.6791 17.2231C11.392 20.3349 10.5361 25.9418 14.7455 30.4272Z"
      fill="#EA601F"
    />
    <path
      d="M190.87 16.9008C190.674 16.8027 190.478 16.7046 190.281 16.6064C189.032 16.0458 187.91 15.3028 187.152 14.1114C186.857 13.6628 185.623 13.6068 185.314 14.0553C184.402 15.3449 183.195 16.27 181.75 16.9148C181.75 16.9849 181.75 17.041 181.764 17.1111C182.199 17.1111 182.634 17.1111 183.069 17.1111C185.314 17.1111 185.314 17.1111 185.314 19.3538C185.314 20.0266 185.314 20.7135 185.3 21.3863C185.286 22.003 184.977 22.3535 184.346 22.3535C182.774 22.3675 181.217 22.3535 179.645 22.3535C179 22.3535 178.733 21.975 178.733 21.3723C178.733 20.1808 178.733 19.0034 178.733 17.7418C178.382 17.7418 178.088 17.7418 177.793 17.7418C177.358 17.7418 177.077 17.6017 177.049 17.1111C177.035 16.6625 177.274 16.5364 177.681 16.4523C178.733 16.256 179.8 16.0738 180.824 15.7794C181.918 15.457 182.816 14.8123 183.686 13.8591C183.378 13.8311 183.195 13.803 182.999 13.789C181.455 13.789 179.912 13.775 178.368 13.789C177.863 13.789 177.484 13.7049 177.498 13.0741C177.498 12.4714 177.891 12.4153 178.354 12.4153C180.207 12.4153 182.045 12.3873 183.897 12.4293C184.514 12.4434 184.865 12.2471 185.047 11.6724C185.075 11.5883 185.118 11.5042 185.146 11.4061C185.328 10.8734 185.595 10.3969 186.24 10.6632C186.829 10.9015 186.605 11.4341 186.479 11.8687C186.437 11.9948 186.408 12.135 186.352 12.3312C187.601 12.3312 188.78 12.3312 190.071 12.3312C189.636 11.7986 188.443 11.9107 189.018 10.7052C188.457 10.7052 188.05 10.7193 187.643 10.7052C187.124 10.6912 186.773 10.4389 186.759 9.90626C186.717 8.99515 186.717 8.09806 186.745 7.18695C186.759 6.71036 187.04 6.37395 187.531 6.37395C189.229 6.35994 190.941 6.35994 192.638 6.38797C193.172 6.40199 193.438 6.76643 193.452 7.27105C193.48 8.08404 193.48 8.91105 193.452 9.72404C193.424 10.3548 193.102 10.7193 192.442 10.7193C191.769 10.7193 191.109 10.7193 190.295 10.7193C190.87 11.4061 191.993 11.322 191.979 12.4013C192.596 12.4013 193.158 12.4153 193.719 12.4013C194.224 12.3873 194.533 12.5695 194.505 13.1162C194.491 13.6348 194.182 13.775 193.719 13.775C192.063 13.761 190.407 13.775 188.752 13.775C188.71 13.8311 188.682 13.9011 188.639 13.9572C189.018 14.2516 189.355 14.6581 189.79 14.8263C191.053 15.3028 192.344 15.6673 193.621 16.0738C193.859 16.1439 194.182 16.1158 194.35 16.256C194.547 16.4242 194.729 16.7606 194.701 16.9849C194.673 17.1952 194.364 17.4194 194.14 17.5456C194 17.6297 193.775 17.5596 193.508 17.5596C193.508 18.7511 193.508 19.9005 193.508 21.0639C193.508 22.1292 193.298 22.3254 192.232 22.3394C190.8 22.3535 189.383 22.3535 187.952 22.3394C187.138 22.3254 186.857 22.0591 186.843 21.2461C186.829 20.2229 186.829 19.1856 186.843 18.1623C186.857 17.2933 187.124 17.027 187.98 17.0129C188.948 16.9989 189.916 17.0129 190.885 17.0129C190.842 16.9989 190.856 16.9569 190.87 16.9008ZM190.099 21.148C190.59 21.148 191.081 21.19 191.558 21.1199C191.754 21.0919 192.063 20.8536 192.063 20.7135C192.077 19.9565 192.007 19.1996 191.965 18.4427C191.376 18.3866 190.786 18.3305 190.197 18.2745C190.155 18.2745 190.099 18.2745 190.057 18.2745C187.91 18.3025 188.134 17.924 188.106 20.2509C188.092 20.8817 188.275 21.2321 188.976 21.148C189.355 21.1059 189.734 21.148 190.099 21.148ZM181.918 21.148C182.311 21.148 182.718 21.1199 183.111 21.148C183.756 21.2041 183.967 20.9377 183.953 20.2929C183.883 18.2324 184.332 18.3025 181.96 18.3025C179.772 18.3025 179.982 18.0923 179.982 20.4611C179.982 20.9517 180.221 21.176 180.726 21.148C181.133 21.1199 181.525 21.148 181.918 21.148ZM190.043 7.64951C189.622 7.64951 189.201 7.67754 188.794 7.64951C188.106 7.60746 188.05 8.02797 188.05 8.5466C188.05 9.07925 188.092 9.5278 188.808 9.49977C189.622 9.47173 190.436 9.47173 191.249 9.49977C191.937 9.51378 192.035 9.10729 192.049 8.56062C192.063 7.98592 191.909 7.60746 191.235 7.64951C190.828 7.67754 190.436 7.64951 190.043 7.64951Z"
      fill="#00469B"
    />
    <path
      d="M68.1362 13.0459C68.9079 12.9478 69.5253 12.8777 70.1988 12.7936C70.1707 12.5553 70.1006 12.3871 70.1286 12.2469C70.1848 11.9946 70.3111 11.7423 70.3952 11.49C70.6759 11.6442 71.0688 11.7143 71.2091 11.9526C71.4336 12.3451 71.4897 12.8216 71.616 13.2982C72.9209 13.116 73.1595 11.8965 73.9172 11.0415C73.2717 10.5789 72.6543 10.2004 72.1071 9.73788C71.8966 9.55566 71.6861 9.20523 71.7142 8.96694C71.7423 8.78472 72.1773 8.67258 72.4158 8.53241C72.5982 8.42027 72.8367 8.35019 72.9209 8.18198C73.2577 7.59327 73.5664 6.99053 73.861 6.38779C74.0715 5.93925 74.4504 5.86916 74.7731 6.09344C74.9555 6.21959 75.1099 6.68215 75.0257 6.89241C74.6749 7.69139 74.2118 8.46233 73.7628 9.30335C73.9733 9.48557 74.2118 9.68181 74.5626 9.96216C75.0116 9.1772 75.4466 8.46233 75.8114 7.71942C76.078 7.18677 76.4428 7.1307 76.8919 7.34096C77.411 7.59327 77.2286 8.01378 77.0181 8.35019C76.2745 9.55566 75.5027 10.7471 74.717 11.9386C74.5346 12.2189 74.31 12.4852 74.0014 12.9198C74.8152 12.8357 75.4606 12.7796 76.1201 12.7235C76.0921 12.4432 76.0219 12.2329 76.05 12.0367C76.078 11.8404 76.1762 11.49 76.2745 11.476C76.513 11.448 76.948 11.5181 76.9901 11.6582C77.2707 12.4712 77.4812 13.2982 77.6636 14.1393C77.6917 14.2654 77.4531 14.5738 77.3268 14.5878C77.0602 14.6018 76.7796 14.4897 76.513 14.3916C76.3025 14.3075 76.1061 14.0832 75.9096 14.0832C74.5626 14.1533 73.2156 14.2654 71.8826 14.3775C71.8265 14.3775 71.7563 14.4336 71.7002 14.4616C70.9144 14.8962 70.8583 14.8822 70.3532 14.1112C68.8798 14.2794 67.4065 14.4476 65.835 14.6158C65.821 14.7981 65.8069 15.0363 65.8069 15.2746C65.8069 17.5174 65.8069 19.7601 65.8069 21.9888C65.8069 22.4374 65.821 22.8719 65.2036 22.8719C64.6002 22.8719 64.5862 22.4374 64.5862 21.9888C64.6002 21.5263 64.5862 21.0637 64.5862 20.5311C63.618 20.7553 62.7481 20.9796 61.8641 21.1618C61.0783 21.33 60.5591 20.8534 60.8538 20.1946C60.9801 19.9143 61.387 19.7741 61.7658 19.5078C61.7658 15.6251 61.7658 11.6022 61.7658 7.5372C61.5273 7.52318 61.2747 7.56523 61.1344 7.46711C60.9239 7.31292 60.6994 7.07463 60.6714 6.85036C60.6574 6.66814 60.952 6.31771 61.1064 6.31771C62.8743 6.27566 64.6563 6.27566 66.4384 6.31771C66.6067 6.31771 66.9154 6.66814 66.9014 6.83634C66.8874 7.06062 66.6629 7.31292 66.4524 7.48113C66.3401 7.57925 66.1016 7.52318 65.849 7.55121C65.849 9.47156 65.849 11.3639 65.849 13.2702C66.6208 13.3263 67.0277 12.8917 67.9538 10.9994C67.5047 10.635 67.0557 10.2425 66.5787 9.86404C65.9753 9.38746 66.0314 8.92489 66.719 8.56045C66.9014 8.46233 67.0698 8.26609 67.182 8.08386C67.4907 7.5372 67.7713 6.97651 68.0239 6.40181C68.2204 5.95326 68.501 5.79908 68.964 5.99532C69.4551 6.20557 69.3709 6.58403 69.2026 6.93446C68.8237 7.67737 68.4028 8.40626 67.9397 9.2613C68.1221 9.38746 68.3607 9.55566 68.6974 9.79395C69.0202 9.1772 69.399 8.56045 69.7077 7.90164C69.9462 7.38301 70.2409 7.1307 70.7881 7.41104C71.4055 7.71942 71.1249 8.16797 70.9144 8.53241C70.1567 9.82199 69.3709 11.0835 68.5992 12.3591C68.487 12.5413 68.3607 12.7235 68.1362 13.0459ZM63.1971 16.1297C63.1971 17.3211 63.1971 18.4425 63.1971 19.5919C63.4216 19.5499 63.5759 19.4938 63.7303 19.4938C64.4599 19.4658 64.6704 19.0873 64.6002 18.4005C64.5441 17.9379 64.5862 17.4753 64.5862 17.0128C64.5862 16.0316 64.5862 16.0175 63.5619 16.0736C63.4496 16.0876 63.3514 16.1157 63.1971 16.1297ZM63.183 7.57925C63.183 8.64455 63.183 9.68181 63.183 10.7051C64.5862 10.9013 64.5862 10.9013 64.5862 9.62575C64.5862 9.30335 64.5862 8.98096 64.5862 8.65857C64.5862 7.38301 64.5862 7.38301 63.183 7.57925ZM63.183 11.9946C63.183 13.0039 63.183 13.957 63.183 14.9803C63.5619 14.9803 63.8846 15.0223 64.2073 14.9663C64.3476 14.9382 64.5722 14.728 64.5722 14.6018C64.6002 13.7468 64.5862 12.8917 64.5862 12.0087C64.081 11.9946 63.6741 11.9946 63.183 11.9946Z"
      fill="#00469B"
    />
    <path
      d="M167.985 14.6439C166.806 14.6439 165.824 14.6439 164.856 14.6439C163.845 14.6439 163.523 14.3215 163.495 13.3123C163.48 12.6535 163.466 12.0087 163.495 11.3499C163.537 10.5509 163.887 10.2285 164.687 10.2145C165.824 10.2005 166.974 10.2145 168.237 10.2145C168.237 9.72391 168.293 9.28938 168.209 8.86887C168.181 8.71468 167.816 8.53246 167.606 8.51844C166.371 8.49041 165.122 8.49041 163.887 8.50442C163.438 8.50442 163.074 8.42032 163.06 7.88767C163.046 7.31297 163.424 7.22887 163.901 7.22887C165.136 7.24288 166.385 7.21485 167.62 7.24288C168.055 7.24288 168.279 7.13075 168.237 6.65417C168.209 6.14955 168.392 5.75707 168.981 5.7851C169.528 5.79912 169.682 6.1916 169.64 6.65417C169.598 7.13075 169.823 7.2569 170.258 7.24288C171.493 7.22887 172.741 7.24288 173.976 7.24288C174.411 7.24288 174.762 7.28493 174.762 7.85964C174.762 8.42032 174.439 8.50442 173.99 8.50442C172.826 8.49041 171.647 8.54647 170.482 8.49041C169.795 8.46237 169.542 8.68665 169.64 9.35947C169.668 9.61177 169.64 9.86408 169.64 10.2005C170.749 10.2005 171.759 10.2005 172.783 10.2005C173.878 10.2005 174.159 10.4949 174.173 11.5461C174.173 12.2049 174.187 12.8497 174.173 13.5085C174.159 14.2655 173.822 14.6159 173.05 14.6299C172.068 14.6439 171.1 14.6299 169.963 14.6299C170.16 14.8962 170.272 15.0644 170.398 15.2046C171.38 16.2559 172.545 17.0549 173.878 17.6296C174.074 17.7137 174.257 17.7978 174.453 17.8819C174.944 18.0921 175.127 18.4425 174.916 18.9472C174.692 19.4798 174.229 19.5359 173.822 19.2836C172.741 18.5967 171.689 17.8819 170.651 17.139C170.342 16.9147 170.131 16.5643 169.879 16.2699C169.809 16.3119 169.725 16.34 169.654 16.382C169.654 17.3913 169.682 18.4005 169.64 19.4097C169.626 19.7041 169.43 20.1106 169.205 20.2227C168.7 20.489 168.279 20.1526 168.251 19.5078C168.223 18.6388 168.251 17.7837 168.237 16.9147C168.237 16.6904 168.209 16.4661 168.195 16.1157C167.957 16.34 167.83 16.4942 167.662 16.6063C166.413 17.4894 165.164 18.3865 163.887 19.2415C163.495 19.5078 162.989 19.5639 162.765 19.0032C162.568 18.5126 162.751 18.1061 163.284 17.8819C164.799 17.2511 166.231 16.4802 167.381 15.2607C167.564 15.1345 167.69 14.9803 167.985 14.6439ZM168.237 11.42C167.437 11.42 166.708 11.3919 165.992 11.434C165.655 11.462 165.094 11.5461 165.024 11.7284C164.884 12.1629 164.968 12.6815 165.01 13.1581C165.024 13.2562 165.248 13.4104 165.389 13.4104C166.329 13.4384 167.283 13.4244 168.237 13.4244C168.237 12.7236 168.237 12.1208 168.237 11.42ZM169.739 11.42C169.739 12.1489 169.739 12.7656 169.739 13.4384C170.623 13.4384 171.45 13.4665 172.292 13.4244C172.924 13.3964 172.868 12.8637 172.868 12.4292C172.868 11.9807 172.924 11.462 172.292 11.434C171.45 11.3919 170.609 11.42 169.739 11.42Z"
      fill="#00469B"
    />
    <path
      d="M71.4617 29.8664C71.4617 31.0018 71.5459 32.1512 71.4476 33.2866C71.2652 35.249 70.0725 36.3704 68.1923 36.8189C66.8032 37.1553 65.4141 37.1273 64.039 36.7348C62.0605 36.1601 61.0643 34.7304 60.9801 32.2494C60.924 30.4832 60.9801 28.703 60.9661 26.9369C60.9661 26.5444 61.1064 26.3902 61.4852 26.4042C62.0044 26.4182 62.5095 26.4182 63.0287 26.4042C63.4637 26.3902 63.5759 26.5864 63.5759 26.9929C63.5619 28.7451 63.5619 30.4972 63.5759 32.2353C63.5759 33.8753 64.6002 34.8986 66.2279 34.9126C67.9397 34.9126 68.95 33.9314 68.964 32.2494C68.9781 30.4972 68.9781 28.7451 68.95 27.007C68.95 26.5444 69.1044 26.4042 69.5534 26.3902C71.5459 26.3201 71.5459 26.3061 71.5459 28.2545C71.5459 28.7871 71.5459 29.3338 71.5459 29.8664C71.5178 29.8664 71.4897 29.8664 71.4617 29.8664Z"
      fill="#EA601F"
    />
    <path
      d="M34.3905 5.26658C35.6814 6.44401 36.8881 7.55136 38.2071 8.7288C39.1051 6.93461 39.961 5.19649 40.8731 3.37427C41.8272 4.24333 42.7252 5.05632 43.6092 5.86931C44.6476 6.82248 44.6616 6.83649 44.0442 8.11205C43.3988 9.44367 42.7252 10.7753 42.0377 12.163C40.7608 11.0136 39.5401 9.89222 38.2211 8.70077C37.3371 10.495 36.4672 12.2191 35.5551 14.0553C34.2642 12.8779 33.0294 11.7425 31.7666 10.6071C32.6366 8.84094 33.4925 7.0888 34.3905 5.26658Z"
      fill="#00469B"
    />
    <path
      d="M141.297 9.47169C140.651 9.47169 140.076 9.45767 139.501 9.47169C139.024 9.48571 138.743 9.3175 138.743 8.79887C138.743 8.28023 139.01 8.08399 139.487 8.11203C139.557 8.11203 139.627 8.11203 139.697 8.11203C140.202 8.09801 140.876 8.26622 141.185 8.01391C141.465 7.78964 141.311 7.06075 141.451 6.59818C141.521 6.35989 141.858 6.05151 142.055 6.05151C142.321 6.06553 142.742 6.30382 142.812 6.5281C142.925 6.99066 142.854 7.49528 142.854 8.11203C143.191 8.11203 143.472 8.11203 143.766 8.11203C146.938 8.05596 146.938 8.04194 146.839 11.2238C146.755 13.8731 146.587 16.5223 146.418 19.1715C146.39 19.7182 146.222 20.2649 146.054 20.7975C145.619 22.1712 144.707 22.7599 143.289 22.5917C142.812 22.5356 142.335 22.3814 141.858 22.2553C141.227 22.0871 141.157 21.5965 141.311 21.0919C141.479 20.5452 141.942 20.6293 142.363 20.7555C144.286 21.3302 144.763 21.1339 144.931 19.1435C145.184 16.1578 145.226 13.1442 145.352 10.1445C145.366 9.70998 145.128 9.51374 144.721 9.45767C144.679 9.45767 144.622 9.45767 144.58 9.45767C142.742 9.34553 142.756 9.34553 142.63 11.4201C142.405 15.0084 141.592 18.4567 139.936 21.6806C139.866 21.8208 139.782 21.9609 139.711 22.1151C139.473 22.5917 139.066 22.7599 138.603 22.5497C138.084 22.3114 138.168 21.8768 138.336 21.4143C139.066 19.536 139.936 17.6857 140.441 15.7373C140.918 13.9572 141.002 12.0649 141.255 10.2286C141.325 10.0184 141.297 9.78006 141.297 9.47169Z"
      fill="#00469B"
    />
    <path
      d="M148.046 14.756C148.046 12.7796 148.046 10.7892 148.046 8.81275C148.046 7.64933 148.425 7.27087 149.603 7.25685C150.936 7.24283 152.269 7.24283 153.602 7.25685C154.669 7.27087 155.09 7.6213 155.104 8.65856C155.132 12.7656 155.118 16.8586 155.104 20.9656C155.104 21.9888 154.683 22.3533 153.687 22.3673C152.283 22.3813 150.88 22.3813 149.477 22.3673C148.453 22.3533 148.06 21.9468 148.06 20.8955C148.046 18.849 148.046 16.8025 148.046 14.756ZM153.687 14.8541C153.687 13.0599 153.673 11.2657 153.701 9.47155C153.715 8.84078 153.504 8.57446 152.859 8.60249C152.073 8.64454 151.273 8.61651 150.473 8.61651C149.519 8.61651 149.421 8.71463 149.421 9.63976C149.421 11.3358 149.421 13.0459 149.421 14.742C149.421 16.4941 149.421 18.2322 149.421 19.9844C149.421 20.9235 149.505 21.0076 150.473 21.0076C151.287 21.0076 152.101 20.9796 152.929 21.0216C153.504 21.0497 153.715 20.8114 153.701 20.2507C153.673 18.4425 153.687 16.6483 153.687 14.8541Z"
      fill="#00469B"
    />
    <path
      d="M130.198 11.2099C132.022 11.2099 133.72 11.2099 135.431 11.2099C135.852 11.2099 136.189 11.28 136.203 11.7846C136.217 12.2331 136.049 12.5135 135.572 12.5275C135.151 12.5415 134.744 12.5275 134.225 12.5275C134.225 12.8359 134.225 13.0742 134.225 13.3265C134.225 16.1299 134.239 18.9193 134.211 21.7227C134.211 22.0311 134.07 22.4095 133.874 22.6338C133.748 22.774 133.285 22.788 133.116 22.6619C132.92 22.5217 132.765 22.1713 132.765 21.9049C132.737 19.0875 132.751 16.2701 132.751 13.4386C132.751 13.1583 132.751 12.8919 132.751 12.5695C131.896 12.5695 131.11 12.5695 130.184 12.5695C130.184 13.2844 130.198 13.9993 130.184 14.7142C130.114 16.9429 129.721 19.1155 128.626 21.0919C128.416 21.4564 128.121 21.8348 127.77 22.0591C127.574 22.1853 127.097 22.1012 126.9 21.933C126.746 21.8068 126.718 21.3162 126.844 21.134C128.64 18.4567 128.907 15.4571 128.837 12.3593C128.809 11.0136 128.823 9.65398 128.837 8.30834C128.837 7.32715 129.159 7.0468 130.128 6.99073C131.685 6.89261 133.229 6.72441 134.786 6.59826C134.884 6.58424 134.997 6.54219 135.067 6.57022C135.319 6.71039 135.544 6.89261 135.782 7.06082C135.614 7.27108 135.46 7.6215 135.263 7.64954C133.93 7.84578 132.597 7.99997 131.25 8.09809C130.324 8.16817 130.212 8.22424 130.212 9.16339C130.198 9.79416 130.198 10.453 130.198 11.2099Z"
      fill="#00469B"
    />
    <path
      d="M88.7063 14.5739C90.3901 14.5739 92.0739 14.5598 93.7577 14.5739C94.782 14.5879 95.2731 14.9523 95.3152 15.9616C95.3853 17.6576 95.3573 19.3677 95.2871 21.0638C95.245 21.9469 94.81 22.3253 93.926 22.3393C90.4462 22.3674 86.9664 22.3674 83.4866 22.3393C82.5745 22.3253 82.1536 21.8207 82.1395 20.8956C82.1255 19.3116 82.1395 17.7277 82.1395 16.1438C82.1395 15.0785 82.5886 14.6019 83.669 14.5879C85.3387 14.5598 87.0225 14.5739 88.7063 14.5739ZM88.7063 20.9657C90.1095 20.9657 91.4986 20.9797 92.9017 20.9657C93.6454 20.9516 93.8559 20.7274 93.8699 19.9985C93.884 18.9752 93.8559 17.952 93.8699 16.9287C93.884 16.298 93.5893 15.9475 92.9579 15.9475C90.1095 15.9335 87.2611 15.9335 84.4267 15.9475C83.8795 15.9475 83.5848 16.2279 83.5988 16.8166C83.6269 17.8398 83.5988 18.8631 83.5988 19.8863C83.5988 20.8115 83.7532 20.9657 84.7073 20.9657C86.0403 20.9797 87.3733 20.9657 88.7063 20.9657Z"
      fill="#00469B"
    />
    <path
      d="M125.638 11.8685C126.101 11.8685 126.424 11.8685 126.746 11.8685C127.181 11.8685 127.546 11.9106 127.546 12.4853C127.546 13.0319 127.237 13.1441 126.774 13.1441C126.143 13.13 125.511 13.1581 124.88 13.1441C124.052 13.116 124.347 13.7188 124.305 14.1253C124.249 14.5598 124.305 14.8962 124.908 14.8682C125.624 14.8261 126.353 14.8682 127.083 14.8542C127.518 14.8401 127.771 15.0224 127.785 15.4429C127.785 15.8774 127.574 16.1157 127.083 16.1157C126.185 16.0877 125.287 16.1157 124.389 16.1157C124.361 16.1858 124.333 16.2418 124.305 16.3119C124.782 16.8866 125.273 17.4753 125.75 18.05C126.059 18.4285 126.395 18.7789 126.69 19.1714C126.971 19.5499 127.027 19.9704 126.606 20.2788C126.185 20.5731 125.82 20.433 125.54 20.0124C125.189 19.4938 124.838 18.9892 124.305 18.4986C124.305 19.0312 124.305 19.5779 124.305 20.1106C124.305 20.7834 124.305 21.4562 124.305 22.143C124.305 22.6196 124.038 22.8018 123.589 22.8018C123.168 22.7878 122.944 22.5776 122.944 22.143C122.944 21.0357 122.944 19.9143 122.944 18.5687C122.565 19.0453 122.326 19.3817 122.046 19.676C121.456 20.3068 120.853 20.9095 120.222 21.5123C119.885 21.8347 119.464 21.9748 119.113 21.5683C118.776 21.1618 118.917 20.7413 119.267 20.3909C119.843 19.8162 120.474 19.2836 121.007 18.6668C121.639 17.9379 122.186 17.1389 122.761 16.354C122.719 16.2699 122.677 16.1858 122.635 16.1017C122.074 16.1017 121.498 16.1017 120.937 16.1017C120.544 16.1017 120.137 16.1017 119.745 16.1017C119.338 16.1017 119.155 15.9054 119.141 15.513C119.127 15.0784 119.324 14.8682 119.773 14.8682C120.614 14.8682 121.456 14.8261 122.298 14.8822C122.944 14.9242 122.972 14.5598 122.93 14.0972C122.902 13.6627 123.112 13.116 122.312 13.1581C121.611 13.2001 120.909 13.1581 120.208 13.1721C119.745 13.1721 119.436 13.06 119.422 12.5133C119.422 11.9386 119.801 11.8965 120.222 11.8965C121.344 11.8965 122.467 11.8825 123.589 11.9106C123.996 11.9246 124.235 11.8124 124.403 11.42C124.684 10.7331 125.034 10.0743 125.315 9.38748C125.511 8.89688 125.82 8.75671 126.297 8.92491C126.802 9.10714 126.816 9.4856 126.62 9.8921C126.339 10.4808 126.017 11.0976 125.638 11.8685Z"
      fill="#00469B"
    />
    <path
      d="M102.443 16.1858C102.079 17.7417 101.784 19.1714 101.419 20.5731C101.279 21.1338 100.984 21.6525 100.718 22.1571C100.451 22.6477 99.9038 22.7598 99.4688 22.4514C99.0338 22.1431 99.0759 21.8066 99.3425 21.3721C100.549 19.4378 100.956 17.2791 101.026 15.0504C101.054 13.9851 101.026 12.9058 101.04 11.8405C101.054 10.9294 101.405 10.5509 102.317 10.5369C104.366 10.5089 106.428 10.5089 108.477 10.5369C109.431 10.5509 109.824 10.9854 109.838 11.9246C109.852 12.8778 109.852 13.8309 109.838 14.7841C109.824 15.7232 109.417 16.1578 108.477 16.1578C106.709 16.1718 104.927 16.1718 103.159 16.1718C102.892 16.1858 102.64 16.1858 102.443 16.1858ZM108.407 13.9571C106.499 13.9571 104.562 13.9431 102.64 13.9711C102.528 13.9711 102.317 14.2234 102.317 14.3776C102.303 14.8542 102.626 14.9803 103.061 14.9803C104.59 14.9663 106.134 14.9803 107.677 14.9803C108.421 14.9663 108.533 14.8121 108.407 13.9571ZM108.407 12.7796C108.533 11.9386 108.449 11.8265 107.719 11.8125C106.274 11.7984 104.829 11.8125 103.384 11.8125C103.201 11.8125 102.963 11.7424 102.836 11.8405C102.626 11.9807 102.486 12.233 102.303 12.4292C102.486 12.5413 102.654 12.7516 102.85 12.7656C103.496 12.8077 104.155 12.7796 104.801 12.7796C106.007 12.7796 107.214 12.7796 108.407 12.7796Z"
      fill="#00469B"
    />
    <path
      d="M110.133 36.9313C109.305 36.721 108.449 37.2957 107.832 36.4687C106.092 37.3237 104.773 37.2116 103.678 36.0902C102.542 34.9408 102.289 32.8943 103.075 31.4085C103.903 29.8526 105.095 29.5022 108.014 30.0068C108.014 29.0677 108.042 28.1425 108 27.2174C107.972 26.5726 108.196 26.3624 108.828 26.3764C110.371 26.4325 110.119 26.2642 110.133 27.694C110.147 30.4413 110.133 33.1887 110.133 35.9361C110.133 36.2304 110.133 36.4967 110.133 36.9313ZM108.014 33.2448C108 33.2448 108 33.2448 108.014 33.2448C108.014 32.8243 108.042 32.4037 108 31.9832C107.986 31.773 107.888 31.5207 107.733 31.3945C107.116 30.8899 105.965 31.0301 105.418 31.6188C104.632 32.4598 104.646 34.282 105.446 35.109C105.965 35.6417 106.569 35.6837 107.256 35.4595C107.902 35.2492 108.098 34.8007 108.028 34.1559C107.986 33.8615 108.014 33.5531 108.014 33.2448Z"
      fill="#EA601F"
    />
    <path
      d="M169.711 22.4516C167.943 22.3675 166.161 22.3955 164.407 22.1852C163.537 22.0871 162.695 21.6245 161.895 21.204C161.46 20.9657 161.236 20.9938 160.885 21.3162C160.366 21.7647 159.762 22.1432 159.173 22.5076C158.752 22.7599 158.345 22.6898 158.107 22.2273C157.854 21.7367 158.135 21.4423 158.57 21.2601C158.696 21.204 158.822 21.1339 158.949 21.0919C160.085 20.6714 160.576 19.8584 160.492 18.6529C160.45 17.91 160.464 17.1671 160.492 16.4102C160.506 15.8495 160.324 15.5692 159.734 15.6252C159.384 15.6533 159.033 15.6392 158.682 15.6252C158.219 15.6112 157.994 15.3309 158.008 14.8963C158.022 14.4898 158.247 14.2516 158.668 14.2516C159.44 14.2516 160.211 14.2375 160.983 14.2656C161.516 14.2796 161.881 14.5599 161.895 15.1206C161.937 16.284 161.993 17.4475 161.951 18.6109C161.909 19.564 162.358 20.1668 163.172 20.4191C164.056 20.6854 164.982 20.9097 165.894 20.9377C168.644 21.0078 171.409 20.9657 174.159 20.9517C174.594 20.9517 174.959 21.0358 175.029 21.5404C175.099 22.0871 174.832 22.3675 174.271 22.3534C172.756 22.3394 171.24 22.3534 169.711 22.3534C169.711 22.3955 169.711 22.4235 169.711 22.4516Z"
      fill="#00469B"
    />
    <path
      d="M133.804 36.861C133.06 36.861 132.387 36.861 131.671 36.861C131.671 34.5342 131.671 32.2354 131.671 29.8805C132.344 29.8805 133.032 29.8805 133.762 29.8805C133.79 30.1188 133.818 30.3571 133.86 30.6935C134.632 30.0627 135.375 29.6142 136.357 29.6703C137.592 29.7544 138.631 30.6094 138.687 31.8429C138.757 33.4969 138.701 35.1509 138.701 36.847C137.985 36.847 137.326 36.847 136.54 36.847C136.54 36.4826 136.54 36.0901 136.54 35.7116C136.54 34.5903 136.596 33.4689 136.512 32.3615C136.484 31.955 136.203 31.3803 135.88 31.2542C135.516 31.1 134.926 31.2682 134.547 31.4785C134.028 31.7588 133.762 32.2774 133.79 32.9362C133.846 34.2258 133.804 35.5014 133.804 36.861Z"
      fill="#EA601F"
    />
    <path
      d="M181.75 29.6843C184.612 29.6843 186.324 31.843 185.566 34.5202C185.117 36.1322 183.405 37.1975 181.343 37.0293C178.635 36.819 177.147 34.7866 177.919 32.0532C178.34 30.5814 179.898 29.6843 181.75 29.6843ZM183.433 33.3708C183.363 32.9503 183.335 32.5438 183.237 32.1794C183.027 31.3804 182.493 30.9459 181.764 30.9178C181.104 30.9038 180.389 31.3103 180.276 32.0532C180.136 32.9223 180.136 33.8474 180.262 34.7165C180.361 35.4173 180.964 35.7818 181.708 35.7818C182.451 35.7818 182.97 35.4033 183.195 34.6464C183.335 34.2259 183.363 33.7773 183.433 33.3708Z"
      fill="#EA601F"
    />
    <path
      d="M189.762 36.875C189.004 36.875 188.345 36.875 187.629 36.875C187.629 34.5482 187.629 32.2494 187.629 29.8945C188.302 29.8945 188.99 29.8945 189.72 29.8945C189.748 30.1188 189.776 30.3571 189.79 30.4692C190.562 30.2169 191.319 29.7964 192.105 29.7263C193.522 29.6002 194.575 30.5253 194.659 31.927C194.743 33.553 194.673 35.179 194.673 36.861C193.943 36.861 193.27 36.861 192.498 36.861C192.498 35.4874 192.498 34.1417 192.498 32.7961C192.498 32.5438 192.512 32.2774 192.456 32.0251C192.259 31.1841 191.46 30.8477 190.716 31.3103C190.127 31.6747 189.72 32.1513 189.748 32.9503C189.804 34.2258 189.762 35.5014 189.762 36.875Z"
      fill="#EA601F"
    />
    <path
      d="M148.565 33.3569C148.565 35.5716 146.966 37.0434 144.552 37.0294C142.195 37.0294 140.595 35.5436 140.595 33.3569C140.595 31.1142 142.153 29.6704 144.58 29.6704C147.022 29.6844 148.565 31.1002 148.565 33.3569ZM146.25 33.4831C146.222 33.0205 146.222 32.7121 146.166 32.4178C145.983 31.4926 145.45 30.96 144.678 30.9039C143.893 30.8478 143.177 31.3665 143.037 32.3056C142.924 33.0906 142.967 33.9176 143.121 34.7026C143.261 35.4034 143.836 35.7538 144.58 35.7538C145.282 35.7538 145.815 35.3894 146.039 34.6745C146.166 34.254 146.208 33.7914 146.25 33.4831Z"
      fill="#EA601F"
    />
    <path
      d="M76.0503 36.8751C75.2785 36.8751 74.6331 36.8751 73.9175 36.8751C73.9175 34.5483 73.9175 32.2355 73.9175 29.8666C74.591 29.8666 75.2785 29.8666 75.9941 29.8666C76.0362 30.1189 76.0783 30.3572 76.1345 30.6936C76.4011 30.4973 76.5835 30.3431 76.7939 30.203C77.692 29.5722 78.6601 29.4881 79.6424 29.9226C80.5684 30.3291 80.9754 31.1281 80.9894 32.1093C81.0174 33.525 81.0034 34.9548 81.0174 36.3705C81.0174 36.819 80.821 36.9172 80.4141 36.9032C78.5479 36.8471 78.8706 37.1835 78.8426 35.3893C78.8285 34.4642 78.8566 33.525 78.8285 32.5999C78.8005 31.5907 78.4497 31.1281 77.7341 31.1141C76.9904 31.0861 76.0783 31.9271 76.0643 32.698C76.0503 33.8194 76.0643 34.9408 76.0643 36.0481C76.0503 36.3004 76.0503 36.5527 76.0503 36.8751Z"
      fill="#EA601F"
    />
    <path
      d="M165.782 35.3613C165.754 35.8939 166.02 36.3845 165.305 36.6789C163.972 37.2256 163.158 37.1695 162.47 36.3705C161.881 36.5808 161.306 36.8191 160.702 36.9733C159.552 37.2536 158.528 36.7069 158.205 35.7398C157.91 34.8286 158.401 33.8755 159.482 33.3989C160.225 33.0765 161.011 32.8522 161.769 32.5439C162.007 32.4457 162.386 32.1233 162.358 32.0533C162.232 31.7449 162.021 31.3244 161.741 31.2262C160.955 30.9319 160.183 31.1562 159.468 31.5486C159.187 31.7028 158.92 31.8851 158.64 32.0673C158.317 30.6515 158.471 30.217 159.832 29.9647C160.885 29.7685 161.993 29.7545 163.06 29.8666C164.014 29.9647 164.505 30.6375 164.547 31.6047C164.603 32.5999 164.575 33.6092 164.575 34.6044C164.603 35.6276 164.729 35.7257 165.782 35.3613ZM162.414 33.3428C161.755 33.6792 161.222 33.8334 160.829 34.1698C160.576 34.3941 160.422 34.8847 160.464 35.2351C160.52 35.6837 160.955 35.8098 161.404 35.7117C161.867 35.6136 162.358 35.5015 162.414 34.9127C162.442 34.4782 162.414 34.0157 162.414 33.3428Z"
      fill="#EA601F"
    />
    <path
      d="M129.454 36.8611C128.696 36.8611 128.037 36.8611 127.265 36.8611C127.265 35.5435 127.265 34.2679 127.265 32.9924C127.265 32.67 127.265 32.3336 127.181 32.0252C126.984 31.1562 126.241 30.8338 125.469 31.2963C124.866 31.6608 124.445 32.1373 124.473 32.9223C124.515 34.0156 124.459 35.109 124.487 36.2163C124.501 36.7069 124.375 36.9172 123.827 36.9172C122.312 36.9032 122.312 36.9312 122.312 35.4033C122.312 33.7773 122.326 32.1373 122.298 30.5114C122.298 30.0208 122.41 29.7685 122.957 29.8245C123.42 29.8666 123.883 29.8385 124.375 29.8385C124.445 30.1329 124.501 30.3712 124.543 30.5674C125.188 30.2731 125.778 29.8526 126.423 29.7404C128.107 29.4461 129.314 30.4273 129.426 32.2074C129.524 33.7213 129.454 35.2632 129.454 36.8611Z"
      fill="#EA601F"
    />
    <path
      d="M101.251 33.6793C99.5389 33.6793 97.8691 33.6793 96.1573 33.6793C96.1292 34.4922 96.452 35.0669 97.0694 35.4034C98.4865 36.1743 99.7634 35.6557 101.012 34.8987C101.335 35.894 101.223 36.2023 100.339 36.5808C99.0057 37.1415 97.6306 37.2256 96.2415 36.777C94.4875 36.2023 93.6316 34.6464 93.9263 32.614C94.1648 30.988 95.6381 29.7264 97.35 29.6984C99.595 29.6563 100.942 30.7917 101.251 33.0204C101.265 33.2027 101.251 33.4129 101.251 33.6793ZM99.2583 32.5579C99.1881 31.4645 98.5848 30.8758 97.6727 30.9039C96.7607 30.9459 96.2134 31.5486 96.2275 32.5579C97.2377 32.5579 98.2199 32.5579 99.2583 32.5579Z"
      fill="#EA601F"
    />
    <path
      d="M79.8809 10.621C80.0633 10.4808 80.3158 10.1584 80.6526 10.0182C81.7751 9.55565 82.9678 9.26129 84.0342 8.70061C85.2409 8.06984 86.3775 7.28488 87.486 6.47189C88.3559 5.84112 88.9312 5.67292 89.7591 6.33172C91.934 8.05582 94.3334 9.27531 97.0134 10.0042C97.2379 10.0603 97.5326 10.5369 97.4905 10.7751C97.4484 11.0555 97.1256 11.3779 96.845 11.5321C96.6486 11.6442 96.2978 11.518 96.0452 11.4339C93.6458 10.621 91.3727 9.52762 89.4363 7.8736C88.8891 7.41104 88.4962 7.4671 87.9771 7.90163C85.9425 9.63976 83.5712 10.7611 81.0314 11.5741C80.3579 11.7704 79.9089 11.49 79.8809 10.621Z"
      fill="#00469B"
    />
    <path
      d="M116.531 13.7609C116.531 15.8774 116.503 18.008 116.545 20.1246C116.573 22.1711 115.802 22.7598 113.767 22.5916C113.051 22.5356 112.35 22.3113 111.648 22.1431C111.129 22.0169 110.891 21.6665 111.031 21.1479C111.171 20.6292 111.592 20.6713 111.999 20.7694C112.56 20.9096 113.136 21.0498 113.697 21.1619C114.763 21.3581 115.072 21.1058 115.072 20.0405C115.072 15.7793 115.072 11.5041 115.072 7.24291C115.072 7.00462 115.016 6.72428 115.128 6.55607C115.282 6.34581 115.563 6.09351 115.788 6.09351C116.012 6.09351 116.293 6.34581 116.419 6.57009C116.531 6.76633 116.503 7.06069 116.503 7.32701C116.531 9.47163 116.531 11.6162 116.531 13.7609Z"
      fill="#00469B"
    />
    <path
      d="M119.702 36.861C118.916 36.861 118.102 36.861 117.261 36.861C117.247 36.6648 117.204 36.4966 117.204 36.3143C117.204 33.2306 117.218 30.1608 117.19 27.0771C117.19 26.5725 117.317 26.3482 117.85 26.3902C118.341 26.4323 118.832 26.3622 119.323 26.4183C119.492 26.4463 119.772 26.6846 119.772 26.8388C119.786 30.1188 119.786 33.4128 119.772 36.6928C119.772 36.7489 119.73 36.7769 119.702 36.861Z"
      fill="#EA601F"
    />
    <path
      d="M54.8764 15.0504C54.0486 16.7324 53.2207 18.4005 52.3648 20.1526C51.144 19.0452 49.9794 17.9799 48.7446 16.8586C49.5585 15.1905 50.3863 13.5085 51.2563 11.7563C52.4911 12.8777 53.6697 13.957 54.8764 15.0504Z"
      fill="#00469B"
    />
    <path
      d="M157.279 29.8244C156.199 32.2213 155.174 34.4921 154.136 36.7489C153.925 37.1974 152.887 37.2114 152.677 36.7629C151.638 34.5061 150.614 32.2354 149.52 29.8384C150.305 29.8384 150.993 29.8104 151.666 29.8525C151.793 29.8665 151.961 30.1188 152.031 30.287C152.382 31.156 152.705 32.0251 153.041 32.8942C153.126 33.1325 153.238 33.3567 153.42 33.7492C153.897 32.5718 154.332 31.5485 154.697 30.5113C154.88 30.0066 155.104 29.7403 155.693 29.8244C156.17 29.8665 156.662 29.8244 157.279 29.8244Z"
      fill="#EA601F"
    />
    <path
      d="M87.963 31.3384C87.5561 31.3104 87.2615 31.2824 86.9668 31.2543C86.9808 30.7357 89.0154 28.2827 90.0958 27.5398C90.0958 28.1706 90.1099 28.7172 90.0958 29.2639C90.0818 29.6844 90.2502 29.8526 90.6711 29.8386C91.3166 29.8106 91.9761 29.8386 92.6917 29.8386C92.6917 30.3292 92.6917 30.7777 92.6917 31.3104C92.0182 31.3104 91.3446 31.3244 90.6711 31.3104C90.2502 31.2964 90.0818 31.4506 90.0958 31.8711C90.1239 32.5719 90.0958 33.2728 90.0958 33.9736C90.1099 35.2352 90.7553 35.7118 91.962 35.3754C92.0743 35.3473 92.1865 35.3053 92.2988 35.2772C92.411 35.2492 92.5093 35.2072 92.7338 35.1371C92.7338 35.5856 92.7759 35.9781 92.7197 36.3566C92.6917 36.5107 92.4952 36.735 92.3549 36.7631C91.6533 36.8892 90.9237 37.0854 90.2221 37.0294C88.7488 36.9172 88.0192 36.0762 87.9771 34.5904C87.935 33.4971 87.963 32.4318 87.963 31.3384Z"
      fill="#EA601F"
    />
    <path
      d="M169.486 27.6517C169.486 28.3386 169.486 29.0254 169.486 29.7823C170.384 29.7823 171.184 29.7823 172.054 29.7823C172.054 30.315 172.054 30.7635 172.054 31.2822C171.226 31.2822 170.412 31.2822 169.57 31.2822C169.57 32.4316 169.528 33.5249 169.585 34.6042C169.613 35.1228 170.034 35.4312 170.567 35.4172C171.044 35.4032 171.521 35.2911 172.11 35.2069C172.11 35.5574 172.152 35.9218 172.096 36.2722C172.068 36.4545 171.886 36.6928 171.717 36.7488C170.819 37.0712 169.907 37.1693 168.981 36.889C168.013 36.5946 167.424 35.8237 167.396 34.7444C167.368 33.637 167.396 32.5157 167.396 31.3663C167.031 31.3242 166.736 31.2822 166.231 31.2121C167.115 29.7823 168.322 28.7731 169.276 27.5676C169.346 27.5957 169.416 27.6237 169.486 27.6517Z"
      fill="#EA601F"
    />
    <path
      d="M105.923 17.209C106.723 17.209 107.509 17.209 108.308 17.209C109.263 17.223 109.684 17.6155 109.684 18.5686C109.698 19.3676 109.698 20.1526 109.684 20.9516C109.67 21.8627 109.277 22.3112 108.379 22.3252C106.751 22.3533 105.109 22.3533 103.482 22.3252C102.654 22.3112 102.247 21.8907 102.219 21.0497C102.191 20.1946 102.191 19.3256 102.219 18.4705C102.247 17.5874 102.64 17.223 103.538 17.209C104.338 17.209 105.137 17.209 105.923 17.209ZM105.979 18.4285C105.979 18.4285 105.979 18.4145 105.979 18.4285C105.741 18.4285 105.516 18.4285 105.278 18.4285C103.454 18.4285 103.426 18.4705 103.524 20.3068C103.552 20.8534 103.79 21.1198 104.338 21.1198C105.053 21.1198 105.783 21.1198 106.498 21.1198C108.463 21.1198 108.463 21.1198 108.351 19.1994C108.351 19.1714 108.351 19.1574 108.351 19.1293C108.351 18.6668 108.084 18.4565 107.649 18.4425C107.102 18.4145 106.541 18.4285 105.979 18.4285Z"
      fill="#00469B"
    />
    <path
      d="M108.505 9.07916C108.449 9.75198 108.028 9.86412 107.481 9.8501C106.078 9.83609 104.675 9.87814 103.271 9.82207C102.879 9.80805 102.5 9.56976 102.107 9.42959C102.121 9.3595 102.149 9.28942 102.163 9.21933C101.602 9.44361 101.04 9.66788 100.465 9.86412C100.086 9.99027 99.6794 10.0183 99.525 9.54173C99.3707 9.09318 99.5671 8.7848 100.03 8.63061C101.728 8.06993 103.314 7.29899 104.618 6.03745C105.067 5.60292 105.587 5.70104 106.022 6.06548C107.242 7.07472 108.617 7.80361 110.147 8.2101C110.61 8.33626 110.764 8.64463 110.624 9.05113C110.484 9.47164 110.147 9.5978 109.726 9.45762C109.347 9.3595 108.954 9.21933 108.505 9.07916ZM107.298 8.53249C106.653 8.06993 106.19 7.7195 105.713 7.39711C105.559 7.29899 105.264 7.20087 105.152 7.28497C104.632 7.6354 104.155 8.05591 103.552 8.53249C104.843 8.53249 105.966 8.53249 107.298 8.53249Z"
      fill="#00469B"
    />
    <path
      d="M181.82 6.44402C182.564 6.44402 183.321 6.43 184.065 6.44402C184.823 6.45804 185.118 6.76641 185.132 7.52334C185.146 8.29428 185.146 9.06522 185.132 9.83616C185.118 10.6632 184.809 10.9996 183.995 11.0136C182.522 11.0276 181.048 11.0276 179.575 11.0136C178.803 10.9996 178.481 10.6632 178.467 9.89223C178.453 9.09325 178.453 8.3083 178.467 7.50932C178.481 6.82248 178.789 6.48607 179.505 6.47205C180.277 6.41599 181.048 6.44402 181.82 6.44402ZM181.834 9.66795C182.255 9.66795 182.676 9.65394 183.097 9.66795C183.827 9.69599 183.756 9.16334 183.756 8.70077C183.771 8.23821 183.827 7.71958 183.097 7.73359C182.311 7.74761 181.511 7.73359 180.726 7.73359C179.898 7.73359 179.842 7.8177 179.842 8.68676C179.842 9.55582 179.926 9.63992 180.712 9.65394C181.09 9.66795 181.469 9.66795 181.834 9.66795Z"
      fill="#00469B"
    />
    <path
      d="M69.0064 19.7041C68.5995 19.7041 68.1786 19.7041 67.7717 19.7041C67.056 19.7181 66.6632 19.3396 66.6211 18.6668C66.579 17.6436 66.5649 16.6203 66.6211 15.5971C66.6351 15.3868 66.9999 15.0364 67.1964 15.0364C67.3928 15.0364 67.7576 15.3588 67.7857 15.583C67.8699 16.2699 67.8418 16.9707 67.8558 17.6716C67.8699 18.3865 68.0242 18.4566 68.9082 18.4986C69.5256 18.5266 69.6659 18.2883 69.6379 17.7277C69.5958 17.0268 69.5817 16.326 69.6519 15.6391C69.6659 15.4289 69.9746 15.1065 70.1851 15.0784C70.3815 15.0644 70.8025 15.3448 70.8025 15.513C70.8165 16.8306 70.8726 18.1762 70.6902 19.4798C70.5078 20.8395 68.5995 22.4795 67.2525 22.6056C67.028 22.6196 66.6632 22.4094 66.5649 22.1991C66.4106 21.8487 66.4808 21.4842 66.9298 21.274C67.477 21.0217 68.0102 20.7273 68.5434 20.447C68.7679 20.3208 68.9924 20.1947 69.2169 20.0685C69.1608 19.9424 69.0766 19.8162 69.0064 19.7041Z"
      fill="#00469B"
    />
    <path
      d="M73.7912 18.3585C73.9315 18.4286 73.9455 18.4427 73.9736 18.4427C76.1765 18.5688 75.9661 18.4847 75.952 16.6765C75.952 16.3541 75.8819 16.0037 75.9801 15.7093C76.0503 15.485 76.3449 15.1486 76.4993 15.1626C76.7378 15.1907 77.1167 15.471 77.1307 15.6673C77.1868 16.6905 77.1868 17.7138 77.1307 18.737C77.1026 19.2977 76.7238 19.6621 76.1064 19.6902C75.5732 19.7182 75.0259 19.7322 74.4928 19.7042C73.9596 19.6762 73.707 19.8163 73.7631 20.405C73.8192 20.9097 73.7631 21.4283 73.7771 21.9469C73.7912 22.3955 73.6228 22.6898 73.1598 22.7039C72.6827 22.7179 72.5283 22.4375 72.5424 21.989C72.5564 19.9425 72.5564 17.882 72.5424 15.8355C72.5424 15.4009 72.6406 15.1066 73.1598 15.1206C73.6509 15.1486 73.7771 15.429 73.7771 15.8635C73.7771 16.7045 73.7912 17.5315 73.7912 18.3585Z"
      fill="#00469B"
    />
    <path
      d="M88.6362 12.962C86.9945 12.962 85.3669 12.962 83.7252 12.962C83.2481 12.962 82.8272 12.9199 82.7991 12.2892C82.771 11.6163 83.22 11.5322 83.7112 11.5322C86.9805 11.5182 90.2499 11.5182 93.5192 11.5322C93.9823 11.5322 94.4172 11.6023 94.4172 12.2471C94.4172 12.934 93.9682 12.962 93.4631 12.962C91.8635 12.962 90.2499 12.962 88.6362 12.962Z"
      fill="#00469B"
    />
    <path
      d="M111.704 13.0599C111.704 11.448 111.704 9.85001 111.704 8.23804C111.704 7.74744 111.774 7.31291 112.378 7.29889C113.037 7.28488 113.079 7.74744 113.079 8.26607C113.065 11.5321 113.065 14.784 113.079 18.05C113.079 18.5546 113.009 18.9611 112.392 18.9471C111.774 18.9331 111.704 18.5126 111.718 18.022C111.718 16.368 111.704 14.7139 111.704 13.0599Z"
      fill="#00469B"
    />
    <path
      d="M83.2905 29.8525C84.0061 29.8525 84.6656 29.8525 85.3812 29.8525C85.3812 32.1794 85.3812 34.4782 85.3812 36.8331C84.7077 36.8331 84.0202 36.8331 83.2905 36.8331C83.2905 34.5343 83.2905 32.2354 83.2905 29.8525Z"
      fill="#EA601F"
    />
    <path
      d="M173.738 36.903C173.738 34.4921 173.738 32.1933 173.738 29.8244C174.341 29.8244 174.888 29.7964 175.436 29.8524C175.576 29.8664 175.786 30.1328 175.8 30.301C175.828 32.3475 175.828 34.394 175.8 36.4405C175.8 36.5947 175.534 36.875 175.379 36.889C174.846 36.9311 174.313 36.903 173.738 36.903Z"
      fill="#EA601F"
    />
    <path
      d="M123.505 8.51849C122.312 8.51849 121.12 8.51849 119.927 8.51849C119.478 8.51849 119.141 8.43439 119.141 7.87371C119.141 7.299 119.506 7.24294 119.941 7.24294C120.713 7.24294 121.484 7.22892 122.256 7.24294C122.649 7.25695 122.874 7.14482 122.845 6.69627C122.803 6.20567 122.944 5.78516 123.547 5.78516C124.15 5.78516 124.375 6.13558 124.305 6.69627C124.249 7.14482 124.487 7.25695 124.894 7.24294C125.624 7.22892 126.339 7.24294 127.069 7.24294C127.518 7.24294 127.855 7.32704 127.841 7.88772C127.827 8.44841 127.49 8.51849 127.041 8.51849C125.848 8.50448 124.67 8.51849 123.505 8.51849Z"
      fill="#00469B"
    />
    <path
      d="M158.106 10.649C158.12 9.93414 158.541 9.77995 158.92 9.96218C159.818 10.3687 160.702 10.8593 161.53 11.4059C161.67 11.5041 161.656 12.0227 161.544 12.261C161.46 12.4152 160.997 12.4993 160.8 12.4012C159.987 12.0087 159.201 11.5461 158.415 11.0835C158.261 10.9714 158.177 10.7331 158.106 10.649Z"
      fill="#00469B"
    />
    <path
      d="M162.288 8.30814C162.274 8.88285 161.895 9.1772 161.446 8.95293C160.618 8.53242 159.819 8.06985 159.033 7.57925C158.879 7.48113 158.766 7.17276 158.794 6.99054C158.822 6.82233 159.061 6.61207 159.229 6.57002C159.72 6.44387 161.994 7.57925 162.218 8.0278C162.274 8.13994 162.274 8.26609 162.288 8.30814Z"
      fill="#00469B"
    />
    <path
      d="M85.5213 27.4836C85.5073 28.1424 84.9601 28.661 84.2866 28.647C83.6271 28.633 83.1079 28.0863 83.1079 27.4275C83.1219 26.7547 83.6411 26.2641 84.3427 26.2781C85.0302 26.2781 85.5494 26.8108 85.5213 27.4836Z"
      fill="#EA601F"
    />
    <path
      d="M173.569 27.4556C173.569 26.7548 174.032 26.2782 174.734 26.2642C175.45 26.2642 175.899 26.7127 175.899 27.4416C175.899 28.1565 175.45 28.6331 174.748 28.6471C174.074 28.6471 173.569 28.1425 173.569 27.4556Z"
      fill="#EA601F"
    />
    <path
      d="M121.218 8.82697C121.288 8.86902 121.512 8.93911 121.61 9.07928C121.905 9.54184 122.214 10.0324 122.396 10.5511C122.48 10.7753 122.256 11.1118 122.172 11.3921C121.877 11.28 121.484 11.2519 121.302 11.0557C120.979 10.7053 120.754 10.2567 120.53 9.82218C120.221 9.27552 120.502 8.81295 121.218 8.82697Z"
      fill="#00469B"
    />
  </g>
  <defs>
    <clipPath id="clip0_822_7642">
      <rect
        width="193.734"
        height="46.4247"
        fill="white"
        transform="translate(0.953125 0.570801)"
      />
    </clipPath>
  </defs>
</svg>
