<svg viewBox="0 0 195 47" fill="none" xmlns="http://www.w3.org/2000/svg">
  <g clip-path="url(#clip0_709_7570)">
    <path
      d="M29.3609 14.7234C31.6621 16.812 33.8651 18.8445 36.1803 20.947C36.9941 19.307 37.7799 17.7231 38.5937 16.0691C39.7443 17.1063 40.8668 18.1156 42.0595 19.2089C42.8733 17.5689 43.6591 15.999 44.4729 14.345C45.5814 15.3542 46.6618 16.3214 47.7002 17.3166C47.8124 17.4147 47.7563 17.7932 47.6581 17.9894C47.0407 19.293 46.4093 20.5966 45.7498 21.8722C45.5533 22.2506 45.6095 22.4889 45.9322 22.7693C46.9425 23.6663 47.9387 24.5915 48.977 25.5446C48.7946 25.9091 48.6122 26.2735 48.4298 26.638C46.8022 29.8339 45.2306 33.0578 43.5468 36.2257C40.6563 41.6643 36.068 44.9303 30.0765 46.1077C18.4304 48.4065 6.92449 42.0428 2.53261 31.0393C2.43439 30.787 2.3502 30.5207 2.30811 30.4086C3.57095 31.0253 4.83378 31.8383 6.22291 32.3009C9.66064 33.4643 12.9581 32.7214 16.0731 31.0954C20.479 28.7826 23.5799 25.1662 25.9793 20.905C27.1159 18.9145 28.1963 16.8821 29.3609 14.7234ZM36.1803 20.905C35.3805 22.5169 34.6368 24.0168 33.9072 25.5166C33.851 25.6428 33.8791 25.9091 33.9773 26.0072C35.0297 27.0024 36.1101 27.9836 37.2607 29.0349C38.0605 27.4229 38.8042 25.9091 39.5338 24.3812C39.5899 24.2551 39.5338 24.0028 39.4356 23.9046C38.3832 22.9234 37.3168 21.9563 36.1803 20.905Z"
      fill="black"
      fill-opacity="0.2"
    />
    <path
      d="M14.7533 30.0161C9.54763 33.4643 2.50379 30.5628 1.21289 24.4513C0.539371 21.2975 1.26901 18.3539 2.48976 15.4804C4.08935 11.7238 6.46069 8.42976 8.9583 5.21984C10.2632 3.53779 11.5822 1.88377 12.9292 0.159668C17.9385 4.61711 22.9337 9.04651 27.957 13.504C27.8307 13.7142 27.7325 13.8964 27.5922 14.1487C24.7999 12.4807 21.8673 12.0462 18.7804 13.0554C16.6757 13.7422 14.9919 15.0318 13.6869 16.812C11.3998 19.9238 10.5439 25.5306 14.7533 30.0161Z"
      fill="black"
      fill-opacity="0.2"
    />
    <path
      d="M190.878 16.4897C190.682 16.3915 190.485 16.2934 190.289 16.1953C189.04 15.6346 187.918 14.8917 187.16 13.7003C186.865 13.2517 185.631 13.1956 185.322 13.6442C184.41 14.9338 183.203 15.8589 181.758 16.5037C181.758 16.5738 181.758 16.6298 181.772 16.6999C182.207 16.6999 182.642 16.6999 183.077 16.6999C185.322 16.6999 185.322 16.6999 185.322 18.9427C185.322 19.6155 185.322 20.3023 185.308 20.9751C185.294 21.5919 184.985 21.9423 184.354 21.9423C182.782 21.9563 181.225 21.9423 179.653 21.9423C179.008 21.9423 178.741 21.5639 178.741 20.9611C178.741 19.7697 178.741 18.5922 178.741 17.3307C178.39 17.3307 178.096 17.3307 177.801 17.3307C177.366 17.3307 177.085 17.1905 177.057 16.6999C177.043 16.2514 177.282 16.1252 177.689 16.0411C178.741 15.8449 179.807 15.6627 180.832 15.3683C181.926 15.0459 182.824 14.4011 183.694 13.448C183.385 13.4199 183.203 13.3919 183.007 13.3779C181.463 13.3779 179.92 13.3639 178.376 13.3779C177.871 13.3779 177.492 13.2938 177.506 12.663C177.506 12.0603 177.899 12.0042 178.362 12.0042C180.214 12.0042 182.052 11.9762 183.905 12.0182C184.522 12.0322 184.873 11.836 185.055 11.2613C185.083 11.1772 185.125 11.0931 185.153 10.995C185.336 10.4623 185.602 9.98573 186.248 10.2521C186.837 10.4903 186.613 11.023 186.486 11.4575C186.444 11.5837 186.416 11.7239 186.36 11.9201C187.609 11.9201 188.788 11.9201 190.079 11.9201C189.644 11.3874 188.451 11.4996 189.026 10.2941C188.465 10.2941 188.058 10.3081 187.651 10.2941C187.132 10.2801 186.781 10.0278 186.767 9.49513C186.725 8.58402 186.725 7.68692 186.753 6.77581C186.767 6.29923 187.048 5.96282 187.539 5.96282C189.237 5.9488 190.948 5.9488 192.646 5.97684C193.179 5.99085 193.446 6.3553 193.46 6.85991C193.488 7.67291 193.488 8.49992 193.46 9.31291C193.432 9.94368 193.109 10.3081 192.45 10.3081C191.776 10.3081 191.117 10.3081 190.303 10.3081C190.878 10.995 192.001 10.9109 191.987 11.9902C192.604 11.9902 193.165 12.0042 193.727 11.9902C194.232 11.9762 194.541 12.1584 194.512 12.705C194.498 13.2237 194.19 13.3639 193.727 13.3639C192.071 13.3498 190.415 13.3639 188.76 13.3639C188.717 13.4199 188.689 13.49 188.647 13.5461C189.026 13.8404 189.363 14.2469 189.798 14.4151C191.061 14.8917 192.352 15.2562 193.628 15.6627C193.867 15.7327 194.19 15.7047 194.358 15.8449C194.555 16.0131 194.737 16.3495 194.709 16.5738C194.681 16.784 194.372 17.0083 194.148 17.1345C194.007 17.2186 193.783 17.1485 193.516 17.1485C193.516 18.3399 193.516 19.4893 193.516 20.6527C193.516 21.718 193.306 21.9143 192.239 21.9283C190.808 21.9423 189.391 21.9423 187.96 21.9283C187.146 21.9143 186.865 21.648 186.851 20.835C186.837 19.8117 186.837 18.7745 186.851 17.7512C186.865 16.8821 187.132 16.6158 187.988 16.6018C188.956 16.5878 189.924 16.6018 190.892 16.6018C190.85 16.5878 190.864 16.5457 190.878 16.4897ZM190.107 20.7368C190.598 20.7368 191.089 20.7789 191.566 20.7088C191.762 20.6808 192.071 20.4425 192.071 20.3023C192.085 19.5454 192.015 18.7885 191.973 18.0315C191.383 17.9755 190.794 17.9194 190.205 17.8633C190.163 17.8633 190.107 17.8633 190.064 17.8633C187.918 17.8914 188.142 17.5129 188.114 19.8398C188.1 20.4705 188.282 20.821 188.984 20.7368C189.363 20.6948 189.742 20.7368 190.107 20.7368ZM181.926 20.7368C182.319 20.7368 182.726 20.7088 183.119 20.7368C183.764 20.7929 183.975 20.5266 183.961 19.8818C183.891 17.8213 184.34 17.8914 181.968 17.8914C179.779 17.8914 179.99 17.6811 179.99 20.05C179.99 20.5406 180.228 20.7649 180.733 20.7368C181.14 20.7088 181.533 20.7368 181.926 20.7368ZM190.05 7.23838C189.629 7.23838 189.209 7.26641 188.802 7.23838C188.114 7.19633 188.058 7.61684 188.058 8.13547C188.058 8.66812 188.1 9.11667 188.816 9.08863C189.63 9.0606 190.443 9.0606 191.257 9.08863C191.945 9.10265 192.043 8.69616 192.057 8.14949C192.071 7.57479 191.917 7.19633 191.243 7.23838C190.836 7.26641 190.443 7.23838 190.05 7.23838Z"
      fill="black"
      fill-opacity="0.2"
    />
    <path
      d="M68.144 12.6348C68.9157 12.5367 69.5331 12.4666 70.2066 12.3825C70.1786 12.1442 70.1084 11.976 70.1365 11.8358C70.1926 11.5835 70.3189 11.3312 70.4031 11.0789C70.6837 11.2331 71.0766 11.3032 71.2169 11.5415C71.4414 11.9339 71.4975 12.4105 71.6238 12.8871C72.9287 12.7049 73.1673 11.4854 73.925 10.6303C73.2795 10.1678 72.6621 9.78931 72.1149 9.32675C71.9044 9.14453 71.694 8.7941 71.722 8.55581C71.7501 8.37359 72.1851 8.26145 72.4236 8.12128C72.606 8.00914 72.8446 7.93906 72.9287 7.77085C73.2655 7.18213 73.5742 6.5794 73.8689 5.97666C74.0793 5.52811 74.4582 5.45803 74.7809 5.6823C74.9633 5.80846 75.1177 6.27102 75.0335 6.48128C74.6827 7.28025 74.2196 8.05119 73.7706 8.89222C73.9811 9.07444 74.2196 9.27068 74.5704 9.55102C75.0194 8.76607 75.4544 8.05119 75.8192 7.30829C76.0858 6.77564 76.4507 6.71957 76.8997 6.92982C77.4188 7.18213 77.2364 7.60265 77.026 7.93906C76.2823 9.14453 75.5105 10.336 74.7248 11.5274C74.5424 11.8078 74.3179 12.0741 74.0092 12.5086C74.823 12.4245 75.4685 12.3685 76.1279 12.3124C76.0999 12.0321 76.0297 11.8218 76.0578 11.6256C76.0858 11.4293 76.1841 11.0789 76.2823 11.0649C76.5208 11.0368 76.9558 11.1069 76.9979 11.2471C77.2785 12.0601 77.489 12.8871 77.6714 13.7281C77.6995 13.8543 77.4609 14.1627 77.3346 14.1767C77.068 14.1907 76.7874 14.0785 76.5208 13.9804C76.3103 13.8963 76.1139 13.6721 75.9175 13.6721C74.5704 13.7421 73.2234 13.8543 71.8904 13.9664C71.8343 13.9664 71.7641 14.0225 71.708 14.0505C70.9222 14.485 70.8661 14.471 70.361 13.7001C68.8877 13.8683 67.4143 14.0365 65.8428 14.2047C65.8288 14.3869 65.8147 14.6252 65.8147 14.8635C65.8147 17.1062 65.8147 19.349 65.8147 21.5777C65.8147 22.0262 65.8288 22.4608 65.2114 22.4608C64.608 22.4608 64.594 22.0262 64.594 21.5777C64.608 21.1151 64.594 20.6526 64.594 20.1199C63.6258 20.3442 62.7559 20.5685 61.8719 20.7507C61.0861 20.9189 60.5669 20.4423 60.8616 19.7835C60.9879 19.5032 61.3948 19.363 61.7737 19.0967C61.7737 15.2139 61.7737 11.191 61.7737 7.12606C61.5351 7.11205 61.2825 7.1541 61.1422 7.05598C60.9318 6.90179 60.7073 6.6635 60.6792 6.43923C60.6652 6.257 60.9598 5.90658 61.1142 5.90658C62.8821 5.86453 64.6642 5.86453 66.4462 5.90658C66.6145 5.90658 66.9232 6.257 66.9092 6.42521C66.8952 6.64948 66.6707 6.90179 66.4602 7.07C66.3479 7.16812 66.1094 7.11205 65.8568 7.14008C65.8568 9.06042 65.8568 10.9527 65.8568 12.8591C66.6286 12.9151 67.0355 12.4806 67.9616 10.5883C67.5126 10.2238 67.0636 9.83137 66.5865 9.4529C65.9831 8.97632 66.0392 8.51376 66.7268 8.14931C66.9092 8.05119 67.0776 7.85495 67.1898 7.67273C67.4985 7.12606 67.7792 6.56538 68.0317 5.99068C68.2282 5.54213 68.5088 5.38794 68.9718 5.58418C69.4629 5.79444 69.3788 6.1729 69.2104 6.52333C68.8315 7.26624 68.4106 7.99512 67.9475 8.85017C68.1299 8.97632 68.3685 9.14453 68.7052 9.38282C69.028 8.76607 69.4068 8.14931 69.7155 7.49051C69.9541 6.97188 70.2487 6.71957 70.7959 6.99991C71.4133 7.30829 71.1327 7.75683 70.9222 8.12128C70.1645 9.41085 69.3788 10.6724 68.607 11.9479C68.4948 12.1302 68.3685 12.3124 68.144 12.6348ZM63.2049 15.7185C63.2049 16.91 63.2049 18.0314 63.2049 19.1808C63.4294 19.1387 63.5837 19.0827 63.7381 19.0827C64.4677 19.0546 64.6782 18.6762 64.608 17.9893C64.5519 17.5268 64.594 17.0642 64.594 16.6016C64.594 15.6204 64.594 15.6064 63.5697 15.6625C63.4574 15.6765 63.3592 15.7045 63.2049 15.7185ZM63.1908 7.16812C63.1908 8.23342 63.1908 9.27068 63.1908 10.2939C64.594 10.4902 64.594 10.4902 64.594 9.21461C64.594 8.89222 64.594 8.56983 64.594 8.24743C64.594 6.97188 64.594 6.97188 63.1908 7.16812ZM63.1908 11.5835C63.1908 12.5927 63.1908 13.5459 63.1908 14.5691C63.5697 14.5691 63.8924 14.6112 64.2151 14.5551C64.3555 14.5271 64.58 14.3168 64.58 14.1907C64.608 13.3356 64.594 12.4806 64.594 11.5975C64.0889 11.5835 63.6819 11.5835 63.1908 11.5835Z"
      fill="black"
      fill-opacity="0.2"
    />
    <path
      d="M167.992 14.2328C166.814 14.2328 165.832 14.2328 164.863 14.2328C163.853 14.2328 163.53 13.9104 163.502 12.9012C163.488 12.2424 163.474 11.5976 163.502 10.9388C163.544 10.1398 163.895 9.81739 164.695 9.80338C165.832 9.78936 166.982 9.80338 168.245 9.80338C168.245 9.31278 168.301 8.87825 168.217 8.45773C168.189 8.30355 167.824 8.12132 167.614 8.10731C166.379 8.07927 165.13 8.07927 163.895 8.09329C163.446 8.09329 163.081 8.00919 163.067 7.47654C163.053 6.90184 163.432 6.81773 163.909 6.81773C165.144 6.83175 166.393 6.80372 167.628 6.83175C168.063 6.83175 168.287 6.71961 168.245 6.24303C168.217 5.73842 168.399 5.34594 168.989 5.37397C169.536 5.38799 169.69 5.78047 169.648 6.24303C169.606 6.71961 169.831 6.84577 170.266 6.83175C171.5 6.81773 172.749 6.83175 173.984 6.83175C174.419 6.83175 174.77 6.8738 174.77 7.4485C174.77 8.00919 174.447 8.09329 173.998 8.09329C172.833 8.07927 171.655 8.13534 170.49 8.07927C169.802 8.05124 169.55 8.27551 169.648 8.94833C169.676 9.20064 169.648 9.45295 169.648 9.78936C170.757 9.78936 171.767 9.78936 172.791 9.78936C173.886 9.78936 174.166 10.0837 174.18 11.135C174.18 11.7938 174.194 12.4386 174.18 13.0974C174.166 13.8543 173.83 14.2047 173.058 14.2188C172.076 14.2328 171.107 14.2188 169.971 14.2188C170.167 14.4851 170.28 14.6533 170.406 14.7935C171.388 15.8447 172.553 16.6437 173.886 17.2184C174.082 17.3025 174.265 17.3866 174.461 17.4707C174.952 17.681 175.135 18.0314 174.924 18.536C174.7 19.0687 174.236 19.1248 173.83 18.8724C172.749 18.1856 171.697 17.4707 170.658 16.7278C170.35 16.5036 170.139 16.1531 169.887 15.8588C169.817 15.9008 169.732 15.9289 169.662 15.9709C169.662 16.9801 169.69 17.9894 169.648 18.9986C169.634 19.293 169.438 19.6995 169.213 19.8116C168.708 20.0779 168.287 19.7415 168.259 19.0967C168.231 18.2277 168.259 17.3726 168.245 16.5036C168.245 16.2793 168.217 16.055 168.203 15.7046C167.964 15.9289 167.838 16.083 167.67 16.1952C166.421 17.0783 165.172 17.9753 163.895 18.8304C163.502 19.0967 162.997 19.1528 162.773 18.5921C162.576 18.1015 162.759 17.695 163.292 17.4707C164.807 16.84 166.238 16.069 167.389 14.8495C167.571 14.7234 167.698 14.5692 167.992 14.2328ZM168.245 11.0088C167.445 11.0088 166.716 10.9808 166 11.0229C165.663 11.0509 165.102 11.135 165.032 11.3172C164.891 11.7518 164.976 12.2704 165.018 12.747C165.032 12.8451 165.256 12.9993 165.397 12.9993C166.337 13.0273 167.291 13.0133 168.245 13.0133C168.245 12.3124 168.245 11.7097 168.245 11.0088ZM169.746 11.0088C169.746 11.7377 169.746 12.3545 169.746 13.0273C170.63 13.0273 171.458 13.0553 172.3 13.0133C172.932 12.9853 172.875 12.4526 172.875 12.0181C172.875 11.5695 172.932 11.0509 172.3 11.0229C171.458 10.9808 170.616 11.0088 169.746 11.0088Z"
      fill="black"
      fill-opacity="0.2"
    />
    <path
      d="M71.4695 29.4553C71.4695 30.5907 71.5537 31.7401 71.4554 32.8755C71.273 34.8379 70.0804 35.9592 68.2001 36.4078C66.811 36.7442 65.4219 36.7162 64.0468 36.3237C62.0683 35.749 61.0721 34.3192 60.9879 31.8382C60.9318 30.0721 60.9879 28.2919 60.9739 26.5257C60.9739 26.1333 61.1142 25.9791 61.493 25.9931C62.0122 26.0071 62.5173 26.0071 63.0365 25.9931C63.4715 25.9791 63.5837 26.1753 63.5837 26.5818C63.5697 28.3339 63.5697 30.0861 63.5837 31.8242C63.5837 33.4642 64.608 34.4875 66.2357 34.5015C67.9476 34.5015 68.9578 33.5203 68.9719 31.8382C68.9859 30.0861 68.9859 28.3339 68.9578 26.5958C68.9578 26.1333 69.1122 25.9931 69.5612 25.9791C71.5537 25.909 71.5537 25.895 71.5537 27.8433C71.5537 28.376 71.5537 28.9227 71.5537 29.4553C71.5256 29.4553 71.4975 29.4553 71.4695 29.4553Z"
      fill="black"
      fill-opacity="0.2"
    />
    <path
      d="M34.3983 4.85544C35.6892 6.03288 36.8959 7.14023 38.2149 8.31767C39.1129 6.52348 39.9688 4.78536 40.8809 2.96313C41.835 3.8322 42.7331 4.64519 43.617 5.45818C44.6554 6.41134 44.6694 6.42536 44.052 7.70092C43.4066 9.03254 42.7331 10.3642 42.0455 11.7519C40.7686 10.6025 39.5479 9.48109 38.2289 8.28963C37.3449 10.0838 36.475 11.8079 35.5629 13.6442C34.272 12.4667 33.0373 11.3313 31.7744 10.196C32.6444 8.42981 33.5003 6.67767 34.3983 4.85544Z"
      fill="black"
      fill-opacity="0.2"
    />
    <path
      d="M141.305 9.06056C140.659 9.06056 140.084 9.04654 139.509 9.06056C139.032 9.07457 138.751 8.90637 138.751 8.38773C138.751 7.8691 139.018 7.67286 139.495 7.7009C139.565 7.7009 139.635 7.7009 139.705 7.7009C140.21 7.68688 140.884 7.85508 141.192 7.60278C141.473 7.3785 141.319 6.64961 141.459 6.18705C141.529 5.94876 141.866 5.64038 142.062 5.64038C142.329 5.6544 142.75 5.89269 142.82 6.11696C142.932 6.57953 142.862 7.08414 142.862 7.7009C143.199 7.7009 143.48 7.7009 143.774 7.7009C146.945 7.64483 146.945 7.63081 146.847 10.8127C146.763 13.4619 146.595 16.1112 146.426 18.7604C146.398 19.3071 146.23 19.8537 146.061 20.3864C145.626 21.7601 144.714 22.3488 143.297 22.1806C142.82 22.1245 142.343 21.9703 141.866 21.8442C141.235 21.676 141.164 21.1854 141.319 20.6807C141.487 20.1341 141.95 20.2182 142.371 20.3443C144.293 20.919 144.771 20.7228 144.939 18.7324C145.191 15.7467 145.234 12.733 145.36 9.73338C145.374 9.29885 145.135 9.10261 144.728 9.04654C144.686 9.04654 144.63 9.04654 144.588 9.04654C142.75 8.9344 142.764 8.9344 142.638 11.0089C142.413 14.5973 141.599 18.0455 139.944 21.2695C139.874 21.4096 139.789 21.5498 139.719 21.704C139.481 22.1806 139.074 22.3488 138.611 22.1385C138.092 21.9002 138.176 21.4657 138.344 21.0031C139.074 19.1248 139.944 17.2746 140.449 15.3262C140.926 13.546 141.01 11.6537 141.263 9.81748C141.333 9.60722 141.305 9.36893 141.305 9.06056Z"
      fill="black"
      fill-opacity="0.2"
    />
    <path
      d="M148.054 14.3449C148.054 12.3685 148.054 10.378 148.054 8.40162C148.054 7.2382 148.433 6.85974 149.611 6.84572C150.944 6.8317 152.277 6.8317 153.61 6.84572C154.677 6.85974 155.098 7.21016 155.112 8.24743C155.14 12.3544 155.126 16.4474 155.112 20.5544C155.112 21.5777 154.691 21.9421 153.694 21.9562C152.291 21.9702 150.888 21.9702 149.485 21.9562C148.461 21.9421 148.068 21.5356 148.068 20.4844C148.054 18.4379 148.054 16.3914 148.054 14.3449ZM153.694 14.443C153.694 12.6488 153.68 10.8546 153.708 9.06042C153.722 8.42965 153.512 8.16333 152.867 8.19136C152.081 8.23341 151.281 8.20538 150.481 8.20538C149.527 8.20538 149.429 8.3035 149.429 9.22863C149.429 10.9247 149.429 12.6348 149.429 14.3309C149.429 16.083 149.429 17.8211 149.429 19.5732C149.429 20.5124 149.513 20.5965 150.481 20.5965C151.295 20.5965 152.109 20.5685 152.937 20.6105C153.512 20.6385 153.722 20.4003 153.708 19.8396C153.68 18.0314 153.694 16.2372 153.694 14.443Z"
      fill="black"
      fill-opacity="0.2"
    />
    <path
      d="M130.206 10.7988C132.03 10.7988 133.727 10.7988 135.439 10.7988C135.86 10.7988 136.197 10.8688 136.211 11.3735C136.225 11.822 136.057 12.1023 135.58 12.1164C135.159 12.1304 134.752 12.1164 134.233 12.1164C134.233 12.4247 134.233 12.663 134.233 12.9153C134.233 15.7188 134.247 18.5082 134.219 21.3116C134.219 21.62 134.078 21.9984 133.882 22.2227C133.756 22.3629 133.292 22.3769 133.124 22.2507C132.928 22.1106 132.773 21.7601 132.773 21.4938C132.745 18.6764 132.759 15.8589 132.759 13.0275C132.759 12.7471 132.759 12.4808 132.759 12.1584C131.903 12.1584 131.118 12.1584 130.192 12.1584C130.192 12.8733 130.206 13.5882 130.192 14.303C130.121 16.5317 129.728 18.7044 128.634 20.6808C128.424 21.0453 128.129 21.4237 127.778 21.648C127.582 21.7741 127.105 21.69 126.908 21.5218C126.754 21.3957 126.726 20.9051 126.852 20.7229C128.648 18.0456 128.915 15.0459 128.844 11.9482C128.816 10.6025 128.83 9.24285 128.844 7.89721C128.844 6.91601 129.167 6.63567 130.135 6.5796C131.693 6.48148 133.236 6.31328 134.794 6.18712C134.892 6.17311 135.004 6.13105 135.074 6.15909C135.327 6.29926 135.552 6.48148 135.79 6.64969C135.622 6.85994 135.467 7.21037 135.271 7.23841C133.938 7.43465 132.605 7.58883 131.258 7.68695C130.332 7.75704 130.22 7.81311 130.22 8.75225C130.206 9.38302 130.206 10.0418 130.206 10.7988Z"
      fill="black"
      fill-opacity="0.2"
    />
    <path
      d="M88.7141 14.1627C90.3979 14.1627 92.0817 14.1487 93.7655 14.1627C94.7898 14.1767 95.2809 14.5412 95.323 15.5504C95.3931 17.2465 95.3651 18.9566 95.2949 20.6526C95.2528 21.5357 94.8178 21.9142 93.9339 21.9282C90.454 21.9562 86.9742 21.9562 83.4944 21.9282C82.5823 21.9142 82.1614 21.4096 82.1473 20.4844C82.1333 18.9005 82.1473 17.3166 82.1473 15.7326C82.1473 14.6673 82.5964 14.1908 83.6768 14.1767C85.3465 14.1487 87.0303 14.1627 88.7141 14.1627ZM88.7141 20.5545C90.1173 20.5545 91.5064 20.5685 92.9096 20.5545C93.6532 20.5405 93.8637 20.3162 93.8777 19.5873C93.8918 18.5641 93.8637 17.5408 93.8777 16.5176C93.8918 15.8868 93.5971 15.5364 92.9657 15.5364C90.1173 15.5224 87.2689 15.5224 84.4345 15.5364C83.8873 15.5364 83.5926 15.8167 83.6066 16.4055C83.6347 17.4287 83.6066 18.452 83.6066 19.4752C83.6066 20.4003 83.761 20.5545 84.7151 20.5545C86.0481 20.5685 87.3811 20.5545 88.7141 20.5545Z"
      fill="black"
      fill-opacity="0.2"
    />
    <path
      d="M125.646 11.4574C126.109 11.4574 126.431 11.4574 126.754 11.4574C127.189 11.4574 127.554 11.4994 127.554 12.0741C127.554 12.6208 127.245 12.7329 126.782 12.7329C126.151 12.7189 125.519 12.7469 124.888 12.7329C124.06 12.7049 124.355 13.3076 124.313 13.7141C124.256 14.1487 124.313 14.4851 124.916 14.457C125.632 14.415 126.361 14.457 127.091 14.443C127.526 14.429 127.778 14.6112 127.792 15.0317C127.792 15.4663 127.582 15.7046 127.091 15.7046C126.193 15.6765 125.295 15.7046 124.397 15.7046C124.369 15.7746 124.341 15.8307 124.313 15.9008C124.79 16.4755 125.281 17.0642 125.758 17.6389C126.067 18.0174 126.403 18.3678 126.698 18.7603C126.979 19.1387 127.035 19.5593 126.614 19.8676C126.193 20.162 125.828 20.0218 125.547 19.6013C125.197 19.0827 124.846 18.5781 124.313 18.0875C124.313 18.6201 124.313 19.1668 124.313 19.6994C124.313 20.3723 124.313 21.0451 124.313 21.7319C124.313 22.2085 124.046 22.3907 123.597 22.3907C123.176 22.3767 122.952 22.1664 122.952 21.7319C122.952 20.6246 122.952 19.5032 122.952 18.1575C122.573 18.6341 122.334 18.9705 122.053 19.2649C121.464 19.8957 120.861 20.4984 120.229 21.1011C119.893 21.4235 119.472 21.5637 119.121 21.1572C118.784 20.7507 118.924 20.3302 119.275 19.9798C119.851 19.4051 120.482 18.8724 121.015 18.2557C121.647 17.5268 122.194 16.7278 122.769 15.9428C122.727 15.8587 122.685 15.7746 122.643 15.6905C122.082 15.6905 121.506 15.6905 120.945 15.6905C120.552 15.6905 120.145 15.6905 119.752 15.6905C119.345 15.6905 119.163 15.4943 119.149 15.1018C119.135 14.6673 119.331 14.457 119.78 14.457C120.622 14.457 121.464 14.415 122.306 14.4711C122.952 14.5131 122.98 14.1487 122.937 13.6861C122.909 13.2516 123.12 12.7049 122.32 12.7469C121.619 12.789 120.917 12.7469 120.215 12.761C119.752 12.761 119.444 12.6488 119.43 12.1022C119.43 11.5275 119.808 11.4854 120.229 11.4854C121.352 11.4854 122.474 11.4714 123.597 11.4994C124.004 11.5134 124.242 11.4013 124.411 11.0088C124.691 10.322 125.042 9.66318 125.323 8.97635C125.519 8.48575 125.828 8.34558 126.305 8.51378C126.81 8.696 126.824 9.07447 126.628 9.48096C126.347 10.0697 126.024 10.6864 125.646 11.4574Z"
      fill="black"
      fill-opacity="0.2"
    />
    <path
      d="M102.451 15.7747C102.086 17.3306 101.792 18.7603 101.427 20.162C101.287 20.7227 100.992 21.2413 100.725 21.7459C100.459 22.2365 99.9116 22.3487 99.4766 22.0403C99.0416 21.7319 99.0837 21.3955 99.3503 20.961C100.557 19.0266 100.964 16.868 101.034 14.6393C101.062 13.574 101.034 12.4947 101.048 11.4294C101.062 10.5182 101.413 10.1398 102.325 10.1258C104.374 10.0977 106.436 10.0977 108.485 10.1258C109.439 10.1398 109.832 10.5743 109.846 11.5135C109.86 12.4666 109.86 13.4198 109.846 14.3729C109.832 15.3121 109.425 15.7466 108.485 15.7466C106.717 15.7606 104.935 15.7606 103.167 15.7606C102.9 15.7747 102.648 15.7747 102.451 15.7747ZM108.415 13.5459C106.506 13.5459 104.57 13.5319 102.648 13.56C102.535 13.56 102.325 13.8123 102.325 13.9664C102.311 14.443 102.634 14.5692 103.069 14.5692C104.598 14.5552 106.142 14.5692 107.685 14.5692C108.429 14.5552 108.541 14.401 108.415 13.5459ZM108.415 12.3685C108.541 11.5275 108.457 11.4153 107.727 11.4013C106.282 11.3873 104.837 11.4013 103.391 11.4013C103.209 11.4013 102.97 11.3312 102.844 11.4294C102.634 11.5695 102.493 11.8218 102.311 12.0181C102.493 12.1302 102.662 12.3405 102.858 12.3545C103.504 12.3965 104.163 12.3685 104.809 12.3685C106.015 12.3685 107.222 12.3685 108.415 12.3685Z"
      fill="black"
      fill-opacity="0.2"
    />
    <path
      d="M110.141 36.5201C109.313 36.3099 108.457 36.8846 107.839 36.0576C106.099 36.9126 104.78 36.8005 103.686 35.6791C102.549 34.5297 102.297 32.4832 103.083 30.9974C103.911 29.4415 105.103 29.0911 108.022 29.5957C108.022 28.6565 108.05 27.7314 108.008 26.8063C107.98 26.1615 108.204 25.9512 108.836 25.9653C110.379 26.0213 110.126 25.8531 110.141 27.2829C110.155 30.0302 110.141 32.7776 110.141 35.5249C110.141 35.8193 110.141 36.0856 110.141 36.5201ZM108.022 32.8336C108.008 32.8336 108.008 32.8336 108.022 32.8336C108.022 32.4131 108.05 31.9926 108.008 31.5721C107.994 31.3618 107.895 31.1095 107.741 30.9834C107.124 30.4788 105.973 30.6189 105.426 31.2076C104.64 32.0487 104.654 33.8709 105.454 34.6979C105.973 35.2306 106.576 35.2726 107.264 35.0483C107.909 34.8381 108.106 34.3895 108.036 33.7447C107.994 33.4504 108.022 33.142 108.022 32.8336Z"
      fill="black"
      fill-opacity="0.2"
    />
    <path
      d="M169.719 22.0404C167.951 21.9563 166.169 21.9844 164.415 21.7741C163.545 21.676 162.703 21.2134 161.903 20.7929C161.468 20.5546 161.244 20.5826 160.893 20.905C160.374 21.3536 159.77 21.732 159.181 22.0965C158.76 22.3488 158.353 22.2787 158.114 21.8162C157.862 21.3256 158.143 21.0312 158.578 20.849C158.704 20.7929 158.83 20.7228 158.956 20.6808C160.093 20.2603 160.584 19.4473 160.5 18.2418C160.458 17.4989 160.472 16.756 160.5 15.9991C160.514 15.4384 160.331 15.158 159.742 15.2141C159.391 15.2421 159.041 15.2281 158.69 15.2141C158.227 15.2001 158.002 14.9197 158.016 14.4852C158.03 14.0787 158.255 13.8404 158.676 13.8404C159.447 13.8404 160.219 13.8264 160.991 13.8544C161.524 13.8685 161.889 14.1488 161.903 14.7095C161.945 15.8729 162.001 17.0363 161.959 18.1997C161.917 19.1529 162.366 19.7556 163.18 20.0079C164.064 20.2743 164.99 20.4985 165.902 20.5266C168.652 20.5967 171.416 20.5546 174.167 20.5406C174.602 20.5406 174.966 20.6247 175.037 21.1293C175.107 21.676 174.84 21.9563 174.279 21.9423C172.763 21.9283 171.248 21.9423 169.719 21.9423C169.719 21.9844 169.719 22.0124 169.719 22.0404Z"
      fill="black"
      fill-opacity="0.2"
    />
    <path
      d="M133.812 36.4499C133.068 36.4499 132.394 36.4499 131.679 36.4499C131.679 34.1231 131.679 31.8243 131.679 29.4694C132.352 29.4694 133.04 29.4694 133.769 29.4694C133.797 29.7077 133.826 29.946 133.868 30.2824C134.639 29.6516 135.383 29.2031 136.365 29.2591C137.6 29.3432 138.638 30.1983 138.694 31.4318C138.765 33.0858 138.709 34.7398 138.709 36.4359C137.993 36.4359 137.333 36.4359 136.548 36.4359C136.548 36.0714 136.548 35.679 136.548 35.3005C136.548 34.1791 136.604 33.0578 136.52 31.9504C136.492 31.5439 136.211 30.9692 135.888 30.8431C135.523 30.6889 134.934 30.8571 134.555 31.0673C134.036 31.3477 133.769 31.8663 133.797 32.5251C133.854 33.8147 133.812 35.0902 133.812 36.4499Z"
      fill="black"
      fill-opacity="0.2"
    />
    <path
      d="M181.757 29.2732C184.62 29.2732 186.332 31.4318 185.574 34.1091C185.125 35.7211 183.413 36.7864 181.351 36.6182C178.642 36.4079 177.155 34.3754 177.927 31.6421C178.348 30.1703 179.905 29.2732 181.757 29.2732ZM183.441 32.9597C183.371 32.5392 183.343 32.1327 183.245 31.7682C183.034 30.9693 182.501 30.5347 181.772 30.5067C181.112 30.4927 180.396 30.8992 180.284 31.6421C180.144 32.5111 180.144 33.4363 180.27 34.3053C180.368 35.0062 180.972 35.3706 181.715 35.3706C182.459 35.3706 182.978 34.9922 183.203 34.2353C183.343 33.8147 183.371 33.3662 183.441 32.9597Z"
      fill="black"
      fill-opacity="0.2"
    />
    <path
      d="M189.77 36.4639C189.012 36.4639 188.352 36.4639 187.637 36.4639C187.637 34.1371 187.637 31.8383 187.637 29.4834C188.31 29.4834 188.998 29.4834 189.727 29.4834C189.755 29.7077 189.784 29.946 189.798 30.0581C190.569 29.8058 191.327 29.3853 192.113 29.3152C193.53 29.189 194.582 30.1142 194.667 31.5159C194.751 33.1419 194.681 34.7678 194.681 36.4499C193.951 36.4499 193.277 36.4499 192.506 36.4499C192.506 35.0762 192.506 33.7306 192.506 32.3849C192.506 32.1326 192.52 31.8663 192.464 31.614C192.267 30.773 191.467 30.4366 190.724 30.8991C190.134 31.2636 189.727 31.7402 189.755 32.5391C189.812 33.8147 189.77 35.0902 189.77 36.4639Z"
      fill="black"
      fill-opacity="0.2"
    />
    <path
      d="M148.573 32.9458C148.573 35.1605 146.973 36.6323 144.56 36.6183C142.203 36.6183 140.603 35.1324 140.603 32.9458C140.603 30.703 142.161 29.2593 144.588 29.2593C147.029 29.2733 148.573 30.689 148.573 32.9458ZM146.258 33.0719C146.23 32.6094 146.23 32.301 146.174 32.0066C145.991 31.0815 145.458 30.5488 144.686 30.4928C143.9 30.4367 143.185 30.9553 143.045 31.8945C142.932 32.6794 142.974 33.5065 143.129 34.2914C143.269 34.9923 143.844 35.3427 144.588 35.3427C145.29 35.3427 145.823 34.9783 146.047 34.2634C146.174 33.8429 146.216 33.3803 146.258 33.0719Z"
      fill="black"
      fill-opacity="0.2"
    />
    <path
      d="M76.0581 36.464C75.2864 36.464 74.6409 36.464 73.9253 36.464C73.9253 34.1371 73.9253 31.8243 73.9253 29.4554C74.5988 29.4554 75.2864 29.4554 76.002 29.4554C76.0441 29.7077 76.0862 29.946 76.1423 30.2824C76.4089 30.0862 76.5913 29.932 76.8018 29.7918C77.6998 29.1611 78.668 29.077 79.6502 29.5115C80.5762 29.918 80.9832 30.717 80.9972 31.6982C81.0253 33.1139 81.0112 34.5436 81.0253 35.9594C81.0253 36.4079 80.8288 36.506 80.4219 36.492C78.5557 36.436 78.8784 36.7724 78.8504 34.9782C78.8363 34.053 78.8644 33.1139 78.8363 32.1888C78.8083 31.1795 78.4575 30.717 77.7419 30.703C76.9982 30.6749 76.0862 31.5159 76.0721 32.2869C76.0581 33.4083 76.0721 34.5296 76.0721 35.637C76.0581 35.8893 76.0581 36.1416 76.0581 36.464Z"
      fill="black"
      fill-opacity="0.2"
    />
    <path
      d="M165.79 34.9502C165.762 35.4828 166.028 35.9734 165.313 36.2678C163.98 36.8144 163.166 36.7584 162.478 35.9594C161.889 36.1696 161.314 36.4079 160.71 36.5621C159.56 36.8425 158.535 36.2958 158.213 35.3286C157.918 34.4175 158.409 33.4643 159.49 32.9878C160.233 32.6654 161.019 32.4411 161.777 32.1327C162.015 32.0346 162.394 31.7122 162.366 31.6421C162.24 31.3338 162.029 30.9132 161.749 30.8151C160.963 30.5208 160.191 30.745 159.475 31.1375C159.195 31.2917 158.928 31.4739 158.648 31.6561C158.325 30.2404 158.479 29.8059 159.84 29.5536C160.893 29.3573 162.001 29.3433 163.068 29.4555C164.022 29.5536 164.513 30.2264 164.555 31.1936C164.611 32.1888 164.583 33.198 164.583 34.1932C164.611 35.2165 164.737 35.3146 165.79 34.9502ZM162.422 32.9317C161.763 33.2681 161.229 33.4223 160.837 33.7587C160.584 33.983 160.43 34.4736 160.472 34.824C160.528 35.2726 160.963 35.3987 161.412 35.3006C161.875 35.2025 162.366 35.0903 162.422 34.5016C162.45 34.0671 162.422 33.6045 162.422 32.9317Z"
      fill="black"
      fill-opacity="0.2"
    />
    <path
      d="M129.462 36.45C128.704 36.45 128.045 36.45 127.273 36.45C127.273 35.1324 127.273 33.8568 127.273 32.5813C127.273 32.2589 127.273 31.9225 127.189 31.6141C126.992 30.745 126.249 30.4226 125.477 30.8852C124.873 31.2496 124.452 31.7262 124.481 32.5112C124.523 33.6045 124.467 34.6978 124.495 35.8052C124.509 36.2958 124.382 36.506 123.835 36.506C122.32 36.492 122.32 36.5201 122.32 34.9922C122.32 33.3662 122.334 31.7262 122.306 30.1002C122.306 29.6096 122.418 29.3573 122.965 29.4134C123.428 29.4554 123.891 29.4274 124.382 29.4274C124.452 29.7218 124.509 29.9601 124.551 30.1563C125.196 29.8619 125.785 29.4414 126.431 29.3293C128.115 29.0349 129.321 30.0161 129.434 31.7963C129.532 33.3101 129.462 34.852 129.462 36.45Z"
      fill="black"
      fill-opacity="0.2"
    />
    <path
      d="M101.259 33.2681C99.5467 33.2681 97.877 33.2681 96.1651 33.2681C96.137 34.0811 96.4598 34.6558 97.0772 34.9922C98.4944 35.7632 99.7712 35.2445 101.02 34.4876C101.343 35.4828 101.231 35.7912 100.347 36.1697C99.0135 36.7303 97.6384 36.8144 96.2493 36.3659C94.4954 35.7912 93.6394 34.2353 93.9341 32.2028C94.1726 30.5768 95.6459 29.3153 97.3578 29.2873C99.6028 29.2452 100.95 30.3806 101.259 32.6093C101.273 32.7915 101.259 33.0018 101.259 33.2681ZM99.2661 32.1467C99.1959 31.0534 98.5926 30.4647 97.6805 30.4927C96.7685 30.5348 96.2212 31.1375 96.2353 32.1467C97.2455 32.1467 98.2277 32.1467 99.2661 32.1467Z"
      fill="black"
      fill-opacity="0.2"
    />
    <path
      d="M79.8887 10.2098C80.0711 10.0696 80.3237 9.74726 80.6604 9.60708C81.7829 9.14452 82.9756 8.85016 84.042 8.28948C85.2487 7.65871 86.3853 6.87375 87.4938 6.06076C88.3637 5.42999 88.939 5.26178 89.7669 5.92059C91.9418 7.64469 94.3412 8.86418 97.0212 9.59307C97.2457 9.64914 97.5404 10.1257 97.4983 10.364C97.4562 10.6444 97.1335 10.9667 96.8528 11.1209C96.6564 11.2331 96.3056 11.1069 96.053 11.0228C93.6536 10.2098 91.3805 9.11649 89.4442 7.46247C88.8969 6.9999 88.504 7.05597 87.9849 7.4905C85.9503 9.22862 83.579 10.35 81.0393 11.163C80.3657 11.3592 79.9167 11.0789 79.8887 10.2098Z"
      fill="black"
      fill-opacity="0.2"
    />
    <path
      d="M116.539 13.3497C116.539 15.4663 116.511 17.5969 116.553 19.7135C116.581 21.76 115.809 22.3487 113.775 22.1805C113.059 22.1244 112.358 21.9002 111.656 21.732C111.137 21.6058 110.898 21.2554 111.039 20.7367C111.179 20.2181 111.6 20.2602 112.007 20.3583C112.568 20.4985 113.143 20.6386 113.705 20.7508C114.771 20.947 115.08 20.6947 115.08 19.6294C115.08 15.3682 115.08 11.093 115.08 6.83178C115.08 6.59348 115.024 6.31314 115.136 6.14494C115.29 5.93468 115.571 5.68237 115.795 5.68237C116.02 5.68237 116.3 5.93468 116.427 6.15895C116.539 6.35519 116.511 6.64955 116.511 6.91588C116.539 9.0605 116.539 11.2051 116.539 13.3497Z"
      fill="black"
      fill-opacity="0.2"
    />
    <path
      d="M119.71 36.4499C118.924 36.4499 118.11 36.4499 117.268 36.4499C117.254 36.2536 117.212 36.0854 117.212 35.9032C117.212 32.8194 117.226 29.7497 117.198 26.6659C117.198 26.1613 117.325 25.937 117.858 25.9791C118.349 26.0211 118.84 25.9511 119.331 26.0071C119.499 26.0352 119.78 26.2735 119.78 26.4276C119.794 29.7076 119.794 33.0017 119.78 36.2817C119.78 36.3377 119.738 36.3658 119.71 36.4499Z"
      fill="black"
      fill-opacity="0.2"
    />
    <path
      d="M54.8842 14.6392C54.0564 16.3213 53.2285 17.9893 52.3726 19.7415C51.1518 18.6341 49.9872 17.5688 48.7524 16.4474C49.5663 14.7794 50.3941 13.0974 51.2641 11.3452C52.4989 12.4666 53.6775 13.5459 54.8842 14.6392Z"
      fill="black"
      fill-opacity="0.2"
    />
    <path
      d="M157.287 29.4133C156.206 31.8102 155.182 34.081 154.144 36.3377C153.933 36.7863 152.895 36.8003 152.684 36.3518C151.646 34.095 150.622 31.8242 149.527 29.4273C150.313 29.4273 151.001 29.3993 151.674 29.4413C151.8 29.4553 151.969 29.7076 152.039 29.8759C152.39 30.7449 152.713 31.614 153.049 32.483C153.133 32.7213 153.246 32.9456 153.428 33.3381C153.905 32.1606 154.34 31.1374 154.705 30.1001C154.887 29.5955 155.112 29.3292 155.701 29.4133C156.178 29.4553 156.669 29.4133 157.287 29.4133Z"
      fill="black"
      fill-opacity="0.2"
    />
    <path
      d="M87.9708 30.9273C87.5639 30.8993 87.2693 30.8712 86.9746 30.8432C86.9886 30.3246 89.0232 27.8716 90.1036 27.1287C90.1036 27.7594 90.1177 28.3061 90.1036 28.8528C90.0896 29.2733 90.258 29.4415 90.6789 29.4275C91.3244 29.3994 91.9839 29.4275 92.6995 29.4275C92.6995 29.9181 92.6995 30.3666 92.6995 30.8993C92.026 30.8993 91.3525 30.9133 90.6789 30.8993C90.258 30.8852 90.0896 31.0394 90.1036 31.4599C90.1317 32.1608 90.1036 32.8617 90.1036 33.5625C90.1177 34.8241 90.7631 35.3006 91.9698 34.9642C92.0821 34.9362 92.1943 34.8941 92.3066 34.8661C92.4189 34.8381 92.5171 34.796 92.7416 34.7259C92.7416 35.1745 92.7837 35.567 92.7275 35.9454C92.6995 36.0996 92.503 36.3239 92.3627 36.3519C91.6612 36.4781 90.9315 36.6743 90.2299 36.6182C88.7566 36.5061 88.027 35.6651 87.9849 34.1793C87.9428 33.0859 87.9708 32.0206 87.9708 30.9273Z"
      fill="black"
      fill-opacity="0.2"
    />
    <path
      d="M169.494 27.2406C169.494 27.9274 169.494 28.6143 169.494 29.3712C170.392 29.3712 171.192 29.3712 172.062 29.3712C172.062 29.9038 172.062 30.3524 172.062 30.871C171.234 30.871 170.42 30.871 169.578 30.871C169.578 32.0204 169.536 33.1138 169.592 34.1931C169.62 34.7117 170.041 35.0201 170.575 35.0061C171.052 34.9921 171.529 34.8799 172.118 34.7958C172.118 35.1462 172.16 35.5107 172.104 35.8611C172.076 36.0433 171.893 36.2816 171.725 36.3377C170.827 36.6601 169.915 36.7582 168.989 36.4779C168.021 36.1835 167.431 35.4126 167.403 34.3333C167.375 33.2259 167.403 32.1045 167.403 30.9551C167.039 30.9131 166.744 30.871 166.239 30.8009C167.123 29.3712 168.329 28.362 169.284 27.1565C169.354 27.1845 169.424 27.2126 169.494 27.2406Z"
      fill="black"
      fill-opacity="0.2"
    />
    <path
      d="M105.931 16.7979C106.731 16.7979 107.517 16.7979 108.316 16.7979C109.27 16.8119 109.691 17.2043 109.691 18.1575C109.705 18.9565 109.705 19.7414 109.691 20.5404C109.677 21.4515 109.284 21.9001 108.386 21.9141C106.759 21.9421 105.117 21.9421 103.489 21.9141C102.662 21.9001 102.255 21.4796 102.227 20.6385C102.199 19.7835 102.199 18.9144 102.227 18.0594C102.255 17.1763 102.648 16.8119 103.546 16.7979C104.345 16.7979 105.145 16.7979 105.931 16.7979ZM105.987 18.0173C105.987 18.0173 105.987 18.0033 105.987 18.0173C105.749 18.0173 105.524 18.0173 105.285 18.0173C103.461 18.0173 103.433 18.0594 103.532 19.8956C103.56 20.4423 103.798 20.7086 104.345 20.7086C105.061 20.7086 105.791 20.7086 106.506 20.7086C108.471 20.7086 108.471 20.7086 108.358 18.7883C108.358 18.7602 108.358 18.7462 108.358 18.7182C108.358 18.2556 108.092 18.0454 107.657 18.0314C107.11 18.0033 106.548 18.0173 105.987 18.0173Z"
      fill="black"
      fill-opacity="0.2"
    />
    <path
      d="M108.513 8.66803C108.457 9.34085 108.036 9.45299 107.489 9.43897C106.086 9.42495 104.682 9.467 103.279 9.41094C102.886 9.39692 102.508 9.15863 102.115 9.01846C102.129 8.94837 102.157 8.87829 102.171 8.8082C101.609 9.03247 101.048 9.25675 100.473 9.45299C100.094 9.57914 99.6872 9.60718 99.5328 9.13059C99.3785 8.68205 99.5749 8.37367 100.038 8.21948C101.736 7.6588 103.321 6.88786 104.626 5.62632C105.075 5.19179 105.594 5.28991 106.029 5.65435C107.25 6.66358 108.625 7.39247 110.155 7.79897C110.618 7.92512 110.772 8.2335 110.632 8.63999C110.491 9.06051 110.155 9.18666 109.734 9.04649C109.355 8.94837 108.962 8.8082 108.513 8.66803ZM107.306 8.12136C106.661 7.6588 106.198 7.30837 105.721 6.98598C105.566 6.88786 105.272 6.78974 105.159 6.87384C104.64 7.22427 104.163 7.64478 103.56 8.12136C104.851 8.12136 105.973 8.12136 107.306 8.12136Z"
      fill="black"
      fill-opacity="0.2"
    />
    <path
      d="M181.828 6.03289C182.572 6.03289 183.329 6.01887 184.073 6.03289C184.831 6.0469 185.125 6.35528 185.139 7.1122C185.153 7.88315 185.153 8.65409 185.139 9.42503C185.125 10.252 184.817 10.5884 184.003 10.6025C182.53 10.6165 181.056 10.6165 179.583 10.6025C178.811 10.5884 178.488 10.252 178.474 9.4811C178.46 8.68212 178.46 7.89716 178.474 7.09819C178.488 6.41135 178.797 6.07494 179.513 6.06092C180.284 6.00485 181.056 6.03289 181.828 6.03289ZM181.842 9.25682C182.263 9.25682 182.684 9.2428 183.105 9.25682C183.834 9.28486 183.764 8.75221 183.764 8.28964C183.778 7.82708 183.834 7.30844 183.105 7.32246C182.319 7.33648 181.519 7.32246 180.733 7.32246C179.906 7.32246 179.849 7.40656 179.849 8.27562C179.849 9.14468 179.934 9.22879 180.719 9.2428C181.098 9.25682 181.477 9.25682 181.842 9.25682Z"
      fill="black"
      fill-opacity="0.2"
    />
    <path
      d="M69.0142 19.2929C68.6073 19.2929 68.1864 19.2929 67.7795 19.2929C67.0639 19.307 66.671 18.9285 66.6289 18.2557C66.5868 17.2324 66.5728 16.2092 66.6289 15.1859C66.6429 14.9757 67.0077 14.6252 67.2042 14.6252C67.4006 14.6252 67.7654 14.9476 67.7935 15.1719C67.8777 15.8587 67.8496 16.5596 67.8637 17.2605C67.8777 17.9753 68.032 18.0454 68.916 18.0875C69.5334 18.1155 69.6737 17.8772 69.6457 17.3165C69.6036 16.6157 69.5895 15.9148 69.6597 15.228C69.6737 15.0177 69.9824 14.6953 70.1929 14.6673C70.3893 14.6533 70.8103 14.9336 70.8103 15.1018C70.8243 16.4194 70.8804 17.7651 70.698 19.0687C70.5156 20.4283 68.6073 22.0683 67.2603 22.1945C67.0358 22.2085 66.671 21.9982 66.5728 21.788C66.4184 21.4376 66.4886 21.0731 66.9376 20.8629C67.4848 20.6105 68.018 20.3162 68.5512 20.0358C68.7757 19.9097 69.0002 19.7835 69.2247 19.6574C69.1686 19.5312 69.0844 19.4051 69.0142 19.2929Z"
      fill="black"
      fill-opacity="0.2"
    />
    <path
      d="M73.799 17.9474C73.9393 18.0175 73.9533 18.0315 73.9814 18.0315C76.1844 18.1577 75.9739 18.0736 75.9598 16.2654C75.9598 15.943 75.8897 15.5925 75.9879 15.2982C76.0581 15.0739 76.3527 14.7375 76.5071 14.7515C76.7456 14.7795 77.1245 15.0599 77.1385 15.2561C77.1946 16.2794 77.1946 17.3026 77.1385 18.3259C77.1104 18.8866 76.7316 19.251 76.1142 19.279C75.581 19.3071 75.0338 19.3211 74.5006 19.2931C73.9674 19.265 73.7148 19.4052 73.7709 19.9939C73.8271 20.4985 73.7709 21.0172 73.785 21.5358C73.799 21.9843 73.6306 22.2787 73.1676 22.2927C72.6905 22.3067 72.5362 22.0264 72.5502 21.5778C72.5642 19.5313 72.5642 17.4708 72.5502 15.4243C72.5502 14.9898 72.6484 14.6954 73.1676 14.7095C73.6587 14.7375 73.785 15.0178 73.785 15.4524C73.785 16.2934 73.799 17.1204 73.799 17.9474Z"
      fill="black"
      fill-opacity="0.2"
    />
    <path
      d="M88.644 12.5509C87.0024 12.5509 85.3747 12.5509 83.733 12.5509C83.2559 12.5509 82.835 12.5088 82.8069 11.878C82.7789 11.2052 83.2279 11.1211 83.719 11.1211C86.9883 11.1071 90.2577 11.1071 93.527 11.1211C93.9901 11.1211 94.425 11.1912 94.425 11.836C94.425 12.5228 93.976 12.5509 93.4709 12.5509C91.8713 12.5509 90.2577 12.5509 88.644 12.5509Z"
      fill="black"
      fill-opacity="0.2"
    />
    <path
      d="M111.712 12.6488C111.712 11.0368 111.712 9.43887 111.712 7.82691C111.712 7.33631 111.782 6.90178 112.385 6.88776C113.045 6.87374 113.087 7.33631 113.087 7.85494C113.073 11.1209 113.073 14.3729 113.087 17.6389C113.087 18.1435 113.017 18.55 112.399 18.536C111.782 18.522 111.712 18.1014 111.726 17.6108C111.726 15.9568 111.712 14.3028 111.712 12.6488Z"
      fill="black"
      fill-opacity="0.2"
    />
    <path
      d="M83.2983 29.4414C84.0139 29.4414 84.6734 29.4414 85.389 29.4414C85.389 31.7682 85.389 34.0671 85.389 36.4219C84.7155 36.4219 84.028 36.4219 83.2983 36.4219C83.2983 34.1231 83.2983 31.8243 83.2983 29.4414Z"
      fill="black"
      fill-opacity="0.2"
    />
    <path
      d="M173.746 36.4919C173.746 34.081 173.746 31.7821 173.746 29.4133C174.349 29.4133 174.896 29.3852 175.443 29.4413C175.584 29.4553 175.794 29.7216 175.808 29.8898C175.836 31.9363 175.836 33.9828 175.808 36.0293C175.808 36.1835 175.542 36.4639 175.387 36.4779C174.854 36.5199 174.321 36.4919 173.746 36.4919Z"
      fill="black"
      fill-opacity="0.2"
    />
    <path
      d="M123.513 8.10736C122.32 8.10736 121.127 8.10736 119.935 8.10736C119.486 8.10736 119.149 8.02326 119.149 7.46257C119.149 6.88787 119.514 6.8318 119.949 6.8318C120.72 6.8318 121.492 6.81779 122.264 6.8318C122.657 6.84582 122.881 6.73368 122.853 6.28514C122.811 5.79454 122.951 5.37402 123.555 5.37402C124.158 5.37402 124.383 5.72445 124.313 6.28514C124.256 6.73368 124.495 6.84582 124.902 6.8318C125.632 6.81779 126.347 6.8318 127.077 6.8318C127.526 6.8318 127.863 6.91591 127.848 7.47659C127.834 8.03727 127.498 8.10736 127.049 8.10736C125.856 8.09334 124.677 8.10736 123.513 8.10736Z"
      fill="black"
      fill-opacity="0.2"
    />
    <path
      d="M158.114 10.2379C158.128 9.52301 158.549 9.36882 158.928 9.55104C159.826 9.95754 160.71 10.4481 161.538 10.9948C161.678 11.0929 161.664 11.6116 161.552 11.8498C161.468 12.004 161.005 12.0881 160.808 11.99C159.994 11.5975 159.209 11.135 158.423 10.6724C158.269 10.5603 158.184 10.322 158.114 10.2379Z"
      fill="black"
      fill-opacity="0.2"
    />
    <path
      d="M162.296 7.89701C162.282 8.47171 161.903 8.76607 161.454 8.5418C160.626 8.12128 159.826 7.65872 159.041 7.16812C158.886 7.07 158.774 6.76163 158.802 6.5794C158.83 6.4112 159.069 6.20094 159.237 6.15889C159.728 6.03274 162.001 7.16812 162.226 7.61667C162.282 7.72881 162.282 7.85496 162.296 7.89701Z"
      fill="black"
      fill-opacity="0.2"
    />
    <path
      d="M85.5292 27.0725C85.5151 27.7313 84.9679 28.2499 84.2944 28.2359C83.6349 28.2219 83.1157 27.6752 83.1157 27.0164C83.1298 26.3436 83.6489 25.853 84.3505 25.867C85.038 25.867 85.5572 26.3996 85.5292 27.0725Z"
      fill="black"
      fill-opacity="0.2"
    />
    <path
      d="M173.577 27.0445C173.577 26.3436 174.04 25.867 174.742 25.853C175.457 25.853 175.906 26.3016 175.906 27.0305C175.906 27.7453 175.457 28.2219 174.756 28.2359C174.082 28.2359 173.577 27.7313 173.577 27.0445Z"
      fill="black"
      fill-opacity="0.2"
    />
    <path
      d="M121.225 8.41584C121.295 8.45789 121.52 8.52797 121.618 8.66815C121.913 9.13071 122.222 9.62131 122.404 10.1399C122.488 10.3642 122.264 10.7006 122.179 10.981C121.885 10.8688 121.492 10.8408 121.31 10.6446C120.987 10.2941 120.762 9.84558 120.538 9.41105C120.229 8.86438 120.51 8.40182 121.225 8.41584Z"
      fill="black"
      fill-opacity="0.2"
    />
  </g>
  <defs>
    <clipPath id="clip0_709_7570">
      <rect
        width="193.734"
        height="46.4247"
        fill="white"
        transform="translate(0.960938 0.159668)"
      />
    </clipPath>
  </defs>
</svg>
