<svg viewBox="0 0 112 112" fill="none" xmlns="http://www.w3.org/2000/svg">
  <circle cx="56" cy="56" r="55.5" stroke="#0157CB" stroke-opacity="0.2" />
  <path
    fill-rule="evenodd"
    clip-rule="evenodd"
    d="M37.1814 34.4081C35.6752 34.4081 34.4539 35.6191 34.4539 37.1126V80.3795C34.4539 81.873 33.2332 83.0835 31.727 83.0835C30.2208 83.0835 29 81.873 29 80.3795V37.1126C29 32.6321 32.6629 29 37.1814 29H62.193C64.3624 29 66.4434 29.8547 67.9779 31.3758L81.1452 44.4325C82.6792 45.9541 83.5412 48.0176 83.5412 50.1688V80.379C83.5412 81.8725 82.3204 83.0831 80.8142 83.0831C79.308 83.0831 78.0872 81.8725 78.0872 80.379V50.6324H69.9059C65.387 50.6324 61.7245 47.0003 61.7245 42.5198V34.4072L37.1814 34.4081ZM67.1789 38.2326V42.5207C67.1789 44.0142 68.4002 45.2252 69.9063 45.2252H74.2308L67.1789 38.2326Z"
    fill="#0157CB"
  />
  <path
    d="M48.2977 70.5982C47.8753 69.5873 48.1086 68.4242 48.8889 67.651L54.3428 62.2424C54.8541 61.7354 55.548 61.4506 56.2713 61.4506C56.9945 61.4506 57.6884 61.7354 58.1997 62.2424L63.6537 67.651C64.4339 68.4242 64.6672 69.5872 64.2449 70.5982C63.823 71.6086 62.8287 72.2673 61.7256 72.2673H58.9982V80.3799C58.9982 81.8734 57.7774 83.0839 56.2712 83.0839C54.765 83.0839 53.5443 81.8734 53.5443 80.3799V72.2673H50.8168C49.7138 72.2673 48.7195 71.6086 48.2976 70.5982H48.2977Z"
    fill="#F5C144"
  />
</svg>
