<svg viewBox="0 0 697 106" fill="none" xmlns="http://www.w3.org/2000/svg">
  <g>
    <path
      d="M9.28982 57.0026L9.26862 57.003L8.9926 57.003C1.62993 57.0036 -16.3959 57.005 47.3617 53.61C79.4153 51.9032 117.018 43.7938 135.994 37.3235C164.802 27.5011 175.596 18.5487 198.98 18.5487C250.651 18.5487 244.617 42.9785 289.499 42.9785C306.848 42.9785 322.689 27.1444 367.571 27.1444C412.453 27.1444 424.522 52.9314 446.775 52.9314C469.027 52.9314 479.588 24.0428 502.595 24.0428C527.487 24.0428 533.899 37.8411 570.861 46.8892C607.404 55.8349 657.482 59.642 696.078 60.1698C693.061 60.3206 678.352 60.6675 643.653 60.8484C600.279 61.0746 578.404 85.2782 538.802 85.2782C499.2 85.2782 483.36 57.2292 446.775 57.2292C410.19 57.2292 372.851 97.4931 353.239 97.4931C333.627 97.4931 307.226 69.8965 289.499 69.8965C271.772 69.8965 258.949 100.208 238.959 100.208C218.97 100.208 203.883 73.0633 167.676 62.2056C142.41 54.629 55.8114 56.1731 9.28982 57.0026Z"
      fill="#0157CB"
      fill-opacity="0.3"
    />
  </g>
</svg>
