<svg viewBox="0 0 100 100" fill="none" xmlns="http://www.w3.org/2000/svg">
  <path
    d="M33.5739 20.5521C38.5935 18.7985 45.3721 15.5394 48.6073 13.9378C49.7839 13.3553 51.1627 13.3678 52.3292 13.9703C55.4484 15.5814 61.8758 18.8037 66.6594 20.5521C69.9139 21.7417 74.4245 22.9861 77.3585 23.7544C79.1063 24.212 80.3574 25.7567 80.3904 27.5632C80.4741 32.1493 80.5803 41.0082 80.3252 47.8836C80.1616 52.2906 79.6067 55.7954 78.527 59.032C77.4474 62.2686 73.9981 71.622 67.739 77.3729C61.4934 83.1114 53.6168 85.7316 51.0037 86.4843C50.4197 86.6525 49.8143 86.6557 49.2281 86.4953C46.5178 85.7536 38.1531 83.1177 31.7765 77.3729C24.9588 71.2306 20.9651 60.5504 20.6273 59.032C19.9073 55.7954 19.4179 53.3383 19.1891 47.8836C18.8901 40.7539 19.0113 32.0989 19.1098 27.5848C19.1494 25.7679 20.4213 24.2253 22.1854 23.7889C25.2679 23.0265 30.0971 21.7668 33.5739 20.5521Z"
    stroke="#0157CB"
    stroke-width="4"
  />
  <circle cx="49.569" cy="50.0414" r="21.9371" fill="#F5C144" />
  <path
    fill-rule="evenodd"
    clip-rule="evenodd"
    d="M53.011 41.1547C51.006 40.2871 48.7623 40.1417 46.6621 40.743C44.5619 41.3443 42.7352 42.6553 41.4932 44.4525C40.2512 46.2497 39.6708 48.422 39.8508 50.5991C40.0309 52.7763 40.9603 54.8237 42.4806 56.3924C44.001 57.9612 46.0183 58.9542 48.1887 59.2024C50.3592 59.4505 52.5486 58.9384 54.3838 57.7533C55.5865 56.9766 56.5884 55.9423 57.3238 54.7361C57.968 53.6795 59.2086 53.0093 60.387 53.387C61.5654 53.7647 62.2301 55.0379 61.6684 56.1406C60.5593 58.3181 58.8897 60.1779 56.8148 61.5178C54.1086 63.2654 50.8802 64.0205 47.6797 63.6546C44.4792 63.2887 41.5046 61.8244 39.2627 59.5111C37.0208 57.1979 35.6503 54.1789 35.3848 50.9685C35.1193 47.7581 35.9752 44.5549 37.8066 41.9048C39.638 39.2547 42.3316 37.3216 45.4286 36.4349C48.5255 35.5481 51.834 35.7627 54.7905 37.0419C57.0574 38.0227 59.0098 39.583 60.4616 41.5487C61.1968 42.5441 60.7503 43.9092 59.65 44.4754C58.5497 45.0416 57.2158 44.5843 56.4068 43.6479C55.4832 42.5788 54.325 41.7232 53.011 41.1547Z"
    fill="white"
  />
</svg>
