<svg viewBox="0 0 100 100" fill="none" xmlns="http://www.w3.org/2000/svg">
  <path
    d="M50.209 20.184C50.209 19.0794 51.1044 18.184 52.209 18.184C53.3136 18.184 54.209 19.0794 54.209 20.184L54.209 79.184C54.209 80.2885 53.3136 81.184 52.209 81.184C51.1044 81.184 50.209 80.2885 50.209 79.184L50.209 20.184Z"
    fill="#F5C144"
  />
  <path
    d="M59.209 48.184C59.209 47.0794 60.1044 46.184 61.209 46.184C62.3136 46.184 63.209 47.0794 63.209 48.184L63.209 58.184C63.209 59.2885 62.3136 60.184 61.209 60.184C60.1044 60.184 59.209 59.2885 59.209 58.184L59.209 48.184Z"
    fill="#F5C144"
  />
  <path
    d="M77.209 48.184C77.209 47.0794 78.1044 46.184 79.209 46.184C80.3136 46.184 81.209 47.0794 81.209 48.184L81.209 58.184C81.209 59.2885 80.3136 60.184 79.209 60.184C78.1044 60.184 77.209 59.2885 77.209 58.184L77.209 48.184Z"
    fill="#F5C144"
  />
  <path
    d="M68.209 55.184C68.209 54.0794 69.1044 53.184 70.209 53.184C71.3136 53.184 72.209 54.0794 72.209 55.184L72.209 58.184C72.209 59.2885 71.3136 60.184 70.209 60.184C69.1044 60.184 68.209 59.2885 68.209 58.184L68.209 55.184Z"
    fill="#F5C144"
  />
  <path
    d="M35.1673 27.7243C36.0306 27.0605 37.2735 27.2194 37.8898 28.1173C42.0464 34.1737 44.288 41.3584 44.2954 48.7345C44.3027 56.1107 42.0756 63.2998 37.9311 69.3646C37.3166 70.2637 36.0741 70.4251 35.2094 69.7631C34.3448 69.101 34.186 67.8664 34.7946 66.9633C38.4145 61.591 40.3582 55.2464 40.3516 48.7385C40.3451 42.2306 38.3888 35.8898 34.7581 30.5249C34.1477 29.623 34.304 28.3881 35.1673 27.7243Z"
    fill="#0157CB"
  />
  <path
    d="M28.303 38.1042C29.0943 37.3664 30.3438 37.4043 30.9912 38.2711C33.3547 41.4351 34.6234 45.3062 34.5684 49.2913C34.5134 53.2765 33.1383 57.1111 30.6884 60.2087C30.0173 61.0572 28.7672 61.0606 27.9965 60.3012C27.2259 59.5419 27.2296 58.3084 27.8748 57.4399C29.6289 55.0784 30.6098 52.2114 30.6508 49.2372C30.6919 46.2631 29.7905 43.3701 28.1023 40.9611C27.4813 40.0751 27.5116 38.842 28.303 38.1042Z"
    fill="#0157CB"
  />
  <path
    d="M20.1771 42.5117C20.8397 41.894 21.8909 41.9245 22.3921 42.679C22.8133 43.3132 23.1618 43.9949 23.4296 44.7114C23.8894 45.9415 24.1023 47.2501 24.0564 48.5625C24.0104 49.8749 23.7064 51.1654 23.1617 52.3603C22.8444 53.0563 22.4491 53.712 21.9845 54.3151C21.4317 55.0327 20.3809 54.9896 19.7632 54.327C19.1455 53.6645 19.2031 52.6338 19.6967 51.8743C19.8778 51.5957 20.0384 51.3034 20.1768 50.9997C20.5429 50.1967 20.7472 49.3296 20.7781 48.4477C20.8089 47.5658 20.6658 46.6864 20.3569 45.8598C20.24 45.5472 20.1003 45.2443 19.9392 44.9538C19.4999 44.1616 19.5146 43.1294 20.1771 42.5117Z"
    fill="#0157CB"
  />
</svg>
