<svg viewBox="0 0 100 100" fill="none" xmlns="http://www.w3.org/2000/svg">
  <path
    d="M15 53.5H23.1716C23.702 53.5 24.2107 53.7107 24.5858 54.0858L29.0858 58.5858C30.3457 59.8457 29.4534 62 27.6716 62H15"
    stroke="#F5C144"
    stroke-width="4"
  />
  <path
    d="M84.5 54H76.7604C76.2706 54 75.7978 54.1798 75.4317 54.5052L70.9317 58.5052C69.5572 59.727 70.4214 62 72.2604 62H84.5"
    stroke="#F5C144"
    stroke-width="4"
  />
  <path
    d="M39.9003 61.7804L35.7336 56.7804C34.6481 55.4777 35.5744 53.5 37.2701 53.5H62.2299C63.9256 53.5 64.8519 55.4777 63.7664 56.7804L59.5997 61.7804C59.2197 62.2364 58.6568 62.5 58.0632 62.5H41.4367C40.8432 62.5 40.2803 62.2364 39.9003 61.7804Z"
    stroke="#F5C144"
    stroke-width="4"
  />
  <path
    d="M35.5005 71.5006H64.0005L69.0005 69.0006H83.0005C83.0005 69.0006 89.0008 55.5005 83.0005 47.0001C79.8769 42.575 64.2878 40.5776 49 40.5C34.9204 40.4285 21.0964 41.9255 17.5007 46.0006C10.0007 54.5006 16.5005 69.0006 16.5005 69.0006H30.0005L35.5005 71.5006Z"
    stroke="#0157CB"
    stroke-width="4"
  />
  <path
    d="M20.5 44C20.5 44 25 29 30 25.5C35 22 48 22.5 48 22.5C48 22.5 65 22.5 69 25.5C73 28.5 79 44 79 44"
    stroke="#0157CB"
    stroke-width="4"
  />
  <path
    d="M17 69V76C17 77.1046 17.8954 78 19 78H31C32.1046 78 33 77.1046 33 76V69"
    stroke="#0157CB"
    stroke-width="4"
  />
  <path
    d="M66 69V76C66 77.1046 66.8954 78 68 78H80C81.1046 78 82 77.1046 82 76V69"
    stroke="#0157CB"
    stroke-width="4"
  />
</svg>
