<svg viewBox="0 0 100 100" fill="none" xmlns="http://www.w3.org/2000/svg">
  <path
    d="M87.1026 47.3609C86.6788 43.1604 85.4318 39.0845 83.4327 35.3659C81.4337 31.6473 78.7218 28.3589 75.4519 25.6884C72.182 23.0178 68.4181 21.0175 64.3752 19.8016C60.3322 18.5857 56.0894 18.178 51.8888 18.6019"
    stroke="#0157CB"
    stroke-width="4"
    stroke-linecap="round"
  />
  <path
    d="M77.0711 46.7774C76.7781 43.8733 75.9159 41.0554 74.5339 38.4846C73.1518 35.9137 71.277 33.6402 69.0163 31.7939C66.7556 29.9476 64.1534 28.5647 61.3583 27.7241C58.5632 26.8835 55.6298 26.6016 52.7258 26.8946"
    stroke="#0157CB"
    stroke-width="4"
    stroke-linecap="round"
  />
  <path
    d="M38.5483 79.8342C42.3025 81.7655 46.4003 82.9385 50.6078 83.2861C54.8153 83.6337 59.0501 83.1492 63.0703 81.8602C67.0906 80.5712 70.8176 78.503 74.0386 75.7737C77.2595 73.0443 79.9114 69.7073 81.8427 65.9531"
    stroke="#0157CB"
    stroke-width="4"
    stroke-linecap="round"
  />
  <path
    d="M44.4995 71.7371C47.0949 73.0723 49.928 73.8832 52.8369 74.1236C55.7458 74.3639 58.6735 74.0289 61.453 73.1378C64.2324 72.2466 66.8091 70.8168 69.036 68.9298C71.2628 67.0428 73.0962 64.7358 74.4314 62.1403"
    stroke="#0157CB"
    stroke-width="4"
    stroke-linecap="round"
  />
  <path
    d="M23.698 69.588C21.3739 66.0634 19.7668 62.1156 18.9684 57.97C18.17 53.8243 18.196 49.562 19.0449 45.4264C19.8937 41.2907 21.5489 37.3628 23.9157 33.8668C26.2826 30.3709 29.3149 27.3753 32.8395 25.0512"
    stroke="#0157CB"
    stroke-width="4"
    stroke-linecap="round"
  />
  <path
    d="M31.1076 62.8003C29.5009 60.3635 28.3898 57.6342 27.8378 54.7681C27.2858 51.9019 27.3038 48.9551 27.8907 46.0959C28.4775 43.2367 29.6218 40.5211 31.2582 38.1042C32.8946 35.6872 34.991 33.6162 37.4277 32.0094"
    stroke="#0157CB"
    stroke-width="4"
    stroke-linecap="round"
  />
  <path
    d="M44.054 14.7271C45.0293 9.85065 49.2437 7.99999 51.2215 8C52.444 8 54.1276 8.1796 55.6819 9.07333C57.1683 9.92798 58.7401 11.5506 59.6067 14.8439C59.978 16.2548 60.0697 18.8489 59.6941 22.1511C59.3253 25.3948 58.5282 29.1259 57.2712 32.7268C55.8415 36.8226 53.909 40.7895 52.3204 43.7503C51.9945 44.3576 51.6841 44.9208 51.3966 45.4322C51.2064 45.0137 51.0046 44.5609 50.7943 44.0773C49.5361 41.1834 47.9863 37.2093 46.8007 32.86C46.5613 31.9817 46.3282 31.1418 46.1043 30.3351C44.3014 23.8403 43.0983 19.5058 44.054 14.7271Z"
    fill="white"
    stroke="#F5C144"
    stroke-width="4"
  />
  <path
    d="M27.5055 74.1849C22.8125 75.83 19.0729 73.1464 18.0653 71.4445C17.4425 70.3926 16.7393 68.8523 16.7165 67.0595C16.6946 65.3451 17.2901 63.1659 19.6824 60.7424C20.7074 59.7041 22.8929 58.3036 25.9258 56.9444C28.9048 55.6093 32.5215 54.3943 36.2604 53.6414C40.5132 52.7851 44.9113 52.427 48.2683 52.2856C48.9569 52.2566 49.5997 52.2368 50.1862 52.2236C49.923 52.6005 49.6363 53.0048 49.3272 53.4321C47.4781 55.9891 44.8479 59.3474 41.7093 62.5834C41.0756 63.2368 40.4716 63.8654 39.8916 64.469C35.2212 69.3292 32.1044 72.5727 27.5055 74.1849Z"
    fill="white"
    stroke="#F5C144"
    stroke-width="4"
  />
  <path
    d="M77.7338 74.1096C82.4268 75.7547 86.1664 73.071 87.174 71.3692C87.7968 70.3172 88.5 68.777 88.5228 66.9842C88.5446 65.2698 87.9491 63.0906 85.5568 60.6671C84.5319 59.6287 82.3464 58.2283 79.3135 56.8691C76.3344 55.534 72.7178 54.319 68.9788 53.5661C64.726 52.7098 60.328 52.3517 56.9709 52.2103C56.2823 52.1812 55.6395 52.1614 55.0531 52.1483C55.3162 52.5251 55.603 52.9295 55.9121 53.3568C57.7612 55.9138 60.3914 59.272 63.5299 62.5081C64.1637 63.1615 64.7677 63.7901 65.3477 64.3937C70.018 69.2539 73.1348 72.4974 77.7338 74.1096Z"
    fill="white"
    stroke="#F5C144"
    stroke-width="4"
  />
  <circle
    cx="52.4373"
    cy="50.0558"
    r="7.12867"
    fill="white"
    stroke="#034FB6"
    stroke-width="4"
  />
</svg>
