<svg viewBox="0 0 100 100" fill="none" xmlns="http://www.w3.org/2000/svg">
  <path
    d="M8 67.6L21.02 31.9L40.34 15.52C40.34 15.52 48.74 15.52 52.52 17.2C56.3 18.88 59.66 24.76 59.66 24.76H74.78C74.78 24.76 78.56 24.76 79.82 28.96C81.08 33.16 76.88 39.88 73.94 42.4C71 44.92 65.12 47.44 65.12 47.44L68.9 49.54C68.9 49.54 71.84 51.64 71 54.58C70.16 57.52 66.8 57.94 64.28 58.36C61.76 58.78 52.52 58.36 52.52 58.36L42.02 88.6C42.02 88.6 30.26 86.08 23.12 81.88C15.98 77.68 8 67.6 8 67.6Z"
    fill="white"
    stroke="#0157CB"
    stroke-width="4"
  />
  <path
    d="M13 31.0851C13 22.3065 27.6087 9.13872 35.4 12.5526C43.1913 15.9665 42.2174 40.3513 36.3739 43.2774C30.5304 46.2036 13 39.8636 13 31.0851Z"
    fill="#F5C144"
    stroke="white"
    stroke-width="4"
  />
  <circle cx="54.6207" cy="32.74" r="2.44" fill="#0157CB" stroke="#0157CB" />
  <path
    d="M69.3193 24.76C69.3193 24.76 70.0277 30.0372 71.5809 32.4492C73.357 35.2075 77.7193 36.52 77.7193 36.52"
    stroke="#0157CB"
    stroke-width="4"
  />
  <path
    d="M12.6191 57.1C12.6191 57.1 20.1746 66.4051 26.4791 70.54C33.1265 74.8997 45.3791 78.1 45.3791 78.1"
    stroke="#0157CB"
    stroke-width="4"
  />
  <path
    d="M86.1191 36.52L91.1591 31.48"
    stroke="#0157CB"
    stroke-width="4"
    stroke-linecap="round"
  />
  <path
    d="M86.1191 43.24L91.9991 42.4"
    stroke="#0157CB"
    stroke-width="4"
    stroke-linecap="round"
  />
  <path
    d="M86.1191 49.12L91.1591 54.16"
    stroke="#0157CB"
    stroke-width="4"
    stroke-linecap="round"
  />
</svg>
