<svg viewBox="0 0 123 78" fill="none" xmlns="http://www.w3.org/2000/svg">
  <path
    d="M16.05 70.121L11.4976 52.4433L26.0317 50.4701L26.3572 68.7216C26.3843 70.2426 25.2687 71.5432 23.7612 71.7478L19.3588 72.3455C17.8514 72.5502 16.4294 71.5941 16.05 70.121Z"
    fill="#DB580E"
  />
  <rect
    x="2.87744"
    y="36.6529"
    width="7.94487"
    height="11.6117"
    rx="3.97243"
    transform="rotate(-7.73153 2.87744 36.6529)"
    fill="#E5E5E5"
  />
  <circle
    cx="66.3367"
    cy="33.8967"
    r="6.41701"
    transform="rotate(-7.73153 66.3367 33.8967)"
    fill="#F8F4EE"
  />
  <path
    d="M30.312 50.1976L27.4344 29.0021C27.4344 29.0021 35.448 27.4637 40.2079 25.4176C48.8973 21.6823 59.4974 10.7721 59.4974 10.7721L65.9515 58.3108C65.9515 58.3108 52.8199 51.0091 43.5377 49.9439C38.4055 49.355 30.312 50.1976 30.312 50.1976Z"
    fill="white"
  />
  <path
    d="M5.12772 35.0581C4.90482 33.4163 6.05506 31.9046 7.69685 31.6817L27.7365 28.961L30.6141 50.1566L10.5745 52.8773C8.93269 53.1002 7.42106 51.95 7.19816 50.3082L5.12772 35.0581Z"
    fill="#FDA741"
  />
  <path
    d="M6.6077 45.9584C6.3848 44.3166 7.53504 42.805 9.17683 42.5821L29.2164 39.8614L30.6141 50.1564L10.5745 52.8771C8.93274 53.1 7.42111 51.9497 7.19821 50.3079L6.6077 45.9584Z"
    fill="#FF780D"
  />
  <rect
    x="58.7422"
    y="7.48224"
    width="3.66686"
    height="54.3918"
    rx="1.83343"
    transform="rotate(-7.73153 58.7422 7.48224)"
    fill="#FE8943"
  />
  <path
    d="M62.1953 32.9172L65.8288 32.4239L69.4464 59.0697C69.5827 60.0731 68.8797 60.9969 67.8763 61.1331C66.873 61.2694 65.9491 60.5664 65.8129 59.563L62.1953 32.9172Z"
    fill="#FF7728"
  />
  <path
    d="M83.9781 13.9239L98.2134 5.20697L90.6396 13.0195L94.3253 17.4531L80.7367 26.3906L88.5722 18.2342L83.9781 13.9239Z"
    fill="#F5C144"
  />
  <path
    d="M102.161 28.8037L118.185 33.4795L107.31 33.1264L106.506 38.8357L90.7541 34.7869L102.06 35.1024L102.161 28.8037Z"
    fill="#F5C144"
  />
  <path
    d="M95.5613 48.9019L106.584 61.4373L97.5913 55.3107L93.8531 59.7001L82.7239 47.8396L92.0999 54.1653L95.5613 48.9019Z"
    fill="#F5C144"
  />
</svg>
