<svg width="579" height="579" viewBox="0 0 579 579" fill="none" xmlns="http://www.w3.org/2000/svg">
<path d="M348.07 568.024C348.625 570.664 351.217 572.358 353.847 571.758C406.622 559.727 455.003 533.131 493.464 494.948C531.924 456.766 558.871 408.579 571.284 355.892C571.903 353.267 570.227 350.663 567.592 350.089V350.089C564.956 349.515 562.358 351.187 561.738 353.812C549.726 404.659 523.704 451.161 486.581 488.016C449.458 524.871 402.768 550.555 351.836 562.197C349.206 562.798 347.515 565.384 348.07 568.024V568.024Z" fill="#0157CB"/>
<circle cx="296" cy="289" r="242" stroke="url(#paint0_linear_2_10)" stroke-width="12"/>
<defs>
<linearGradient id="paint0_linear_2_10" x1="296" y1="41" x2="296" y2="537" gradientUnits="userSpaceOnUse">
<stop stop-color="#60A0FF"/>
<stop offset="1" stop-color="#0157CB"/>
</linearGradient>
</defs>
</svg>
