<svg width="197" height="194" viewBox="0 0 197 194" fill="none" xmlns="http://www.w3.org/2000/svg">
<rect width="197" height="194" rx="97" fill="white"/>
<path d="M105.376 155.25H81.9285C81.9285 155.25 81.3874 165.553 93.4664 165.553C105.545 165.553 105.376 155.25 105.376 155.25Z" fill="#F5A623"/>
<path fill-rule="evenodd" clip-rule="evenodd" d="M66.6455 138.198C66.6455 136.236 68.2361 134.645 70.1982 134.645L117.448 134.645C119.41 134.645 121.001 136.236 121.001 138.198C121.001 140.16 119.41 141.751 117.448 141.751L70.1982 141.751C68.2361 141.751 66.6455 140.16 66.6455 138.198Z" fill="#F5A623"/>
<path fill-rule="evenodd" clip-rule="evenodd" d="M71.2637 151.698C71.2637 149.736 72.5943 148.146 74.2358 148.146L113.765 148.146C115.407 148.146 116.738 149.736 116.738 151.698C116.738 153.66 115.407 155.251 113.765 155.251L74.2358 155.251C72.5943 155.251 71.2637 153.66 71.2637 151.698Z" fill="#F5A623"/>
<path d="M40 63.5923L51.3685 71.0528" stroke="#F5A623" stroke-width="8" stroke-linecap="round"/>
<path d="M58.8291 35.8817L67.7107 48.316" stroke="#F5A623" stroke-width="8" stroke-linecap="round"/>
<path d="M92.5791 39.079V27" stroke="#F5A623" stroke-width="8" stroke-linecap="round"/>
<path d="M116.381 48.3159L123.841 37.658" stroke="#F5A623" stroke-width="8" stroke-linecap="round"/>
<path d="M135.21 68.9213L147.999 62.1713" stroke="#F5A623" stroke-width="8" stroke-linecap="round"/>
<path fill-rule="evenodd" clip-rule="evenodd" d="M72.7424 129.85H116.443C116.443 129.85 118.261 123.172 120.706 116.171C121.777 113.104 123.249 110.322 124.697 107.584C127.068 103.102 129.377 98.7378 129.765 93.4344C131.279 72.7505 119.818 51.5132 94.9491 51.5132C70.0805 51.5132 56.4003 72.4738 57.4661 93.4344C57.8688 101.354 61.9348 107.368 65.2282 112.24C66.1737 113.639 67.0555 114.943 67.7687 116.171C71.3232 122.293 72.7424 129.85 72.7424 129.85ZM114.883 87.7734C119.774 84.6779 120.251 76.6581 115.949 69.8606C111.647 63.0632 104.195 60.0621 99.304 63.1575C94.4131 66.253 93.9358 74.2728 98.238 81.0702C102.54 87.8677 109.993 90.8688 114.883 87.7734Z" fill="#F5A623"/>
</svg>
