<svg width="135" height="133" viewBox="0 0 135 133" fill="none" xmlns="http://www.w3.org/2000/svg">
<rect width="135" height="133" rx="66.5" fill="white"/>
<path d="M121.369 63.3536L115.766 53.583V42.8009C115.766 40.3301 114.421 38.084 112.403 36.8486L103.102 31.4579L97.4987 21.7994C96.2659 19.6653 94.0249 18.4299 91.5592 18.4299H80.4645L70.9386 12.9266C68.8091 11.6911 66.2318 11.6911 64.1026 12.9266L54.5766 18.4299H43.7063C41.2408 18.4299 38.9995 19.7774 37.7668 21.7994L32.2754 31.2331L22.6377 36.8486C20.5083 38.084 19.2756 40.3299 19.2756 42.8009V54.0318L13.8966 63.3534C13.3361 64.364 13 65.5994 13 66.7229C13 67.8464 13.3361 69.0818 13.8966 70.0924L19.2756 79.414V90.6449C19.2756 93.1157 20.6201 95.3619 22.6377 96.5973L32.2754 102.213L37.7668 111.646C38.9995 113.781 41.2406 115.016 43.7063 115.016H54.5766L64.1026 120.519C65.111 121.081 66.3437 121.418 67.4647 121.418C68.5857 121.418 69.8185 121.081 70.8269 120.519L80.3529 115.016H91.4476C93.913 115.016 96.1543 113.668 97.387 111.646L102.99 101.988L112.292 96.5973C114.421 95.3618 115.654 93.1159 115.654 90.6449V79.8628L121.257 70.0922C122.602 68.0702 122.602 65.4865 121.369 63.3532L121.369 63.3536ZM70.8273 65.8236C75.6457 66.4974 83.6028 68.5192 83.6028 75.2574C83.6028 79.7493 82.0339 83.4557 79.2322 86.0394C76.4306 88.5102 73.0684 89.296 70.8273 89.6337H70.3794V96.1476H64.6642V89.072L64.3281 88.9599C51.6645 86.1522 51.5526 74.9213 51.5526 74.8092V73.9106L57.2678 74.0227V74.9212C57.2678 75.1461 57.3796 80.7615 64.1038 83.0075L64.6643 83.2323V70.878L64.3281 70.7659C60.0694 69.9794 52.561 67.6205 51.6645 60.4329C51.104 56.3898 52.1124 52.7963 54.578 49.9886C56.8191 47.4057 60.4056 45.4966 64.3275 44.7101L64.6637 44.598V38.7578H70.3788V44.4853L70.7149 44.5974C79.9047 46.1697 83.1542 55.2665 83.6021 59.8714L83.7139 60.7699L77.9987 61.3316L77.9995 60.4331C77.9995 60.0962 77.1029 52.4587 71.0516 50.5497L70.4911 50.3249V65.711L70.8273 65.8236Z" fill="#0157CB"/>
<path d="M70.4901 83.7938L71.0506 83.6818C72.8438 83.3449 74.4127 82.6712 75.5328 81.6606C77.2134 80.2004 77.9982 77.9545 77.9982 75.1467C77.9982 73.3496 74.1882 72.1142 71.0504 71.5525L70.4899 71.4404L70.4901 83.7938Z" fill="#0157CB"/>
<path d="M58.9474 53.8072C57.4903 55.3795 57.0424 57.4015 57.3785 59.7596C57.7147 62.2304 60.0683 64.0275 64.2145 65.0381L64.775 65.1502V50.5498L64.2145 50.7746C62.6457 51.1115 60.4045 52.0101 58.9474 53.8072Z" fill="#0157CB"/>
</svg>
