<svg width="672" height="672" viewBox="0 0 672 672" fill="none" xmlns="http://www.w3.org/2000/svg">
<path d="M645.992 453.081C648.386 453.986 649.597 456.662 648.66 459.044C625.469 517.973 586.081 569.182 535.005 606.727C483.928 644.272 423.3 666.584 360.135 671.132C357.582 671.316 355.389 669.362 355.24 666.806V666.806C355.091 664.251 357.043 662.062 359.596 661.877C420.973 657.433 479.882 635.742 529.515 599.258C579.148 562.774 617.43 513.022 639.987 455.768C640.925 453.387 643.597 452.177 645.992 453.081V453.081Z" fill="#F5A623"/>
<circle cx="280.5" cy="280.5" r="280.5" transform="matrix(-1 0 0 1 616 56)" fill="url(#paint0_linear_2_5)"/>
<defs>
<linearGradient id="paint0_linear_2_5" x1="280.5" y1="0" x2="280.5" y2="561" gradientUnits="userSpaceOnUse">
<stop stop-color="#FFBD4F"/>
<stop offset="1" stop-color="#EFA222"/>
</linearGradient>
</defs>
</svg>
