<svg viewBox="0 0 67 42" fill="none" xmlns="http://www.w3.org/2000/svg">
  <g clip-path="url(#clip0_709_7563)">
    <path
      d="M21.2686 1.49346C22.3128 1.49346 23.1946 1.49346 24.0764 1.49346C25.051 1.49346 25.0975 2.28947 25.2599 2.96842C26.2809 6.97189 27.2788 10.9754 28.2766 14.9554C28.439 15.6344 28.6247 16.3133 28.996 17.0157C29.3673 15.4237 29.7617 13.8082 30.133 12.2162C30.8524 9.14922 31.595 6.08223 32.2447 2.99184C32.5 1.82123 33.0569 1.28275 34.2404 1.47005C34.4724 1.49346 34.7045 1.49346 34.9366 1.47005C36.0968 1.28275 36.5841 1.84464 36.8394 2.94501C37.814 7.34649 38.8583 11.748 39.8793 16.126C39.9489 16.4538 40.0417 16.805 40.3202 17.1796C40.7843 15.3768 41.2716 13.5741 41.7357 11.7948C42.4783 8.89169 43.2673 6.012 43.9403 3.08548C44.2187 1.89147 44.706 1.39981 45.9823 1.44664C48.1869 1.54028 48.1869 1.47005 47.5139 3.62396C45.8431 9.00875 44.1491 14.3935 42.5479 19.8017C42.2231 20.9021 41.6661 21.3703 40.5755 21.2299C40.3434 21.2065 40.1114 21.2065 39.8793 21.2299C38.6262 21.4172 38.0925 20.8553 37.8372 19.6378C36.8858 15.3534 35.8416 11.069 34.8205 6.80801C34.7509 6.57389 34.6581 6.33977 34.4724 5.84811C33.3818 10.5071 32.3607 14.8852 31.2933 19.2633C31.1309 19.9188 30.8756 20.9489 30.4811 21.0426C29.4601 21.3001 28.3462 21.183 27.2788 21.0894C27.0467 21.066 26.7914 20.5275 26.6986 20.1763C24.9118 14.3467 23.1482 8.51709 21.4078 2.71089C21.315 2.38312 21.3382 2.03194 21.2686 1.49346Z"
      fill="black"
      fill-opacity="0.2"
    />
    <path
      d="M33.9389 41.0131C22.4058 40.8492 12.0098 37.3608 2.93647 30.103C2.35634 29.6348 1.7762 29.1899 1.26568 28.6515C1.01042 28.3939 0.87119 27.9725 0.685547 27.6213C1.05683 27.6682 1.47453 27.6682 1.79941 27.8086C5.65151 29.5177 9.41079 31.4375 13.3325 32.9125C18.0664 34.6918 23.0556 35.558 28.0912 36.0731C38.7192 37.1501 48.9064 35.441 58.7919 31.5312C59.0472 31.4375 59.3025 31.2268 59.5345 31.2268C59.9522 31.2502 60.3467 31.4375 60.7644 31.5546C60.6252 31.9058 60.5788 32.4442 60.3235 32.6081C58.119 33.966 55.9609 35.441 53.6403 36.5179C48.1174 39.0699 42.3161 40.498 36.2131 40.7789C35.4705 40.8024 34.7047 40.9428 33.9389 41.0131Z"
      fill="black"
      fill-opacity="0.2"
    />
    <path
      d="M15.9082 19.0759C14.2606 19.9188 12.7291 20.9021 11.0583 21.464C10.014 21.8152 8.73774 21.7215 7.62388 21.5342C5.09449 21.1362 3.4237 19.193 3.23805 16.6645C3.006 13.4336 4.35191 11.1626 7.13656 10.1325C9.64275 9.19603 12.1489 9.57062 14.6783 10.0623C14.864 10.1091 15.0496 10.1325 15.2353 10.1559C15.2817 10.1559 15.3049 10.1325 15.653 10.0389C15.4673 8.70437 15.3745 7.27623 15.0264 5.91833C14.7479 4.79455 13.7269 4.34972 12.6595 4.09219C10.3621 3.55371 8.22722 4.18584 6.09232 4.8882C5.60501 5.05208 4.88564 5.19256 4.56076 4.95844C4.07345 4.58384 4.46794 2.71087 5.02487 2.45334C8.5753 0.767668 12.2418 0.205777 15.9082 1.82121C18.252 2.85135 18.9249 5.05208 19.0177 7.41671C19.1106 9.71109 19.0642 12.0055 19.0409 14.3233C19.0177 15.9387 19.2266 17.4839 19.9692 18.9589C20.1316 19.2632 19.8763 19.8251 19.7139 20.2231C19.6211 20.4338 19.2962 20.5509 19.0642 20.6914C17.7879 21.5576 17.4166 21.4874 16.5812 20.1763C16.2563 19.7549 16.001 19.2632 15.9082 19.0759ZM10.2461 18.8652C13.6341 18.8418 15.769 16.6411 15.5369 13.3634C15.5137 13.0824 15.1888 12.5908 14.98 12.5674C13.1932 12.4269 11.36 12.1928 9.59634 12.3567C7.73991 12.544 6.76528 14.2296 6.99733 16.2665C7.18298 17.9287 8.34325 18.8652 10.2461 18.8652Z"
      fill="black"
      fill-opacity="0.2"
    />
    <path
      d="M55.4733 21.8853C54.4523 21.6277 52.6191 21.2531 50.8322 20.6912C49.7648 20.3635 49.2079 18.8651 49.7648 17.9052C49.8808 17.6945 50.6466 17.6477 51.0179 17.8116C52.8743 18.5842 54.8004 18.9822 56.796 18.8183C57.6546 18.748 58.5829 18.5373 59.3254 18.1159C61.089 17.1326 61.089 14.768 59.2558 13.9017C57.7011 13.1525 55.9606 12.8248 54.3827 12.0756C53.1528 11.4903 51.8069 10.8347 50.9947 9.80461C48.6741 6.8781 50.0433 2.89804 53.7097 1.49331C56.4944 0.416356 59.2558 0.744125 61.9709 1.82108C62.9919 2.21909 63.4328 3.43652 63.0615 4.46665C62.783 5.23925 62.2493 4.91148 61.8316 4.70077C60.1608 3.95158 58.4204 3.69405 56.6336 3.85794C55.9839 3.90476 55.3109 4.06864 54.754 4.34959C53.1992 5.12219 53.0136 7.20587 54.4059 8.21259C55.1717 8.77448 56.1231 9.10225 57.0049 9.43002C58.2348 9.89826 59.5111 10.2026 60.741 10.6943C62.5974 11.42 63.8737 12.7077 64.1058 14.7914C64.3842 17.0858 63.6184 18.9353 61.7388 20.2932C60.1144 21.4404 58.258 21.7682 55.4733 21.8853Z"
      fill="black"
      fill-opacity="0.2"
    />
    <path
      d="M61.7855 37.9225C62.1568 36.8924 62.6209 35.8622 62.8994 34.8087C63.2939 33.3103 63.642 31.8119 63.9204 30.2902C64.1061 29.2834 63.4795 28.6513 62.5745 28.6279C60.3932 28.5577 58.2119 28.6513 56.0074 28.6981C55.6129 28.6981 55.1952 28.7684 54.499 28.8386C54.8471 28.4172 54.9631 28.1362 55.1488 28.0426C56.6803 27.4339 58.1887 26.591 59.7899 26.3569C61.6231 26.0994 63.5491 26.3569 65.4288 26.4974C66.357 26.5676 66.8211 27.1529 66.7747 28.1831C66.5426 31.7183 65.4056 34.8555 62.9922 37.4777C62.737 37.7352 62.4353 37.9459 62.1568 38.18C61.9944 38.0864 61.9016 37.9927 61.7855 37.9225Z"
      fill="black"
      fill-opacity="0.2"
    />
  </g>
  <defs>
    <clipPath id="clip0_709_7563">
      <rect
        width="66.0659"
        height="40.1752"
        fill="white"
        transform="translate(0.685547 0.837891)"
      />
    </clipPath>
  </defs>
</svg>
