<svg viewBox="0 0 65 38" fill="none" xmlns="http://www.w3.org/2000/svg">
  <g clip-path="url(#clip0_822_7689)">
    <path
      d="M55.5594 21.0534C54.091 21.0739 52.6326 20.9507 51.2333 20.4989C49.5088 19.9342 48.0996 18.8766 47.1043 17.2852C45.3896 14.5642 45.1038 11.5661 45.6163 8.43448C45.9415 6.42203 46.7988 4.6868 48.2277 3.28014C49.7255 1.8016 51.5388 1.08287 53.5491 0.898049C55.4313 0.733767 57.3134 0.713232 59.1858 1.09313C61.8563 1.62705 63.4527 3.35201 64.2509 5.99079C64.3692 6.40149 64.1228 6.39122 63.906 6.42203C62.5363 6.67872 61.1665 6.91487 59.7869 7.17156C59.6292 7.20237 59.4617 7.23317 59.304 7.27424C58.9099 7.37692 58.6733 7.29477 58.4664 6.843C57.9934 5.81624 57.1459 5.26179 56.0619 5.14884C54.6725 4.99483 53.4111 5.30286 52.4355 6.41176C51.7063 7.24344 51.4304 8.28047 51.3121 9.35857C51.1643 10.7344 51.1939 12.1103 51.5092 13.4759C51.9428 15.4062 53.3224 16.6383 55.2342 16.7204C56.4955 16.7821 57.5598 16.4227 58.3284 15.3343C58.3679 15.283 58.4171 15.2316 58.4467 15.17C58.7916 14.4821 58.7916 14.4821 59.5307 14.6259C60.999 14.9031 62.4673 15.1906 63.9356 15.437C64.3002 15.4986 64.3199 15.6526 64.2214 15.9504C63.4823 18.2093 62.1815 19.8726 59.8953 20.5708C58.4763 21.0123 57.0178 21.002 55.5594 21.0534Z"
      fill="#F6D73E"
    />
    <path
      d="M0.00994319 10.9295C0.00994319 7.79784 0.00994319 4.66622 0.00994319 1.5346C0.00994319 0.867201 0.00994317 0.867201 0.660334 0.867201C5.962 0.867201 11.2637 0.867201 16.5752 0.856934C16.9595 0.856934 17.1172 0.990413 17.1073 1.37031C17.0975 2.49975 17.0088 3.62919 17.1172 4.74836C17.1468 5.03585 17.0088 5.1488 16.7427 5.1488C15.8755 5.13853 14.9985 5.16933 14.1313 5.13853C13.6681 5.12826 13.3331 4.74836 12.9586 4.53274C10.2388 3.00287 6.36603 3.83454 4.44443 6.576C2.64107 9.16344 2.46369 12.1821 4.11923 14.862C5.39045 16.9258 7.29235 17.9628 9.62784 18.086C11.2834 18.1784 12.7911 17.6958 14.082 16.5767C14.2101 16.4637 14.358 16.4637 14.4959 16.4637C15.2153 16.4534 15.9445 16.4637 16.6639 16.4432C16.9989 16.4329 17.127 16.5561 17.1172 16.9258C17.0975 18.1271 17.0876 19.3181 17.1172 20.5194C17.127 20.9199 16.9891 21.0225 16.6442 21.0225C14.7916 21.0123 12.9291 21.0225 11.0764 21.0225C7.55842 21.0225 4.05025 21.0225 0.532227 21.0328C0.177468 21.0328 -0.00976562 20.9404 -0.00976562 20.5092C0.00994319 17.3365 0.00994319 14.133 0.00994319 10.9295Z"
      fill="#F6D73E"
    />
    <path
      d="M7.96256 33.2616C8.9283 34.3911 10.0714 34.9763 11.2736 35.4589C12.1605 35.8183 12.1605 35.808 11.7467 36.6808C11.6284 36.9272 11.5299 36.9888 11.2736 36.8758C9.54912 36.0955 7.94285 35.1611 6.86872 33.4773C6.83916 33.4362 6.79974 33.4157 6.77018 33.3746C6.60265 33.4362 6.67164 33.5697 6.67164 33.6826C6.67164 34.7607 6.64207 35.8388 6.67164 36.9169C6.68149 37.3173 6.56324 37.3995 6.19862 37.3892C5.41027 37.3687 5.41027 37.3892 5.41027 36.537C5.41027 35.5 5.41027 34.4527 5.41027 33.4362C5.26246 33.3643 5.23289 33.467 5.19347 33.5286C4.15876 35.192 2.56235 36.0955 0.916662 36.9374C0.729429 37.0299 0.630884 36.9888 0.512632 36.8142C-0.058924 36.0031 -0.0687783 36.0031 0.818118 35.6027C1.67545 35.2125 2.51308 34.7812 3.2423 34.1549C3.51823 33.9188 3.79415 33.6826 4.05036 33.2514C3.42954 33.2514 2.86783 33.2514 2.30613 33.2514C1.31084 33.2514 1.31084 33.2514 1.31084 32.2041C1.31084 30.972 1.32069 29.7398 1.30098 28.5077C1.29113 28.1689 1.38967 28.0662 1.71487 28.0662C2.81856 28.0868 3.9124 28.0662 5.0161 28.0765C5.31173 28.0765 5.41027 27.9944 5.41027 27.6761C5.40042 27.3783 5.33144 27.2551 5.02595 27.2551C3.59706 27.2653 2.16817 27.2448 0.739283 27.2756C0.345107 27.2859 0.226854 27.1729 0.246563 26.7725C0.276126 26.0743 0.246563 26.0743 0.926517 26.0743C2.25686 26.0743 3.58721 26.064 4.91755 26.0846C5.31173 26.0948 5.43983 25.9716 5.41027 25.5712C5.40042 25.3966 5.27231 25.0886 5.53838 25.0475C5.88328 24.9962 6.25775 24.9449 6.60265 25.0886C6.72091 25.14 6.67164 25.3453 6.65193 25.4685C6.57309 25.9819 6.78989 26.0846 7.25305 26.0743C8.61295 26.0435 9.98272 26.0846 11.3426 26.0538C11.7269 26.0435 11.8452 26.1667 11.7861 26.5363C11.7664 26.6493 11.7664 26.7725 11.7861 26.8957C11.8255 27.1935 11.6974 27.2653 11.4215 27.2653C9.97286 27.2551 8.53412 27.2653 7.08552 27.2551C6.73076 27.2551 6.64207 27.368 6.65193 27.7274C6.65193 28.0457 6.78003 28.0868 7.03625 28.0765C8.1498 28.0662 9.2732 28.097 10.3867 28.0662C10.8105 28.056 10.8992 28.1997 10.8893 28.6104C10.8598 29.9965 10.8696 31.3827 10.8893 32.7688C10.8992 33.1384 10.8203 33.2822 10.436 33.2616C9.65752 33.2411 8.86917 33.2616 7.96256 33.2616ZM8.16951 31.1465C7.77533 31.1465 7.38115 31.1773 6.99683 31.1465C6.64207 31.1157 6.64207 31.3313 6.66178 31.588C6.68149 31.8242 6.56324 32.1117 6.98698 32.1014C7.78518 32.0809 8.58339 32.0809 9.3816 32.1014C9.77577 32.1117 9.69694 31.855 9.68708 31.6291C9.68708 31.4135 9.79548 31.126 9.39145 31.1465C8.98742 31.1568 8.57354 31.1465 8.16951 31.1465ZM4.01095 31.1465C3.60692 31.1465 3.19303 31.1568 2.789 31.1465C2.45395 31.1362 2.51308 31.3827 2.53278 31.5675C2.55249 31.7626 2.37511 32.0911 2.77915 32.0911C3.5675 32.0911 4.346 32.0809 5.13435 32.0911C5.53838 32.1014 5.41027 31.7934 5.41027 31.588C5.42013 31.3929 5.50882 31.1157 5.13435 31.1362C4.75988 31.1568 4.38541 31.1465 4.01095 31.1465ZM8.17936 29.2778C7.78518 29.2778 7.39101 29.2983 6.99683 29.2675C6.63222 29.2367 6.66178 29.4729 6.65193 29.7193C6.64207 29.9555 6.63222 30.1403 6.96727 30.1403C7.77533 30.1197 8.57354 30.1095 9.3816 30.1403C9.77577 30.1506 9.66738 29.8836 9.68708 29.668C9.71665 29.401 9.66737 29.2573 9.35203 29.2778C8.96771 29.2983 8.57354 29.2778 8.17936 29.2778ZM4.00109 29.2778C3.58721 29.2778 3.18318 29.2881 2.76929 29.2778C2.42439 29.2675 2.53278 29.5345 2.52293 29.709C2.51308 29.8939 2.42439 30.1403 2.76929 30.13C3.55764 30.1197 4.346 30.1197 5.12449 30.13C5.48911 30.1403 5.39056 29.8733 5.40042 29.6782C5.41027 29.4729 5.42998 29.2573 5.11464 29.2778C4.75988 29.2881 4.37556 29.2778 4.00109 29.2778Z"
      fill="#241E20"
    />
    <path
      d="M39.8709 27.0702C40.1862 27.255 40.1961 27.409 40.1172 27.6041C39.9596 27.9943 39.8315 28.405 39.6738 28.7951C39.5654 29.0518 39.595 29.1853 39.9005 29.1648C40.068 29.1545 40.2355 29.1853 40.3932 29.1545C40.8465 29.0724 40.9352 29.2777 40.9352 29.7192C40.9352 30.1505 40.7873 30.2429 40.4227 30.2223C39.9202 30.1915 39.4077 30.2429 38.8953 30.2018C38.4519 30.1607 38.5307 30.4585 38.5307 30.7152C38.5405 30.9616 38.4124 31.2799 38.8756 31.2491C39.3782 31.208 39.9005 31.2799 40.403 31.2286C40.8859 31.1875 40.8662 31.4442 40.8859 31.8036C40.9155 32.2348 40.7578 32.3272 40.3833 32.2964C39.9891 32.2656 39.595 32.2759 39.2008 32.2861C39.0924 32.2861 38.9446 32.2348 38.8953 32.3785C38.8362 32.5326 39.0037 32.5634 39.0825 32.6352C39.5851 33.0767 40.0877 33.5182 40.6001 33.9392C40.8465 34.1446 40.8465 34.2986 40.61 34.4937C40.5213 34.5655 40.4326 34.6579 40.3636 34.7504C40.1961 34.9865 40.0581 34.9762 39.861 34.7606C39.4866 34.3294 39.0727 33.9392 38.5898 33.5696C38.4716 33.9392 38.5307 34.2883 38.5307 34.6374C38.5208 35.387 38.511 36.1468 38.5307 36.8963C38.5405 37.2351 38.442 37.3686 38.1168 37.3173C37.9887 37.2967 37.8507 37.2967 37.7226 37.3173C37.4467 37.3481 37.358 37.2351 37.3679 36.9374C37.3876 35.9722 37.3777 35.007 37.3777 33.8879C36.816 34.6477 36.343 35.2843 35.7912 35.849C35.4955 36.157 35.2787 36.2494 35.0816 35.7771C35.0619 35.736 35.0324 35.6847 34.993 35.6539C34.6579 35.3151 34.7072 35.0687 35.1014 34.7812C35.8207 34.2575 36.3824 33.5696 36.885 32.82C36.9737 32.6866 37.1511 32.5428 37.0821 32.3785C37.0033 32.1937 36.7963 32.2964 36.6386 32.2861C36.1952 32.2759 35.7517 32.2656 35.3083 32.2861C34.9043 32.3067 34.993 32.0192 35.0127 31.8036C35.0324 31.5777 34.8254 31.208 35.3083 31.2183C35.801 31.2286 36.2937 31.208 36.7865 31.2286C37.1708 31.2491 37.3974 31.2388 37.3974 30.6844C37.3974 30.1402 37.1511 30.171 36.8062 30.1813C36.2642 30.1915 35.7222 30.171 35.1802 30.1915C34.6579 30.2121 34.9043 29.8014 34.8648 29.5755C34.8254 29.3393 34.8156 29.0724 35.19 29.134C35.2393 29.1442 35.2886 29.1442 35.3379 29.1442C36.3529 29.1545 36.3529 29.1545 36.0178 28.138C35.9685 27.9737 35.9291 27.8095 35.8601 27.6554C35.7419 27.409 35.7222 27.2242 36.1755 27.1934C35.8996 27.0291 35.7222 27.0702 35.5645 27.0702C34.924 27.0599 34.7466 26.8135 34.9043 26.1461C34.9535 25.9407 35.0816 25.9818 35.1999 25.9715C35.6926 25.9715 36.1853 25.9818 36.6781 25.9715C36.816 25.9715 37.0131 26.0434 37.0821 25.8894C37.1511 25.7354 36.9835 25.6224 36.9047 25.4992C36.8554 25.4171 36.7963 25.335 36.7372 25.2528C37.5452 24.9037 37.8606 24.9653 38.373 25.643C38.5701 25.8997 38.7672 26.0023 39.0825 25.9818C39.5753 25.951 40.068 25.9921 40.5607 25.9715C40.8366 25.9613 40.9746 26.0434 40.9155 26.3412C40.8662 26.5773 41.1027 26.9264 40.7578 27.0496C40.5311 27.1318 40.2651 27.0702 39.8709 27.0702ZM37.9493 27.0702C37.6734 27.0702 37.3974 27.0804 37.1117 27.0702C36.8653 27.0599 36.7865 27.1421 36.8751 27.3987C37.0427 27.9121 37.2003 28.4358 37.358 28.9492C37.3876 29.0313 37.4073 29.0929 37.496 29.134C37.9394 29.3393 38.4716 29.1134 38.6489 28.6309C38.6884 28.5179 38.7278 28.405 38.7672 28.292C39.1614 27.0702 39.1614 27.0702 37.9493 27.0702Z"
      fill="#241E20"
    />
    <path
      d="M44.2461 33.857C44.2461 32.9021 44.2363 31.9473 44.256 30.9821C44.2658 30.6433 44.1969 30.4995 43.8322 30.5098C42.7975 30.5201 42.8172 30.5098 42.7778 31.5982C42.7088 33.4258 42.3935 35.1918 41.4475 36.7833C41.2307 37.1427 41.1223 37.2659 40.7675 36.886C40.3832 36.4753 40.2551 36.198 40.6099 35.6641C41.4278 34.4012 41.5559 32.9124 41.5854 31.4339C41.6249 29.8321 41.6051 28.2201 41.5854 26.6184C41.5854 26.2693 41.6643 26.1666 42.0092 26.1563C43.3297 26.1358 44.6304 25.9715 45.8721 25.4787C46.0593 25.4068 46.1382 25.4376 46.2564 25.6224C46.8773 26.6492 46.8871 26.6697 45.7341 26.8956C44.8768 27.0599 44.0195 27.1933 43.1523 27.2139C42.8764 27.2241 42.7778 27.296 42.7877 27.5938C42.8074 28.0764 42.8074 28.5487 42.7877 29.0312C42.7778 29.329 42.8862 29.4009 43.1523 29.3906C44.2067 29.3803 45.2513 29.4111 46.3057 29.3701C46.7491 29.3598 46.8181 29.5241 46.8083 29.9245C46.7984 30.2839 46.8181 30.5303 46.3353 30.5098C45.4681 30.4687 45.4681 30.4995 45.4681 31.4031C45.4681 33.2102 45.4582 35.0275 45.4779 36.8346C45.4779 37.1837 45.4188 37.3069 45.0542 37.2967C44.2658 37.2659 44.2658 37.2967 44.2658 36.4547C44.2461 35.6025 44.2461 34.7298 44.2461 33.857Z"
      fill="#241E20"
    />
    <path
      d="M21.3052 27.3681C20.3099 27.3681 19.3146 27.3373 18.3193 27.3783C17.8857 27.3989 17.8562 27.2038 17.8562 26.8444C17.8562 26.485 17.8463 26.2489 18.3292 26.2592C19.6891 26.3002 21.0588 26.2592 22.4187 26.2797C22.7242 26.2797 22.8425 26.1975 22.7932 25.8792C22.7834 25.8484 22.7834 25.8074 22.7932 25.7766C22.8425 25.5404 22.6552 25.1708 22.9016 25.0681C23.1677 24.9552 23.5126 25.0065 23.8279 25.0373C24.0743 25.0681 23.9659 25.3043 23.9757 25.4583C23.9954 26.2694 23.9954 26.2694 24.7542 26.2592C26.0057 26.2592 27.2474 26.2797 28.4989 26.2489C29.0606 26.2283 28.8734 26.6083 28.9029 26.8855C28.9424 27.2038 28.8931 27.3783 28.5088 27.3681C27.4938 27.3373 26.4788 27.3578 25.3948 27.3578C25.7003 27.7993 26.0747 28.0252 26.4492 28.2613C27.1883 28.7131 27.9865 29.0417 28.7945 29.3086C29.0311 29.3908 29.0902 29.4626 28.9818 29.7296C28.6172 30.5818 28.627 30.5921 27.819 30.2327C26.3704 29.5961 25.0203 28.8158 23.9856 27.4605C23.9856 28.3537 23.9954 29.247 23.9757 30.1403C23.9757 30.3251 24.094 30.6229 23.8575 30.6742C23.5421 30.7461 23.2071 30.7153 22.8819 30.664C22.7538 30.6434 22.8031 30.4278 22.8031 30.2943C22.8031 29.3497 22.8031 28.4154 22.8031 27.481C22.7144 27.4194 22.6651 27.4707 22.6257 27.5221C21.5516 28.9595 20.0537 29.7707 18.5164 30.5202C18.2996 30.6229 18.2109 30.5716 18.0927 30.3765C17.5901 29.5653 17.5901 29.5756 18.4376 29.2162C19.4624 28.7953 20.4873 28.3024 21.3052 27.3681Z"
      fill="#241E20"
    />
    <path
      d="M58.1015 30.2326C59.2151 30.2326 60.3385 30.2634 61.452 30.2223C61.9152 30.2018 61.8757 30.4585 61.8955 30.7871C61.9053 31.1259 61.8462 31.2696 61.4717 31.2594C60.7031 31.2388 60.7031 31.2594 60.7031 32.05C60.7031 32.7687 60.7129 33.4874 60.6932 34.2062C60.6834 34.4731 60.7523 34.5861 61.0184 34.5347C61.1958 34.5039 61.383 34.5142 61.5604 34.4937C62.1418 34.4321 62.1615 34.4526 62.1123 35.0687C62.1024 35.2535 62.063 35.3664 61.8659 35.3562C61.7871 35.3562 61.6984 35.3664 61.6195 35.3767C60.7129 35.4691 60.6932 35.4691 60.7031 36.4034C60.7031 36.7217 60.6242 36.845 60.3188 36.8039C60.1906 36.7833 60.0527 36.7833 59.9246 36.8039C59.6191 36.845 59.5403 36.7115 59.5304 36.4034C59.5205 35.6026 59.5107 35.5923 58.7322 35.6539C57.3427 35.7669 55.9533 35.8798 54.5638 35.9825C54.4357 35.9927 54.2484 36.0954 54.1893 35.8695C54.1302 35.5923 53.9824 35.3048 54.0612 35.0276C54.1105 34.8736 54.3568 34.9557 54.5145 34.9454C55.3718 34.9146 55.3718 34.9146 55.3718 34.0419C55.3718 33.3026 55.3521 32.5736 55.3817 31.8344C55.4014 31.3928 55.3127 31.1464 54.8397 31.2491C54.3765 31.3415 54.278 31.1156 54.278 30.6638C54.2879 30.2737 54.416 30.2223 54.7412 30.2326C55.8744 30.2429 56.988 30.2326 58.1015 30.2326ZM58.0227 34.7298C58.0227 34.7401 58.0227 34.7401 58.0227 34.7504C58.4464 34.7196 58.8702 34.6682 59.2939 34.658C59.5205 34.6477 59.5698 34.5347 59.56 34.3397C59.56 34.1548 59.5008 34.0522 59.3037 34.0624C58.4563 34.0624 57.5989 34.0727 56.7515 34.0624C56.3868 34.0624 56.5051 34.3294 56.4854 34.5347C56.4558 34.7914 56.5642 34.8736 56.7909 34.8428C57.2048 34.7914 57.6088 34.7709 58.0227 34.7298ZM58.0325 31.8241C58.4563 31.8241 58.88 31.8138 59.3136 31.8241C59.5107 31.8344 59.5698 31.7419 59.5698 31.5469C59.5698 31.3518 59.5501 31.2286 59.3037 31.2286C58.4661 31.2388 57.6285 31.2388 56.8007 31.2286C56.6135 31.2286 56.4854 31.2491 56.4854 31.4955C56.4854 31.7522 56.5839 31.8241 56.8106 31.8138C57.2146 31.8138 57.6186 31.8138 58.0325 31.8241ZM58.0325 33.2205C58.4563 33.2205 58.88 33.2102 59.3037 33.2205C59.5107 33.2308 59.5403 33.1281 59.5501 32.9433C59.5501 32.7584 59.5205 32.666 59.3136 32.666C58.4661 32.6763 57.6186 32.666 56.7712 32.666C56.6036 32.666 56.4854 32.6866 56.4854 32.9125C56.4854 33.1281 56.5445 33.2308 56.7613 33.2205C57.1851 33.2102 57.6088 33.2205 58.0325 33.2205Z"
      fill="#241E20"
    />
    <path
      d="M63.7583 30.9308C63.7583 32.553 63.7583 34.1753 63.7583 35.8079C63.7583 36.8346 63.4036 37.2248 62.4083 37.2761C62.3097 37.2761 62.2112 37.2864 62.1126 37.2761C61.9254 37.2556 61.6495 37.3788 61.5608 37.194C61.4228 36.9168 61.3834 36.5779 61.3342 36.2596C61.3144 36.1159 61.4524 36.1262 61.5509 36.1364C61.7185 36.1467 61.8761 36.157 62.0437 36.1672C62.3886 36.1775 62.5758 36.003 62.5758 35.6436C62.5857 33.7338 62.5758 31.8138 62.5857 29.904C62.5857 29.5652 62.3787 29.6268 62.1915 29.6268C61.0878 29.6268 59.9939 29.6165 58.8903 29.637C58.5651 29.6473 58.4764 29.5344 58.4764 29.2058C58.4961 28.0969 58.4961 26.988 58.4764 25.8688C58.4665 25.53 58.5454 25.3862 58.91 25.3965C60.3881 25.417 61.8663 25.417 63.3444 25.3965C63.6992 25.3965 63.778 25.5095 63.778 25.8586C63.7485 27.5424 63.7583 29.2366 63.7583 30.9308ZM61.0878 27.0188C61.4623 27.0188 61.8367 27.0085 62.2211 27.0291C62.4871 27.0393 62.5955 26.9572 62.5955 26.6594C62.5955 26.3719 62.4871 26.3206 62.2408 26.3309C61.4918 26.3411 60.733 26.3411 59.9841 26.3309C59.718 26.3206 59.6195 26.3822 59.6195 26.6902C59.6195 27.0291 59.7772 27.0393 60.0137 27.0291C60.3684 27.0085 60.7232 27.0188 61.0878 27.0188ZM61.0681 28.6821C61.4623 28.6821 61.8564 28.6616 62.2506 28.6924C62.5561 28.7129 62.5857 28.5589 62.5955 28.292C62.6054 28.0148 62.497 27.9429 62.2506 27.9531C61.4918 27.9634 60.7429 27.9634 59.9841 27.9531C59.7082 27.9429 59.6096 28.025 59.6096 28.3228C59.6096 28.6205 59.7082 28.7027 59.9841 28.6924C60.3389 28.6616 60.7035 28.6821 61.0681 28.6821Z"
      fill="#241E20"
    />
    <path
      d="M52.4943 31.3107C52.4943 29.4626 52.5042 27.6144 52.4845 25.7662C52.4845 25.3966 52.5929 25.3145 52.9279 25.3145C54.4061 25.335 55.8842 25.3247 57.3624 25.3145C57.6876 25.3145 57.7763 25.4171 57.7664 25.7457C57.7467 26.8957 57.7467 28.0354 57.7664 29.1853C57.7763 29.5652 57.6482 29.6269 57.323 29.6269C56.2587 29.6063 55.1846 29.6371 54.1203 29.6063C53.736 29.5961 53.667 29.7295 53.667 30.0992C53.6867 32.3375 53.6473 34.5758 53.6867 36.8142C53.6966 37.4816 53.3122 37.2762 52.9969 37.3173C52.6027 37.3686 52.4746 37.2352 52.4746 36.8039C52.5042 34.966 52.4943 33.1384 52.4943 31.3107ZM55.1649 27.8916C54.7707 27.8916 54.3765 27.9019 53.9823 27.8916C53.6867 27.8814 53.667 28.0559 53.6768 28.2818C53.6867 28.4769 53.6079 28.7028 53.9429 28.6925C54.7313 28.672 55.5196 28.6822 56.308 28.6925C56.6332 28.7028 56.574 28.4769 56.5839 28.2818C56.5938 28.0662 56.6036 27.8711 56.2981 27.8916C55.9138 27.9019 55.5393 27.8916 55.1649 27.8916ZM55.1057 27.0189C55.5196 27.0189 55.9237 27.0086 56.3375 27.0189C56.6332 27.0291 56.5839 26.8238 56.5839 26.639C56.5938 26.4439 56.6135 26.2693 56.3277 26.2693C55.5393 26.2796 54.751 26.2796 53.9725 26.2693C53.7163 26.2693 53.6768 26.4028 53.6867 26.6184C53.6966 26.8341 53.6768 27.0291 53.9823 27.0189C54.3469 26.9983 54.7214 27.0189 55.1057 27.0189Z"
      fill="#241E20"
    />
    <path
      d="M25.4046 34.0316C24.8133 34.7401 24.1925 35.4177 23.4534 35.9517C23.2957 36.0646 23.1381 36.3829 22.941 36.1981C22.7045 35.9825 22.5271 35.6642 22.399 35.3561C22.3399 35.2124 22.5764 35.1508 22.6946 35.0789C23.5914 34.4834 24.3896 33.7955 25.0498 32.933C25.1188 32.8406 25.1779 32.7482 25.306 32.5634C24.764 32.5634 24.3009 32.5428 23.8377 32.5736C23.5421 32.5839 23.4435 32.512 23.4435 32.1834C23.4534 31.4544 23.4337 31.4545 24.1432 31.4545C24.222 31.4545 24.3107 31.4545 24.3896 31.4545C24.7345 31.4442 25.1484 31.5674 25.3947 31.4031C25.6805 31.2183 25.4834 30.746 25.5031 30.3969C25.513 30.1915 25.5524 30.0786 25.779 30.0991C25.9564 30.1197 26.1437 30.1197 26.321 30.0991C26.5871 30.0683 26.6364 30.1915 26.6462 30.4482C26.6561 31.4544 26.6659 31.4545 27.6514 31.4545C28.1244 31.4545 28.6073 31.4647 29.0803 31.4442C29.3463 31.4339 29.4055 31.5263 29.4153 31.7933C29.435 32.5634 29.4449 32.5634 28.7058 32.5634C28.1244 32.5634 27.543 32.5634 26.8827 32.5634C27.4543 33.5593 28.2229 34.2267 29.0409 34.853C29.1985 34.9762 29.5533 35.0584 29.4646 35.2637C29.3168 35.6026 29.031 35.9003 28.7649 36.1776C28.6565 36.2905 28.5383 36.0851 28.4496 36.003C27.8288 35.4486 27.2769 34.8222 26.794 34.1343C26.5772 34.278 26.6462 34.4629 26.6462 34.6169C26.6364 35.3869 26.6265 36.157 26.6462 36.9271C26.6561 37.2454 26.5674 37.3686 26.2619 37.3173C26.1634 37.2967 26.0648 37.307 25.9663 37.3173C25.6214 37.3686 25.4834 37.2659 25.5031 36.8552C25.5425 36.0749 25.513 35.2843 25.513 34.4937C25.513 34.3499 25.582 34.1856 25.4046 34.0316Z"
      fill="#241E20"
    />
    <path
      d="M19.8173 32.5634C19.0683 32.5634 18.3982 32.5326 17.738 32.5736C17.2551 32.6044 17.3635 32.2759 17.3635 32.0089C17.3635 31.7522 17.2256 31.4134 17.7281 31.4442C18.3785 31.4853 19.0388 31.4442 19.699 31.4647C19.9552 31.4647 20.0636 31.3826 20.0341 31.1156C20.0144 30.9822 20.0538 30.8384 20.0242 30.7049C19.9355 30.2121 20.1228 30.0991 20.5958 30.0786C21.1476 30.0478 21.2067 30.284 21.187 30.7563C21.1575 31.4545 21.1772 31.4545 21.8473 31.4545C22.1232 31.4545 22.409 31.4853 22.6849 31.4545C23.0594 31.4134 23.1776 31.5263 23.1875 31.9473C23.2072 32.471 23.0692 32.6455 22.5666 32.5839C22.2119 32.5428 21.8473 32.5839 21.4827 32.5839C21.463 32.5839 21.4531 32.5942 21.3546 32.625C21.8177 33.0254 22.2513 33.3848 22.675 33.7749C22.7834 33.8776 23.0298 33.9598 22.9411 34.1548C22.8032 34.4423 22.6159 34.7093 22.409 34.9455C22.3301 35.0379 22.2612 34.8633 22.1922 34.8017C21.8867 34.4731 21.5911 34.1446 21.187 33.6928C21.187 34.4629 21.187 35.0995 21.187 35.7361C21.187 36.0646 21.1476 36.3932 21.1969 36.7115C21.2856 37.2659 21.0392 37.3378 20.5761 37.3481C20.103 37.3583 20.0144 37.1838 20.0341 36.7423C20.0636 35.9106 20.0439 35.0687 20.0341 34.2267C20.0341 34.1959 20.0045 34.1754 19.9651 34.0932C19.4527 34.699 18.9599 35.2946 18.3884 35.8182C18.0632 36.116 17.9154 36.0749 17.6986 35.7155C17.3537 35.1303 17.334 35.1508 17.8661 34.7401C18.5855 34.1343 19.2654 33.4772 19.8173 32.5634Z"
      fill="#241E20"
    />
    <path
      d="M22.5768 10.8474C22.5768 7.73633 22.5866 4.62524 22.5669 1.51415C22.5669 1.08291 22.6063 0.898096 23.1286 0.908363C26.8536 0.949434 30.5786 0.918631 34.3035 0.949434C35.7521 0.959701 37.1514 1.26773 38.4424 2.01727C39.6742 2.736 40.4625 4.38909 40.2753 5.88816C40.1669 6.77117 39.9698 7.58232 39.3687 8.25998C38.9252 8.76309 38.4227 9.18406 37.8412 9.50236C37.6442 9.60504 37.4077 9.70771 37.4274 9.9336C37.4471 10.1698 37.7131 10.139 37.9004 10.2006C39.142 10.601 40.3147 11.1657 40.9749 12.3773C41.7633 13.8045 41.8421 15.3036 41.241 16.895C40.6005 18.5687 39.3588 19.4722 37.8905 20.1704C36.1857 20.9816 34.3626 20.961 32.5593 20.9918C29.6917 21.0534 26.8142 21.0124 23.9465 21.0021C23.6016 21.0021 23.2666 20.9405 22.9217 20.8994C22.5571 20.8583 22.5669 20.5811 22.5669 20.2936C22.5768 17.1312 22.5768 13.9893 22.5768 10.8474ZM31.16 12.3773C31.16 12.3568 31.16 12.3362 31.16 12.3157C30.2041 12.3157 29.2581 12.3362 28.3022 12.3054C27.8982 12.2952 27.77 12.4389 27.77 12.8599C27.7898 14.1433 27.7799 15.4268 27.7799 16.7102C27.7799 17.3571 27.8095 17.4084 28.45 17.4084C29.9085 17.4084 31.3669 17.4187 32.8352 17.3879C33.5743 17.3776 34.2937 17.3057 34.9835 16.9669C36.2645 16.3406 36.7474 14.3897 35.8408 13.2398C35.3875 12.6648 34.7371 12.4286 34.0572 12.3876C33.1013 12.3362 32.1355 12.3773 31.16 12.3773ZM30.4307 4.44042C29.7212 4.44042 28.9723 4.44042 28.2135 4.44042C27.9671 4.44042 27.6912 4.48149 27.7503 4.81006C27.8292 5.22076 27.7208 5.6212 27.7405 6.0319C27.7602 6.76091 27.7898 7.50017 27.7602 8.22918C27.7405 8.67068 27.8489 8.86577 28.2923 8.8555C29.5241 8.83496 30.7461 8.84523 31.9779 8.83497C32.4706 8.83497 32.9633 8.78363 33.4363 8.67068C34.5893 8.38319 35.0426 7.68499 34.9835 6.30913C34.9441 5.33371 34.3134 4.71765 33.2688 4.5431C32.3326 4.38909 31.4063 4.50203 30.4307 4.44042Z"
      fill="#F6D73E"
    />
    <path
      d="M9.8054 5.53891C12.6829 5.43624 15.0282 7.96207 15.0381 10.9089C15.0479 13.907 12.7322 16.4021 9.76598 16.3713C7.04616 16.3507 4.42489 14.0302 4.60227 10.5495C4.71067 8.17769 6.70126 5.47731 9.8054 5.53891Z"
      fill="#F6D73E"
    />
  </g>
  <defs>
    <clipPath id="clip0_822_7689">
      <rect
        width="64.2803"
        height="36.6041"
        fill="white"
        transform="translate(0 0.785156)"
      />
    </clipPath>
  </defs>
</svg>
