<svg viewBox="0 0 122 40" fill="none" xmlns="http://www.w3.org/2000/svg">
  <g clip-path="url(#clip0_3750_268375)">
    <path
      d="M29.9996 14.1204H15.7504V18.3422H25.8297C25.3293 24.2814 20.3969 26.7859 15.7504 26.7859C9.79336 26.7859 4.59883 22.1108 4.59883 15.5277C4.59883 9.13529 9.55508 4.1979 15.7504 4.1979C20.5398 4.1979 23.3754 7.27482 23.3754 7.27482L26.3539 4.1979C26.3539 4.1979 22.5652 -0.0239258 15.6313 -0.0239258C6.81484 -7.3662e-05 0 7.46564 0 15.48C0 23.375 6.43359 31.0554 15.8695 31.0554C24.1855 31.0554 30.2379 25.3547 30.2379 16.9349C30.2379 15.146 29.9996 14.1204 29.9996 14.1204Z"
      fill="#4285F4"
    />
    <path
      d="M41.6508 11.0674C35.8129 11.0674 31.6191 15.647 31.6191 20.966C31.6191 26.3804 35.6699 31.0316 41.6984 31.0316C47.1789 31.0316 51.6348 26.8336 51.6348 21.0853C51.6586 14.4544 46.4641 11.0674 41.6508 11.0674ZM41.6984 14.9791C44.5578 14.9791 47.298 17.2928 47.298 21.0614C47.298 24.7346 44.6055 27.1437 41.6984 27.1437C38.5055 27.1437 36.0035 24.5915 36.0035 21.0614C36.0035 17.5552 38.4816 14.9791 41.6984 14.9791Z"
      fill="#EA4335"
    />
    <path
      d="M63.4789 11.0674C57.641 11.0674 53.4473 15.647 53.4473 20.966C53.4473 26.3804 57.498 31.0316 63.5266 31.0316C69.007 31.0316 73.4629 26.8336 73.4629 21.0853C73.4629 14.4544 68.2445 11.0674 63.4789 11.0674ZM63.5504 14.9791C66.4098 14.9791 69.15 17.2928 69.15 21.0614C69.15 24.7346 66.4574 27.1437 63.5504 27.1437C60.3574 27.1437 57.8555 24.5915 57.8555 21.0614C57.8078 17.5552 60.3098 14.9791 63.5504 14.9791Z"
      fill="#FBBC05"
    />
    <path
      d="M84.8285 11.0674C79.4434 11.0674 75.2734 15.7424 75.2734 21.0376C75.2734 27.0483 80.1582 31.0316 84.7809 31.0316C87.6164 31.0316 89.1414 29.9106 90.2613 28.5987V30.5784C90.2613 34.0131 88.1883 36.0883 85.0191 36.0883C81.993 36.0883 80.4441 33.8223 79.9199 32.5343L76.0836 34.1562C77.4418 37.0185 80.182 40.0239 85.043 40.0239C90.3805 40.0239 94.4312 36.6607 94.4312 29.6243V11.6398H90.2375V13.3333C88.9508 11.9738 87.1875 11.0674 84.8285 11.0674ZM85.2336 14.9791C87.8785 14.9791 90.5711 17.2212 90.5711 21.0614C90.5711 24.9493 87.8785 27.096 85.1859 27.096C82.3266 27.096 79.6816 24.7824 79.6816 21.0853C79.6578 17.2689 82.4219 14.9791 85.2336 14.9791Z"
      fill="#4285F4"
    />
    <path
      d="M112.992 11.0674C107.941 11.0674 103.699 15.0984 103.699 21.0376C103.699 27.3345 108.441 31.0793 113.493 31.0793C117.71 31.0793 120.307 28.7657 121.832 26.6905L118.377 24.3769C117.496 25.7603 115.971 27.1199 113.493 27.1199C110.681 27.1199 109.394 25.5695 108.608 24.0906L121.999 18.5092L121.308 16.8873C120.021 13.6911 116.995 11.0674 112.992 11.0674ZM113.207 14.8837C115.018 14.8837 116.328 15.8378 116.9 17.0304L107.964 20.7513C107.559 17.8652 110.3 14.8837 113.207 14.8837Z"
      fill="#EA4335"
    />
    <path
      d="M101.722 1.02539H97.3379V30.4589H101.722V1.02539Z"
      fill="#34A853"
    />
  </g>
  <defs>
    <clipPath id="clip0_3750_268375">
      <rect width="122" height="40" fill="white" />
    </clipPath>
  </defs>
</svg>
