<svg viewBox="0 0 122 32" fill="none" xmlns="http://www.w3.org/2000/svg">
  <g clip-path="url(#clip0_3750_268383)">
    <path
      d="M25.3062 12.5778C25.3062 14.0889 24.3785 15.2148 22.5231 15.9506C21.0828 16.5235 19.33 16.8148 17.2549 16.8148H8.75927C6.53284 16.8148 4.65794 16.5531 3.13947 16.0346C1.04975 15.3284 0 14.1975 0 12.637V4.29136C0 2.79506 1.06439 1.68395 3.20295 0.967901C4.88742 0.42963 6.74767 0.158025 8.78369 0.158025H12.1575C13.0657 0.158025 13.5197 0.567901 13.5197 1.39259C13.5197 2.21728 13.0657 2.6321 12.1575 2.6321H11.1273C11.0297 2.6321 10.9711 2.62716 10.9613 2.61728C10.7025 2.60741 10.473 2.60741 10.2729 2.60247C10.0727 2.59753 9.90667 2.59259 9.78461 2.59259C5.7614 2.59259 3.74491 3.15556 3.74491 4.28642V12.6222C3.74491 13.7531 5.43427 14.316 8.8081 14.316H17.2647C18.0703 14.316 18.9345 14.1975 19.8426 13.9457C20.99 13.6346 21.5613 13.2198 21.5613 12.6864V10.9136H16.3028C15.6095 10.9136 15.0431 10.316 15.0431 9.58025C15.0431 8.84444 15.6095 8.24197 16.3028 8.24197H22.6257C22.943 8.20741 23.402 8.21235 23.9928 8.21235C24.8668 8.21235 25.3062 8.5679 25.3062 9.28395V12.5778ZM47.385 12.6617V7.61481C47.385 6.57778 45.9349 6.04444 42.9956 6.04444H37.1952C36.1259 6.04444 35.1543 6.15802 34.295 6.38025C33.0841 6.71605 32.4982 7.19506 32.4982 7.83704V12.6617C32.4982 13.279 33.1183 13.758 34.3291 14.0346C35.1592 14.2321 36.1259 14.316 37.2294 14.316H43.0005C43.894 14.316 44.7875 14.2123 45.6615 14.0049C46.7991 13.7037 47.385 13.2543 47.385 12.6617ZM50.9786 12.6617C50.9786 14.1778 50.0802 15.2691 48.2492 15.9457C46.97 16.479 45.2416 16.7605 43.1031 16.7605H37.1952C35.2275 16.7605 33.4649 16.479 31.8732 15.9457C29.9055 15.2444 28.9388 14.1481 28.9388 12.6617V7.83704C28.9388 6.38025 29.9055 5.25926 31.839 4.49876C33.2891 3.90617 35.0517 3.62963 37.161 3.62963H43.1031C48.3518 3.62963 50.9786 5.00247 50.9786 7.80741V12.6617ZM94.0377 4.97778C94.0377 5.70864 93.486 6.07407 92.4509 6.07407C92.3142 6.07407 92.1042 6.07407 91.8308 6.04444H91.1765C88.4472 6.04444 87.0996 6.57778 87.0996 7.69876V15.6642C87.0996 16.1975 86.8262 16.5333 86.3428 16.6765C86.1329 16.7309 85.6153 16.7605 84.7902 16.7605C83.9601 16.7605 83.5451 16.3951 83.5451 15.6642V7.69876C83.5451 5.96049 84.6144 4.80988 86.792 4.19259C88.1054 3.79753 90.0731 3.62963 92.6999 3.62963C93.5885 3.62963 94.0377 4.07901 94.0377 4.97778ZM114.945 12.6617V7.61481C114.945 6.57778 113.495 6.04444 110.555 6.04444H104.75C103.681 6.04444 102.714 6.15802 101.85 6.38025C100.639 6.71605 100.053 7.19506 100.053 7.83704V12.6617C100.053 13.279 100.673 13.758 101.884 14.0346C102.714 14.2321 103.681 14.316 104.784 14.316H110.555C111.488 14.316 112.386 14.2025 113.216 14.0049C114.354 13.7037 114.945 13.2543 114.945 12.6617ZM118.538 12.6617C118.538 14.1778 117.64 15.2691 115.809 15.9457C114.53 16.479 112.801 16.7605 110.663 16.7605H104.755C102.787 16.7605 101.025 16.479 99.4378 15.9457C97.4652 15.2444 96.4985 14.1481 96.4985 12.6617V7.83704C96.4985 6.38025 97.4652 5.25926 99.3987 4.49876C100.849 3.90617 102.611 3.62963 104.721 3.62963H110.663C115.911 3.62963 118.538 5.00247 118.538 7.80741V12.6617ZM76.5777 6.20247V3.93086C76.5777 2.97778 74.9519 2.46914 71.6952 2.46914H58.4342V8.25185H71.6952C74.9519 8.25185 76.5777 7.54568 76.5777 6.20247ZM80.3178 6.31111C80.3178 7.96543 79.2778 9.17531 77.2369 9.93086C75.6452 10.4642 73.7361 10.716 71.4901 10.716H58.4391V15.6049C58.4391 16.1383 58.195 16.4741 57.6432 16.6123C57.5065 16.6667 56.9499 16.6963 56.0174 16.6963C55.1532 16.6963 54.704 16.3309 54.704 15.6V1.06667C54.704 0.365432 55.1532 0 56.0174 0H71.6659C73.78 0 75.5768 0.251852 77.066 0.701235C79.2485 1.37284 80.3178 2.38519 80.3178 3.7037V6.31111ZM40.3786 26.4839C40.2224 27.1556 40.3444 27.9457 40.5007 28.237C40.6569 28.5284 41.1696 28.7901 41.5553 28.7901C41.9557 28.7901 42.522 28.5975 42.8052 28.316C43.0933 28.0296 43.4888 27.3432 43.6645 26.5975C43.8159 25.9704 43.7036 25.3728 43.5425 25.0864C43.3814 24.8 42.9077 24.4099 42.5123 24.4099C42.1363 24.4099 41.5358 24.5827 41.2379 24.879C40.945 25.1704 40.5397 25.8074 40.3786 26.4839ZM38.6697 26.5432C38.9285 25.4568 39.5827 24.558 40.2712 23.9506C40.9645 23.3432 41.8482 23.2247 42.8247 23.2247C43.8257 23.2247 44.558 23.6395 44.9584 24.237C45.3588 24.8296 45.5785 25.6395 45.3246 26.7111C45.1684 27.3926 44.8754 28.0346 44.475 28.6025C44.1186 29.1012 43.6353 29.4123 43.1226 29.6889C42.6099 29.9654 41.9996 30.0296 41.3307 30.0296C40.652 30.0296 40.1198 29.9111 39.7292 29.6691C39.3435 29.4321 38.8943 29.0518 38.7381 28.5333C38.5867 28.0198 38.4891 27.3185 38.6697 26.5432ZM31.8439 29.8321L33.2647 23.3235L36.2138 23.3333C36.2773 23.3333 38.3865 23.2247 38.284 25.0321C38.2107 26.3457 37.6395 26.4938 36.4921 27.1062C37.0682 28.0741 37.2684 28.5975 38.0301 29.8321H36.1113C35.8964 29.2148 34.9834 27.4716 34.9785 27.4716L33.9825 27.4617L33.4747 29.842L31.8439 29.8321ZM34.3047 26.2914H35.4375C36.4872 26.2914 36.9852 24.6272 35.8964 24.6074L34.7149 24.5827L34.3047 26.2914ZM27.6938 23.3481L32.3273 23.3679L32.0832 24.5679L29.0902 24.5877L28.8167 25.7432L31.6047 25.7531L31.3459 26.9926H28.4945L28.1625 28.642L31.1164 28.5877L30.9358 29.8519L26.2436 29.7975L27.6938 23.3481ZM20.7508 23.3284L22.4401 23.3383L21.864 25.7086L24.2955 25.7728L24.8179 23.3481L26.4975 23.3679L25.0328 29.8321L23.3678 29.842L24.0074 27.0025L21.5759 26.9827L20.907 29.8469L19.247 29.837L20.7508 23.3284ZM45.3783 29.8222H46.9163L47.3411 28.1284H45.8031L45.3783 29.8222Z"
      fill="black"
    />
    <path
      d="M51.541 20.8594H65.7834V31.8717H51.541V20.8594ZM68.7178 20.8594H82.9602V31.8717H68.7178V20.8594Z"
      fill="#00AEEF"
    />
    <path
      d="M86.0117 20.8594H100.254V31.8717H86.0117V20.8594Z"
      fill="#005DAC"
    />
    <path
      d="M103.666 20.8594H117.908V31.8717H103.666V20.8594Z"
      fill="white"
      stroke="black"
      stroke-width="0.5"
      stroke-miterlimit="102.081"
    />
    <path
      d="M13.3197 26.8739H14.4231C14.4134 26.4887 14.6819 26.2961 15.2239 26.2961C15.6731 26.3059 15.927 26.4541 15.9758 26.7257C15.9758 27.0813 15.9807 27.4171 15.9904 27.7479C15.7463 27.4615 15.2971 27.2985 14.638 27.2492C13.598 27.3479 13.0902 27.8368 13.1293 28.7109C13.1683 29.4763 13.7103 29.8862 14.7503 29.9257C15.2971 29.9504 15.717 29.7874 16.01 29.4171C16.0197 29.5751 16.0197 29.7232 16.0197 29.8714H17.0353C17.0451 28.7603 17.0451 27.6541 17.0451 26.5529C16.7912 25.9751 16.3615 25.6689 15.7658 25.6343C15.2434 25.6195 14.7259 25.6195 14.2083 25.6195C13.5638 25.8022 13.2757 26.222 13.3197 26.8739ZM8.57874 25.5948H9.6236C10.3999 25.5948 11.0395 26.2319 11.0395 27.0022V27.8862H8.21255C8.09537 28.7553 8.31508 29.18 8.86681 29.1553C9.06699 29.1455 9.28182 29.1455 9.49666 29.1455C9.86285 29.18 10.0337 28.9776 10.024 28.4985H11.0444V28.5232C11.0444 29.2985 10.4097 29.9306 9.62848 29.9306H8.58362C7.8073 29.9306 7.16768 29.2985 7.16768 28.5232V27.0022C7.16768 26.2269 7.80241 25.5948 8.57874 25.5948ZM2.08984 23.8269V29.8269H5.53203C6.4646 29.8911 6.94309 29.3578 6.95774 28.2467C6.9968 27.4714 6.68431 26.9627 6.00076 26.7405C6.53784 26.6368 6.82591 26.1776 6.85032 25.3578C6.79173 24.385 6.25953 23.8664 5.25373 23.8022C4.18445 23.8072 3.12006 23.8121 2.08984 23.8269Z"
      fill="black"
    />
    <path
      d="M3.23242 24.8346V26.3655C3.82809 26.3556 4.3847 26.3556 4.94131 26.3556C5.42468 26.3655 5.65904 26.1186 5.65416 25.6346C5.62975 25.1951 5.42468 24.9383 5.03896 24.8642C4.43841 24.8642 3.83297 24.8593 3.23242 24.8346ZM3.23242 27.2247V28.8939C3.86715 28.884 4.4677 28.884 5.06337 28.884C5.58092 28.8939 5.82993 28.6272 5.82505 28.0988C5.80064 27.6198 5.58092 27.3432 5.16591 27.2593C4.52141 27.2593 3.87692 27.2494 3.23242 27.2247ZM10.0192 27.2988C10.0729 26.6469 9.78967 26.3358 9.15982 26.3556C8.45674 26.3507 8.14426 26.6716 8.21261 27.3136C8.81316 27.2889 9.4186 27.2889 10.0192 27.2988ZM15.9905 28.4099C15.7854 28.0445 15.3362 27.921 14.6429 28.0445C14.2572 28.2124 14.1107 28.4741 14.1986 28.8247C14.3011 29.2642 14.765 29.3926 15.6048 29.1852C15.9124 29.0618 16.0393 28.805 15.9905 28.4099ZM120.452 15.279C121.292 15.2642 121.981 15.9358 122 16.7852C122.015 17.6346 121.351 18.3309 120.511 18.3507C120.491 18.3507 120.472 18.3507 120.457 18.3507C119.618 18.3358 118.953 17.6346 118.968 16.7902C118.978 15.9605 119.632 15.2939 120.452 15.279Z"
      fill="white"
    />
    <path
      d="M120.452 15.5063C121.164 15.5063 121.745 16.094 121.745 16.815C121.745 17.536 121.164 18.1236 120.452 18.1236C119.739 18.1039 119.172 17.5014 119.192 16.7804C119.211 16.0792 119.763 15.5212 120.452 15.5063Z"
      fill="white"
      stroke="black"
      stroke-width="0.3"
      stroke-miterlimit="102.081"
    />
    <path
      d="M119.936 17.4519V16H120.575C120.702 16 120.8 16.0099 120.868 16.0395C120.936 16.0642 120.985 16.1136 121.029 16.1778C121.068 16.242 121.088 16.321 121.088 16.3951C121.093 16.4938 121.054 16.5877 120.99 16.6568C120.927 16.7259 120.819 16.7704 120.683 16.7901C120.736 16.8148 120.77 16.8395 120.795 16.8642C120.853 16.9185 120.907 16.9827 120.956 17.0568L121.205 17.4519H120.966L120.775 17.1457C120.731 17.0765 120.687 17.0123 120.639 16.9481C120.609 16.9086 120.58 16.879 120.541 16.8494C120.517 16.8296 120.487 16.8198 120.453 16.8099C120.419 16.8049 120.38 16.8049 120.346 16.8049H120.126V17.4469L119.936 17.4519Z"
      fill="black"
    />
    <path
      d="M120.125 16.6373H120.535C120.603 16.6422 120.672 16.6323 120.74 16.6076C120.784 16.5928 120.823 16.5632 120.852 16.5237C120.877 16.4842 120.892 16.4397 120.892 16.3904C120.892 16.3262 120.867 16.262 120.818 16.2225C120.769 16.178 120.691 16.1533 120.584 16.1533H120.125V16.6373Z"
      fill="white"
    />
  </g>
  <defs>
    <clipPath id="clip0_3750_268383">
      <rect width="122" height="32" fill="white" />
    </clipPath>
  </defs>
</svg>
