<svg viewBox="0 0 276 37" fill="none" xmlns="http://www.w3.org/2000/svg">
  <g clip-path="url(#clip0_822_7567)">
    <path
      d="M123.187 35.7111C120.79 34.767 119.837 32.2238 120.949 29.7263C121.497 28.4775 122.768 27.7465 124.14 27.8836C125.656 28.0359 126.652 28.7821 126.926 30.2593C127.085 31.1578 127.085 32.1172 126.969 33.0157C126.782 34.5081 125.814 35.3152 124.486 35.6959C124.053 35.7111 123.62 35.7111 123.187 35.7111ZM121.512 31.7365C121.627 32.3151 121.699 32.9243 121.887 33.4878C122.19 34.3862 122.912 34.8279 123.865 34.8126C124.76 34.7822 125.439 34.3862 125.771 33.4725C126.132 32.4827 126.161 31.4623 125.93 30.4268C125.641 29.178 124.63 28.5232 123.418 28.7821C122.205 29.041 121.598 30.0156 121.512 31.7365Z"
      fill="#130F6C"
    />
    <path
      d="M160.12 35.7113C157.925 34.6909 157.175 33.1072 157.723 30.564C158.084 28.8736 159.254 27.8837 160.914 27.8837C162.603 27.8685 163.758 28.8127 164.018 30.5944C164.148 31.4929 164.09 32.4523 163.932 33.3508C163.672 34.7519 162.661 35.4067 161.419 35.7265C160.986 35.7113 160.553 35.7113 160.12 35.7113ZM163.152 31.767C163.094 31.3102 163.08 30.9295 163.008 30.564C162.791 29.4218 162.084 28.7974 161.015 28.7518C159.932 28.7061 159.023 29.3 158.849 30.4117C158.705 31.3102 158.691 32.2696 158.849 33.1529C159.052 34.2798 159.817 34.8128 160.871 34.8128C161.925 34.8128 162.603 34.295 162.907 33.1681C163.036 32.6808 163.08 32.1782 163.152 31.767Z"
      fill="#130F6C"
    />
    <path
      d="M203.131 35.7113C200.792 34.7519 199.897 32.6199 200.792 30.0615C201.298 28.5995 202.54 27.7619 204.056 27.8838C205.644 28.0056 206.741 28.8889 206.958 30.5031C207.088 31.4777 207.015 32.5133 206.828 33.4879C206.582 34.7824 205.572 35.361 204.445 35.7113C203.998 35.7113 203.565 35.7113 203.131 35.7113ZM206.077 31.7214C206.019 31.295 205.99 30.8838 205.904 30.5031C205.658 29.3762 204.98 28.7823 203.954 28.7366C202.872 28.6909 202.106 29.2391 201.774 30.3203C201.471 31.2798 201.486 32.2544 201.774 33.2138C202.106 34.3103 202.799 34.828 203.853 34.8128C204.879 34.7976 205.6 34.2037 205.86 33.1072C205.976 32.6503 206.005 32.163 206.077 31.7214Z"
      fill="#130F6C"
    />
    <path
      d="M250.604 35.7111C250.272 35.5741 249.926 35.4675 249.622 35.2847C248.944 34.8888 248.669 34.2644 248.727 33.3964C249.045 33.3964 249.334 33.3964 249.637 33.3964C250.027 34.6756 251.167 35.1934 252.351 34.6299C252.828 34.4015 253.203 34.0055 253.059 33.4573C252.958 33.0918 252.64 32.6654 252.308 32.5131C251.658 32.2085 250.922 32.1019 250.229 31.8887C249.261 31.5842 248.799 31.0207 248.756 30.1679C248.727 29.2999 249.204 28.5689 250.084 28.2186C250.994 27.8531 251.932 27.8379 252.828 28.2034C253.506 28.4775 253.925 28.9953 253.896 29.8785C253.593 29.8785 253.29 29.8785 252.987 29.8785C252.539 28.8735 251.369 28.4318 250.445 29.041C250.157 29.2389 249.882 29.711 249.868 30.0461C249.868 30.3354 250.229 30.7466 250.518 30.8836C251.124 31.1578 251.803 31.2796 252.452 31.4623C253.636 31.8126 254.127 32.3608 254.142 33.3202C254.156 34.3558 253.55 35.1629 252.481 35.5132C252.322 35.5588 252.178 35.635 252.019 35.6959C251.572 35.7111 251.081 35.7111 250.604 35.7111Z"
      fill="#130F6C"
    />
    <path
      d="M67.1952 35.7112C66.8199 35.5589 66.4156 35.4523 66.0691 35.2543C65.4049 34.8584 65.1306 34.2188 65.2172 33.3812C65.5204 33.3812 65.7947 33.3812 66.0835 33.3812C66.5022 34.7518 67.2097 35.0259 68.6824 34.6909C69.2599 34.5538 69.5776 34.1122 69.6064 33.4878C69.6209 32.8786 69.2166 32.6045 68.7257 32.4522C68.0615 32.2543 67.3829 32.102 66.7188 31.8888C65.7514 31.5842 65.3038 31.0207 65.2894 30.1375C65.275 29.239 65.7225 28.4471 66.6322 28.2187C67.4263 28.0359 68.2926 28.0055 69.1011 28.1273C69.9385 28.2491 70.4294 28.8887 70.4439 29.8634C69.953 29.9395 69.5631 30.0766 69.2455 29.3913C68.8123 28.4776 66.9065 28.5994 66.4589 29.5131C66.1846 30.0613 66.3578 30.6248 66.9642 30.8532C67.5706 31.0817 68.2059 31.2339 68.8268 31.4167C70.184 31.8126 70.6604 32.3152 70.6749 33.366C70.6749 34.4929 70.054 35.2086 68.769 35.5741C68.6824 35.6046 68.6102 35.6655 68.5236 35.7112C68.0615 35.7112 67.6284 35.7112 67.1952 35.7112Z"
      fill="#130F6C"
    />
    <path
      d="M92.0143 35.7112C91.8844 35.6655 91.7544 35.5893 91.6245 35.5589C90.2961 35.2543 89.6031 34.569 89.5309 33.168C89.4443 31.5081 89.5165 29.8481 89.5165 28.1425C89.8341 28.1425 90.1084 28.1425 90.4838 28.1425C90.4838 29.2542 90.4838 30.3507 90.4838 31.4624C90.4838 31.8735 90.4838 32.2695 90.4838 32.6807C90.5127 34.036 91.1769 34.7518 92.433 34.767C93.6891 34.7822 94.3533 34.0817 94.3822 32.6959C94.4111 31.2187 94.3822 29.7263 94.3822 28.1577C94.6998 28.1425 94.9741 28.1273 95.3062 28.1121C95.3062 29.909 95.3784 31.6451 95.2773 33.366C95.2196 34.4624 94.4977 35.1629 93.5014 35.5132C93.2993 35.5893 93.0972 35.6503 92.895 35.7264C92.5918 35.7112 92.3031 35.7112 92.0143 35.7112Z"
      fill="#130F6C"
    />
    <path
      d="M243.241 35.7111C243.039 35.6502 242.837 35.5893 242.62 35.5283C241.436 35.2238 240.714 34.4014 240.685 33.1222C240.628 31.4927 240.671 29.848 240.671 28.1424C240.989 28.1424 241.292 28.1424 241.653 28.1424C241.653 29.6196 241.653 31.0816 241.653 32.5435C241.653 34.1882 242.577 34.9953 244.122 34.6755C245.046 34.4928 245.508 33.9141 245.537 32.7872C245.565 31.5232 245.551 30.2592 245.551 28.9952C245.551 28.7211 245.551 28.447 245.551 28.1272C245.883 28.1272 246.143 28.1272 246.461 28.1272C246.461 29.8785 246.533 31.5993 246.432 33.2897C246.374 34.4623 245.609 35.1781 244.555 35.5131C244.396 35.5588 244.252 35.6349 244.093 35.6959C243.818 35.7111 243.53 35.7111 243.241 35.7111Z"
      fill="#130F6C"
    />
    <path
      d="M0.490234 11.2538C1.4576 10.736 2.23726 10.3096 3.01693 9.89841C9.1532 6.6547 15.2895 3.41099 21.4113 0.152046C21.7867 -0.0459269 22.0899 -0.0611556 22.4797 0.152046C29.2513 3.74602 36.0228 7.32476 42.8088 10.9187C42.9532 10.9949 43.0831 11.0862 43.343 11.2538C29.0347 11.2538 14.8707 11.2538 0.490234 11.2538Z"
      fill="#130F6C"
    />
    <path
      d="M2.00648 34.5843C2.00648 33.701 2.00648 32.8787 2.00648 31.965C2.42519 31.965 2.80059 31.965 3.17598 31.965C3.99896 31.965 4.47543 31.6299 4.70644 30.7924C4.80751 30.4116 4.83638 30.0005 4.83638 29.6045C4.85082 25.6146 4.83638 21.6247 4.83638 17.6348C4.83638 15.9139 4.47543 15.5332 2.85834 15.5332C2.59845 15.5332 2.33856 15.5332 1.94873 15.5332C1.94873 15.0611 1.94873 14.6195 1.94873 14.1779C1.94873 13.721 1.94873 13.2794 1.94873 12.7616C2.20862 12.7464 2.41075 12.7159 2.62733 12.7159C6.3524 12.7159 10.0775 12.7311 13.8025 12.7007C14.409 12.7007 14.6111 12.8987 14.5678 13.5078C14.5245 14.1322 14.5533 14.7566 14.5533 15.5028C14.0769 15.5028 13.687 15.4875 13.2828 15.5028C12.3587 15.5637 11.7379 16.1881 11.7379 17.1475C11.7234 21.4876 11.7234 25.8278 11.7379 30.1832C11.7379 31.3863 12.3732 31.9802 13.4849 31.9802C13.7881 31.9802 14.1058 31.9802 14.4811 31.9802C14.4811 32.8787 14.4811 33.7163 14.4811 34.5995C10.3374 34.5843 6.19358 34.5843 2.00648 34.5843Z"
      fill="#130F6C"
    />
    <path
      d="M29.3812 34.569C29.3668 34.3254 29.3379 34.1122 29.3379 33.8838C29.3379 33.2746 29.3379 32.6807 29.3379 31.9649C29.7133 31.9649 30.0165 31.9649 30.3197 31.9649C31.5903 31.9649 32.1389 31.3862 32.1678 30.0461C32.1822 29.041 32.1678 28.0207 32.1678 27.0156C32.1678 23.8785 32.1678 20.7566 32.1678 17.6195C32.1678 16.0357 31.6625 15.5027 30.132 15.4875C29.901 15.4875 29.67 15.4723 29.3956 15.457C29.3956 14.5281 29.3956 13.6601 29.3956 12.7463C33.5683 12.7463 37.6976 12.7463 41.8847 12.7463C41.8847 13.6448 41.8847 14.5281 41.8847 15.518C41.4949 15.518 41.1051 15.518 40.7008 15.518C39.5602 15.5332 39.0837 16.0053 39.0693 17.2236C39.0548 18.914 39.0693 20.6043 39.0693 22.2947C39.0693 24.7465 39.0693 27.1984 39.0693 29.6502C39.0693 30.0309 39.1126 30.4116 39.1992 30.7771C39.4158 31.5995 39.8923 31.9649 40.7152 31.9649C41.0906 31.9649 41.4805 31.9649 41.8992 31.9649C41.8992 32.8634 41.8992 33.6858 41.8992 34.569C37.741 34.569 33.5827 34.569 29.3812 34.569Z"
      fill="#130F6C"
    />
    <path
      d="M15.665 15.4571C15.665 14.5434 15.665 13.6906 15.665 12.7769C19.8521 12.7769 24.0104 12.7769 28.2119 12.7769C28.2119 13.6753 28.2119 14.5586 28.2119 15.5332C27.721 15.5332 27.2445 15.518 26.7825 15.5332C25.974 15.5485 25.5986 15.8683 25.4253 16.7059C25.3676 16.98 25.3387 17.2541 25.3387 17.5282C25.3387 21.5486 25.3387 25.569 25.3387 29.5741C25.3387 29.9244 25.382 30.2746 25.4542 30.6249C25.6563 31.5843 26.1183 31.965 27.0713 31.965C27.4322 31.965 27.7787 31.965 28.1975 31.965C28.1975 32.8635 28.1975 33.7011 28.1975 34.5843C24.0248 34.5843 19.881 34.5843 15.6795 34.5843C15.6795 33.7163 15.6795 32.8787 15.6795 31.965C16.0837 31.965 16.4303 31.9345 16.7912 31.965C17.7875 32.0716 18.1484 31.4929 18.3939 30.6858C18.5094 30.3051 18.5094 29.8939 18.5094 29.4827C18.5238 25.6908 18.4805 21.8988 18.5238 18.1069C18.5383 16.2642 18.0762 15.3048 16.1126 15.4723C15.9971 15.5028 15.8816 15.4723 15.665 15.4571Z"
      fill="#130F6C"
    />
    <path
      d="M75.0781 6.80713C80.1171 6.80713 85.1272 6.80713 90.2094 6.80713C90.2094 12.3656 90.2094 17.9241 90.2094 23.6044C89.6752 23.4521 89.0544 24.0308 88.6068 23.2084C88.549 23.1018 88.2603 23.1171 88.0726 23.1171C84.463 23.1171 80.8679 23.1018 77.2583 23.1323C77.0273 23.1323 76.8107 23.4064 76.5797 23.4673C76.1032 23.5739 75.6268 23.6196 75.0926 23.6957C75.0781 17.9698 75.0781 12.4113 75.0781 6.80713ZM88.6357 21.716C88.6357 17.1626 88.6357 12.7006 88.6357 8.19294C88.3469 8.17771 88.1159 8.14725 87.8704 8.14725C84.3764 8.14725 80.8968 8.16248 77.4027 8.13202C76.7674 8.13202 76.5797 8.29954 76.5941 8.98483C76.623 12.9595 76.6086 16.919 76.6086 20.8937C76.6086 21.1678 76.6375 21.4267 76.6519 21.716C78.7743 21.716 80.839 21.716 82.947 21.716C82.817 21.2592 82.7015 20.8632 82.586 20.4673C84.102 20.2845 84.102 20.2845 84.0299 19.4013C82.9759 19.4013 81.9363 19.4013 80.8101 19.4013C81.2144 19.7972 81.5465 20.117 81.9074 20.4673C81.5754 20.7871 81.2866 21.0764 80.9978 21.3505C80.4203 20.8175 79.9294 20.3454 79.4385 19.8733C79.5107 19.6906 79.5829 19.5383 79.6984 19.2947C78.8176 19.2947 78.0235 19.2947 77.215 19.2947C77.215 18.8987 77.215 18.5484 77.215 18.1373C79.4962 18.1373 81.7486 18.1373 84.0299 18.1373C84.0299 17.7718 84.0299 17.4824 84.0299 17.1169C81.9652 17.2997 79.9438 17.4824 77.8647 17.6652C77.7925 17.3302 77.677 16.8733 77.5615 16.3555C78.8032 16.2946 80.0016 16.2337 81.2 16.1728C81.5032 16.1575 81.8641 16.2337 81.8497 15.7159C81.8352 15.1677 81.4454 15.32 81.1566 15.32C80.2759 15.3047 79.4096 15.32 78.4711 15.32C78.4711 13.9494 78.4856 12.7159 78.4567 11.4823C78.4422 10.9798 78.6155 10.8275 79.0775 10.8427C79.8716 10.8732 80.6657 10.858 81.4598 10.8275C81.5753 10.8275 81.6909 10.66 81.8208 10.5686C81.7053 10.4772 81.6042 10.3402 81.4743 10.3097C81.2866 10.264 81.0989 10.2945 80.8968 10.2945C79.7273 10.2945 78.5578 10.2945 77.3594 10.2945C77.3594 9.85287 77.3594 9.51783 77.3594 9.09143C78.6155 9.09143 79.8428 9.09143 81.0556 9.09143C81.5032 9.09143 81.9507 9.15235 81.9219 8.34523C82.5138 8.72594 83.3657 7.97974 83.6256 9.13712C85.0261 9.13712 86.441 9.13712 87.8704 9.13712C87.8704 9.53306 87.8704 9.86809 87.8704 10.2945C86.5132 10.2945 85.1994 10.2793 83.8855 10.3097C83.6978 10.3097 83.5245 10.4925 83.3368 10.5838C83.5245 10.6752 83.7122 10.8427 83.9143 10.8427C84.6796 10.8732 85.4592 10.8732 86.2245 10.858C86.6143 10.8427 86.7876 10.995 86.7731 11.4214C86.7442 12.2742 86.8164 13.1423 86.7587 13.9951C86.7009 14.8022 86.8742 15.457 87.4373 16.0357C87.7549 16.3555 87.9715 16.7819 88.2603 17.1931C87.8849 17.4672 87.5528 17.6956 87.1485 17.9698C86.8598 17.2388 86.4844 16.6296 85.7336 17.056C85.5314 17.1626 85.5603 17.7109 85.4448 18.183C86.441 18.183 87.2496 18.183 88.0726 18.183C88.0726 18.6094 88.0726 18.9444 88.0726 19.386C87.2063 19.386 86.3833 19.386 85.6903 19.386C85.4592 20.2693 85.2715 21.0307 85.0983 21.7617C86.1956 21.716 87.394 21.716 88.6357 21.716ZM85.6903 15.853C85.3149 15.3657 84.001 15.0458 83.539 15.32C83.3946 15.3961 83.3801 15.7007 83.2502 16.0205C84.1309 15.9596 84.8673 15.9139 85.6903 15.853ZM85.286 13.5687C84.6218 13.5687 84.0154 13.5687 83.409 13.5687C83.2502 14.0864 83.3946 14.391 83.8855 14.254C84.3475 14.1321 85.1849 14.7717 85.286 13.5687ZM85.1994 11.8935C84.5641 11.8935 83.9865 11.8935 83.3368 11.8935C83.3079 13.0052 84.0876 12.5179 84.5208 12.594C84.925 12.6702 85.4448 12.7006 85.1994 11.8935ZM80.0738 13.523C79.9005 14.0712 80.0305 14.3149 80.5358 14.2844C80.8534 14.2692 81.1711 14.3301 81.4743 14.254C81.6187 14.2235 81.7342 13.9951 81.8641 13.858C81.7486 13.7514 81.6331 13.5382 81.5032 13.5382C81.0123 13.4925 80.5358 13.523 80.0738 13.523ZM80.9545 12.6093C81.07 12.6093 81.2144 12.6549 81.3155 12.594C81.5176 12.4874 81.6909 12.3351 81.8641 12.1981C81.6764 12.0763 81.5032 11.8935 81.301 11.8478C81.0267 11.7869 80.7235 11.8021 80.4492 11.8478C80.2903 11.8783 80.1604 12.061 80.016 12.1676C80.1604 12.3047 80.2903 12.4874 80.478 12.5636C80.5935 12.6702 80.7812 12.6093 80.9545 12.6093Z"
      fill="#130F6C"
    />
    <path
      d="M200.749 9.04586C200.258 8.34534 199.897 7.82757 199.536 7.30979C199.839 6.95953 200.143 6.60927 200.547 6.13718C201.139 6.97476 201.687 7.72097 202.178 8.51286C202.453 8.96972 202.741 9.16769 203.305 8.93926C203.305 7.99508 203.305 7.02045 203.305 5.93921C203.911 5.96967 204.445 6.00012 204.965 6.03058C204.907 6.59404 204.835 7.06613 204.806 7.52299C204.777 7.99508 204.806 8.46717 204.806 8.98495C205.398 8.98495 205.918 8.98495 206.51 8.98495C206.51 7.99508 206.51 7.02045 206.51 5.93921C207.145 5.96967 207.694 6.00012 208.127 6.03058C208.069 7.09659 208.026 8.01031 207.968 8.92403C208.748 9.21338 209.167 8.95449 209.47 8.2692C209.758 7.58391 210.163 6.95953 210.567 6.21333C211.072 6.50267 211.549 6.76156 212.025 7.0509C211.578 7.72097 211.188 8.29966 210.711 9.03063C211.621 9.03063 212.401 9.03063 213.209 9.03063C213.209 9.56364 213.209 10.0053 213.209 10.5535C212.314 10.5535 211.448 10.6144 210.596 10.5383C209.816 10.4621 209.369 10.7362 209.21 11.5281C209.167 11.7261 209.094 11.8936 208.993 12.183C210.076 12.183 211.087 12.183 212.155 12.183C212.155 12.716 212.155 13.1576 212.155 13.7058C210.278 13.7058 208.401 13.7058 206.467 13.7058C206.467 14.117 206.467 14.4216 206.467 14.8328C208.156 14.8328 209.86 14.8328 211.592 14.8328C211.592 15.3505 211.592 15.7617 211.592 16.2795C209.917 16.2795 208.214 16.2795 206.481 16.2795C206.481 16.6602 206.481 16.9496 206.481 17.3303C208.806 17.3303 211.145 17.3303 213.556 17.3303C213.556 17.8785 213.556 18.3354 213.556 18.8684C211.578 18.8684 209.614 18.8684 207.651 18.8684C209.484 20.4978 211.751 20.9852 214.032 21.64C213.498 22.1578 213.079 22.6451 212.588 23.041C212.43 23.1629 212.097 23.1629 211.881 23.0867C210.062 22.4166 208.344 21.5029 206.856 20.178C206.755 20.0867 206.64 20.0105 206.438 19.8735C206.438 21.244 206.438 22.4928 206.438 23.8025C205.903 23.8025 205.413 23.8025 204.821 23.8025C204.821 22.5537 204.821 21.2897 204.821 19.8735C204.532 20.0562 204.373 20.1476 204.243 20.2694C202.727 21.5943 200.98 22.4623 199.103 23.0867C198.612 23.2542 198.266 23.2085 197.919 22.7669C197.674 22.4471 197.284 22.2339 197.024 21.8989C199.204 21.1679 201.283 20.574 203.117 19.31C203.232 19.2339 203.319 19.1273 203.564 18.9141C201.485 18.9141 199.594 18.9141 197.645 18.9141C197.645 18.381 197.645 17.9394 197.645 17.4064C199.984 17.4064 202.337 17.4064 204.748 17.4064C204.748 17.0105 204.748 16.7059 204.748 16.3404C203.03 16.3404 201.355 16.3404 199.623 16.3404C199.623 15.8379 199.623 15.4115 199.623 14.8784C201.327 14.8784 203.016 14.8784 204.763 14.8784C204.763 14.4673 204.763 14.1627 204.763 13.782C202.843 13.782 200.951 13.782 199.016 13.782C199.016 13.249 199.016 12.7921 199.016 12.2439C200.07 12.2439 201.124 12.2439 202.251 12.2439C202.121 11.787 202.005 11.4368 201.919 11.0713C201.832 10.6753 201.615 10.5687 201.254 10.5687C200.171 10.584 199.103 10.5687 197.962 10.5687C197.962 10.051 197.962 9.59409 197.962 9.07632C198.843 9.04586 199.695 9.04586 200.749 9.04586ZM203.507 10.5687C203.738 12.1982 203.738 12.1982 205.153 12.1982C205.485 12.1982 205.817 12.1982 206.163 12.1982C207.318 12.1982 207.65 11.8632 207.708 10.5687C206.322 10.5687 204.936 10.5687 203.507 10.5687Z"
      fill="#130F6C"
    />
    <path
      d="M135.849 12.259C137.755 11.4976 139.545 10.7818 141.321 10.0813C141.509 10.8732 141.365 11.4824 140.498 11.8174C139.863 12.061 139.271 12.4722 138.679 12.9139C139.516 12.9139 140.339 12.9139 141.278 12.9139C141.032 12.7007 140.874 12.5484 140.643 12.3352C142.635 11.589 144.758 11.1473 145.797 8.77165C144.613 8.72596 143.574 8.49753 142.693 9.47217C142.058 10.1727 141.899 10.0813 140.83 9.24374C141.812 8.20819 142.808 7.17264 143.805 6.13709C143.906 6.03048 144.108 5.96957 144.238 6.00003C144.671 6.12186 145.09 6.3046 145.768 6.56349C145.364 6.79192 145.104 6.92898 144.815 7.09649C145.003 7.26401 145.061 7.34015 145.104 7.34015C147.039 7.27924 148.974 7.17264 150.908 7.20309C151.385 7.21832 151.847 7.70564 152.309 7.99499C152.352 8.02544 152.28 8.31479 152.193 8.43662C151.832 8.90871 151.442 9.35034 151.067 9.8072C150.244 10.8428 150.244 10.8428 149.046 10.1422C149.306 9.7006 149.565 9.2742 149.912 8.71073C149.132 8.71073 148.468 8.66505 147.818 8.72596C147.342 8.77165 147.125 9.44171 147.515 9.73106C148.353 10.3554 149.219 10.9341 150.129 11.4062C150.85 11.7717 151.659 11.9392 152.598 12.2438C151.746 12.6397 151.428 13.7362 150.302 13.3555C150.302 15.8987 150.302 18.3962 150.302 20.9698C149.334 20.9698 148.439 20.9698 147.53 20.9698C147.515 21.0612 147.501 21.1526 147.486 21.2439C149.103 21.5942 150.706 21.9292 152.41 22.2947C152.034 22.7059 151.702 23.1171 151.327 23.4826C151.226 23.5739 151.009 23.6196 150.879 23.5892C149.017 23.0409 147.154 22.4775 145.191 21.8836C145.378 21.5181 145.479 21.3201 145.624 21.0612C144.599 21.0612 143.646 21.0612 142.592 21.0612C142.837 21.3658 143.039 21.6094 143.357 21.9902C141.567 22.5079 139.892 22.9191 138.275 23.4978C137.149 23.8937 136.47 23.4673 135.892 22.5232C137.553 22.112 139.213 21.7008 140.874 21.2744C140.859 21.183 140.859 21.1069 140.845 21.0155C139.95 21.0155 139.069 21.0155 138.101 21.0155C138.101 18.3353 138.101 15.7464 138.101 13.0052C137.437 13.3555 136.903 13.6601 136.282 13.9799C136.123 13.3859 135.979 12.792 135.849 12.259ZM148.569 16.5383C145.595 16.5383 142.707 16.5383 139.805 16.5383C139.805 16.8733 139.805 17.1627 139.805 17.452C142.765 17.452 145.653 17.452 148.569 17.452C148.569 17.1474 148.569 16.8733 148.569 16.5383ZM139.762 19.5992C142.707 19.5992 145.624 19.5992 148.584 19.5992C148.569 19.2947 148.555 19.0358 148.54 18.7769C145.566 18.7769 142.678 18.7769 139.762 18.7769C139.762 19.0815 139.762 19.3251 139.762 19.5992ZM148.569 14.3758C145.581 14.3758 142.678 14.3758 139.733 14.3758C139.747 14.6956 139.762 14.9697 139.776 15.2286C142.751 15.2286 145.667 15.2286 148.569 15.2286C148.569 14.9088 148.569 14.6652 148.569 14.3758ZM149.176 12.9139C148.237 12.1829 147.356 11.5128 146.548 10.8884C145.465 11.5433 144.368 12.2133 143.227 12.9139C145.22 12.9139 147.169 12.9139 149.176 12.9139Z"
      fill="#130F6C"
    />
    <path
      d="M232.889 23.1018C230.449 21.8226 228.543 20.0256 226.854 17.8479C226.854 19.7211 226.854 21.6094 226.854 23.5587C226.291 23.5587 225.8 23.5587 225.222 23.5587C225.222 21.6856 225.222 19.8124 225.222 17.787C224.515 18.6246 223.98 19.4317 223.287 20.0104C222.118 21.0003 220.833 21.8378 219.606 22.7516C219.201 23.0409 218.884 22.9952 218.552 22.5993C218.292 22.2795 217.931 22.0663 217.469 21.6856C220.414 20.4368 222.84 18.9292 224.63 16.3251C223.403 16.3251 222.248 16.3251 221.035 16.3251C221.035 17.3302 221.035 18.3352 221.035 19.386C220.501 19.386 220.039 19.386 219.505 19.386C219.505 17.8936 219.505 16.4012 219.505 14.8022C221.367 14.8022 223.258 14.8022 225.179 14.8022C225.179 14.3149 225.179 13.9189 225.179 13.4468C222.854 13.4468 220.53 13.4468 218.162 13.4468C218.162 12.9443 218.162 12.5483 218.162 12.0306C220.501 12.0306 222.811 12.0306 225.179 12.0306C225.208 11.4976 225.237 11.0559 225.265 10.5838C225.554 10.5991 225.814 10.6143 226.262 10.6295C225.886 10.3706 225.655 10.2031 225.468 10.0661C226.117 8.863 226.767 7.67516 227.431 6.50256C227.489 6.39595 227.72 6.30458 227.835 6.33504C228.341 6.44164 228.846 6.60916 229.438 6.76144C229.149 7.08125 228.933 7.3249 228.557 7.75131C230.478 7.75131 232.196 7.75131 233.957 7.75131C233.957 8.25385 233.957 8.66503 233.957 9.15235C233.062 9.15235 232.181 9.15235 231.2 9.15235C231.445 9.85287 231.647 10.4468 231.878 11.1168C231.387 11.2387 230.954 11.3453 230.478 11.4671C230.232 10.8427 230.016 10.264 229.77 9.70058C229.525 9.13712 228.139 8.92392 227.705 9.35032C227.085 9.9747 226.998 10.8275 226.868 11.6346C226.854 11.7108 227.272 11.9697 227.489 11.9849C229.409 12.0153 231.329 12.0001 233.264 12.0001C233.524 12.0001 233.784 12.0306 234.073 12.0458C234.073 12.5027 234.073 12.8986 234.073 13.3859C231.69 13.3859 229.337 13.3859 226.897 13.3859C226.897 13.858 226.897 14.254 226.897 14.7413C228.875 14.7413 230.853 14.7413 232.99 14.7413C232.932 16.0509 232.961 17.2845 232.802 18.5028C232.687 19.4165 231.82 19.4926 231.055 19.8733C232.152 20.4368 233.25 20.985 234.434 21.579C233.928 22.0815 233.409 22.5841 232.889 23.1018ZM230.016 19.2794C230.088 19.2185 230.16 19.1576 230.218 19.0967C230.131 18.7769 230.044 18.4571 229.958 18.1373C231.459 17.7718 231.56 17.6347 231.272 16.3251C230.03 16.3251 228.788 16.3251 227.474 16.3251C228.355 17.3606 229.193 18.32 230.016 19.2794Z"
      fill="#130F6C"
    />
    <path
      d="M244.28 11.8325C243.905 12.2437 243.674 12.5026 243.414 12.792C242.923 12.5026 242.447 12.2285 242.042 12.0001C243.284 10.1269 244.511 8.28426 245.84 6.28931C246.201 6.42636 246.749 6.62434 247.356 6.83754C246.937 7.5076 246.576 8.11675 246.1 8.87818C247.081 8.87818 247.904 8.90864 248.727 8.86295C248.872 8.84773 249.045 8.58884 249.146 8.40609C249.507 7.7208 249.854 7.03551 250.229 6.28931C250.763 6.57865 251.254 6.85277 251.759 7.14211C251.37 7.7208 251.038 8.23858 250.604 8.87818C251.933 8.87818 253.102 8.87818 254.329 8.87818C254.329 9.41119 254.329 9.85282 254.329 10.3858C253.001 10.3858 251.702 10.3858 250.344 10.3858C250.344 10.9797 250.344 11.4975 250.344 12.1067C251.5 12.1067 252.64 12.1067 253.839 12.1067C253.839 12.6092 253.839 13.0356 253.839 13.5229C252.712 13.5229 251.572 13.5229 250.373 13.5229C250.373 14.1321 250.373 14.6651 250.373 15.3047C251.528 15.3047 252.669 15.3047 253.853 15.3047C253.853 15.8072 253.853 16.2336 253.853 16.721C252.712 16.721 251.572 16.721 250.373 16.721C250.373 17.3149 250.373 17.8327 250.373 18.4418C251.702 18.4418 253.059 18.4418 254.459 18.4418C254.459 18.9748 254.459 19.4164 254.459 19.9799C251.615 19.9799 248.771 19.9799 245.912 19.9799C245.883 20.4215 245.854 20.7413 245.825 21.1068C245.334 21.1068 244.872 21.1068 244.295 21.1068C244.28 18.0763 244.28 15.0458 244.28 11.8325ZM248.67 15.2285C248.67 14.6346 248.67 14.1169 248.67 13.5991C247.717 13.5991 246.822 13.5991 245.883 13.5991C245.883 14.1625 245.883 14.6651 245.883 15.2285C246.822 15.2285 247.717 15.2285 248.67 15.2285ZM245.883 12.0305C246.85 12.0305 247.76 12.0305 248.67 12.0305C248.67 11.4518 248.67 10.9341 248.67 10.4163C247.717 10.4163 246.822 10.4163 245.883 10.4163C245.883 10.9645 245.883 11.4518 245.883 12.0305ZM248.684 16.7971C247.717 16.7971 246.793 16.7971 245.897 16.7971C245.897 17.3758 245.897 17.8936 245.897 18.4113C246.85 18.4113 247.746 18.4113 248.684 18.4113C248.684 17.8631 248.684 17.3606 248.684 16.7971Z"
      fill="#130F6C"
    />
    <path
      d="M191.826 8.17773C191.826 8.60414 191.826 8.96963 191.826 9.35034C191.826 9.50263 191.797 9.63969 191.768 9.88335C189.862 9.88335 187.971 9.88335 186.036 9.88335C186.036 13.325 186.036 16.6753 186.036 20.117C188.303 20.117 190.541 20.117 192.822 20.117C192.822 20.7414 192.822 21.2592 192.822 21.8531C187.682 21.8531 182.528 21.8531 177.33 21.8531C177.33 21.3049 177.33 20.7719 177.33 20.1627C179.611 20.1627 181.864 20.1627 184.174 20.1627C184.174 16.7363 184.174 13.3555 184.174 9.89858C182.239 9.89858 180.304 9.89858 178.341 9.89858C178.341 9.28943 178.341 8.75642 178.341 8.19296C182.802 8.17773 187.264 8.17773 191.826 8.17773Z"
      fill="#130F6C"
    />
    <path
      d="M171.338 20.9851C171.57 20.178 171.801 19.3709 172.032 18.5638C173.23 19.1729 173.389 19.508 172.97 20.8024C172.725 21.5334 172.45 22.2796 172.089 22.9344C171.598 23.8025 170.934 23.8634 170.4 23.0106C169.895 22.2034 169.375 21.2897 169.274 20.3608C168.999 18.046 168.927 15.7008 168.841 13.3556C168.783 11.8784 168.826 10.4012 168.826 8.86311C168.249 8.86311 167.628 8.86311 166.964 8.86311C166.964 10.5078 166.964 12.1525 166.964 13.8429C167.397 13.8581 167.816 13.8886 168.278 13.9038C168.278 14.3911 168.278 14.8328 168.278 15.3353C167.844 15.3658 167.426 15.381 166.92 15.4114C166.92 18.1069 166.92 20.7719 166.92 23.4674C166.372 23.4674 165.895 23.4674 165.332 23.4674C165.332 20.7872 165.332 18.1222 165.332 15.3962C164.581 15.3962 163.917 15.3962 163.195 15.3962C163.195 14.8632 163.195 14.4064 163.195 13.8886C163.888 13.8886 164.553 13.8886 165.274 13.8886C165.274 12.1982 165.274 10.5687 165.274 8.86311C164.711 8.83265 164.119 8.80219 163.513 8.77174C163.513 8.28442 163.513 7.84279 163.513 7.35547C165.866 7.35547 168.191 7.35547 170.53 7.35547C170.674 11.9088 169.808 16.4927 171.006 20.9851C171.107 20.9851 171.223 20.9851 171.338 20.9851Z"
      fill="#130F6C"
    />
    <path
      d="M54.5039 18.9596C54.5039 14.8936 54.5039 10.8884 54.5039 6.80713C56.8718 6.80713 59.2397 6.80713 61.6364 6.80713C61.6364 10.8275 61.6364 14.8631 61.6364 18.9596C59.2974 18.9596 56.944 18.9596 54.5039 18.9596ZM56.0632 17.452C57.4349 17.452 58.7343 17.452 60.0626 17.452C60.0626 16.7515 60.0626 16.1119 60.0626 15.4418C58.7054 15.4418 57.406 15.4418 56.0632 15.4418C56.0632 16.1271 56.0632 16.7515 56.0632 17.452ZM56.0777 13.8428C57.4638 13.8428 58.7632 13.8428 60.0626 13.8428C60.0626 13.1118 60.0626 12.4417 60.0626 11.7717C58.7054 11.7717 57.406 11.7717 56.0777 11.7717C56.0777 12.4874 56.0777 13.1575 56.0777 13.8428ZM60.0771 10.2336C60.0771 9.56352 60.0771 8.98483 60.0771 8.36046C58.7343 8.36046 57.4204 8.36046 56.0921 8.36046C56.0921 9.01529 56.0921 9.62444 56.0921 10.2336C57.4493 10.2336 58.7343 10.2336 60.0771 10.2336Z"
      fill="#130F6C"
    />
    <path
      d="M63.9753 21.9293C64.7694 21.9293 65.4624 21.9445 66.1555 21.9293C66.7186 21.9141 67.1084 21.6095 67.1084 21.0156C67.1373 18.5942 67.1228 16.1881 67.1228 13.5687C66.4731 14.9698 65.9822 16.2338 65.3469 17.4064C64.6972 18.6094 63.8887 19.7059 63.109 20.909C62.5748 20.4217 62.1272 19.9952 61.6074 19.5232C63.7732 17.2084 65.3902 14.5738 66.372 11.3606C64.9427 11.3606 63.571 11.3606 62.1705 11.3606C62.1705 10.7514 62.1705 10.2489 62.1705 9.68543C63.802 9.68543 65.4047 9.68543 67.1228 9.68543C67.1228 8.52805 67.1228 7.43158 67.1228 6.22852C67.8881 6.31989 68.5234 6.39603 68.9854 6.45695C68.8699 7.58387 68.7832 8.5585 68.6677 9.65497C69.2886 9.65497 69.7795 9.65497 70.2993 9.65497C70.2993 10.2489 70.2993 10.7362 70.2993 11.2997C69.7939 11.3301 69.303 11.3606 68.7544 11.391C68.7544 12.1677 68.7544 12.8987 68.7544 13.6297C68.7544 16.1728 68.7544 18.7313 68.7544 21.2745C68.7544 22.5689 68.2923 23.1933 67.094 23.4369C66.3865 23.574 65.6646 23.6197 64.9571 23.6654C64.8127 23.6654 64.5817 23.4826 64.4951 23.3151C64.3074 22.9039 64.1774 22.4775 63.9753 21.9293Z"
      fill="#130F6C"
    />
    <path
      d="M122.811 6.31982C123.519 6.36551 124.11 6.4112 124.702 6.45688C125.092 6.48734 125.092 6.70054 124.962 7.03557C124.818 7.41629 124.702 7.81224 124.659 8.22341C124.573 9.3351 124.486 10.4316 124.486 11.5433C124.486 12.122 124.544 12.7616 124.731 13.2946C126.002 16.6753 128.269 19.2033 131.012 21.2896C131.301 21.5181 131.59 21.7313 131.994 22.0358C131.286 22.5079 130.637 22.9496 129.929 23.4064C127.446 21.0003 125.179 18.4723 123.793 15.0459C122.638 18.3809 120.458 20.65 117.888 22.5536C116.805 23.3607 116.805 23.3455 115.837 22.4318C115.679 22.2795 115.52 22.1272 115.231 21.8379C121.454 18.6551 123.547 13.2793 122.811 6.31982Z"
      fill="#130F6C"
    />
    <path
      d="M260.451 17.0408C260.451 15.259 260.451 13.6143 260.451 11.9087C264.84 11.9087 269.215 11.9087 273.633 11.9087C273.633 13.5838 273.633 15.259 273.633 16.9951C273.07 16.8276 272.392 17.4367 272.002 16.5534C271.958 16.4773 271.684 16.4925 271.525 16.4925C268.551 16.4925 265.562 16.4773 262.588 16.5078C262.371 16.5078 262.184 16.8276 261.953 16.8732C261.476 16.9798 260.985 16.9951 260.451 17.0408ZM272.074 15.0763C272.074 14.4519 272.074 13.858 272.074 13.264C270.587 13.264 269.129 13.264 267.656 13.264C267.656 13.9037 267.656 14.4976 267.656 15.0458C269.172 15.594 269.071 13.9798 269.793 13.3706C270.197 13.5991 270.601 13.8275 271.02 14.0712C270.775 14.4367 270.587 14.7108 270.341 15.0763C270.977 15.0763 271.511 15.0763 272.074 15.0763ZM266.154 13.2793C264.739 13.2793 263.397 13.2793 262.039 13.2793C262.039 13.9189 262.039 14.5128 262.039 15.1067C262.574 15.1067 263.05 15.1067 263.613 15.1067C263.425 14.5889 263.252 14.1321 263.093 13.6752C264.364 13.325 264.364 13.325 264.739 14.3605C265.071 15.2742 265.129 15.2895 266.14 15.0001C266.154 14.4519 266.154 13.9036 266.154 13.2793Z"
      fill="#130F6C"
    />
    <path
      d="M261.953 17.5435C265.375 17.5435 268.753 17.5435 272.204 17.5435C272.204 19.5232 272.204 21.5029 272.204 23.5588C271.641 23.437 270.962 23.9547 270.529 23.1324C270.486 23.0562 270.255 23.0715 270.11 23.0715C268.118 23.0715 266.125 23.0562 264.133 23.0867C263.945 23.0867 263.757 23.3151 263.57 23.437C263.469 23.5131 263.368 23.6502 263.267 23.6654C262.848 23.6958 262.415 23.6806 261.953 23.6806C261.953 21.5943 261.953 19.6146 261.953 17.5435ZM270.616 18.777C268.248 18.777 265.938 18.777 263.613 18.777C263.613 19.112 263.613 19.4014 263.613 19.7212C265.966 19.7212 268.277 19.7212 270.616 19.7212C270.616 19.4014 270.616 19.1272 270.616 18.777ZM263.599 21.8227C265.966 21.8227 268.262 21.8227 270.616 21.8227C270.616 21.5181 270.616 21.244 270.616 20.9547C268.262 20.9547 265.952 20.9547 263.599 20.9547C263.599 21.244 263.599 21.5029 263.599 21.8227Z"
      fill="#130F6C"
    />
    <path
      d="M104.59 6.25903C105.298 6.31995 105.904 6.38086 106.366 6.42655C106.308 7.50779 106.265 8.48242 106.207 9.56366C107.579 9.56366 108.835 9.56366 110.163 9.56366C110.163 10.1119 110.163 10.5688 110.163 11.1018C108.907 11.1018 107.637 11.1018 106.308 11.1018C106.308 12.1525 106.308 13.1576 106.308 14.2693C107.911 14.2693 109.528 14.2693 111.188 14.2693C111.188 14.8328 111.188 15.2592 111.188 15.7617C107.348 15.7617 103.551 15.7617 99.6812 15.7617C99.6812 15.3049 99.6812 14.8632 99.6812 14.315C101.298 14.315 102.915 14.315 104.561 14.315C104.561 13.2185 104.561 12.2439 104.561 11.1931C103.32 11.1931 102.049 11.1931 100.735 11.1931C100.735 10.6449 100.735 10.188 100.735 9.62457C101.977 9.62457 103.233 9.62457 104.59 9.62457C104.59 8.45196 104.59 7.41641 104.59 6.25903Z"
      fill="#130F6C"
    />
    <path
      d="M254.965 21.655C254.806 22.2033 254.676 22.721 254.488 23.2084C254.43 23.3454 254.228 23.5129 254.084 23.5129C250.821 23.452 247.558 23.4063 244.295 23.254C243.067 23.1931 241.985 22.5992 241.118 21.4875C240.44 22.1728 239.776 22.8276 239.068 23.5434C238.693 23.0104 238.332 22.5078 237.942 21.9596C238.635 21.5027 239.314 21.0459 239.992 20.6042C240.353 20.3758 240.512 20.0865 240.497 19.6296C240.469 18.6093 240.483 17.5737 240.483 16.5077C240.021 16.4773 239.66 16.4468 239.241 16.4164C239.241 15.9443 239.241 15.5026 239.241 14.9849C240.18 14.9849 241.133 14.9849 242.201 14.9849C242.201 15.6245 242.201 16.2945 242.201 16.9646C242.201 17.8935 242.245 18.8377 242.187 19.7667C242.143 20.4672 242.432 20.9393 242.981 21.1373C243.761 21.4266 244.598 21.7312 245.406 21.7464C248.208 21.7921 251.023 21.7007 253.824 21.6703C254.185 21.655 254.546 21.655 254.965 21.655Z"
      fill="#130F6C"
    />
    <path
      d="M107.925 17.3302C109.153 19.112 110.337 20.8176 111.549 22.5841C110.972 23.0105 110.495 23.3455 110.019 23.6806C109.932 23.5587 109.86 23.4978 109.817 23.4064C108.965 21.8379 108.965 21.8379 107.261 22.0663C105.399 22.3252 103.551 22.5689 101.688 22.843C101.298 22.9039 100.937 23.0866 100.432 23.2542C100.288 22.6146 100.129 21.9293 99.9844 21.244C100.057 21.2135 100.1 21.1678 100.143 21.1678C101.472 21.3201 102.208 20.5282 102.757 19.4013C103.247 18.3962 103.782 17.4063 104.33 16.3403C104.792 16.5078 105.298 16.6906 105.832 16.8733C105.139 18.2135 104.504 19.4622 103.811 20.8176C105.254 20.6653 106.583 20.5282 108.099 20.3607C107.593 19.6602 107.16 19.051 106.698 18.381C107.059 18.0764 107.406 17.7718 107.925 17.3302Z"
      fill="#130F6C"
    />
    <path
      d="M158.301 22.7058C158.257 22.9647 158.214 23.1627 158.185 23.3759C157.709 23.3759 157.232 23.3759 156.712 23.3759C156.712 21.2895 156.712 19.2032 156.712 17.0864C158.647 17.0864 160.553 17.0864 162.502 17.0864C162.502 19.188 162.502 21.2439 162.502 23.3606C162.011 23.3606 161.535 23.3606 161.015 23.3606C161.058 22.7363 160.683 22.6601 160.192 22.6906C159.586 22.7363 158.979 22.7058 158.301 22.7058ZM158.257 21.122C159.167 21.122 160.019 21.122 160.885 21.122C160.885 20.2692 160.885 19.4469 160.885 18.6398C159.975 18.6398 159.124 18.6398 158.257 18.6398C158.257 19.4773 158.257 20.254 158.257 21.122Z"
      fill="#130F6C"
    />
    <path
      d="M270.24 9.792C269.244 9.1524 268.248 8.49756 267.223 7.88842C267.078 7.81227 266.775 7.9341 266.587 8.0407C264.797 9.18285 262.906 10.0813 260.928 10.7971C259.614 11.2692 259.527 11.254 258.603 9.98998C259.339 9.74632 260.076 9.53312 260.783 9.27423C262.848 8.54325 264.768 7.5077 266.559 6.21326C267.28 5.69549 268.248 6.0762 268.508 6.94424C268.551 7.09652 268.782 7.20313 268.941 7.2945C270.746 8.28436 272.666 8.89351 274.658 9.31991C274.889 9.3656 275.12 9.42651 275.467 9.50266C275.106 10.0204 274.817 10.5078 274.471 10.9342C274.384 11.0408 274.081 11.056 273.908 11.0103C272.926 10.6905 271.944 10.325 270.962 9.98998C270.717 9.8986 270.457 9.85292 270.211 9.77677L270.24 9.792Z"
      fill="#130F6C"
    />
    <path
      d="M177.373 34.1274C177.951 32.4218 178.485 30.8685 179.019 29.2999C179.496 27.9141 179.539 27.8837 181.026 28.1883C181.026 30.5944 181.026 33.0005 181.026 35.4523C180.752 35.4523 180.507 35.4523 180.16 35.4523C180.16 33.3965 180.16 31.3406 180.16 29.2847C180.102 29.2695 180.03 29.2543 179.972 29.2238C179.886 29.437 179.799 29.6502 179.727 29.8482C179.149 31.4776 178.572 33.1071 177.994 34.7366C177.864 35.1021 177.835 35.498 177.272 35.5132C176.709 35.5285 176.666 35.1478 176.536 34.767C175.915 32.9548 175.294 31.1274 174.529 29.3304C174.529 31.3406 174.529 33.366 174.529 35.4371C174.168 35.4371 173.894 35.4371 173.576 35.4371C173.576 33.031 173.576 30.6096 173.576 28.0664C174.053 28.0664 174.558 28.0207 175.034 28.0969C175.208 28.1273 175.424 28.4319 175.496 28.6451C176.016 30.1375 176.493 31.6452 176.998 33.1376C177.114 33.4421 177.229 33.7163 177.373 34.1274Z"
      fill="#130F6C"
    />
    <path
      d="M214.176 33.8838C214.176 31.9802 214.176 30.0918 214.176 28.1426C214.523 28.1426 214.768 28.1426 215.043 28.1426C215.043 30.5792 215.043 33.0005 215.043 35.4066C213.917 35.6655 213.888 35.6503 213.31 34.6452C212.314 32.9244 211.318 31.2035 210.191 29.5131C210.191 31.4776 210.191 33.4421 210.191 35.4523C209.874 35.4523 209.643 35.4523 209.354 35.4523C209.354 33.0157 209.354 30.5944 209.354 28.173C210.567 27.9294 210.581 27.9294 211.159 28.9497C212.112 30.6096 213.065 32.2543 214.018 33.9142C214.075 33.9142 214.133 33.899 214.176 33.8838Z"
      fill="#130F6C"
    />
    <path
      d="M62.9501 35.4371C62.1416 35.6656 61.6362 35.4676 61.2175 34.6757C60.279 32.9092 59.2395 31.2188 58.1277 29.3C58.1277 31.4929 58.1277 33.4574 58.1277 35.4676C57.8101 35.4828 57.5791 35.4981 57.2759 35.5285C57.2759 33.0615 57.2759 30.6249 57.2759 28.2035C58.4165 27.9294 58.4887 27.9599 59.0662 28.9497C60.0192 30.6097 60.9721 32.2543 62.0694 33.8838C62.0694 31.9955 62.0694 30.1071 62.0694 28.1274C62.4159 28.1121 62.6614 28.0969 62.9501 28.0817C62.9501 30.564 62.9501 32.9853 62.9501 35.4371Z"
      fill="#130F6C"
    />
    <path
      d="M230.246 35.4218C229.409 35.696 228.918 35.4371 228.514 34.6604C227.575 32.9091 226.536 31.2035 225.41 29.5131C225.41 31.4776 225.41 33.4421 225.41 35.4523C225.063 35.4523 224.818 35.4523 224.529 35.4523C224.529 33.0309 224.529 30.6096 224.529 28.2034C225.698 27.8989 225.785 27.9446 226.391 28.9801C227.33 30.6096 228.268 32.2543 229.366 33.8685C229.366 31.9802 229.366 30.0918 229.366 28.1425C229.712 28.1425 229.958 28.1425 230.261 28.1425C230.246 30.5639 230.246 32.9852 230.246 35.4218Z"
      fill="#130F6C"
    />
    <path
      d="M148.295 34.097C148.295 31.9802 148.295 30.0766 148.295 28.1274C148.598 28.1121 148.829 28.0969 149.118 28.0817C149.118 30.5487 149.118 32.9853 149.118 35.4219C148.367 35.6503 147.876 35.4828 147.457 34.7214C146.504 32.9549 145.465 31.234 144.295 29.5132C144.295 31.4777 144.295 33.4422 144.295 35.4524C143.963 35.4676 143.732 35.4828 143.443 35.5133C143.443 33.0462 143.443 30.6096 143.443 28.1883C144.627 27.9294 144.685 27.9446 145.291 28.9802C146.129 30.4269 146.952 31.8736 147.789 33.3204C147.919 33.5183 148.049 33.7163 148.295 34.097Z"
      fill="#130F6C"
    />
    <path
      d="M262.834 28.1424C264.018 28.1424 265.144 28.0967 266.256 28.1577C267.035 28.2033 267.598 28.782 267.743 29.4978C267.945 30.381 267.613 31.0816 266.689 31.7212C268.017 32.6349 267.339 34.2339 267.988 35.4065C266.905 35.6349 266.905 35.6349 266.747 34.6603C266.674 34.1882 266.602 33.7161 266.544 33.244C266.443 32.5131 266.039 32.1933 265.36 32.1933C264.855 32.1933 264.35 32.1933 263.772 32.1933C263.772 33.3049 263.772 34.3557 263.772 35.4674C263.426 35.4674 263.151 35.4674 262.819 35.4674C262.834 33.0308 262.834 30.6247 262.834 28.1424ZM263.772 31.3252C264.537 31.2795 265.216 31.2795 265.909 31.2034C266.472 31.1425 266.732 30.7161 266.761 30.1526C266.79 29.5891 266.53 29.1171 265.996 29.0257C265.274 28.9039 264.537 28.9343 263.772 28.8886C263.772 29.7567 263.772 30.4572 263.772 31.3252Z"
      fill="#130F6C"
    />
    <path
      d="M166.285 28.1578C167.497 28.1578 168.667 28.0969 169.822 28.1883C170.53 28.2492 171.049 28.7365 171.208 29.5284C171.396 30.4421 171.107 31.0361 170.169 31.7213C171.454 32.6503 170.847 34.2188 171.439 35.4067C170.356 35.6047 170.356 35.5894 170.212 34.63C170.14 34.1275 170.067 33.6402 169.995 33.1376C169.894 32.4828 169.519 32.1782 168.898 32.1782C168.378 32.1782 167.844 32.1782 167.252 32.1782C167.252 33.3051 167.252 34.3407 167.252 35.4524C166.891 35.4524 166.631 35.4524 166.285 35.4524C166.285 33.0462 166.285 30.6401 166.285 28.1578ZM167.238 31.3406C168.017 31.2949 168.71 31.2797 169.403 31.2036C169.966 31.1274 170.212 30.701 170.226 30.1376C170.241 29.5741 169.995 29.1172 169.447 29.0411C168.725 28.9345 167.988 28.9497 167.252 28.904C167.238 29.7721 167.238 30.4878 167.238 31.3406Z"
      fill="#130F6C"
    />
    <path
      d="M232.816 28.1577C234.029 28.1577 235.141 28.1577 236.238 28.1577C236.383 28.1577 236.513 28.2339 236.657 28.2795C238.029 28.7516 238.779 30.3506 238.621 32.4217C238.491 34.1121 237.552 35.2695 236.094 35.4218C235.17 35.5132 234.217 35.4979 233.293 35.4827C233.134 35.4827 232.86 35.2238 232.86 35.0868C232.816 32.8025 232.816 30.5029 232.816 28.1577ZM233.755 34.6299C234.405 34.6299 234.953 34.6756 235.502 34.6147C236.628 34.5081 237.321 33.8532 237.48 32.6806C237.567 32.0867 237.552 31.4623 237.451 30.8837C237.235 29.6044 236.57 29.0258 235.329 28.9191C233.755 28.7973 233.755 28.7973 233.755 30.442C233.755 31.8278 233.755 33.2136 233.755 34.6299Z"
      fill="#130F6C"
    />
    <path
      d="M130.218 35.4827C129.828 35.4827 129.583 35.4827 129.265 35.4827C129.265 33.0461 129.265 30.64 129.265 28.0359C130.521 28.112 131.792 28.112 133.034 28.2795C133.698 28.3709 134.102 28.9192 134.189 29.6654C134.29 30.6095 133.958 31.2796 133.106 31.706C134.448 32.635 133.813 34.234 134.448 35.4827C134.015 35.4827 133.712 35.4827 133.337 35.4827C133.236 34.8279 133.12 34.2035 133.034 33.5487C132.889 32.4674 132.629 32.2085 131.604 32.1933C131.171 32.1933 130.752 32.1933 130.247 32.1933C130.218 33.2898 130.218 34.3406 130.218 35.4827ZM130.146 31.2339C130.911 31.2339 131.575 31.2796 132.239 31.2187C132.817 31.173 133.149 30.7923 133.149 30.1679C133.163 29.5131 132.889 29.0867 132.254 29.0105C131.691 28.9496 131.099 28.9344 130.536 28.9496C130.406 28.9496 130.175 29.1933 130.16 29.3456C130.131 29.9699 130.146 30.5943 130.146 31.2339Z"
      fill="#130F6C"
    />
    <path
      d="M224.442 11.1168C224.023 11.2234 223.735 11.3605 223.431 11.3605C223.229 11.3605 222.969 11.2082 222.868 11.0407C222.652 10.6599 222.551 10.1879 222.32 9.80714C222.161 9.54825 221.901 9.28936 221.641 9.19799C221.237 9.06093 220.876 9.21322 220.645 9.68531C220.385 10.1879 219.995 10.6295 219.721 11.1168C219.432 11.6194 219.129 11.6955 218.681 11.3605C218.45 11.1929 218.176 11.0711 218.046 11.0102C218.854 9.51779 219.649 8.02538 220.472 6.56343C220.544 6.4416 220.731 6.30454 220.832 6.31977C221.367 6.42637 221.886 6.59388 222.478 6.7614C222.19 7.09643 221.973 7.32486 221.612 7.73604C222.984 7.73604 224.168 7.73604 225.395 7.73604C225.395 8.25381 225.395 8.66499 225.395 9.1523C224.861 9.1523 224.341 9.1523 223.72 9.1523C223.98 9.83759 224.197 10.4315 224.442 11.1168Z"
      fill="#130F6C"
    />
    <path
      d="M189.718 35.4218C189.068 35.635 188.664 35.5284 188.419 34.8126C187.971 33.5486 187.942 33.5639 186.643 33.5639C186.527 33.5639 186.397 33.5791 186.282 33.5639C185.083 33.3354 184.26 33.7009 184 35.0715C183.87 35.7416 183.351 35.4675 182.889 35.4979C182.946 35.2847 182.975 35.1172 183.033 34.9649C183.885 32.8634 184.751 30.7466 185.589 28.645C185.747 28.2338 185.964 28.0815 186.397 28.0815C186.801 28.0815 186.975 28.2491 187.119 28.6298C187.913 30.7161 188.736 32.772 189.545 34.8583C189.617 35.0258 189.66 35.2086 189.718 35.4218ZM187.61 32.6806C187.177 31.4928 186.787 30.3963 186.311 29.1171C185.82 30.4268 185.401 31.508 184.953 32.6806C185.863 32.6806 186.657 32.6806 187.61 32.6806Z"
      fill="#130F6C"
    />
    <path
      d="M104.446 35.4523C104.446 32.9853 104.446 30.5944 104.446 28.1426C105.919 28.1426 107.362 28.1426 108.849 28.1426C108.849 28.3862 108.849 28.5994 108.849 28.9192C107.723 28.9192 106.597 28.9192 105.456 28.9192C105.456 29.7416 105.456 30.4573 105.456 31.2492C106.539 31.2492 107.593 31.2492 108.676 31.2492C108.705 31.5386 108.72 31.7518 108.748 32.0716C107.637 32.0716 106.583 32.0716 105.456 32.0716C105.456 32.9396 105.456 33.7163 105.456 34.5843C106.597 34.5843 107.738 34.5843 108.936 34.5843C108.951 34.9193 108.965 35.1478 108.979 35.4523C107.463 35.4523 105.991 35.4523 104.446 35.4523Z"
      fill="#130F6C"
    />
    <path
      d="M272.233 31.6909C272.854 30.6401 273.446 29.7568 273.922 28.7974C274.254 28.1426 274.673 27.9446 275.424 28.1578C275.178 28.569 274.947 28.9497 274.716 29.3457C274.601 29.5436 274.485 29.7264 274.37 29.9243C273.258 31.5538 272.132 33.1833 272.839 35.4524C272.377 35.4524 272.103 35.4524 271.699 35.4524C271.699 34.7366 271.742 33.9904 271.684 33.2442C271.655 32.833 271.554 32.4066 271.352 32.0564C270.587 30.7467 269.778 29.4827 268.97 28.1883C269.778 27.9142 270.255 28.1426 270.616 28.8583C271.063 29.8025 271.626 30.6706 272.233 31.6909Z"
      fill="#130F6C"
    />
    <path
      d="M151.803 35.4371C151.803 32.9853 151.803 30.5944 151.803 28.1426C153.204 28.1426 154.59 28.1426 156.019 28.1426C156.019 28.371 156.019 28.5994 156.019 28.9192C154.965 28.9192 153.926 28.9192 152.828 28.9192C152.828 29.7264 152.828 30.4421 152.828 31.234C153.825 31.234 154.806 31.234 155.832 31.234C155.832 31.5386 155.832 31.767 155.832 32.1173C154.821 32.1173 153.825 32.1173 152.785 32.1173C152.785 33.2746 152.785 34.3254 152.785 35.4371C152.41 35.4371 152.106 35.4371 151.803 35.4371Z"
      fill="#130F6C"
    />
    <path
      d="M114.769 28.1272C116.184 28.1272 117.541 28.1272 118.956 28.1272C118.971 28.3709 118.985 28.5841 118.999 28.8277C118.87 28.8734 118.783 28.9191 118.696 28.9191C117.902 28.9343 117.108 28.9495 116.314 28.9343C115.895 28.9191 115.693 29.0409 115.708 29.5282C115.751 31.7059 115.448 31.2338 117.296 31.2795C117.772 31.2948 118.249 31.2795 118.783 31.2795C118.783 31.5689 118.783 31.7973 118.783 32.1171C117.945 32.1171 117.137 32.1323 116.328 32.1019C115.852 32.0867 115.693 32.2694 115.708 32.7567C115.736 33.64 115.722 34.508 115.722 35.4522C115.375 35.4522 115.101 35.4522 114.769 35.4522C114.769 33.0308 114.769 30.6247 114.769 28.1272Z"
      fill="#130F6C"
    />
    <path
      d="M257.838 35.4523C257.838 33.2899 257.838 31.1731 257.838 28.9192C257.202 28.9192 256.61 28.904 256.033 28.9192C255.528 28.9497 255.297 28.767 255.484 28.1426C257.361 28.1426 259.253 28.1426 261.202 28.1426C261.202 28.371 261.202 28.5842 261.202 28.904C260.422 28.904 259.671 28.904 258.834 28.904C258.834 31.1274 258.834 33.2594 258.834 35.4523C258.487 35.4523 258.213 35.4523 257.838 35.4523Z"
      fill="#130F6C"
    />
    <path
      d="M100.547 35.4675C100.172 35.4675 99.8831 35.4675 99.5511 35.4675C99.5511 33.305 99.5511 31.1578 99.5511 28.9192C98.8436 28.9192 98.1939 28.9496 97.5586 28.9039C97.4286 28.8887 97.2409 28.6603 97.1976 28.508C97.1687 28.4014 97.3709 28.1121 97.4719 28.1121C99.2623 28.0816 101.053 28.0968 102.886 28.0968C102.886 28.4014 102.886 28.6146 102.886 28.9344C102.092 28.9344 101.341 28.9344 100.533 28.9344C100.547 31.1578 100.547 33.2593 100.547 35.4675Z"
      fill="#130F6C"
    />
    <path
      d="M74.3274 28.9192C73.6199 28.9192 73.0568 28.9345 72.4793 28.9192C71.9018 28.904 71.9018 28.8888 71.9884 28.1426C73.8654 28.1426 75.7423 28.1426 77.6626 28.1426C77.6626 28.3862 77.6626 28.5994 77.6626 28.9345C76.883 28.9345 76.1033 28.9345 75.2803 28.9345C75.2803 31.1579 75.2803 33.2746 75.2803 35.4523C74.9627 35.4523 74.6883 35.4523 74.3274 35.4523C74.3274 33.3203 74.3274 31.1883 74.3274 28.9192Z"
      fill="#130F6C"
    />
    <path
      d="M193.429 35.4676C193.068 35.4676 192.808 35.4676 192.462 35.4676C192.447 35.224 192.418 34.9498 192.404 34.691C192.404 33.0006 192.389 31.3102 192.404 29.6198C192.418 29.0868 192.231 28.9041 191.74 28.9345C191.191 28.965 190.642 28.9497 190.05 28.9497C190.036 28.6756 190.007 28.4472 189.993 28.2188C190.108 28.1731 190.195 28.1274 190.281 28.1274C191.942 28.1122 193.602 28.1122 195.263 28.1274C195.436 28.1274 195.609 28.3863 195.782 28.5233C195.609 28.6604 195.45 28.9041 195.263 28.9193C194.671 28.965 194.079 28.9345 193.415 28.9345C193.429 31.1427 193.429 33.2595 193.429 35.4676Z"
      fill="#130F6C"
    />
    <path
      d="M98.6706 16.9189C98.8727 17.1626 99.1471 17.4063 99.277 17.7108C99.3925 17.9545 99.4503 18.3504 99.3348 18.5484C98.6562 19.7667 97.9198 20.9393 97.1979 22.1424C96.9236 22.5992 96.6492 23.0713 96.3027 23.6653C95.8407 23.2541 95.3787 22.8581 94.96 22.4774C96.2017 20.6195 97.4289 18.7921 98.6706 16.9189Z"
      fill="#130F6C"
    />
    <path
      d="M162.964 10.7818C160.726 10.7818 158.546 10.7818 156.322 10.7818C156.322 10.3097 156.322 9.86812 156.322 9.35034C158.531 9.35034 160.711 9.35034 162.964 9.35034C162.964 9.8072 162.964 10.2641 162.964 10.7818Z"
      fill="#130F6C"
    />
    <path
      d="M85.4162 35.4675C85.0697 35.4675 84.8387 35.4675 84.5211 35.4675C84.5066 35.1934 84.4777 34.9345 84.4777 34.6604C84.4777 33.0005 84.4489 31.3253 84.4922 29.6654C84.5066 29.0562 84.3045 28.8583 83.7414 28.904C83.2216 28.9496 82.6874 28.9192 82.1099 28.9192C82.1099 28.6298 82.1099 28.4014 82.1099 28.1121C84.0013 28.1121 85.8638 28.1121 87.7697 28.1121C87.7841 28.3405 87.813 28.5537 87.8419 28.9192C87.5098 28.9192 87.2355 28.9192 86.9611 28.9192C85.4162 28.9192 85.4162 28.9192 85.4162 30.5487C85.4162 32.1629 85.4162 33.7771 85.4162 35.4675Z"
      fill="#130F6C"
    />
    <path
      d="M157.03 13.3097C157.03 12.8376 157.03 12.4264 157.03 11.9543C158.777 11.9543 160.495 11.9543 162.256 11.9543C162.256 12.396 162.256 12.8224 162.256 13.3097C160.538 13.3097 158.82 13.3097 157.03 13.3097Z"
      fill="#130F6C"
    />
    <path
      d="M270.226 9.77686C270.226 10.1271 270.226 10.4774 270.226 10.8733C268.089 10.8733 265.981 10.8733 263.801 10.8733C263.801 10.5383 263.801 10.1728 263.801 9.79209C265.952 9.79209 268.103 9.79209 270.24 9.79209L270.226 9.77686Z"
      fill="#130F6C"
    />
    <path
      d="M157.189 6.77661C158.82 6.77661 160.409 6.77661 162.04 6.77661C162.04 7.26393 162.04 7.72079 162.04 8.23857C160.438 8.23857 158.835 8.23857 157.189 8.23857C157.189 7.7817 157.189 7.30962 157.189 6.77661Z"
      fill="#130F6C"
    />
    <path
      d="M140.859 35.4827C140.542 35.4827 140.282 35.4827 139.979 35.4827C139.979 33.0461 139.979 30.6248 139.979 28.1577C140.267 28.1577 140.556 28.1577 140.859 28.1577C140.859 30.6095 140.859 33.0461 140.859 35.4827Z"
      fill="#130F6C"
    />
    <path
      d="M54.6193 35.4674C54.3016 35.4674 54.0562 35.4674 53.7241 35.4674C53.7241 33.0308 53.7241 30.6095 53.7241 28.1272C54.0129 28.1272 54.2872 28.1272 54.6193 28.1272C54.6193 30.5638 54.6193 32.9699 54.6193 35.4674Z"
      fill="#130F6C"
    />
    <path
      d="M80.233 35.4676C79.9154 35.4676 79.6699 35.4676 79.3667 35.4676C79.3667 33.031 79.3667 30.6096 79.3667 28.1426C79.641 28.1426 79.9154 28.1426 80.233 28.1426C80.233 30.5639 80.233 32.9701 80.233 35.4676Z"
      fill="#130F6C"
    />
    <path
      d="M198.323 35.4676C198.02 35.4676 197.76 35.4676 197.457 35.4676C197.457 33.031 197.457 30.6096 197.457 28.1426C197.746 28.1426 198.006 28.1426 198.323 28.1426C198.323 30.5639 198.323 32.9853 198.323 35.4676Z"
      fill="#130F6C"
    />
    <path
      d="M221.944 28.1272C221.944 30.579 221.944 32.9699 221.944 35.4522C221.67 35.4674 221.396 35.4827 221.063 35.5131C221.063 33.0308 221.063 30.5942 221.063 28.1272C221.352 28.1272 221.612 28.1272 221.944 28.1272Z"
      fill="#130F6C"
    />
    <path
      d="M157.016 15.8378C157.016 15.3657 157.016 14.985 157.016 14.5586C158.748 14.5586 160.466 14.5586 162.242 14.5586C162.242 14.9698 162.242 15.3657 162.242 15.8378C160.51 15.8378 158.792 15.8378 157.016 15.8378Z"
      fill="#130F6C"
    />
    <path
      d="M55.2835 23.6502C54.6915 23.3456 54.2439 23.1324 53.8252 22.904C54.5615 21.7009 55.269 20.5283 56.0198 19.2795C56.4241 19.4775 56.8861 19.7059 57.507 20.0105C56.7417 21.2593 56.0343 22.4167 55.2835 23.6502Z"
      fill="#130F6C"
    />
    <path
      d="M59.9906 19.2795C60.8713 20.4065 61.6798 21.442 62.5317 22.5385C62.113 22.8126 61.651 23.1324 61.059 23.5283C60.2505 22.371 59.4563 21.2136 58.6045 19.9648C59.1676 19.6755 59.5863 19.4775 59.9906 19.2795Z"
      fill="#130F6C"
    />
    <path
      d="M140.873 8.31487C140.368 8.77173 140.036 9.09153 139.704 9.39611C138.621 8.74128 137.538 8.07121 136.369 7.35546C136.643 7.05089 136.874 6.71586 137.177 6.45697C137.293 6.35037 137.553 6.31991 137.683 6.39606C138.693 6.97475 139.689 7.59912 140.873 8.31487Z"
      fill="#130F6C"
    />
    <path
      d="M96.057 11.3909C96.9233 12.0762 97.7896 12.7767 98.7281 13.5229C98.3094 13.995 97.9773 14.3757 97.6308 14.7564C96.7067 14.0254 95.7971 13.3249 94.873 12.5787C95.2484 12.198 95.6094 11.8325 96.057 11.3909Z"
      fill="#130F6C"
    />
    <path
      d="M96.187 7.40097C96.5768 7.02026 96.9378 6.65477 97.3854 6.21313C98.2806 6.91365 99.1902 7.6294 100.158 8.37561C99.7244 8.86293 99.3779 9.22842 99.0458 9.5939C98.1073 8.87816 97.1977 8.17764 96.187 7.40097Z"
      fill="#130F6C"
    />
    <path
      d="M238.953 7.75141C239.328 7.35546 239.675 6.98997 240.093 6.54834C240.873 7.12703 241.667 7.72095 242.533 8.36055C242.129 8.83264 241.797 9.21336 241.465 9.59408C240.613 8.9697 239.79 8.37578 238.953 7.75141Z"
      fill="#130F6C"
    />
    <path
      d="M239.472 10.4468C240.18 10.9341 240.988 11.5128 241.884 12.1524C241.494 12.594 241.162 12.9747 240.815 13.3859C239.949 12.792 239.097 12.1981 238.245 11.6194C238.621 11.2387 238.981 10.8884 239.472 10.4468Z"
      fill="#130F6C"
    />
  </g>
  <defs>
    <clipPath id="clip0_822_7567">
      <rect
        width="274.977"
        height="35.7113"
        fill="white"
        transform="translate(0.490234)"
      />
    </clipPath>
  </defs>
</svg>
