<svg viewBox="0 0 276 37" fill="none" xmlns="http://www.w3.org/2000/svg">
  <g clip-path="url(#clip0_709_7495)">
    <path
      d="M123.194 36.3C120.798 35.3558 119.845 32.8126 120.957 30.3151C121.505 29.0664 122.776 28.3354 124.147 28.4725C125.663 28.6247 126.66 29.371 126.934 30.8481C127.093 31.7466 127.093 32.706 126.977 33.6045C126.79 35.0969 125.822 35.9041 124.494 36.2848C124.061 36.3 123.628 36.3 123.194 36.3ZM121.52 32.3253C121.635 32.904 121.707 33.5132 121.895 34.0766C122.198 34.9751 122.92 35.4167 123.873 35.4015C124.768 35.3711 125.447 34.9751 125.779 34.0614C126.14 33.0715 126.169 32.0512 125.938 31.0157C125.649 29.7669 124.638 29.1121 123.425 29.371C122.213 29.6298 121.606 30.6045 121.52 32.3253Z"
      fill="black"
      fill-opacity="0.2"
    />
    <path
      d="M160.128 36.3001C157.933 35.2798 157.182 33.696 157.731 31.1528C158.092 29.4625 159.261 28.4726 160.922 28.4726C162.611 28.4574 163.766 29.4015 164.026 31.1833C164.156 32.0818 164.098 33.0412 163.939 33.9397C163.68 35.3407 162.669 35.9956 161.427 36.3154C160.994 36.3001 160.561 36.3001 160.128 36.3001ZM163.16 32.3559C163.102 31.899 163.088 31.5183 163.015 31.1528C162.799 30.0107 162.091 29.3863 161.023 29.3406C159.94 29.2949 159.03 29.8889 158.857 31.0006C158.713 31.899 158.698 32.8585 158.857 33.7417C159.059 34.8686 159.825 35.4016 160.879 35.4016C161.933 35.4016 162.611 34.8839 162.914 33.7569C163.044 33.2696 163.088 32.7671 163.16 32.3559Z"
      fill="black"
      fill-opacity="0.2"
    />
    <path
      d="M203.139 36.3002C200.8 35.3408 199.905 33.2087 200.8 30.6503C201.306 29.1884 202.547 28.3508 204.063 28.4726C205.652 28.5945 206.749 29.4777 206.965 31.092C207.095 32.0666 207.023 33.1021 206.835 34.0768C206.59 35.3712 205.579 35.9499 204.453 36.3002C204.006 36.3002 203.572 36.3002 203.139 36.3002ZM206.085 32.3103C206.027 31.8839 205.998 31.4727 205.911 31.092C205.666 29.965 204.987 29.3711 203.962 29.3254C202.879 29.2797 202.114 29.828 201.782 30.9092C201.479 31.8686 201.493 32.8433 201.782 33.8027C202.114 34.8991 202.807 35.4169 203.861 35.4017C204.886 35.3865 205.608 34.7925 205.868 33.6961C205.984 33.2392 206.013 32.7519 206.085 32.3103Z"
      fill="black"
      fill-opacity="0.2"
    />
    <path
      d="M250.612 36.3C250.28 36.1629 249.933 36.0563 249.63 35.8736C248.952 35.4776 248.677 34.8533 248.735 33.9852C249.053 33.9852 249.341 33.9852 249.645 33.9852C250.034 35.2644 251.175 35.7822 252.359 35.2188C252.835 34.9903 253.211 34.5944 253.067 34.0462C252.965 33.6807 252.648 33.2543 252.316 33.102C251.666 32.7974 250.93 32.6908 250.237 32.4776C249.269 32.173 248.807 31.6096 248.764 30.7568C248.735 29.8887 249.211 29.1577 250.092 28.8075C251.002 28.442 251.94 28.4268 252.835 28.7923C253.514 29.0664 253.933 29.5841 253.904 30.4674C253.601 30.4674 253.298 30.4674 252.994 30.4674C252.547 29.4623 251.377 29.0207 250.453 29.6298C250.164 29.8278 249.89 30.2999 249.876 30.6349C249.876 30.9243 250.237 31.3354 250.525 31.4725C251.132 31.7466 251.81 31.8685 252.46 32.0512C253.644 32.4015 254.135 32.9497 254.149 33.9091C254.164 34.9446 253.557 35.7518 252.489 36.102C252.33 36.1477 252.186 36.2239 252.027 36.2848C251.579 36.3 251.088 36.3 250.612 36.3Z"
      fill="black"
      fill-opacity="0.2"
    />
    <path
      d="M67.2031 36.3001C66.8277 36.1478 66.4234 36.0412 66.0769 35.8432C65.4127 35.4472 65.1384 34.8076 65.225 33.9701C65.5282 33.9701 65.8025 33.9701 66.0913 33.9701C66.51 35.3406 67.2175 35.6148 68.6902 35.2797C69.2677 35.1427 69.5854 34.701 69.6143 34.0767C69.6287 33.4675 69.2244 33.1934 68.7335 33.0411C68.0694 32.8431 67.3908 32.6909 66.7266 32.4776C65.7592 32.1731 65.3116 31.6096 65.2972 30.7264C65.2828 29.8279 65.7304 29.036 66.64 28.8075C67.4341 28.6248 68.3004 28.5943 69.1089 28.7162C69.9463 28.838 70.4372 29.4776 70.4517 30.4522C69.9608 30.5284 69.5709 30.6654 69.2533 29.9801C68.8201 29.0664 66.9143 29.1883 66.4667 30.102C66.1924 30.6502 66.3656 31.2137 66.972 31.4421C67.5785 31.6705 68.2137 31.8228 68.8346 32.0056C70.1918 32.4015 70.6682 32.9041 70.6827 33.9548C70.6827 35.0818 70.0618 35.7975 68.7768 36.163C68.6902 36.1935 68.618 36.2544 68.5314 36.3001C68.0694 36.3001 67.6362 36.3001 67.2031 36.3001Z"
      fill="black"
      fill-opacity="0.2"
    />
    <path
      d="M92.0221 36.3C91.8922 36.2544 91.7622 36.1782 91.6323 36.1478C90.304 35.8432 89.6109 35.1579 89.5387 33.7569C89.4521 32.0969 89.5243 30.437 89.5243 28.7314C89.8419 28.7314 90.1163 28.7314 90.4917 28.7314C90.4917 29.8431 90.4917 30.9395 90.4917 32.0512C90.4917 32.4624 90.4917 32.8584 90.4917 33.2695C90.5205 34.6249 91.1847 35.3406 92.4408 35.3559C93.697 35.3711 94.3611 34.6706 94.39 33.2848C94.4189 31.8076 94.39 30.3152 94.39 28.7466C94.7076 28.7314 94.982 28.7162 95.314 28.7009C95.314 30.4979 95.3862 32.234 95.2852 33.9548C95.2274 35.0513 94.5055 35.7518 93.5093 36.1021C93.3071 36.1782 93.105 36.2391 92.9028 36.3153C92.5996 36.3 92.3109 36.3 92.0221 36.3Z"
      fill="black"
      fill-opacity="0.2"
    />
    <path
      d="M243.249 36.3C243.047 36.239 242.844 36.1781 242.628 36.1172C241.444 35.8126 240.722 34.9903 240.693 33.7111C240.635 32.0816 240.679 30.4369 240.679 28.7313C240.996 28.7313 241.3 28.7313 241.66 28.7313C241.66 30.2085 241.66 31.6704 241.66 33.1324C241.66 34.7771 242.585 35.5842 244.129 35.2644C245.053 35.0817 245.515 34.503 245.544 33.376C245.573 32.1121 245.559 30.8481 245.559 29.5841C245.559 29.31 245.559 29.0359 245.559 28.7161C245.891 28.7161 246.151 28.7161 246.468 28.7161C246.468 30.4674 246.541 32.1882 246.44 33.8786C246.382 35.0512 245.617 35.7669 244.563 36.102C244.404 36.1477 244.259 36.2238 244.101 36.2847C243.826 36.2999 243.537 36.3 243.249 36.3Z"
      fill="black"
      fill-opacity="0.2"
    />
    <path
      d="M0.498047 11.8426C1.46541 11.3249 2.24508 10.8984 3.02474 10.4873C9.16101 7.24356 15.2973 3.99985 21.4191 0.740913C21.7945 0.54294 22.0977 0.527712 22.4875 0.740913C29.2591 4.33488 36.0306 7.91363 42.8166 11.5076C42.961 11.5837 43.0909 11.6751 43.3508 11.8426C29.0425 11.8426 14.8786 11.8426 0.498047 11.8426Z"
      fill="black"
      fill-opacity="0.2"
    />
    <path
      d="M2.0143 35.1732C2.0143 34.2899 2.0143 33.4676 2.0143 32.5538C2.43301 32.5538 2.8084 32.5538 3.1838 32.5538C4.00678 32.5538 4.48324 32.2188 4.71425 31.3812C4.81532 31.0005 4.8442 30.5893 4.8442 30.1934C4.85863 26.2035 4.8442 22.2136 4.8442 18.2236C4.8442 16.5028 4.48324 16.1221 2.86615 16.1221C2.60626 16.1221 2.34638 16.1221 1.95654 16.1221C1.95654 15.65 1.95654 15.2084 1.95654 14.7667C1.95654 14.3099 1.95654 13.8682 1.95654 13.3505C2.21643 13.3352 2.41857 13.3048 2.63514 13.3048C6.36021 13.3048 10.0853 13.32 13.8104 13.2896C14.4168 13.2896 14.6189 13.4875 14.5756 14.0967C14.5323 14.721 14.5612 15.3454 14.5612 16.0916C14.0847 16.0916 13.6949 16.0764 13.2906 16.0916C12.3665 16.1525 11.7457 16.7769 11.7457 17.7363C11.7312 22.0765 11.7312 26.4167 11.7457 30.7721C11.7457 31.9751 12.381 32.5691 13.4927 32.5691C13.7959 32.5691 14.1136 32.5691 14.489 32.5691C14.489 33.4676 14.489 34.3051 14.489 35.1884C10.3452 35.1732 6.20139 35.1732 2.0143 35.1732Z"
      fill="black"
      fill-opacity="0.2"
    />
    <path
      d="M29.389 35.1579C29.3746 34.9143 29.3457 34.7011 29.3457 34.4726C29.3457 33.8635 29.3457 33.2696 29.3457 32.5538C29.7211 32.5538 30.0243 32.5538 30.3275 32.5538C31.5981 32.5538 32.1467 31.9751 32.1756 30.635C32.19 29.6299 32.1756 28.6096 32.1756 27.6045C32.1756 24.4674 32.1756 21.3455 32.1756 18.2084C32.1756 16.6246 31.6703 16.0916 30.1398 16.0764C29.9088 16.0764 29.6778 16.0611 29.4035 16.0459C29.4035 15.117 29.4035 14.2489 29.4035 13.3352C33.5761 13.3352 37.7055 13.3352 41.8926 13.3352C41.8926 14.2337 41.8926 15.117 41.8926 16.1068C41.5027 16.1068 41.1129 16.1068 40.7086 16.1068C39.568 16.1221 39.0915 16.5941 39.0771 17.8124C39.0627 19.5028 39.0771 21.1932 39.0771 22.8836C39.0771 25.3354 39.0771 27.7872 39.0771 30.239C39.0771 30.6198 39.1204 31.0005 39.207 31.366C39.4236 32.1883 39.9001 32.5538 40.7231 32.5538C41.0985 32.5538 41.4883 32.5538 41.907 32.5538C41.907 33.4523 41.907 34.2746 41.907 35.1579C37.7488 35.1579 33.5906 35.1579 29.389 35.1579Z"
      fill="black"
      fill-opacity="0.2"
    />
    <path
      d="M15.6729 16.046C15.6729 15.1323 15.6729 14.2794 15.6729 13.3657C19.8599 13.3657 24.0182 13.3657 28.2197 13.3657C28.2197 14.2642 28.2197 15.1475 28.2197 16.1221C27.7288 16.1221 27.2523 16.1069 26.7903 16.1221C25.9818 16.1373 25.6064 16.4571 25.4331 17.2947C25.3754 17.5688 25.3465 17.843 25.3465 18.1171C25.3465 22.1374 25.3465 26.1578 25.3465 30.163C25.3465 30.5132 25.3898 30.8635 25.462 31.2137C25.6641 32.1732 26.1262 32.5539 27.0791 32.5539C27.44 32.5539 27.7866 32.5539 28.2053 32.5539C28.2053 33.4524 28.2053 34.2899 28.2053 35.1732C24.0326 35.1732 19.8888 35.1732 15.6873 35.1732C15.6873 34.3052 15.6873 33.4676 15.6873 32.5539C16.0916 32.5539 16.4381 32.5234 16.799 32.5539C17.7953 32.6605 18.1562 32.0818 18.4017 31.2747C18.5172 30.8939 18.5172 30.4828 18.5172 30.0716C18.5316 26.2797 18.4883 22.4877 18.5316 18.6958C18.5461 16.8531 18.084 15.8937 16.1204 16.0612C16.0049 16.0917 15.8894 16.0612 15.6729 16.046Z"
      fill="black"
      fill-opacity="0.2"
    />
    <path
      d="M75.0859 7.396C80.1249 7.396 85.135 7.396 90.2172 7.396C90.2172 12.9545 90.2172 18.5129 90.2172 24.1932C89.683 24.041 89.0622 24.6196 88.6146 23.7973C88.5568 23.6907 88.2681 23.7059 88.0804 23.7059C84.4708 23.7059 80.8757 23.6907 77.2661 23.7211C77.0351 23.7211 76.8185 23.9953 76.5875 24.0562C76.1111 24.1628 75.6346 24.2085 75.1004 24.2846C75.0859 18.5586 75.0859 13.0002 75.0859 7.396ZM88.6435 22.3049C88.6435 17.7515 88.6435 13.2895 88.6435 8.78181C88.3547 8.76658 88.1237 8.73612 87.8782 8.73612C84.3842 8.73612 80.9046 8.75135 77.4105 8.72089C76.7752 8.72089 76.5875 8.88841 76.602 9.5737C76.6308 13.5484 76.6164 17.5078 76.6164 21.4825C76.6164 21.7566 76.6453 22.0155 76.6597 22.3049C78.7821 22.3049 80.8468 22.3049 82.9548 22.3049C82.8248 21.848 82.7093 21.4521 82.5938 21.0561C84.1099 20.8734 84.1099 20.8734 84.0377 19.9901C82.9837 19.9901 81.9441 19.9901 80.8179 19.9901C81.2222 20.3861 81.5543 20.7059 81.9152 21.0561C81.5832 21.3759 81.2944 21.6653 81.0056 21.9394C80.4281 21.4064 79.9372 20.9343 79.4463 20.4622C79.5185 20.2795 79.5907 20.1272 79.7062 19.8835C78.8254 19.8835 78.0314 19.8835 77.2228 19.8835C77.2228 19.4876 77.2228 19.1373 77.2228 18.7261C79.5041 18.7261 81.7564 18.7261 84.0377 18.7261C84.0377 18.3606 84.0377 18.0713 84.0377 17.7058C81.973 17.8886 79.9516 18.0713 77.8725 18.254C77.8003 17.919 77.6848 17.4622 77.5693 16.9444C78.811 16.8835 80.0094 16.8226 81.2078 16.7616C81.511 16.7464 81.8719 16.8226 81.8575 16.3048C81.8431 15.7565 81.4532 15.9088 81.1645 15.9088C80.2837 15.8936 79.4174 15.9088 78.4789 15.9088C78.4789 14.5382 78.4934 13.3047 78.4645 12.0712C78.4501 11.5687 78.6233 11.4164 79.0853 11.4316C79.8794 11.4621 80.6735 11.4468 81.4677 11.4164C81.5832 11.4164 81.6987 11.2489 81.8286 11.1575C81.7131 11.0661 81.612 10.9291 81.4821 10.8986C81.2944 10.8529 81.1067 10.8834 80.9046 10.8834C79.7351 10.8834 78.5656 10.8834 77.3672 10.8834C77.3672 10.4417 77.3672 10.1067 77.3672 9.6803C78.6233 9.6803 79.8506 9.6803 81.0634 9.6803C81.511 9.6803 81.9586 9.74121 81.9297 8.93409C82.5216 9.31481 83.3735 8.5686 83.6334 9.72598C85.0339 9.72598 86.4489 9.72598 87.8782 9.72598C87.8782 10.1219 87.8782 10.457 87.8782 10.8834C86.5211 10.8834 85.2072 10.8681 83.8933 10.8986C83.7056 10.8986 83.5323 11.0813 83.3446 11.1727C83.5323 11.2641 83.72 11.4316 83.9222 11.4316C84.6874 11.4621 85.4671 11.4621 86.2323 11.4468C86.6221 11.4316 86.7954 11.5839 86.7809 12.0103C86.7521 12.8631 86.8243 13.7311 86.7665 14.5839C86.7087 15.3911 86.882 16.0459 87.4451 16.6246C87.7627 16.9444 87.9793 17.3708 88.2681 17.782C87.8927 18.0561 87.5606 18.2845 87.1563 18.5586C86.8676 17.8276 86.4922 17.2185 85.7414 17.6449C85.5393 17.7515 85.5681 18.2997 85.4526 18.7718C86.4489 18.7718 87.2574 18.7718 88.0804 18.7718C88.0804 19.1982 88.0804 19.5333 88.0804 19.9749C87.2141 19.9749 86.3911 19.9749 85.6981 19.9749C85.4671 20.8582 85.2794 21.6196 85.1061 22.3506C86.2034 22.3049 87.4018 22.3049 88.6435 22.3049ZM85.6981 16.4418C85.3227 15.9545 84.0088 15.6347 83.5468 15.9088C83.4024 15.985 83.3879 16.2895 83.258 16.6094C84.1387 16.5484 84.8751 16.5027 85.6981 16.4418ZM85.2938 14.1575C84.6296 14.1575 84.0232 14.1575 83.4168 14.1575C83.258 14.6753 83.4024 14.9799 83.8933 14.8428C84.3553 14.721 85.1927 15.3606 85.2938 14.1575ZM85.2072 12.4824C84.5719 12.4824 83.9944 12.4824 83.3446 12.4824C83.3158 13.5941 84.0954 13.1068 84.5286 13.1829C84.9328 13.259 85.4526 13.2895 85.2072 12.4824ZM80.0816 14.1118C79.9083 14.6601 80.0383 14.9037 80.5436 14.8733C80.8613 14.8581 81.1789 14.919 81.4821 14.8428C81.6265 14.8124 81.742 14.5839 81.8719 14.4469C81.7564 14.3403 81.6409 14.1271 81.511 14.1271C81.0201 14.0814 80.5436 14.1118 80.0816 14.1118ZM80.9623 13.1981C81.0778 13.1981 81.2222 13.2438 81.3233 13.1829C81.5254 13.0763 81.6987 12.924 81.8719 12.787C81.6842 12.6651 81.511 12.4824 81.3088 12.4367C81.0345 12.3758 80.7313 12.391 80.457 12.4367C80.2982 12.4671 80.1682 12.6499 80.0238 12.7565C80.1682 12.8936 80.2982 13.0763 80.4859 13.1524C80.6014 13.259 80.7891 13.1981 80.9623 13.1981Z"
      fill="black"
      fill-opacity="0.2"
    />
    <path
      d="M200.757 9.63473C200.266 8.93421 199.905 8.41643 199.544 7.89866C199.847 7.5484 200.15 7.19814 200.555 6.72605C201.147 7.56363 201.695 8.30983 202.186 9.10172C202.461 9.55859 202.749 9.75656 203.312 9.52813C203.312 8.58395 203.312 7.60931 203.312 6.52808C203.919 6.55853 204.453 6.58899 204.973 6.61945C204.915 7.18291 204.843 7.655 204.814 8.11186C204.785 8.58395 204.814 9.05604 204.814 9.57381C205.406 9.57381 205.926 9.57381 206.518 9.57381C206.518 8.58395 206.518 7.60931 206.518 6.52808C207.153 6.55853 207.702 6.58899 208.135 6.61945C208.077 7.68546 208.034 8.59918 207.976 9.5129C208.756 9.80224 209.174 9.54336 209.478 8.85807C209.766 8.17277 210.171 7.5484 210.575 6.80219C211.08 7.09154 211.557 7.35043 212.033 7.63977C211.586 8.30983 211.196 8.88852 210.719 9.6195C211.629 9.6195 212.409 9.6195 213.217 9.6195C213.217 10.1525 213.217 10.5941 213.217 11.1424C212.322 11.1424 211.456 11.2033 210.604 11.1271C209.824 11.051 209.376 11.3251 209.218 12.117C209.174 12.315 209.102 12.4825 209.001 12.7718C210.084 12.7718 211.095 12.7718 212.163 12.7718C212.163 13.3048 212.163 13.7465 212.163 14.2947C210.286 14.2947 208.409 14.2947 206.474 14.2947C206.474 14.7059 206.474 15.0105 206.474 15.4216C208.164 15.4216 209.867 15.4216 211.6 15.4216C211.6 15.9394 211.6 16.3506 211.6 16.8684C209.925 16.8684 208.221 16.8684 206.489 16.8684C206.489 17.2491 206.489 17.5384 206.489 17.9191C208.813 17.9191 211.152 17.9191 213.564 17.9191C213.564 18.4674 213.564 18.9242 213.564 19.4572C211.586 19.4572 209.622 19.4572 207.658 19.4572C209.492 21.0867 211.759 21.574 214.04 22.2289C213.506 22.7466 213.087 23.2339 212.596 23.6299C212.437 23.7517 212.105 23.7517 211.889 23.6756C210.069 23.0055 208.351 22.0918 206.864 20.7669C206.763 20.6755 206.648 20.5994 206.446 20.4623C206.446 21.8329 206.446 23.0817 206.446 24.3913C205.911 24.3913 205.42 24.3913 204.828 24.3913C204.828 23.1426 204.828 21.8786 204.828 20.4623C204.54 20.6451 204.381 20.7364 204.251 20.8583C202.735 22.1832 200.988 23.0512 199.111 23.6756C198.62 23.8431 198.273 23.7974 197.927 23.3558C197.681 23.036 197.292 22.8228 197.032 22.4877C199.212 21.7568 201.291 21.1628 203.125 19.8989C203.24 19.8227 203.327 19.7161 203.572 19.5029C201.493 19.5029 199.602 19.5029 197.653 19.5029C197.653 18.9699 197.653 18.5283 197.653 17.9953C199.992 17.9953 202.345 17.9953 204.756 17.9953C204.756 17.5993 204.756 17.2948 204.756 16.9293C203.038 16.9293 201.363 16.9293 199.631 16.9293C199.631 16.4267 199.631 16.0003 199.631 15.4673C201.334 15.4673 203.024 15.4673 204.771 15.4673C204.771 15.0561 204.771 14.7516 204.771 14.3709C202.85 14.3709 200.959 14.3709 199.024 14.3709C199.024 13.8378 199.024 13.381 199.024 12.8328C200.078 12.8328 201.132 12.8328 202.258 12.8328C202.128 12.3759 202.013 12.0256 201.926 11.6601C201.84 11.2642 201.623 11.1576 201.262 11.1576C200.179 11.1728 199.111 11.1576 197.97 11.1576C197.97 10.6398 197.97 10.183 197.97 9.66519C198.851 9.63473 199.703 9.63473 200.757 9.63473ZM203.515 11.1576C203.746 12.7871 203.746 12.7871 205.16 12.7871C205.493 12.7871 205.825 12.7871 206.171 12.7871C207.326 12.7871 207.658 12.452 207.716 11.1576C206.33 11.1576 204.944 11.1576 203.515 11.1576Z"
      fill="black"
      fill-opacity="0.2"
    />
    <path
      d="M135.857 12.8479C137.763 12.0865 139.553 11.3707 141.329 10.6702C141.517 11.4621 141.372 12.0712 140.506 12.4063C139.871 12.6499 139.279 13.0611 138.687 13.5027C139.524 13.5027 140.347 13.5027 141.286 13.5027C141.04 13.2895 140.881 13.1372 140.65 12.924C142.643 12.1778 144.765 11.7362 145.805 9.36052C144.621 9.31483 143.581 9.0864 142.701 10.061C142.065 10.7616 141.907 10.6702 140.838 9.83261C141.82 8.79705 142.816 7.7615 143.812 6.72595C143.913 6.61935 144.116 6.55844 144.246 6.5889C144.679 6.71072 145.097 6.89347 145.776 7.15236C145.372 7.38079 145.112 7.51784 144.823 7.68536C145.011 7.85288 145.069 7.92902 145.112 7.92902C147.047 7.8681 148.981 7.7615 150.916 7.79196C151.393 7.80719 151.855 8.29451 152.317 8.58385C152.36 8.61431 152.288 8.90366 152.201 9.02549C151.84 9.49757 151.45 9.93921 151.075 10.3961C150.252 11.4316 150.252 11.4316 149.054 10.7311C149.313 10.2895 149.573 9.86306 149.92 9.2996C149.14 9.2996 148.476 9.25392 147.826 9.31483C147.35 9.36052 147.133 10.0306 147.523 10.3199C148.36 10.9443 149.227 11.523 150.136 11.9951C150.858 12.3606 151.667 12.5281 152.605 12.8327C151.753 13.2286 151.436 14.3251 150.31 13.9444C150.31 16.4875 150.31 18.985 150.31 21.5587C149.342 21.5587 148.447 21.5587 147.537 21.5587C147.523 21.6501 147.509 21.7414 147.494 21.8328C149.111 22.1831 150.714 22.5181 152.418 22.8836C152.042 23.2948 151.71 23.7059 151.335 24.0714C151.234 24.1628 151.017 24.2085 150.887 24.178C149.025 23.6298 147.162 23.0663 145.198 22.4724C145.386 22.1069 145.487 21.909 145.632 21.6501C144.607 21.6501 143.654 21.6501 142.6 21.6501C142.845 21.9546 143.047 22.1983 143.365 22.579C141.574 23.0968 139.9 23.508 138.283 24.0867C137.156 24.4826 136.478 24.0562 135.9 23.112C137.561 22.7008 139.221 22.2897 140.881 21.8633C140.867 21.7719 140.867 21.6958 140.853 21.6044C139.957 21.6044 139.077 21.6044 138.109 21.6044C138.109 18.9241 138.109 16.3353 138.109 13.5941C137.445 13.9444 136.911 14.2489 136.29 14.5687C136.131 13.9748 135.987 13.3809 135.857 12.8479ZM148.577 17.1271C145.603 17.1271 142.715 17.1271 139.813 17.1271C139.813 17.4622 139.813 17.7515 139.813 18.0409C142.773 18.0409 145.661 18.0409 148.577 18.0409C148.577 17.7363 148.577 17.4622 148.577 17.1271ZM139.77 20.1881C142.715 20.1881 145.632 20.1881 148.591 20.1881C148.577 19.8835 148.563 19.6247 148.548 19.3658C145.574 19.3658 142.686 19.3658 139.77 19.3658C139.77 19.6703 139.77 19.914 139.77 20.1881ZM148.577 14.9647C145.588 14.9647 142.686 14.9647 139.741 14.9647C139.755 15.2845 139.77 15.5586 139.784 15.8175C142.758 15.8175 145.675 15.8175 148.577 15.8175C148.577 15.4977 148.577 15.254 148.577 14.9647ZM149.183 13.5027C148.245 12.7717 147.364 12.1017 146.556 11.4773C145.473 12.1321 144.376 12.8022 143.235 13.5027C145.227 13.5027 147.177 13.5027 149.183 13.5027Z"
      fill="black"
      fill-opacity="0.2"
    />
    <path
      d="M232.897 23.6907C230.457 22.4115 228.551 20.6145 226.861 18.4368C226.861 20.3099 226.861 22.1983 226.861 24.1476C226.298 24.1476 225.807 24.1476 225.23 24.1476C225.23 22.2744 225.23 20.4013 225.23 18.3759C224.522 19.2135 223.988 20.0206 223.295 20.5993C222.126 21.5891 220.841 22.4267 219.613 23.3404C219.209 23.6298 218.892 23.5841 218.559 23.1881C218.3 22.8683 217.939 22.6551 217.477 22.2744C220.422 21.0257 222.848 19.518 224.638 16.9139C223.411 16.9139 222.256 16.9139 221.043 16.9139C221.043 17.919 221.043 18.9241 221.043 19.9749C220.509 19.9749 220.047 19.9749 219.512 19.9749C219.512 18.4825 219.512 16.9901 219.512 15.3911C221.375 15.3911 223.266 15.3911 225.187 15.3911C225.187 14.9037 225.187 14.5078 225.187 14.0357C222.862 14.0357 220.537 14.0357 218.17 14.0357C218.17 13.5332 218.17 13.1372 218.17 12.6194C220.509 12.6194 222.819 12.6194 225.187 12.6194C225.215 12.0864 225.244 11.6448 225.273 11.1727C225.562 11.1879 225.822 11.2032 226.269 11.2184C225.894 10.9595 225.663 10.792 225.475 10.6549C226.125 9.45187 226.775 8.26403 227.439 7.09142C227.497 6.98482 227.728 6.89345 227.843 6.92391C228.349 7.03051 228.854 7.19802 229.446 7.35031C229.157 7.67011 228.941 7.91377 228.565 8.34018C230.485 8.34018 232.204 8.34018 233.965 8.34018C233.965 8.84272 233.965 9.2539 233.965 9.74121C233.07 9.74121 232.189 9.74121 231.207 9.74121C231.453 10.4417 231.655 11.0357 231.886 11.7057C231.395 11.8275 230.962 11.9341 230.485 12.056C230.24 11.4316 230.023 10.8529 229.778 10.2894C229.533 9.72599 228.146 9.51278 227.713 9.93919C227.092 10.5636 227.006 11.4164 226.876 12.2235C226.861 12.2996 227.28 12.5585 227.497 12.5738C229.417 12.6042 231.337 12.589 233.272 12.589C233.532 12.589 233.792 12.6194 234.081 12.6347C234.081 13.0915 234.081 13.4875 234.081 13.9748C231.698 13.9748 229.345 13.9748 226.905 13.9748C226.905 14.4469 226.905 14.8428 226.905 15.3301C228.883 15.3301 230.861 15.3301 232.998 15.3301C232.94 16.6398 232.969 17.8733 232.81 19.0916C232.694 20.0054 231.828 20.0815 231.063 20.4622C232.16 21.0257 233.258 21.5739 234.442 22.1678C233.936 22.6704 233.416 23.1729 232.897 23.6907ZM230.023 19.8683C230.096 19.8074 230.168 19.7465 230.226 19.6855C230.139 19.3657 230.052 19.0459 229.966 18.7261C231.467 18.3607 231.568 18.2236 231.28 16.9139C230.038 16.9139 228.796 16.9139 227.482 16.9139C228.363 17.9495 229.2 18.9089 230.023 19.8683Z"
      fill="black"
      fill-opacity="0.2"
    />
    <path
      d="M244.288 12.4214C243.913 12.8326 243.682 13.0915 243.422 13.3808C242.931 13.0915 242.455 12.8174 242.05 12.5889C243.292 10.7158 244.519 8.87313 245.848 6.87817C246.209 7.01523 246.757 7.21321 247.364 7.42641C246.945 8.09647 246.584 8.70562 246.107 9.46705C247.089 9.46705 247.912 9.49751 248.735 9.45182C248.88 9.43659 249.053 9.17771 249.154 8.99496C249.515 8.30967 249.861 7.62438 250.237 6.87817C250.771 7.16752 251.262 7.44164 251.767 7.73098C251.377 8.30967 251.045 8.82745 250.612 9.46705C251.941 9.46705 253.11 9.46705 254.337 9.46705C254.337 10.0001 254.337 10.4417 254.337 10.9747C253.009 10.9747 251.709 10.9747 250.352 10.9747C250.352 11.5686 250.352 12.0864 250.352 12.6955C251.507 12.6955 252.648 12.6955 253.846 12.6955C253.846 13.1981 253.846 13.6245 253.846 14.1118C252.72 14.1118 251.58 14.1118 250.381 14.1118C250.381 14.7209 250.381 15.254 250.381 15.8936C251.536 15.8936 252.677 15.8936 253.861 15.8936C253.861 16.3961 253.861 16.8225 253.861 17.3098C252.72 17.3098 251.58 17.3098 250.381 17.3098C250.381 17.9037 250.381 18.4215 250.381 19.0307C251.709 19.0307 253.067 19.0307 254.467 19.0307C254.467 19.5637 254.467 20.0053 254.467 20.5688C251.623 20.5688 248.779 20.5688 245.92 20.5688C245.891 21.0104 245.862 21.3302 245.833 21.6957C245.342 21.6957 244.88 21.6957 244.303 21.6957C244.288 18.6652 244.288 15.6347 244.288 12.4214ZM248.677 15.8174C248.677 15.2235 248.677 14.7057 248.677 14.1879C247.725 14.1879 246.829 14.1879 245.891 14.1879C245.891 14.7514 245.891 15.254 245.891 15.8174C246.829 15.8174 247.725 15.8174 248.677 15.8174ZM245.891 12.6194C246.858 12.6194 247.768 12.6194 248.677 12.6194C248.677 12.0407 248.677 11.5229 248.677 11.0051C247.725 11.0051 246.829 11.0051 245.891 11.0051C245.891 11.5534 245.891 12.0407 245.891 12.6194ZM248.692 17.386C247.725 17.386 246.8 17.386 245.905 17.386C245.905 17.9647 245.905 18.4824 245.905 19.0002C246.858 19.0002 247.753 19.0002 248.692 19.0002C248.692 18.452 248.692 17.9494 248.692 17.386Z"
      fill="black"
      fill-opacity="0.2"
    />
    <path
      d="M191.834 8.7666C191.834 9.193 191.834 9.55849 191.834 9.93921C191.834 10.0915 191.805 10.2286 191.776 10.4722C189.87 10.4722 187.979 10.4722 186.044 10.4722C186.044 13.9139 186.044 17.2642 186.044 20.7059C188.311 20.7059 190.549 20.7059 192.83 20.7059C192.83 21.3303 192.83 21.848 192.83 22.442C187.69 22.442 182.536 22.442 177.338 22.442C177.338 21.8937 177.338 21.3607 177.338 20.7516C179.619 20.7516 181.871 20.7516 184.182 20.7516C184.182 17.3251 184.182 13.9444 184.182 10.4874C182.247 10.4874 180.312 10.4874 178.349 10.4874C178.349 9.8783 178.349 9.34529 178.349 8.78183C182.81 8.7666 187.271 8.7666 191.834 8.7666Z"
      fill="black"
      fill-opacity="0.2"
    />
    <path
      d="M171.346 21.574C171.577 20.7669 171.808 19.9598 172.039 19.1527C173.238 19.7618 173.397 20.0968 172.978 21.3913C172.732 22.1222 172.458 22.8685 172.097 23.5233C171.606 24.3913 170.942 24.4522 170.408 23.5994C169.902 22.7923 169.383 21.8786 169.282 20.9496C169.007 18.6349 168.935 16.2897 168.848 13.9444C168.791 12.4673 168.834 10.9901 168.834 9.45198C168.257 9.45198 167.636 9.45198 166.972 9.45198C166.972 11.0967 166.972 12.7414 166.972 14.4318C167.405 14.447 167.823 14.4774 168.285 14.4927C168.285 14.98 168.285 15.4216 168.285 15.9242C167.852 15.9546 167.434 15.9699 166.928 16.0003C166.928 18.6958 166.928 21.3608 166.928 24.0563C166.38 24.0563 165.903 24.0563 165.34 24.0563C165.34 21.376 165.34 18.711 165.34 15.9851C164.589 15.9851 163.925 15.9851 163.203 15.9851C163.203 15.4521 163.203 14.9952 163.203 14.4774C163.896 14.4774 164.56 14.4774 165.282 14.4774C165.282 12.7871 165.282 11.1576 165.282 9.45198C164.719 9.42152 164.127 9.39106 163.521 9.3606C163.521 8.87329 163.521 8.43165 163.521 7.94434C165.874 7.94434 168.199 7.94434 170.538 7.94434C170.682 12.4977 169.816 17.0815 171.014 21.574C171.115 21.574 171.231 21.574 171.346 21.574Z"
      fill="black"
      fill-opacity="0.2"
    />
    <path
      d="M54.5117 19.5485C54.5117 15.4824 54.5117 11.4773 54.5117 7.396C56.8796 7.396 59.2475 7.396 61.6442 7.396C61.6442 11.4164 61.6442 15.452 61.6442 19.5485C59.3052 19.5485 56.9518 19.5485 54.5117 19.5485ZM56.071 18.0408C57.4427 18.0408 58.7421 18.0408 60.0705 18.0408C60.0705 17.3403 60.0705 16.7007 60.0705 16.0307C58.7133 16.0307 57.4138 16.0307 56.071 16.0307C56.071 16.716 56.071 17.3403 56.071 18.0408ZM56.0855 14.4316C57.4716 14.4316 58.771 14.4316 60.0705 14.4316C60.0705 13.7007 60.0705 13.0306 60.0705 12.3605C58.7133 12.3605 57.4138 12.3605 56.0855 12.3605C56.0855 13.0763 56.0855 13.7464 56.0855 14.4316ZM60.0849 10.8225C60.0849 10.1524 60.0849 9.5737 60.0849 8.94932C58.7421 8.94932 57.4282 8.94932 56.0999 8.94932C56.0999 9.60416 56.0999 10.2133 56.0999 10.8225C57.4571 10.8225 58.7421 10.8225 60.0849 10.8225Z"
      fill="black"
      fill-opacity="0.2"
    />
    <path
      d="M63.9831 22.5182C64.7772 22.5182 65.4703 22.5334 66.1633 22.5182C66.7264 22.5029 67.1162 22.1984 67.1162 21.6044C67.1451 19.1831 67.1307 16.7769 67.1307 14.1576C66.4809 15.5586 65.99 16.8226 65.3547 17.9952C64.705 19.1983 63.8965 20.2948 63.1168 21.4978C62.5826 21.0105 62.135 20.5841 61.6152 20.112C63.781 17.7973 65.3981 15.1627 66.3799 11.9495C64.9505 11.9495 63.5788 11.9495 62.1783 11.9495C62.1783 11.3403 62.1783 10.8378 62.1783 10.2743C63.8099 10.2743 65.4125 10.2743 67.1307 10.2743C67.1307 9.11691 67.1307 8.02045 67.1307 6.81738C67.8959 6.90875 68.5312 6.9849 68.9932 7.04581C68.8777 8.17274 68.7911 9.14737 68.6756 10.2438C69.2964 10.2438 69.7873 10.2438 70.3071 10.2438C70.3071 10.8378 70.3071 11.3251 70.3071 11.8885C69.8017 11.919 69.3108 11.9495 68.7622 11.9799C68.7622 12.7566 68.7622 13.4875 68.7622 14.2185C68.7622 16.7617 68.7622 19.3201 68.7622 21.8633C68.7622 23.1578 68.3002 23.7821 67.1018 24.0258C66.3943 24.1629 65.6724 24.2085 64.9649 24.2542C64.8205 24.2542 64.5895 24.0715 64.5029 23.904C64.3152 23.4928 64.1852 23.0664 63.9831 22.5182Z"
      fill="black"
      fill-opacity="0.2"
    />
    <path
      d="M122.819 6.90869C123.526 6.95438 124.118 7.00006 124.71 7.04575C125.1 7.07621 125.1 7.28941 124.97 7.62444C124.826 8.00516 124.71 8.4011 124.667 8.81228C124.58 9.92397 124.494 11.0204 124.494 12.1321C124.494 12.7108 124.551 13.3504 124.739 13.8834C126.01 17.2642 128.277 19.7922 131.02 21.8785C131.309 22.1069 131.597 22.3201 132.002 22.6247C131.294 23.0968 130.644 23.5384 129.937 23.9953C127.454 21.5891 125.187 19.0612 123.801 15.6347C122.646 18.9698 120.465 21.2389 117.895 23.1425C116.813 23.9496 116.813 23.9344 115.845 23.0206C115.686 22.8684 115.528 22.7161 115.239 22.4267C121.462 19.2439 123.555 13.8682 122.819 6.90869Z"
      fill="black"
      fill-opacity="0.2"
    />
    <path
      d="M260.459 17.6296C260.459 15.8479 260.459 14.2032 260.459 12.4976C264.848 12.4976 269.223 12.4976 273.641 12.4976C273.641 14.1727 273.641 15.8479 273.641 17.5839C273.078 17.4164 272.399 18.0256 272.01 17.1423C271.966 17.0662 271.692 17.0814 271.533 17.0814C268.559 17.0814 265.57 17.0662 262.596 17.0966C262.379 17.0966 262.192 17.4164 261.961 17.4621C261.484 17.5687 260.993 17.5839 260.459 17.6296ZM272.082 15.6651C272.082 15.0408 272.082 14.4468 272.082 13.8529C270.595 13.8529 269.136 13.8529 267.664 13.8529C267.664 14.4925 267.664 15.0864 267.664 15.6347C269.18 16.1829 269.079 14.5687 269.801 13.9595C270.205 14.1879 270.609 14.4164 271.028 14.66C270.782 15.0255 270.595 15.2996 270.349 15.6651C270.984 15.6651 271.519 15.6651 272.082 15.6651ZM266.162 13.8681C264.747 13.8681 263.404 13.8681 262.047 13.8681C262.047 14.5077 262.047 15.1017 262.047 15.6956C262.581 15.6956 263.058 15.6956 263.621 15.6956C263.433 15.1778 263.26 14.7209 263.101 14.2641C264.372 13.9138 264.372 13.9138 264.747 14.9494C265.079 15.8631 265.137 15.8783 266.148 15.589C266.162 15.0408 266.162 14.4925 266.162 13.8681Z"
      fill="black"
      fill-opacity="0.2"
    />
    <path
      d="M261.96 18.1323C265.382 18.1323 268.761 18.1323 272.212 18.1323C272.212 20.1121 272.212 22.0918 272.212 24.1477C271.649 24.0258 270.97 24.5436 270.537 23.7213C270.493 23.6451 270.262 23.6603 270.118 23.6603C268.126 23.6603 266.133 23.6451 264.141 23.6756C263.953 23.6756 263.765 23.904 263.578 24.0258C263.476 24.102 263.375 24.239 263.274 24.2543C262.856 24.2847 262.422 24.2695 261.96 24.2695C261.96 22.1832 261.96 20.2034 261.96 18.1323ZM270.623 19.3658C268.256 19.3658 265.945 19.3658 263.621 19.3658C263.621 19.7009 263.621 19.9902 263.621 20.31C265.974 20.31 268.284 20.31 270.623 20.31C270.623 19.9902 270.623 19.7161 270.623 19.3658ZM263.606 22.4116C265.974 22.4116 268.27 22.4116 270.623 22.4116C270.623 22.107 270.623 21.8329 270.623 21.5436C268.27 21.5436 265.96 21.5436 263.606 21.5436C263.606 21.8329 263.606 22.0918 263.606 22.4116Z"
      fill="black"
      fill-opacity="0.2"
    />
    <path
      d="M104.598 6.8479C105.305 6.90882 105.912 6.96973 106.374 7.01542C106.316 8.09665 106.273 9.07129 106.215 10.1525C107.587 10.1525 108.843 10.1525 110.171 10.1525C110.171 10.7008 110.171 11.1576 110.171 11.6906C108.915 11.6906 107.644 11.6906 106.316 11.6906C106.316 12.7414 106.316 13.7465 106.316 14.8582C107.919 14.8582 109.536 14.8582 111.196 14.8582C111.196 15.4217 111.196 15.8481 111.196 16.3506C107.356 16.3506 103.558 16.3506 99.689 16.3506C99.689 15.8937 99.689 15.4521 99.689 14.9039C101.306 14.9039 102.923 14.9039 104.569 14.9039C104.569 13.8074 104.569 12.8328 104.569 11.782C103.327 11.782 102.057 11.782 100.743 11.782C100.743 11.2338 100.743 10.7769 100.743 10.2134C101.985 10.2134 103.241 10.2134 104.598 10.2134C104.598 9.04083 104.598 8.00528 104.598 6.8479Z"
      fill="black"
      fill-opacity="0.2"
    />
    <path
      d="M254.972 22.2439C254.814 22.7921 254.684 23.3099 254.496 23.7972C254.438 23.9343 254.236 24.1018 254.092 24.1018C250.829 24.0409 247.566 23.9952 244.303 23.8429C243.075 23.782 241.992 23.1881 241.126 22.0764C240.448 22.7617 239.783 23.4165 239.076 24.1323C238.701 23.5992 238.34 23.0967 237.95 22.5485C238.643 22.0916 239.321 21.6347 240 21.1931C240.361 20.9647 240.52 20.6753 240.505 20.2185C240.476 19.1982 240.491 18.1626 240.491 17.0966C240.029 17.0661 239.668 17.0357 239.249 17.0052C239.249 16.5331 239.249 16.0915 239.249 15.5737C240.188 15.5737 241.141 15.5737 242.209 15.5737C242.209 16.2133 242.209 16.8834 242.209 17.5535C242.209 18.4824 242.252 19.4266 242.195 20.3555C242.151 21.0561 242.44 21.5281 242.989 21.7261C243.768 22.0155 244.606 22.32 245.414 22.3353C248.215 22.381 251.031 22.2896 253.832 22.2591C254.193 22.2439 254.554 22.2439 254.972 22.2439Z"
      fill="black"
      fill-opacity="0.2"
    />
    <path
      d="M107.933 17.9191C109.16 19.7008 110.344 21.4064 111.557 23.173C110.98 23.5994 110.503 23.9344 110.027 24.2694C109.94 24.1476 109.868 24.0867 109.825 23.9953C108.973 22.4268 108.973 22.4268 107.269 22.6552C105.407 22.9141 103.558 23.1577 101.696 23.4318C101.306 23.4928 100.945 23.6755 100.44 23.843C100.295 23.2034 100.137 22.5181 99.9922 21.8328C100.064 21.8024 100.108 21.7567 100.151 21.7567C101.479 21.909 102.216 21.1171 102.764 19.9902C103.255 18.9851 103.789 17.9952 104.338 16.9292C104.8 17.0967 105.305 17.2795 105.84 17.4622C105.147 18.8023 104.511 20.0511 103.818 21.4064C105.262 21.2541 106.59 21.1171 108.106 20.9496C107.601 20.2491 107.168 19.6399 106.706 18.9698C107.067 18.6653 107.413 18.3607 107.933 17.9191Z"
      fill="black"
      fill-opacity="0.2"
    />
    <path
      d="M158.308 23.2947C158.265 23.5536 158.222 23.7515 158.193 23.9647C157.716 23.9647 157.24 23.9647 156.72 23.9647C156.72 21.8784 156.72 19.7921 156.72 17.6753C158.655 17.6753 160.561 17.6753 162.51 17.6753C162.51 19.7769 162.51 21.8327 162.51 23.9495C162.019 23.9495 161.543 23.9495 161.023 23.9495C161.066 23.3251 160.691 23.249 160.2 23.2795C159.593 23.3251 158.987 23.2947 158.308 23.2947ZM158.265 21.7109C159.175 21.7109 160.027 21.7109 160.893 21.7109C160.893 20.8581 160.893 20.0357 160.893 19.2286C159.983 19.2286 159.131 19.2286 158.265 19.2286C158.265 20.0662 158.265 20.8429 158.265 21.7109Z"
      fill="black"
      fill-opacity="0.2"
    />
    <path
      d="M270.248 10.3809C269.252 9.74127 268.256 9.08643 267.23 8.47728C267.086 8.40114 266.783 8.52297 266.595 8.62957C264.805 9.77172 262.913 10.6702 260.935 11.386C259.622 11.8581 259.535 11.8428 258.611 10.5788C259.347 10.3352 260.084 10.122 260.791 9.86309C262.856 9.13212 264.776 8.09657 266.566 6.80213C267.288 6.28435 268.256 6.66507 268.516 7.5331C268.559 7.68539 268.79 7.79199 268.949 7.88337C270.753 8.87323 272.674 9.48238 274.666 9.90878C274.897 9.95447 275.128 10.0154 275.475 10.0915C275.114 10.6093 274.825 11.0966 274.479 11.523C274.392 11.6296 274.089 11.6449 273.915 11.5992C272.934 11.2794 271.952 10.9139 270.97 10.5788C270.725 10.4875 270.465 10.4418 270.219 10.3656L270.248 10.3809Z"
      fill="black"
      fill-opacity="0.2"
    />
    <path
      d="M177.381 34.7163C177.959 33.0107 178.493 31.4574 179.027 29.8888C179.504 28.503 179.547 28.4725 181.034 28.7771C181.034 31.1833 181.034 33.5894 181.034 36.0412C180.76 36.0412 180.514 36.0412 180.168 36.0412C180.168 33.9853 180.168 31.9295 180.168 29.8736C180.11 29.8584 180.038 29.8431 179.98 29.8127C179.893 30.0259 179.807 30.2391 179.735 30.437C179.157 32.0665 178.58 33.696 178.002 35.3255C177.872 35.6909 177.843 36.0869 177.28 36.1021C176.717 36.1173 176.674 35.7366 176.544 35.3559C175.923 33.5437 175.302 31.7163 174.537 29.9193C174.537 31.9295 174.537 33.9549 174.537 36.026C174.176 36.026 173.902 36.026 173.584 36.026C173.584 33.6198 173.584 31.1985 173.584 28.6553C174.06 28.6553 174.566 28.6096 175.042 28.6857C175.216 28.7162 175.432 29.0208 175.504 29.234C176.024 30.7264 176.501 32.234 177.006 33.7264C177.121 34.031 177.237 34.3051 177.381 34.7163Z"
      fill="black"
      fill-opacity="0.2"
    />
    <path
      d="M214.184 34.4726C214.184 32.5691 214.184 30.6807 214.184 28.7314C214.531 28.7314 214.776 28.7314 215.05 28.7314C215.05 31.168 215.05 33.5894 215.05 35.9955C213.924 36.2544 213.895 36.2392 213.318 35.2341C212.322 33.5132 211.325 31.7924 210.199 30.102C210.199 32.0665 210.199 34.031 210.199 36.0412C209.882 36.0412 209.651 36.0412 209.362 36.0412C209.362 33.6046 209.362 31.1832 209.362 28.7619C210.575 28.5182 210.589 28.5182 211.167 29.5386C212.12 31.1985 213.072 32.8432 214.025 34.5031C214.083 34.5031 214.141 34.4879 214.184 34.4726Z"
      fill="black"
      fill-opacity="0.2"
    />
    <path
      d="M62.9579 36.026C62.1494 36.2544 61.6441 36.0565 61.2253 35.2646C60.2869 33.498 59.2473 31.8077 58.1356 29.8889C58.1356 32.0818 58.1356 34.0463 58.1356 36.0565C57.8179 36.0717 57.5869 36.0869 57.2837 36.1174C57.2837 33.6503 57.2837 31.2137 57.2837 28.7924C58.4243 28.5183 58.4965 28.5487 59.074 29.5386C60.027 31.1985 60.9799 32.8432 62.0772 34.4727C62.0772 32.5843 62.0772 30.696 62.0772 28.7162C62.4237 28.701 62.6692 28.6858 62.9579 28.6706C62.9579 31.1528 62.9579 33.5742 62.9579 36.026Z"
      fill="black"
      fill-opacity="0.2"
    />
    <path
      d="M230.254 36.0107C229.417 36.2848 228.926 36.0259 228.522 35.2493C227.583 33.498 226.544 31.7924 225.417 30.102C225.417 32.0665 225.417 34.031 225.417 36.0412C225.071 36.0412 224.825 36.0412 224.537 36.0412C224.537 33.6198 224.537 31.1984 224.537 28.7923C225.706 28.4877 225.793 28.5334 226.399 29.569C227.338 31.1984 228.276 32.8431 229.373 34.4574C229.373 32.569 229.373 30.6807 229.373 28.7314C229.72 28.7314 229.965 28.7314 230.269 28.7314C230.254 31.1528 230.254 33.5741 230.254 36.0107Z"
      fill="black"
      fill-opacity="0.2"
    />
    <path
      d="M148.302 34.6859C148.302 32.5691 148.302 30.6655 148.302 28.7162C148.606 28.701 148.837 28.6858 149.125 28.6705C149.125 31.1376 149.125 33.5742 149.125 36.0108C148.375 36.2392 147.884 36.0717 147.465 35.3103C146.512 33.5437 145.473 31.8229 144.303 30.102C144.303 32.0665 144.303 34.031 144.303 36.0412C143.971 36.0565 143.74 36.0717 143.451 36.1021C143.451 33.6351 143.451 31.1985 143.451 28.7772C144.635 28.5183 144.693 28.5335 145.299 29.569C146.137 31.0158 146.96 32.4625 147.797 33.9092C147.927 34.1072 148.057 34.3052 148.302 34.6859Z"
      fill="black"
      fill-opacity="0.2"
    />
    <path
      d="M262.842 28.7313C264.026 28.7313 265.152 28.6856 266.263 28.7465C267.043 28.7922 267.606 29.3709 267.751 30.0866C267.953 30.9699 267.621 31.6704 266.697 32.31C268.025 33.2238 267.346 34.8228 267.996 35.9954C266.913 36.2238 266.913 36.2238 266.754 35.2492C266.682 34.7771 266.61 34.305 266.552 33.8329C266.451 33.1019 266.047 32.7821 265.368 32.7821C264.863 32.7821 264.358 32.7821 263.78 32.7821C263.78 33.8938 263.78 34.9446 263.78 36.0563C263.434 36.0563 263.159 36.0563 262.827 36.0563C262.842 33.6197 262.842 31.2136 262.842 28.7313ZM263.78 31.9141C264.545 31.8684 265.224 31.8684 265.917 31.7923C266.48 31.7313 266.74 31.3049 266.769 30.7415C266.798 30.178 266.538 29.7059 266.004 29.6146C265.282 29.4927 264.545 29.5232 263.78 29.4775C263.78 30.3455 263.78 31.0461 263.78 31.9141Z"
      fill="black"
      fill-opacity="0.2"
    />
    <path
      d="M166.292 28.7467C167.505 28.7467 168.675 28.6858 169.83 28.7772C170.537 28.8381 171.057 29.3254 171.216 30.1173C171.404 31.031 171.115 31.6249 170.176 32.3102C171.461 33.2392 170.855 34.8077 171.447 35.9956C170.364 36.1935 170.364 36.1783 170.22 35.2189C170.147 34.7163 170.075 34.229 170.003 33.7265C169.902 33.0716 169.527 32.7671 168.906 32.7671C168.386 32.7671 167.852 32.7671 167.26 32.7671C167.26 33.894 167.26 34.9295 167.26 36.0412C166.899 36.0412 166.639 36.0412 166.292 36.0412C166.292 33.6351 166.292 31.229 166.292 28.7467ZM167.245 31.9295C168.025 31.8838 168.718 31.8686 169.411 31.7924C169.974 31.7163 170.22 31.2899 170.234 30.7264C170.249 30.163 170.003 29.7061 169.454 29.63C168.733 29.5234 167.996 29.5386 167.26 29.4929C167.245 30.3609 167.245 31.0767 167.245 31.9295Z"
      fill="black"
      fill-opacity="0.2"
    />
    <path
      d="M232.824 28.7466C234.037 28.7466 235.149 28.7466 236.246 28.7466C236.39 28.7466 236.52 28.8227 236.665 28.8684C238.036 29.3405 238.787 30.9395 238.628 33.0106C238.498 34.701 237.56 35.8584 236.102 36.0107C235.178 36.102 234.225 36.0868 233.301 36.0716C233.142 36.0716 232.868 35.8127 232.868 35.6756C232.824 33.3913 232.824 31.0918 232.824 28.7466ZM233.763 35.2188C234.412 35.2188 234.961 35.2645 235.51 35.2035C236.636 35.0969 237.329 34.4421 237.488 33.2695C237.574 32.6756 237.56 32.0512 237.459 31.4725C237.242 30.1933 236.578 29.6146 235.336 29.508C233.763 29.3862 233.763 29.3862 233.763 31.0309C233.763 32.4167 233.763 33.8025 233.763 35.2188Z"
      fill="black"
      fill-opacity="0.2"
    />
    <path
      d="M130.226 36.0716C129.836 36.0716 129.591 36.0716 129.273 36.0716C129.273 33.635 129.273 31.2289 129.273 28.6248C130.529 28.7009 131.8 28.7009 133.041 28.8684C133.705 28.9598 134.11 29.508 134.196 30.2542C134.297 31.1984 133.965 31.8685 133.114 32.2949C134.456 33.2238 133.821 34.8228 134.456 36.0716C134.023 36.0716 133.72 36.0716 133.345 36.0716C133.243 35.4167 133.128 34.7924 133.041 34.1375C132.897 33.0563 132.637 32.7974 131.612 32.7822C131.179 32.7822 130.76 32.7822 130.255 32.7822C130.226 33.8787 130.226 34.9294 130.226 36.0716ZM130.154 31.8228C130.919 31.8228 131.583 31.8685 132.247 31.8076C132.825 31.7619 133.157 31.3811 133.157 30.7568C133.171 30.1019 132.897 29.6755 132.262 29.5994C131.699 29.5385 131.107 29.5232 130.544 29.5385C130.414 29.5385 130.183 29.7821 130.168 29.9344C130.139 30.5588 130.154 31.1832 130.154 31.8228Z"
      fill="black"
      fill-opacity="0.2"
    />
    <path
      d="M224.45 11.7057C224.031 11.8123 223.742 11.9493 223.439 11.9493C223.237 11.9493 222.977 11.797 222.876 11.6295C222.66 11.2488 222.558 10.7767 222.327 10.396C222.169 10.1371 221.909 9.87823 221.649 9.78686C221.245 9.6498 220.884 9.80209 220.653 10.2742C220.393 10.7767 220.003 11.2184 219.729 11.7057C219.44 12.2082 219.137 12.2844 218.689 11.9493C218.458 11.7818 218.184 11.66 218.054 11.5991C218.862 10.1067 219.656 8.61425 220.479 7.15229C220.552 7.03046 220.739 6.89341 220.84 6.90863C221.375 7.01524 221.894 7.18275 222.486 7.35027C222.197 7.6853 221.981 7.91373 221.62 8.3249C222.992 8.3249 224.176 8.3249 225.403 8.3249C225.403 8.84268 225.403 9.25385 225.403 9.74117C224.869 9.74117 224.349 9.74117 223.728 9.74117C223.988 10.4265 224.204 11.0204 224.45 11.7057Z"
      fill="black"
      fill-opacity="0.2"
    />
    <path
      d="M189.726 36.0106C189.076 36.2238 188.672 36.1172 188.426 35.4015C187.979 34.1375 187.95 34.1527 186.65 34.1527C186.535 34.1527 186.405 34.168 186.289 34.1527C185.091 33.9243 184.268 34.2898 184.008 35.6604C183.878 36.3304 183.359 36.0563 182.896 36.0868C182.954 35.8736 182.983 35.7061 183.041 35.5538C183.893 33.4522 184.759 31.3354 185.596 29.2339C185.755 28.8227 185.972 28.6704 186.405 28.6704C186.809 28.6704 186.983 28.8379 187.127 29.2186C187.921 31.305 188.744 33.3608 189.553 35.4472C189.625 35.6147 189.668 35.7974 189.726 36.0106ZM187.618 33.2695C187.185 32.0816 186.795 30.9852 186.318 29.706C185.827 31.0156 185.409 32.0969 184.961 33.2695C185.871 33.2695 186.665 33.2695 187.618 33.2695Z"
      fill="black"
      fill-opacity="0.2"
    />
    <path
      d="M104.454 36.0412C104.454 33.5742 104.454 31.1833 104.454 28.7314C105.926 28.7314 107.37 28.7314 108.857 28.7314C108.857 28.9751 108.857 29.1883 108.857 29.5081C107.731 29.5081 106.605 29.5081 105.464 29.5081C105.464 30.3305 105.464 31.0462 105.464 31.8381C106.547 31.8381 107.601 31.8381 108.684 31.8381C108.713 32.1274 108.727 32.3406 108.756 32.6604C107.644 32.6604 106.59 32.6604 105.464 32.6604C105.464 33.5285 105.464 34.3051 105.464 35.1732C106.605 35.1732 107.746 35.1732 108.944 35.1732C108.958 35.5082 108.973 35.7366 108.987 36.0412C107.471 36.0412 105.999 36.0412 104.454 36.0412Z"
      fill="black"
      fill-opacity="0.2"
    />
    <path
      d="M272.241 32.2797C272.861 31.229 273.453 30.3457 273.93 29.3863C274.262 28.7315 274.681 28.5335 275.431 28.7467C275.186 29.1579 274.955 29.5386 274.724 29.9345C274.608 30.1325 274.493 30.3152 274.377 30.5132C273.266 32.1427 272.14 33.7722 272.847 36.0412C272.385 36.0412 272.111 36.0412 271.706 36.0412C271.706 35.3255 271.75 34.5793 271.692 33.8331C271.663 33.4219 271.562 32.9955 271.36 32.6452C270.595 31.3356 269.786 30.0716 268.978 28.7771C269.786 28.503 270.263 28.7315 270.624 29.4472C271.071 30.3914 271.634 31.2594 272.241 32.2797Z"
      fill="black"
      fill-opacity="0.2"
    />
    <path
      d="M151.811 36.026C151.811 33.5742 151.811 31.1833 151.811 28.7314C153.212 28.7314 154.598 28.7314 156.027 28.7314C156.027 28.9599 156.027 29.1883 156.027 29.5081C154.973 29.5081 153.933 29.5081 152.836 29.5081C152.836 30.3152 152.836 31.031 152.836 31.8229C153.832 31.8229 154.814 31.8229 155.839 31.8229C155.839 32.1274 155.839 32.3559 155.839 32.7061C154.829 32.7061 153.832 32.7061 152.793 32.7061C152.793 33.8635 152.793 34.9143 152.793 36.026C152.417 36.026 152.114 36.026 151.811 36.026Z"
      fill="black"
      fill-opacity="0.2"
    />
    <path
      d="M114.777 28.7161C116.192 28.7161 117.549 28.7161 118.964 28.7161C118.978 28.9597 118.993 29.1729 119.007 29.4166C118.877 29.4623 118.791 29.508 118.704 29.508C117.91 29.5232 117.116 29.5384 116.322 29.5232C115.903 29.508 115.701 29.6298 115.715 30.1171C115.759 32.2948 115.455 31.8227 117.304 31.8684C117.78 31.8836 118.256 31.8684 118.791 31.8684C118.791 32.1577 118.791 32.3862 118.791 32.706C117.953 32.706 117.145 32.7212 116.336 32.6908C115.86 32.6755 115.701 32.8583 115.715 33.3456C115.744 34.2289 115.73 35.0969 115.73 36.0411C115.383 36.0411 115.109 36.0411 114.777 36.0411C114.777 33.6197 114.777 31.2136 114.777 28.7161Z"
      fill="black"
      fill-opacity="0.2"
    />
    <path
      d="M257.846 36.0412C257.846 33.8787 257.846 31.762 257.846 29.5081C257.21 29.5081 256.618 29.4929 256.041 29.5081C255.535 29.5386 255.304 29.3558 255.492 28.7314C257.369 28.7314 259.26 28.7314 261.21 28.7314C261.21 28.9599 261.21 29.1731 261.21 29.4929C260.43 29.4929 259.679 29.4929 258.842 29.4929C258.842 31.7163 258.842 33.8483 258.842 36.0412C258.495 36.0412 258.221 36.0412 257.846 36.0412Z"
      fill="black"
      fill-opacity="0.2"
    />
    <path
      d="M100.555 36.0564C100.18 36.0564 99.8909 36.0564 99.5589 36.0564C99.5589 33.8939 99.5589 31.7467 99.5589 29.508C98.8514 29.508 98.2017 29.5385 97.5664 29.4928C97.4364 29.4776 97.2487 29.2492 97.2054 29.0969C97.1766 28.9903 97.3787 28.7009 97.4798 28.7009C99.2701 28.6705 101.06 28.6857 102.894 28.6857C102.894 28.9903 102.894 29.2035 102.894 29.5233C102.1 29.5233 101.349 29.5233 100.541 29.5233C100.555 31.7467 100.555 33.8482 100.555 36.0564Z"
      fill="black"
      fill-opacity="0.2"
    />
    <path
      d="M74.3352 29.5081C73.6277 29.5081 73.0646 29.5233 72.4871 29.5081C71.9096 29.4929 71.9096 29.4777 71.9962 28.7314C73.8732 28.7314 75.7502 28.7314 77.6704 28.7314C77.6704 28.9751 77.6704 29.1883 77.6704 29.5233C76.8908 29.5233 76.1111 29.5233 75.2881 29.5233C75.2881 31.7467 75.2881 33.8635 75.2881 36.0412C74.9705 36.0412 74.6962 36.0412 74.3352 36.0412C74.3352 33.9092 74.3352 31.7772 74.3352 29.5081Z"
      fill="black"
      fill-opacity="0.2"
    />
    <path
      d="M193.437 36.0565C193.076 36.0565 192.816 36.0565 192.469 36.0565C192.455 35.8128 192.426 35.5387 192.412 35.2798C192.412 33.5894 192.397 31.8991 192.412 30.2087C192.426 29.6757 192.238 29.4929 191.748 29.5234C191.199 29.5538 190.65 29.5386 190.058 29.5386C190.044 29.2645 190.015 29.0361 190 28.8076C190.116 28.7619 190.203 28.7163 190.289 28.7163C191.95 28.701 193.61 28.701 195.27 28.7163C195.444 28.7163 195.617 28.9751 195.79 29.1122C195.617 29.2493 195.458 29.4929 195.27 29.5081C194.678 29.5538 194.087 29.5234 193.422 29.5234C193.437 31.7315 193.437 33.8483 193.437 36.0565Z"
      fill="black"
      fill-opacity="0.2"
    />
    <path
      d="M98.6784 17.5078C98.8805 17.7515 99.1549 17.9951 99.2848 18.2997C99.4003 18.5434 99.4581 18.9393 99.3426 19.1373C98.664 20.3556 97.9276 21.5282 97.2057 22.7313C96.9314 23.1881 96.657 23.6602 96.3105 24.2541C95.8485 23.8429 95.3865 23.447 94.9678 23.0663C96.2095 21.2084 97.4367 19.3809 98.6784 17.5078Z"
      fill="black"
      fill-opacity="0.2"
    />
    <path
      d="M162.972 11.3707C160.734 11.3707 158.554 11.3707 156.33 11.3707C156.33 10.8986 156.33 10.457 156.33 9.93921C158.539 9.93921 160.719 9.93921 162.972 9.93921C162.972 10.3961 162.972 10.8529 162.972 11.3707Z"
      fill="black"
      fill-opacity="0.2"
    />
    <path
      d="M85.424 36.0564C85.0775 36.0564 84.8465 36.0564 84.5289 36.0564C84.5144 35.7823 84.4856 35.5234 84.4856 35.2493C84.4856 33.5893 84.4567 31.9142 84.5 30.2543C84.5144 29.6451 84.3123 29.4471 83.7492 29.4928C83.2294 29.5385 82.6952 29.508 82.1177 29.508C82.1177 29.2187 82.1177 28.9903 82.1177 28.7009C84.0091 28.7009 85.8716 28.7009 87.7775 28.7009C87.7919 28.9294 87.8208 29.1426 87.8497 29.508C87.5176 29.508 87.2433 29.508 86.9689 29.508C85.424 29.508 85.424 29.508 85.424 31.1375C85.424 32.7518 85.424 34.366 85.424 36.0564Z"
      fill="black"
      fill-opacity="0.2"
    />
    <path
      d="M157.038 13.8986C157.038 13.4265 157.038 13.0153 157.038 12.5432C158.785 12.5432 160.503 12.5432 162.264 12.5432C162.264 12.9848 162.264 13.4112 162.264 13.8986C160.546 13.8986 158.828 13.8986 157.038 13.8986Z"
      fill="black"
      fill-opacity="0.2"
    />
    <path
      d="M270.234 10.3657C270.234 10.716 270.234 11.0662 270.234 11.4622C268.097 11.4622 265.989 11.4622 263.809 11.4622C263.809 11.1272 263.809 10.7617 263.809 10.381C265.96 10.381 268.111 10.381 270.248 10.381L270.234 10.3657Z"
      fill="black"
      fill-opacity="0.2"
    />
    <path
      d="M157.197 7.36548C158.828 7.36548 160.417 7.36548 162.048 7.36548C162.048 7.8528 162.048 8.30966 162.048 8.82743C160.445 8.82743 158.843 8.82743 157.197 8.82743C157.197 8.37057 157.197 7.89848 157.197 7.36548Z"
      fill="black"
      fill-opacity="0.2"
    />
    <path
      d="M140.867 36.0716C140.549 36.0716 140.29 36.0716 139.986 36.0716C139.986 33.635 139.986 31.2136 139.986 28.7466C140.275 28.7466 140.564 28.7466 140.867 28.7466C140.867 31.1984 140.867 33.635 140.867 36.0716Z"
      fill="black"
      fill-opacity="0.2"
    />
    <path
      d="M54.6271 36.0563C54.3095 36.0563 54.064 36.0563 53.7319 36.0563C53.7319 33.6197 53.7319 31.1983 53.7319 28.7161C54.0207 28.7161 54.295 28.7161 54.6271 28.7161C54.6271 31.1527 54.6271 33.5588 54.6271 36.0563Z"
      fill="black"
      fill-opacity="0.2"
    />
    <path
      d="M80.2408 36.0564C79.9232 36.0564 79.6777 36.0564 79.3745 36.0564C79.3745 33.6199 79.3745 31.1985 79.3745 28.7314C79.6488 28.7314 79.9232 28.7314 80.2408 28.7314C80.2408 31.1528 80.2408 33.5589 80.2408 36.0564Z"
      fill="black"
      fill-opacity="0.2"
    />
    <path
      d="M198.331 36.0564C198.028 36.0564 197.768 36.0564 197.465 36.0564C197.465 33.6199 197.465 31.1985 197.465 28.7314C197.754 28.7314 198.013 28.7314 198.331 28.7314C198.331 31.1528 198.331 33.5742 198.331 36.0564Z"
      fill="black"
      fill-opacity="0.2"
    />
    <path
      d="M221.952 28.7161C221.952 31.1679 221.952 33.5588 221.952 36.0411C221.678 36.0563 221.403 36.0715 221.071 36.102C221.071 33.6197 221.071 31.1831 221.071 28.7161C221.36 28.7161 221.62 28.7161 221.952 28.7161Z"
      fill="black"
      fill-opacity="0.2"
    />
    <path
      d="M157.023 16.4267C157.023 15.9546 157.023 15.5739 157.023 15.1475C158.756 15.1475 160.474 15.1475 162.25 15.1475C162.25 15.5586 162.25 15.9546 162.25 16.4267C160.518 16.4267 158.799 16.4267 157.023 16.4267Z"
      fill="black"
      fill-opacity="0.2"
    />
    <path
      d="M55.2913 24.239C54.6993 23.9345 54.2517 23.7213 53.833 23.4928C54.5694 22.2898 55.2768 21.1172 56.0276 19.8684C56.4319 20.0664 56.8939 20.2948 57.5148 20.5994C56.7495 21.8481 56.0421 23.0055 55.2913 24.239Z"
      fill="black"
      fill-opacity="0.2"
    />
    <path
      d="M59.9984 19.8684C60.8791 20.9953 61.6877 22.0309 62.5395 23.1273C62.1208 23.4015 61.6588 23.7213 61.0668 24.1172C60.2583 22.9598 59.4642 21.8025 58.6123 20.5537C59.1754 20.2644 59.5941 20.0664 59.9984 19.8684Z"
      fill="black"
      fill-opacity="0.2"
    />
    <path
      d="M140.881 8.90374C140.376 9.3606 140.044 9.6804 139.712 9.98498C138.629 9.33014 137.546 8.66008 136.376 7.94433C136.651 7.63976 136.882 7.30473 137.185 7.04584C137.301 6.93924 137.56 6.90878 137.69 6.98492C138.701 7.56361 139.697 8.18799 140.881 8.90374Z"
      fill="black"
      fill-opacity="0.2"
    />
    <path
      d="M96.0648 11.9797C96.9311 12.665 97.7974 13.3655 98.7359 14.1118C98.3172 14.5838 97.9851 14.9646 97.6386 15.3453C96.7145 14.6143 95.8049 13.9138 94.8809 13.1676C95.2563 12.7869 95.6172 12.4214 96.0648 11.9797Z"
      fill="black"
      fill-opacity="0.2"
    />
    <path
      d="M96.1948 7.98984C96.5847 7.60912 96.9456 7.24363 97.3932 6.802C98.2884 7.50252 99.198 8.21827 100.165 8.96448C99.7322 9.45179 99.3857 9.81728 99.0536 10.1828C98.1151 9.46702 97.2055 8.7665 96.1948 7.98984Z"
      fill="black"
      fill-opacity="0.2"
    />
    <path
      d="M238.96 8.34027C239.336 7.94433 239.682 7.57884 240.101 7.13721C240.881 7.7159 241.675 8.30982 242.541 8.94942C242.137 9.42151 241.805 9.80223 241.473 10.1829C240.621 9.55857 239.798 8.96465 238.96 8.34027Z"
      fill="black"
      fill-opacity="0.2"
    />
    <path
      d="M239.48 11.0356C240.188 11.523 240.996 12.1017 241.891 12.7413C241.502 13.1829 241.169 13.5636 240.823 13.9748C239.957 13.3809 239.105 12.7869 238.253 12.2083C238.628 11.8275 238.989 11.4773 239.48 11.0356Z"
      fill="black"
      fill-opacity="0.2"
    />
  </g>
  <defs>
    <clipPath id="clip0_709_7495">
      <rect
        width="274.977"
        height="35.7113"
        fill="white"
        transform="translate(0.498047 0.588867)"
      />
    </clipPath>
  </defs>
</svg>
