<svg viewBox="0 0 191 46" fill="none" xmlns="http://www.w3.org/2000/svg">
  <path
    d="M190.163 29.0594C188.878 31.1789 188.022 31.5136 185.322 30.9186C185.322 31.6995 185.303 32.4618 185.322 33.224C185.34 33.7074 185.247 33.9119 184.689 33.9305C182.547 33.9677 182.547 34.0049 182.547 31.8854C182.547 27.5349 182.547 23.1843 182.547 18.8338C182.547 17.4022 182.976 16.9746 184.428 16.956C185.824 16.9374 187.221 16.956 188.617 16.956C189.362 16.956 189.921 17.1977 190.181 17.96C190.181 18.5735 190.181 19.1871 190.181 19.8192C189.66 20.7488 189.623 21.8457 189.176 22.8125C189.083 23.017 188.971 23.2215 189.083 23.426C189.586 24.3928 189.753 25.4898 190.181 26.4751C190.163 27.3304 190.163 28.2042 190.163 29.0594ZM185.322 23.9094C185.322 25.2852 185.359 26.6796 185.303 28.0555C185.284 28.7248 185.601 28.8549 186.122 28.8177C186.7 28.7805 187.091 28.5017 187.24 27.8881C187.519 26.7726 187.277 25.7315 186.7 24.8019C186.141 23.8723 186.122 23.0542 186.662 22.1432C187.016 21.5297 187.202 20.8418 187.277 20.1353C187.333 19.7076 187.575 19.0941 186.774 19.1871C186.234 19.2428 185.247 18.6107 185.303 19.9679C185.359 21.2694 185.322 22.5894 185.322 23.9094Z"
    fill="#4C4948"
  />
  <path
    d="M180.499 45.532C179.81 44.9185 179.177 44.3049 180.257 43.4869C180.443 43.3567 180.238 43.2266 180.164 43.115C180.089 42.9477 179.922 42.6874 179.978 42.6316C180.573 41.9251 180.071 41.3302 179.903 40.6423C179.68 39.7313 180.48 38.9318 181.598 38.8761C182.305 38.8389 183.031 38.876 183.739 38.9318C184.037 38.9504 184.577 38.6529 184.614 39.2665C184.651 39.9544 184.037 39.471 183.795 39.6941C184.167 41.3488 183.497 42.1111 181.765 42.0553C181.449 42.0367 180.983 41.8508 180.946 42.3528C180.89 42.8919 181.43 42.8362 181.765 42.8547C182.287 42.9105 182.826 42.8733 183.348 42.9105C183.962 42.9477 184.558 43.0779 184.688 43.8029C184.819 44.528 184.316 44.9185 183.757 45.2345C183.553 45.3461 183.236 45.2345 183.124 45.532C182.231 45.532 181.374 45.532 180.499 45.532ZM182.026 43.6728C181.877 43.6728 181.653 43.6728 181.43 43.6356C181.02 43.5798 180.76 43.7286 180.667 44.119C180.573 44.528 180.853 44.7325 181.207 44.8441C181.747 45.0114 182.286 45.03 182.845 44.8441C183.217 44.7139 183.608 44.5652 183.59 44.1376C183.553 43.6356 183.087 43.6914 182.733 43.6728C182.51 43.6542 182.286 43.6728 182.026 43.6728ZM182.92 40.5865C182.92 39.88 182.547 39.5454 181.951 39.5268C181.337 39.5082 180.927 39.8242 180.909 40.4564C180.89 41.0513 181.262 41.4418 181.877 41.4603C182.51 41.4603 182.864 41.1443 182.92 40.5865Z"
    fill="#585655"
  />
  <path
    d="M59.9741 45.5319C59.7879 44.9556 59.8624 44.6581 60.6072 44.6023C61.3706 44.5651 61.7616 43.7471 61.445 43.0406C60.8306 41.702 60.2161 40.3819 59.5645 39.0061C60.3092 38.7458 60.7375 38.876 60.9982 39.6383C61.3147 40.5679 61.743 41.4603 62.1712 42.52C62.5436 41.4975 62.8601 40.5865 63.1953 39.694C63.4932 38.8574 63.5118 38.8574 64.5359 38.9875C63.7725 40.8467 63.1394 42.7245 62.2271 44.4908C61.9105 45.1043 61.2775 45.2716 60.7003 45.5133C60.4768 45.5319 60.2348 45.5319 59.9741 45.5319Z"
    fill="#585655"
  />
  <path
    d="M185.526 45.5321C185.452 45.0487 185.396 44.6582 186.122 44.621C187.016 44.5653 187.351 43.7844 186.96 42.9292C186.364 41.6277 185.75 40.3263 185.135 39.0063C185.917 38.746 186.346 38.9319 186.606 39.6756C186.904 40.568 187.314 41.4418 187.761 42.5201C188.114 41.572 188.45 40.8097 188.654 40.0102C188.859 39.1736 189.269 38.7274 190.163 38.8575C190.163 38.9877 190.163 39.0992 190.163 39.2294C189.343 40.4936 188.971 41.9252 188.412 43.301C188.003 44.305 187.5 45.123 186.457 45.5321C186.141 45.5321 185.824 45.5321 185.526 45.5321Z"
    fill="#585655"
  />
  <path
    d="M76.5083 34.0607C76.7317 33.4472 76.8993 33.001 77.0669 32.5362C77.7744 30.5468 79.1337 29.5986 81.3122 29.6916C83.6583 29.7845 86.0229 29.7102 88.369 29.7102C88.8718 29.7102 89.3745 29.6916 89.84 29.6172C90.4358 29.5057 90.7523 29.0966 90.7151 28.4831C90.6779 27.8696 90.1937 27.7766 89.7096 27.7766C87.7546 27.758 85.7995 27.758 83.8631 27.758C79.5247 27.758 77.7186 25.1365 79.2082 21.1021C80.195 18.4434 82.6342 16.7329 85.483 16.7329C94.9045 16.7329 104.326 16.7329 113.729 16.7144C114.492 16.7144 114.641 16.8631 114.437 17.6254C113.524 20.8418 113.189 21.1021 109.782 21.1021C109.558 21.1021 109.353 21.1021 109.13 21.1021C106.858 21.1021 106.877 21.1021 106.449 23.3517C105.834 26.6797 105.183 30.0077 104.568 33.3356C104.475 33.8748 104.252 34.1165 103.656 34.0793C102.799 34.0235 101.924 34.0793 101.049 34.0607C99.5222 34.0235 98.8519 33.2055 99.1312 31.7181C99.727 28.5389 100.341 25.3596 100.956 22.199C101.161 21.1021 101.179 21.1021 100.025 21.1021C95.5376 21.1021 91.0316 21.1021 86.5443 21.1021C86.1347 21.1021 85.7436 21.0835 85.3526 21.2136C84.7196 21.4181 84.3099 21.8272 84.3844 22.4965C84.4589 23.1844 85.0361 23.3331 85.6319 23.3331C87.5125 23.3331 89.4117 23.3889 91.2923 23.3331C95.3886 23.203 97.0272 25.5642 95.91 29.5243C95.0535 32.5919 93.0612 34.0421 89.84 34.0421C85.483 34.0607 81.0515 34.0607 76.5083 34.0607Z"
    fill="#4285F4"
  />
  <path
    d="M49.7334 23.8723C48.039 25.5456 46.3446 27.2189 44.6688 28.9108C43.9054 29.6916 42.993 30.1564 41.8945 30.2494C40.5539 30.361 39.4739 29.9705 38.7478 28.762C37.7609 27.1259 36.7555 25.5084 35.6197 23.6864C35.2845 25.4155 34.9866 26.9028 34.6887 28.4088C34.4466 29.6545 34.2418 30.9001 33.9625 32.1272C33.6646 33.4472 32.864 34.0608 31.5233 34.0794C30.5924 34.0979 29.6614 34.0422 28.7304 34.0979C28.0601 34.1351 27.8739 33.9306 28.0042 33.2799C28.4883 30.9187 28.9166 28.5575 29.3821 26.2149C29.7731 24.1512 30.1641 22.1061 30.5737 20.0424C30.9089 18.3505 32.3054 17.0677 34.1487 16.733C35.9176 16.4169 37.1651 16.9933 38.1706 18.6666C39.3808 20.6373 40.5911 22.6081 41.8014 24.5788C42.3786 25.527 42.3972 25.527 43.2165 24.709C45.395 22.5151 47.5735 20.3213 49.7706 18.146C51.1112 16.826 52.6939 16.324 54.5372 16.9003C55.9337 17.3465 56.604 18.5736 56.3247 20.0238C55.4868 24.4301 54.6303 28.855 53.8111 33.2799C53.6994 33.8934 53.4945 34.1909 52.8056 34.1165C52.0422 34.0422 51.2602 34.1165 50.4782 34.0979C49.0444 34.0794 48.3555 33.41 48.4114 31.9785C48.4858 30.2866 49.0258 28.6505 49.2679 26.9772C49.4354 25.9175 49.8637 24.9135 49.7334 23.8723C49.752 23.8537 49.7706 23.8537 49.8078 23.8352C49.7892 23.8537 49.752 23.8537 49.7334 23.8723Z"
    fill="#4285F4"
  />
  <path
    d="M68.1851 15.8962C73.7152 15.8962 77.1226 18.4991 77.737 22.6637C78.1653 25.6199 77.104 28.2042 75.1489 30.3794C72.1325 33.7446 68.39 35.3621 63.7909 34.7857C58.205 34.0792 55.1514 28.4645 57.6464 23.2401C59.918 18.5177 63.9026 16.2123 68.1851 15.8962ZM62.562 26.9027C62.4875 28.2785 63.0833 29.3569 63.9212 30.3608C64.424 30.9744 65.0756 31.5321 65.1315 32.3874C65.1687 32.9265 65.4667 33.2612 65.8949 33.2612C66.3232 33.2426 66.2487 32.7034 66.2859 32.3688C66.379 31.4392 66.4535 30.5096 67.2355 29.8403C68.4272 28.8177 69.0789 27.4791 69.4885 25.9917C69.7119 25.1551 69.8981 24.3184 70.3264 23.5562C70.8477 22.608 71.4622 21.7155 71.2201 20.5442C71.1829 20.3955 71.3132 20.191 71.3877 20.0237C71.5367 19.7262 72.0766 19.4473 71.667 19.0941C71.1643 18.6665 70.2892 17.9785 70.0099 18.1459C69.1906 18.6479 68.1665 18.685 67.4962 19.4473C66.0997 21.009 64.7219 22.5894 63.4744 24.2998C62.8972 25.0621 62.5061 25.9173 62.562 26.9027Z"
    fill="#4285F4"
  />
  <path
    d="M161.321 29.9518C162.308 30.5839 163.369 30.9558 164.43 31.216C165.119 31.3834 165.287 31.6808 165.268 32.3316C165.231 34.042 165.25 34.042 163.611 33.5958C162.14 33.2054 160.707 32.6848 159.385 31.9597C158.789 31.6251 158.342 31.6808 157.765 31.9597C156.126 32.7592 154.376 33.2983 152.626 33.7817C152.123 33.9119 151.918 33.8933 151.899 33.2798C151.844 31.3834 151.825 31.402 153.631 30.7512C154.376 30.491 155.121 30.1935 155.828 29.9146C155.437 29.4684 155.102 29.0408 154.73 28.6503C153.855 27.7393 153.017 26.7725 152.644 25.5269C152.235 24.1511 152.998 23.1285 154.432 23.0913C154.934 23.0727 155.419 23.1099 155.921 23.0913C156.35 23.0727 157.001 23.3144 157.132 22.9798C157.336 22.4778 157.243 21.8457 157.225 21.2507C157.206 20.8603 156.852 21.009 156.647 20.9904C155.623 20.9718 154.599 20.9347 153.575 20.9718C152.998 20.9904 152.775 20.8417 152.775 20.2096C152.793 18.685 152.756 18.685 154.264 18.685C155.046 18.685 155.81 18.6478 156.592 18.7036C157.132 18.7408 157.318 18.5363 157.243 18.0343C157.225 17.8856 157.225 17.7182 157.243 17.5695C157.318 16.7143 157.914 16.1937 158.696 16.2309C159.459 16.2681 160.073 16.8072 159.98 17.6253C159.869 18.6478 160.316 18.778 161.172 18.7222C162.103 18.6478 163.034 18.7036 163.965 18.7036C164.673 18.7222 165.175 19.0383 165.213 19.7819C165.25 20.5814 164.747 20.9532 163.984 20.9904C162.904 21.0276 161.805 21.0276 160.725 20.9904C160.167 20.9718 159.906 21.102 159.999 21.6969C160.036 21.9386 160.036 22.1989 159.999 22.4406C159.943 22.9426 160.092 23.1657 160.651 23.1285C161.414 23.0913 162.196 23.1099 162.978 23.1099C164.542 23.1285 165.306 24.1883 164.784 25.6384C164.244 27.163 163.164 28.3157 161.954 29.3568C161.786 29.5614 161.582 29.7287 161.321 29.9518ZM158.696 25.4153C157.951 25.4153 157.206 25.4153 156.48 25.4153C156.275 25.4153 156.014 25.3967 155.94 25.657C155.865 25.8615 156.033 26.0103 156.145 26.1404C156.796 26.8841 157.541 27.5162 158.323 28.1484C158.528 28.3157 158.714 28.3901 158.975 28.2041C159.794 27.5906 160.576 26.9585 161.228 26.159C161.638 25.6384 161.395 25.4525 160.856 25.4339C160.129 25.3967 159.422 25.4153 158.696 25.4153Z"
    fill="#4C4948"
  />
  <path
    d="M126.633 23.6677C127.694 24.7646 128.644 25.6757 129.37 26.7912C129.761 27.3861 129.817 27.9439 129.258 28.4459C128.755 28.9107 128.01 28.7991 127.564 28.2042C127.266 27.8323 127.005 27.4419 126.558 26.8098C126.558 29.0966 126.521 31.0859 126.577 33.0567C126.595 33.726 126.446 33.9491 125.72 33.9305C123.765 33.8933 123.765 33.9305 123.765 31.9412C123.765 30.5282 123.765 29.1152 123.747 27.6836C123.747 27.665 123.709 27.6464 123.616 27.572C122.76 28.5574 121.81 29.4312 120.563 30.2865C120.563 29.1895 120.563 28.2228 120.563 27.256C120.563 26.9027 120.861 26.8098 121.065 26.6424C122.071 25.8244 122.89 24.8576 123.765 23.6491C122.797 23.6491 122.034 23.6119 121.289 23.6677C120.73 23.7049 120.544 23.5376 120.544 22.9612C120.544 21.3437 120.507 21.3437 122.145 21.3437C122.369 21.3437 122.592 21.3065 122.797 21.3437C123.653 21.511 123.858 21.1392 123.784 20.3397C123.747 19.9121 123.672 19.7448 123.207 19.782C122.555 19.8378 121.903 19.782 121.252 19.8378C120.693 19.8935 120.581 19.6704 120.581 19.1684C120.581 17.6439 120.544 17.6439 122.071 17.5137C123.914 17.3464 125.776 17.1977 127.601 16.863C128.55 16.6957 129.146 17.0118 129.295 17.7183C129.444 18.3876 128.997 18.8896 128.066 19.1313C127.955 19.1684 127.824 19.2056 127.713 19.2242C126.577 19.4659 126.316 19.8935 126.54 21.0276C126.614 21.3995 126.856 21.3437 127.08 21.3437C127.582 21.3623 128.066 21.3251 128.569 21.3623C129.239 21.4181 129.686 21.7899 129.705 22.4778C129.705 23.2029 129.239 23.5933 128.532 23.6491C127.992 23.6863 127.433 23.6677 126.633 23.6677Z"
    fill="#4C4948"
  />
  <path
    d="M63.1396 1.69195C66.0443 1.59899 68.8745 2.00802 71.5743 3.12354C74.1066 4.16469 76.0989 5.74501 76.6017 8.70115C80.0463 6.35855 83.6213 4.35061 87.5128 2.9748C87.7548 3.64411 88.0155 4.29484 88.2576 4.96415C85.5949 6.22841 83.0813 7.73436 80.698 9.42623C78.7988 10.7649 76.974 12.2708 75.2983 13.9255C75.0748 14.1486 74.8886 14.5019 74.4045 14.4275C74.7025 13.2562 74.9817 12.0663 74.8328 10.8392C74.4604 7.93887 72.5612 6.37714 70.0103 5.41036C68.0552 4.66668 65.9698 4.49935 63.9031 4.3878C64.052 3.38383 63.2141 2.64015 63.1396 1.69195Z"
    fill="#F4B81D"
  />
  <path
    d="M149.833 29.7101C149.833 30.4166 149.795 31.1231 149.833 31.8296C149.889 32.8336 149.33 33.3542 148.455 33.6516C147.412 34.0049 146.369 33.7632 145.327 33.6702C145.066 33.6516 144.936 33.5215 144.936 33.2612C144.936 32.6477 144.936 32.0341 144.936 31.4206C144.936 31.1045 145.085 31.0674 145.345 31.1045C145.643 31.1417 145.96 31.1417 146.276 31.1603C146.798 31.1789 147.096 30.993 147.058 30.4166C147.021 29.989 147.058 29.5614 147.058 29.1152C147.04 28.5574 147.207 27.8695 146.947 27.4977C146.649 27.0887 145.997 27.5721 145.476 27.6092C145.085 27.6278 144.898 27.5906 144.936 27.163C144.954 27.0143 144.954 26.847 144.936 26.6982C144.75 25.6757 145.141 25.1551 146.22 25.1737C146.872 25.1737 147.133 24.8762 147.077 24.2069C147.002 23.5004 147.021 22.7939 147.077 22.0874C147.114 21.5111 146.928 21.3623 146.351 21.3437C144.936 21.3251 144.973 21.288 144.936 19.8564C144.917 19.1685 145.141 19.0383 145.774 19.0755C147.021 19.1127 147.021 19.0755 147.077 17.867C147.114 16.8445 147.617 16.2495 148.473 16.2495C149.349 16.2495 149.889 16.8073 149.833 17.8484C149.795 18.7037 149.851 19.2428 150.95 19.1313C151.564 19.0755 151.974 19.5775 151.993 20.2096C152.011 20.8789 151.602 21.4181 150.913 21.3437C149.851 21.2322 149.74 21.7713 149.833 22.5894C149.851 22.8311 149.851 23.0728 149.833 23.3331C149.814 24.0024 149.646 24.7089 150.82 24.3556C151.359 24.1883 151.806 24.6531 151.955 25.2295C152.104 25.8058 151.825 26.252 151.285 26.5123C151.062 26.6239 150.801 26.6796 150.559 26.6796C149.944 26.6796 149.777 26.9771 149.814 27.5535C149.87 28.2414 149.833 28.9851 149.833 29.7101Z"
    fill="#4C4948"
  />
  <path
    d="M171.413 20.0422C169.755 19.9306 169.793 19.9306 169.793 18.3875C169.793 17.774 170.016 17.6624 170.556 17.681C171.58 17.7182 172.604 17.681 173.628 17.6996C174.075 17.7182 174.392 17.681 174.503 17.1418C174.652 16.4911 175.174 16.175 175.807 16.175C176.459 16.175 176.98 16.5283 177.092 17.1604C177.185 17.681 177.483 17.681 177.874 17.681C178.674 17.6624 179.494 17.681 180.294 17.681C181.076 17.6624 181.653 17.9413 181.728 18.7779C181.802 19.4658 181.207 19.9306 180.276 19.9678C180.127 19.9678 179.978 19.9678 179.717 19.9678C180.034 20.6557 179.885 21.3064 179.661 21.92C179.456 22.4963 179.549 22.7194 180.182 22.6637C180.48 22.6451 180.816 22.6637 181.095 22.7938C181.579 23.0355 181.821 23.4631 181.691 24.0209C181.542 24.6344 181.113 24.9505 180.48 24.9505C179.177 24.9505 177.874 24.9505 176.57 24.9505C174.597 24.9505 172.604 24.9319 170.631 24.9691C169.998 24.9877 169.7 24.8389 169.811 24.1696C169.83 24.0581 169.83 23.9279 169.811 23.7978C169.644 22.8868 169.979 22.5521 170.947 22.6265C172.139 22.7194 172.157 22.6451 171.562 21.5296C171.282 21.0833 171.096 20.6185 171.413 20.0422ZM173.386 20.0236C173.684 20.7115 174.001 21.3436 174.224 21.9944C174.41 22.5707 174.708 22.7194 175.304 22.7194C177.166 22.7009 177.166 22.7194 177.613 20.8974C177.687 20.6185 177.762 20.3211 177.836 20.0422C176.347 20.0236 174.894 20.0236 173.386 20.0236Z"
    fill="#4C4948"
  />
  <path
    d="M14.7655 28.3902C13.0338 30.2308 11.3022 32.0714 9.57057 33.9306C9.32852 34.1909 9.08646 34.2653 8.75131 34.2653C5.84664 34.2653 2.92336 34.2653 0.0186893 34.2653C-0.111648 33.9492 0.167647 33.8748 0.297984 33.7633C4.07777 30.3423 8.00652 27.1073 12.047 23.9839C12.1215 23.9281 12.2146 23.9095 12.289 23.8723C13.0152 24.5044 13.0338 25.5084 13.4993 26.2707C13.9462 26.9586 13.8717 27.9626 14.7655 28.3902Z"
    fill="#E07B06"
  />
  <path
    d="M138.642 21.9386C138.642 23.2958 138.642 24.653 138.642 26.0102C138.642 26.4193 138.605 26.7353 139.219 26.5494C139.964 26.3263 140.578 26.5494 140.82 27.3675C141.025 28.0368 140.578 28.6317 139.629 28.7804C138.791 28.9106 138.586 29.2824 138.642 30.0447C138.698 31.1416 138.642 32.2572 138.661 33.3727C138.661 33.7631 138.567 33.9676 138.158 33.9118C138.121 33.9118 138.102 33.9118 138.065 33.9118C135.886 34.0234 135.886 34.0234 135.868 31.8109C135.868 31.0859 136.184 30.1191 135.737 29.6729C135.328 29.2638 134.397 29.7472 133.689 29.803C132.888 29.8774 132.088 29.9146 131.287 30.0261C130.729 30.1005 130.617 29.896 130.617 29.3754C130.598 27.8323 130.58 27.8323 132.106 27.6463C133.112 27.5162 134.117 27.3303 135.141 27.2745C135.756 27.2373 135.886 26.9956 135.886 26.4193C135.868 23.649 135.868 20.8788 135.868 18.1086C135.868 16.863 136.352 16.2308 137.283 16.2494C138.195 16.268 138.661 16.9001 138.661 18.1644C138.642 19.4101 138.642 20.6743 138.642 21.9386Z"
    fill="#4C4948"
  />
  <path
    d="M175.863 33.9118C174.41 33.9118 172.958 33.8933 171.506 33.9304C170.929 33.949 170.686 33.8189 170.705 33.1868C170.742 31.4391 170.705 29.6729 170.724 27.9252C170.724 26.6052 171.208 26.1404 172.511 26.1218C174.764 26.1218 177.036 26.1032 179.289 26.1218C180.48 26.1218 180.983 26.6238 181.002 27.8137C181.02 29.6357 180.983 31.4391 181.02 33.2611C181.039 33.8003 180.853 33.949 180.331 33.9304C178.842 33.8933 177.352 33.9118 175.863 33.9118ZM175.732 31.6436C178.339 31.6436 178.339 31.6436 178.209 29.1709C178.209 29.1337 178.209 29.1151 178.209 29.0779C178.227 28.5202 177.948 28.3156 177.408 28.3342C176.328 28.3528 175.248 28.3528 174.168 28.3342C173.628 28.3342 173.405 28.5202 173.368 29.0779C173.2 31.6436 173.182 31.6436 175.732 31.6436Z"
    fill="#4C4948"
  />
  <path
    d="M14.7654 28.3901C13.8717 27.9625 13.9461 26.9585 13.5179 26.252C13.0524 25.4897 13.0524 24.4858 12.3076 23.8536C14.7282 21.8457 17.3349 20.0609 19.9417 18.2946C21.152 17.458 22.3436 16.5656 23.6656 15.8962C23.8518 15.9148 24.0194 15.9892 24.1125 16.1751C24.6338 17.2163 25.1179 18.2574 25.3786 19.3915C21.6361 22.1618 18.1728 25.2294 14.7654 28.3901Z"
    fill="#E38209"
  />
  <path
    d="M47.5547 7.51129C42.8625 9.24035 38.338 11.3227 34.0182 13.8326C33.7575 13.9813 33.4782 14.1115 33.1989 14.2602C32.9569 13.1261 32.4728 12.1035 31.877 11.1181C35.2657 9.14739 38.8593 7.56707 42.5088 6.13548C43.8494 5.6149 45.2272 5.1687 46.5865 4.6853C46.8658 5.6335 47.5361 6.45155 47.5547 7.51129Z"
    fill="#E5890B"
  />
  <path
    d="M47.5546 7.51115C47.5546 6.47 46.8657 5.63336 46.5864 4.68516C51.9489 2.86315 57.4231 1.61748 63.1393 1.71044C63.2138 2.65863 64.0517 3.38372 63.8655 4.40628C58.2423 4.40628 52.8612 5.74491 47.5546 7.51115Z"
    fill="url(#paint0_linear_709_7440)"
  />
  <path
    d="M88.2389 4.96409C87.9969 4.29477 87.7362 3.64405 87.4941 2.97474C90.3616 1.71048 93.3966 0.9668 96.4874 0.464816C102.334 -0.464786 108.087 -0.055761 113.673 1.98936C113.971 2.10091 114.362 2.08232 114.474 2.47275C114.362 2.77023 114.139 2.62149 114.009 2.58431C105.388 -0.148721 97.1019 0.9668 89.0023 4.62943C88.7603 4.74098 88.4996 4.85253 88.2389 4.96409Z"
    fill="#FACD30"
  />
  <path
    d="M31.8772 11.0996C32.4544 12.085 32.9385 13.1075 33.1992 14.2417C30.5552 15.8964 27.9485 17.6068 25.3976 19.3917C25.1369 18.2575 24.6342 17.2164 24.1314 16.1752C24.0383 15.9893 23.8708 15.9149 23.6846 15.8964C26.3099 14.1301 29.047 12.5312 31.8772 11.0996Z"
    fill="#E5890B"
  />
  <path
    d="M32.9572 39.2293C32.4917 40.3076 32.0262 41.3674 31.5793 42.4457C31.4676 42.706 31.3931 42.9291 31.0208 42.9477C30.6297 42.9663 30.5553 42.706 30.4622 42.4643C29.9781 41.3302 29.4939 40.1961 28.9167 39.0805C28.9912 40.3262 28.9167 41.5533 28.9167 42.7804C28.9167 43.0964 29.1216 43.524 28.4512 43.5426C27.7437 43.5612 27.9299 43.0964 27.9299 42.7432C27.9113 41.2372 27.9113 39.7313 27.9299 38.2253C27.9299 37.9464 27.6692 37.4816 28.2278 37.4259C28.7119 37.3701 29.2333 37.2771 29.4753 37.9836C29.9036 39.2293 30.4808 40.4192 31.0208 41.7206C31.5607 40.4192 32.1193 39.2293 32.5476 38.0022C32.7896 37.2771 33.311 37.3887 33.7951 37.4259C34.4282 37.4816 34.093 38.0208 34.093 38.2997C34.1302 39.8056 34.1116 41.3116 34.1116 42.8175C34.1116 43.1522 34.2606 43.5612 33.6275 43.5612C32.9572 43.5612 33.0503 43.1708 33.0689 42.7804C33.1062 41.5719 33.1434 40.382 33.162 39.1921C33.1434 39.0991 33.1248 38.9876 33.0875 38.876C33.0689 38.969 33.0131 39.0991 32.9572 39.2293Z"
    fill="#585655"
  />
  <path
    d="M132.237 39.192C132.237 38.5412 132.256 37.9835 132.237 37.4443C132.219 37.0167 132.368 36.8494 132.814 36.8494C133.261 36.8494 133.41 36.9981 133.392 37.4443C133.373 39.2849 133.373 41.1255 133.392 42.9661C133.392 43.7842 132.814 43.6912 132.498 43.4124C132.2 43.1335 132.07 43.245 131.828 43.3566C130.729 43.8586 129.668 43.6912 129.053 42.929C128.42 42.1481 128.383 40.6607 128.979 39.8055C129.575 38.9503 130.599 38.6342 131.697 39.006C131.828 39.0432 131.977 39.099 132.237 39.192ZM132.237 41.1999C132.237 39.9542 132.032 39.6382 131.139 39.6196C130.282 39.601 129.705 40.2703 129.724 41.2929C129.742 42.2782 130.208 42.836 131.046 42.8174C131.939 42.8174 132.237 42.4084 132.237 41.1999Z"
    fill="#585655"
  />
  <path
    d="M81.4986 43.6728C80.6793 43.617 79.9904 43.4682 79.3759 43.0778C79.2084 42.9663 78.8174 42.8919 79.0594 42.5758C79.2456 42.3341 79.4318 41.9809 79.8787 42.2784C80.4 42.6502 80.9959 42.7989 81.6289 42.7618C82.1503 42.7246 82.653 42.613 82.7833 42.0367C82.8951 41.4603 82.411 41.2558 81.9827 41.0699C81.3869 40.8282 80.7724 40.6237 80.1766 40.3448C79.5808 40.0659 79.1711 39.5825 79.2084 38.8946C79.2456 38.2067 79.6739 37.7791 80.2883 37.5188C81.2938 37.0912 82.2806 37.1841 83.2302 37.7047C83.4164 37.7977 83.7702 37.8906 83.5654 38.2253C83.3978 38.467 83.193 38.7273 82.8206 38.467C82.3365 38.1509 81.7779 38.0766 81.2193 38.1509C80.8469 38.2067 80.4745 38.3554 80.4187 38.7831C80.3442 39.2293 80.6421 39.4524 80.9959 39.6011C81.5358 39.8242 82.0944 40.0101 82.6344 40.2332C83.3978 40.5307 84.0309 40.9769 83.9564 41.9065C83.8819 42.8919 83.193 43.3195 82.3179 43.524C82.0199 43.5984 81.722 43.6356 81.4986 43.6728Z"
    fill="#585655"
  />
  <path
    d="M154.115 39.4522C154.73 39.1176 155.288 38.8015 155.958 38.8387C156.852 38.8945 157.355 39.3593 157.411 40.1959C157.485 41.1441 157.429 42.1109 157.448 43.0591C157.467 43.5239 157.225 43.5239 156.871 43.5239C156.517 43.5239 156.294 43.4867 156.294 43.0405C156.331 42.2411 156.294 41.4416 156.294 40.6421C156.294 40.0286 156.014 39.5824 155.363 39.6754C154.767 39.7497 154.096 39.8799 154.078 40.7165C154.078 41.4602 154.059 42.1853 154.078 42.929C154.096 43.3194 154.041 43.5611 153.538 43.5425C153.128 43.5239 152.923 43.4681 152.942 42.9847C152.961 41.1441 152.961 39.2849 152.942 37.4443C152.942 37.0167 153.035 36.8494 153.501 36.8494C153.966 36.8494 154.096 36.9981 154.078 37.4443C154.096 38.0578 154.115 38.7086 154.115 39.4522Z"
    fill="#585655"
  />
  <path
    d="M98.6099 41.1815C98.6099 40.6052 98.6099 40.0102 98.6099 39.4339C98.6099 39.2294 98.554 38.9691 98.8706 38.9319C99.094 38.9133 99.4478 38.8017 99.5223 39.0992C99.6712 39.6942 99.9133 39.3409 100.155 39.2108C101.906 38.2812 103.06 38.9691 103.097 40.9212C103.116 41.5905 103.079 42.2784 103.116 42.9478C103.134 43.394 102.967 43.5241 102.52 43.5241C102.073 43.5241 101.924 43.3754 101.943 42.9292C101.961 42.1669 101.961 41.386 101.924 40.6238C101.906 40.0288 101.664 39.564 100.975 39.6384C100.379 39.7127 99.7271 39.8615 99.7271 40.7167C99.7271 41.4604 99.7085 42.2041 99.7457 42.9292C99.7643 43.3754 99.5967 43.5055 99.1499 43.5055C98.6844 43.5241 98.5727 43.3196 98.5913 42.9106C98.6285 42.3528 98.6099 41.7765 98.6099 41.1815Z"
    fill="#585655"
  />
  <path
    d="M178.749 41.2186C178.767 42.5759 177.669 43.6356 176.254 43.6542C174.839 43.6728 173.703 42.6131 173.684 41.293C173.666 39.8614 174.746 38.8389 176.235 38.8389C177.688 38.8389 178.73 39.8428 178.749 41.2186ZM174.876 41.2372C174.876 42.2412 175.397 42.8547 176.254 42.8362C177.073 42.8176 177.557 42.2412 177.576 41.2744C177.594 40.2705 177.073 39.6383 176.254 39.6197C175.397 39.6197 174.876 40.2519 174.876 41.2372Z"
    fill="#585655"
  />
  <path
    d="M167.279 38.8389C168.75 38.8389 169.811 39.8057 169.849 41.2001C169.886 42.5759 168.731 43.6728 167.279 43.6728C165.845 43.6542 164.747 42.613 164.784 41.2558C164.803 39.8242 165.827 38.8389 167.279 38.8389ZM165.976 41.2558C165.976 42.2598 166.516 42.8547 167.372 42.8362C168.173 42.799 168.676 42.204 168.676 41.2558C168.676 40.2705 168.136 39.6197 167.316 39.6197C166.479 39.6197 165.957 40.2705 165.976 41.2558Z"
    fill="#585655"
  />
  <path
    d="M69.8797 38.8389C71.3507 38.8203 72.412 39.7871 72.4492 41.1815C72.4865 42.5759 71.3693 43.6728 69.917 43.6542C68.4646 43.6542 67.4033 42.6317 67.4033 41.2558C67.4033 39.8429 68.4088 38.8575 69.8797 38.8389ZM69.8984 39.6198C69.0791 39.6383 68.5391 40.3077 68.5577 41.293C68.5764 42.2226 69.1163 42.8362 69.917 42.8548C70.7362 42.8734 71.3134 42.204 71.3134 41.2373C71.2948 40.2705 70.7176 39.6012 69.8984 39.6198Z"
    fill="#585655"
  />
  <path
    d="M121.214 41.7764C121.214 42.1854 121.196 42.5759 121.214 42.9849C121.27 43.7286 120.618 43.71 120.414 43.4497C120.041 43.0221 119.836 43.2824 119.538 43.3939C119.222 43.5055 118.887 43.6356 118.57 43.6542C117.807 43.6728 117.118 43.4311 116.95 42.5945C116.783 41.795 117.267 41.3302 117.956 41.0513C118.421 40.8654 118.905 40.7724 119.39 40.6981C119.65 40.6609 120.097 40.8096 120.06 40.289C120.023 39.9172 119.743 39.7127 119.371 39.6383C118.905 39.5454 118.44 39.6569 118.012 39.8614C117.658 40.0288 117.416 40.0474 117.285 39.6569C117.118 39.2293 117.546 39.2479 117.751 39.1363C118.235 38.9132 118.756 38.8389 119.278 38.8389C120.544 38.8389 121.158 39.4152 121.214 40.6609C121.214 41.0327 121.196 41.4046 121.214 41.7764C121.196 41.7764 121.196 41.7764 121.214 41.7764ZM118.85 42.8919C119.352 42.706 120.116 42.7804 120.078 41.888C120.06 41.6463 120.265 41.2558 119.706 41.2558C118.905 41.2558 118.012 41.7206 118.012 42.204C117.974 42.7804 118.403 42.8176 118.85 42.8919Z"
    fill="#585655"
  />
  <path
    d="M144.34 38.8389C145.866 38.8389 146.704 39.6755 146.686 40.9584C146.686 41.3488 146.574 41.5161 146.164 41.4975C145.364 41.4789 144.563 41.5161 143.744 41.4789C143.111 41.4603 143.148 41.7764 143.371 42.1482C143.781 42.799 144.414 42.9663 145.14 42.8547C145.382 42.8176 145.624 42.7432 145.848 42.6502C146.146 42.5387 146.22 42.7618 146.332 42.9477C146.444 43.1336 146.351 43.2266 146.202 43.301C145.215 43.7472 144.228 43.8215 143.26 43.301C142.385 42.8362 141.994 42.0367 142.068 41.0885C142.142 40.0845 142.645 39.3409 143.632 39.0062C143.911 38.8946 144.228 38.8575 144.34 38.8389ZM144.414 40.8654C144.824 40.6237 145.55 41.1815 145.662 40.5307C145.755 39.9358 145.215 39.5825 144.563 39.5825C143.893 39.5825 143.278 39.8986 143.316 40.5307C143.316 41.1629 144.042 40.6423 144.414 40.8654Z"
    fill="#585655"
  />
  <path
    d="M110.229 41.4788C110.638 42.7431 111.308 43.0777 112.556 42.7803C112.854 42.7059 113.226 42.4084 113.375 42.929C113.524 43.4496 113.003 43.3938 112.742 43.4867C111.606 43.8214 110.526 43.7099 109.67 42.7988C109 42.0738 108.925 41.1999 109.279 40.3075C109.689 39.2478 110.862 38.6714 112.09 38.8945C113.003 39.0618 113.617 39.7683 113.71 40.7537C113.766 41.2743 113.673 41.5532 113.04 41.516C112.146 41.4416 111.215 41.4788 110.229 41.4788ZM111.513 40.8281C111.644 40.8281 111.774 40.8467 111.886 40.8281C112.184 40.7537 112.668 41.0512 112.724 40.5678C112.761 40.1216 112.463 39.7497 111.979 39.6382C111.644 39.5638 111.308 39.5452 110.973 39.7126C110.601 39.8985 110.229 40.2145 110.284 40.605C110.359 41.0512 110.843 40.7351 111.141 40.8095C111.253 40.8467 111.383 40.8281 111.513 40.8281Z"
    fill="#585655"
  />
  <path
    d="M122.815 41.2371C122.815 40.6235 122.815 40.01 122.815 39.3779C122.815 38.6528 123.542 38.8387 123.616 39.006C123.914 39.7311 124.231 39.2477 124.547 39.099C126.055 38.3553 127.247 39.0432 127.284 40.6979C127.303 41.4602 127.266 42.241 127.303 43.0033C127.321 43.5239 127.042 43.5053 126.67 43.5239C126.241 43.5425 126.148 43.3752 126.148 42.9847C126.167 42.2225 126.167 41.4416 126.148 40.6793C126.13 40.103 125.906 39.5824 125.236 39.6568C124.603 39.7311 123.914 39.8613 123.951 40.7723C123.97 41.516 123.933 42.2596 123.97 42.9847C123.988 43.4867 123.709 43.4867 123.337 43.5053C122.909 43.5239 122.815 43.338 122.834 42.9661C122.834 42.4084 122.815 41.8134 122.815 41.2371Z"
    fill="#585655"
  />
  <path
    d="M38.7478 41.2744C38.7478 40.6609 38.7478 40.0473 38.7478 39.4338C38.7478 39.2293 38.6733 38.9504 39.0084 38.9318C39.2319 38.9132 39.5857 38.8017 39.6601 39.0991C39.8091 39.7313 40.0698 39.3036 40.2932 39.1921C42.0435 38.2811 43.2165 38.9504 43.2351 40.9211C43.2351 41.5719 43.2165 42.2226 43.2351 42.8547C43.2537 43.3009 43.1793 43.524 42.6393 43.524C42.0621 43.524 42.0807 43.2266 42.0807 42.8361C42.0993 42.0924 42.0993 41.3488 42.0621 40.6237C42.0435 40.0287 41.7642 39.5639 41.0938 39.6569C40.498 39.7498 39.8463 39.88 39.865 40.7352C39.8836 41.4789 39.8463 42.2226 39.8836 42.9477C39.9022 43.4125 39.716 43.5054 39.2877 43.524C38.8036 43.5426 38.7292 43.3195 38.7478 42.9291C38.7664 42.3899 38.7478 41.8322 38.7478 41.2744Z"
    fill="#585655"
  />
  <path
    d="M163.555 41.7578C163.555 42.1296 163.537 42.5015 163.555 42.8733C163.593 43.3195 163.499 43.5426 162.959 43.5426C162.382 43.5426 162.401 43.2452 162.401 42.8547C162.42 42.111 162.42 41.3674 162.382 40.6423C162.364 40.0473 162.084 39.5825 161.414 39.6755C160.818 39.7685 160.167 39.8986 160.185 40.7538C160.204 41.4975 160.167 42.2412 160.204 42.9663C160.222 43.4311 160.036 43.524 159.608 43.5426C159.124 43.5612 159.049 43.3381 159.068 42.9477C159.087 41.8136 159.068 40.6609 159.087 39.5268C159.087 39.3037 158.975 38.9876 159.347 38.9504C159.589 38.9318 159.962 38.8017 160.036 39.2107C160.111 39.6011 160.278 39.4524 160.464 39.3222C160.855 39.062 161.265 38.876 161.749 38.8574C162.829 38.8203 163.388 39.2479 163.518 40.3076C163.574 40.791 163.537 41.293 163.537 41.7764C163.537 41.7578 163.537 41.7578 163.555 41.7578Z"
    fill="#585655"
  />
  <path
    d="M93.8431 41.479C94.1968 42.7061 94.8858 43.0779 96.1333 42.7804C96.4312 42.7061 96.8222 42.39 96.9712 42.9292C97.1201 43.4498 96.5988 43.4126 96.3381 43.4869C95.2023 43.8216 94.1037 43.71 93.2658 42.7804C92.6142 42.0554 92.5397 41.1629 92.9121 40.2705C93.3589 39.1922 94.5134 38.6344 95.7609 38.8761C96.6919 39.062 97.3249 39.8615 97.3622 40.8841C97.3808 41.3117 97.2691 41.5162 96.8036 41.4976C96.3009 41.4604 95.8167 41.4976 95.314 41.4976C94.8485 41.479 94.383 41.479 93.8431 41.479ZM95.0347 40.8283C95.1837 40.8283 95.3513 40.8469 95.5002 40.8283C95.7795 40.7725 96.2636 41.0514 96.3195 40.5494C96.3567 40.1218 96.0774 39.7871 95.6492 39.657C95.2954 39.564 94.923 39.5454 94.5692 39.7314C94.1968 39.9359 93.8244 40.2333 93.8989 40.6424C93.992 41.07 94.4761 40.7539 94.774 40.8469C94.8485 40.8469 94.9416 40.8283 95.0347 40.8283Z"
    fill="#585655"
  />
  <path
    d="M53.9971 43.6542C52.8986 43.6542 52.3772 43.1708 52.3027 42.1482C52.2655 41.6648 52.3027 41.1629 52.2841 40.6609C52.2655 40.2518 52.4889 39.7313 51.7069 39.6569C51.3718 39.6197 51.3345 39.0434 51.7069 39.0062C52.3958 38.9318 52.3772 38.5228 52.3958 38.058C52.4145 37.6861 52.6565 37.6304 52.9544 37.6304C53.3268 37.6304 53.4572 37.8163 53.4199 38.1509C53.3268 38.7645 53.5689 38.9876 54.1833 38.9132C54.4812 38.876 54.8164 38.8389 54.7978 39.3408C54.7792 39.8614 54.3881 39.7499 54.1275 39.7127C53.5316 39.6569 53.3641 39.8986 53.4199 40.4378C53.4572 40.9212 53.4385 41.4231 53.4385 41.9251C53.4385 42.5015 53.6434 42.9291 54.2951 42.8361C54.7047 42.7618 54.8909 42.9105 54.9281 43.2638C54.9654 43.6542 54.593 43.524 54.3881 43.617C54.2392 43.6728 54.0716 43.6542 53.9971 43.6542Z"
    fill="#585655"
  />
  <path
    d="M49.1375 38.8389C49.603 38.8389 50.0126 38.8575 50.385 39.0434C50.5898 39.1549 51.0367 39.1363 50.8133 39.564C50.6829 39.8242 50.4409 39.973 50.1244 39.7871C49.752 39.564 49.3609 39.564 48.9513 39.6197C48.6906 39.6569 48.4858 39.7871 48.4672 40.0845C48.4486 40.3448 48.5975 40.4936 48.821 40.5679C49.3051 40.7538 49.8078 40.9212 50.2919 41.1257C50.8133 41.3488 51.1671 41.702 51.1298 42.3156C51.0926 42.9291 50.7202 43.2638 50.1988 43.4683C49.3051 43.8029 48.43 43.6914 47.5921 43.301C47.4059 43.2266 47.0335 43.1708 47.2755 42.8176C47.4245 42.5945 47.5921 42.3714 47.9458 42.5945C48.3369 42.8362 48.8024 42.9849 49.2678 42.9291C49.603 42.8919 49.9754 42.8176 50.0499 42.4085C50.1057 42.0367 49.7892 41.888 49.4913 41.7578C49.1561 41.6091 48.8024 41.4975 48.4486 41.3674C47.8528 41.1257 47.2755 40.8096 47.3873 40.0473C47.499 39.2479 48.132 38.969 48.8582 38.8761C48.9513 38.8389 49.0816 38.8389 49.1375 38.8389Z"
    fill="#585655"
  />
  <path
    d="M73.9201 41.5718C73.9201 41.1814 73.9201 40.7724 73.9201 40.3819C73.9201 40.0473 73.9573 39.7684 73.4546 39.694C73.0264 39.6197 73.0636 39.0991 73.436 39.0247C73.9946 38.9132 73.9201 38.5971 73.9387 38.2439C74.0318 37.0912 75.1304 36.459 76.2476 36.8495C76.471 36.9238 76.5455 37.0168 76.4896 37.2399C76.4151 37.5188 76.2662 37.6303 75.9496 37.5931C75.3724 37.5002 75.0931 37.7605 75.0559 38.3554C75.0373 38.7644 75.0931 39.0061 75.5959 38.9504C75.8752 38.9132 76.1545 38.9132 76.1731 39.3408C76.1731 39.7684 75.9124 39.787 75.6331 39.7498C75.0745 39.6754 75.0745 40.0101 75.0745 40.4191C75.0931 41.2744 75.0559 42.1482 75.0931 43.0034C75.1118 43.4682 74.9442 43.5612 74.5159 43.5798C74.0691 43.5798 73.9201 43.431 73.9573 43.0034C73.9387 42.5014 73.9201 42.0366 73.9201 41.5718Z"
    fill="#585655"
  />
  <path
    d="M139.35 37.3887C140.094 37.3887 140.839 37.3887 141.584 37.3887C141.863 37.3887 142.049 37.4073 142.049 37.7791C142.049 38.1138 141.882 38.1695 141.584 38.1881C141.063 38.2067 140.374 37.9464 140.076 38.2997C139.703 38.7459 139.964 39.471 139.945 40.0845C139.927 40.9769 139.945 41.8693 139.945 42.7618C139.945 43.1336 140.076 43.5426 139.405 43.5426C138.754 43.5426 138.81 43.208 138.828 42.799C138.847 41.5347 138.791 40.2704 138.847 39.0248C138.884 38.2997 138.623 38.0952 137.953 38.1881C137.674 38.2253 137.394 38.1881 137.115 38.1881C136.78 38.2067 136.706 38.0208 136.706 37.7233C136.706 37.4073 136.892 37.3887 137.134 37.3887C137.879 37.3887 138.623 37.3887 139.35 37.3887Z"
    fill="#585655"
  />
  <path
    d="M134.639 25.1179C134.62 25.6385 134.471 25.9918 134.08 26.1963C133.671 26.4194 133.224 26.4566 132.87 26.1591C132.107 25.527 131.343 24.932 130.468 24.4486C130.17 24.2813 130.17 24.1326 130.375 23.8909C130.71 23.519 131.008 23.1472 131.325 22.7568C131.455 22.5894 131.604 22.4965 131.79 22.608C132.74 23.1844 133.689 23.7421 134.434 24.5974C134.583 24.7647 134.602 24.9878 134.639 25.1179Z"
    fill="#4C4948"
  />
  <path
    d="M130.636 19.3917C132.386 17.2908 131.641 17.3466 133.913 18.8525C134.248 19.0756 134.564 19.3359 134.825 19.6334C135.253 20.1168 135.253 20.6559 134.825 21.1393C134.397 21.6041 133.82 21.7157 133.336 21.3067C132.498 20.5816 131.585 19.968 130.636 19.3917Z"
    fill="#4C4948"
  />
  <path
    d="M106.952 38.8389C107.287 38.8575 107.659 38.8203 107.938 39.0248C108.125 39.1549 108.609 39.0806 108.367 39.5268C108.218 39.8057 108.032 39.9358 107.622 39.8057C106.374 39.378 105.499 40.0288 105.499 41.2744C105.499 42.4643 106.393 43.115 107.585 42.7432C107.976 42.613 108.348 42.4271 108.46 42.9477C108.572 43.3939 108.069 43.4311 107.789 43.5241C106.71 43.8587 105.685 43.7286 104.885 42.8733C104.196 42.1297 104.103 41.2001 104.512 40.289C104.978 39.2293 105.872 38.8575 106.952 38.8389Z"
    fill="#585655"
  />
  <path
    d="M150.149 38.8389C150.521 38.8575 150.875 38.8389 151.173 39.0062C151.378 39.1363 151.806 39.1363 151.601 39.5268C151.471 39.8242 151.229 39.973 150.856 39.7685C150.223 39.4338 149.627 39.5826 149.162 40.0845C148.678 40.6051 148.603 41.2372 148.845 41.888C149.143 42.6874 149.907 43.0221 150.838 42.706C151.229 42.5759 151.601 42.3899 151.713 42.9105C151.806 43.3381 151.322 43.3753 151.043 43.4683C149.963 43.8029 148.939 43.6728 148.138 42.8176C147.449 42.0739 147.337 41.1443 147.747 40.2333C148.25 39.2479 149.125 38.8575 150.149 38.8389Z"
    fill="#585655"
  />
  <path
    d="M84.8688 41.2557C84.8502 39.4523 86.8425 38.2438 88.5369 39.0432C88.7231 39.1362 89.0954 39.1548 88.9092 39.508C88.7603 39.7869 88.5927 39.9357 88.1831 39.8055C87.01 39.4151 86.1535 39.9542 86.0418 41.0512C85.9115 42.3526 86.8983 43.1335 88.2017 42.7059C88.5741 42.5757 88.872 42.4642 89.021 42.8918C89.1699 43.338 88.7044 43.3566 88.4624 43.4495C86.6563 44.156 84.8874 43.0591 84.8688 41.2557Z"
    fill="#585655"
  />
  <path
    d="M172.288 39.8056C172.288 40.4749 172.288 41.1628 172.288 41.8322C172.288 42.2412 172.157 42.6874 172.679 42.9477C172.828 43.022 172.883 43.2637 172.809 43.4497C172.735 43.6728 172.511 43.6542 172.344 43.6542C171.71 43.6542 171.208 43.4311 171.189 42.7432C171.152 40.9211 171.17 39.1177 171.152 37.2957C171.152 36.9053 171.357 36.8495 171.673 36.8681C172.008 36.8681 172.288 36.8495 172.288 37.3329C172.269 38.1323 172.288 38.969 172.288 39.8056Z"
    fill="#585655"
  />
  <path
    d="M55.8776 41.2745C55.8776 40.6609 55.8776 40.0474 55.8776 39.4339C55.8776 39.2108 55.8031 38.8947 56.1941 38.9133C56.4548 38.9319 56.7899 38.8017 56.8086 39.248C56.8272 39.6198 56.9948 39.5454 57.1996 39.3967C57.4975 39.1736 57.8513 39.062 58.205 38.9691C58.5588 38.8947 58.894 38.7832 58.8753 39.3595C58.8753 39.7499 58.894 40.0102 58.2981 39.9916C57.1809 39.9545 56.9761 40.2147 56.9761 41.3489C56.9761 41.8694 56.9575 42.39 56.9761 42.9106C57.0134 43.3754 56.883 43.5613 56.3803 43.5613C55.8962 43.5613 55.8403 43.3382 55.8403 42.9478C55.8962 42.39 55.8776 41.8322 55.8776 41.2745Z"
    fill="#585655"
  />
  <path
    d="M45.9537 41.3115C45.9537 41.8693 45.9351 42.427 45.9537 42.9662C45.991 43.4124 45.8048 43.5425 45.3765 43.5425C44.9297 43.5425 44.7993 43.3938 44.7993 42.9662C44.8179 41.7949 44.8179 40.6236 44.7993 39.4523C44.7993 39.0805 44.911 38.8945 45.3207 38.8945C45.7303 38.8945 45.9537 38.9875 45.9351 39.4523C45.9351 40.0658 45.9537 40.6794 45.9537 41.3115Z"
    fill="#585655"
  />
  <path
    d="M37.0719 41.2743C37.0719 41.7949 37.0719 42.3155 37.0719 42.836C37.0719 43.2265 37.1091 43.5425 36.5133 43.5425C35.9733 43.5425 35.9175 43.3194 35.9175 42.8918C35.9361 41.7763 35.9361 40.6794 35.9175 39.5638C35.9175 39.1362 35.9547 38.8945 36.4947 38.8945C37.0719 38.8945 37.0533 39.2106 37.0533 39.601C37.0719 40.1588 37.0719 40.7166 37.0719 41.2743Z"
    fill="#585655"
  />
  <path
    d="M91.404 41.2371C91.404 41.7949 91.3854 42.3526 91.404 42.8918C91.4413 43.3566 91.2923 43.5425 90.7896 43.5425C90.2869 43.5425 90.2496 43.3008 90.2682 42.929C90.2869 41.7949 90.2869 40.6422 90.2682 39.5081C90.2682 39.099 90.3427 38.8945 90.8268 38.8945C91.2737 38.8945 91.4227 39.0433 91.404 39.4895C91.3854 40.0658 91.404 40.6608 91.404 41.2371Z"
    fill="#585655"
  />
  <path
    d="M36.4575 36.9609C36.8672 36.9609 37.2023 37.1097 37.2023 37.5187C37.2023 37.9277 36.8486 38.0765 36.5134 38.0765C36.1596 38.0765 35.8245 37.9463 35.8245 37.5187C35.8059 37.0725 36.141 36.9795 36.4575 36.9609Z"
    fill="#585655"
  />
  <path
    d="M90.8268 38.0765C90.4731 38.0207 90.1193 37.9092 90.1379 37.4816C90.1565 37.0725 90.4917 36.9424 90.8641 36.9424C91.2365 36.9424 91.5716 37.0911 91.553 37.5001C91.5344 37.9278 91.1806 38.0393 90.8268 38.0765Z"
    fill="#585655"
  />
  <path
    d="M46.0839 37.4629C46.0839 37.9091 45.7488 38.0579 45.4136 38.0765C45.0598 38.0765 44.7247 37.9463 44.7061 37.5001C44.7061 37.1097 44.9853 36.9795 45.3205 36.9609C45.6929 36.9424 46.0094 37.0353 46.0839 37.4629Z"
    fill="#585655"
  />
  <path
    d="M32.957 39.2293C33.0129 39.0992 33.0687 38.969 33.1246 38.8389C33.1432 38.9504 33.1618 39.0434 33.1991 39.1549C33.106 39.1735 33.0315 39.2107 32.957 39.2293Z"
    fill="black"
    fill-opacity="0.2"
  />
  <path
    d="M49.7334 23.8725C49.7522 23.8537 49.7709 23.8537 49.8085 23.835C49.7709 23.835 49.7522 23.8537 49.7334 23.8725Z"
    fill="#FDFDFD"
  />
  <defs>
    <linearGradient
      id="paint0_linear_709_7440"
      x1="43.5"
      y1="6"
      x2="64"
      y2="2"
      gradientUnits="userSpaceOnUse"
    >
      <stop stop-color="#E5890B" />
      <stop offset="1" stop-color="#F4B81D" />
    </linearGradient>
  </defs>
</svg>
