<svg viewBox="0 0 146 34" fill="none" xmlns="http://www.w3.org/2000/svg">
  <g clip-path="url(#clip0_3750_268302)">
    <path
      d="M90.4195 33.3357C87.2483 33.3357 84.0986 33.3357 80.9489 33.3357C80.2419 31.5495 79.5134 29.7852 78.8063 27.999C78.6777 27.6941 78.5278 27.5852 78.2064 27.5852C74.3925 27.6069 70.6 27.6069 66.7861 27.5852C66.4647 27.5852 66.3361 27.6723 66.229 27.9772C65.5433 29.7634 64.8362 31.5495 64.1292 33.3357C61.0438 33.3357 57.9583 33.3357 54.8301 33.3357C55.2372 32.3337 55.6443 31.3535 56.0514 30.3733C59.801 21.3555 63.5721 12.3158 67.3217 3.29803C67.6431 2.53565 67.9431 1.77327 68.2645 1.03268C68.3288 0.901987 68.5002 0.771294 68.6287 0.771294C71.2856 0.749512 73.9425 0.771294 76.6208 0.749512C76.8779 0.749512 76.9636 0.880205 77.0493 1.07624C78.9991 5.75941 80.9489 10.4644 82.8988 15.1475C85.3414 21.0287 87.8054 26.9099 90.248 32.7911C90.2909 32.9871 90.3552 33.1614 90.4195 33.3357ZM76.0851 20.5931C74.9067 17.5218 73.7497 14.5158 72.5498 11.4446C71.3499 14.5376 70.1714 17.5436 68.9716 20.5931C71.3713 20.5931 73.6854 20.5931 76.0851 20.5931Z"
      fill="black"
      fill-opacity="0.2"
    />
    <path
      d="M10.1562 9.6801C6.72797 9.6801 3.38544 9.6801 0.0214844 9.6801C0.0214844 8.96129 0.0214844 8.26426 0.0214844 7.52366C3.38544 7.52366 6.7494 7.52366 10.1348 7.52366C10.1348 7.08802 10.1348 6.71772 10.1348 6.30386C6.77082 6.30386 3.40687 6.30386 0.0429108 6.30386C0.0429108 5.58505 0.0429108 4.88802 0.0429108 4.14742C3.40687 4.14742 6.77082 4.14742 10.1348 4.14742C10.1348 3.71178 10.1348 3.34148 10.1348 2.90584C6.7494 2.90584 3.38544 2.90584 0.0214844 2.90584C0.0214844 2.16525 0.0214844 1.49 0.0214844 0.792969C9.70625 0.792969 19.391 0.792969 29.0758 0.792969C29.0758 1.49 29.0758 2.18703 29.0758 2.90584C25.7118 2.90584 22.3479 2.90584 18.9625 2.90584C18.9625 3.3197 18.9625 3.71178 18.9625 4.12564C22.3264 4.12564 25.6904 4.12564 29.0758 4.12564C29.0758 4.86624 29.0758 5.54148 29.0758 6.28208C25.7118 6.28208 22.3479 6.28208 18.9625 6.28208C18.9625 6.69594 18.9625 7.08802 18.9625 7.50188C22.3264 7.50188 25.6904 7.50188 29.0758 7.50188C29.0758 8.24247 29.0758 8.9395 29.0758 9.6801C25.7118 9.6801 22.3479 9.6801 18.9411 9.6801C18.9411 17.587 18.9411 25.4504 18.9411 33.3355C18.234 33.3355 17.5483 33.3355 16.8198 33.3355C16.8198 25.4722 16.8198 17.6088 16.8198 9.70188C16.4127 9.70188 16.0271 9.70188 15.62 9.70188C15.62 17.5652 15.62 25.4286 15.62 33.3355C14.8915 33.3355 14.2272 33.3355 13.4987 33.3355C13.4987 25.4722 13.4987 17.6088 13.4987 9.70188C13.0916 9.70188 12.706 9.70188 12.2989 9.70188C12.2989 17.5652 12.2989 25.4504 12.2989 33.3355C11.5704 33.3355 10.8847 33.3355 10.1562 33.3355C10.1562 25.4722 10.1562 17.587 10.1562 9.6801ZM16.7984 2.92762C16.3913 2.92762 16.0056 2.92762 15.62 2.92762C15.62 3.34148 15.62 3.71178 15.62 4.10386C16.0271 4.10386 16.3913 4.10386 16.7984 4.10386C16.7984 3.71178 16.7984 3.34148 16.7984 2.92762ZM16.777 7.4801C16.777 7.04445 16.777 6.67416 16.777 6.30386C16.3699 6.30386 15.9842 6.30386 15.62 6.30386C15.62 6.71772 15.62 7.08802 15.62 7.4801C16.0056 7.4801 16.3913 7.4801 16.777 7.4801ZM12.2989 7.4801C12.706 7.4801 13.0702 7.4801 13.4559 7.4801C13.4559 7.06624 13.4559 6.69594 13.4559 6.30386C13.0702 6.30386 12.6845 6.30386 12.2989 6.30386C12.2989 6.71772 12.2989 7.06624 12.2989 7.4801ZM12.3203 2.92762C12.3203 3.36327 12.3203 3.73356 12.3203 4.10386C12.7274 4.10386 13.0916 4.10386 13.4559 4.10386C13.4559 3.69 13.4559 3.3197 13.4559 2.92762C13.0488 2.92762 12.706 2.92762 12.3203 2.92762Z"
      fill="black"
      fill-opacity="0.2"
    />
    <path
      d="M127.359 2.05633C127.873 2.05633 128.387 2.05633 128.945 2.05633C128.73 2.68802 128.537 3.27614 128.345 3.88604C127.616 6.04247 126.866 8.19891 126.159 10.3553C126.052 10.6385 125.923 10.7256 125.623 10.7256C124.724 10.7039 124.724 10.7256 124.424 9.85435C123.888 8.26426 123.352 6.67416 122.817 5.08406C122.774 4.97515 122.731 4.84445 122.645 4.62663C122.324 5.56327 122.045 6.41277 121.767 7.24049C121.424 8.28604 121.06 9.33158 120.717 10.3771C120.631 10.6385 120.502 10.7474 120.224 10.7474C119.303 10.7256 119.303 10.7474 118.981 9.83257C118.124 7.3494 117.289 4.84445 116.431 2.36129C116.41 2.27416 116.389 2.18703 116.367 2.0999C116.903 2.0999 117.417 2.0999 117.974 2.0999C118.617 4.14742 119.281 6.21673 119.967 8.39495C120.181 7.76327 120.353 7.21871 120.524 6.69594C120.995 5.2801 121.467 3.86426 121.895 2.44841C122.002 2.14346 122.109 2.01277 122.431 2.03455C122.709 2.05633 122.988 2.03455 123.288 2.03455C123.974 4.10386 124.638 6.17317 125.302 8.22069C125.345 8.22069 125.366 8.22069 125.409 8.24247C126.052 6.17317 126.716 4.14742 127.359 2.05633Z"
      fill="black"
      fill-opacity="0.2"
    />
    <path
      d="M146 10.6171C145.936 10.6389 145.914 10.6389 145.871 10.6389C145.078 10.7914 144.564 10.4647 144.093 9.78942C142.936 8.15576 141.672 6.58744 140.472 4.99734C140.386 4.88843 140.3 4.8013 140.15 4.62704C140.15 6.69635 140.15 8.65675 140.15 10.6171C139.636 10.6171 139.165 10.6171 138.693 10.6171C138.693 7.76368 138.693 4.932 138.693 2.03497C139.122 2.03497 139.55 2.01318 139.958 2.03497C140.065 2.03497 140.172 2.16566 140.236 2.25279C141.543 3.9518 142.85 5.67259 144.157 7.3716C144.264 7.50229 144.35 7.63299 144.521 7.82903C144.521 5.84685 144.521 3.93002 144.521 2.01318C145.036 2.01318 145.507 2.01318 146 2.01318C146 4.91021 146 7.76368 146 10.6171Z"
      fill="black"
      fill-opacity="0.2"
    />
    <path
      d="M128.281 29.3716C128.281 27.3459 128.281 25.429 128.281 23.4904C128.774 23.4904 129.224 23.4904 129.738 23.4904C129.738 26.3221 129.738 29.1756 129.738 32.0726C129.374 32.0726 129.009 32.0944 128.645 32.0508C128.517 32.029 128.367 31.8983 128.281 31.7894C126.888 29.9815 125.496 28.1518 124.124 26.3439C124.06 26.2568 123.996 26.1914 123.867 26.0171C123.867 28.0647 123.867 30.0251 123.867 32.029C123.353 32.029 122.881 32.029 122.389 32.029C122.389 29.1973 122.389 26.3439 122.389 23.4469C122.796 23.4469 123.224 23.4251 123.631 23.4686C123.76 23.4686 123.889 23.6429 123.974 23.7518C125.324 25.5162 126.674 27.2805 128.024 29.0667C128.11 29.1538 128.152 29.2191 128.281 29.3716Z"
      fill="black"
      fill-opacity="0.2"
    />
    <path
      d="M105.633 23.5118C107.09 23.5118 108.547 23.4465 110.004 23.5336C111.439 23.6207 112.361 24.5574 112.489 25.8207C112.639 27.3019 112.018 28.2821 110.518 28.8484C111.268 29.9158 111.996 30.9831 112.789 32.094C112.189 32.094 111.696 32.1158 111.182 32.0722C111.054 32.0722 110.904 31.9415 110.818 31.8108C110.239 31.0049 109.682 30.1772 109.125 29.3494C108.975 29.1316 108.825 29.0445 108.547 29.0445C108.075 29.0663 107.604 29.0445 107.09 29.0445C107.09 30.0465 107.09 31.0267 107.09 32.0286C106.576 32.0286 106.126 32.0286 105.611 32.0286C105.633 29.2187 105.633 26.3871 105.633 23.5118ZM107.111 24.9276C107.111 25.8207 107.111 26.7574 107.111 27.7593C108.054 27.7158 108.997 27.7375 109.918 27.6069C110.625 27.4979 110.989 26.9098 110.968 26.2128C110.947 25.5375 110.518 24.993 109.789 24.9276C108.911 24.8623 108.033 24.9276 107.111 24.9276Z"
      fill="black"
      fill-opacity="0.2"
    />
    <path
      d="M120.631 30.7003C120.631 31.2013 120.631 31.6152 120.631 32.0726C118.532 32.0726 116.432 32.0726 114.311 32.0726C114.311 29.2191 114.311 26.3875 114.311 23.5122C116.389 23.5122 118.446 23.5122 120.546 23.5122C120.546 23.9261 120.546 24.3617 120.546 24.8409C118.982 24.8409 117.396 24.8409 115.81 24.8409C115.81 25.6033 115.81 26.3221 115.81 27.0845C117.225 27.0845 118.596 27.0845 119.989 27.0845C119.989 27.5419 119.989 27.9776 119.989 28.435C118.596 28.435 117.203 28.435 115.789 28.435C115.789 29.1974 115.789 29.9379 115.789 30.7003C117.417 30.7003 119.003 30.7003 120.631 30.7003Z"
      fill="black"
      fill-opacity="0.2"
    />
    <path
      d="M128.71 21.3336C128.217 21.3336 127.745 21.3336 127.253 21.3336C127.253 20.1574 127.253 18.9812 127.253 17.7614C125.924 17.7614 124.617 17.7614 123.267 17.7614C123.267 18.9158 123.267 20.0921 123.267 21.3119C122.732 21.3119 122.239 21.3119 121.725 21.3119C121.725 18.4584 121.725 15.6267 121.725 12.7515C122.217 12.7515 122.689 12.7515 123.224 12.7515C123.224 13.9277 123.224 15.1039 123.224 16.2802C124.574 16.2802 125.881 16.2802 127.21 16.2802C127.21 15.1039 127.21 13.9277 127.21 12.7515C127.703 12.7515 128.195 12.7515 128.688 12.7515C128.71 15.5831 128.71 18.4366 128.71 21.3336Z"
      fill="black"
      fill-opacity="0.2"
    />
    <path
      d="M110.324 18.9811C110.646 19.286 110.946 19.591 111.267 19.8959C110.024 21.7039 106.918 22.0088 105.118 20.5276C103.189 18.9375 102.975 15.8445 104.668 13.9712C106.339 12.1197 109.467 12.0979 111.203 13.9276C110.903 14.2979 110.581 14.6464 110.26 15.0385C109.489 14.3415 108.653 13.8623 107.603 13.993C106.918 14.0801 106.339 14.3633 105.889 14.886C104.861 16.0405 104.882 17.9791 105.91 19.1553C106.982 20.4187 108.375 20.3534 110.324 18.9811Z"
      fill="black"
      fill-opacity="0.2"
    />
    <path
      d="M120.289 13.9495C119.968 14.3198 119.668 14.6901 119.325 15.0604C118.553 14.3416 117.718 13.8842 116.668 13.9931C115.961 14.0585 115.361 14.407 114.889 14.9515C113.904 16.106 113.968 18.0882 114.997 19.1773C116.154 20.3971 117.632 20.3317 119.346 18.9812C119.668 19.308 119.968 19.6347 120.289 19.9614C118.746 21.7911 115.768 22.009 114.011 20.3535C112.233 18.6763 112.125 15.6486 113.797 13.906C115.532 12.1198 118.575 12.1198 120.289 13.9495Z"
      fill="black"
      fill-opacity="0.2"
    />
    <path
      d="M137.322 10.6385C136.808 10.6385 136.358 10.6603 135.908 10.6167C135.801 10.6167 135.651 10.4207 135.586 10.2682C134.729 8.26425 133.894 6.23851 133.058 4.23455C133.015 4.12564 132.972 4.01672 132.887 3.84247C132.501 4.73554 132.158 5.58504 131.794 6.43455C131.258 7.7197 130.722 9.00484 130.187 10.3118C130.08 10.5732 129.951 10.6821 129.673 10.6603C129.308 10.6385 128.944 10.6603 128.494 10.6603C128.558 10.486 128.601 10.3771 128.666 10.2464C129.801 7.61078 130.937 4.97514 132.051 2.3395C132.158 2.05633 132.329 2.01276 132.608 1.9692C133.379 1.86029 133.744 2.16524 134.044 2.90583C135.029 5.36722 136.101 7.76326 137.15 10.2029C137.215 10.3118 137.258 10.4642 137.322 10.6385Z"
      fill="black"
      fill-opacity="0.2"
    />
    <path
      d="M111.719 10.617C111.161 10.617 110.604 10.7912 110.24 10.5734C109.919 10.3774 109.79 9.78925 109.619 9.35361C109.233 8.46054 108.869 7.54569 108.483 6.63084C108.097 5.71598 107.733 4.82291 107.326 3.84272C107.198 4.14767 107.069 4.38727 106.962 4.64866C106.19 6.52192 105.398 8.37341 104.648 10.2467C104.519 10.5516 104.369 10.6823 104.026 10.6388C103.684 10.5952 103.362 10.6388 102.955 10.6388C102.998 10.5081 103.019 10.3992 103.062 10.2902C104.198 7.63282 105.355 4.97539 106.49 2.29618C106.598 2.0348 106.726 1.96945 107.005 1.94767C107.797 1.83876 108.162 2.14371 108.483 2.90608C109.469 5.36747 110.54 7.78529 111.59 10.2031C111.611 10.3338 111.654 10.4645 111.719 10.617Z"
      fill="black"
      fill-opacity="0.2"
    />
    <path
      d="M136.295 23.4029C137.537 26.2782 138.759 29.1534 140.023 32.094C139.509 32.094 139.059 32.1158 138.609 32.0722C138.48 32.0722 138.352 31.8762 138.287 31.7237C137.452 29.7415 136.616 27.7593 135.802 25.7554C135.738 25.6247 135.673 25.494 135.588 25.2762C135.223 26.1257 134.902 26.9098 134.559 27.694C134.002 29.0445 133.424 30.3732 132.888 31.7237C132.781 31.9633 132.674 32.094 132.374 32.0722C131.988 32.0504 131.624 32.0722 131.174 32.0722C131.517 31.2663 131.838 30.5039 132.181 29.7415C133.038 27.7376 133.916 25.7336 134.752 23.7296C134.859 23.4683 134.988 23.3593 135.266 23.3811C135.609 23.4247 135.93 23.4029 136.295 23.4029Z"
      fill="black"
      fill-opacity="0.2"
    />
    <path
      d="M104.154 32.094C103.661 32.094 103.232 32.0722 102.804 32.094C102.525 32.1157 102.482 31.8979 102.397 31.7237C101.583 29.7633 100.747 27.8029 99.9327 25.8207C99.8685 25.6682 99.8042 25.5157 99.6971 25.2979C99.5685 25.6029 99.4614 25.8207 99.3542 26.0603C98.5829 27.9336 97.7901 29.785 97.0187 31.6583C96.8902 31.9633 96.7402 32.1157 96.3974 32.0722C96.0546 32.0286 95.7117 32.0722 95.2832 32.0722C95.4975 31.593 95.6689 31.1791 95.8403 30.7435C96.8259 28.4345 97.833 26.1256 98.8186 23.8167C98.9686 23.4682 99.14 23.3593 99.5042 23.3811C100.426 23.4029 100.426 23.3811 100.79 24.2524C101.818 26.6702 102.868 29.088 103.897 31.5058C104.004 31.7019 104.068 31.8761 104.154 32.094Z"
      fill="black"
      fill-opacity="0.2"
    />
    <path
      d="M96.291 3.49397C96.291 2.97119 96.291 2.55733 96.291 2.07812C98.5836 2.07812 100.855 2.07812 103.147 2.07812C103.147 2.51377 103.147 2.94941 103.147 3.47218C102.269 3.47218 101.391 3.47218 100.491 3.47218C100.491 5.89001 100.491 8.24248 100.491 10.6385C99.9764 10.6385 99.505 10.6385 98.9908 10.6385C98.9908 8.26426 98.9908 5.91179 98.9908 3.49397C98.0908 3.49397 97.2124 3.49397 96.291 3.49397Z"
      fill="black"
      fill-opacity="0.2"
    />
    <path
      d="M103.169 12.7515C103.169 13.2307 103.169 13.6663 103.169 14.1455C102.29 14.1455 101.433 14.1455 100.512 14.1455C100.512 16.5416 100.512 18.9158 100.512 21.3119C99.9764 21.3119 99.505 21.3119 98.9908 21.3119C98.9908 18.9376 98.9908 16.5851 98.9908 14.1673C98.0909 14.1673 97.2124 14.1673 96.3125 14.1673C96.3125 13.6881 96.3125 13.2307 96.3125 12.7515C98.5837 12.7515 100.855 12.7515 103.169 12.7515Z"
      fill="black"
      fill-opacity="0.2"
    />
    <path
      d="M114.76 10.6171C114.224 10.6171 113.774 10.6171 113.26 10.6171C113.26 10.1161 113.26 9.61513 113.26 9.13592C113.26 7.82899 113.26 6.50027 113.26 5.19334C113.26 4.69235 113.517 4.40919 113.945 4.3874C114.374 4.36562 114.738 4.64879 114.738 5.10622C114.781 6.91414 114.76 8.76562 114.76 10.6171Z"
      fill="black"
      fill-opacity="0.2"
    />
    <path
      d="M111.46 17.5435C110.11 17.5435 108.781 17.5435 107.41 17.5435C107.41 17.086 107.41 16.6286 107.41 16.1494C108.739 16.1494 110.088 16.1494 111.46 16.1494C111.46 16.5851 111.46 17.0425 111.46 17.5435Z"
      fill="black"
      fill-opacity="0.2"
    />
    <path
      d="M31.5826 3.12382C30.8755 3.12382 30.3398 2.55748 30.3398 1.83867C30.3398 1.11986 30.8969 0.531738 31.6254 0.531738C32.3111 0.531738 32.8896 1.11986 32.8896 1.81689C32.8896 2.5357 32.3111 3.12382 31.5826 3.12382Z"
      fill="black"
      fill-opacity="0.2"
    />
    <path
      d="M41.5669 20.7891C42.2525 20.7891 42.8311 21.3772 42.8525 22.0742C42.8525 22.793 42.2525 23.4029 41.5455 23.3811C40.8598 23.3594 40.3027 22.7712 40.3027 22.0742C40.3027 21.3772 40.8812 20.7891 41.5669 20.7891Z"
      fill="black"
      fill-opacity="0.2"
    />
    <path
      d="M41.5669 13.2524C40.8812 13.2524 40.3027 12.6643 40.3027 11.9673C40.3027 11.2702 40.8598 10.6821 41.5669 10.6821C42.2525 10.6821 42.8525 11.2485 42.8525 11.9455C42.8525 12.6643 42.274 13.2524 41.5669 13.2524Z"
      fill="black"
      fill-opacity="0.2"
    />
    <path
      d="M58.1724 3.12382C57.4653 3.12382 56.9082 2.5357 56.9082 1.83867C56.9082 1.11986 57.5081 0.531738 58.2152 0.531738C58.8794 0.55352 59.458 1.11986 59.458 1.7951C59.458 2.5357 58.8794 3.12382 58.1724 3.12382Z"
      fill="black"
      fill-opacity="0.2"
    />
    <path
      d="M49.4736 11.9458C49.4736 12.6428 48.9165 13.2309 48.2308 13.2527C47.5238 13.2745 46.9238 12.6646 46.9238 11.9458C46.9238 11.2488 47.5023 10.6606 48.2094 10.6606C48.8951 10.6606 49.4736 11.2488 49.4736 11.9458Z"
      fill="black"
      fill-opacity="0.2"
    />
    <path
      d="M31.6047 3.92969C32.3118 3.92969 32.8688 4.47424 32.8903 5.19305C32.8903 5.91187 32.3118 6.52177 31.6047 6.49998C30.8976 6.49998 30.3405 5.91187 30.3619 5.21484C30.3405 4.47424 30.8762 3.92969 31.6047 3.92969Z"
      fill="black"
      fill-opacity="0.2"
    />
    <path
      d="M41.5669 30.1338C40.8598 30.1338 40.3027 29.5674 40.3027 28.8486C40.3027 28.1298 40.8598 27.5635 41.5455 27.5635C42.274 27.5635 42.8525 28.1516 42.8525 28.8704C42.8311 29.5674 42.2525 30.1338 41.5669 30.1338Z"
      fill="black"
      fill-opacity="0.2"
    />
    <path
      d="M41.5455 3.12411C40.8598 3.12411 40.3027 2.5142 40.3027 1.81718C40.3242 1.12015 40.9027 0.532027 41.5883 0.553809C42.274 0.553809 42.8525 1.14193 42.8525 1.83896C42.8525 2.53599 42.2525 3.12411 41.5455 3.12411Z"
      fill="black"
      fill-opacity="0.2"
    />
    <path
      d="M49.4741 22.096C49.4741 22.793 48.8956 23.4029 48.21 23.3811C47.5029 23.3811 46.903 22.7712 46.9244 22.0524C46.9244 21.3554 47.5243 20.7891 48.21 20.7891C48.917 20.8108 49.4741 21.399 49.4741 22.096Z"
      fill="black"
      fill-opacity="0.2"
    />
    <path
      d="M49.4741 1.83892C49.4741 2.53595 48.8956 3.12407 48.21 3.12407C47.5029 3.12407 46.9458 2.55773 46.9244 1.8607C46.9029 1.16367 47.5243 0.531988 48.2314 0.55377C48.917 0.55377 49.4741 1.12011 49.4741 1.83892Z"
      fill="black"
      fill-opacity="0.2"
    />
    <path
      d="M48.188 19.9834C47.4809 19.9834 46.9238 19.3953 46.9238 18.6982C46.9238 18.023 47.5238 17.4131 48.188 17.4131C48.8951 17.4131 49.4736 18.0012 49.4522 18.7418C49.4522 19.4606 48.8951 20.0052 48.188 19.9834Z"
      fill="black"
      fill-opacity="0.2"
    />
    <path
      d="M40.3027 32.2031C40.3027 31.5061 40.8812 30.918 41.5669 30.918C42.2525 30.918 42.8311 31.5061 42.8525 32.2031C42.8525 32.9001 42.2525 33.5318 41.5455 33.51C40.8598 33.51 40.3027 32.9219 40.3027 32.2031Z"
      fill="black"
      fill-opacity="0.2"
    />
    <path
      d="M49.4736 32.2465C49.4736 32.9435 48.8736 33.5316 48.188 33.5316C47.5023 33.5098 46.9238 32.9217 46.9238 32.2247C46.9238 31.5059 47.5238 30.9178 48.2308 30.9396C48.9379 30.9396 49.495 31.5277 49.4736 32.2465Z"
      fill="black"
      fill-opacity="0.2"
    />
    <path
      d="M41.5889 19.9834C40.8818 19.9834 40.3247 19.4388 40.3033 18.72C40.2819 18.0012 40.8604 17.4131 41.5889 17.4131C42.2745 17.4131 42.8531 18.0012 42.8531 18.6982C42.8531 19.417 42.2745 19.9834 41.5889 19.9834Z"
      fill="black"
      fill-opacity="0.2"
    />
    <path
      d="M38.2257 3.12413C37.4972 3.12413 36.9401 2.51423 36.9615 1.79541C36.983 1.09839 37.6043 0.532048 38.2686 0.553831C38.9542 0.575613 39.5113 1.16373 39.4899 1.88254C39.4899 2.57957 38.9328 3.12413 38.2257 3.12413Z"
      fill="black"
      fill-opacity="0.2"
    />
    <path
      d="M49.4742 28.8268C49.4742 29.5457 48.9385 30.112 48.2314 30.1338C47.5243 30.1556 46.9458 29.5892 46.9244 28.8922C46.903 28.1734 47.4815 27.5635 48.1886 27.5635C48.8956 27.5635 49.4742 28.108 49.4742 28.8268Z"
      fill="black"
      fill-opacity="0.2"
    />
    <path
      d="M39.5113 5.19305C39.5113 5.91187 38.9757 6.4782 38.2686 6.49998C37.583 6.52177 37.0044 5.93365 36.983 5.23662C36.9616 4.49602 37.5187 3.92969 38.2472 3.92969C38.9757 3.92969 39.5113 4.47424 39.5113 5.19305Z"
      fill="black"
      fill-opacity="0.2"
    />
    <path
      d="M41.5676 3.92969C42.2746 3.92969 42.8317 4.47424 42.8531 5.19305C42.8746 5.8683 42.2746 6.49998 41.6104 6.49998C40.9033 6.52177 40.3248 5.93365 40.3248 5.19305C40.3034 4.49602 40.8605 3.92969 41.5676 3.92969Z"
      fill="black"
      fill-opacity="0.2"
    />
    <path
      d="M51.5298 3.92969C52.2369 3.92969 52.7939 4.47424 52.7939 5.19305C52.7939 5.91187 52.2369 6.4782 51.5512 6.49998C50.8441 6.49998 50.2656 5.91187 50.2656 5.19305C50.2871 4.45246 50.8227 3.92969 51.5298 3.92969Z"
      fill="black"
      fill-opacity="0.2"
    />
    <path
      d="M48.188 3.92969C48.8951 3.92969 49.4736 4.45246 49.4736 5.17127C49.495 5.89008 48.9165 6.49998 48.2094 6.49998C47.5452 6.49998 46.9238 5.91187 46.9238 5.21484C46.9238 4.51781 47.5023 3.92969 48.188 3.92969Z"
      fill="black"
      fill-opacity="0.2"
    />
    <path
      d="M49.4736 15.3437C49.4736 16.0408 48.8951 16.6289 48.2094 16.6289C47.5452 16.6289 46.9453 16.019 46.9238 15.3437C46.9238 14.6249 47.5023 14.0586 48.2308 14.0586C48.9379 14.0586 49.495 14.6467 49.4736 15.3437Z"
      fill="black"
      fill-opacity="0.2"
    />
    <path
      d="M51.509 3.12401C50.8019 3.12401 50.2448 2.53589 50.2662 1.83886C50.2662 1.12005 50.8233 0.553711 51.5304 0.553711C52.2375 0.553711 52.8374 1.16361 52.816 1.88242C52.7731 2.57945 52.216 3.12401 51.509 3.12401Z"
      fill="black"
      fill-opacity="0.2"
    />
    <path
      d="M38.2686 9.85457C37.5401 9.85457 36.983 9.3318 36.9615 8.61299C36.9401 7.89418 37.4972 7.28428 38.2257 7.28428C38.9113 7.2625 39.4899 7.85061 39.4899 8.54764C39.5113 9.28824 38.9756 9.85457 38.2686 9.85457Z"
      fill="black"
      fill-opacity="0.2"
    />
    <path
      d="M54.8521 3.92969C55.5806 3.92969 56.1162 4.47424 56.1162 5.23662C56.1162 5.91187 55.5591 6.4782 54.8735 6.49998C54.1878 6.52177 53.5879 5.93365 53.5879 5.23662C53.5879 4.49602 54.1236 3.92969 54.8521 3.92969Z"
      fill="black"
      fill-opacity="0.2"
    />
    <path
      d="M31.6254 9.85457C30.9184 9.85457 30.3398 9.31002 30.3398 8.61299C30.3398 7.89418 30.8755 7.30606 31.5612 7.28428C32.2682 7.2625 32.8682 7.85061 32.8682 8.56943C32.8682 9.28824 32.3325 9.85457 31.6254 9.85457Z"
      fill="black"
      fill-opacity="0.2"
    />
    <path
      d="M34.9464 3.92969C35.6535 3.92969 36.1892 4.49602 36.2106 5.21484C36.2106 5.89008 35.6321 6.49998 34.9464 6.49998C34.2608 6.49998 33.6823 5.91187 33.6823 5.21484C33.6608 4.47424 34.1965 3.92969 34.9464 3.92969Z"
      fill="black"
      fill-opacity="0.2"
    />
    <path
      d="M51.5084 9.85448C50.8013 9.85448 50.2656 9.28814 50.2656 8.56933C50.2656 7.8723 50.8441 7.28418 51.5298 7.28418C52.2154 7.28418 52.7939 7.85052 52.7939 8.56933C52.7939 9.30992 52.2369 9.87626 51.5084 9.85448Z"
      fill="black"
      fill-opacity="0.2"
    />
    <path
      d="M48.2094 9.85455C47.5023 9.85455 46.9453 9.28822 46.9238 8.59119C46.9238 7.91594 47.5023 7.30604 48.1666 7.28426C48.8736 7.26248 49.4522 7.87238 49.4522 8.59119C49.4736 9.31 48.9379 9.85455 48.2094 9.85455Z"
      fill="black"
      fill-opacity="0.2"
    />
    <path
      d="M59.4365 5.19305C59.4365 5.89008 58.8794 6.4782 58.1938 6.49998C57.5081 6.52177 56.9082 5.91187 56.9082 5.23662C56.9082 4.49602 57.4653 3.92969 58.1938 3.92969C58.8794 3.92969 59.4365 4.49602 59.4365 5.19305Z"
      fill="black"
      fill-opacity="0.2"
    />
    <path
      d="M46.1319 5.23662C46.1319 5.95543 45.5534 6.52177 44.8677 6.49998C44.1607 6.4782 43.625 5.93365 43.625 5.21484C43.625 4.45246 44.1607 3.92969 44.9106 3.92969C45.6391 3.92969 46.1319 4.47424 46.1319 5.23662Z"
      fill="black"
      fill-opacity="0.2"
    />
    <path
      d="M41.5461 14.0586C42.2531 14.0586 42.8531 14.6467 42.8531 15.3655C42.8531 16.0408 42.2746 16.6289 41.6103 16.6507C40.9033 16.6725 40.3033 16.0843 40.3033 15.3655C40.2819 14.6467 40.839 14.0586 41.5461 14.0586Z"
      fill="black"
      fill-opacity="0.2"
    />
    <path
      d="M41.5883 9.87653C40.8598 9.87653 40.3027 9.31019 40.3027 8.59138C40.3027 7.89435 40.8598 7.32801 41.5669 7.30623C42.2525 7.28445 42.8525 7.89435 42.8525 8.61316C42.8525 9.28841 42.274 9.85475 41.5883 9.87653Z"
      fill="black"
      fill-opacity="0.2"
    />
    <path
      d="M36.1884 8.59141C36.1884 9.28844 35.6099 9.85477 34.9028 9.85477C34.1743 9.85477 33.6387 9.26666 33.6387 8.52606C33.6601 7.82903 34.2172 7.2627 34.8814 7.2627C35.6099 7.28448 36.2098 7.8726 36.1884 8.59141Z"
      fill="black"
      fill-opacity="0.2"
    />
    <path
      d="M58.1724 9.85477C57.4653 9.85477 56.9082 9.28844 56.9082 8.56963C56.9082 7.85081 57.5081 7.2627 58.2152 7.2627C58.9009 7.28448 59.458 7.8726 59.458 8.56963C59.4365 9.31022 58.8794 9.87656 58.1724 9.85477Z"
      fill="black"
      fill-opacity="0.2"
    />
    <path
      d="M46.1319 18.7419C46.1319 19.4608 45.5748 20.0053 44.8677 19.9835C44.1392 19.9835 43.625 19.4172 43.625 18.6548C43.6464 17.936 44.2035 17.3914 44.9106 17.4132C45.6177 17.435 46.1533 18.0231 46.1319 18.7419Z"
      fill="black"
      fill-opacity="0.2"
    />
    <path
      d="M33.6602 1.83875C33.6602 1.14172 34.2172 0.531816 34.9029 0.531816C35.61 0.510034 36.2099 1.11993 36.2099 1.83875C36.2099 2.53578 35.6314 3.1239 34.9457 3.1239C34.2387 3.1239 33.6816 2.55756 33.6602 1.83875Z"
      fill="black"
      fill-opacity="0.2"
    />
    <path
      d="M46.1319 8.59111C46.1319 9.30992 45.5962 9.87626 44.8892 9.87626C44.1607 9.87626 43.625 9.35349 43.625 8.61289C43.625 7.8723 44.1821 7.28418 44.8892 7.28418C45.5962 7.30596 46.1319 7.8723 46.1319 8.59111Z"
      fill="black"
      fill-opacity="0.2"
    />
    <path
      d="M46.1319 1.83896C46.1105 2.60133 45.5748 3.14589 44.8463 3.12411C44.1392 3.10232 43.625 2.55777 43.625 1.81718C43.625 1.12015 44.2035 0.532027 44.8892 0.553809C45.5962 0.532027 46.1533 1.14193 46.1319 1.83896Z"
      fill="black"
      fill-opacity="0.2"
    />
    <path
      d="M56.1169 1.86074C56.1169 2.57955 55.5598 3.12411 54.8527 3.12411C54.1456 3.12411 53.5885 2.53599 53.61 1.79539C53.61 1.12015 54.1885 0.553809 54.8527 0.553809C55.5598 0.532027 56.1169 1.12015 56.1169 1.86074Z"
      fill="black"
      fill-opacity="0.2"
    />
    <path
      d="M48.188 26.736C47.5023 26.736 46.9238 26.1697 46.9238 25.4726C46.9238 24.7756 47.5023 24.2093 48.188 24.1875C48.8736 24.1875 49.4522 24.7538 49.4522 25.4509C49.495 26.1697 48.9379 26.736 48.188 26.736Z"
      fill="black"
      fill-opacity="0.2"
    />
    <path
      d="M53.6094 8.56933C53.6094 7.85052 54.1879 7.28418 54.8735 7.28418C55.5806 7.30596 56.1163 7.85052 56.1163 8.56933C56.1163 9.30992 55.5592 9.85448 54.8307 9.85448C54.1236 9.85448 53.6094 9.30992 53.6094 8.56933Z"
      fill="black"
      fill-opacity="0.2"
    />
    <path
      d="M46.1305 28.8706C46.1305 29.5894 45.5949 30.1557 44.8664 30.1339C44.1593 30.1339 43.6022 29.5458 43.6236 28.8052C43.6451 28.0864 44.2022 27.5418 44.9092 27.5636C45.6163 27.5636 46.152 28.13 46.1305 28.8706Z"
      fill="black"
      fill-opacity="0.2"
    />
    <path
      d="M46.132 22.096C46.132 22.793 45.5534 23.3811 44.8892 23.3811C44.2036 23.3811 43.6465 22.793 43.6465 22.096C43.6465 21.3554 44.2036 20.7891 44.9321 20.7891C45.5963 20.8108 46.132 21.3772 46.132 22.096Z"
      fill="black"
      fill-opacity="0.2"
    />
    <path
      d="M46.132 15.322C46.132 16.0408 45.5749 16.6289 44.9106 16.6289C44.1821 16.6289 43.6465 16.0626 43.6465 15.322C43.6465 14.6031 44.1821 14.0586 44.8892 14.0586C45.6177 14.0586 46.132 14.6031 46.132 15.322Z"
      fill="black"
      fill-opacity="0.2"
    />
    <path
      d="M41.5669 26.736C40.8384 26.736 40.3027 26.1915 40.3027 25.4726C40.3027 24.7538 40.8812 24.1875 41.6097 24.1875C42.2954 24.2093 42.8739 24.7974 42.8525 25.4726C42.8311 26.1915 42.2525 26.736 41.5669 26.736Z"
      fill="black"
      fill-opacity="0.2"
    />
    <path
      d="M46.1319 11.9894C46.1319 12.7082 45.5534 13.2745 44.8677 13.2527C44.1392 13.2309 43.625 12.6646 43.625 11.9022C43.6464 11.2052 44.1821 10.6606 44.8677 10.6606C45.5962 10.6606 46.1533 11.227 46.1319 11.9894Z"
      fill="black"
      fill-opacity="0.2"
    />
    <path
      d="M46.1306 32.2684C46.1091 32.9654 45.5306 33.5535 44.845 33.5317C44.1379 33.5099 43.6022 32.9218 43.6237 32.1812C43.6451 31.4624 44.2236 30.9179 44.9307 30.9614C45.6378 30.9614 46.152 31.5278 46.1306 32.2684Z"
      fill="black"
      fill-opacity="0.2"
    />
    <path
      d="M44.8665 26.7357C44.138 26.7357 43.6238 26.1911 43.6452 25.4505C43.6452 24.7099 44.2237 24.1654 44.9522 24.1872C45.6593 24.2089 46.1735 24.7753 46.1521 25.5159C46.1306 26.2347 45.595 26.7575 44.8665 26.7357Z"
      fill="black"
      fill-opacity="0.2"
    />
    <path
      d="M135.588 29.0449C136.08 29.0449 136.466 29.4152 136.445 29.9162C136.445 30.3736 136.059 30.7657 135.588 30.7657C135.095 30.7657 134.73 30.3736 134.73 29.8726C134.752 29.3934 135.095 29.0449 135.588 29.0449Z"
      fill="black"
      fill-opacity="0.2"
    />
    <path
      d="M114.01 1.77344C114.482 1.77344 114.846 2.12195 114.867 2.60116C114.889 3.08037 114.482 3.49423 114.01 3.49423C113.539 3.49423 113.175 3.12393 113.153 2.64472C113.132 2.14373 113.517 1.77344 114.01 1.77344Z"
      fill="black"
      fill-opacity="0.2"
    />
    <path
      d="M133.766 8.43886C133.766 8.96163 133.423 9.31015 132.93 9.31015C132.459 9.31015 132.095 8.93985 132.073 8.46064C132.052 7.98143 132.459 7.58936 132.93 7.58936C133.423 7.58936 133.766 7.95965 133.766 8.43886Z"
      fill="black"
      fill-opacity="0.2"
    />
    <path
      d="M107.368 7.58935C107.839 7.61113 108.182 7.98143 108.182 8.46063C108.182 8.96162 107.796 9.33192 107.282 9.31014C106.789 9.28836 106.446 8.89628 106.468 8.39529C106.511 7.91608 106.875 7.56756 107.368 7.58935Z"
      fill="black"
      fill-opacity="0.2"
    />
    <path
      d="M100.597 29.8942C100.597 30.3734 100.233 30.7437 99.7614 30.7437C99.2685 30.7437 98.9043 30.3734 98.9043 29.8507C98.9043 29.3497 99.2685 29.0012 99.7828 29.0229C100.276 29.0447 100.597 29.415 100.597 29.8942Z"
      fill="black"
      fill-opacity="0.2"
    />
  </g>
  <defs>
    <clipPath id="clip0_3750_268302">
      <rect
        width="146"
        height="33"
        fill="white"
        transform="translate(0 0.531738)"
      />
    </clipPath>
  </defs>
</svg>
