<svg viewBox="0 0 88 22" fill="none" xmlns="http://www.w3.org/2000/svg">
  <path
    d="M22.8059 18.735C22.8554 19.1907 22.758 19.5686 22.4978 19.8465C21.6789 20.7259 19.4216 20.43 16.5754 19.256C14.5001 18.4016 12.1232 17.0831 9.75738 15.4132C7.32934 13.7029 5.31635 11.8968 3.92275 10.2824C2.08855 8.15392 1.33508 6.33946 2.13963 5.48085C2.39984 5.20299 2.80531 5.04182 3.32731 4.99042C1.92892 4.75006 0.876926 4.87927 0.354922 5.44056C-0.671526 6.54091 0.591181 9.03197 3.3321 11.8523C3.30496 11.9635 3.28102 12.076 3.26026 12.1885C3.02273 13.4867 3.19031 14.8166 3.74548 16.0392C4.30065 17.2617 5.22302 18.332 6.41614 19.1381C7.60925 19.9441 9.0293 20.4565 10.5278 20.6214C12.0263 20.7864 13.5482 20.5979 14.9343 20.0757C18.7416 21.8819 21.8736 22.4751 22.916 21.3595C23.4348 20.7982 23.363 19.8771 22.8059 18.735Z"
    fill="white"
    fill-opacity="0.3"
  />
  <path
    d="M29.5451 2.44954C29.3731 2.64716 29.1427 2.80041 28.8784 2.8929C28.6141 2.9854 28.3259 3.01367 28.0446 2.9747C27.5928 2.91218 27.1666 2.59264 26.8505 2.1675C26.5702 1.76162 26.1884 1.41591 25.7335 1.15607C25.2786 0.896227 24.7622 0.728924 24.2228 0.666589C23.6834 0.604254 23.1348 0.648488 22.6178 0.796006C22.1007 0.943523 21.6285 1.19053 21.2361 1.51869C21.6963 1.39983 22.1789 1.3616 22.6561 1.40621C23.1333 1.45082 23.5956 1.57738 24.0163 1.77858C24.4369 1.97977 24.8075 2.25159 25.1065 2.57829C25.4056 2.905 25.6272 3.2801 25.7586 3.68187C25.3382 3.06842 24.7126 2.58128 23.9655 2.28559C23.2183 1.9899 22.3853 1.89975 21.5778 2.02718C21.3659 2.05935 21.1572 2.1058 20.9536 2.16611C20.9089 2.17862 20.8642 2.19251 20.8211 2.20779C20.7062 2.25811 20.6169 2.34376 20.5705 2.44815C20.5561 2.49008 20.5449 2.53277 20.5369 2.57597C20.5369 2.57597 20.5258 2.62043 20.5226 2.63849C20.5194 2.65655 20.5226 2.68711 20.513 2.71212L19.1593 10.1186C18.2559 8.50928 16.7072 7.24319 14.8052 6.55909C12.9032 5.87499 10.7793 5.82017 8.8341 6.40495C8.60263 6.47442 8.37595 6.55361 8.15406 6.63975C6.73868 7.18905 5.52384 8.06612 4.64209 9.17527L4.77139 9.3281C6.16341 10.9453 8.178 12.7472 10.6061 14.4603C12.9718 16.1275 15.3536 17.4487 17.4241 18.3032L17.6811 18.4074C18.7668 17.42 19.5124 16.1872 19.8329 14.8493C19.8409 14.8146 19.8473 14.7784 19.8553 14.7423L19.8952 14.5214C19.8952 14.5117 19.8952 14.502 19.8952 14.4922V14.4644L19.9399 14.2185L21.5043 5.78392C22.1521 6.47869 23.0494 6.96367 24.0522 7.16088C25.0549 7.35809 26.1047 7.25607 27.0327 6.87123C27.9608 6.48638 28.7132 5.84107 29.1688 5.03908C29.6245 4.23709 29.7571 3.32501 29.5451 2.44954Z"
    fill="white"
    fill-opacity="0.3"
  />
  <path
    d="M33.1687 6.1353H38.3839C39.4779 6.12385 40.5687 6.23925 41.6277 6.47846C42.5325 6.67733 43.3712 7.058 44.0765 7.58992C44.7435 8.11763 45.2288 8.79635 45.4781 9.55026C45.759 10.3477 45.7995 11.3101 45.5994 12.4373C45.4435 13.3036 45.111 14.1388 44.6176 14.9033C44.1526 15.6197 43.5413 16.2562 42.8138 16.7817C42.0842 17.3058 41.2519 17.7111 40.357 17.9779C39.4154 18.2588 38.4262 18.3997 37.4309 18.3947H30.9434L33.1687 6.1353ZM36.7381 14.7255H37.0574C37.4639 14.7276 37.869 14.6837 38.2626 14.5949C38.6317 14.512 38.9802 14.3707 39.2906 14.1781C39.5978 13.9854 39.8582 13.7418 40.0569 13.4612C40.2753 13.1453 40.4181 12.7941 40.4767 12.429C40.6395 11.5611 40.4874 10.9345 40.0202 10.5492C39.553 10.1639 38.8516 9.97123 37.9162 9.97123H37.5969L36.7381 14.7255Z"
    fill="white"
    fill-opacity="0.3"
  />
  <path
    d="M47.5347 18.9393C47.7816 18.9035 48.0315 18.8858 48.2818 18.8865C48.7862 18.8865 49.1454 18.9921 49.3833 19.181C49.5151 19.2896 49.6181 19.422 49.6848 19.5689C49.7516 19.7158 49.7805 19.8736 49.7696 20.0313C49.7781 20.1995 49.7478 20.3676 49.6807 20.5255C49.6135 20.6835 49.5108 20.8281 49.3785 20.951C49.1199 21.1719 48.7016 21.2914 48.1732 21.2914C47.9599 21.2923 47.7468 21.283 47.5347 21.2636V18.9393ZM47.8859 21.0316C48.0035 21.0427 48.1219 21.0474 48.2403 21.0455C48.9953 21.0455 49.3992 20.6801 49.3992 20.041C49.3992 19.4853 49.04 19.1282 48.2977 19.1282C48.1595 19.1261 48.0215 19.1368 47.8859 19.1602V21.0316Z"
    fill="white"
    fill-opacity="0.3"
  />
  <path
    d="M51.9859 20.1612H50.934V21.0143H52.112V21.2713H50.5796V18.9094H52.0514V19.1665H50.934V19.9139H51.9875L51.9859 20.1612Z"
    fill="white"
    fill-opacity="0.3"
  />
  <path
    d="M54.3357 20.1612H53.2821V21.0143H54.4602V21.2713H52.9277V18.9094H54.3996V19.1665H53.2821V19.9139H54.3357V20.1612Z"
    fill="white"
    fill-opacity="0.3"
  />
  <path
    d="M55.2798 18.9329C55.5025 18.9012 55.7278 18.8858 55.9535 18.8871C56.2263 18.869 56.4972 18.9387 56.7149 19.083C56.7932 19.146 56.8551 19.2228 56.8964 19.3084C56.9377 19.3939 56.9575 19.4862 56.9544 19.579C56.9597 19.6712 56.9437 19.7635 56.9076 19.8503C56.8714 19.9371 56.8157 20.0168 56.7437 20.0847C56.6321 20.1742 56.501 20.2434 56.3581 20.288C56.2152 20.3326 56.0635 20.3518 55.912 20.3445C55.8177 20.3467 55.7234 20.3397 55.631 20.3236V21.2712H55.2798V18.9329ZM55.631 20.0736C55.7262 20.0927 55.8239 20.1011 55.9215 20.0986C56.3446 20.0986 56.6032 19.9152 56.6032 19.5956C56.6032 19.2761 56.3446 19.1288 55.9646 19.1288C55.8538 19.1263 55.7429 19.1347 55.6342 19.1538L55.631 20.0736Z"
    fill="white"
    fill-opacity="0.3"
  />
  <path
    d="M58.2292 21.2713L57.5396 18.9094H57.9115L58.2308 20.107C58.3106 20.403 58.3904 20.6975 58.4319 20.9253C58.4766 20.6905 58.5612 20.4099 58.6538 20.1042L59.0177 18.9094H59.3961L59.7265 20.1112C59.8031 20.3891 59.875 20.6669 59.9165 20.9226H59.9245C59.9803 20.6628 60.057 20.3988 60.1416 20.1042L60.5007 18.9094H60.8599L60.0889 21.2713H59.7153L59.3737 20.0389C59.2974 19.7846 59.2377 19.5267 59.1949 19.2665C59.1435 19.5275 59.0737 19.7854 58.9858 20.0389L58.5979 21.2713H58.2292Z"
    fill="white"
    fill-opacity="0.3"
  />
  <path
    d="M61.7699 20.5266L61.4874 21.2713H61.125L62.0525 18.9094H62.4723L63.3997 21.2713H63.0246L62.7341 20.5266H61.7699ZM62.667 20.2876L62.3957 19.6069C62.335 19.4527 62.2951 19.3123 62.2552 19.1748H62.2472C62.2057 19.3137 62.1658 19.4596 62.1099 19.6027L61.8433 20.2876H62.667Z"
    fill="white"
    fill-opacity="0.3"
  />
  <path
    d="M64.5423 21.2713L63.6499 18.9094H64.033L64.4561 20.0765C64.5694 20.396 64.67 20.6836 64.7466 20.9601C64.8232 20.6822 64.9334 20.3877 65.0659 20.0792L65.5256 18.9094H65.9008L64.9286 21.2713H64.5423Z"
    fill="white"
    fill-opacity="0.3"
  />
  <path
    d="M67.9636 20.1612H66.91V21.0143H68.0897V21.2713H66.5557V18.9094H68.0291V19.1665H66.9116V19.9139H67.9652L67.9636 20.1612Z"
    fill="white"
    fill-opacity="0.3"
  />
  <path
    d="M72.022 21.1967C71.7943 21.2779 71.5495 21.3162 71.3036 21.3092C70.5374 21.3092 69.9644 20.8924 69.9644 20.1075C69.9644 19.3642 70.5406 18.8654 71.3835 18.8654C71.6025 18.8588 71.8205 18.8944 72.022 18.9696L71.9326 19.2197C71.7619 19.1517 71.5759 19.118 71.3882 19.121C70.7497 19.121 70.3267 19.4753 70.3267 20.0936C70.3267 20.6757 70.7098 21.0453 71.3675 21.0453C71.5659 21.048 71.7628 21.0144 71.9453 20.9466L72.022 21.1967Z"
    fill="white"
    fill-opacity="0.3"
  />
  <path
    d="M75.0684 20.0637C75.0684 20.8737 74.5001 21.3141 73.8057 21.3141C73.0841 21.3141 72.5845 20.825 72.5845 20.1095C72.5845 19.3579 73.1161 18.8591 73.8424 18.8591C74.5688 18.8591 75.0684 19.3579 75.0684 20.0637ZM72.9548 20.0984C72.9548 20.6069 73.2741 21.0598 73.8265 21.0598C74.3788 21.0598 74.6981 20.6139 74.6981 20.0776C74.6981 19.6024 74.4155 19.112 73.8297 19.112C73.2438 19.112 72.9548 19.5816 72.9548 20.0942V20.0984Z"
    fill="white"
    fill-opacity="0.3"
  />
  <path
    d="M75.6571 21.0875C75.6553 21.0589 75.6603 21.0303 75.6718 21.0035C75.6832 20.9766 75.7009 20.9521 75.7236 20.9314C75.7464 20.9107 75.7738 20.8943 75.8041 20.8831C75.8345 20.872 75.8671 20.8664 75.9001 20.8666C75.9328 20.8663 75.9652 20.872 75.9953 20.8831C76.0254 20.8943 76.0525 20.9108 76.0749 20.9316C76.0973 20.9524 76.1145 20.9769 76.1254 21.0038C76.1363 21.0306 76.1407 21.0591 76.1382 21.0875C76.1421 21.1169 76.1389 21.1467 76.1286 21.1749C76.1183 21.2031 76.1013 21.2291 76.0787 21.2512C76.056 21.2732 76.0283 21.2909 75.9972 21.303C75.9661 21.3151 75.9325 21.3214 75.8985 21.3214C75.8644 21.3214 75.8308 21.3151 75.7997 21.303C75.7686 21.2909 75.7409 21.2732 75.7182 21.2512C75.6956 21.2291 75.6786 21.2031 75.6683 21.1749C75.6581 21.1467 75.6548 21.1169 75.6587 21.0875H75.6571Z"
    fill="white"
    fill-opacity="0.3"
  />
  <path
    d="M76.707 21.7053C76.815 21.4311 76.8962 21.1495 76.9497 20.8634L77.3455 20.8273C77.25 21.1228 77.12 21.4091 76.9576 21.6817L76.707 21.7053Z"
    fill="white"
    fill-opacity="0.3"
  />
  <path
    d="M79.3613 18.9041H79.7157V21.0144H80.8778V21.2715H79.3613V18.9041Z"
    fill="white"
    fill-opacity="0.3"
  />
  <path
    d="M81.7922 19.1652H80.9653V18.9041H82.9783V19.1652H82.1482V21.2715H81.7922V19.1652Z"
    fill="white"
    fill-opacity="0.3"
  />
  <path
    d="M83.6447 18.9393C83.891 18.9035 84.1404 18.8859 84.3902 18.8865C84.8946 18.8865 85.2538 18.9921 85.4917 19.181C85.6238 19.2894 85.7271 19.4218 85.7941 19.5687C85.8611 19.7156 85.8903 19.8735 85.8796 20.0313C85.8877 20.1995 85.8573 20.3675 85.7902 20.5253C85.723 20.6832 85.6205 20.8279 85.4885 20.951C85.2299 21.1719 84.81 21.2914 84.2816 21.2914C84.0683 21.2923 83.8552 21.283 83.6431 21.2636L83.6447 18.9393ZM83.9943 21.0316C84.1125 21.0428 84.2314 21.0474 84.3503 21.0455C85.1054 21.0455 85.5076 20.6801 85.5076 20.041C85.5076 19.4853 85.1485 19.1282 84.4061 19.1282C84.2679 19.1263 84.1299 19.137 83.9943 19.1602V21.0316Z"
    fill="white"
    fill-opacity="0.3"
  />
  <path
    d="M50.2465 8.08618L50.5658 13.2837H50.6456C50.7254 13.0141 50.8137 12.7446 50.9106 12.4751C51.0074 12.2055 51.1181 11.9397 51.2426 11.6776L52.9539 8.08618H55.7411L56.1657 13.2864H56.2455C56.3158 13.0322 56.394 12.7738 56.477 12.5126C56.5602 12.2537 56.6598 11.9991 56.7755 11.7498L58.4485 8.08896H62.2302L57.1219 16.7973H53.95L53.6706 12.0624H53.5509C53.4903 12.2861 53.428 12.507 53.3657 12.7265C53.3024 12.9485 53.2224 13.1666 53.1263 13.3795L51.4948 16.7973H48.4027L46.4775 8.08618H50.2465Z"
    fill="white"
    fill-opacity="0.3"
  />
  <path
    d="M62.7541 16.794H58.9229L63.9609 8.11902H67.9661L69.9488 16.794H66.1176L65.9851 15.7131H63.2473L62.7541 16.794ZM65.7153 13.6527L65.57 12.1245C65.5525 11.9397 65.5445 11.7563 65.5445 11.5687V11.0074H65.412L64.261 13.6472L65.7153 13.6527Z"
    fill="white"
    fill-opacity="0.3"
  />
  <path
    d="M80.1732 8.11902L74.7456 16.794H71.6727L69.3867 8.11902H73.1669L73.7751 12.0647C73.8098 12.2766 73.8322 12.4899 73.8421 12.7038C73.8498 12.9216 73.8316 13.1395 73.7878 13.354H73.8676C73.9119 13.1333 73.9759 12.9159 74.0592 12.7038C74.1433 12.4926 74.2422 12.2796 74.3561 12.0647L76.393 8.11902H80.1732Z"
    fill="white"
    fill-opacity="0.3"
  />
  <path
    d="M80.2075 10.3818C80.7041 10.1917 81.2406 10.0936 81.7831 10.0936C82.3256 10.0936 82.8621 10.1917 83.3587 10.3818C85.0269 11.032 86.5722 10.2651 86.5722 10.2651L87.0016 7.91709C87.0016 7.91709 85.4579 8.68261 83.7881 8.03241C83.2914 7.84278 82.7549 7.74487 82.2125 7.74487C81.6701 7.74487 81.1336 7.84278 80.6369 8.03241L80.2075 10.3818Z"
    fill="white"
    fill-opacity="0.3"
  />
  <path
    d="M85.712 13.6162L86.1047 11.4572C85.7019 11.5892 85.2782 11.6665 84.8484 11.6864C84.4236 11.6712 84.0028 11.6076 83.5969 11.4975C83.4372 11.4516 83.2201 11.3891 83.118 11.3474C82.6216 11.1578 82.0853 11.0598 81.5432 11.0598C81.001 11.0598 80.4648 11.1578 79.9684 11.3474L78.9771 16.7964H85.4965L85.9132 14.5276H82.8817L83.0413 13.6176L85.712 13.6162Z"
    fill="white"
    fill-opacity="0.3"
  />
</svg>
