<svg viewBox="0 0 190 187" fill="none" xmlns="http://www.w3.org/2000/svg">
  <path
    d="M118.169 186.415C118.169 186.282 118.036 186.149 118.036 186.017C116.177 181.502 110.866 169.022 106.617 159.993C105.024 157.736 102.103 154.284 97.5888 152.425C85.5063 147.512 84.4441 143.131 83.3819 141.537C82.3197 139.944 83.382 136.492 83.2492 135.297C83.1164 134.102 81.6559 133.836 82.4525 131.181C83.5147 128.127 86.303 129.189 85.7719 128.924C85.2408 128.658 78.8676 126.667 80.8592 123.082C82.8508 119.364 87.6307 121.356 87.3652 120.161C87.2324 118.966 78.3365 110.999 76.876 109.671C76.4777 109.273 75.4155 108.742 74.3533 108.078H61.607V142.599C61.607 149.769 62.1381 155.213 63.0675 159.196C64.1297 163.179 65.9885 165.835 68.644 167.295C71.4323 168.756 75.15 169.685 79.7971 170.084C80.4609 171.943 80.992 174.332 81.2576 177.519C81.5231 180.44 81.6559 183.361 81.6559 186.282C81.6559 186.415 81.5231 186.548 81.5231 186.68H118.169V186.415Z"
    fill="#FFBE0B"
  />
  <path
    d="M96.3941 116.177C107.016 122.816 114.319 132.376 115.115 135.031C115.646 136.757 119.364 142.998 123.746 149.238C125.604 150.964 127.198 152.558 128.658 154.018L128.791 108.078H84.3117C88.1621 110.734 92.4109 113.655 96.3941 116.177Z"
    fill="#FFBE0B"
  />
  <path
    d="M119.629 85.5067H128.79V69.8394C126.799 73.557 122.948 82.3201 119.629 85.5067Z"
    fill="#FFBE0B"
  />
  <path
    d="M109.273 84.179C109.007 83.9135 108.343 82.984 108.211 82.7185C107.945 82.0546 106.883 80.8596 105.422 81.258C104.891 81.3907 103.962 81.9218 103.298 82.3202C103.033 82.4529 102.236 82.4529 101.439 82.3202C99.8459 81.9218 98.2527 79.6647 100.244 75.8142C100.244 75.8142 95.8627 79.1336 94.0039 78.6025C93.0744 78.3369 91.6139 77.5403 91.3484 75.6814C91.0828 74.4865 89.7551 71.0343 86.9668 73.1587C86.9668 73.1587 83.1164 76.4781 80.1953 75.0176C77.2743 73.5571 77.5399 73.026 76.6105 69.9722C75.681 66.9183 75.2827 61.4746 74.7516 59.8813C74.2205 58.288 72.6272 52.5787 69.4406 50.8527C67.3162 49.6577 65.3246 48.861 63.7313 47.4005C62.9347 46.7367 62.138 45.94 61.4742 44.8778C61.3414 44.745 61.3414 44.6123 61.2086 44.4795V85.9051H110.601C110.202 85.1084 109.804 84.7101 109.273 84.179Z"
    fill="#FFBE0B"
  />
  <path
    d="M118.434 0.531135C114.717 0.398361 111.397 0.265587 108.742 0.132812C108.742 0.265587 108.742 0.265587 108.742 0.398361C111.53 0.398361 114.584 0.531135 117.903 0.531135H118.434Z"
    fill="#002877"
  />
  <path
    d="M117.903 0.531212C114.584 0.531212 111.53 0.398438 108.742 0.398438V0.531212H117.903Z"
    fill="#002877"
  />
  <path
    d="M188.274 169.818C183.361 169.42 179.511 168.491 176.988 167.03C174.333 165.57 172.474 162.914 171.412 158.931C170.349 155.08 169.818 149.504 169.818 142.334V43.8155C169.818 36.6457 170.349 31.3347 171.279 27.6171C172.341 23.8994 174.2 21.2439 176.855 19.6506C179.644 18.0573 183.361 17.1279 188.008 16.7296C188.938 14.2068 189.469 11.5514 189.602 8.7631C189.734 5.97484 189.867 3.05381 189.867 0C186.282 0.132774 182.166 0.265549 177.519 0.398323C173.005 0.531097 168.225 0.531097 163.445 0.663871C158.665 0.796646 154.151 0.796646 149.902 0.796646C147.645 0.796646 145.255 0.796646 142.6 0.796646C140.475 0.796646 138.351 0.796646 135.961 0.663871C130.65 0.531097 125.604 0.531097 120.825 0.398323C119.762 0.398323 118.833 0.398323 117.904 0.398323H108.742C108.742 3.18658 108.875 6.10762 109.14 9.02865C109.406 12.0825 109.937 14.7379 110.601 16.7296C115.514 17.2607 119.364 18.3229 121.887 19.7834C124.542 21.2439 126.401 23.8994 127.331 27.6171C128.393 31.3347 128.791 36.7785 128.791 43.8155V69.7065V85.3739H119.63C118.966 86.0377 118.302 86.4361 117.771 86.5688C117.771 86.5688 114.584 88.2949 110.734 85.3739H61.3417V44.0811C60.6779 43.0189 59.4829 41.2928 58.1551 39.1684C58.0223 38.9029 57.7568 38.5045 57.4912 38.1062C57.2257 37.7079 57.0929 37.4423 56.8274 37.044C53.6408 31.3347 49.9231 23.501 49.5248 15.5346C49.392 12.2152 47.0021 10.2236 48.9937 0.796646C46.471 0.796646 43.9483 0.796646 41.5584 0.796646C37.3096 0.796646 32.6625 0.796646 27.3515 0.663871C22.0405 0.531097 16.9951 0.531097 12.2152 0.398323C7.43536 0.265549 3.31936 0.132774 0 0C0 2.92103 0.132766 5.97484 0.531089 9.02865C0.929412 12.0825 1.46053 14.7379 2.1244 16.7296C7.03705 17.2607 10.8875 18.3229 13.4102 19.7834C16.0657 21.2439 17.7918 23.8994 18.7212 27.6171C19.6506 31.3347 20.0489 36.7785 20.0489 43.8155V142.467C20.0489 149.637 19.6506 155.08 18.7212 159.064C17.7918 163.047 16.0657 165.702 13.4102 167.163C10.7547 168.623 7.03705 169.553 2.1244 169.951C1.5933 171.943 1.06219 174.465 0.663871 177.652C0.265549 180.706 0 183.76 0 186.681C5.70929 186.282 12.348 186.15 20.0489 186.017C27.7498 185.884 35.4507 185.884 42.8861 185.884C47.9315 185.884 52.7114 185.884 57.3585 185.884C59.6157 185.884 61.8728 185.884 64.13 186.017C69.8393 186.15 74.8847 186.282 79.1335 186.548C79.9301 186.548 80.594 186.681 81.3906 186.681V186.548C81.3906 186.415 81.3906 186.282 81.3906 186.15C81.3906 183.229 81.2579 180.307 80.9923 177.386C80.7268 174.333 80.1957 171.81 79.5318 169.951C74.7519 169.553 71.0342 168.623 68.3788 167.163C65.5905 165.702 63.7316 163.047 62.8022 159.064C61.74 155.213 61.3417 149.637 61.3417 142.467V107.945H74.088C71.4325 106.352 67.9804 104.095 70.3704 101.971C72.362 100.112 77.9385 103.431 84.4445 107.945H128.791L128.658 153.885V155.479V157.736V185.751C132.907 185.751 137.156 185.618 141.405 185.618H142.6C145.521 185.618 148.442 185.618 151.363 185.618C158.798 185.618 165.968 185.618 172.739 185.751C179.511 185.884 185.22 186.017 190 186.415C190 183.361 189.867 180.175 189.602 177.121C189.203 174.2 188.805 171.677 188.274 169.818Z"
    fill="#002877"
  />
</svg>
