@@ -0,0 +1,157 @@
<svg viewBox="0 0 212 191" fill="none" xmlns="http://www.w3.org/2000/svg">
  <rect
    x="45.7618"
    y="57.2031"
    width="11.4406"
    height="110.116"
    rx="5.72031"
    fill="#659EEA"
  />
  <rect
    x="45.7618"
    y="57.1509"
    width="11.4406"
    height="57.8589"
    rx="5.72031"
    fill="#AED0FF"
  />
  <rect
    x="22.882"
    y="87.5356"
    width="11.4406"
    height="64.9436"
    rx="5.72031"
    fill="#659EEA"
  />
  <rect
    x="22.882"
    y="87.5435"
    width="11.4406"
    height="50.7741"
    rx="5.72031"
    fill="#AED0FF"
  />
  <rect
    y="84.3088"
    width="11.4406"
    height="41.3278"
    rx="5.72031"
    fill="#659EEA"
  />
  <rect
    y="94.9382"
    width="11.4406"
    height="30.7006"
    rx="5.72031"
    fill="#AED0FF"
  />
  <rect
    x="68.6448"
    y="26.4543"
    width="11.4406"
    height="126.345"
    rx="5.72031"
    fill="#659EEA"
  />
  <rect
    x="68.6439"
    y="26.4539"
    width="11.4406"
    height="112.175"
    rx="5.72031"
    fill="#AED0FF"
  />
  <rect
    x="91.5245"
    y="50.0527"
    width="11.4406"
    height="138.718"
    rx="5.72032"
    fill="#003884"
  />
  <rect
    x="114.406"
    width="11.4406"
    height="144.057"
    rx="5.72031"
    fill="#003884"
  />
  <rect
    x="136.716"
    y="62.9233"
    width="11.4406"
    height="81.4747"
    rx="5.72032"
    fill="#003884"
  />
  <rect
    x="160.169"
    y="90.095"
    width="11.4406"
    height="48.4125"
    rx="5.72032"
    fill="#003884"
  />
  <path
    fill-rule="evenodd"
    clip-rule="evenodd"
    d="M148.013 68.6437C148.013 65.8912 146.052 63.529 143.347 63.0215C140.642 62.514 137.959 64.0051 136.961 66.5704L136.155 68.6437L148.013 68.6437ZM148.013 97.2453H125.032L102.965 153.988V97.2453H91.5245V184.48C91.5245 187.233 93.4848 189.595 96.19 190.102C98.8953 190.61 101.579 189.119 102.576 186.553L136.572 99.1356V140.148C136.572 142.708 138.273 144.956 140.737 145.652C143.201 146.349 145.827 145.323 147.167 143.141L170.519 105.111H205.931C209.09 105.111 211.651 102.55 211.651 99.3904C211.651 96.2312 209.09 93.6701 205.931 93.6701H167.319C165.33 93.6701 163.484 94.7027 162.444 96.3972L148.013 119.9V97.2453Z"
    fill="#6BA5FF"
  />
  <path
    d="M156.025 48.0061L148.115 76.2063L123.749 69.3721L126.086 61.0399L131.807 40.6434C132.433 38.4113 132.733 36.1003 132.696 33.7824L132.535 23.5962L152.168 29.1029C154.629 29.7931 156.382 31.9664 156.537 34.5175L156.873 40.0747C157.035 42.7473 156.748 45.4281 156.025 48.0061Z"
    fill="url(#paint0_linear_2736_133982)"
  />
  <path
    d="M120.134 67.8069L123.87 69.406L131.953 40.5884C132.611 38.2422 132.908 35.8094 132.833 33.3737L132.534 23.5962L120.134 67.8069Z"
    fill="#EBB942"
  />
  <path
    d="M123.956 68.9326L148.245 75.7453L141.931 98.2552C141.633 99.3187 140.529 99.9391 139.465 99.6408L117.102 93.3682L123.956 68.9326Z"
    fill="url(#paint1_linear_2736_133982)"
  />
  <path
    d="M120.379 66.9347L123.932 69.0163L117.133 93.2549C117.011 93.6931 116.383 93.619 116.37 93.164C116.26 89.2764 116.148 82.0183 116.758 79.8441L120.379 66.9347Z"
    fill="#D9D9D9"
  />
  <ellipse
    rx="0.909167"
    ry="0.977905"
    transform="matrix(-1.01078 -0.290762 0.261693 -0.908131 137.277 88.4264)"
    fill="#595A5E"
  />
  <ellipse
    rx="0.909167"
    ry="0.977905"
    transform="matrix(-1.01078 -0.290762 0.261693 -0.908131 126.248 85.2541)"
    fill="#595A5E"
  />
  <path
    d="M133.746 79.958C131.97 79.447 130.272 79.9273 129.954 81.0309L136.387 82.8813C136.705 81.7778 135.523 80.469 133.746 79.958Z"
    fill="#595A5E"
  />
  <defs>
    <linearGradient
      id="paint0_linear_2736_133982"
      x1="134.427"
      y1="72.3668"
      x2="146.97"
      y2="27.6451"
      gradientUnits="userSpaceOnUse"
    >
      <stop stop-color="#FFD56E" />
      <stop offset="1" stop-color="#F6C245" />
    </linearGradient>
    <linearGradient
      id="paint1_linear_2736_133982"
      x1="138.558"
      y1="97.1694"
      x2="125.138"
      y2="71.6673"
      gradientUnits="userSpaceOnUse"
    >
      <stop stop-color="white" />
      <stop offset="1" stop-color="#F7F7F7" />
    </linearGradient>
  </defs>
</svg>
