<svg id="ehnvx9um15ie1" xmlns="http://www.w3.org/2000/svg" xmlns:xlink="http://www.w3.org/1999/xlink"
    viewBox="0 0 60 60" shape-rendering="geometricPrecision" text-rendering="geometricPrecision">
    <style>
        <![CDATA[
        #ehnvx9um15ie4_to {
            animation: ehnvx9um15ie4_to__to 2000ms linear infinite normal forwards
        }

        @keyframes ehnvx9um15ie4_to__to {
            0% {
                transform: translate(31px, 42.499375px)
            }

            50% {
                transform: translate(31px, 36.999375px)
            }

            100% {
                transform: translate(31px, 42.499375px)
            }
        }
        ]]>
    </style>
    <g id="ehnvx9um15ie2">
        <path id="ehnvx9um15ie3"
            d="M50.975000,20.694000C50.448000,11.694000,43.029000,4.500000,34.084000,4.500000C28.654000,4.500000,23.396000,7.163000,20.138000,11.508000C20.064000,11.469000,19.985000,11.443000,19.910000,11.406000C19.712000,11.310000,19.511000,11.218000,19.305000,11.137000C19.190000,11.092000,19.075000,11.051000,18.959000,11.010000C18.757000,10.939000,18.553000,10.877000,18.344000,10.820000C18.228000,10.789000,18.113000,10.757000,17.995000,10.730000C17.771000,10.679000,17.543000,10.640000,17.312000,10.606000C17.210000,10.591000,17.110000,10.571000,17.007000,10.559000C16.677000,10.523000,16.341000,10.500000,16,10.500000C11.038000,10.500000,7,14.537000,7,19.500000C7,19.629000,7.007000,19.755000,7.016000,19.881000C2.857000,22.148000,0,26.899000,0,31.654000C0,38.737000,5.762000,44.500000,12.845000,44.500000L18,44.500000C18.552000,44.500000,19,44.053000,19,43.500000C19,42.947000,18.552000,42.500000,18,42.500000L12.845000,42.500000C6.865000,42.500000,2,37.635000,2,31.654000C2,27.500000,4.705000,23.188000,8.432000,21.401000L9,21.130000L9,20.500000C9,20.377000,9.008000,20.251000,9.015000,20.125000L9.024000,19.950000L9.012000,19.762000C9.007000,19.675000,9,19.588000,9,19.500000C9,15.641000,12.140000,12.500000,16,12.500000C16.309000,12.500000,16.614000,12.527000,16.917000,12.567000C16.995000,12.577000,17.072000,12.590000,17.149000,12.603000C17.417000,12.647000,17.681000,12.705000,17.941000,12.780000C17.975000,12.790000,18.010000,12.796000,18.043000,12.806000C18.329000,12.893000,18.608000,13.004000,18.881000,13.128000C18.950000,13.159000,19.018000,13.193000,19.086000,13.227000C19.328000,13.346000,19.565000,13.478000,19.793000,13.626000C21.720000,14.875000,23,17.039000,23,19.500000C23,20.053000,23.448000,20.500000,24,20.500000C24.552000,20.500000,25,20.053000,25,19.500000C25,16.746000,23.754000,14.281000,21.800000,12.629000C24.666000,8.879000,29.388000,6.500000,34.084000,6.500000C41.828000,6.500000,48.262000,12.635000,48.932000,20.387000C47.910000,20.315000,46.379000,20.278000,44.849000,20.512000C44.303000,20.595000,43.928000,21.105000,44.011000,21.651000C44.086000,22.146000,44.512000,22.501000,44.998000,22.501000C45.048000,22.501000,45.099000,22.497000,45.150000,22.489000C47.374000,22.153000,49.693000,22.468000,49.834000,22.487000C54.490000,23.372000,58,27.661000,58,32.472000C58,38.001000,53.501000,42.500000,47.972000,42.500000L44,42.500000C43.448000,42.500000,43,42.947000,43,43.500000C43,44.053000,43.448000,44.500000,44,44.500000L47.972000,44.500000C54.604000,44.500000,60,39.104000,60,32.472000C60,26.983000,56.173000,22.060000,50.975000,20.694000Z"
            fill="#e1e3eb" stroke="none" stroke-width="15px" />
        <g id="ehnvx9um15ie4_to" transform="translate(31,42.499375)">
            <path id="ehnvx9um15ie4"
                d="M31.708000,30.794000C31.616000,30.701000,31.505000,30.628000,31.382000,30.577000C31.138000,30.476000,30.862000,30.476000,30.618000,30.577000C30.495000,30.628000,30.385000,30.701000,30.292000,30.794000L22.293000,38.793000C21.902000,39.184000,21.902000,39.816000,22.293000,40.207000C22.488000,40.402000,22.744000,40.500000,23,40.500000C23.256000,40.500000,23.512000,40.402000,23.707000,40.207000L30,33.914000L30,54.500000C30,55.053000,30.448000,55.500000,31,55.500000C31.552000,55.500000,32,55.053000,32,54.500000L32,33.914000L38.293000,40.207000C38.488000,40.402000,38.744000,40.500000,39,40.500000C39.256000,40.500000,39.512000,40.402000,39.707000,40.207000C40.098000,39.816000,40.098000,39.184000,39.707000,38.793000L31.708000,30.794000Z"
                transform="translate(-31,-43.000625)" fill="#e1e3eb" stroke="none" stroke-width="15px"
                stroke-opacity="1" />
        </g>
    </g>
</svg>