<svg viewBox="0 0 1920 216" fill="none" xmlns="http://www.w3.org/2000/svg">
  <g opacity="0.4">
    <path
      d="M1.17676 99.2147L4.32047 99.2707C135.799 101.613 409.298 106.484 510.571 88.0873C607.641 70.4536 659.535 0 730.371 0C843.917 0 883.502 88.5515 988.714 88.5515C1073.09 88.5515 1121.01 11.1269 1204.35 11.1269C1326.55 11.1269 1322.98 99.9526 1751.44 96.2887C1818.87 94.4997 1874.64 93.0997 1892.92 92.26C1841.1 94.6405 1794.12 95.9237 1751.44 96.2887C1620.29 99.7681 1445.05 104.719 1415.81 109.878C1355.39 120.541 1306.43 144.65 1232.47 144.65C1162.68 144.65 1089.76 109.878 1022.05 109.878C909.544 109.878 861.626 215.583 755.372 215.583C649.118 215.583 591.824 131.204 499.112 121.932C432.648 115.284 52.5676 101.842 1.17676 99.2147Z"
      fill="#0157CB"
      fill-opacity="0.7"
    />
    <path
      d="M362.65 83.9148C310.72 96.9617 100.14 98.7507 0.13623 99.2143C122.016 105.087 307.44 109.414 437.653 122.859C508.903 130.216 582.45 181.275 658.495 181.275C734.539 181.275 822.042 122.859 866.836 122.859C911.629 122.859 943.922 149.285 1006.42 149.285C1068.93 149.285 1137.68 110.341 1230.39 110.341C1271.02 110.341 1319.98 140.477 1385.61 140.477C1440.82 140.477 1469.98 124.25 1530.4 114.514C1590.82 104.778 1815.83 94.4236 1920 92.26C1839.79 92.7236 1656 95.6903 1566.86 94.5781C1455.4 93.1872 1435.61 72.3243 1385.61 72.3243C1310.6 72.3243 1327.27 89.4783 1230.39 89.4783C1175.18 89.4783 1151.22 62.1247 1106.43 62.1247C1066.84 62.1247 1060.59 73.2516 1017.88 70.0062C979.89 67.1193 949.13 44.5071 896.003 44.5071C815.792 44.5071 786.624 79.7422 713.705 79.7422C640.785 79.7422 581.408 44.5071 527.24 44.5071C457.445 44.5071 427.236 67.6881 362.65 83.9148Z"
      fill="#86B9FF"
      fill-opacity="0.2"
    />
    <path
      d="M23.1126 98.7515L23.0535 98.7507L22.2911 98.7507C1.95563 98.7495 -47.8312 98.7467 128.265 105.705C216.796 109.203 320.653 125.824 373.066 139.086C452.633 159.217 482.445 177.566 547.032 177.566C689.745 177.566 673.078 127.495 797.041 127.495C844.959 127.495 888.711 159.949 1012.67 159.949C1136.64 159.949 1169.97 107.096 1231.43 107.096C1292.89 107.096 1322.06 166.306 1385.6 166.306C1454.36 166.306 1472.07 138.025 1574.15 119.48C1675.09 101.145 1813.4 93.3418 1920 92.26C1911.67 91.951 1871.04 91.2401 1775.2 90.8692C1655.41 90.4056 1594.99 40.7982 1485.61 40.7982C1376.23 40.7982 1332.48 98.2871 1231.43 98.2871C1130.39 98.2871 1027.26 15.7627 973.089 15.7627C918.92 15.7627 846.001 72.3244 797.041 72.3244C748.081 72.3244 712.663 10.1992 657.452 10.1992C602.242 10.1992 560.573 65.8337 460.57 88.0875C390.786 103.616 151.604 100.452 23.1126 98.7515Z"
      fill="#609FFF"
      fill-opacity="0.3"
    />
  </g>
</svg>
