<svg viewBox="0 0 165 50" fill="none" xmlns="http://www.w3.org/2000/svg">
  <path
    d="M158.051 1.12765C160.938 1.12765 163.284 3.47316 163.284 6.35995V43.6401C163.284 46.5268 160.938 48.8723 158.051 48.8723H6.35995C3.47316 48.8723 1.12765 46.5268 1.12765 43.6401V6.34867C1.12765 3.46188 3.47316 1.11638 6.35995 1.11638H158.051M158.051 0H6.35995C2.85296 0 0 2.84168 0 6.35995V43.6401C0 47.147 2.84168 50 6.35995 50H158.063C161.57 50 164.423 47.1583 164.423 43.6401V6.34867C164.411 2.84168 161.57 0 158.051 0Z"
    fill="white"
  />
  <path
    d="M17.3093 20.4221C14.6368 25.0454 16.3396 32.0707 19.2827 36.3332C20.7599 38.4645 22.2484 40.3702 24.2895 40.3702C24.3233 40.3702 24.3684 40.3702 24.4023 40.3702C25.3608 40.3364 26.0599 40.0319 26.7252 39.75C27.4807 39.4343 28.2588 39.096 29.4767 39.096C30.6382 39.096 31.3824 39.4117 32.0928 39.7274C32.8033 40.0319 33.525 40.3476 34.5962 40.3251C36.8966 40.28 38.3062 38.2164 39.5579 36.4009C40.8547 34.5064 41.5087 32.6571 41.7342 31.9579L41.7455 31.9354C41.7906 31.8113 41.723 31.676 41.6102 31.6196C41.6102 31.6196 41.5989 31.6084 41.5876 31.6084C41.1817 31.4392 37.6296 29.8718 37.5958 25.5754C37.5619 22.091 40.257 20.2417 40.7983 19.9034L40.8208 19.8921C40.8772 19.8583 40.9223 19.7906 40.9336 19.7229C40.9449 19.6553 40.9336 19.5876 40.8885 19.52C39.0279 16.791 36.1749 16.3851 35.0247 16.3287C34.8556 16.3174 34.6864 16.3062 34.5173 16.3062C33.1641 16.3062 31.8786 16.8136 30.8299 17.2308C30.1082 17.5127 29.488 17.7608 29.0707 17.7608C28.5858 17.7608 27.9656 17.5127 27.2439 17.2308C26.2742 16.8474 25.1803 16.4189 24.0301 16.4189C24.0076 16.4189 23.9738 16.4189 23.9512 16.4189C21.2561 16.4527 18.7189 17.9864 17.3093 20.4221Z"
    fill="white"
  />
  <path
    d="M35.036 8.82959C33.4009 8.89725 31.4501 9.90086 30.2773 11.2653C29.285 12.4155 28.3152 14.3325 28.5633 16.2721C28.5746 16.3961 28.6761 16.4863 28.8001 16.4976C28.9129 16.5089 29.0256 16.5089 29.1384 16.5089C30.7284 16.5089 32.4537 15.6293 33.6265 14.2085C34.8669 12.7087 35.4871 10.7804 35.2954 9.0664C35.2841 8.91981 35.1713 8.82959 35.036 8.82959Z"
    fill="white"
  />
  <path
    d="M53.8 8.6936H56.8898C57.7017 8.6936 58.4234 8.86275 59.0549 9.20105C59.6864 9.53934 60.1713 10.0017 60.5208 10.5881C60.8704 11.1744 61.0508 11.851 61.0508 12.6066C61.0508 13.3621 60.8704 14.0274 60.5208 14.625C60.1713 15.2114 59.6864 15.685 59.0549 16.0121C58.4234 16.3503 57.7017 16.5195 56.8898 16.5195H53.8V8.6936ZM56.8447 16.0008C57.5664 16.0008 58.1979 15.8542 58.7504 15.5723C59.303 15.2904 59.7202 14.8844 60.0247 14.377C60.3179 13.8582 60.4757 13.2719 60.4757 12.6178C60.4757 11.9525 60.3291 11.3661 60.0247 10.8587C59.7315 10.34 59.303 9.9453 58.7504 9.66339C58.1979 9.38147 57.5664 9.23488 56.8447 9.23488H54.3639V16.0233H56.8447V16.0008Z"
    fill="white"
  />
  <path
    d="M63.6219 16.1696C63.1821 15.9215 62.8326 15.5607 62.5732 15.1096C62.3251 14.6586 62.1898 14.1511 62.1898 13.5873C62.1898 13.0235 62.3138 12.516 62.5732 12.065C62.8213 11.6139 63.1709 11.2643 63.6219 11.005C64.0617 10.7569 64.5579 10.6216 65.1104 10.6216C65.663 10.6216 66.1592 10.7456 66.5989 11.005C67.0387 11.2531 67.3883 11.6139 67.6476 12.065C67.8957 12.516 68.0311 13.0235 68.0311 13.5873C68.0311 14.1511 67.907 14.6586 67.6476 15.1096C67.3996 15.5607 67.05 15.9103 66.5989 16.1696C66.1592 16.4177 65.663 16.553 65.1104 16.553C64.5691 16.553 64.0617 16.429 63.6219 16.1696ZM66.317 15.7411C66.6666 15.5381 66.9485 15.2449 67.1515 14.8728C67.3545 14.5007 67.4559 14.0722 67.4559 13.5986C67.4559 13.125 67.3545 12.6965 67.1515 12.3243C66.9485 11.9522 66.6666 11.659 66.317 11.456C65.9675 11.2531 65.5615 11.1403 65.1217 11.1403C64.6706 11.1403 64.276 11.2418 63.9264 11.456C63.5768 11.659 63.2949 11.9522 63.0919 12.3243C62.889 12.6965 62.7875 13.125 62.7875 13.5986C62.7875 14.0722 62.889 14.5007 63.0919 14.8728C63.2949 15.2449 63.5768 15.5381 63.9264 15.7411C64.276 15.9441 64.6819 16.0569 65.1217 16.0569C65.5615 16.0569 65.9562 15.9441 66.317 15.7411Z"
    fill="white"
  />
  <path
    d="M77.9205 10.6785L75.7103 16.5084H75.1803L73.2182 11.4565L71.2448 16.5084H70.726L68.5159 10.6785H69.0571L70.9967 15.8769L72.9813 10.6785H73.4662L75.4396 15.8657L77.4017 10.6785H77.9205Z"
    fill="white"
  />
  <path
    d="M83.7843 11.2759C84.2128 11.7044 84.4158 12.3134 84.4158 13.1027V16.5082H83.8632V13.1478C83.8632 12.4938 83.6941 11.9976 83.367 11.648C83.04 11.3097 82.5777 11.1293 81.98 11.1293C81.2922 11.1293 80.7509 11.3323 80.3562 11.7382C79.9615 12.1442 79.7698 12.6968 79.7698 13.3846V16.4857H79.2173V10.6557H79.7586V11.9187C79.9615 11.5127 80.2547 11.1857 80.6607 10.9602C81.0554 10.7346 81.529 10.6106 82.0702 10.6106C82.7919 10.6331 83.367 10.8474 83.7843 11.2759Z"
    fill="white"
  />
  <path d="M86.7275 8.2312H87.2801V16.5082H86.7275V8.2312Z" fill="white" />
  <path
    d="M90.4261 16.1696C89.9863 15.9215 89.6368 15.5607 89.3774 15.1096C89.1294 14.6586 88.994 14.1511 88.994 13.5873C88.994 13.0235 89.1181 12.516 89.3774 12.065C89.6255 11.6139 89.9751 11.2643 90.4261 11.005C90.8659 10.7569 91.3621 10.6216 91.9146 10.6216C92.4672 10.6216 92.9634 10.7456 93.4031 11.005C93.8429 11.2531 94.1925 11.6139 94.4519 12.065C94.6999 12.516 94.8353 13.0235 94.8353 13.5873C94.8353 14.1511 94.7112 14.6586 94.4519 15.1096C94.2038 15.5607 93.8542 15.9103 93.4031 16.1696C92.9634 16.4177 92.4672 16.553 91.9146 16.553C91.3621 16.553 90.8659 16.429 90.4261 16.1696ZM93.1099 15.7411C93.4595 15.5381 93.7414 15.2449 93.9444 14.8728C94.1474 14.5007 94.2489 14.0722 94.2489 13.5986C94.2489 13.125 94.1474 12.6965 93.9444 12.3243C93.7414 11.9522 93.4595 11.659 93.1099 11.456C92.7604 11.2531 92.3544 11.1403 91.9146 11.1403C91.4636 11.1403 91.0689 11.2418 90.7193 11.456C90.3698 11.659 90.0879 11.9522 89.8849 12.3243C89.6819 12.6965 89.5804 13.125 89.5804 13.5986C89.5804 14.0722 89.6819 14.5007 89.8849 14.8728C90.0879 15.2449 90.3698 15.5381 90.7193 15.7411C91.0689 15.9441 91.4749 16.0569 91.9146 16.0569C92.3657 16.0569 92.7604 15.9441 93.1099 15.7411Z"
    fill="white"
  />
  <path
    d="M100.158 11.1856C100.541 11.5577 100.733 12.099 100.733 12.8094V16.5081H100.192V15.4707C100 15.809 99.7293 16.0796 99.3798 16.2713C99.0189 16.463 98.5904 16.5532 98.0942 16.5532C97.4515 16.5532 96.9328 16.3954 96.5607 16.0909C96.1885 15.7864 95.9968 15.3805 95.9968 14.8843C95.9968 14.3994 96.166 14.0047 96.5155 13.7115C96.8651 13.4071 97.4177 13.2605 98.1732 13.2605H100.169V12.7869C100.169 12.2456 100.023 11.8284 99.7293 11.5465C99.4361 11.2645 99.0076 11.1179 98.4438 11.1179C98.0604 11.1179 97.6883 11.1856 97.3387 11.3209C96.9891 11.4562 96.6847 11.6367 96.4366 11.8622L96.1547 11.4562C96.4479 11.1969 96.7975 10.9939 97.2034 10.8473C97.6094 10.7007 98.0379 10.6331 98.4889 10.6331C99.2219 10.6331 99.7744 10.8248 100.158 11.1856ZM99.4249 15.7639C99.7632 15.5383 100.023 15.2113 100.192 14.7941V13.7003H98.207C97.6319 13.7003 97.2147 13.8018 96.9666 14.016C96.7072 14.219 96.5832 14.5122 96.5832 14.873C96.5832 15.2564 96.7298 15.5496 97.0117 15.7751C97.2936 15.9894 97.6883 16.1022 98.207 16.1022C98.6693 16.0909 99.0866 15.9894 99.4249 15.7639Z"
    fill="white"
  />
  <path
    d="M108.232 8.2312V16.5082H107.69V15.1324C107.465 15.5835 107.138 15.933 106.721 16.1811C106.303 16.4292 105.83 16.5533 105.3 16.5533C104.758 16.5533 104.262 16.4292 103.823 16.1699C103.383 15.9218 103.044 15.5722 102.785 15.1211C102.537 14.6701 102.413 14.1626 102.413 13.5875C102.413 13.0124 102.537 12.505 102.785 12.0539C103.033 11.6029 103.383 11.2533 103.823 11.0052C104.262 10.7571 104.747 10.6331 105.3 10.6331C105.818 10.6331 106.292 10.7571 106.698 11.0052C107.115 11.2533 107.431 11.5916 107.679 12.0314V8.2312H108.232ZM106.529 15.7413C106.878 15.5384 107.16 15.2452 107.363 14.8731C107.566 14.5009 107.668 14.0724 107.668 13.5988C107.668 13.1252 107.566 12.6967 107.363 12.3246C107.16 11.9524 106.878 11.6593 106.529 11.4563C106.179 11.2533 105.773 11.1405 105.334 11.1405C104.883 11.1405 104.488 11.242 104.138 11.4563C103.789 11.6593 103.507 11.9524 103.304 12.3246C103.101 12.6967 102.999 13.1252 102.999 13.5988C102.999 14.0724 103.101 14.5009 103.304 14.8731C103.507 15.2452 103.789 15.5384 104.138 15.7413C104.488 15.9443 104.894 16.0571 105.334 16.0571C105.773 16.0571 106.179 15.9443 106.529 15.7413Z"
    fill="white"
  />
  <path
    d="M114.242 16.1696C113.802 15.9215 113.453 15.5607 113.193 15.1096C112.945 14.6586 112.81 14.1511 112.81 13.5873C112.81 13.0235 112.934 12.516 113.193 12.065C113.441 11.6139 113.791 11.2643 114.242 11.005C114.682 10.7569 115.178 10.6216 115.731 10.6216C116.283 10.6216 116.779 10.7456 117.219 11.005C117.659 11.2531 118.008 11.6139 118.268 12.065C118.516 12.516 118.651 13.0235 118.651 13.5873C118.651 14.1511 118.527 14.6586 118.268 15.1096C118.02 15.5607 117.67 15.9103 117.219 16.1696C116.779 16.4177 116.283 16.553 115.731 16.553C115.178 16.553 114.682 16.429 114.242 16.1696ZM116.937 15.7411C117.287 15.5381 117.569 15.2449 117.772 14.8728C117.975 14.5007 118.076 14.0722 118.076 13.5986C118.076 13.125 117.975 12.6965 117.772 12.3243C117.569 11.9522 117.287 11.659 116.937 11.456C116.588 11.2531 116.182 11.1403 115.742 11.1403C115.302 11.1403 114.896 11.2418 114.547 11.456C114.197 11.659 113.915 11.9522 113.712 12.3243C113.509 12.6965 113.408 13.125 113.408 13.5986C113.408 14.0722 113.509 14.5007 113.712 14.8728C113.915 15.2449 114.197 15.5381 114.547 15.7411C114.896 15.9441 115.302 16.0569 115.742 16.0569C116.182 16.0569 116.576 15.9441 116.937 15.7411Z"
    fill="white"
  />
  <path
    d="M124.955 11.2759C125.383 11.7044 125.586 12.3134 125.586 13.1027V16.5082H125.034V13.1478C125.034 12.4938 124.865 11.9976 124.538 11.648C124.211 11.3097 123.748 11.1293 123.151 11.1293C122.463 11.1293 121.921 11.3323 121.527 11.7382C121.132 12.1442 120.94 12.6968 120.94 13.3846V16.4857H120.388V10.6557H120.929V11.9187C121.132 11.5127 121.425 11.1857 121.831 10.9602C122.226 10.7346 122.699 10.6106 123.241 10.6106C123.951 10.6331 124.526 10.8474 124.955 11.2759Z"
    fill="white"
  />
  <path
    d="M133.649 16.1361C133.502 16.2714 133.333 16.3729 133.119 16.4406C132.905 16.5082 132.69 16.5421 132.454 16.5421C131.946 16.5421 131.551 16.4068 131.281 16.1248C131.01 15.8429 130.864 15.4595 130.864 14.9634V11.1632H129.792V10.6783H130.864V9.40405H131.416V10.6783H133.266V11.1632H131.416V14.9183C131.416 15.3017 131.506 15.5836 131.687 15.7865C131.867 15.9782 132.138 16.0797 132.499 16.0797C132.86 16.0797 133.164 15.967 133.401 15.7527L133.649 16.1361Z"
    fill="white"
  />
  <path
    d="M139.772 11.2759C140.201 11.7044 140.404 12.3133 140.404 13.1026V16.5082H139.851V13.1478C139.851 12.4937 139.682 11.9976 139.355 11.648C139.028 11.3097 138.566 11.1293 137.968 11.1293C137.28 11.1293 136.739 11.3322 136.344 11.7382C135.949 12.1441 135.758 12.6967 135.758 13.3846V16.4856H135.205V8.2312H135.758V11.9073C135.961 11.5014 136.254 11.1969 136.649 10.9714C137.043 10.7571 137.506 10.6444 138.047 10.6444C138.78 10.6331 139.355 10.8473 139.772 11.2759Z"
    fill="white"
  />
  <path
    d="M147.643 13.7341H142.636C142.648 14.1852 142.772 14.5911 142.986 14.9407C143.2 15.2903 143.493 15.5722 143.865 15.7639C144.238 15.9556 144.644 16.0571 145.106 16.0571C145.489 16.0571 145.839 15.9894 146.166 15.8541C146.493 15.7188 146.764 15.5158 146.978 15.2451L147.305 15.6173C147.057 15.9217 146.73 16.1585 146.346 16.3164C145.963 16.4856 145.546 16.5645 145.106 16.5645C144.531 16.5645 144.012 16.4405 143.55 16.1811C143.099 15.933 142.738 15.5834 142.478 15.1324C142.219 14.6813 142.095 14.1739 142.095 13.5988C142.095 13.0349 142.219 12.5275 142.456 12.0764C142.693 11.6254 143.031 11.2758 143.46 11.0165C143.888 10.7684 144.362 10.6331 144.892 10.6331C145.422 10.6331 145.895 10.7571 146.312 11.0052C146.73 11.2533 147.068 11.6028 147.305 12.0539C147.542 12.505 147.666 13.0011 147.666 13.5762L147.643 13.7341ZM143.775 11.3999C143.448 11.5803 143.189 11.8396 142.986 12.1667C142.794 12.4937 142.67 12.8771 142.648 13.283H147.113C147.091 12.8658 146.978 12.4937 146.775 12.1667C146.572 11.8396 146.313 11.5803 145.985 11.3999C145.658 11.2194 145.286 11.1179 144.88 11.1179C144.463 11.1292 144.102 11.2194 143.775 11.3999Z"
    fill="white"
  />
  <path
    d="M62.0546 33.7838H55.3789L54.0595 36.8736H51.4998L57.5101 23.5222H59.9571L65.9901 36.8736H63.3965L62.0546 33.7838ZM61.2427 31.833L58.728 25.9918L56.2246 31.833H61.2427Z"
    fill="white"
  />
  <path
    d="M75.7666 27.2208C76.5447 27.6493 77.1649 28.2582 77.6047 29.0476C78.0445 29.8369 78.2701 30.7503 78.2701 31.7765C78.2701 32.8027 78.0445 33.7161 77.6047 34.5167C77.1649 35.306 76.5447 35.9263 75.7666 36.3548C74.9886 36.7833 74.0977 37.0088 73.1054 37.0088C71.7297 37.0088 70.6471 36.5465 69.8465 35.6331V40.5722H67.4672V26.6908H69.7337V28.0214C70.1284 27.5365 70.6133 27.1757 71.1884 26.9389C71.7635 26.7021 72.4063 26.578 73.1054 26.578C74.0977 26.5668 74.9773 26.7923 75.7666 27.2208ZM74.9999 34.0882C75.5637 33.5018 75.8456 32.735 75.8456 31.7765C75.8456 30.818 75.5637 30.0512 74.9999 29.4648C74.436 28.8784 73.7143 28.5853 72.8348 28.5853C72.2597 28.5853 71.7522 28.7206 71.2899 28.9799C70.8275 29.2393 70.4667 29.6114 70.2074 30.0963C69.9367 30.5812 69.8014 31.1337 69.8014 31.7765C69.8014 32.408 69.9367 32.9718 70.2074 33.4567C70.478 33.9416 70.8388 34.3137 71.2899 34.5731C71.7522 34.8324 72.2597 34.9678 72.8348 34.9678C73.7143 34.9678 74.436 34.6746 74.9999 34.0882Z"
    fill="white"
  />
  <path
    d="M88.8475 27.2208C89.6255 27.6493 90.2458 28.2582 90.6855 29.0476C91.1253 29.8369 91.3509 30.7503 91.3509 31.7765C91.3509 32.8027 91.1253 33.7161 90.6855 34.5167C90.2458 35.306 89.6255 35.9263 88.8475 36.3548C88.0694 36.7833 87.1786 37.0088 86.1862 37.0088C84.8105 37.0088 83.7279 36.5465 82.9273 35.6331V40.5722H80.548V26.6908H82.8145V28.0214C83.2092 27.5365 83.6941 27.1757 84.2692 26.9389C84.8443 26.7021 85.4871 26.578 86.1862 26.578C87.1786 26.5668 88.0694 26.7923 88.8475 27.2208ZM88.0919 34.0882C88.6558 33.5018 88.9377 32.735 88.9377 31.7765C88.9377 30.818 88.6558 30.0512 88.0919 29.4648C87.5281 28.8784 86.8064 28.5853 85.9269 28.5853C85.3518 28.5853 84.8443 28.7206 84.382 28.9799C83.9196 29.2393 83.5588 29.6114 83.2994 30.0963C83.0288 30.5812 82.8935 31.1337 82.8935 31.7765C82.8935 32.408 83.0288 32.9718 83.2994 33.4567C83.5701 33.9416 83.9309 34.3137 84.382 34.5731C84.8443 34.8324 85.3518 34.9678 85.9269 34.9678C86.7951 34.9678 87.5168 34.6746 88.0919 34.0882Z"
    fill="white"
  />
  <path
    d="M100.271 36.6253C99.312 36.3321 98.5452 35.9487 97.9927 35.4638L98.8497 33.5356C99.391 33.9641 100.068 34.3249 100.857 34.5955C101.646 34.8662 102.447 35.0015 103.248 35.0015C104.24 35.0015 104.984 34.8436 105.469 34.5279C105.954 34.2121 106.202 33.7949 106.202 33.2649C106.202 32.8815 106.067 32.5658 105.796 32.3177C105.525 32.0696 105.176 31.8779 104.759 31.7313C104.341 31.596 103.766 31.4381 103.045 31.2577C102.03 31.0209 101.206 30.7728 100.575 30.536C99.9435 30.2992 99.4022 29.9158 98.9512 29.3971C98.5001 28.8784 98.2746 28.1905 98.2746 27.3109C98.2746 26.578 98.4776 25.9014 98.8722 25.3037C99.2782 24.6948 99.8758 24.2212 100.688 23.8603C101.5 23.4995 102.481 23.3303 103.653 23.3303C104.465 23.3303 105.266 23.4318 106.055 23.6348C106.845 23.8378 107.521 24.131 108.096 24.5144L107.318 26.4426C106.732 26.1043 106.123 25.8337 105.492 25.6646C104.86 25.4841 104.24 25.3939 103.642 25.3939C102.661 25.3939 101.939 25.5631 101.455 25.8901C100.981 26.2171 100.744 26.6569 100.744 27.2094C100.744 27.5928 100.879 27.8973 101.15 28.1454C101.421 28.3822 101.77 28.5739 102.188 28.7205C102.605 28.8558 103.18 29.025 103.902 29.1941C104.894 29.4196 105.706 29.6564 106.349 29.9045C106.98 30.1526 107.533 30.536 107.984 31.0434C108.435 31.5509 108.66 32.2388 108.66 33.107C108.66 33.84 108.457 34.5166 108.063 35.1143C107.657 35.7119 107.059 36.1855 106.236 36.5464C105.424 36.9072 104.432 37.0764 103.259 37.0764C102.233 37.0651 101.24 36.9185 100.271 36.6253Z"
    fill="white"
  />
  <path
    d="M117.016 36.321C116.734 36.5465 116.396 36.7269 116.001 36.8397C115.595 36.9525 115.178 37.0088 114.738 37.0088C113.622 37.0088 112.754 36.7157 112.145 36.1293C111.536 35.5429 111.231 34.6972 111.231 33.5695V28.6642H109.551V26.7585H111.231V24.4355H113.611V26.7585H116.339V28.6642H113.611V33.5131C113.611 34.0093 113.735 34.3927 113.971 34.6521C114.208 34.9114 114.558 35.0467 115.02 35.0467C115.55 35.0467 116.001 34.9114 116.351 34.6295L117.016 36.321Z"
    fill="white"
  />
  <path
    d="M120.433 36.3436C119.61 35.9038 118.956 35.2836 118.493 34.4829C118.031 33.6936 117.794 32.7915 117.794 31.7879C117.794 30.7843 118.031 29.8821 118.493 29.0928C118.956 28.3034 119.598 27.6832 120.433 27.2434C121.256 26.8037 122.192 26.5781 123.218 26.5781C124.256 26.5781 125.192 26.8037 126.026 27.2434C126.849 27.6832 127.503 28.3034 127.966 29.0928C128.428 29.8821 128.665 30.773 128.665 31.7879C128.665 32.7915 128.428 33.6936 127.966 34.4829C127.503 35.2723 126.86 35.8925 126.026 36.3436C125.203 36.7834 124.267 37.0089 123.218 37.0089C122.181 37.0089 121.256 36.7834 120.433 36.3436ZM125.383 34.0883C125.958 33.5019 126.24 32.7351 126.24 31.7766C126.24 30.8181 125.958 30.0513 125.383 29.4649C124.808 28.8785 124.086 28.5853 123.207 28.5853C122.327 28.5853 121.606 28.8785 121.042 29.4649C120.478 30.0513 120.196 30.8181 120.196 31.7766C120.196 32.7351 120.478 33.5019 121.042 34.0883C121.606 34.6746 122.327 34.9678 123.207 34.9678C124.086 34.9678 124.819 34.6746 125.383 34.0883Z"
    fill="white"
  />
  <path
    d="M136.829 26.5669V28.8335C136.626 28.7996 136.446 28.7771 136.276 28.7771C135.352 28.7771 134.619 29.0477 134.1 29.589C133.581 30.1303 133.322 30.9083 133.322 31.9232V36.8736H130.943V26.6909H133.209V28.1794C133.897 27.1082 135.104 26.5669 136.829 26.5669Z"
    fill="white"
  />
  <path
    d="M148.297 32.5434H140.302C140.437 33.299 140.81 33.8853 141.396 34.3251C141.982 34.7649 142.727 34.9792 143.595 34.9792C144.711 34.9792 145.636 34.607 146.358 33.8741L147.632 35.34C147.17 35.8926 146.594 36.2985 145.895 36.5804C145.196 36.8623 144.407 36.9977 143.527 36.9977C142.411 36.9977 141.419 36.7721 140.573 36.3323C139.716 35.8926 139.062 35.2724 138.599 34.4717C138.137 33.6824 137.9 32.7802 137.9 31.7766C137.9 30.7843 138.126 29.8935 138.577 29.0928C139.028 28.3035 139.659 27.6833 140.46 27.2322C141.261 26.7924 142.163 26.5669 143.166 26.5669C144.159 26.5669 145.05 26.7812 145.828 27.2209C146.606 27.6607 147.215 28.2809 147.654 29.0703C148.094 29.8596 148.308 30.7843 148.308 31.8217C148.331 32.0022 148.32 32.239 148.297 32.5434ZM141.249 29.1605C140.719 29.6115 140.404 30.2092 140.291 30.9647H146.076C145.974 30.2318 145.659 29.6341 145.14 29.1718C144.621 28.7094 143.967 28.4839 143.189 28.4839C142.422 28.4839 141.779 28.7094 141.249 29.1605Z"
    fill="white"
  />
</svg>
