<svg viewBox="0 0 24 24" fill="none" xmlns="http://www.w3.org/2000/svg">
  <path
    d="M3.76349 3.93328L3.84216 3.84215C4.13062 3.55369 4.582 3.52747 4.90008 3.76348L4.99121 3.84215L12 10.8506L19.0089 3.84215C19.3262 3.52485 19.8405 3.52485 20.1578 3.84215C20.4752 4.15945 20.4752 4.6739 20.1578 4.9912L13.1494 12L20.1578 19.0088C20.4463 19.2972 20.4726 19.7487 20.2365 20.0667L20.1578 20.1578C19.8695 20.4463 19.418 20.4725 19.1 20.2365L19.0089 20.1578L12 13.1494L4.99121 20.1578C4.67391 20.4751 4.15946 20.4751 3.84216 20.1578C3.52487 19.8405 3.52487 19.3262 3.84216 19.0088L10.8506 12L3.84216 4.9912C3.5537 4.70274 3.52749 4.25136 3.76349 3.93328L3.84216 3.84215L3.76349 3.93328Z"
    fill="currentColor"
  />
</svg>
