<svg id="Layer_1" data-name="Layer 1" xmlns="http://www.w3.org/2000/svg" viewBox="0 0 16.7 16"><title>coin</title><path d="M10,2C5.3,2,1.7,5.1,1.7,7.7v5C1.7,15.2,5.1,18,10,18s8.3-2.8,8.3-5.3v-5C18.3,5.1,14.7,2,10,2ZM5.5,15.6c-1.6-.9-2.5-2-2.5-2.9V10.6h.1l.4.4a13.7,13.7,0,0,0,2,1.3Zm3.8,1h0a8.5,8.5,0,0,1-2.4-.5V12.9h1a.1.1,0,0,1,.1.1H9.3Zm3.8-.5a8.5,8.5,0,0,1-2.4.5V13.5H12a.1.1,0,0,1,.1-.1h1v3.2Zm.5-4.8h0a10.2,10.2,0,0,1-3.6.8,10.2,10.2,0,0,1-3.6-.8h0a13.2,13.2,0,0,1-2-1.2A4.1,4.1,0,0,1,3,7.7C3,6,6,3.4,10,3.4S17,6,17,7.7a4.1,4.1,0,0,1-1.4,2.4,13.2,13.2,0,0,1-2,1.2ZM17,12.7h0c0,.9-.9,2-2.5,2.9V12.4a13.7,13.7,0,0,0,2-1.3l.4-.4H17v2.1Z" transform="translate(-1.7 -2)"/></svg>