<svg viewBox="0 0 282 250" fill="none" xmlns="http://www.w3.org/2000/svg">
  <g clip-path="url(#clip0_1277_137126)">
    <rect width="282" height="249" transform="translate(0 0.5)" fill="white" />
    <path
      d="M261.343 181.5L122 212.7L164.409 220.5L288 186.9L261.343 181.5Z"
      fill="url(#paint0_linear_1277_137126)"
    />
    <circle
      cx="53.8932"
      cy="86.1723"
      r="28.863"
      transform="rotate(-9.73167 53.8932 86.1723)"
      fill="white"
    />
    <path
      d="M48.3907 80.6012C48.4754 81.3174 48.856 81.9651 49.4395 82.3886C50.3571 82.8885 51.3697 83.1893 52.4115 83.2708L51.3417 77.033C50.4198 77.2292 49.5861 77.7169 48.964 78.4245C48.4548 79.0271 48.2445 79.8265 48.3906 80.6011L48.3907 80.6012Z"
      fill="#E1E8FB"
    />
    <path
      d="M55.5848 87.9233L56.6979 94.4133C57.6809 94.184 58.5735 93.6691 59.2648 92.9336C59.7802 92.3349 60.0207 91.5474 59.9286 90.7623C59.836 89.9779 59.4193 89.2678 58.7792 88.8043C57.7879 88.29 56.6998 87.9901 55.5849 87.9234L55.5848 87.9233Z"
      fill="#E1E8FB"
    />
    <path
      d="M50.0798 63.937C44.1827 64.9484 38.9295 68.2608 35.4751 73.1453C32.0209 78.0302 30.6482 84.0871 31.6595 89.9836C32.6707 95.88 35.9832 101.134 40.8677 104.588C45.7527 108.043 51.8095 109.415 57.706 108.404C63.6025 107.393 68.8564 104.08 72.3107 99.1957C75.7649 94.3108 77.1376 88.2539 76.1264 82.3574C75.114 76.461 71.8018 71.2082 66.9171 67.7529C62.0321 64.2987 55.9758 62.9259 50.0786 63.9361L50.0798 63.937ZM62.9021 95.0928C61.4805 96.7644 59.5207 97.8875 57.3599 98.2702L57.8051 100.866L55.4975 101.262L55.0461 98.63C51.6904 98.857 48.3491 98.014 45.5026 96.221L47.5969 92.633C49.613 93.9514 51.9634 94.6679 54.3721 94.6999L53.1725 87.7056C50.3453 87.5221 48.2099 87.0101 46.7666 86.1685C45.3233 85.3274 44.4234 83.8673 44.0668 81.7882C43.6737 79.8596 44.1519 77.856 45.3729 76.3121C46.7151 74.6707 48.5958 73.5594 50.6806 73.1749L50.3714 71.3721L52.6791 70.9763L52.9945 72.8151C55.7279 72.5639 58.479 73.0537 60.958 74.2331L59.1833 77.9518L59.1834 77.9524C57.4696 77.1091 55.5776 76.695 53.6686 76.7452L54.8312 83.5239L54.9396 83.5053C57.8151 83.6799 59.9963 84.2088 61.4838 85.092C62.9713 85.9752 63.8957 87.4681 64.2564 89.5714C64.6549 91.5217 64.158 93.5484 62.9024 95.0926L62.9021 95.0928Z"
      fill="#E1E8FB"
    />
    <path
      d="M48.8432 56.7264C41.034 58.0657 34.0768 62.4524 29.5009 68.9216C24.9259 75.3907 23.1081 83.4122 24.4475 91.2222C25.7869 99.0321 30.1735 105.989 36.6427 110.565C43.1118 115.14 51.1333 116.957 58.9433 115.618C66.7532 114.279 73.7097 109.892 78.2856 103.423C82.8606 96.9536 84.6784 88.9321 83.339 81.1221C81.9916 73.317 77.6029 66.3645 71.1358 61.791C64.6691 57.2173 56.6519 55.3959 48.8432 56.7264ZM58.5308 113.213C51.3589 114.443 43.9923 112.774 38.0514 108.572C32.1103 104.37 28.0818 97.9812 26.8518 90.8094C25.6218 83.6376 27.2912 76.2709 31.4929 70.33C35.6945 64.3889 42.0837 60.3603 49.2555 59.1303C56.4273 57.9003 63.794 59.5697 69.7349 63.7714C75.676 67.973 79.7046 74.3623 80.9346 81.5341C82.1555 88.7047 80.4825 96.0663 76.2822 102.006C72.0825 107.945 65.6985 111.975 58.5308 113.213Z"
      fill="#E1E8FB"
    />
    <circle
      cx="49.2553"
      cy="84.111"
      r="28.863"
      transform="rotate(-9.73167 49.2553 84.111)"
      fill="white"
    />
    <path
      d="M43.7525 78.5404C43.8372 79.2566 44.2178 79.9043 44.8014 80.3278C45.7189 80.8277 46.7315 81.1285 47.7733 81.21L46.7035 74.9722C45.7816 75.1684 44.9479 75.6561 44.3258 76.3637C43.8166 76.9663 43.6063 77.7657 43.7524 78.5404L43.7525 78.5404Z"
      fill="#E1E8FB"
    />
    <path
      d="M50.9467 85.8623L52.0597 92.3523C53.0427 92.1229 53.9353 91.6081 54.6266 90.8726C55.142 90.2738 55.3825 89.4864 55.2904 88.7013C55.1978 87.9169 54.7811 87.2067 54.141 86.7433C53.1498 86.229 52.0616 85.929 50.9467 85.8624L50.9467 85.8623Z"
      fill="#E1E8FB"
    />
    <path
      d="M45.4418 61.876C39.5446 62.8874 34.2914 66.1998 30.8371 71.0842C27.3828 75.9692 26.0101 82.0261 27.0214 87.9225C28.0327 93.819 31.3452 99.0729 36.2296 102.527C41.1146 105.981 47.1715 107.354 53.0679 106.343C58.9644 105.332 64.2183 102.019 67.6726 97.1347C71.1269 92.2497 72.4996 86.1928 71.4883 80.2964C70.476 74.4 67.1637 69.1471 62.279 65.6919C57.394 62.2376 51.3377 60.8648 45.4405 61.8751L45.4418 61.876ZM58.2641 93.0317C56.8424 94.7033 54.8826 95.8265 52.7219 96.2092L53.167 98.8049L50.8594 99.2012L50.408 96.569C47.0524 96.796 43.711 95.9529 40.8645 94.16L42.9588 90.5719C44.975 91.8904 47.3254 92.6068 49.734 92.6389L48.5345 85.6445C45.7072 85.4611 43.5719 84.9491 42.1285 84.1074C40.6852 83.2663 39.7853 81.8063 39.4288 79.7272C39.0356 77.7985 39.5138 75.795 40.7348 74.2511C42.0771 72.6097 43.9578 71.4984 46.0426 71.1139L45.7334 69.3111L48.0411 68.9153L48.3564 70.7541C51.0899 70.5029 53.841 70.9926 56.32 72.1721L54.5453 75.8908L54.5454 75.8913C52.8316 75.048 50.9395 74.634 49.0306 74.6841L50.1931 81.4628L50.3015 81.4442C53.177 81.6188 55.3582 82.1477 56.8457 83.031C58.3332 83.9142 59.2576 85.407 59.6183 87.5103C60.0169 89.4607 59.52 91.4874 58.2643 93.0315L58.2641 93.0317Z"
      fill="#E1E8FB"
    />
    <path
      d="M44.2052 54.6656C36.3959 56.0049 29.4387 60.3916 24.8628 66.8608C20.2878 73.3299 18.47 81.3514 19.8094 89.1614C21.1488 96.9713 25.5354 103.928 32.0046 108.504C38.4737 113.079 46.4953 114.897 54.3052 113.557C62.1151 112.218 69.0716 107.831 73.6476 101.362C78.2226 94.8928 80.0404 86.8713 78.701 79.0613C77.3535 71.2562 72.9649 64.3037 66.4978 59.7302C60.031 55.1565 52.0138 53.3351 44.2052 54.6656ZM53.8928 111.152C46.7208 112.382 39.3542 110.713 33.4134 106.511C27.4723 102.31 23.4437 95.9204 22.2137 88.7486C20.9837 81.5768 22.6531 74.2101 26.8548 68.2692C31.0564 62.3281 37.4457 58.2995 44.6175 57.0695C51.7892 55.8396 59.156 57.5089 65.0968 61.7106C71.038 65.9122 75.0665 72.3015 76.2965 79.4733C77.5175 86.6439 75.8444 94.0055 71.6442 99.9447C67.4445 105.884 61.0605 109.914 53.8928 111.152Z"
      fill="#E1E8FB"
    />
    <circle
      cx="103.804"
      cy="170.981"
      r="34.4218"
      transform="rotate(7.32819 103.804 170.981)"
      fill="white"
    />
    <path
      d="M99.4794 162.704C99.3254 163.551 99.5327 164.422 100.05 165.109C100.921 166 101.97 166.697 103.13 167.155L104.092 159.669C102.973 159.57 101.851 159.834 100.895 160.423C100.103 160.932 99.5838 161.77 99.4793 162.704L99.4794 162.704Z"
      fill="#E1E8FB"
    />
    <path
      d="M105.12 173.57L104.118 181.358C105.319 181.441 106.517 181.166 107.563 180.569C108.36 180.067 108.909 179.253 109.079 178.326C109.248 177.399 109.021 176.444 108.454 175.692C107.503 174.758 106.368 174.036 105.12 173.57L105.12 173.57Z"
      fill="#E1E8FB"
    />
    <path
      d="M107.236 144.296C100.158 143.386 93.0102 145.325 87.3629 149.685C81.7155 154.046 78.0314 160.471 77.1213 167.548C76.2112 174.624 78.1497 181.773 82.51 187.42C86.8709 193.068 93.2962 196.752 100.373 197.662C107.449 198.572 114.598 196.634 120.246 192.273C125.893 187.912 129.577 181.487 130.487 174.411C131.396 167.334 129.457 160.186 125.097 154.538C120.736 148.89 114.312 145.206 107.235 144.295L107.236 144.296ZM110.954 184.304C108.748 185.712 106.121 186.307 103.524 185.987L103.123 189.102L100.353 188.747L100.76 185.588C96.8544 184.673 93.3399 182.542 90.7218 179.502L94.3649 176.144C96.2023 178.353 98.6314 179.992 101.366 180.871L102.446 172.477C99.2866 171.279 97.0312 169.948 95.6801 168.483C94.3288 167.019 93.8137 165.04 94.1345 162.545C94.3611 160.208 95.6073 158.091 97.5395 156.758C99.6441 155.357 102.177 154.748 104.689 155.039L104.967 152.875L107.736 153.231L107.453 155.438C110.657 156.108 113.622 157.629 116.036 159.841L112.711 163.46L112.711 163.46C111.052 161.899 109.04 160.765 106.846 160.155L105.8 168.29L105.93 168.307C109.147 169.512 111.449 170.878 112.836 172.405C114.223 173.933 114.755 175.958 114.43 178.482C114.202 180.845 112.926 182.982 110.955 184.303L110.954 184.304Z"
      fill="#E1E8FB"
    />
    <path
      d="M108.349 135.643C98.9765 134.437 89.5097 137.005 82.0292 142.779C74.5498 148.554 69.6707 157.064 68.4654 166.437C67.26 175.809 69.8273 185.275 75.602 192.756C81.3769 200.235 89.8864 205.114 99.2593 206.32C108.632 207.525 118.098 204.958 125.579 199.183C133.058 193.408 137.937 184.899 139.143 175.526C140.337 166.156 137.766 156.693 131.993 149.216C126.22 141.739 117.717 136.858 108.349 135.643ZM99.6304 203.434C91.0232 202.327 83.2085 197.846 77.9053 190.977C72.6017 184.108 70.2441 175.414 71.351 166.807C72.4579 158.2 76.9386 150.385 83.8075 145.082C90.6765 139.778 99.3705 137.421 107.978 138.528C116.585 139.635 124.399 144.115 129.703 150.984C135.006 157.853 137.364 166.547 136.257 175.154C135.14 183.757 130.657 191.565 123.79 196.866C116.924 202.168 108.236 204.53 99.6304 203.434Z"
      fill="#E1E8FB"
    />
    <circle
      cx="99.2371"
      cy="167.009"
      r="34.4218"
      transform="rotate(7.32819 99.2371 167.009)"
      fill="white"
    />
    <path
      d="M94.9126 158.732C94.7586 159.578 94.9659 160.45 95.4831 161.137C96.3542 162.028 97.4036 162.725 98.5628 163.182L99.5255 155.696C98.4058 155.598 97.2847 155.862 96.3278 156.451C95.5365 156.96 95.017 157.798 94.9126 158.732L94.9126 158.732Z"
      fill="#E1E8FB"
    />
    <path
      d="M100.553 169.597L99.5513 177.386C100.752 177.468 101.95 177.194 102.996 176.597C103.793 176.095 104.342 175.281 104.512 174.354C104.681 173.427 104.454 172.472 103.887 171.719C102.936 170.786 101.801 170.063 100.553 169.597L100.553 169.597Z"
      fill="#E1E8FB"
    />
    <path
      d="M102.669 140.324C95.5915 139.414 88.4433 141.352 82.796 145.713C77.1487 150.074 73.4645 156.499 72.5544 163.575C71.6444 170.652 73.5828 177.801 77.9431 183.448C82.304 189.096 88.7293 192.78 95.8058 193.69C102.882 194.6 110.031 192.661 115.679 188.301C121.326 183.94 125.01 177.515 125.92 170.438C126.829 163.362 124.891 156.214 120.53 150.565C116.169 144.918 109.745 141.234 102.668 140.322L102.669 140.324ZM106.387 180.331C104.182 181.74 101.554 182.335 98.9568 182.015L98.5561 185.13L95.7866 184.775L96.1928 181.616C92.2875 180.7 88.773 178.57 86.1549 175.53L89.798 172.172C91.6354 174.381 94.0645 176.02 96.7994 176.899L97.8789 168.505C94.7197 167.307 92.4643 165.976 91.1132 164.511C89.7619 163.047 89.2468 161.068 89.5677 158.573C89.7942 156.236 91.0404 154.119 92.9726 152.786C95.0772 151.384 97.6103 150.775 100.122 151.066L100.4 148.903L103.169 149.259L102.886 151.466C106.09 152.136 109.055 153.657 111.469 155.869L108.145 159.488L108.144 159.488C106.486 157.927 104.473 156.793 102.279 156.182L101.233 164.318L101.363 164.334C104.58 165.539 106.882 166.906 108.269 168.433C109.656 169.961 110.188 171.986 109.863 174.51C109.635 176.873 108.359 179.01 106.388 180.331L106.387 180.331Z"
      fill="#E1E8FB"
    />
    <path
      d="M103.782 131.67C94.4096 130.465 84.9428 133.032 77.4623 138.807C69.9829 144.582 65.1038 153.091 63.8985 162.464C62.6931 171.837 65.2604 181.303 71.0351 188.784C76.81 196.263 85.3195 201.142 94.6924 202.347C104.065 203.553 113.531 200.985 121.012 195.211C128.491 189.436 133.37 180.926 134.576 171.553C135.77 162.183 133.199 152.721 127.426 145.244C121.653 137.767 113.15 132.885 103.782 131.67ZM95.0635 199.461C86.4563 198.354 78.6416 193.874 73.3384 187.005C68.0348 180.136 65.6772 171.442 66.7841 162.835C67.891 154.228 72.3717 146.413 79.2406 141.109C86.1096 135.806 94.8036 133.448 103.411 134.555C112.018 135.662 119.833 140.143 125.136 147.012C130.439 153.881 132.797 162.575 131.69 171.182C130.573 179.784 126.09 187.592 119.224 192.894C112.357 198.196 103.669 200.558 95.0635 199.461Z"
      fill="#E1E8FB"
    />
    <circle
      cx="217.315"
      cy="89.8861"
      r="39.9067"
      transform="rotate(15.3054 217.315 89.8861)"
      fill="white"
    />
    <path
      d="M213.682 79.6879C213.369 80.6347 213.467 81.6688 213.95 82.5408C214.807 83.7039 215.899 84.6732 217.157 85.3849L219.466 76.9448C218.197 76.6512 216.867 76.7742 215.674 77.2966C214.683 77.7536 213.952 78.6319 213.682 79.6878L213.682 79.6879Z"
      fill="#E1E8FB"
    />
    <path
      d="M218.41 93.0701L216.006 101.851C217.372 102.139 218.791 102.017 220.088 101.5C221.084 101.051 221.846 100.206 222.19 99.1682C222.533 98.1313 222.426 96.9979 221.896 96.0428C220.955 94.8185 219.767 93.806 218.41 93.0702L218.41 93.0701Z"
      fill="#E1E8FB"
    />
    <path
      d="M225.549 59.8005C217.57 57.6169 209.051 58.6925 201.865 62.79C194.68 66.8883 189.416 73.6726 187.233 81.6508C185.049 89.6291 186.125 98.149 190.222 105.334C194.32 112.52 201.105 117.783 209.083 119.967C217.061 122.15 225.581 121.075 232.766 116.977C239.952 112.879 245.216 106.095 247.399 98.1166C249.581 90.1378 248.505 81.6194 244.408 74.4327C240.31 67.2472 233.526 61.9837 225.548 59.7986L225.549 59.8005ZM223.381 106.332C220.622 107.595 217.51 107.855 214.579 107.07L213.618 110.582L210.495 109.728L211.47 106.167C207.133 104.487 203.441 101.476 200.924 97.5646L205.647 94.2953C207.402 97.1266 209.927 99.3994 212.925 100.849L215.515 91.3852C212.081 89.5011 209.705 87.6102 208.39 85.7113C207.074 83.8132 206.801 81.4576 207.571 78.6444C208.207 75.9983 209.978 73.7683 212.411 72.5487C215.053 71.2779 218.059 70.9862 220.896 71.7244L221.563 69.2851L224.686 70.1397L224.005 72.6276C227.576 73.9124 230.736 76.1357 233.151 79.0637L228.752 82.6838L228.752 82.6845C227.099 80.6252 224.971 78.9995 222.55 77.9453L220.04 87.1173L220.186 87.1574C223.686 89.0587 226.109 90.9975 227.456 92.9744C228.803 94.9512 229.087 97.3622 228.308 100.208C227.666 102.884 225.858 105.133 223.381 106.332L223.381 106.332Z"
      fill="#E1E8FB"
    />
    <path
      d="M228.219 50.0444C217.652 47.1527 206.37 48.5771 196.853 54.0036C187.336 59.4305 180.365 68.4155 177.473 78.9828C174.581 89.5501 176.006 100.831 181.432 110.349C186.859 119.865 195.844 126.836 206.412 129.728C216.979 132.62 228.26 131.196 237.778 125.769C247.294 120.342 254.265 111.357 257.157 100.79C260.036 90.2238 258.607 78.9465 253.181 69.4331C247.757 59.9197 238.779 52.9469 228.219 50.0444ZM207.302 126.474C197.598 123.819 189.347 117.417 184.363 108.677C179.379 99.9375 178.071 89.5764 180.727 79.8725C183.382 70.1687 189.784 61.9171 198.524 56.9335C207.264 51.9495 217.625 50.6415 227.329 53.2971C237.032 55.9528 245.284 62.3546 250.268 71.0942C255.252 79.834 256.56 90.1951 253.904 99.899C251.238 109.596 244.834 117.839 236.097 122.821C227.361 127.804 217.006 129.118 207.302 126.474Z"
      fill="#E1E8FB"
    />
    <circle
      cx="212.711"
      cy="84.5907"
      r="39.9067"
      transform="rotate(15.3054 212.711 84.5907)"
      fill="white"
    />
    <path
      d="M209.078 74.392C208.765 75.3388 208.862 76.3729 209.346 77.2449C210.202 78.408 211.295 79.3773 212.552 80.089L214.862 71.6489C213.593 71.3553 212.263 71.4783 211.069 72.0007C210.079 72.4577 209.348 73.336 209.077 74.3919L209.078 74.392Z"
      fill="#E1E8FB"
    />
    <path
      d="M213.805 87.7739L211.402 96.5552C212.768 96.8431 214.187 96.7205 215.484 96.2036C216.48 95.7551 217.242 94.9094 217.586 93.872C217.929 92.8352 217.822 91.7018 217.292 90.7467C216.351 89.5224 215.163 88.5099 213.805 87.774L213.805 87.7739Z"
      fill="#E1E8FB"
    />
    <path
      d="M220.945 54.5051C212.965 52.3215 204.446 53.3971 197.261 57.4946C190.076 61.5929 184.812 68.3772 182.629 76.3554C180.445 84.3337 181.52 92.8536 185.618 100.039C189.716 107.224 196.501 112.488 204.479 114.672C212.457 116.855 220.977 115.78 228.162 111.682C235.348 107.584 240.611 100.799 242.795 92.8212C244.977 84.8424 243.901 76.324 239.804 69.1373C235.706 61.9518 228.922 56.6883 220.944 54.5032L220.945 54.5051ZM218.777 101.037C216.018 102.299 212.906 102.559 209.975 101.774L209.014 105.287L205.891 104.433L206.866 100.871C202.529 99.192 198.837 96.1808 196.32 92.2692L201.043 88.9999C202.797 91.8312 205.323 94.104 208.321 95.5535L210.911 86.0898C207.477 84.2057 205.101 82.3148 203.786 80.4159C202.47 78.5178 202.197 76.1622 202.967 73.349C203.603 70.7029 205.374 68.4729 207.807 67.2533C210.449 65.9825 213.455 65.6908 216.292 66.429L216.959 63.9897L220.082 64.8442L219.401 67.3322C222.972 68.617 226.132 70.8403 228.547 73.7683L224.148 77.3883L224.148 77.3891C222.494 75.3298 220.367 73.7041 217.946 72.6499L215.436 81.8219L215.582 81.862C219.082 83.7633 221.505 85.7021 222.852 87.679C224.199 89.6558 224.483 92.0668 223.704 94.9127C223.062 97.589 221.254 99.8371 218.777 101.037L218.777 101.037Z"
      fill="#E1E8FB"
    />
    <path
      d="M223.615 44.7488C213.048 41.8571 201.766 43.2814 192.249 48.7079C182.732 54.1348 175.761 63.1198 172.869 73.6871C169.977 84.2544 171.402 95.5356 176.829 105.053C182.255 114.57 191.24 121.541 201.808 124.433C212.375 127.325 223.656 125.9 233.174 120.473C242.69 115.047 249.661 106.062 252.553 95.4942C255.432 84.9282 254.003 73.6508 248.577 64.1375C243.153 54.624 234.175 47.6512 223.615 44.7488ZM202.698 121.179C192.994 118.523 184.743 112.121 179.759 103.382C174.775 94.6419 173.467 84.2808 176.123 74.5769C178.778 64.873 185.18 56.6215 193.92 51.6378C202.66 46.6539 213.021 45.3458 222.725 48.0015C232.429 50.6571 240.68 57.0589 245.664 65.7986C250.648 74.5384 251.956 84.8995 249.3 94.6033C246.634 104.301 240.23 112.543 231.493 117.526C222.757 122.508 212.402 123.822 202.698 121.179Z"
      fill="#E1E8FB"
    />
    <path
      d="M123.93 134.055C99.3708 116.967 98.4954 109.681 82.8582 109.787"
      stroke="#595A5E"
      stroke-width="1.31726"
      stroke-linecap="round"
    />
    <path
      fill-rule="evenodd"
      clip-rule="evenodd"
      d="M163.419 220.211L160.724 202.011C160.416 199.931 160.434 197.816 160.777 195.742L179.646 81.8062L135.274 73.5617C134.183 73.359 133.136 74.0831 132.94 75.1753L131.565 82.848L114.82 188.925C114.531 190.757 114.426 192.613 114.508 194.465L115.172 209.578C115.275 211.9 117.586 213.026 118.729 213.299L163.419 220.211Z"
      fill="#F7F7F7"
    />
    <path
      d="M160.724 202.011L160.511 202.043L160.724 202.011ZM163.419 220.211L163.386 220.424L163.675 220.468L163.632 220.18L163.419 220.211ZM160.777 195.742L160.99 195.777L160.777 195.742ZM179.646 81.8062L179.858 81.8413L179.892 81.6333L179.685 81.5947L179.646 81.8062ZM135.274 73.5617L135.235 73.7732L135.235 73.7732L135.274 73.5617ZM132.94 75.1753L133.152 75.2132L132.94 75.1753ZM131.565 82.848L131.354 82.8101L131.353 82.8145L131.565 82.848ZM114.82 188.925L114.608 188.892L114.82 188.925ZM114.508 194.465L114.293 194.475L114.508 194.465ZM115.172 209.578L114.958 209.587L115.172 209.578ZM118.729 213.299L118.679 213.508L118.687 213.51L118.696 213.511L118.729 213.299ZM160.511 202.043L163.206 220.243L163.632 220.18L160.937 201.98L160.511 202.043ZM160.565 195.706C160.218 197.803 160.2 199.941 160.511 202.043L160.937 201.98C160.632 199.922 160.65 197.829 160.99 195.777L160.565 195.706ZM179.433 81.7711L160.565 195.706L160.99 195.777L179.858 81.8413L179.433 81.7711ZM179.685 81.5947L135.314 73.3503L135.235 73.7732L179.606 82.0177L179.685 81.5947ZM135.314 73.3503C134.105 73.1258 132.945 73.9277 132.729 75.1374L133.152 75.2132C133.327 74.2385 134.261 73.5923 135.235 73.7732L135.314 73.3503ZM132.729 75.1374L131.354 82.8101L131.777 82.886L133.152 75.2132L132.729 75.1374ZM131.353 82.8145L114.608 188.892L115.033 188.959L131.778 82.8816L131.353 82.8145ZM114.608 188.892C114.316 190.738 114.211 192.608 114.293 194.475L114.723 194.456C114.642 192.617 114.746 190.777 115.033 188.959L114.608 188.892ZM114.293 194.475L114.958 209.587L115.387 209.569L114.723 194.456L114.293 194.475ZM114.958 209.587C115.012 210.826 115.657 211.74 116.423 212.373C117.186 213.003 118.081 213.365 118.679 213.508L118.779 213.09C118.234 212.96 117.401 212.623 116.697 212.041C115.996 211.462 115.435 210.652 115.387 209.569L114.958 209.587ZM118.696 213.511L163.386 220.424L163.452 219.999L118.762 213.086L118.696 213.511Z"
      fill="#F5F5F5"
    />
    <path
      d="M161.042 201.324L163.791 220.208C163.924 221.126 165.247 221.134 165.391 220.217L182.521 111.601C182.802 109.82 182.903 108.015 182.824 106.214L181.746 81.6826C181.681 80.2219 179.566 80.0999 179.334 81.5435L161.087 195.203C160.762 197.229 160.747 199.293 161.042 201.324Z"
      fill="#E2E2E2"
      stroke="#EBEBEB"
      stroke-width="0.172063"
    />
    <mask
      id="mask0_1277_137126"
      style="mask-type: alpha"
      maskUnits="userSpaceOnUse"
      x="114"
      y="75"
      width="68"
      height="146"
    >
      <path
        d="M118.731 213.3L164.601 220.394L181.3 82.1139L145.432 75.0135L131.568 82.8487L114.823 188.926C114.534 190.758 114.429 192.613 114.511 194.466L115.175 209.579C115.277 211.901 117.589 213.027 118.731 213.3Z"
        fill="#F5C144"
      />
    </mask>
    <g mask="url(#mask0_1277_137126)">
      <path
        d="M172.492 125.6L126.365 118.374L120.671 117.562L103.173 218.689L173.169 228.068L186.594 135.878L180.444 130.112L172.492 125.6Z"
        fill="url(#paint1_linear_1277_137126)"
      />
    </g>
    <mask
      id="mask1_1277_137126"
      style="mask-type: alpha"
      maskUnits="userSpaceOnUse"
      x="160"
      y="102"
      width="24"
      height="120"
    >
      <path
        d="M160.671 201.202L164.018 220.341C164.175 221.24 165.469 221.231 165.614 220.33L183.769 107.771C183.829 107.397 183.851 107.017 183.834 106.638C183.616 101.674 176.433 101.241 175.622 106.144L160.65 196.549C160.395 198.09 160.402 199.663 160.671 201.202Z"
        fill="#EBB942"
      />
    </mask>
    <g mask="url(#mask1_1277_137126)">
      <path
        d="M172.495 125.606L126.368 118.379L120.674 117.568L103.176 218.695L173.172 228.074L186.597 135.884L180.447 130.118L172.495 125.606Z"
        fill="#EBB942"
      />
    </g>
    <path
      d="M143.081 92.6942C142.948 93.7304 142.151 94.4822 141.299 94.3734C140.448 94.2646 139.865 93.3364 139.998 92.3002C140.13 91.264 140.928 90.5123 141.779 90.6211C142.63 90.7299 143.213 91.6581 143.081 92.6942Z"
      fill="#595A5E"
    />
    <circle
      cx="157.394"
      cy="96.7065"
      r="1.8914"
      transform="rotate(7.2837 157.394 96.7065)"
      fill="#595A5E"
    />
    <path
      d="M156.084 103.748C153.894 105.681 147.867 108.411 141.284 103.866"
      stroke="#595A5E"
      stroke-width="1.31726"
      stroke-linecap="round"
    />
    <path
      d="M172.562 140.758C172.594 133.644 177.965 114.862 212.803 117.685"
      stroke="#595A5E"
      stroke-width="1.31726"
      stroke-linecap="round"
    />
  </g>
  <defs>
    <linearGradient
      id="paint0_linear_1277_137126"
      x1="141.387"
      y1="220.5"
      x2="248.999"
      y2="182.652"
      gradientUnits="userSpaceOnUse"
    >
      <stop stop-color="#C0C5D8" />
      <stop offset="0.637433" stop-color="#DDE1F0" stop-opacity="0" />
    </linearGradient>
    <linearGradient
      id="paint1_linear_1277_137126"
      x1="131.117"
      y1="220.868"
      x2="149.662"
      y2="123.124"
      gradientUnits="userSpaceOnUse"
    >
      <stop stop-color="#F5C144" />
      <stop offset="0.412446" stop-color="#F5C144" />
      <stop offset="1" stop-color="#FFD570" />
    </linearGradient>
    <clipPath id="clip0_1277_137126">
      <rect
        width="282"
        height="249"
        fill="white"
        transform="translate(0 0.5)"
      />
    </clipPath>
  </defs>
</svg>
