<svg viewBox="0 0 17 17" fill="none" xmlns="http://www.w3.org/2000/svg">
  <path
    d="M15.6167 0.5H1.38333C0.895333 0.5 0.5 0.895333 0.5 1.38333V15.6173C0.5 16.1047 0.895333 16.5 1.38333 16.5H9.04667V10.304H6.96133V7.88933H9.04667V6.10867C9.04667 4.042 10.3087 2.91667 12.1527 2.91667C13.036 2.91667 13.7947 2.98267 14.016 3.012V5.172L12.7373 5.17267C11.7347 5.17267 11.5407 5.64933 11.5407 6.348V7.89H13.932L13.6207 10.3047H11.5407V16.5H15.618C16.1047 16.5 16.5 16.1047 16.5 15.6167V1.38333C16.5 0.895333 16.1047 0.5 15.6167 0.5V0.5Z"
    fill="white"
  />
</svg>
