<svg viewBox="0 0 17 10" fill="none" xmlns="http://www.w3.org/2000/svg">
  <path
    d="M9.52439 5.03658C9.52439 7.53658 7.51219 9.57317 5.01219 9.57317C2.51219 9.57317 0.5 7.53658 0.5 5.03658C0.5 2.53658 2.51219 0.5 5.01219 0.5C7.51219 0.5 9.52439 2.53658 9.52439 5.03658ZM14.4756 5.03658C14.4756 7.39024 13.4634 9.30488 12.2195 9.30488C10.9756 9.30488 9.96341 7.39024 9.96341 5.03658C9.96341 2.68293 10.9756 0.768292 12.2195 0.768292C13.4634 0.768292 14.4756 2.68293 14.4756 5.03658ZM16.5 5.03658C16.5 7.14634 16.1463 8.86585 15.7073 8.86585C15.2683 8.86585 14.9146 7.14634 14.9146 5.03658C14.9146 2.92683 15.2683 1.20732 15.7073 1.20732C16.1463 1.20732 16.5 2.92683 16.5 5.03658Z"
    fill="white"
  />
</svg>
