<svg id="圖層_1" xmlns="http://www.w3.org/2000/svg"   
	 viewBox="0 0 50 50" style="enable-background:new 0 0 50 50;" >
<g>
	<path d="M12.3,3.2H5C4,3.2,3.2,4,3.2,5v7.3c0,1,0.8,1.8,1.8,1.8h7.3c1,0,1.8-0.8,1.8-1.8V5C14.1,4,13.3,3.2,12.3,3.2z"/>
	<path d="M12.3,19.5H5c-1,0-1.8,0.8-1.8,1.8v7.3c0,1,0.8,1.8,1.8,1.8h7.3c1,0,1.8-0.8,1.8-1.8v-7.3C14.1,20.4,13.3,19.5,12.3,19.5z"
		/>
	<path d="M12.3,35.9H5c-1,0-1.8,0.8-1.8,1.8V45c0,1,0.8,1.8,1.8,1.8h7.3c1,0,1.8-0.8,1.8-1.8v-7.3C14.1,36.7,13.3,35.9,12.3,35.9z"
		/>
	<path d="M28.6,3.2h-7.3c-1,0-1.8,0.8-1.8,1.8v7.3c0,1,0.8,1.8,1.8,1.8h7.3c1,0,1.8-0.8,1.8-1.8V5C30.5,4,29.6,3.2,28.6,3.2z"/>
	<path d="M28.6,19.5h-7.3c-1,0-1.8,0.8-1.8,1.8v7.3c0,1,0.8,1.8,1.8,1.8h7.3c1,0,1.8-0.8,1.8-1.8v-7.3
		C30.5,20.4,29.6,19.5,28.6,19.5z"/>
	<path d="M28.6,35.9h-7.3c-1,0-1.8,0.8-1.8,1.8V45c0,1,0.8,1.8,1.8,1.8h7.3c1,0,1.8-0.8,1.8-1.8v-7.3C30.5,36.7,29.6,35.9,28.6,35.9
		z"/>
	<path d="M45,3.2h-7.3c-1,0-1.8,0.8-1.8,1.8v7.3c0,1,0.8,1.8,1.8,1.8H45c1,0,1.8-0.8,1.8-1.8V5C46.8,4,46,3.2,45,3.2z"/>
	<path d="M45,19.5h-7.3c-1,0-1.8,0.8-1.8,1.8v7.3c0,1,0.8,1.8,1.8,1.8H45c1,0,1.8-0.8,1.8-1.8v-7.3C46.8,20.4,46,19.5,45,19.5z"/>
	<path d="M45,35.9h-7.3c-1,0-1.8,0.8-1.8,1.8V45c0,1,0.8,1.8,1.8,1.8H45c1,0,1.8-0.8,1.8-1.8v-7.3C46.8,36.7,46,35.9,45,35.9z"/>
</g>
</svg>
