<svg viewBox="0 0 436 53" fill="none" xmlns="http://www.w3.org/2000/svg">
  <path
    d="M0 1.70639H8.96166L35.9999 42.7616V1.70639H42.5105V51.4169H33.5488L6.51063 9.67232V51.4169H0V1.70639Z"
    fill="#0146A2"
  />
  <path
    d="M71.8713 52.1828C68.6032 52.1828 66.1522 52.0552 64.5181 51.7999C62.8841 51.5956 61.2501 51.1105 59.616 50.3445C57.9309 49.5786 56.7054 48.353 55.9394 46.6679C55.1735 44.9318 54.7905 42.6084 54.7905 39.6978V26.8297C54.7905 24.5318 55.0714 22.5148 55.6331 20.7787C56.1948 19.0425 56.9352 17.6893 57.8543 16.7191C58.6203 15.851 59.7692 15.1872 61.3011 14.7276C62.8841 14.217 64.4926 13.8851 66.1267 13.7319C67.965 13.6298 69.8798 13.5787 71.8713 13.5787C74.5266 13.5787 76.5181 13.6553 77.8458 13.8085C79.2245 13.9106 80.6798 14.1659 82.2117 14.5744C83.7947 15.034 85.0202 15.7234 85.8883 16.6425C86.7564 17.5617 87.4968 18.8893 88.1096 20.6255C88.6713 22.4127 88.9521 24.4808 88.9521 26.8297V39.6978C88.9521 44.0382 87.9564 47.2041 85.9649 49.1956C85.1479 50.0126 83.9734 50.6509 82.4415 51.1105C80.9096 51.5701 79.3266 51.8764 77.6926 52.0296C75.7522 52.1318 73.8117 52.1828 71.8713 52.1828ZM71.8713 47.6637C74.016 47.6637 75.5734 47.6126 76.5437 47.5105C77.5139 47.4084 78.4585 47.1275 79.3777 46.6679C80.2968 46.2594 80.9351 45.5956 81.2926 44.6765C81.7011 43.7063 81.9053 42.3786 81.9053 40.6935V25.6808C81.9053 23.3829 81.6245 21.7233 81.0628 20.7021C80.5011 19.6297 79.5309 18.9404 78.1521 18.634C76.8245 18.2765 74.7309 18.0978 71.8713 18.0978C69.0118 18.0978 66.8926 18.2765 65.5139 18.634C64.1862 18.9404 63.2415 19.6297 62.6798 20.7021C62.1181 21.7233 61.8373 23.3829 61.8373 25.6808V40.6935C61.8373 42.3786 62.016 43.7063 62.3735 44.6765C62.782 45.5956 63.4458 46.2594 64.365 46.6679C65.2841 47.1275 66.2288 47.4084 67.199 47.5105C68.1692 47.6126 69.7266 47.6637 71.8713 47.6637Z"
    fill="#0146A2"
  />
  <path
    d="M100.98 0.94043H107.873V8.14041H100.98V0.94043ZM100.98 14.3446H107.873V51.4169H100.98V14.3446Z"
    fill="#0146A2"
  />
  <path
    d="M173.538 52.1828C162.202 52.1828 156.534 48.4041 156.534 40.8467V26.2169C156.534 21.7233 157.81 18.5063 160.364 16.5659C162.968 14.5744 167.155 13.5787 172.925 13.5787C178.389 13.5787 182.321 14.5234 184.721 16.4127C187.172 18.3021 188.398 21.5702 188.398 26.2169V34.4127H163.504V40.0041C163.504 42.5573 164.398 44.3956 166.185 45.519C167.972 46.6424 170.73 47.2041 174.457 47.2041C177.981 47.2041 182.142 46.5914 186.942 45.3658V50.6509C182.244 51.6722 177.776 52.1828 173.538 52.1828ZM181.504 29.8935V24.0723C181.504 21.8255 180.815 20.2936 179.436 19.4765C178.108 18.6085 175.81 18.1744 172.542 18.1744C169.376 18.1744 167.079 18.6085 165.649 19.4765C164.219 20.2936 163.504 21.8255 163.504 24.0723V29.8935H181.504Z"
    fill="#0146A2"
  />
  <path
    d="M219.569 1.70639H252.964V6.91488H226.999V23.1531H250.437V28.3616H226.999V46.2084H253.73V51.4169H219.569V1.70639Z"
    fill="#0146A2"
  />
  <path
    d="M264.817 14.3446H271.328V20.3957C271.328 19.2212 271.838 18.1234 272.86 17.1021C273.881 16.0297 275.183 15.1872 276.766 14.5744C278.349 13.9106 279.907 13.5787 281.438 13.5787H284.809V19.4765H280.979C277.711 19.4765 275.336 19.9106 273.855 20.7787C272.426 21.5957 271.711 23.1021 271.711 25.2978V51.4169H264.817V14.3446Z"
    fill="#0146A2"
  />
  <path
    d="M304.36 52.1828C300.836 52.1828 298.105 51.8509 296.164 51.1871C294.275 50.5233 292.896 49.3488 292.028 47.6637C291.211 45.9786 290.802 43.5531 290.802 40.3871C290.802 37.5786 291.185 35.4084 291.951 33.8765C292.768 32.2935 294.122 31.1701 296.011 30.5063C297.951 29.8425 300.683 29.5106 304.207 29.5106H315.313V23.6127C315.313 22.234 315.032 21.1872 314.47 20.4723C313.96 19.7063 313.066 19.1702 311.79 18.8638C310.564 18.5574 308.751 18.4042 306.351 18.4042C302.522 18.4042 298.283 18.7106 293.636 19.3234V14.2681C298.692 13.8085 303.262 13.5787 307.347 13.5787C311.636 13.5787 314.802 13.9106 316.845 14.5744C318.887 15.1872 320.292 16.2851 321.058 17.868C321.824 19.451 322.207 21.9021 322.207 25.2212V51.4169H315.543V47.8935C314.981 50.753 311.253 52.1828 304.36 52.1828ZM305.509 47.6637C308.011 47.6637 310.13 47.485 311.866 47.1275C314.164 46.6679 315.313 45.5956 315.313 43.9105V33.7999H304.666C302.47 33.7999 300.888 33.9786 299.917 34.3361C298.947 34.6425 298.309 35.2552 298.002 36.1744C297.696 37.0935 297.543 38.5744 297.543 40.6169C297.543 42.4552 297.722 43.885 298.079 44.9063C298.436 45.8765 299.075 46.5914 299.994 47.0509C300.913 47.4594 302.292 47.6637 304.13 47.6637H305.509Z"
    fill="#0146A2"
  />
  <path
    d="M346.775 52.1828C342.843 52.1828 338.605 51.8764 334.06 51.2637V45.9786C340.034 46.9488 344.324 47.4339 346.928 47.4339C350.196 47.4339 352.545 47.1275 353.975 46.5148C355.405 45.8509 356.119 44.6509 356.119 42.9148V39.1616C356.119 37.5786 355.583 36.4552 354.511 35.7914C353.439 35.1276 351.702 34.7956 349.302 34.7956H345.09C341.26 34.7956 338.324 34.0042 336.281 32.4212C334.29 30.8382 333.294 28.6169 333.294 25.7574V22.3106C333.294 16.4893 338.809 13.5787 349.839 13.5787C350.656 13.5787 354.409 13.7829 361.098 14.1915V19.1702C356.554 18.4553 352.698 18.0978 349.532 18.0978C345.907 18.0978 343.43 18.4553 342.102 19.1702C340.775 19.8851 340.111 21.085 340.111 22.7701V25.9106C340.111 28.4127 342.383 29.6637 346.928 29.6637H351.217C359.03 29.6637 362.936 32.5744 362.936 38.3956V41.6126C362.936 45.4424 361.609 48.1743 358.953 49.8084C356.298 51.3913 352.239 52.1828 346.775 52.1828Z"
    fill="#0146A2"
  />
  <path
    d="M389.367 52.1828C378.031 52.1828 372.363 48.4041 372.363 40.8467V26.2169C372.363 21.7233 373.639 18.5063 376.192 16.5659C378.797 14.5744 382.984 13.5787 388.754 13.5787C394.218 13.5787 398.15 14.5234 400.55 16.4127C403.001 18.3021 404.226 21.5702 404.226 26.2169V34.4127H379.333V40.0041C379.333 42.5573 380.226 44.3956 382.014 45.519C383.801 46.6424 386.558 47.2041 390.286 47.2041C393.809 47.2041 397.971 46.5914 402.771 45.3658V50.6509C398.073 51.6722 393.605 52.1828 389.367 52.1828ZM397.333 29.8935V24.0723C397.333 21.8255 396.643 20.2936 395.265 19.4765C393.937 18.6085 391.639 18.1744 388.371 18.1744C385.205 18.1744 382.907 18.6085 381.478 19.4765C380.048 20.2936 379.333 21.8255 379.333 24.0723V29.8935H397.333Z"
    fill="#0146A2"
  />
  <path
    d="M416.009 14.3446H422.519V20.3957C422.519 19.2212 423.03 18.1234 424.051 17.1021C425.072 16.0297 426.374 15.1872 427.957 14.5744C429.54 13.9106 431.098 13.5787 432.63 13.5787H436V19.4765H432.17C428.902 19.4765 426.528 19.9106 425.047 20.7787C423.617 21.5957 422.902 23.1021 422.902 25.2978V51.4169H416.009V14.3446Z"
    fill="#0146A2"
  />
  <path
    d="M132.842 52.1827C128.91 52.1827 124.672 51.8764 120.127 51.2636V45.9785C126.102 46.9487 130.391 47.4338 132.995 47.4338C136.263 47.4338 138.612 47.1274 140.042 46.5147C141.472 45.8509 142.187 44.6509 142.187 42.9147V39.1615C142.187 37.5785 141.651 36.4551 140.578 35.7913C139.506 35.1275 137.77 34.7956 135.37 34.7956H131.157C127.327 34.7956 124.391 34.0041 122.349 32.4211C120.357 30.8381 119.361 28.6169 119.361 25.7573V22.3105C119.361 16.4892 124.876 13.5786 135.906 13.5786C136.723 13.5786 140.476 13.7829 147.166 14.1914V19.1701C142.621 18.4552 138.766 18.0977 135.6 18.0977C131.974 18.0977 129.497 18.4552 128.17 19.1701C126.842 19.885 126.178 21.085 126.178 22.7701V25.9105C126.178 28.4126 128.451 29.6637 132.995 29.6637H137.285C145.097 29.6637 149.004 32.5743 149.004 38.3956V41.6126C149.004 45.4423 147.676 48.1743 145.021 49.8083C142.365 51.3913 138.306 52.1827 132.842 52.1827Z"
    fill="#0146A2"
  />
</svg>
