<svg viewBox="0 0 36 36" fill="none" xmlns="http://www.w3.org/2000/svg">
  <path
    d="M12.48 0C12.098 0 11.7316 0.151677 11.4617 0.421627C11.1917 0.691828 11.0398 1.05796 11.04 1.43992V34.5601C11.04 35.0744 11.3145 35.5498 11.76 35.8071C12.2055 36.0643 12.7544 36.0643 13.1999 35.8071C13.6456 35.5497 13.92 35.0744 13.92 34.5601V1.43992C13.92 1.05797 13.7684 0.691821 13.4982 0.421627C13.2282 0.151677 12.8618 0 12.4799 0L12.48 0Z"
    fill="#3C88EE"
  />
  <path
    d="M6.96018 6.43954C6.57823 6.43954 6.21208 6.59122 5.94189 6.86142C5.67194 7.13137 5.52026 7.49775 5.52026 7.87971V28.1202V28.1199C5.52026 28.6345 5.79473 29.1098 6.2402 29.3672C6.68569 29.6244 7.23464 29.6244 7.68008 29.3672C8.12581 29.1098 8.40028 28.6345 8.40028 28.1199V7.88011C8.40028 7.49816 8.2486 7.13175 7.9784 6.86181C7.70845 6.59161 7.34207 6.43994 6.96011 6.43994L6.96018 6.43954Z"
    fill="#3C88EE"
  />
  <path
    d="M18.0002 6.43954C17.6183 6.43954 17.2519 6.59122 16.9819 6.86142C16.7117 7.13137 16.5601 7.49775 16.5603 7.87971V28.1202V28.1199C16.5603 28.6345 16.8348 29.1098 17.2802 29.3672C17.7257 29.6244 18.2747 29.6244 18.7201 29.3672C19.1656 29.1098 19.4401 28.6345 19.4401 28.1199V7.88011C19.4403 7.49816 19.2886 7.13175 19.0184 6.86181C18.7485 6.59161 18.3821 6.43994 18.0001 6.43994L18.0002 6.43954Z"
    fill="#3C88EE"
  />
  <path
    d="M29.04 6.43954C28.6581 6.43954 28.2917 6.59122 28.0217 6.86142C27.7515 7.13137 27.5999 7.49775 27.5999 7.87971V28.1202V28.1199C27.5999 28.6345 27.8743 29.1098 28.32 29.3672C28.7655 29.6244 29.3145 29.6244 29.7599 29.3672C30.2054 29.1098 30.4799 28.6345 30.4799 28.1199V7.88011C30.4799 7.49816 30.3282 7.13175 30.0582 6.86181C29.788 6.59161 29.4219 6.43994 29.0399 6.43994L29.04 6.43954Z"
    fill="#3C88EE"
  />
  <path
    d="M23.5202 11.9598C23.1383 11.9598 22.7719 12.1115 22.502 12.3814C22.2318 12.6516 22.0801 13.018 22.0801 13.4V22.5999C22.0801 23.1142 22.3545 23.5896 22.8003 23.847C23.2458 24.1041 23.7947 24.1041 24.2401 23.847C24.6856 23.5896 24.9601 23.1142 24.9601 22.5999V13.4C24.9603 13.018 24.8084 12.6516 24.5385 12.3814C24.2685 12.1115 23.9021 11.9598 23.5202 11.9598H23.5202Z"
    fill="#3C88EE"
  />
  <path
    d="M34.56 11.9598C34.1781 11.9598 33.8117 12.1115 33.5415 12.3814C33.2715 12.6516 33.1199 13.018 33.1199 13.4V22.5999C33.1199 23.1142 33.3943 23.5896 33.8398 23.847C34.2855 24.1041 34.8345 24.1041 35.2799 23.847C35.7254 23.5896 35.9999 23.1142 35.9999 22.5999V13.4C35.9999 13.018 35.8482 12.6516 35.5783 12.3814C35.3081 12.1115 34.9419 11.9598 34.56 11.9598H34.56Z"
    fill="#3C88EE"
  />
  <path
    d="M1.43992 11.9598C1.05797 11.9598 0.69182 12.1115 0.421626 12.3814C0.151676 12.6516 0 13.018 0 13.4V22.5999C0 23.1142 0.274469 23.5896 0.719939 23.847C1.16542 24.1041 1.71438 24.1041 2.16007 23.847C2.60555 23.5896 2.88001 23.1142 2.88001 22.5999V13.4C2.88001 13.018 2.72833 12.6516 2.45813 12.3814C2.18818 12.1115 1.82181 11.9598 1.43984 11.9598H1.43992Z"
    fill="#3C88EE"
  />
</svg>
