<svg id="Capa_1" data-name="Capa 1" xmlns="http://www.w3.org/2000/svg" viewBox="0 0 44.5 44.5"><title>translate</title><path d="M43.1,12.2h0l-.2-.2a10.1,10.1,0,0,0-1.3-1.6l-.4-.5a6.7,6.7,0,0,0-1.5-1.4l-.2-.3a19.8,19.8,0,0,0-4.3-2.8h-.1L33,4.2h-.5l-1.9-.6L30,3.3,28.1,3h-.6a20.9,20.9,0,0,0-5,0h-.6L20,3.3l-.6.2-1.9.6H17a12.4,12.4,0,0,0-2,1h-.2a19.2,19.2,0,0,0-4.2,2.8l-.3.3A6.7,6.7,0,0,0,8.8,9.8l-.4.5a10.1,10.1,0,0,0-1.3,1.6l-.2.2h0a21.9,21.9,0,0,0,0,25.6h0c0,.1.1.1.2.2a10.1,10.1,0,0,0,1.3,1.6l.4.5a6.7,6.7,0,0,0,1.5,1.4l.3.3a19.2,19.2,0,0,0,4.2,2.8H15a12.4,12.4,0,0,0,2,1h.5l1.9.6.6.2,1.9.3h.6a20.9,20.9,0,0,0,5,0h.6l1.9-.3.6-.2,1.9-.6H33a12.4,12.4,0,0,0,2-1h.2a19.2,19.2,0,0,0,4.2-2.8l.3-.3a6.7,6.7,0,0,0,1.5-1.4l.4-.5a10.1,10.1,0,0,0,1.3-1.6c.1-.1.2-.1.2-.2h0A21.9,21.9,0,0,0,43.1,12.2Zm-1.8,3A18.5,18.5,0,0,1,44,23.4H34.5a26.2,26.2,0,0,0-.9-5.6A29.1,29.1,0,0,0,41.3,15.2ZM29.1,6.4h.2l1.7.5h.3l1.6.6.2.2,1.5.8h.3l1.4.9.3.3,1.2,1,.3.3,1.2,1.2v.2a26.1,26.1,0,0,1-6.7,2.1,44.4,44.4,0,0,0-4.3-8.4Zm-10.4,17a22.8,22.8,0,0,1,.9-5.1,48.9,48.9,0,0,0,5.4.3,48.9,48.9,0,0,0,5.4-.3,22.8,22.8,0,0,1,.9,5.1Zm12.6,3.2a22.8,22.8,0,0,1-.9,5.1,48.7,48.7,0,0,0-10.8,0,22.8,22.8,0,0,1-.9-5.1ZM25,7a36,36,0,0,1,4.4,8.2,31.5,31.5,0,0,1-4.4.3,32.5,32.5,0,0,1-4.4-.3A36,36,0,0,1,25,7ZM10.7,12.4l1.2-1.2.3-.3,1.2-1,.3-.3,1.4-.9h.3l1.5-.8.3-.2L18.8,7H19l1.7-.5h.9a38.8,38.8,0,0,0-4.2,8.4,25.6,25.6,0,0,1-6.8-2.1Zm-2,2.8a29.1,29.1,0,0,0,7.7,2.6,34.4,34.4,0,0,0-.9,5.6H6A19.9,19.9,0,0,1,8.7,15.2Zm0,19.6A19.9,19.9,0,0,1,6,26.6h9.5a50.3,50.3,0,0,0,.9,5.6A29.1,29.1,0,0,0,8.7,34.8ZM21,43.6h-.3L19,43.1h-.2l-1.6-.6-.3-.2-1.5-.8h-.3l-1.4-.9-.3-.3-1.2-1-.3-.3-1.2-1.2c0-.1-.1-.1-.1-.2a26.1,26.1,0,0,1,6.7-2.1,44.4,44.4,0,0,0,4.3,8.4Zm4-.6a36,36,0,0,1-4.4-8.2,43.1,43.1,0,0,1,8.8,0h0A36,36,0,0,1,25,43Zm14.3-5.4-1.2,1.2-.3.3-1.2,1-.3.3-1.4.9h-.3l-1.5.8-.2.2-1.7.6H31l-1.7.5h-.9a44.4,44.4,0,0,0,4.3-8.4,26.1,26.1,0,0,1,6.7,2.1C39.4,37.5,39.3,37.5,39.3,37.6Zm2-2.8a29.1,29.1,0,0,0-7.7-2.6,26.2,26.2,0,0,0,.9-5.6H44A18.5,18.5,0,0,1,41.3,34.8Z" transform="translate(-2.8 -2.8)"/></svg>