<svg viewBox="0 0 117 92" fill="none" xmlns="http://www.w3.org/2000/svg">
  <path
    d="M67.3576 83.6883L70.8818 87.1958L69.8818 83.6883H103.259C103.259 83.6883 116.618 78.6788 116.618 63.6501C116.618 48.6214 103.259 44.4468 103.259 44.4468C103.259 44.4468 99.0848 0.19573 61.5131 0.195801C23.9414 0.195871 23.9415 33.5928 23.9415 33.5928C23.9415 33.5928 3.06836 36.0975 0.563585 56.1358C-1.94119 76.174 22.2716 83.6883 22.2716 83.6883H67.3576Z"
    fill="#3C88EE"
  />
  <path
    d="M80.5603 37.4344C80.289 36.4716 80.8547 35.4621 81.8175 35.1909C82.7802 34.9196 83.7908 35.485 84.062 36.4477L87.7605 49.574C91.2616 62.0002 84.5205 74.9511 72.5158 79.2778L74.3813 83.6959L70.3813 83.6959L69.0137 80.2646C56.516 82.8414 44.0053 75.315 40.5041 62.8888L36.8057 49.7626C36.5344 48.7998 37.1001 47.7903 38.0628 47.519C39.0256 47.2478 40.0351 47.8134 40.3064 48.7762L44.0048 61.9025C47.1361 73.0161 58.6891 79.4899 69.8027 76.3585C80.9163 73.2272 87.39 61.6742 84.2587 50.5606L80.5603 37.4344Z"
    fill="#DDE7F8"
  />
  <path
    fill-rule="evenodd"
    clip-rule="evenodd"
    d="M36.3246 49.8981C35.9784 48.6695 36.6988 47.3839 37.9274 47.0377C39.156 46.6916 40.4416 47.412 40.7878 48.6406L44.4862 61.7668C47.5427 72.6146 58.8194 78.9337 69.6672 75.8772C80.515 72.8208 86.8341 61.544 83.7776 50.6962L80.0792 37.5699C79.733 36.3414 80.4535 35.0557 81.682 34.7095C82.9102 34.3635 84.1972 35.0832 84.5435 36.3121L88.2419 49.4384C91.7661 61.9463 85.1205 74.9753 73.1797 79.5642L75.1354 84.1959L70.0425 84.1959L68.7032 80.8355C56.0873 83.218 43.5571 75.5674 40.023 63.0244L36.3246 49.8981ZM38.1986 48.0003C37.5016 48.1966 37.0907 48.9299 37.2871 49.6269L40.9855 62.7532C44.4154 74.9262 56.6714 82.2988 68.9129 79.7748L69.3233 79.6902L70.7205 83.1959L73.6276 83.1959L71.8502 78.9863L72.3465 78.8074C84.1051 74.5694 90.7092 61.8826 87.2794 49.7096L83.5809 36.5833C83.3847 35.8867 82.6506 35.4756 81.9532 35.6721C81.2562 35.8684 80.8453 36.6018 81.0417 37.2987L84.7401 50.425C87.9464 61.8044 81.3178 73.6335 69.9384 76.8398C58.5591 80.046 46.7299 73.4174 43.5237 62.038L39.8253 48.9118C39.6289 48.2148 38.8956 47.8039 38.1986 48.0003Z"
    fill="#DDE7F8"
  />
  <path
    d="M55.0093 23.8534C46.7836 26.171 42.0066 34.6954 44.3244 42.9214L49.2556 60.4231C51.5732 68.6487 60.0976 73.4257 68.3236 71.108C76.5492 68.7903 81.3262 60.2659 79.0085 52.04L74.0773 34.5383C71.7595 26.3121 63.2347 21.5358 55.0093 23.8534ZM67.3373 67.6076C61.0367 69.3829 54.5312 65.7376 52.7559 59.4368L50.5369 51.561L64.5382 47.6161C65.501 47.3448 66.0667 46.3353 65.7954 45.3725C65.5241 44.4098 64.5147 43.8441 63.5519 44.1154L49.5507 48.0609L47.8248 41.9355L61.8262 37.9905C62.789 37.7193 63.3546 36.7098 63.0834 35.747C62.8121 34.7843 61.8026 34.2186 60.8398 34.4899L47.3635 38.2869C47.5693 33.3174 50.92 28.7838 55.9955 27.3538C62.2961 25.5785 68.8016 29.2238 70.5769 35.5246L75.015 51.2761L61.0137 55.2211C60.0509 55.4924 59.4852 56.5018 59.7565 57.4646C60.0278 58.4274 61.0373 58.993 62 58.7218L75.8264 54.8261C76.5674 60.4732 73.0255 66.0054 67.3375 67.608L67.3373 67.6076Z"
    fill="#DDE7F8"
  />
  <path
    fill-rule="evenodd"
    clip-rule="evenodd"
    d="M43.8433 43.0569C41.4506 34.5651 46.3824 25.7646 54.8738 23.3721C63.3651 20.9796 72.166 25.9107 74.5587 34.4026L79.4899 51.9043C81.8825 60.3961 76.9508 69.1967 68.4593 71.5892C59.9676 73.9818 51.167 69.05 48.7745 60.5586L43.8433 43.0569ZM55.145 24.3346C47.1852 26.5773 42.5629 34.8256 44.8058 42.7857L49.737 60.2874C51.9798 68.2473 60.228 72.8695 68.1881 70.6266C76.148 68.3839 80.7702 60.1357 78.5274 52.1755L73.5962 34.6738C71.3533 26.7135 63.1047 22.0919 55.145 24.3346ZM47.9136 37.6124L60.7044 34.0085C61.933 33.6624 63.2186 34.3828 63.5648 35.6114C63.9109 36.8399 63.1905 38.1256 61.9619 38.4718L48.4418 42.2811L49.8965 47.444L63.4165 43.6341C64.645 43.2879 65.9307 44.0083 66.2768 45.2369C66.623 46.4655 65.9026 47.7511 64.674 48.0973L51.1539 51.9067L53.2374 59.3012C54.9378 65.3362 61.1671 68.8267 67.2019 67.1263L67.2968 67.0996C72.4956 65.5865 75.7929 60.6349 75.3911 55.4682L62.1358 59.203C60.9072 59.5491 59.6216 58.8287 59.2754 57.6002C58.9293 56.3716 59.6497 55.0859 60.8782 54.7398L74.3983 50.9304L70.0958 35.6601C68.3954 29.6251 62.1661 26.1346 56.1313 27.835C51.5091 29.1373 48.3783 33.1287 47.9136 37.6124ZM66.9892 68.2149L66.992 68.2248L67.4732 68.0892C73.4017 66.4188 77.0954 60.653 76.3223 54.761L76.2471 54.1881L61.8646 58.2405C61.1676 58.4368 60.4343 58.0259 60.2379 57.329C60.0416 56.632 60.4525 55.8987 61.1494 55.7023L75.6321 51.6217L71.0584 35.3889C69.2082 28.8223 62.4265 25.0223 55.8601 26.8725C50.5689 28.3633 47.0785 33.0886 46.8641 38.2662L46.8356 38.9551L60.9756 34.9711C61.6726 34.7747 62.4059 35.1856 62.6023 35.8826C62.7986 36.5796 62.3877 37.3129 61.6907 37.5092L47.2081 41.5898L49.2052 48.6778L63.6877 44.5966C64.3846 44.4002 65.1179 44.8111 65.3143 45.5081C65.5107 46.2051 65.0998 46.9384 64.4028 47.1348L49.9202 51.2153L52.2748 59.5724C54.0796 65.9777 60.5767 69.7507 66.9892 68.2149Z"
    fill="#DDE7F8"
  />
</svg>
