<svg id="Capa_1" data-name="Capa 1" xmlns="http://www.w3.org/2000/svg" viewBox="0 0 41.3 41.3"><title>user</title><path d="M17.3,15.5A7.7,7.7,0,1,1,25,23.3,7.7,7.7,0,0,1,17.3,15.5Zm-.9-7.1a11.1,11.1,0,0,0-2.6,7.1,11.2,11.2,0,0,0,4.4,8.9,28.2,28.2,0,0,0-4.6,2.3l-.2.2a20.3,20.3,0,0,0-9,17,1.6,1.6,0,0,0,1.7,1.7,1.7,1.7,0,0,0,1.7-1.7,16.9,16.9,0,0,1,4.3-11.3,13.8,13.8,0,0,1,3.4-3A17.2,17.2,0,0,1,25,26.7a16.9,16.9,0,0,1,8.3,2.2,17.1,17.1,0,0,1,8.9,15,1.7,1.7,0,0,0,1.7,1.7,1.6,1.6,0,0,0,1.7-1.7,20.3,20.3,0,0,0-9-17l-.3-.2a23.8,23.8,0,0,0-4.5-2.3,11.2,11.2,0,1,0-15.4-16Z" transform="translate(-4.4 -4.4)"/></svg>