<svg viewBox="0 0 19 18" fill="none" xmlns="http://www.w3.org/2000/svg">
  <path
    d="M10.9069 3.6001H10.8999C10.624 3.6001 10.4004 3.82364 10.4004 4.09953C10.4004 4.37541 10.624 4.59895 10.8999 4.59895H10.9073H13.6957L10.5535 7.74122C10.4605 7.83204 10.4028 7.95862 10.4028 8.09875C10.4028 8.37463 10.6264 8.59818 10.9023 8.59818C10.9071 8.59818 10.9123 8.59818 10.9171 8.59779H10.9162C11.0511 8.59389 11.1721 8.53669 11.2594 8.44713L14.4019 5.30487V8.09414V8.10067C14.4019 8.37655 14.6254 8.6001 14.9013 8.6001H14.9092C15.1817 8.59571 15.4004 8.37392 15.4004 8.10067V8.09326V4.09872V4.09745V4.09619C15.4004 4.08177 15.3995 4.06734 15.3982 4.05341L15.3986 4.05555V4.05253V4.04951C15.3974 4.0347 15.3951 4.02242 15.393 4.00975L15.3934 4.01277C15.3921 4.00488 15.3912 4.00011 15.3904 3.99572L15.3907 3.99874C15.3802 3.94982 15.3641 3.90704 15.3432 3.86738L15.3445 3.87001C15.3414 3.86349 15.3392 3.85998 15.337 3.85647L15.3383 3.8591C15.3309 3.84604 15.3248 3.83552 15.3177 3.82509L15.319 3.82684C15.316 3.82158 15.3138 3.81856 15.3116 3.81554L15.3129 3.81729C15.2849 3.77754 15.253 3.74304 15.2168 3.71381L15.2159 3.71293C15.2142 3.71118 15.2129 3.70991 15.2111 3.70815C15.13 3.64355 15.0265 3.60427 14.9143 3.60116H14.9083H14.9021H10.9074L10.9069 3.6001Z"
    fill="currentColor"
  />
  <path
    d="M4.5955 9.8999C4.32292 9.9038 4.10399 10.1258 4.10399 10.3988V10.4066V14.3353C4.10136 14.3549 4.09961 14.378 4.09961 14.4011C4.09961 14.6766 4.32292 14.8999 4.59852 14.8999C4.60329 14.8999 4.60855 14.8999 4.61332 14.8995H4.61244C4.63162 14.8991 4.64992 14.8974 4.66783 14.8947L4.6652 14.8951H8.59369H8.6007C8.8763 14.8951 9.09961 14.6718 9.09961 14.3963C9.09961 14.1207 8.8763 13.8974 8.6007 13.8974H8.5933H5.80742L8.94643 10.7588C9.03715 10.6686 9.09293 10.5434 9.09293 10.4056C9.09293 10.13 8.86962 9.90673 8.59402 9.90673C8.45618 9.90673 8.33148 9.9625 8.24124 10.0532L5.10224 13.1918V10.4063V10.3989C5.10224 10.1233 4.87893 9.90005 4.60333 9.90005L4.5955 9.8999Z"
    fill="currentColor"
  />
</svg>
