<svg viewBox="0 0 69 77" fill="none" xmlns="http://www.w3.org/2000/svg">
  <path
    d="M11.6331 49.8723C10.8802 53.2564 6.14084 56.7847 6.14084 56.7847C6.14084 56.7847 2.86193 51.564 3.6342 48.0927C4.40647 44.6215 9.58952 41.2833 9.58952 41.2833C9.58952 41.2833 12.386 46.4882 11.6331 49.8723Z"
    fill="#F5C144"
  />
  <path
    d="M11.7884 65.1555C8.14172 63.5194 5.01365 58.4462 5.01365 58.4462C5.01365 58.4462 11.3964 57.1894 15.1371 58.8677C18.8777 60.5461 21.718 65.9411 21.718 65.9411C21.718 65.9411 15.4352 66.7917 11.7884 65.1555Z"
    fill="#F5C144"
  />
  <path
    d="M20.5432 44.9633C20.2439 48.4251 16.0321 52.4298 16.0321 52.4298C16.0321 52.4298 12.1146 47.5332 12.4216 43.9822C12.7285 40.4313 17.4028 36.5725 17.4028 36.5725C17.4028 36.5725 20.8424 41.5015 20.5432 44.9633Z"
    fill="#F5C144"
  />
  <path
    d="M22.698 60.2418C18.8873 58.9691 15.1379 54.2051 15.1379 54.2051C15.1379 54.2051 21.268 52.3092 25.1768 53.6148C29.0857 54.9203 32.5934 60.0351 32.5934 60.0351C32.5934 60.0351 26.5087 61.5146 22.698 60.2418Z"
    fill="#F5C144"
  />
  <path
    d="M29.6839 39.2398C30.1471 42.7301 26.9341 47.41 26.9341 47.41C26.9341 47.41 22.0693 43.1941 21.5942 39.6138C21.1191 36.0335 24.8124 31.4219 24.8124 31.4219C24.8124 31.4219 29.2207 35.7494 29.6839 39.2398Z"
    fill="#F5C144"
  />
  <path
    d="M35.0969 54.067C31.1244 53.4351 26.4516 49.3231 26.4516 49.3231C26.4516 49.3231 31.9838 46.4204 36.0587 47.0687C40.1335 47.7169 44.6483 52.2178 44.6483 52.2178C44.6483 52.2178 39.0695 54.699 35.0969 54.067Z"
    fill="#F5C144"
  />
  <path
    d="M36.9071 31.1217C38.3691 34.4496 36.6845 39.7683 36.6845 39.7683C36.6845 39.7683 30.8258 36.7106 29.3261 33.297C27.8264 29.8834 29.9875 24.5246 29.9875 24.5246C29.9875 24.5246 35.4451 27.7939 36.9071 31.1217Z"
    fill="#F5C144"
  />
  <path
    d="M46.3936 44.4886C42.4321 44.7549 36.7862 41.7565 36.7862 41.7565C36.7862 41.7565 41.1958 37.6669 45.2593 37.3936C49.3229 37.1204 54.9325 40.5364 54.9325 40.5364C54.9325 40.5364 50.3552 44.2222 46.3936 44.4886Z"
    fill="#F5C144"
  />
  <path
    d="M41.8721 21.4941C44.025 24.5534 43.5693 30.1218 43.5693 30.1218C43.5693 30.1218 37.2159 28.0734 35.0076 24.9354C32.7993 21.7973 33.7078 16.1084 33.7078 16.1084C33.7078 16.1084 39.7193 18.4349 41.8721 21.4941Z"
    fill="#F5C144"
  />
  <path
    d="M54.0211 33.1716C50.2415 34.1052 44.1074 32.0798 44.1074 32.0798C44.1074 32.0798 47.4754 27.2721 51.3524 26.3145C55.2295 25.3569 61.4207 27.8034 61.4207 27.8034C61.4207 27.8034 57.8008 32.2381 54.0211 33.1716Z"
    fill="#F5C144"
  />
  <path
    d="M53.2096 18.1356C52.1021 21.4261 46.9866 24.5416 46.9866 24.5416C46.9866 24.5416 44.2475 19.1114 45.3835 15.7362C46.5195 12.3609 52.0596 9.4691 52.0596 9.4691C52.0596 9.4691 54.3171 14.8451 53.2096 18.1356Z"
    fill="#F5C144"
  />
</svg>
