<svg viewBox="0 0 58 66" fill="none" xmlns="http://www.w3.org/2000/svg">
  <path
    d="M47.5338 43.4199C47.9468 46.9733 52.2191 51.1237 52.2191 51.1237C52.2191 51.1237 55.8958 46.1422 55.4722 42.4973C55.0485 38.8524 50.3273 34.8469 50.3273 34.8469C50.3273 34.8469 47.1208 39.8665 47.5338 43.4199Z"
    fill="#F5C144"
  />
  <path
    d="M45.9453 59.0681C49.6421 57.802 53.1584 52.9548 53.1584 52.9548C53.1584 52.9548 47.0758 50.9474 43.2838 52.2461C39.4918 53.5448 36.2248 58.7544 36.2248 58.7544C36.2248 58.7544 42.2485 60.3342 45.9453 59.0681Z"
    fill="#F5C144"
  />
  <path
    d="M39.3377 37.3844C39.3027 40.9663 43.0176 45.5455 43.0176 45.5455C43.0176 45.5455 47.2842 40.9681 47.3202 37.294C47.3561 33.6198 43.1781 29.1381 43.1781 29.1381C43.1781 29.1381 39.3728 33.8025 39.3377 37.3844Z"
    fill="#F5C144"
  />
  <path
    d="M35.8061 52.8005C39.628 51.9254 43.7188 47.465 43.7188 47.465C43.7188 47.465 37.9418 44.8311 34.0215 45.7287C30.1012 46.6264 26.2121 51.4736 26.2121 51.4736C26.2121 51.4736 31.9842 53.6756 35.8061 52.8005Z"
    fill="#F5C144"
  />
  <path
    d="M30.9984 30.4895C30.22 34.0147 32.9011 39.1734 32.9011 39.1734C32.9011 39.1734 38.0239 35.4005 38.8223 31.7844C39.6208 28.1684 36.4667 23.0255 36.4667 23.0255C36.4667 23.0255 31.7768 26.9642 30.9984 30.4895Z"
    fill="#F5C144"
  />
  <path
    d="M24.3425 45.076C28.2613 44.8759 33.1878 41.1879 33.1878 41.1879C33.1878 41.1879 28.0864 37.5894 24.0667 37.7947C20.047 37.9999 15.2373 42.1044 15.2373 42.1044C15.2373 42.1044 20.4237 45.2761 24.3425 45.076Z"
    fill="#F5C144"
  />
  <path
    d="M24.7449 23.7659C23.7475 26.6608 25.4796 31.211 25.4796 31.211C25.4796 31.211 30.1312 28.4651 31.1543 25.4956C32.1774 22.5262 30.0485 17.9504 30.0485 17.9504C30.0485 17.9504 25.7423 20.871 24.7449 23.7659Z"
    fill="#F5C144"
  />
  <path
    d="M17.7471 35.4622C21.0409 35.6162 25.5202 32.9255 25.5202 32.9255C25.5202 32.9255 21.6122 29.486 18.2335 29.328C14.8548 29.17 10.4323 32.2199 10.4323 32.2199C10.4323 32.2199 14.4532 35.3081 17.7471 35.4622Z"
    fill="#F5C144"
  />
  <path
    d="M20.0239 15.5654C18.4379 18.242 19.1695 23.0308 19.1695 23.0308C19.1695 23.0308 24.2944 21.145 25.9212 18.3994C27.5481 15.6538 26.4342 10.7699 26.4342 10.7699C26.4342 10.7699 21.6099 12.8887 20.0239 15.5654Z"
    fill="#F5C144"
  />
  <path
    d="M10.7167 25.858C13.9025 26.5903 18.8475 24.7285 18.8475 24.7285C18.8475 24.7285 15.7554 20.6507 12.4874 19.8995C9.21945 19.1483 4.25404 21.3739 4.25404 21.3739C4.25404 21.3739 7.53076 25.1256 10.7167 25.858Z"
    fill="#F5C144"
  />
  <path
    d="M10.4296 12.8865C11.5553 15.7003 15.9851 18.287 15.9851 18.287C15.9851 18.287 17.905 13.5565 16.7504 10.6702C15.5958 7.78398 10.829 5.39805 10.829 5.39805C10.829 5.39805 9.304 10.0727 10.4296 12.8865Z"
    fill="#F5C144"
  />
</svg>
