<svg width="32" height="32" viewBox="0 0 32 32" fill="none" xmlns="http://www.w3.org/2000/svg">
<ellipse cx="16" cy="13.5849" rx="2.11321" ry="2.11321" />
<path d="M6.33351 13.5783C6.33389 11.3262 7.13482 9.14613 8.59567 7.42115C10.0567 5.69602 12.0841 4.53617 14.3225 4.14545C16.5605 3.7545 18.8658 4.15753 20.834 5.28375C22.802 6.40979 24.3066 8.18718 25.0837 10.3034C25.8611 12.4198 25.8611 14.7399 25.0839 16.8561C24.3068 18.9724 22.802 20.7497 20.8342 21.8762C20.5623 22.0321 20.2146 21.9402 20.0572 21.6709C19.9 21.4017 19.9927 21.057 20.2644 20.9009C21.8904 19.9707 23.1614 18.5347 23.8802 16.8154C24.5987 15.0963 24.7249 13.1902 24.2391 11.3925C23.7532 9.59506 22.6823 8.00672 21.1927 6.87388C19.7031 5.74103 17.8779 5.12706 16.0001 5.12706C14.1223 5.12706 12.2972 5.74103 10.8074 6.87388C9.31765 8.00672 8.24695 9.59506 7.76108 11.3925C7.27521 13.19 7.40125 15.0961 8.11995 16.8154C8.83866 18.5347 10.1097 19.9707 11.7358 20.9009C12.0075 21.057 12.1002 21.4017 11.9429 21.6709C11.7855 21.9402 11.4376 22.0321 11.166 21.8762C9.69885 21.0324 8.48057 19.8222 7.63262 18.3663C6.78466 16.9103 6.33665 15.2595 6.33344 13.5783L6.33351 13.5783ZM21.1174 13.5783C21.1209 14.6762 20.7614 15.7451 20.0941 16.6218C19.9054 16.8706 19.9561 17.2238 20.2074 17.4108C20.4585 17.5978 20.8149 17.5474 21.0036 17.2986C21.9376 16.0644 22.3738 14.5295 22.2268 12.9938C22.0797 11.4579 21.3602 10.0317 20.2088 8.99354C19.0571 7.95561 17.5565 7.38032 15.9999 7.38032C14.4434 7.38032 12.9427 7.95561 11.7911 8.99354C10.6396 10.0317 9.92015 11.4579 9.77301 12.9938C9.62603 14.5295 10.0622 16.0644 10.9963 17.2986C11.1849 17.5474 11.5413 17.5978 11.7925 17.4108C12.0438 17.2238 12.0944 16.8706 11.9057 16.6218C10.9188 15.3174 10.6244 13.6224 11.115 12.0662C11.6055 10.5102 12.8209 9.28259 14.3815 8.76691C15.9421 8.25123 17.6577 8.51068 18.9921 9.46392C20.3267 10.4171 21.1175 11.9481 21.1175 13.5783L21.1174 13.5783ZM18.8429 13.5783C18.8429 14.3257 18.5434 15.0423 18.0101 15.5708C17.477 16.0991 16.754 16.3961 15.9999 16.3961C15.2457 16.3961 14.5226 16.0991 13.9896 15.5708C13.4563 15.0423 13.1568 14.3257 13.1568 13.5783C13.1568 12.8311 13.4563 12.1143 13.9896 11.586C14.5227 11.0575 15.2457 10.7607 15.9999 10.7607C16.7536 10.7616 17.4763 11.0586 18.0092 11.5869C18.5423 12.1153 18.8422 12.8313 18.8429 13.5783ZM17.7057 13.5783C17.7057 13.13 17.526 12.7 17.2061 12.383C16.8861 12.0658 16.4522 11.8877 15.9999 11.8877C15.5475 11.8877 15.1136 12.0658 14.7936 12.383C14.4737 12.7 14.294 13.13 14.294 13.5783C14.294 14.0268 14.4737 14.4568 14.7936 14.7738C15.1136 15.0908 15.5475 15.2689 15.9999 15.2689C16.4522 15.2685 16.8857 15.0902 17.2056 14.7732C17.5254 14.4562 17.7051 14.0266 17.7057 13.5783ZM16.8812 17.5231C17.4584 17.5189 18.0094 17.7621 18.3926 18.1901C18.7351 18.5752 18.8935 19.088 18.8269 19.5973L17.9456 26.0602C17.8333 26.6664 17.44 27.1849 16.8835 27.4602C16.3272 27.7355 15.6726 27.7355 15.1163 27.4602C14.5598 27.1849 14.1665 26.6664 14.0541 26.0602L13.1728 19.5973C13.1062 19.088 13.2646 18.5752 13.6071 18.1901C13.9904 17.7622 14.5413 17.5189 15.1186 17.5231H16.8812ZM17.5363 18.932C17.3691 18.7488 17.1304 18.6461 16.8812 18.6501H15.1186C14.8694 18.6461 14.6306 18.7488 14.4635 18.932C14.3355 19.0714 14.2759 19.2595 14.3001 19.4465L15.1814 25.9094C15.2437 26.1515 15.4118 26.3532 15.6399 26.4598C15.8679 26.5662 16.1318 26.5662 16.3599 26.4598C16.588 26.3532 16.7561 26.1515 16.8183 25.9094L17.6996 19.4465C17.7238 19.2595 17.6642 19.0714 17.5363 18.932Z" />
<path d="M13.8868 20.2264V18.415L16 18.1132L18.1132 18.7169V20.2264L17.2076 26.8679L16 27.1698L15.0944 26.8679L13.8868 20.2264Z" />
</svg>
