<svg width="32" height="32" viewBox="0 0 32 32" fill="none" xmlns="http://www.w3.org/2000/svg">
<path d="M23.7405 7.2381C18.7991 6.44261 13.7563 6.44261 8.81501 7.2381C5.98942 7.81134 4.22641 9.57759 4.22641 11.8822V20.0708C4.22641 22.4105 5.98942 24.1535 8.86355 24.75L8.86335 24.7502C11.3214 25.1511 13.8093 25.3545 16.3018 25.3585C18.802 25.3579 21.2979 25.1583 23.7645 24.7618C26.566 24.2471 28.3774 22.4221 28.3774 20.0826V11.894C28.3774 9.56606 26.566 7.74105 23.7404 7.23814L23.7405 7.2381ZM20.2385 16.5266L14.2005 20.036C14.1061 20.0919 13.9971 20.1203 13.8865 20.1179C13.7818 20.1171 13.6785 20.093 13.5847 20.0478C13.3915 19.934 13.276 19.7286 13.2829 19.5096V12.4908C13.2847 12.28 13.3989 12.0854 13.5847 11.9761C13.777 11.8762 14.0082 11.8762 14.2005 11.9761L20.2385 15.4855C20.4157 15.595 20.5231 15.7848 20.5231 15.9884C20.5231 16.1923 20.4157 16.3819 20.2385 16.4915L20.2385 16.5266Z" />
</svg>
