<svg width="25" height="19" viewBox="0 0 25 19" fill="none" xmlns="http://www.w3.org/2000/svg">
<path d="M19.5141 0.596618C14.5727 -0.198873 9.52994 -0.198873 4.5886 0.596618C1.76301 1.16986 0 2.93611 0 5.24077V13.4293C0 15.769 1.76301 17.512 4.63714 18.1085L4.63694 18.1087C7.09498 18.5096 9.58294 18.7131 12.0753 18.717C14.5756 18.7164 17.0715 18.5168 19.5381 18.1203C22.3396 17.6056 24.1509 15.7806 24.1509 13.4411V5.25254C24.1509 2.92458 22.3396 1.09957 19.514 0.596663L19.5141 0.596618ZM16.0121 9.88512L9.97408 13.3946C9.87967 13.4504 9.77071 13.4788 9.66013 13.4764C9.55541 13.4756 9.45211 13.4516 9.35831 13.4063C9.16504 13.2925 9.04961 13.0871 9.05648 12.8682V5.84927C9.0583 5.63855 9.17252 5.44389 9.35831 5.33459C9.55056 5.23471 9.78183 5.23471 9.97406 5.33459L16.012 8.84403C16.1893 8.95351 16.2967 9.14328 16.2967 9.34694C16.2967 9.55081 16.1893 9.74038 16.012 9.85004L16.0121 9.88512Z" fill="white"/>
</svg>
