<svg width="400" height="353" viewBox="0 0 400 353" fill="none" xmlns="http://www.w3.org/2000/svg">
<path d="M212.803 300.016L36.5424 270.844C6.95977 267.276 -4.45208 250.328 -3.87579 232.667L21.1748 74.786C30.2261 17.6099 39.8641 13.5068 70.9835 17.6099L367.536 61.9456C401.633 66.4055 414.311 83.0855 417 107.169L393.565 282.8C392.796 288.866 391.067 294.753 388.282 300.283C383.864 308.936 377.813 323.263 359.564 321.925L302.311 316.443L181.737 333.792L212.803 300.016Z" fill="#F5C144"/>
<path d="M189.931 310.378L192.948 307.57L188.875 306.938L32.4515 282.654L32.4086 282.647L32.3655 282.642C18.3663 281.087 5.96528 274.364 -2.78878 265.547C-11.5486 256.724 -16.4648 246.016 -15.9651 236.533L13.6736 33.2461C17.5562 12.9359 39.6452 -1.15193 69.3081 2.60341C69.3139 2.60415 69.3197 2.60488 69.3255 2.60562L339.975 41.8064C339.977 41.8067 339.979 41.8069 339.981 41.8072C356.302 44.2587 369.185 46.5746 379.238 49.1819C389.315 51.7955 396.379 54.6615 401.175 58.1242C405.886 61.5259 408.434 65.5195 409.479 70.5952C410.547 75.7839 410.069 82.2245 408.404 90.513L408.393 90.5681L408.385 90.6236L379.984 289.197C376.984 296.666 372.496 302.705 366.048 306.754C359.533 310.844 350.828 313.022 339.233 312.368L339.21 312.367L339.188 312.366L288.941 310.666L288.641 310.656L288.351 310.735L148.97 348.502L189.931 310.378Z" stroke="#F5A623" stroke-width="4" stroke-miterlimit="10"/>
</svg>
