<svg width="571" height="393" viewBox="0 0 571 393" fill="none" xmlns="http://www.w3.org/2000/svg">
<path d="M355.568 336.983L58.6639 290.946C27.4536 287.142 15.4138 269.069 16.0218 250.236L42.4508 81.8802C52 20.9105 62.1683 16.5352 95 20.9106L518.814 83.1167C554.787 87.8725 568.163 105.659 571 131.341L546.275 318.625C545.464 325.093 543.64 331.371 540.702 337.268C536.04 346.494 529.656 361.772 510.403 360.345L450 354.5L322.792 373L355.568 336.983Z" fill="#F5C144"/>
<path d="M332.056 348.657L336.529 344.448L330.46 343.507L53.3633 300.55L53.301 300.541L53.2385 300.534C38.6971 298.901 25.7993 291.838 16.6909 282.566C7.57552 273.287 2.53752 262.106 3.03366 252.309L34.295 35.5909C38.2886 14.5364 61.0175 -0.323933 91.9856 3.63472L489.6 62.4987C489.602 62.499 489.603 62.4992 489.605 62.4995C506.818 65.1127 520.371 67.5765 530.929 70.3442C541.522 73.1211 548.846 76.1424 553.771 79.7365C558.57 83.2386 561.134 87.3119 562.192 92.5094C563.285 97.8745 562.807 104.609 561.057 113.415L561.041 113.497L561.03 113.58L531.079 325.227C527.965 333.022 523.343 339.263 516.759 343.441C510.081 347.68 501.096 349.978 489.006 349.289L488.972 349.287L488.938 349.286L435.926 347.474L435.471 347.458L435.031 347.579L291.381 386.92L332.056 348.657Z" stroke="#F5A623" stroke-width="6" stroke-miterlimit="10"/>
</svg>
