<svg viewBox="0 0 43 43" fill="none" xmlns="http://www.w3.org/2000/svg">
  <path
    d="M21.9513 5.42872L25.5831 13.0397C26.0933 14.109 27.1098 14.8476 28.2844 15.0024L36.6452 16.1045C37.0622 16.1595 37.2292 16.6733 36.9241 16.9629L30.8079 22.7689C29.9486 23.5845 29.5604 24.7796 29.7761 25.9445L31.3115 34.2367C31.3881 34.6502 30.951 34.9678 30.5814 34.7672L23.1696 30.7444C22.1283 30.1793 20.8717 30.1793 19.8304 30.7444L12.4186 34.7672C12.049 34.9678 11.6119 34.6502 11.6885 34.2367L13.2239 25.9445C13.4396 24.7796 13.0514 23.5845 12.1921 22.7689L6.07586 16.9629C5.77084 16.6733 5.9378 16.1595 6.35475 16.1045L14.7156 15.0024C15.8902 14.8476 16.9067 14.109 17.4169 13.0397L21.0487 5.42872C21.2299 5.04916 21.7701 5.04916 21.9513 5.42872Z"
    stroke="currentColor"
    stroke-width="3"
  />
</svg>
