<svg viewBox="0 0 24 24" fill="none" xmlns="http://www.w3.org/2000/svg">
  <path
    d="M20.9485 6.23394C20.9351 6.20318 20.9178 6.17429 20.897 6.14771C20.8713 6.11077 20.8584 6.07384 20.8327 6.04309L19.065 4.19688C18.9412 4.0717 18.7693 4.00062 18.5893 4C18.4283 4.00185 18.2733 4.05857 18.1521 4.15994C18.028 4.27213 17.9544 4.42621 17.9473 4.58937C17.94 4.75271 17.9997 4.91219 18.1135 5.0338L18.9685 5.92608C15.6129 6.30145 13.9095 8.08617 12.0003 10.8676C11.7496 11.2307 11.4989 11.6061 11.2417 11.9999C11.2353 12.0122 11.2225 12.0244 11.2161 12.0368L10.9846 12.3938C9.00471 15.4093 8.01469 16.923 4.54327 16.923H3.64334C3.41363 16.923 3.20153 17.0403 3.08657 17.2307C2.9718 17.4211 2.9718 17.6557 3.08657 17.8461C3.2015 18.0365 3.41362 18.1538 3.64334 18.1538H4.54327C8.67027 18.1538 10.0205 16.1722 12.0004 13.1569C12.1289 13.3537 12.2575 13.5508 12.3797 13.7353C12.5082 13.926 12.6369 14.1168 12.7653 14.3015C14.3018 16.5353 15.7224 17.9877 18.9108 18.1353L18.1137 18.966V18.9662C17.9999 19.0878 17.9401 19.2473 17.9474 19.4106C17.9545 19.5738 18.0281 19.7279 18.1522 19.8401C18.2735 19.9414 18.4284 19.9981 18.5894 20C18.7694 19.9994 18.9413 19.9283 19.0651 19.8031L20.8329 17.9569C20.8585 17.9262 20.8715 17.8892 20.8971 17.8523C20.9179 17.8257 20.9352 17.7968 20.9486 17.7661C20.9809 17.6962 20.9983 17.621 20.9999 17.5446V17.5323C20.9983 17.4559 20.9809 17.3807 20.9486 17.3108C20.9352 17.2801 20.9179 17.2512 20.8971 17.2246C20.8715 17.1876 20.8585 17.1507 20.8329 17.12L19.0651 15.2737C18.9085 15.1124 18.6741 15.0429 18.4497 15.0911C18.2254 15.1395 18.0447 15.2985 17.9755 15.5085C17.9062 15.7185 17.9588 15.9478 18.1136 16.1107L18.8786 16.9045C16.153 16.7568 15.086 15.5076 13.5176 13.1568C13.3955 12.9721 13.2669 12.7753 13.1382 12.5784C13.0996 12.5169 13.0546 12.4554 13.016 12.3937L12.7845 12.0368C12.7781 12.0244 12.7653 12.0122 12.7589 11.9998C14.6103 9.23676 15.9987 7.60584 18.7886 7.18769L18.1137 7.88925L18.1138 7.88941C18 8.01102 17.9403 8.1705 17.9476 8.33383C17.9547 8.49702 18.0283 8.65108 18.1524 8.76326C18.2736 8.86463 18.4286 8.92135 18.5895 8.9232C18.7695 8.92258 18.9414 8.8515 19.0653 8.72632L20.833 6.88011C20.8587 6.84936 20.8716 6.81243 20.8973 6.7755C20.9181 6.74892 20.9354 6.72002 20.9488 6.68927C20.9811 6.61942 20.9985 6.54416 21.0001 6.46782V6.45546C20.9985 6.37912 20.9811 6.30386 20.9488 6.23401L20.9485 6.23394Z"
    fill="currentColor"
  />
  <path
    d="M3.64289 7.07664C7.06269 7.07664 8.65685 8.37501 10.4632 10.8735C10.7203 10.492 10.971 10.1228 11.2152 9.77201C9.34462 7.29204 7.42272 5.84595 3.64285 5.84595C3.41314 5.84595 3.20104 5.96324 3.08608 6.15362C2.97131 6.34401 2.97131 6.57858 3.08608 6.76899C3.20101 6.95937 3.41313 7.07666 3.64285 7.07666L3.64289 7.07664Z"
    fill="currentColor"
  />
</svg>
