<svg viewBox="0 0 225 198" fill="none" xmlns="http://www.w3.org/2000/svg">
  <g clip-path="url(#clip0_918_22657)">
    <rect width="224" height="198" transform="translate(0.5)" fill="white" />
    <ellipse cx="119.5" cy="165" rx="72" ry="11" fill="#DBE4F8" />
    <path
      d="M220.5 134.5L105.5 160.5L140.5 167L242.5 139L220.5 134.5Z"
      fill="url(#paint0_linear_918_22657)"
    />
    <path
      d="M63.645 57.8489C78.568 44.2801 97.3057 50.0267 116.996 44C139.642 37.069 142.932 19.9751 167.096 22.1192C183.914 23.6115 193.912 36.1193 198.811 51.4172C206.362 74.9988 200.377 96.9488 182.199 116.446C161.75 138.378 130.372 143.527 105.176 137.883C79.9809 132.239 60.8926 124.482 53.0733 98.5808C48.5429 83.5739 51.164 69.1973 63.645 57.8489Z"
      fill="#E1E8FB"
    />
    <path
      d="M144.604 93.401C137.692 112.939 129.518 113.94 118.627 114.015"
      stroke="#595A5E"
      stroke-width="1.31726"
      stroke-linecap="round"
    />
    <path
      fill-rule="evenodd"
      clip-rule="evenodd"
      d="M172.024 152.841L170.371 141.681C170.063 139.601 170.081 137.486 170.425 135.411L183.21 58.2094C183.322 57.531 183.85 57.2007 184.383 57.1936L153.107 51.3822C152.016 51.1795 150.968 51.9036 150.773 52.9958L149.923 57.738L138.393 130.779C138.104 132.611 137.999 134.467 138.081 136.32L138.506 145.999C138.577 147.616 140.187 148.4 140.983 148.59L172.488 153.463C172.257 153.364 172.07 153.156 172.024 152.841ZM172.906 153.528L172.929 153.531L172.929 153.525C172.922 153.526 172.914 153.527 172.906 153.528Z"
      fill="#F7F7F7"
    />
    <path
      d="M170.371 141.681L170.158 141.713L170.371 141.681ZM172.024 152.841L171.811 152.872L171.811 152.872L172.024 152.841ZM170.425 135.411L170.213 135.376L170.425 135.411ZM183.21 58.2094L183.422 58.2445L183.422 58.2445L183.21 58.2094ZM184.383 57.1936L184.386 57.4087L184.423 56.9822L184.383 57.1936ZM153.107 51.3822L153.146 51.1708L153.107 51.3822ZM150.773 52.9958L150.984 53.0337L150.773 52.9958ZM149.923 57.738L149.711 57.7001L149.71 57.7045L149.923 57.738ZM138.393 130.779L138.18 130.745L138.393 130.779ZM138.081 136.32L137.866 136.329L138.081 136.32ZM138.506 145.999L138.291 146.008L138.291 146.008L138.506 145.999ZM140.983 148.59L140.933 148.799L140.941 148.801L140.95 148.802L140.983 148.59ZM172.488 153.463L172.456 153.675L172.573 153.265L172.488 153.463ZM172.906 153.528L172.886 153.313L172.873 153.74L172.906 153.528ZM172.929 153.531L172.896 153.744L173.116 153.778L173.142 153.557L172.929 153.531ZM172.929 153.525L173.143 153.551L173.176 153.278L172.904 153.312L172.929 153.525ZM170.158 141.713L171.811 152.872L172.237 152.809L170.584 141.65L170.158 141.713ZM170.213 135.376C169.865 137.473 169.847 139.61 170.158 141.713L170.584 141.65C170.279 139.592 170.297 137.499 170.637 135.447L170.213 135.376ZM182.998 58.1742L170.213 135.376L170.637 135.447L183.422 58.2445L182.998 58.1742ZM184.381 56.9786C183.759 56.9868 183.129 57.3785 182.998 58.1742L183.422 58.2445C183.515 57.6835 183.941 57.4146 184.386 57.4087L184.381 56.9786ZM184.423 56.9822L153.146 51.1708L153.067 51.5937L184.344 57.4051L184.423 56.9822ZM153.146 51.1708C151.938 50.9463 150.778 51.7482 150.561 52.9578L150.984 53.0337C151.159 52.059 152.094 51.4128 153.067 51.5937L153.146 51.1708ZM150.561 52.9578L149.711 57.7001L150.135 57.7759L150.984 53.0337L150.561 52.9578ZM149.71 57.7045L138.18 130.745L138.605 130.812L150.135 57.7715L149.71 57.7045ZM138.18 130.745C137.889 132.591 137.784 134.462 137.866 136.329L138.295 136.31C138.215 134.472 138.318 132.63 138.605 130.812L138.18 130.745ZM137.866 136.329L138.291 146.008L138.721 145.989L138.295 136.31L137.866 136.329ZM138.291 146.008C138.33 146.894 138.792 147.546 139.336 147.995C139.876 148.441 140.508 148.698 140.933 148.799L141.033 148.381C140.661 148.292 140.091 148.061 139.61 147.664C139.131 147.268 138.753 146.72 138.721 145.989L138.291 146.008ZM140.95 148.802L172.456 153.675L172.521 153.25L141.016 148.377L140.95 148.802ZM171.811 152.872C171.869 153.264 172.107 153.533 172.403 153.661L172.573 153.265C172.408 153.194 172.272 153.047 172.237 152.809L171.811 152.872ZM172.873 153.74L172.896 153.744L172.962 153.318L172.939 153.315L172.873 153.74ZM173.142 153.557L173.143 153.551L172.716 153.499L172.715 153.505L173.142 153.557ZM172.926 153.742C172.936 153.741 172.946 153.74 172.955 153.739L172.904 153.312C172.898 153.312 172.892 153.313 172.886 153.313L172.926 153.742Z"
      fill="#F5F5F5"
    />
    <path
      d="M170.609 141.553L172.261 152.712C172.397 153.627 173.712 153.636 173.861 152.724L186.13 77.3133C186.427 75.4902 186.536 73.6413 186.454 71.796L185.858 58.2259C185.794 56.7689 183.686 56.6421 183.447 58.0809L170.662 135.283C170.319 137.357 170.301 139.473 170.609 141.553Z"
      fill="#E2E2E2"
      stroke="#EBEBEB"
      stroke-width="0.172063"
    />
    <mask
      id="mask0_918_22657"
      style="mask-type: alpha"
      maskUnits="userSpaceOnUse"
      x="138"
      y="52"
      width="47"
      height="102"
    >
      <path
        d="M140.985 148.591L172.931 153.532L184.56 57.2273L159.58 52.2822L149.925 57.7391L138.395 130.78C138.106 132.612 138.001 134.468 138.082 136.321L138.508 146C138.579 147.617 140.189 148.401 140.985 148.591Z"
        fill="#F5C144"
      />
    </mask>
    <g mask="url(#mask0_918_22657)">
      <path
        d="M178.425 87.5129L146.3 82.4797L142.335 81.9145L130.149 152.344L178.897 158.876L188.247 94.6707L183.964 90.6548L178.425 87.5129Z"
        fill="url(#paint1_linear_918_22657)"
      />
    </g>
    <mask
      id="mask1_918_22657"
      style="mask-type: alpha"
      maskUnits="userSpaceOnUse"
      x="170"
      y="57"
      width="17"
      height="97"
    >
      <path
        d="M170.375 141.684L172.028 152.844C172.163 153.758 173.479 153.768 173.627 152.855L185.897 77.4451C186.194 75.622 186.302 73.7732 186.221 71.9278L185.624 58.3578C185.56 56.9007 183.452 56.7739 183.214 58.2128L170.429 135.415C170.085 137.489 170.067 139.605 170.375 141.684Z"
        fill="#EBB942"
      />
    </mask>
    <g mask="url(#mask1_918_22657)">
      <path
        d="M178.428 87.5165L146.303 82.4834L142.338 81.9182L130.151 152.348L178.9 158.879L188.25 94.6743L183.966 90.6585L178.428 87.5165Z"
        fill="#EBB942"
      />
    </g>
    <path
      d="M157.941 64.5957C157.849 65.3173 157.294 65.8409 156.701 65.7651C156.108 65.6893 155.702 65.0429 155.794 64.3213C155.887 63.5996 156.442 63.0761 157.035 63.1519C157.628 63.2276 158.034 63.8741 157.941 64.5957Z"
      fill="#595A5E"
    />
    <circle
      cx="167.91"
      cy="67.3901"
      r="1.31726"
      transform="rotate(7.2837 167.91 67.3901)"
      fill="#595A5E"
    />
    <path
      d="M166.733 74.3549C165.597 72.6672 162.016 69.7679 156.781 71.6726"
      stroke="#595A5E"
      stroke-width="1.31726"
      stroke-linecap="round"
    />
    <path
      d="M178.127 98.0145C178.645 102.523 174.127 114.015 135.127 109.515"
      stroke="#595A5E"
      stroke-width="1.31726"
      stroke-linecap="round"
    />
    <g filter="url(#filter0_d_918_22657)">
      <rect
        x="28.5"
        y="82.6323"
        width="105"
        height="39"
        rx="8"
        transform="rotate(-10.7762 28.5 82.6323)"
        fill="#E25B73"
      />
    </g>
    <path
      d="M68.8978 104.575L66.3677 90.8729L72.2317 89.7901C73.6581 89.5267 74.7682 89.7324 75.562 90.4072C76.3664 91.0654 76.893 92.0682 77.1419 93.4157C77.32 94.3802 77.2474 95.2443 76.924 96.008C76.6007 96.7718 76.0413 97.3665 75.2458 97.792C75.5176 97.9325 75.7392 98.097 75.9105 98.2853C76.0819 98.4737 76.2663 98.733 76.4639 99.0632L78.8033 102.745L76.5844 103.155L74.3122 99.6145C74.0988 99.2726 73.8721 99.0431 73.6319 98.9261C73.405 98.8067 73.0472 98.7921 72.5586 98.8823L70.1614 99.325L71.0572 104.176L68.8978 104.575ZM69.8157 97.4527L72.9458 96.8747C73.725 96.7308 74.3012 96.4117 74.6743 95.9174C75.0474 95.4232 75.1501 94.7222 74.9825 93.8144C74.6656 92.0981 73.7345 91.3827 72.1892 91.668L68.861 92.2826L69.8157 97.4527Z"
      fill="white"
    />
    <path
      d="M82.3535 102.275L78.9033 83.5905L87.6993 81.9662C89.8389 81.5711 91.4941 81.8255 92.6648 82.7294C93.8518 83.6102 94.6149 84.9694 94.9542 86.8069C95.1971 88.1221 95.0675 89.3061 94.5654 90.3589C94.0632 91.4117 93.2121 92.2389 92.0121 92.8405C92.4151 93.0261 92.7425 93.2457 92.9942 93.4992C93.2459 93.7528 93.5154 94.103 93.8028 94.55L97.2117 99.5309L93.8834 100.145L90.5715 95.3567C90.2607 94.894 89.9272 94.5856 89.5709 94.4314C89.2345 94.2735 88.6998 94.2622 87.9668 94.3976L84.3711 95.0616L85.5926 101.676L82.3535 102.275ZM83.8996 92.5085L88.5948 91.6415C89.7637 91.4256 90.6331 90.975 91.2031 90.2898C91.7731 89.6045 91.9438 88.6429 91.7152 87.405C91.283 85.0647 89.908 84.1085 87.5901 84.5365L82.5978 85.4584L83.8996 92.5085Z"
      fill="white"
    />
    <path
      d="M113.494 96.5243L110.963 82.8226L116.827 81.7398C118.254 81.4764 119.364 81.6821 120.158 82.3569C120.962 83.0151 121.489 84.0179 121.738 85.3654C121.916 86.3299 121.843 87.194 121.52 87.9577C121.196 88.7215 120.637 89.3162 119.842 89.7417C120.113 89.8822 120.335 90.0467 120.506 90.235C120.678 90.4234 120.862 90.6827 121.06 91.0129L123.399 94.6952L121.18 95.1049L118.908 91.5642C118.695 91.2223 118.468 90.9928 118.228 90.8758C118.001 90.7564 117.643 90.7418 117.154 90.832L114.757 91.2747L115.653 96.1256L113.494 96.5243ZM114.411 89.4024L117.542 88.8244C118.321 88.6805 118.897 88.3614 119.27 87.8672C119.643 87.3729 119.746 86.6719 119.578 85.7641C119.261 84.0479 118.33 83.3324 116.785 83.6177L113.457 84.2323L114.411 89.4024Z"
      fill="white"
    />
    <path
      d="M104.774 98.1343C102.691 98.5189 101.031 98.2564 99.7933 97.3469C98.553 96.4237 97.7181 94.7996 97.2888 92.4748C96.8417 90.0536 97.0351 88.2041 97.869 86.9262C98.703 85.6484 100.161 84.8172 102.244 84.4326C104.341 84.0454 106 84.301 107.221 85.1992C108.457 86.095 109.298 87.7534 109.745 90.1746C110.174 92.4995 109.974 94.3146 109.146 95.62C108.328 96.909 106.871 97.7471 104.774 98.1343ZM104.424 96.2358C105.799 95.9819 106.736 95.4176 107.236 94.5428C107.747 93.6518 107.842 92.3327 107.519 90.5856C107.179 88.7422 106.614 87.5163 105.826 86.9079C105.049 86.2831 103.973 86.0977 102.599 86.3516C101.237 86.603 100.298 87.1605 99.7822 88.024C99.277 88.8712 99.1946 90.2166 99.535 92.06C99.8576 93.8071 100.41 95.0067 101.192 95.659C101.985 96.2949 103.062 96.4872 104.424 96.2358Z"
      fill="white"
    />
    <path
      d="M54.4009 106.708L51.4258 90.5973L62.4228 88.5666L62.8155 90.693L54.4881 92.2308L55.389 97.1091L62.8101 95.7387L63.1982 97.8402L55.777 99.2106L56.6825 104.114L65.0098 102.576L65.3979 104.678L54.4009 106.708Z"
      fill="white"
    />
    <path
      d="M155.172 41.8363C150.672 14.3667 116.122 4.85006 104.927 19.2001C103.17 21.4526 105.953 23.0665 107.758 22.0703C109.563 21.0741 110.117 18.6991 103.645 14.367C88.9547 4.53393 58.0789 8.34888 41.5679 24.1092"
      stroke="#609FFF"
      stroke-linejoin="round"
      stroke-dasharray="2 2"
    />
    <path
      d="M21 23.5V30.5L24 29L22 35L3.5 41.5L21 23.5Z"
      fill="#3C88EE"
      fill-opacity="0.5"
    />
    <path
      d="M10.4205 37.24L27.9628 26.1234C28.1399 26.0111 28.3484 26.2125 28.2424 26.3935L24.378 32.986C24.3527 33.029 24.3445 33.0799 24.3549 33.1287L24.8587 35.5033C24.8806 35.6065 24.8186 35.7089 24.717 35.7374L3.35445 41.7186C3.14908 41.7761 3.00835 41.5151 3.16923 41.3751L22.9864 24.1276C23.1283 24.0041 23.3468 24.1271 23.3147 24.3126L22.7283 27.6997"
      stroke="#609FFF"
      stroke-linejoin="round"
    />
  </g>
  <defs>
    <filter
      id="filter0_d_918_22657"
      x="29.853"
      y="64.3533"
      width="110.734"
      height="57.238"
      filterUnits="userSpaceOnUse"
      color-interpolation-filters="sRGB"
    >
      <feFlood flood-opacity="0" result="BackgroundImageFix" />
      <feColorMatrix
        in="SourceAlpha"
        type="matrix"
        values="0 0 0 0 0 0 0 0 0 0 0 0 0 0 0 0 0 0 127 0"
        result="hardAlpha"
      />
      <feOffset dx="3" dy="2" />
      <feComposite in2="hardAlpha" operator="out" />
      <feColorMatrix
        type="matrix"
        values="0 0 0 0 0.6 0 0 0 0 0.2825 0 0 0 0 0.33965 0 0 0 1 0"
      />
      <feBlend
        mode="normal"
        in2="BackgroundImageFix"
        result="effect1_dropShadow_918_22657"
      />
      <feBlend
        mode="normal"
        in="SourceGraphic"
        in2="effect1_dropShadow_918_22657"
        result="shape"
      />
    </filter>
    <linearGradient
      id="paint0_linear_918_22657"
      x1="121.5"
      y1="167"
      x2="210.5"
      y2="136"
      gradientUnits="userSpaceOnUse"
    >
      <stop stop-color="#C0C5D8" />
      <stop offset="0.637433" stop-color="#DDE1F0" stop-opacity="0" />
    </linearGradient>
    <linearGradient
      id="paint1_linear_918_22657"
      x1="149.611"
      y1="153.861"
      x2="162.526"
      y2="85.7881"
      gradientUnits="userSpaceOnUse"
    >
      <stop stop-color="#F5C144" />
      <stop offset="0.412446" stop-color="#F5C144" />
      <stop offset="1" stop-color="#FFD570" />
    </linearGradient>
    <clipPath id="clip0_918_22657">
      <rect width="224" height="198" fill="white" transform="translate(0.5)" />
    </clipPath>
  </defs>
</svg>
