<svg viewBox="0 0 227 198" fill="none" xmlns="http://www.w3.org/2000/svg">
  <ellipse cx="101.335" cy="178.798" rx="76" ry="9" fill="#E4E8F4" />
  <path
    d="M19.9647 108.913C20.9665 157.346 69.3783 172.702 128.236 164.466C164.614 159.376 196.624 129.006 203.023 107.17C208.319 89.0984 208.915 66.2514 191.263 53.2313C171.633 38.7527 151.856 50.1207 117.143 43.7525C56.1133 32.5564 18.963 60.4806 19.9647 108.913Z"
    fill="#E1E8FB"
  />
  <path
    d="M100.312 75.9199C93.3996 56.3816 85.2258 55.3805 74.3354 55.3063"
    stroke="#595A5E"
    stroke-width="1.31726"
    stroke-linecap="round"
  />
  <path
    fill-rule="evenodd"
    clip-rule="evenodd"
    d="M126.859 138.639L125.207 127.48C124.899 125.4 124.917 123.284 125.26 121.21L138.045 44.008C138.158 43.3291 138.686 42.9988 139.22 42.9922L107.942 37.1806C106.851 36.9779 105.804 37.702 105.608 38.7942L104.758 43.5364L93.2285 116.577C92.9393 118.409 92.8346 120.265 92.9161 122.118L93.3417 131.797C93.4127 133.414 95.0224 134.198 95.8184 134.388L127.323 139.261C127.093 139.162 126.906 138.954 126.859 138.639ZM127.743 139.326L127.764 139.329L127.765 139.324C127.757 139.325 127.75 139.325 127.743 139.326Z"
    fill="#F7F7F7"
  />
  <path
    d="M125.207 127.48L124.994 127.511L125.207 127.48ZM126.859 138.639L127.072 138.608L127.072 138.608L126.859 138.639ZM125.26 121.21L125.048 121.175L125.26 121.21ZM138.045 44.008L138.257 44.0431L138.257 44.0431L138.045 44.008ZM139.22 42.9922L139.223 43.2073L139.259 42.7808L139.22 42.9922ZM107.942 37.1806L107.981 36.9691L107.942 37.1806ZM105.608 38.7942L105.82 38.8321L105.608 38.7942ZM104.758 43.5364L104.547 43.4984L104.546 43.5029L104.758 43.5364ZM93.2285 116.577L93.4409 116.611L93.2285 116.577ZM92.9161 122.118L92.7012 122.127L92.9161 122.118ZM93.3417 131.797L93.5565 131.787L93.3417 131.797ZM95.8184 134.388L95.7684 134.598L95.7769 134.6L95.7855 134.601L95.8184 134.388ZM127.323 139.261L127.29 139.474L127.408 139.064L127.323 139.261ZM127.743 139.326L127.722 139.112L127.71 139.539L127.743 139.326ZM127.764 139.329L127.731 139.542L127.951 139.576L127.978 139.355L127.764 139.329ZM127.765 139.324L127.978 139.349L128.011 139.077L127.739 139.11L127.765 139.324ZM124.994 127.511L126.647 138.671L127.072 138.608L125.419 127.448L124.994 127.511ZM125.048 121.175C124.701 123.271 124.683 125.409 124.994 127.511L125.419 127.448C125.115 125.39 125.133 123.298 125.472 121.245L125.048 121.175ZM137.833 43.9728L125.048 121.175L125.472 121.245L138.257 44.0431L137.833 43.9728ZM139.217 42.7772C138.595 42.7848 137.965 43.1765 137.833 43.9728L138.257 44.0431C138.35 43.4818 138.778 43.2128 139.223 43.2073L139.217 42.7772ZM139.259 42.7808L107.981 36.9691L107.903 37.3921L139.181 43.2037L139.259 42.7808ZM107.981 36.9691C106.773 36.7446 105.613 37.5466 105.396 38.7562L105.82 38.8321C105.995 37.8574 106.929 37.2112 107.903 37.3921L107.981 36.9691ZM105.396 38.7562L104.547 43.4984L104.97 43.5743L105.82 38.8321L105.396 38.7562ZM104.546 43.5029L93.016 116.544L93.4409 116.611L104.971 43.5699L104.546 43.5029ZM93.016 116.544C92.7246 118.39 92.6191 120.26 92.7012 122.127L93.131 122.109C93.0501 120.27 93.154 118.428 93.4409 116.611L93.016 116.544ZM92.7012 122.127L93.1268 131.806L93.5565 131.787L93.131 122.109L92.7012 122.127ZM93.1268 131.806C93.1657 132.692 93.628 133.345 94.1712 133.794C94.7114 134.24 95.344 134.496 95.7684 134.598L95.8683 134.179C95.4968 134.09 94.9266 133.86 94.4452 133.462C93.9668 133.067 93.5887 132.519 93.5565 131.787L93.1268 131.806ZM95.7855 134.601L127.29 139.474L127.356 139.049L95.8512 134.176L95.7855 134.601ZM126.647 138.671C126.705 139.062 126.942 139.331 127.238 139.459L127.408 139.064C127.243 138.992 127.107 138.846 127.072 138.608L126.647 138.671ZM127.71 139.539L127.731 139.542L127.797 139.117L127.775 139.113L127.71 139.539ZM127.978 139.355L127.978 139.349L127.551 139.298L127.551 139.304L127.978 139.355ZM127.763 139.54C127.772 139.539 127.782 139.538 127.791 139.537L127.739 139.11C127.733 139.111 127.728 139.111 127.722 139.112L127.763 139.54Z"
    fill="#F5F5F5"
  />
  <path
    d="M125.444 127.351L127.097 138.511C127.232 139.425 128.548 139.434 128.696 138.522L140.966 63.1119C141.262 61.2887 141.371 59.4399 141.29 57.5946L140.693 44.0245C140.629 42.5675 138.521 42.4407 138.283 43.8795L125.498 121.082C125.154 123.156 125.136 125.271 125.444 127.351Z"
    fill="#E2E2E2"
    stroke="#EBEBEB"
    stroke-width="0.172063"
  />
  <mask
    id="mask0_918_25425"
    style="mask-type: alpha"
    maskUnits="userSpaceOnUse"
    x="92"
    y="38"
    width="48"
    height="102"
  >
    <path
      d="M95.8203 134.389L127.766 139.33L139.396 43.0256L114.416 38.0806L104.76 43.5374L93.2304 116.578C92.9412 118.41 92.8365 120.266 92.918 122.119L93.3436 131.798C93.4147 133.415 95.0243 134.199 95.8203 134.389Z"
      fill="#F5C144"
    />
  </mask>
  <g mask="url(#mask0_918_25425)">
    <path
      d="M133.261 73.3112L101.136 68.2781L97.171 67.7128L84.9845 138.142L133.733 144.674L143.083 80.469L138.8 76.4532L133.261 73.3112Z"
      fill="url(#paint0_linear_918_25425)"
    />
  </g>
  <mask
    id="mask1_918_25425"
    style="mask-type: alpha"
    maskUnits="userSpaceOnUse"
    x="124"
    y="42"
    width="18"
    height="98"
  >
    <path
      d="M125.211 127.483L126.863 138.643C126.999 139.557 128.314 139.566 128.463 138.654L140.732 63.2437C141.029 61.4206 141.138 59.5718 141.056 57.7264L140.46 44.1563C140.396 42.6993 138.288 42.5725 138.049 44.0114L125.264 121.213C124.921 123.288 124.903 125.403 125.211 127.483Z"
      fill="#EBB942"
    />
  </mask>
  <g mask="url(#mask1_918_25425)">
    <path
      d="M133.263 73.315L101.138 68.2819L97.1729 67.7166L84.9864 138.146L133.735 144.678L143.085 80.4728L138.802 76.4569L133.263 73.315Z"
      fill="#EBB942"
    />
  </g>
  <path
    d="M112.777 50.3942C112.685 51.1158 112.129 51.6394 111.536 51.5636C110.943 51.4878 110.538 50.8414 110.63 50.1197C110.722 49.3981 111.277 48.8745 111.87 48.9503C112.463 49.0261 112.869 49.6725 112.777 50.3942Z"
    fill="#595A5E"
  />
  <circle
    cx="122.745"
    cy="53.1884"
    r="1.31726"
    transform="rotate(7.2837 122.745 53.1884)"
    fill="#595A5E"
  />
  <path
    d="M121.568 60.1532C120.432 58.4655 116.851 55.5662 111.616 57.4709"
    stroke="#595A5E"
    stroke-width="1.31726"
    stroke-linecap="round"
  />
  <path
    d="M157.382 62.1192C157.267 66.9063 153.846 79.6152 133.335 78.1853"
    stroke="#595A5E"
    stroke-width="1.31726"
    stroke-linecap="round"
  />
  <path
    d="M170.189 44.9086L144.683 30.1828C143.59 29.5519 142.192 29.9263 141.561 31.0192L138.884 35.6566C138.253 36.7495 138.627 38.1469 139.72 38.7779L165.226 53.5037C166.319 54.1347 167.716 53.7602 168.347 52.6674L171.025 48.0299C171.656 46.9371 171.281 45.5396 170.189 44.9086ZM139.336 29.7342C140.676 27.4122 143.646 26.6166 145.968 27.9572L171.473 42.683C173.796 44.0237 174.591 46.9928 173.25 49.3149L170.573 53.9523C169.232 56.2743 166.263 57.0699 163.941 55.7293L138.435 41.0035C136.113 39.6629 135.318 36.6937 136.658 34.3717L139.336 29.7342Z"
    fill="#4274C0"
    stroke="#305EA1"
  />
  <rect
    x="115.803"
    y="21.3005"
    width="87.4624"
    height="11.6022"
    transform="rotate(30 115.803 21.3005)"
    fill="#4274C0"
  />
  <path
    d="M82.3354 75.2716H158.196V168.798C158.196 174.321 153.718 178.798 148.196 178.798H92.3354C86.8126 178.798 82.3354 174.321 82.3354 168.798V75.2716Z"
    fill="#5291F0"
  />
  <path
    d="M82.3354 75.2716H158.196V168.798C158.196 174.321 153.718 178.798 148.196 178.798H92.3354C86.8126 178.798 82.3354 174.321 82.3354 168.798V75.2716Z"
    fill="black"
    fill-opacity="0.2"
  />
  <rect x="119.164" y="93.0001" width="5" height="67" rx="2.5" fill="#305EA1" />
  <rect x="107.164" y="93.0001" width="5" height="67" rx="2.5" fill="#305EA1" />
  <rect x="95.1636" y="93.0001" width="5" height="67" rx="2.5" fill="#305EA1" />
  <rect x="130.164" y="93.0001" width="5" height="67" rx="2.5" fill="#305EA1" />
  <rect x="141.164" y="93.0001" width="5" height="67" rx="2.5" fill="#305EA1" />
  <rect
    x="82.3354"
    y="75.2716"
    width="75.8602"
    height="2.67742"
    fill="#133C76"
    fill-opacity="0.5"
  />
  <path
    d="M119.819 172.105C105.332 174.315 83.2279 173.89 83.2279 173.89C83.2279 173.89 84.3398 176.016 85.4591 177.014C86.0095 177.504 86.8423 177.971 87.5096 178.304C88.2078 178.653 88.9842 178.799 89.7647 178.799H148.196C153.718 178.799 158.196 174.321 158.196 168.799V161.842C158.196 161.842 135.155 169.765 119.819 172.105Z"
    fill="#3565AC"
  />
  <path
    d="M69.5438 59.5443C72.1551 56.4235 76.0887 51.3632 77.1794 51.9089C78.8181 52.7287 79.3612 56.2723 79.3612 56.2723C79.3612 56.2723 77.7249 77.5432 75.5433 81.361C73.9722 84.1102 68.453 84.6334 68.453 84.6334C68.453 84.6334 63.8352 91.1039 59.7266 90.6325C58.6358 90.5074 56.9997 76.9973 58.6359 74.8157C61.1279 71.4928 64.4259 65.6608 69.5438 59.5443Z"
    fill="#F7F7F7"
  />
  <defs>
    <linearGradient
      id="paint0_linear_918_25425"
      x1="104.446"
      y1="139.66"
      x2="117.362"
      y2="71.5864"
      gradientUnits="userSpaceOnUse"
    >
      <stop stop-color="#F5C144" />
      <stop offset="0.412446" stop-color="#F5C144" />
      <stop offset="1" stop-color="#FFD570" />
    </linearGradient>
  </defs>
</svg>
