<svg viewBox="0 0 41 40" fill="none" xmlns="http://www.w3.org/2000/svg">
  <path
    d="M21.1665 3C30.2791 3 37.6665 10.6112 37.6665 20C37.6665 29.3888 30.2791 37 21.1665 37C12.0538 37 4.6665 29.3888 4.6665 20C4.6665 10.6112 12.0538 3 21.1665 3ZM21.1665 5.55C13.4207 5.55 7.1415 12.0195 7.1415 20C7.1415 27.9805 13.4207 34.45 21.1665 34.45C28.9123 34.45 35.1915 27.9805 35.1915 20C35.1915 12.0195 28.9123 5.55 21.1665 5.55ZM19.104 22.4468L26.479 14.8484C26.9623 14.3505 27.7457 14.3505 28.229 14.8484C28.6684 15.3011 28.7083 16.0094 28.3488 16.5086L28.229 16.6515L19.979 25.1515C19.5398 25.6042 18.8522 25.6454 18.3678 25.2749L18.229 25.1515L14.104 20.9015C13.6207 20.4036 13.6207 19.5964 14.104 19.0985C14.5433 18.6458 15.2308 18.6046 15.7153 18.9751L15.854 19.0985L19.104 22.4468L26.479 14.8484L19.104 22.4468Z"
    fill="#B4E17B"
  />
</svg>
