<svg viewBox="0 0 24 24" fill="none" xmlns="http://www.w3.org/2000/svg">
  <path
    d="M16 6.77492V6.49992C16 4.47409 14.4338 2.83325 12.5 2.83325C10.5663 2.83325 9 4.47409 9 6.49992V11.0833"
    stroke="currentColor"
    stroke-width="1.3"
    stroke-linecap="round"
    stroke-linejoin="round"
  />
  <path
    d="M9.91016 14.0074C10.5489 14.7499 11.4764 15.2083 12.5002 15.2083C14.4339 15.2083 16.0002 13.5674 16.0002 11.5416V11.0833"
    stroke="currentColor"
    stroke-width="1.3"
    stroke-linecap="round"
    stroke-linejoin="round"
  />
  <path
    d="M7.93262 16.5376C9.13137 17.7018 10.7326 18.4168 12.5001 18.4168C16.1926 18.4168 19.1939 15.2726 19.1939 11.4043V9.84595"
    stroke="currentColor"
    stroke-width="1.3"
    stroke-linecap="round"
    stroke-linejoin="round"
  />
  <path
    d="M5.80615 9.84595V11.4043C5.80615 12.3759 5.9899 13.2926 6.33115 14.1359"
    stroke="currentColor"
    stroke-width="1.3"
    stroke-linecap="round"
    stroke-linejoin="round"
  />
  <path
    d="M19.5615 3.60327L5.43896 18.4074"
    stroke="currentColor"
    stroke-width="1.3"
    stroke-linecap="round"
    stroke-linejoin="round"
  />
  <path
    d="M11.625 3.75V6.5"
    stroke="currentColor"
    stroke-width="1.3"
    stroke-linecap="round"
    stroke-linejoin="round"
  />
  <path
    d="M12.5 18.4167V21.1667"
    stroke="currentColor"
    stroke-width="1.3"
    stroke-linecap="round"
    stroke-linejoin="round"
  />
</svg>
