<svg viewBox="0 0 41 40" fill="none" xmlns="http://www.w3.org/2000/svg">
  <path
    d="M18.8488 4.63702C20.5818 3.67717 22.7451 4.2349 23.8081 5.87075L23.9461 6.10047L36.8778 29.4476C37.1858 30.0036 37.3473 30.6289 37.3473 31.2646C37.3473 33.2493 35.8054 34.8739 33.8541 35.0059L33.5973 35.0146H7.73775C7.10223 35.0146 6.47715 34.8531 5.92116 34.5453C4.1881 33.5856 3.51303 31.4558 4.33563 29.6868L4.45713 29.4479L17.3851 6.10085C17.7259 5.48525 18.2333 4.97799 18.8488 4.63702ZM34.6908 30.6589L21.7593 7.31179C21.4248 6.70787 20.6639 6.48947 20.0601 6.82397C19.9063 6.9092 19.7726 7.02564 19.6674 7.16508L19.5723 7.31192L6.64421 30.6591C6.30978 31.2629 6.52828 32.0236 7.13223 32.3581C7.27121 32.4351 7.42316 32.4846 7.57983 32.5046L7.73775 32.5146H33.5973C34.2876 32.5146 34.8473 31.9549 34.8473 31.2646C34.8473 31.1056 34.8171 30.9486 34.7586 30.8019L34.6908 30.6589L21.7593 7.31179L34.6908 30.6589ZM20.6673 26.6698C21.5864 26.6698 22.3316 27.4149 22.3316 28.3341C22.3316 29.2534 21.5864 29.9986 20.6673 29.9986C19.7479 29.9986 19.0028 29.2534 19.0028 28.3341C19.0028 27.4149 19.7479 26.6698 20.6673 26.6698ZM20.6603 14.166C21.2929 14.1655 21.8164 14.6353 21.8996 15.2454L21.9113 15.415L21.9173 22.9176C21.9178 23.6081 21.3586 24.1681 20.6683 24.1686C20.0354 24.1691 19.5119 23.6993 19.4288 23.0893L19.4173 22.9196L19.4113 15.417C19.4106 14.7267 19.9698 14.1666 20.6603 14.166Z"
    fill="#AE1914"
  />
</svg>
