<svg viewBox="0 0 280 353" fill="none" xmlns="http://www.w3.org/2000/svg">
  <g opacity="0.4">
    <path
      d="M280 208.004C152.386 208.004 137.722 353 0 353L1.49733 0C112.317 0 177.226 127.977 280 163.841V208.004Z"
      fill="#98B7EB"
      fill-opacity="0.33"
    />
    <path
      d="M280 252.923C251.626 265.034 221.509 280 180.378 280C99.9154 280 61.6488 240.849 1 227.074V88C58.377 115.811 111.413 151.802 144.873 151.802C190.43 151.802 225.364 121.618 280 111.688V252.923Z"
      fill="#80A0D0"
      fill-opacity="0.53"
    />
    <path
      d="M279.5 327.19C213.68 327.19 119.801 234.575 60.3102 234.575C37.306 234.575 21.4253 249.842 1 268.5V138C18.5587 141.957 34.6169 144.237 60.3102 144.237C112.719 144.237 161.026 101.183 280 92.5821L279.5 327.19Z"
      fill="#0157CB"
      fill-opacity="0.3"
    />
  </g>
</svg>
