<svg viewBox="0 0 24 24" fill="none" xmlns="http://www.w3.org/2000/svg">
  <path
    d="M12.6456 18.7333C12.289 19.0889 11.711 19.0889 11.3544 18.7333L5.26742 12.6618C4.91086 12.3061 4.91086 11.7296 5.26742 11.3739C5.62398 11.0183 6.2021 11.0183 6.55866 11.3739L11.087 15.8906V2.91072C11.087 2.40775 11.4958 2 12 2C12.5043 2 12.9131 2.40775 12.9131 2.91072V15.8906L17.4414 11.3739C17.798 11.0183 18.376 11.0183 18.7326 11.3739C19.0891 11.7296 19.0891 12.3061 18.7326 12.6618L12.6456 18.7333Z"
    fill="currentColor"
  />
  <path
    d="M4.82759 22C4.37053 22 4 21.5523 4 21C4 20.4477 4.37053 20 4.82759 20H19.1724C19.6295 20 20 20.4477 20 21C20 21.5523 19.6295 22 19.1724 22H4.82759Z"
    fill="currentColor"
  />
</svg>
