<svg viewBox="0 0 24 24" fill="none" xmlns="http://www.w3.org/2000/svg">
  <path
    d="M16.2071 19.7071C16.5976 19.3166 16.5976 18.6834 16.2071 18.2929L9.91422 12L16.2071 5.70709C16.5976 5.31657 16.5976 4.68342 16.2071 4.29289C15.8166 3.90239 15.1834 3.90239 14.7929 4.29289L7.7929 11.2929C7.40236 11.6834 7.40236 12.3166 7.7929 12.7071L14.7929 19.7071C15.1834 20.0976 15.8166 20.0976 16.2071 19.7071Z"
    fill="currentColor"
  />
  <path
    d="M16.2071 19.7071C16.5976 19.3166 16.5976 18.6834 16.2071 18.2929L9.91422 12L16.2071 5.70709C16.5976 5.31657 16.5976 4.68342 16.2071 4.29289C15.8166 3.90239 15.1834 3.90239 14.7929 4.29289L7.7929 11.2929C7.40236 11.6834 7.40236 12.3166 7.7929 12.7071L14.7929 19.7071C15.1834 20.0976 15.8166 20.0976 16.2071 19.7071Z"
    fill="black"
    fill-opacity="0.2"
  />
</svg>
