<svg
  width="73"
  height="73"
  viewBox="0 0 73 73"
  fill="none"
  xmlns="http://www.w3.org/2000/svg"
>
  <path
    fill-rule="evenodd"
    clip-rule="evenodd"
    d="M17.5583 15.0144C16.0521 15.0144 14.8309 16.2253 14.8309 17.7189V60.9857C14.8309 62.4793 13.6101 63.6898 12.1039 63.6898C10.5977 63.6898 9.37695 62.4793 9.37695 60.9857V17.7189C9.37695 13.2384 13.0399 9.60626 17.5583 9.60626H42.5699C44.7394 9.60626 46.8204 10.461 48.3548 11.9821L61.5222 25.0388C63.0562 26.5603 63.9181 28.6238 63.9181 30.7751V60.9853C63.9181 62.4788 62.6974 63.6893 61.1912 63.6893C59.685 63.6893 58.4642 62.4788 58.4642 60.9853V31.2387H50.2828C45.7639 31.2387 42.1015 27.6065 42.1015 23.126V15.0134L17.5583 15.0144ZM47.5559 18.8389V23.127C47.5559 24.6205 48.7771 25.8315 50.2833 25.8315H54.6077L47.5559 18.8389Z"
    fill="#034FB6"
  />
  <path
    d="M28.6746 51.2044C28.2523 50.1935 28.4856 49.0305 29.2658 48.2572L34.7198 42.8487C35.2311 42.3416 35.925 42.0569 36.6482 42.0569C37.3715 42.0569 38.0654 42.3416 38.5767 42.8487L44.0306 48.2572C44.8109 49.0305 45.0442 50.1935 44.6219 51.2044C44.2 52.2149 43.2057 52.8735 42.1026 52.8735H39.3751V60.9862C39.3751 62.4797 38.1544 63.6902 36.6482 63.6902C35.142 63.6902 33.9212 62.4797 33.9212 60.9862V52.8735H31.1938C30.0908 52.8735 29.0964 52.2148 28.6745 51.2044H28.6746Z"
    fill="#F5C144"
  />
</svg>
