<svg viewBox="0 0 24 24" fill="none" xmlns="http://www.w3.org/2000/svg">
  <path
    d="M14.4001 6.60191C14.4001 4.94405 15.7441 3.6001 17.4019 3.6001C19.0598 3.6001 20.4037 4.94405 20.4037 6.60191C20.4037 8.25976 19.0598 9.60372 17.4019 9.60372C16.4419 9.60372 15.5871 9.15309 15.0377 8.45182L9.49811 11.2216C9.56462 11.4699 9.6001 11.7309 9.6001 12.0001C9.6001 12.2693 9.56466 12.5301 9.49819 12.7783L15.0393 15.5489C15.5885 14.8494 16.4418 14.4001 17.4001 14.4001C19.0569 14.4001 20.4001 15.7433 20.4001 17.4001C20.4001 19.0569 19.0569 20.4001 17.4001 20.4001C15.7433 20.4001 14.4001 19.0569 14.4001 17.4001C14.4001 17.1309 14.4355 16.8701 14.502 16.6218L8.961 13.8513C8.41177 14.5508 7.5584 15.0001 6.6001 15.0001C4.94325 15.0001 3.6001 13.6569 3.6001 12.0001C3.6001 10.3432 4.94325 9.0001 6.6001 9.0001C7.55828 9.0001 8.41156 9.44932 8.9608 10.1486L14.5015 7.3783C14.4354 7.13065 14.4001 6.8704 14.4001 6.60191ZM17.4019 4.8001C16.4067 4.8001 15.6001 5.6068 15.6001 6.60191C15.6001 7.59702 16.4067 8.40372 17.4019 8.40372C18.3971 8.40372 19.2037 7.59702 19.2037 6.60191C19.2037 5.6068 18.3971 4.8001 17.4019 4.8001ZM17.4001 15.6001C16.406 15.6001 15.6001 16.406 15.6001 17.4001C15.6001 18.3942 16.406 19.2001 17.4001 19.2001C18.3942 19.2001 19.2001 18.3942 19.2001 17.4001C19.2001 16.406 18.3942 15.6001 17.4001 15.6001ZM4.8001 12.0001C4.8001 12.9942 5.60598 13.8001 6.6001 13.8001C7.59421 13.8001 8.4001 12.9942 8.4001 12.0001C8.4001 11.006 7.59421 10.2001 6.6001 10.2001C5.60598 10.2001 4.8001 11.006 4.8001 12.0001Z"
    fill="currentColor"
  />
</svg>
