<svg viewBox="0 0 697 106" fill="none" xmlns="http://www.w3.org/2000/svg">
  <g>
    <path
      d="M132.223 64.2416C113.421 57.876 37.1781 57.0032 0.970703 56.777C45.0985 53.9117 112.233 51.8005 159.378 45.2407C185.175 41.6513 211.804 16.7393 239.336 16.7393C266.869 16.7393 298.55 45.2407 314.768 45.2407C330.986 45.2407 342.678 32.3472 365.308 32.3472C387.938 32.3472 412.83 51.3481 446.397 51.3481C461.107 51.3481 478.833 36.645 502.594 36.645C522.584 36.645 533.144 44.5621 555.02 49.3123C576.895 54.0625 658.362 59.1144 696.078 60.17C667.036 59.9438 600.493 58.4963 568.22 59.039C527.864 59.7176 520.698 69.8967 502.594 69.8967C475.439 69.8967 481.473 61.5272 446.397 61.5272C426.408 61.5272 417.733 74.8731 401.515 74.8731C387.183 74.8731 384.92 69.4442 369.457 71.0277C355.701 72.4362 344.564 83.4688 325.329 83.4688C296.288 83.4688 285.727 66.2774 259.326 66.2774C232.925 66.2774 211.426 83.4688 191.814 83.4688C166.544 83.4688 155.607 72.1587 132.223 64.2416Z"
      fill="#80A0D0"
      fill-opacity="0.53"
    />
  </g>
</svg>
