<svg viewBox="0 0 697 106" fill="none" xmlns="http://www.w3.org/2000/svg">
  <g>
    <path
      d="M1.34863 56.7767L2.48696 56.7494C50.0903 55.6067 149.113 53.2298 185.78 62.2058C220.926 70.8094 239.714 105.184 265.361 105.184C306.472 105.184 320.804 61.9793 358.897 61.9793C389.447 61.9793 406.796 99.755 436.969 99.755C481.215 99.755 479.921 56.4167 635.048 58.2043C659.462 59.0772 679.655 59.7603 686.272 60.1699C667.512 59.0085 650.504 58.3824 635.048 58.2043C587.565 56.5067 524.117 54.0914 513.533 51.5741C491.657 46.3714 473.931 34.6089 447.152 34.6089C421.883 34.6089 395.482 51.5741 370.966 51.5741C330.233 51.5741 312.883 8.39233e-05 274.413 8.39233e-05C235.943 8.39233e-05 215.199 41.169 181.631 45.693C157.567 48.9363 19.9552 55.4949 1.34863 56.7767Z"
      fill="#98B7EB"
      fill-opacity="0.33"
    />
  </g>
</svg>
