<svg viewBox="0 0 17 14" fill="none" xmlns="http://www.w3.org/2000/svg">
  <path
    d="M0 14V10.3158C0 9.19688 0.18423 8.00975 0.55269 6.75439C0.933856 5.48538 1.48019 4.26413 2.1917 3.09064C2.91592 1.90351 3.78625 0.873293 4.80269 0L7.24215 2.12865C6.4417 3.35673 5.7429 4.63938 5.14574 5.97661C4.56129 7.30019 4.26906 8.7193 4.26906 10.2339V14H0ZM9.75785 14V10.3158C9.75785 9.19688 9.94208 8.00975 10.3105 6.75439C10.6917 5.48538 11.238 4.26413 11.9496 3.09064C12.6738 1.90351 13.5441 0.873293 14.5605 0L17 2.12865C16.1996 3.35673 15.5007 4.63938 14.9036 5.97661C14.3191 7.30019 14.0269 8.7193 14.0269 10.2339V14H9.75785Z"
    fill="#F5C144"
  />
</svg>
